<svg id="Layer_1" data-name="Layer 1" xmlns="http://www.w3.org/2000/svg" xmlns:xlink="http://www.w3.org/1999/xlink" viewBox="0 0 195 451.71"><defs><style>.cls-1{fill:url(#linear-gradient);}.cls-2{fill:url(#linear-gradient-2);}.cls-3{fill:url(#linear-gradient-3);}.cls-4{fill:url(#linear-gradient-4);}</style><linearGradient id="linear-gradient" x1="94.93" y1="221.18" x2="94.93" y2="423.02" gradientUnits="userSpaceOnUse"><stop offset="0" stop-color="#80a8aa"/><stop offset="0.64" stop-color="#8db4ba"/><stop offset="1" stop-color="#f2f2f2"/></linearGradient><linearGradient id="linear-gradient-2" x1="97.5" y1="-95.04" x2="97.5" y2="393.51" xlink:href="#linear-gradient"/><linearGradient id="linear-gradient-3" x1="90.6" y1="-136.24" x2="90.6" y2="237.05" xlink:href="#linear-gradient"/><linearGradient id="linear-gradient-4" x1="97.01" y1="-102.97" x2="97.01" y2="85.04" xlink:href="#linear-gradient"/></defs><path class="cls-1" d="M30.6,390.45l2.31,38.37c5.44-2.21,7.09-9.75,6.65-16s-2.1-12.79-.13-18.72,10-9.76,13.59-4.81c1.94,2.66,1.61,6.44,2.32,9.74s4,6.71,6.62,4.91c-1.06-6.3-1-13.27,2.39-18.53s10.9-7.65,15.4-3.5c4,3.69,3.94,10.29,3.56,16L81.19,429c-.38,5.55-.7,11.44,1.68,16.37s8.51,8.18,12.83,5.16q.78-24.94,1.58-49.89c.11-3.46.59-7.58,3.44-9.13,3.39-1.85,7.43,1.68,8.55,5.61s.52,8.2,1.2,12.25a5.78,5.78,0,0,0,1.33,3.15c2.45,2.45,6.45-1.1,6.8-4.69s-1.07-7.24-.49-10.8,5.17-6.52,7.11-3.58a35.22,35.22,0,0,1,1.59,16.37l5.13.93c2.47-3.32,2-8.07,2.06-12.34s1.72-9.41,5.61-10.07c5.69-1,7.83,7.78,7.6,14l-.54,14.58c-.11,2.9-.18,6,1.18,8.49s4.7,4,6.79,2.16L155,377c0-2.58.12-5.42,1.72-7.34,3.31-4,9.83-.21,11.4,4.87s.35,10.65.9,16,4.4,11.22,9.24,10.13C188.45,385,181.16,232.05,167,220.53s-22.31.73-40,0c-24.7-1-81.52,11.4-106,15.12C2.5,238.47,7.1,350.66,8,374c.23,5.7,1.05,16.67,7.9,15.59C21.41,388.69,29.51,372.33,30.6,390.45Z"/><path class="cls-2" d="M15.1,326.84c0-12,0-24.38,2.24-35.5s7.36-20.8,13.33-20.88a11.75,11.75,0,0,1,2,6c.21,3.53-1.24,5.63-2,9.33-.59,3-.88,7.7.81,15.2,3.74,1.73,6.76-6.8,7.15-14.46s-.65-30.31.56-23c1,6.2,6,14.4,8.79-6.91,2.14-16.17,2.07,27.15,1,34.55-1,7.13-3.15,15.1-2.06,25.49a51.89,51.89,0,0,0,1.9,9.57,5,5,0,0,0,1.91-1.91c2-3.35,1.22-7.89,2.73-14.45,1.28-5.53,3.88-11.22,5.47-10a3.56,3.56,0,0,1,1,1.68,344.75,344.75,0,0,0,1.18,40.2c.47,5.29,1.3,11.18,3.65,13.72,2.79,3,6.43-.57,8.06-6s1.81-12.12,1.93-18.48l.57-30.23c.2-10.58,1.61-24.1,6.81-25.74,4.46-1.41,8,7.93,8.93,16.83s.26,18.37,1.79,26.92,6.72,15.66,10.47,10.63a49.63,49.63,0,0,0,2.58-8.88c1.73-8.76,1.1-16.46.77-22.71a306.3,306.3,0,0,1,.1-32.29,4.31,4.31,0,0,1,1.67-2.23c2.59-1.37,6.06,8.33,7.62,16.8,2.53,13.79,0,24.82,2.21,27,.74.73,2.06.57,4.67-3.72a31.86,31.86,0,0,0,1-5.85c.5-5.81-.75-8.72-1.23-15.31-.27-3.74-.88-12,1.23-15.33s5.75.11,6.38.71a271.43,271.43,0,0,0,.5,37.35,242.47,242.47,0,0,0,5.58,35.64c7.23,1.86,10.05-1.75,11.34-4.76,5.19-12.23-.52-48.61-7.69-94.3a60.76,60.76,0,0,1,.17-18.67c1.11-5.89,4.52-10.56,7.37-8,2.36,2.13,3.24,7.87,3.75,13a375.11,375.11,0,0,1,1.81,42c-.17,13.18-1,27,1.65,39.06s10.35,20.91,15.86,13.8c4.82-6.22,5.14-19.87,4.94-31.37q-.68-37.06-1.33-74.13c3.37-2.14,6,6.5,6.2,13.59s-.26,15.37,2.36,20.15c2.46,4.52,6.68,3,9-1.88s3.31-12,3-18.66C192.9,179,176.29,87.92,168.4,130.89c-4.61,25.1-25,22-39.2,21.11l-74.63-4.61C42.37,146.63,14,80.82,3.82,94.51c-9.11,12.3,1.15,99.69-.4,121.54C1.51,243,.05,312.94,15.1,326.84Z"/><path class="cls-3" d="M24.58,170,27,207.32c5.59-2.15,7.27-9.49,6.82-15.59s-2.15-12.44-.13-18.2,10.25-9.48,13.94-4.68c2,2.6,1.66,6.26,2.39,9.48s4.07,6.52,6.79,4.77a10.69,10.69,0,0,0,1.74-6c-.22-2.44-1.77-3-2-5.19-.23-2.79,1.88-5.65,2.68-6.83,3.45-5.11,11.18-7.44,15.8-3.4,4.11,3.59,4,10,3.65,15.53q-1.08,15.15-2.17,30.29c-.39,5.39-.72,11.12,1.72,15.92s8.74,8,13.17,5c.81-8.37,1-15.18,1-19.83,0-.21.21-9.69.65-28.67a17.34,17.34,0,0,1,.93-5.76,5.63,5.63,0,0,1,2.6-3.12c3.48-1.79,7.62,1.64,8.77,5.46s.53,8,1.23,11.9a5.5,5.5,0,0,0,1.36,3.07c2.52,2.38,6.63-1.07,7-4.56s-1.1-7-.51-10.5,5.31-6.33,7.31-3.48a32.73,32.73,0,0,1,1.63,15.91l5.26.91c2.53-3.23,2-7.85,2.11-12s1.77-9.15,5.76-9.79c5.84-.93,8,7.56,7.8,13.62q-.27,7.09-.55,14.17c-.12,2.82-.19,5.82,1.2,8.25s4.83,3.86,7,2.1A67.39,67.39,0,0,0,154,191.8c.36-10.57-1.55-27.85-1.75-34.87a15.74,15.74,0,0,1,.54-4.87,6.2,6.2,0,0,1,1.23-2.27c3.4-3.86,10.09-.2,11.7,4.74s.36,10.35.92,15.52,4.52,10.91,9.49,9.85c10.51-15.22,3-163.87-11.51-175.07s-22.89.71-41,0c-25.36-1-83.67,11.08-108.8,14.7C-4.27,22.26.46,131.33,1.42,154c.23,5.54,1.08,16.2,8.11,15.15C15.14,168.3,23.46,152.4,24.58,170Z"/><path class="cls-4" d="M7.89,172.78c.12,6.46.3,13.19,2.41,18.86s6.74,9.89,10.92,7.84Q23.53,138.75,25.85,78c.26-7,.62-14.4,3.4-20.1s8.87-8.5,12.4-3.79q2,43.93,1.1,88c3.43,3.3,8.3-.88,9.77-6.49s.69-11.86.22-17.83a159.3,159.3,0,0,1,2.51-43.45c1.23-6.2,3-12.63,6.68-16.29S71.45,55,73.48,60.76a25.5,25.5,0,0,1,.9,8.17q.06,51.57.14,103.14c8.56-6.1,8.59-23.51,8.37-37.45s3.34-32.09,12.85-32.4c.08,1.42.16,2.85.23,4.29.54,11.32.63,22.24.37,32.7,0,9,2.07,15.63,4.21,16s5.74-5.83,6.89-16c-.52-24.69,2.69-44,3.52-57.55.69-11.27,2.49-24.8,9.74-28.72,5.55-3,12,1.77,15.31,8.92S140.32,78,140.9,86.6a400.49,400.49,0,0,1-.91,64.89c-.85,8.83-1.94,18.26.63,26.36s10.57,13,14.89,6.67q1.06-24.57,2.12-49.13c.42-9.54,2.68-21.92,9.2-22.25,6.28-.32,9.27,11,10.44,20.09,2.55,2.79,6.44.91,8.41-2.77s2.49-8.52,2.9-13.15A635,635,0,0,0,190,25.81c-.27-4.71-.69-9.77-2.86-13.27-2.52-4.07-6.63-4.83-10.38-5.28A508.81,508.81,0,0,0,33,10.31C-12.35,17.75,6.93,122.35,7.89,172.78Z"/></svg>