<svg id="Layer_1" data-name="Layer 1" xmlns="http://www.w3.org/2000/svg" xmlns:xlink="http://www.w3.org/1999/xlink" viewBox="0 0 250.97 264.09"><defs><style>.cls-1{fill:url(#radial-gradient);}.cls-2{fill:url(#radial-gradient-2);}.cls-3{fill:url(#radial-gradient-3);}.cls-4{fill:url(#radial-gradient-4);}.cls-5{fill:url(#radial-gradient-5);}.cls-6{fill:url(#radial-gradient-6);}.cls-7{fill:url(#radial-gradient-7);}.cls-8{fill:url(#radial-gradient-8);}.cls-9{fill:url(#radial-gradient-9);}.cls-10{fill:url(#radial-gradient-10);}.cls-11{fill:url(#radial-gradient-11);}.cls-12{fill:url(#radial-gradient-12);}</style><radialGradient id="radial-gradient" cx="138.02" cy="132.05" r="93.48" gradientUnits="userSpaceOnUse"><stop offset="0" stop-color="#a17665"/><stop offset="0.64" stop-color="#957672"/><stop offset="1" stop-color="#bf8f8a"/></radialGradient><radialGradient id="radial-gradient-2" cx="172.08" cy="174.91" r="54.43" xlink:href="#radial-gradient"/><radialGradient id="radial-gradient-3" cx="207.42" cy="166" r="37.72" xlink:href="#radial-gradient"/><radialGradient id="radial-gradient-4" cx="238.35" cy="134.76" r="15.82" xlink:href="#radial-gradient"/><radialGradient id="radial-gradient-5" cx="103.95" cy="119.22" r="53.89" xlink:href="#radial-gradient"/><radialGradient id="radial-gradient-6" cx="108.62" cy="87.99" r="26.25" xlink:href="#radial-gradient"/><radialGradient id="radial-gradient-7" cx="160.3" cy="104.93" r="35.94" xlink:href="#radial-gradient"/><radialGradient id="radial-gradient-8" cx="148.84" cy="69.36" r="24.61" xlink:href="#radial-gradient"/><radialGradient id="radial-gradient-9" cx="123.17" cy="47.9" r="18.29" xlink:href="#radial-gradient"/><radialGradient id="radial-gradient-10" cx="87.83" cy="174.53" r="37.91" xlink:href="#radial-gradient"/><radialGradient id="radial-gradient-11" cx="25.93" cy="199.63" r="29.57" xlink:href="#radial-gradient"/><radialGradient id="radial-gradient-12" cx="31.66" cy="159.74" r="16.9" xlink:href="#radial-gradient"/></defs><polygon class="cls-1" points="131.56 2.07 138.53 264.09 144.47 260.31 138.3 0 131.56 2.07 131.56 2.07 131.56 2.07"/><polygon class="cls-2" points="209.58 110.89 129.35 237.42 136.23 238.94 214.81 115.61 209.58 110.89 209.58 110.89 209.58 110.89"/><polygon class="cls-3" points="245.74 135.18 163.87 190.87 167.66 196.81 250.97 139.9 245.74 135.18 245.74 135.18 245.74 135.18"/><polygon class="cls-4" points="243.7 116.02 226.13 148.77 231.35 153.49 250.58 117.55 243.7 116.02 243.7 116.02 243.7 116.02"/><polygon class="cls-5" points="123.46 120.01 65.95 56.96 60.01 60.75 138.1 179.95 144.98 181.48 147.9 149.14 123.46 120.01 123.46 120.01 123.46 120.01"/><polygon class="cls-6" points="100.01 53.84 94.07 57.62 117.23 122.15 123.17 118.36 100.01 53.84 100.01 53.84 100.01 53.84"/><polygon class="cls-7" points="171.48 57.75 142.08 152.37 149.13 152.1 178.52 57.48 171.48 57.75 171.48 57.75 171.48 57.75"/><polygon class="cls-8" points="156.45 38.07 134.18 100.92 140.91 98.85 163.5 37.8 156.45 38.07 156.45 38.07 156.45 38.07"/><polygon class="cls-9" points="128.11 48.83 114.7 27.2 107.66 27.46 131.95 68.61 138.68 66.54 128.11 48.83 128.11 48.83 128.11 48.83"/><polygon class="cls-10" points="123.87 162.82 58.68 158.67 36.61 182.73 42.88 185.95 63.97 165.07 113.27 166.39 132.01 190.38 139.05 190.11 123.87 162.82 123.87 162.82 123.87 162.82"/><polygon class="cls-11" points="48.08 166.83 0 230.9 6.88 232.43 51.87 172.77 48.08 166.83 48.08 166.83 48.08 166.83"/><polygon class="cls-12" points="51.87 165.05 14.42 147.4 11.2 153.66 52.13 172.09 51.87 165.05 51.87 165.05 51.87 165.05"/></svg>