<svg id="Layer_1" data-name="Layer 1" xmlns="http://www.w3.org/2000/svg" xmlns:xlink="http://www.w3.org/1999/xlink" viewBox="0 0 303.47 286.93"><defs><style>.cls-1{fill:url(#radial-gradient);}</style><radialGradient id="radial-gradient" cx="1497.43" cy="2370.06" r="110.87" gradientTransform="translate(-2080.24 -3963.01) scale(1.45 1.75)" gradientUnits="userSpaceOnUse"><stop offset="0" stop-color="#6d7751"/><stop offset="0.53" stop-color="#8b9766"/><stop offset="1" stop-color="#aeb98d"/></radialGradient></defs><polygon class="cls-1" points="193.59 0 188.83 51.15 186.15 50.01 178.18 13.94 174.74 16.09 181.39 87.68 161.61 100.23 158.34 26.14 153.59 21.39 150.4 21.79 146.41 63.11 137.7 14.98 132.56 14.04 147.26 114.91 131.67 120.87 120.08 106.94 120.24 107.08 132.22 97.39 131.82 68.74 126.86 64.51 123.55 66.16 119.92 90 118.69 90.19 117.22 88.52 111.63 11.04 109.13 12.26 106.8 54.05 106.95 54.04 105.31 64.17 104.66 64.74 104.09 64.65 94.69 16.91 91.83 16.2 87.22 36.61 78.07 5.74 76.77 5.4 73.4 7.82 77.97 46.65 86.59 53.92 89.17 69.54 104.21 80.87 108.5 116.78 112.75 121.59 112.85 121.42 135.71 203.79 111.65 124.5 108.5 122.35 105.52 123.82 102.77 153.99 102.19 154.48 94.62 149.84 89.75 121.57 86.6 119 80.88 129.09 84.21 154.56 105.55 171.89 106.19 180.18 75.37 158.58 70.46 115.22 80.92 101.39 77.56 65.59 75.27 64.7 71.98 67.7 66.51 99.83 62.74 27.78 59.67 26.55 55.91 29.05 54.94 50.12 52.66 49.41 43.63 23.37 40.08 26.04 40.13 59.29 54.45 67.97 55.85 120.81 53.45 118.36 47.83 69.75 46.34 69.79 48.79 130.23 58.91 137.26 59.11 152.52 43.56 140.64 37.64 78.92 34.62 76.24 30.01 79.26 27.82 86.78 27.97 86.82 27.75 127.41 26.26 126.23 22.58 54.7 18.15 54.82 14.46 94.8 9.65 48.72 5.43 44.31 0 48.88 34.49 154.28 127.34 216.09 141.04 286.29 151.55 286.94 153.56 285.05 155.12 285.91 156.88 285 161.89 221.46 161.87 221.48 161.92 221.4 161.91 221.42 164.65 217.92 164.63 217.94 164.83 217.75 164.82 217.76 200.9 195.03 200.03 195.46 214.26 187.2 214.18 187.24 215.04 186.81 214.75 186.96 229.62 178.07 228.76 178.51 284.26 125.4 288.15 103.64 288.08 104.22 287.92 100.27 287.99 100.48 287.24 97.74 281.54 97.42 276.34 104.99 276.36 104.94 271.15 120.54 270.32 120.41 271.25 111.99 271.22 112.34 285.59 87.36 285.56 87.38 291.66 83.09 291.53 83.22 291.77 82.99 291.71 83.05 302.06 57.5 302.02 57.85 302.7 52.91 302.67 53.26 302.92 51.14 302.92 51.19 303.1 48.63 303.08 48.78 303.12 48.44 303.12 48.51 303.46 30.75 303.46 30.76 301.39 24 297.08 23.98 292.38 39.88 292.48 39.01 291.95 43.04 292.05 42.18 291.03 64.06 291.03 64.04 291.01 64.28 291.01 64.2 288.48 73 288.56 72.86 288.5 72.97 288.61 72.8 287.2 74.64 287.62 74.25 286.23 75.51 286.28 75.45 279.93 76.44 276.88 45.64 276.84 45.99 277.3 37.82 277.29 37.89 276.98 15.45 270.82 11.13 268.36 13.81 268.37 13.77 267.29 16.56 267.65 15.51 267.36 35.52 267.34 35.4 266.9 68.74 266.91 68.62 267.51 81.76 267.47 81.41 268.36 105.43 266.59 106.74 265.11 106.17 265.12 106.18 263.16 87.37 263.28 87.56 262.69 86.5 262.72 86.55 261.84 85.26 260.74 86.24 260.91 85.97 259.46 88.25 259.63 87.98 251.09 143.06 262.81 76.03 262.8 76.11 262.81 35.34 262.92 35.66 260.24 33.48 260.25 33.48 260.02 33.37 252.25 78.6 248.8 53.08 245.54 52.57 240.62 96.03 240.68 95.95 237.33 97.77 235.74 96 235.76 96.02 235.18 94.63 235.17 94.63 235.17 94.61 235.17 94.61 234.62 84.01 234.61 84.08 232.19 75.96 229.58 76.58 228.32 80.52 228.32 80.43 228.31 80.55 228.32 80.55 235.22 152.47 229.03 153.66 227.02 145.4 228.12 143.61 228.06 143.69 228.95 142.55 228.95 142.56 228.93 119.05 228.93 119.06 225.47 116.8 222 137.63 220.57 138.12 220.48 138.57 217.94 135.6 217.29 116.48 217.4 116.8 217.18 116.29 213.15 115.44 219.54 161 197.15 171.01 206.52 112.68 204.75 109.99 204.88 110.4 204.54 109.44 204.53 109.44 204.62 109.71 204.52 109.44 200.13 110.22 200.61 109.98 196.43 120.41 196.52 119.5 195.22 142.11 190.77 145.17 185.7 139.6 185.7 139.61 185.51 138.57 185.51 138.57 185.51 138.57 185.51 138.57 185.49 138.52 185.51 138.57 183.5 128.15 179.19 126.09 177.36 148.08 181.52 155.66 185.88 156.06 186.63 163.47 186.79 163.46 186.9 176.72 168.74 184.15 167.71 183.16 167.73 183.17 166.82 174.47 166.79 174.63 167.7 172.06 167.66 172.11 171.52 138.02 170.18 137.44 168.18 142.44 168.2 142.22 167.24 149.25 167.37 148.09 167.01 150.89 167.14 149.73 166.35 157.94 166.35 157.91 163.45 162.12 159.01 159.78 159.02 159.8 159.09 128.56 157.34 128.54 154.23 166.35 159.67 171.05 158.05 193.75 146.42 201.26 145.59 132.83 222.75 78.73 222.71 78.82 224.07 76.21 224.07 76.21 224.52 73.29 224.05 74.13 242.73 31.62 241.25 26.1 237.48 23.43 230.57 42.72 222.67 42.4 219.9 13.56 214.36 15.44 213.67 54.11 213.54 54.22 211.88 43.83 209.62 42.25 205.96 45.95 207.73 63.91 210.53 65.34 209.67 77.55 198.76 82.66 199.64 47.76 206.76 43.43 210.25 8.88 207.72 7.46 204.14 9.19 201.29 29.49 197.36 31.95 193.61 0 193.59 0 193.59 0 193.59 0 193.59 0"/></svg>