<svg id="Layer_1" data-name="Layer 1" xmlns="http://www.w3.org/2000/svg" xmlns:xlink="http://www.w3.org/1999/xlink" viewBox="0 0 226.86 270.94"><defs><style>.cls-1{fill:url(#radial-gradient);}.cls-2{fill:url(#radial-gradient-2);}.cls-3{fill:url(#radial-gradient-3);}.cls-4{fill:url(#radial-gradient-4);}.cls-5{fill:url(#radial-gradient-5);}.cls-6{fill:url(#radial-gradient-6);}.cls-7{fill:url(#radial-gradient-7);}.cls-8{fill:url(#radial-gradient-8);}.cls-9{fill:url(#radial-gradient-9);}.cls-10{fill:url(#radial-gradient-10);}</style><radialGradient id="radial-gradient" cx="103.28" cy="143.95" r="91.84" gradientUnits="userSpaceOnUse"><stop offset="0" stop-color="#585a73"/><stop offset="0.64" stop-color="#66697f"/><stop offset="1" stop-color="#7d8494"/></radialGradient><radialGradient id="radial-gradient-2" cx="134.73" cy="102.17" r="58.78" xlink:href="#radial-gradient"/><radialGradient id="radial-gradient-3" cx="64.77" cy="153.07" r="57.41" xlink:href="#radial-gradient"/><radialGradient id="radial-gradient-4" cx="162.52" cy="116.1" r="86.45" xlink:href="#radial-gradient"/><radialGradient id="radial-gradient-5" cx="163.01" cy="105.81" r="52.43" xlink:href="#radial-gradient"/><radialGradient id="radial-gradient-6" cx="82.14" cy="87.16" r="33.22" xlink:href="#radial-gradient"/><radialGradient id="radial-gradient-7" cx="69.42" cy="133.32" r="35.9" xlink:href="#radial-gradient"/><radialGradient id="radial-gradient-8" cx="45.24" cy="148.9" r="28.7" xlink:href="#radial-gradient"/><radialGradient id="radial-gradient-9" cx="172.97" cy="167.6" r="49.48" xlink:href="#radial-gradient"/><radialGradient id="radial-gradient-10" cx="204.53" cy="151.56" r="21.32" xlink:href="#radial-gradient"/></defs><polygon class="cls-1" points="130.53 268.85 81.95 16.96 76.03 19.16 125.98 270.94 130.53 268.85 130.53 268.85 130.53 268.85 130.53 268.85"/><polygon class="cls-2" points="141.92 19.89 122.86 184.45 127.7 183.35 146.61 23.13 141.92 19.89 141.92 19.89 141.92 19.89 141.92 19.89"/><polygon class="cls-3" points="129.54 199.31 0.23 104.13 0 109.9 39.13 123.38 125.27 202.02 129.54 199.31 129.54 199.31 129.54 199.31 129.54 199.31"/><polygon class="cls-4" points="129.83 232.2 200.82 65.62 190.41 0.66 187.03 0 190.53 93.35 124.23 231.61 129.83 232.2 129.83 232.2"/><polygon class="cls-5" points="169.63 32.58 151.38 176.17 155.64 179.03 174.65 34.48 169.63 32.58 169.63 32.58 169.63 32.58 169.63 32.58"/><polygon class="cls-6" points="57.31 47.29 70.78 88.83 103.81 127.04 106.97 124.82 62.75 47.77 57.31 47.29 57.31 47.29 57.31 47.29 57.31 47.29"/><polygon class="cls-7" points="41.99 93.67 78.17 136.75 91.76 176.04 96.84 172.88 81.5 128.31 45.11 90.59 41.99 93.67 41.99 93.67 41.99 93.67 41.99 93.67"/><polygon class="cls-8" points="8.94 134.24 37.32 156.43 79.92 167.07 81.54 163.6 13.13 130.73 8.94 134.24 8.94 134.24 8.94 134.24 8.94 134.24"/><polygon class="cls-9" points="132.02 220.31 218.99 118.61 215.75 114.89 126.95 218.36 132.02 220.31 132.02 220.31 132.02 220.31 132.02 220.31"/><polygon class="cls-10" points="186.19 171.81 226.86 133.43 223.69 131.31 182.21 168.93 186.19 171.81 186.19 171.81 186.19 171.81 186.19 171.81"/></svg>