<svg id="Layer_1" data-name="Layer 1" xmlns="http://www.w3.org/2000/svg" xmlns:xlink="http://www.w3.org/1999/xlink" viewBox="0 0 260.38 219.5"><defs><style>.cls-1{fill:url(#radial-gradient);}.cls-2{fill:url(#radial-gradient-2);}.cls-3{fill:url(#radial-gradient-3);}.cls-4{fill:url(#radial-gradient-4);}.cls-5{fill:url(#radial-gradient-5);}.cls-6{fill:url(#radial-gradient-6);}.cls-7{fill:url(#radial-gradient-7);}.cls-8{fill:url(#radial-gradient-8);}.cls-9{fill:url(#radial-gradient-9);}.cls-10{fill:url(#radial-gradient-10);}.cls-11{fill:url(#radial-gradient-11);}.cls-12{fill:url(#radial-gradient-12);}.cls-13{fill:url(#radial-gradient-13);}.cls-14{fill:url(#radial-gradient-14);}.cls-15{fill:url(#radial-gradient-15);}.cls-16{fill:url(#radial-gradient-16);}.cls-17{fill:url(#radial-gradient-17);}.cls-18{fill:url(#radial-gradient-18);}.cls-19{fill:url(#radial-gradient-19);}.cls-20{fill:url(#radial-gradient-20);}.cls-21{fill:url(#radial-gradient-21);}.cls-22{fill:url(#radial-gradient-22);}.cls-23{fill:url(#radial-gradient-23);}</style><radialGradient id="radial-gradient" cx="82.3" cy="141.86" r="70.31" gradientUnits="userSpaceOnUse"><stop offset="0" stop-color="#6b8c9c"/><stop offset="0.45" stop-color="#86adc2"/><stop offset="0.99" stop-color="#a6c3e1"/></radialGradient><radialGradient id="radial-gradient-2" cx="115.26" cy="83" r="0.72" xlink:href="#radial-gradient"/><radialGradient id="radial-gradient-3" cx="195.65" cy="115.72" r="70.78" xlink:href="#radial-gradient"/><radialGradient id="radial-gradient-4" cx="176.13" cy="117.73" r="2.76" xlink:href="#radial-gradient"/><radialGradient id="radial-gradient-5" cx="13.96" cy="102.82" r="2.63" xlink:href="#radial-gradient"/><radialGradient id="radial-gradient-6" cx="13.04" cy="96.84" r="4.26" xlink:href="#radial-gradient"/><radialGradient id="radial-gradient-7" cx="121.63" cy="124.22" r="1.58" xlink:href="#radial-gradient"/><radialGradient id="radial-gradient-8" cx="138.93" cy="157.28" r="1.37" xlink:href="#radial-gradient"/><radialGradient id="radial-gradient-9" cx="13.65" cy="95.45" r="1.35" xlink:href="#radial-gradient"/><radialGradient id="radial-gradient-10" cx="201.76" cy="99.55" r="61.26" xlink:href="#radial-gradient"/><radialGradient id="radial-gradient-11" cx="232.07" cy="30.09" r="1.72" xlink:href="#radial-gradient"/><radialGradient id="radial-gradient-12" cx="241.8" cy="31.63" r="2.7" xlink:href="#radial-gradient"/><radialGradient id="radial-gradient-13" cx="199.15" cy="84.57" r="68.1" xlink:href="#radial-gradient"/><radialGradient id="radial-gradient-14" cx="71.58" cy="73.94" r="60.43" xlink:href="#radial-gradient"/><radialGradient id="radial-gradient-15" cx="123.94" cy="202.72" r="125.23" xlink:href="#radial-gradient"/><radialGradient id="radial-gradient-16" cx="123" cy="124.14" r="2.41" xlink:href="#radial-gradient"/><radialGradient id="radial-gradient-17" cx="73.55" cy="75.79" r="54.58" xlink:href="#radial-gradient"/><radialGradient id="radial-gradient-18" cx="78.35" cy="18.46" r="5.76" xlink:href="#radial-gradient"/><radialGradient id="radial-gradient-19" cx="184.37" cy="22.71" r="5.03" xlink:href="#radial-gradient"/><radialGradient id="radial-gradient-20" cx="152.4" cy="10.43" r="58.34" xlink:href="#radial-gradient"/><radialGradient id="radial-gradient-21" cx="144.93" cy="19.34" r="42.62" xlink:href="#radial-gradient"/><radialGradient id="radial-gradient-22" cx="182.24" cy="19.96" r="9.04" xlink:href="#radial-gradient"/><radialGradient id="radial-gradient-23" cx="101.83" cy="103.68" r="96.69" xlink:href="#radial-gradient"/></defs><path class="cls-1" d="M87.85,68.84,64.22,92.31l-1.77.46-.81-.15L48.1,81.77,16.24,97.59l-1.44,4.86,2.1.32L41.38,86.84l16.2,12.61L63,100.68l13.24-8.79-.08.08,0,0,0,0,0,0h0L87.48,77.11,96,75.23l6.88,2.53,4.92,5.58.28,9.76-17.33,31-.66,9.6,5.07,6.89,23.29-.85,1.14,38.43,17.56,20.38,0,0,.21.31-.06-.08.06.08h0l2.87,12.56-.58,2.35,2.58,1.15,1.74-.76-.2.08.08,0-.08,0,6.07-2.36-2.24-17.07-.62.18-1.49-1.15-.25-2.57-.05,0h0l0,0h0l-.29-.42,0,0h0v0h0l-14.43-12.22-3.73-8.84,1.39-23-6.85-15.25L99.8,132.62l-.36-.14-1.53-4.22L115.1,94.62,104,70.1,87.85,68.84ZM111,139h0Z"/><polygon class="cls-2" points="115.09 82.48 115.5 84 115.01 82.01 115.09 82.48 115.09 82.48 115.09 82.48 115.09 82.48"/><path class="cls-3" d="M232.8,30.36l-2.06.32L217.17,42l-3.87,8.6-2.35,2-1.14.21-7-1.94L184.72,77.7l.93,1.28L187,91.39l13,6.81-.76,11.18L197.31,112l-15,.47L182,113l0-.05,0,0,0,0-7.39,23.25,6.14,11.33-2.8,16-2.12,1.78-15.42-3.67-6.75,9-.37-.06-.86-.68-.13-1.07,1.12-3.28,0,0v0l0,0v0l.86-1.92-6.5,23.76v0h.07l.46,5.57-1,1.78-.38.1-1.49-1.15-.15-1.07-1.93,5.3,1.74,3.06,3.06-1.74.56-1.93v0L159.1,168l16.11,3.26,7.22-3.91,5.14-20.22-1.23-3.57.06.18,0-.06,0,.06-6.48-15.24.26-5.47,2.64-4.07,15.61-1,5.55-4.73,2.8-14.66-1.92-5.23L190.44,85.5l-.32-1L200,57.42l2.23-.55,7.53,1.83,7-3.12,11.91-16.94,6.73-1.82,7.5,2.33,5-1.17-1.2-1.15.12-3.28L232.8,30.36ZM200.33,99.72l0,.18,0-.18Z"/><polygon class="cls-4" points="176.05 117.28 173.94 120.97 175.48 120.5 175.97 120.58 178.31 114.49 176.05 117.28 176.05 117.28 176.05 117.28 176.05 117.28"/><polygon class="cls-5" points="14.51 101.48 12.72 102.21 11.53 101.89 11.01 104.8 11.02 104.78 13.73 105.09 16.9 102.77 14.8 102.44 15.18 100.54 14.51 101.48 14.51 101.48 14.51 101.48 14.51 101.48"/><polygon class="cls-6" points="12.19 91.9 10.34 100.38 12.07 102.11 12.72 102.21 14.51 101.48 15.75 98.94 15.72 98.97 14.69 98.38 12.38 91.46 12.19 91.9 12.19 91.9 12.19 91.9 12.19 91.9"/><polygon class="cls-7" points="121.55 122.81 121.04 122.86 119.97 124.28 121.06 125.7 123.29 125.49 121.65 122.74 121.55 122.81 121.55 122.81 121.55 122.81 121.55 122.81"/><path class="cls-8" d="M138,157.8l.06.68.63.52h.55l.57-.38h0l-1-3L138,157.8Zm1.81.8Z"/><polygon class="cls-9" points="12.92 94.73 14.33 97.18 14.38 97.22 13.13 93.69 12.92 94.73 12.92 94.73 12.92 94.73 12.92 94.73"/><polygon class="cls-10" points="233.02 28.39 229.44 28.64 220.29 34.52 220.42 34.47 220.36 34.5 220.43 34.49 211.8 40.71 212.18 40.49 212.05 40.58 212.19 40.5 190.22 58.44 183.19 77.33 181.79 77.97 178.34 114.47 178.31 114.49 175.97 120.58 173.94 120.97 163.57 146.85 163.66 146.78 163.65 146.8 163.68 146.78 153.44 165.68 153.51 165.59 152.36 168.91 152.49 169.98 153.34 170.66 153.72 170.72 160.47 161.72 175.89 165.38 178.01 163.6 181.52 153.49 174.66 136.25 178.22 122.59 177.65 121.51 182.06 113 181.99 113.09 182.32 112.39 197.31 111.96 199.26 109.38 200.02 98.2 186.99 91.39 185.04 77.95 184.72 77.69 202.82 50.82 210.26 52.75 230.74 30.69 230.43 29.71 246.86 33.55 246.87 33.54 250.74 32.97 251.16 31.93 251.15 31.75 251.15 31.79 250.73 30.91 233.02 28.39 233.02 28.39 233.02 28.39 233.02 28.39"/><path class="cls-11" d="M232.66,29.19l-2.57.73-.23.89.89.24,1.56-.37,1.15.43.81-.35V29.49l-1-.41-.61.11Zm-.21,1.34,0,0,0,0Z"/><path class="cls-12" d="M238.37,30.43l.07.49,5.69,2.4,1-.4.11-.43-.25-.62L239,30l-.61.48Zm.59.84,0,0,0,0Z"/><path class="cls-13" d="M214.83,10.14l-11.13.51h0l-6.55,3.1,4.92-1.35,1.55,1.17-.73,1.81-15.25,8.33-2,15.09L183,42.57l-10.34,3.88L166.81,54,166,58.17l.05-.17v0l0,0-1.17,5.8-6.71,1.91-8.14,8.86,1.82,34-11.84,15.52,3.57,17.81-4.77,13.47v.11L138,157.8l.06.68.63.52h.55l.57-.38h0l4.34-9.78-.07.13,2.52-7.77-2.92-16.82,13.57-15.17.31-35.8,1.51-1.58,9.82-3.31,5.24-15.12,14.72-7.5,5.21-18.35,10.41-9.31-.15.05.13-.05h-.06l35.67-.36,12.74,14.48,4.41,1,3-2.47-16.38-19-29.07-1.72Zm-75,148.46Z"/><path class="cls-14" d="M79.62,23.25l-7.24,1.89-4.87,9.1L62.88,35.9l-8-6.24L31.23,43.83l.29,5.92v-.11l.3,5.56-13.17,8L4.52,87.77l-1.74.06,6.67,16.33,1.56.63h0l2.71.31,3.18-2.34h0l.06-.18-1.2-3.66,0,0-1-.58-2.33-7L15.87,76l22-13.13L41,43.62l6-6.21.51,0,15.7,8.89,6.69-1.53L84.05,28.8l35,17.13,7,9.78.26,1.4-3.45,13.28,2.5,10.26,7.53,9.09,1.84,10-12.31,23h0l.23,1.19,2.57.67,15.19-25.49-5.25-16-.07,0L131,74l.87-26.39-8.15-11,0,0h0v0h0L79.62,23.25ZM31.51,49.64v0Z"/><polygon class="cls-15" points="236.84 17.43 204.41 18.22 204.7 18.14 194.08 27.53 192.55 39.18 185.54 48.59 174.15 53.38 168.91 68.5 159.09 71.81 155.37 78.36 157.69 107.84 143.7 124.36 146.62 141.18 144.09 148.95 144.25 148.68 139.83 158.6 139.84 158.61 139.91 158.59 147.78 187.54 147.79 187.53 163.68 146.78 163.54 146.87 181.79 77.97 183.19 77.32 190.59 57.88 212.19 40.5 211.71 40.75 220.43 34.49 220.25 34.53 229.44 28.63 250.44 30.68 250.73 30.91 251.15 31.79 251.15 31.75 251.17 31.93 250.74 32.97 246.87 33.54 246.74 36.83 247.94 37.99 242.91 39.15 235.4 36.82 228.68 38.65 216.78 55.58 209.77 58.7 200.6 57.05 190.33 85.31 206.38 96.3 205.05 110.98 198.42 118 183.58 118.56 182.46 119.35 179.71 124.72 186.38 143.77 186.31 143.49 186.49 159.34 182.43 167.38 175.21 171.29 159.09 168.03 149.79 211.83 143.72 214.19 144.04 214.09 142.12 214.91 139.6 213.73 139.03 201.94 118.54 175.06 119.75 142.79 118.46 139.75 95.17 140.6 90.1 133.71 103.53 97.28 108.09 93.1 107.81 83.34 102.89 77.76 92.4 75.14 87.47 77.11 76.15 91.95 76.31 91.85 62.42 100.69 57.58 99.45 43.74 87.45 41.38 86.84 13.72 105.09 11.01 104.77 11.2 110.09 15.63 115.63 25.68 119.2 35.95 114.94 77.97 134.52 86.19 166.46 106.37 179.32 114.29 205.77 141.41 219.5 142 219.41 143.44 218.31 143.76 217 171.14 205.64 238.37 90.31 247.8 87.07 260.38 56.73 257.31 33.39 251.17 31.07 239.54 17.55 236.84 17.43 236.84 17.43 236.84 17.43 236.84 17.43"/><polygon class="cls-16" points="124.75 122.59 122.4 122.75 122.39 122.77 121.66 122.73 121.66 122.73 121.55 122.81 121.04 122.86 119.97 124.28 121.06 125.7 125.61 124.72 125.99 123.99 126.03 123.97 126.04 123.87 124.85 122.59 124.75 122.59 124.75 122.59 124.75 122.59 124.75 122.59"/><polygon class="cls-17" points="83.86 28.8 82.01 29.68 76.29 39.61 66.61 45.85 63.05 46.25 47.19 37.34 41.26 42.82 40.36 59.35 16.77 75.14 12.31 90.93 12.38 91.29 14.13 88.64 86.38 54.75 105.41 61.78 121.66 122.73 122.39 122.77 133.28 106.2 134.79 94.94 123.36 76.3 126.28 57.11 119.01 45.93 101.95 42.53 84.05 28.8 83.86 28.8 83.86 28.8 83.86 28.8 83.86 28.8"/><polygon class="cls-18" points="80.14 16.07 70.56 18.02 70.58 18.02 73.25 20.86 78.96 20.84 86.13 16.52 80.14 16.07 80.14 16.07 80.14 16.07 80.14 16.07"/><polygon class="cls-19" points="188.54 18.33 179.29 26.77 180.27 27.7 180.26 27.69 187.02 20.36 186.68 20.66 189.45 17.72 188.54 18.33 188.54 18.33 188.54 18.33 188.54 18.33"/><path class="cls-20" d="M188.76,0l-9.45,3.48h0L167.1,9,162,7.66l-4.82-5.39L151.5.59,127.93,6.43l.53-.13-2.61.63.87-.22-2.53.62.88-.22-33.21-2L80.79,13.69l.27-.26-6.45,3.73L74,16.47l-2.66-.4L70.56,18h0l2.68,2.84,5.7,0,7.18-4.33h0l12.17-6.42,30,3.14h-.09L152.1,7l.51.12,8.13,7.48,30-8.61,39.1,11.77,3.33-.58,1-1.69L232.88,14l-2.48-.43h0L188.76,0ZM91.6,5.24l-.36.21.36-.21Zm36.23,1.22-.25.06.25-.06Zm3.52,6-.11,0,.11,0Z"/><polygon class="cls-21" points="189.65 6.14 164.41 15.55 157.65 12.93 152.49 7.05 128.15 13.24 128.3 13.23 98.29 10.09 86.12 16.51 93.48 17.19 93.42 17.04 121.23 26.03 121.23 25.95 121.58 26.68 123.44 27.98 123.41 27.87 125.16 29.36 125.11 29.31 144.66 25.25 154.64 32.54 170.34 29.75 177.04 31.55 179.64 30.46 180.47 29.18 180.37 27.93 179.29 26.77 197.4 13.71 197.11 13.79 203.73 10.66 189.65 6.14 189.65 6.14 189.65 6.14 189.65 6.14"/><path class="cls-22" d="M189.15,11.61l-8.38,7.05.51-.49-.7.67.13-.12-3.36,5.57-.79.35L175,24l.11-.51L174.1,22,172.64,23l-.09,1.71.75,1.11-.22-.23L177,28.31l2.34-.15h-.06l1-.48h0L187,20.36l-.33.31.24-.24-.25.23,5.24-6.13-.15-1.34-.76-1-1.86-.54Zm-11.73,12.6,0,0,0,0Zm-.69.54,0,0,.05,0-.27.24.26-.26Z"/><polygon class="cls-23" points="202.09 12.42 186.68 20.66 187.02 20.36 180.26 27.69 180.47 29.18 179.64 30.46 175.15 31.5 170.34 29.74 157 32.65 151.53 31.11 145.97 25.86 142.74 24.95 125.11 29.31 125.35 29.53 108.7 18.48 93.46 17.05 93.49 17.19 86.14 16.51 79.31 20.74 74.55 21.29 70.91 18.72 70.57 18.02 26.61 36.55 0 80.33 0.04 85.24 0.95 86.85 3.54 87.92 4.52 87.77 18.7 63.25 32.02 54.65 31.57 49.64 31.48 49.85 31.23 43.83 54.88 29.65 62.26 35.73 65.32 35.51 67.61 34.17 72.39 25.14 95.06 23.93 107.19 33.19 123.72 36.67 123.69 36.36 131.88 47.6 131.55 75.8 135.06 83.2 135.08 83.21 135.18 83.11 140.38 99.14 125.61 124.72 121.05 125.7 119.97 124.28 121.04 122.86 121.55 122.81 121.66 122.73 105.41 61.79 86.38 54.75 14.13 88.65 12.36 91.33 14.69 98.38 15.72 98.97 16.25 97.58 48.1 81.77 61.64 92.62 64.22 92.31 87.84 68.84 104.01 70.1 115.1 94.62 97.91 128.26 99.44 132.48 99.8 132.63 121.15 131.56 130.34 178.68 144.77 190.9 144.9 190.74 144.81 190.87 145.09 191.3 145.27 191.15 145.44 193.79 146.93 194.94 147.31 194.84 148.35 193.06 147.89 187.49 147.7 187.71 139.91 158.59 139.83 158.61 139.83 158.6 139.83 158.6 139.82 158.6 139.83 158.61 139.25 158.99 138.71 159 138.08 158.48 138.02 157.8 138.87 155.48 138.85 155.37 143.63 140.81 140.05 124.09 151.61 109.27 150.09 74.57 158.22 65.71 164.93 63.8 166.1 58 166.02 58.22 166.82 53.96 172.65 46.45 182.98 42.57 185.63 38.81 187.67 23.72 202.92 15.39 203.66 13.58 202.09 12.42 202.09 12.42 202.09 12.42 202.09 12.42"/></svg>