<svg id="Layer_1" data-name="Layer 1" xmlns="http://www.w3.org/2000/svg" xmlns:xlink="http://www.w3.org/1999/xlink" viewBox="0 0 270.19 393.72"><defs><style>.cls-1{fill:url(#radial-gradient);}.cls-2{fill:url(#radial-gradient-2);}.cls-3{fill:url(#radial-gradient-3);}.cls-4{fill:url(#radial-gradient-4);}.cls-5{fill:url(#radial-gradient-5);}.cls-6{fill:url(#radial-gradient-6);}.cls-7{fill:url(#radial-gradient-7);}.cls-8{fill:url(#radial-gradient-8);}.cls-9{fill:url(#radial-gradient-9);}.cls-10{fill:url(#radial-gradient-10);}.cls-11{fill:url(#radial-gradient-11);}.cls-12{fill:url(#radial-gradient-12);}.cls-13{fill:url(#radial-gradient-13);}.cls-14{fill:url(#radial-gradient-14);}.cls-15{fill:url(#radial-gradient-15);}.cls-16{fill:url(#radial-gradient-16);}.cls-17{fill:url(#radial-gradient-17);}.cls-18{fill:url(#radial-gradient-18);}.cls-19{fill:url(#radial-gradient-19);}.cls-20{fill:url(#radial-gradient-20);}.cls-21{fill:url(#radial-gradient-21);}.cls-22{fill:url(#radial-gradient-22);}.cls-23{fill:url(#radial-gradient-23);}.cls-24{fill:url(#radial-gradient-24);}.cls-25{fill:url(#radial-gradient-25);}.cls-26{fill:url(#radial-gradient-26);}.cls-27{fill:url(#radial-gradient-27);}.cls-28{fill:url(#radial-gradient-28);}.cls-29{fill:url(#radial-gradient-29);}.cls-30{fill:url(#radial-gradient-30);}.cls-31{fill:url(#radial-gradient-31);}.cls-32{fill:url(#radial-gradient-32);}.cls-33{fill:url(#radial-gradient-33);}.cls-34{fill:url(#radial-gradient-34);}.cls-35{fill:url(#radial-gradient-35);}.cls-36{fill:url(#radial-gradient-36);}.cls-37{fill:url(#radial-gradient-37);}.cls-38{fill:url(#radial-gradient-38);}.cls-39{fill:url(#radial-gradient-39);}.cls-40{fill:url(#radial-gradient-40);}.cls-41{fill:url(#radial-gradient-41);}.cls-42{fill:url(#radial-gradient-42);}.cls-43{fill:url(#radial-gradient-43);}.cls-44{fill:url(#radial-gradient-44);}.cls-45{fill:url(#radial-gradient-45);}.cls-46{fill:url(#radial-gradient-46);}.cls-47{fill:url(#radial-gradient-47);}.cls-48{fill:url(#radial-gradient-48);}.cls-49{fill:url(#radial-gradient-49);}.cls-50{fill:url(#radial-gradient-50);}</style><radialGradient id="radial-gradient" cx="139.02" cy="197.58" r="131.83" gradientUnits="userSpaceOnUse"><stop offset="0" stop-color="#979969"/><stop offset="0.26" stop-color="#abaf66"/><stop offset="0.81" stop-color="#d4dc61"/><stop offset="1" stop-color="#c7cc68"/></radialGradient><radialGradient id="radial-gradient-2" cx="152.14" cy="315.64" r="19.37" xlink:href="#radial-gradient"/><radialGradient id="radial-gradient-3" cx="157.83" cy="276.24" r="22.16" xlink:href="#radial-gradient"/><radialGradient id="radial-gradient-4" cx="144.95" cy="248.87" r="20.17" xlink:href="#radial-gradient"/><radialGradient id="radial-gradient-5" cx="153.55" cy="190.61" r="25.68" xlink:href="#radial-gradient"/><radialGradient id="radial-gradient-6" cx="151.17" cy="135.74" r="26.06" xlink:href="#radial-gradient"/><radialGradient id="radial-gradient-7" cx="155.34" cy="81.61" r="26.33" xlink:href="#radial-gradient"/><radialGradient id="radial-gradient-8" cx="157.65" cy="20.55" r="17.16" xlink:href="#radial-gradient"/><radialGradient id="radial-gradient-9" cx="123.24" cy="306.13" r="15.04" xlink:href="#radial-gradient"/><radialGradient id="radial-gradient-10" cx="125.66" cy="269.43" r="17.01" xlink:href="#radial-gradient"/><radialGradient id="radial-gradient-11" cx="128.82" cy="233.28" r="18.31" xlink:href="#radial-gradient"/><radialGradient id="radial-gradient-12" cx="122.43" cy="195.15" r="16.28" xlink:href="#radial-gradient"/><radialGradient id="radial-gradient-13" cx="126.72" cy="155.95" r="13.63" xlink:href="#radial-gradient"/><radialGradient id="radial-gradient-14" cx="125.29" cy="100.72" r="16.65" xlink:href="#radial-gradient"/><radialGradient id="radial-gradient-15" cx="136.24" cy="31.11" r="15.12" xlink:href="#radial-gradient"/><radialGradient id="radial-gradient-16" cx="187.04" cy="271.01" r="88.08" xlink:href="#radial-gradient"/><radialGradient id="radial-gradient-17" cx="141.65" cy="380.74" r="13.77" xlink:href="#radial-gradient"/><radialGradient id="radial-gradient-18" cx="157.04" cy="355.68" r="8.82" xlink:href="#radial-gradient"/><radialGradient id="radial-gradient-19" cx="178.85" cy="338.33" r="7.6" xlink:href="#radial-gradient"/><radialGradient id="radial-gradient-20" cx="213.35" cy="309.32" r="10.77" xlink:href="#radial-gradient"/><radialGradient id="radial-gradient-21" cx="249.21" cy="273.19" r="14.88" xlink:href="#radial-gradient"/><radialGradient id="radial-gradient-22" cx="249.67" cy="240.62" r="12.43" xlink:href="#radial-gradient"/><radialGradient id="radial-gradient-23" cx="254.85" cy="203.52" r="15.08" xlink:href="#radial-gradient"/><radialGradient id="radial-gradient-24" cx="258.34" cy="177.37" r="12.23" xlink:href="#radial-gradient"/><radialGradient id="radial-gradient-25" cx="135.91" cy="352.43" r="12.03" xlink:href="#radial-gradient"/><radialGradient id="radial-gradient-26" cx="159.86" cy="342.58" r="10.09" xlink:href="#radial-gradient"/><radialGradient id="radial-gradient-27" cx="191.95" cy="315.63" r="11.97" xlink:href="#radial-gradient"/><radialGradient id="radial-gradient-28" cx="214" cy="289.31" r="12.95" xlink:href="#radial-gradient"/><radialGradient id="radial-gradient-29" cx="229.48" cy="255.87" r="12.78" xlink:href="#radial-gradient"/><radialGradient id="radial-gradient-30" cx="239.54" cy="221.73" r="10.18" xlink:href="#radial-gradient"/><radialGradient id="radial-gradient-31" cx="242.83" cy="194.66" r="9.38" xlink:href="#radial-gradient"/><radialGradient id="radial-gradient-32" cx="244.4" cy="166.19" r="8.87" xlink:href="#radial-gradient"/><radialGradient id="radial-gradient-33" cx="55.5" cy="269.43" r="92.25" xlink:href="#radial-gradient"/><radialGradient id="radial-gradient-34" cx="115.9" cy="344.6" r="13.39" xlink:href="#radial-gradient"/><radialGradient id="radial-gradient-35" cx="85.68" cy="333.28" r="13.15" xlink:href="#radial-gradient"/><radialGradient id="radial-gradient-36" cx="71.89" cy="298.05" r="14.63" xlink:href="#radial-gradient"/><radialGradient id="radial-gradient-37" cx="60.49" cy="266.75" r="13.41" xlink:href="#radial-gradient"/><radialGradient id="radial-gradient-38" cx="51.04" cy="237.66" r="13.32" xlink:href="#radial-gradient"/><radialGradient id="radial-gradient-39" cx="44.3" cy="191.14" r="13.56" xlink:href="#radial-gradient"/><radialGradient id="radial-gradient-40" cx="41.46" cy="161.04" r="11.35" xlink:href="#radial-gradient"/><radialGradient id="radial-gradient-41" cx="31.24" cy="147.98" r="8.96" xlink:href="#radial-gradient"/><radialGradient id="radial-gradient-42" cx="11.09" cy="139.35" r="13.28" xlink:href="#radial-gradient"/><radialGradient id="radial-gradient-43" cx="24.04" cy="168.79" r="11.41" xlink:href="#radial-gradient"/><radialGradient id="radial-gradient-44" cx="27.23" cy="206.7" r="11.94" xlink:href="#radial-gradient"/><radialGradient id="radial-gradient-45" cx="31.74" cy="248.7" r="10.93" xlink:href="#radial-gradient"/><radialGradient id="radial-gradient-46" cx="43.67" cy="281.22" r="9.33" xlink:href="#radial-gradient"/><radialGradient id="radial-gradient-47" cx="48.15" cy="307.69" r="11.96" xlink:href="#radial-gradient"/><radialGradient id="radial-gradient-48" cx="62.47" cy="335.15" r="9.15" xlink:href="#radial-gradient"/><radialGradient id="radial-gradient-49" cx="80.81" cy="359.19" r="9.25" xlink:href="#radial-gradient"/><radialGradient id="radial-gradient-50" cx="117.08" cy="375.86" r="8.17" xlink:href="#radial-gradient"/></defs><polygon class="cls-1" points="142.02 16.8 120.4 382.01 123.79 383.09 157.64 12.08 157.64 12.08 157.64 12.08 157.64 12.08 142.02 16.8"/><polygon class="cls-2" points="129.97 329.3 175.88 304.97 173.78 301.99 128.4 324.18 129.97 329.3 129.97 329.3 129.97 329.3 129.97 329.3"/><polygon class="cls-3" points="139.63 299.47 178.85 253.81 174.26 253 136.81 295 139.63 299.47 139.63 299.47 139.63 299.47 139.63 299.47"/><polygon class="cls-4" points="136.76 274.7 157.04 223.2 153.41 223.04 132.85 271.14 136.76 274.7 136.76 274.7"/><polygon class="cls-5" points="141.21 222.51 170.91 161.92 167.25 158.71 136.2 221.32 141.21 222.51 141.21 222.51"/><polygon class="cls-6" points="138.92 166.71 169.45 107.5 166.03 103.75 132.89 167.74 138.92 166.71 138.92 166.71"/><polygon class="cls-7" points="139.93 112.44 176.2 51.57 171.68 50.77 134.47 110.49 139.93 112.44 139.93 112.44"/><polygon class="cls-8" points="148.15 41.11 170.54 1.35 166.19 0 144.76 38.08 148.15 41.11 148.15 41.11"/><polygon class="cls-9" points="130.33 322.86 120.95 286.29 116.14 286.07 125.06 326.19 130.33 322.86 130.33 322.86"/><polygon class="cls-10" points="139.73 285.14 116.94 249.92 111.59 252.63 134.98 288.93 139.73 285.14 139.73 285.14"/><polygon class="cls-11" points="141.73 250.38 121.3 210.84 115.91 211.32 138.03 255.73 141.73 250.38 141.73 250.38 141.73 250.38 141.73 250.38"/><polygon class="cls-12" points="138.17 207.18 111.15 178.35 106.7 181.34 134.65 211.96 138.17 207.18 138.17 207.18 138.17 207.18 138.17 207.18"/><polygon class="cls-13" points="136.54 167.95 121.72 139.35 116.91 140.42 132.36 172.54 136.54 167.95 136.54 167.95 136.54 167.95 136.54 167.95"/><polygon class="cls-14" points="136.53 116.15 118.81 80.03 114.05 80.96 132.65 121.42 136.53 116.15 136.53 116.15 136.53 116.15 136.53 116.15"/><polygon class="cls-15" points="142.82 45.61 133.84 10.95 129.66 10.77 139.83 51.45 142.82 45.61 142.82 45.61 142.82 45.61 142.82 45.61"/><polygon class="cls-16" points="120.95 375.49 231.17 289.13 254.85 166.78 248.31 166.52 221.35 287.02 119.23 369.94 120.95 375.49 120.95 375.49"/><polygon class="cls-17" points="124.31 375.31 158.77 389.63 158.98 384.92 127.47 371.85 124.31 375.31 124.31 375.31 124.31 375.31 124.31 375.31"/><polygon class="cls-18" points="146.11 353.5 165.48 361.69 167.97 359.39 167.84 357.93 149.6 349.67 146.11 353.5 146.11 353.5 146.11 353.5 146.11 353.5"/><polygon class="cls-19" points="169.22 338.49 188.49 343.08 188.13 338.8 172.61 333.57 169.22 338.49 169.22 338.49 169.22 338.49 169.22 338.49"/><polygon class="cls-20" points="199.67 316.01 227.04 305.16 224.7 302.63 200.19 310.1 199.67 316.01 199.67 316.01 199.67 316.01 199.67 316.01"/><polygon class="cls-21" points="234.09 285.55 266.23 264.4 262.96 260.83 232.18 279.36 234.09 285.55 234.09 285.55 234.09 285.55 234.09 285.55"/><polygon class="cls-22" points="235.93 251.58 254.71 246.12 263.4 230.68 260.15 229.66 236.42 245.95 235.93 251.58 235.93 251.58 235.93 251.58 235.93 251.58"/><polygon class="cls-23" points="241.97 218.33 270.19 191.93 265.19 188.7 239.52 212.97 241.97 218.33 241.97 218.33 241.97 218.33 241.97 218.33"/><polygon class="cls-24" points="252.61 191.59 268.21 164.6 263.62 163.16 248.48 186.66 252.61 191.59 252.61 191.59 252.61 191.59 252.61 191.59"/><polygon class="cls-25" points="134.5 367.62 143.58 339.9 139.4 337.23 128.24 366.25 134.5 367.62 134.5 367.62"/><polygon class="cls-26" points="159.93 355.38 166.18 331.68 163.15 329.78 153.55 354.82 159.93 355.38 159.93 355.38"/><polygon class="cls-27" points="193.67 331.05 196.05 300.03 191.39 299.21 187.85 332.05 193.67 331.05 193.67 331.05"/><polygon class="cls-28" points="217.21 306.25 216.31 272.2 211.08 271.28 210.8 307.34 217.21 306.25 217.21 306.25"/><polygon class="cls-29" points="235.71 268.5 228.37 239.13 223.26 238.91 230.53 272.84 235.71 268.5 235.71 268.5"/><polygon class="cls-30" points="246.87 229.78 237.04 209.34 232.2 209.75 241.7 234.13 246.87 229.78 246.87 229.78"/><polygon class="cls-31" points="249.95 201.68 239.27 183.47 235.71 184.24 244.97 205.86 249.95 201.68 249.95 201.68"/><polygon class="cls-32" points="250.07 173.91 243.34 155 238.72 155.39 244.59 177.37 250.07 173.91 250.07 173.91"/><polygon class="cls-33" points="95.13 387.76 22 146.22 15.87 145.13 93.83 393.72 95.13 387.76 95.13 387.76 95.13 387.76 95.13 387.76"/><polygon class="cls-34" points="123.14 358.71 113.78 327.34 108.67 327.11 117.78 362.1 123.14 358.71 123.14 358.71"/><polygon class="cls-35" points="90.13 348.59 85.48 315.98 81.22 315.23 84.15 351.32 90.13 348.59 90.13 348.59"/><polygon class="cls-36" points="71.61 317.47 78.37 280.74 73.4 278.4 65.4 317.71 71.61 317.47 71.61 317.47"/><polygon class="cls-37" points="57.37 283.86 68.66 251.41 64.87 249.63 52.31 282.06 57.37 283.86 57.37 283.86"/><polygon class="cls-38" points="48.46 253.41 59.61 223.31 56.7 220.88 42.46 254.44 48.46 253.41 48.46 253.41"/><polygon class="cls-39" points="38.7 206.71 55.5 178.6 51.93 175.58 33.11 204.71 38.7 206.71 38.7 206.71"/><polygon class="cls-40" points="38.01 174.1 50.8 150.99 48.69 147.98 32.13 173.59 38.01 174.1 38.01 174.1"/><polygon class="cls-41" points="27.8 157.56 39.54 141.29 36.09 138.41 22.94 154.21 27.8 157.56 27.8 157.56"/><polygon class="cls-42" points="0 124.44 19.61 154.52 22.17 150.51 6.24 124.19 0 124.44 0 124.44 0 124.44 0 124.44"/><polygon class="cls-43" points="12.88 160.05 32.4 180.44 35.2 177.08 17.47 157.15 12.88 160.05 12.88 160.05 12.88 160.05 12.88 160.05"/><polygon class="cls-44" points="16.39 194.82 36.71 219.64 38.07 217.48 22.63 193.75 16.39 194.82 16.39 194.82 16.39 194.82 16.39 194.82"/><polygon class="cls-45" points="19.34 242.01 40.68 257.93 43.88 256.28 44.15 254.72 24.87 239.48 19.34 242.01 19.34 242.01 19.34 242.01 19.34 242.01"/><polygon class="cls-46" points="31.24 280.71 56.09 285.68 54.52 281.33 35.95 276.76 31.24 280.71 31.24 280.71 31.24 280.71 31.24 280.71"/><polygon class="cls-47" points="32.35 306.26 63.96 313.72 63.45 311.35 36.54 301.65 32.35 306.26 32.35 306.26 32.35 306.26 32.35 306.26"/><polygon class="cls-48" points="51.29 333.84 72.81 341.67 73.64 336.95 54.88 328.63 51.29 333.84 51.29 333.84 51.29 333.84 51.29 333.84"/><polygon class="cls-49" points="68.23 361.75 93.4 362.75 92.57 358.89 70.42 355.62 68.23 361.75 68.23 361.75 68.23 361.75 68.23 361.75"/><polygon class="cls-50" points="106.64 380.8 121.34 380.24 127.53 370.93 107.18 374.56 106.64 380.8 106.64 380.8 106.64 380.8 106.64 380.8"/></svg>