<svg id="Layer_1" data-name="Layer 1" xmlns="http://www.w3.org/2000/svg" xmlns:xlink="http://www.w3.org/1999/xlink" viewBox="0 0 301.54 305.41"><defs><style>.cls-1{fill:url(#radial-gradient);}.cls-2{fill:url(#radial-gradient-2);}.cls-3{fill:url(#radial-gradient-3);}</style><radialGradient id="radial-gradient" cx="171.47" cy="248.08" r="168.1" gradientUnits="userSpaceOnUse"><stop offset="0" stop-color="#5b464d"/><stop offset="0.5" stop-color="#735561"/><stop offset="1" stop-color="#8e7d83"/></radialGradient><radialGradient id="radial-gradient-2" cx="153.45" cy="140.36" r="151.85" gradientUnits="userSpaceOnUse"><stop offset="0" stop-color="#ab7171"/><stop offset="0.64" stop-color="#b37777"/><stop offset="1" stop-color="#bc8787"/></radialGradient><radialGradient id="radial-gradient-3" cx="153.45" cy="138.19" r="152.93" xlink:href="#radial-gradient-2"/></defs><polygon class="cls-1" points="301.54 146.99 186.26 138.75 38.65 35.76 0 36.96 2.84 65.84 128.93 163.55 140.05 248.35 245.67 305.41 301.54 303.79 301.54 146.99 301.54 146.99"/><polygon class="cls-2" points="301.54 154.57 256.95 166.52 253.48 174.17 231.84 185.48 189.73 167.46 194.37 141.63 135.14 59.37 143.76 42.13 178.3 39.25 139.06 31.22 133.05 34.33 127.01 52.37 90.63 60.07 104.98 39.25 87.21 35.69 93.42 29.58 77.61 31.57 75.65 35 33.25 29.07 45.62 38.38 37.61 47.64 33.58 45.17 24.86 46.92 13.57 41.21 21.81 59.28 66.27 80.33 67.27 86.8 120.68 111.25 130.38 128.5 169.05 147.41 174.68 146.65 178.69 151.5 164.47 202.02 204.27 235.95 234.29 229.82 225.94 238.7 226.73 241.42 243.27 245.07 258.01 262.46 284.26 251.38 301.54 254.49 301.54 154.57 301.54 154.57"/><path class="cls-3" d="M301.54,37,254,33l11.22-8.49-1.33-11.26-9.76,0-5-4.46L197.75,0l-6.27,3.84-.75,4.52L131.48,22.17l-6,18-36.39,7.7,14.36-20.82L85.65,23.53l6.21-6.1-15.81,2-2,3.43L31.69,16.91l12.36,9.32-8,9.25L32,33l-8.73,1.75L12,29.05l8.24,18.07L64.71,68.17l1,6.48,53.4,24.45,9.71,17.25,38.67,18.91,5.63-.77,4,4.85-14.22,50.52,39.8,33.93,30-6.12-8.35,8.87.79,2.72,16.54,3.65,14.75,17.4,26.24-11.09L301.54,242V37Zm-122,21.86L151.85,44.8l-2-8L185.75,43l-6.23,15.87Zm5.67,42,5.59-8.71,9.4-3.78-4-14.69,5.62-1.31,9.06,19.66-1.09,5.43-4.15,2.79-20.48.61Zm44.62,37.57-11.71-.11-2,2.23-8.89-1.32-1.46-5.89,10.41-7-.67-.39,3.19.94,1.19,3.6,10.22,1.49,3.82,3-4.09,3.39Zm47.35-82.95-26,9.76-16.63-6.09L234.48,54l41.19-5.39,2.91,2.91-1.42,4Zm22,61.71-3.42,2.28.13,6.07-14.94-4.71,16.19-8.26,4.29,1.57-2.25,3Z"/></svg>