<svg id="Layer_1" data-name="Layer 1" xmlns="http://www.w3.org/2000/svg" xmlns:xlink="http://www.w3.org/1999/xlink" viewBox="0 0 349.15 233.25"><defs><style>.cls-1{fill:url(#radial-gradient);}.cls-2{fill:url(#radial-gradient-2);}.cls-3{fill:url(#radial-gradient-3);}.cls-4{fill:url(#radial-gradient-4);}.cls-5{fill:url(#radial-gradient-5);}.cls-6{fill:url(#radial-gradient-6);}.cls-7{fill:url(#radial-gradient-7);}.cls-8{fill:url(#radial-gradient-8);}.cls-9{fill:url(#radial-gradient-9);}.cls-10{fill:url(#radial-gradient-10);}.cls-11{fill:url(#radial-gradient-11);}.cls-12{fill:url(#radial-gradient-12);}.cls-13{fill:url(#radial-gradient-13);}.cls-14{fill:url(#radial-gradient-14);}.cls-15{fill:url(#radial-gradient-15);}.cls-16{fill:url(#radial-gradient-16);}.cls-17{fill:url(#radial-gradient-17);}.cls-18{fill:url(#radial-gradient-18);}.cls-19{fill:url(#radial-gradient-19);}.cls-20{fill:url(#radial-gradient-20);}</style><radialGradient id="radial-gradient" cx="74.47" cy="114.64" r="96.42" gradientUnits="userSpaceOnUse"><stop offset="0" stop-color="#949298"/><stop offset="0.1" stop-color="#9a9d9a"/><stop offset="0.5" stop-color="#b1caa0"/><stop offset="1" stop-color="#aec9a8"/></radialGradient><radialGradient id="radial-gradient-2" cx="76.01" cy="115.97" r="90.71" xlink:href="#radial-gradient"/><radialGradient id="radial-gradient-3" cx="175.17" cy="193.43" r="28.72" xlink:href="#radial-gradient"/><radialGradient id="radial-gradient-4" cx="171.41" cy="44.98" r="0.1" xlink:href="#radial-gradient"/><radialGradient id="radial-gradient-5" cx="146.53" cy="221.23" r="1.52" xlink:href="#radial-gradient"/><radialGradient id="radial-gradient-6" cx="145.6" cy="222.32" r="0.52" xlink:href="#radial-gradient"/><radialGradient id="radial-gradient-7" cx="144.18" cy="213.49" r="7.09" xlink:href="#radial-gradient"/><radialGradient id="radial-gradient-8" cx="161.14" cy="130.35" r="68.88" xlink:href="#radial-gradient"/><radialGradient id="radial-gradient-9" cx="151.37" cy="120.56" r="63.84" xlink:href="#radial-gradient"/><radialGradient id="radial-gradient-10" cx="261.97" cy="84.63" r="65.09" xlink:href="#radial-gradient"/><radialGradient id="radial-gradient-11" cx="332.39" cy="103.53" r="0.12" xlink:href="#radial-gradient"/><radialGradient id="radial-gradient-12" cx="255.67" cy="105.13" r="57.76" xlink:href="#radial-gradient"/><radialGradient id="radial-gradient-13" cx="292.96" cy="72.74" r="0.04" xlink:href="#radial-gradient"/><radialGradient id="radial-gradient-14" cx="319.88" cy="75.6" r="29.19" xlink:href="#radial-gradient"/><radialGradient id="radial-gradient-15" cx="238.48" cy="80.78" r="50.55" xlink:href="#radial-gradient"/><radialGradient id="radial-gradient-16" cx="178.24" cy="116.62" r="0.94" xlink:href="#radial-gradient"/><radialGradient id="radial-gradient-17" cx="250.08" cy="160.65" r="24.37" xlink:href="#radial-gradient"/><radialGradient id="radial-gradient-18" cx="233.95" cy="195.97" r="0.11" xlink:href="#radial-gradient"/><radialGradient id="radial-gradient-19" cx="242.03" cy="173.67" r="43.81" xlink:href="#radial-gradient"/><radialGradient id="radial-gradient-20" cx="241.72" cy="173.16" r="47.21" xlink:href="#radial-gradient"/></defs><path class="cls-1" d="M64.39,3.47c.32-.37.67-.72,1-1.07A14.28,14.28,0,0,1,67,.88,3,3,0,0,1,68.8.25,2.52,2.52,0,0,1,70.61,1a4,4,0,0,1,.93,2.52c.16.93.33,1.86.44,2.8s.15,1.77.26,2.66c.24,1.7.42,3.41.49,5.14.1,2.2.1,4.42.11,6.62,0,1,0,2.08.1,3.1.12,1.17.23,2.34.28,3.52s.07,2.49.14,3.74.2,2.45.3,3.68.15,2.58.29,3.87.25,2.4.41,3.59c.1.8.2,1.6.35,2.4s.34,1.69.47,2.55.33,1.82.49,2.74.27,2,.39,3,.3,1.84.41,2.77c.06.6.11,1.2.18,1.8.13.91.26,1.83.37,2.74.09.74.13,1.48.21,2.23s.25,1.69.36,2.54.35,1.74.47,2.62.35,1.86.5,2.79c.25,1.6.56,3.19.88,4.78s.62,3,1.07,4.48.93,3,1.49,4.45a23.63,23.63,0,0,0,1.41,2.68c.36.59.78,1.14,1.17,1.71.26.39.52.8.81,1.17.5.66,1,1.33,1.42,2s1,1.58,1.48,2.36,1,1.47,1.44,2.21A17.35,17.35,0,0,1,91,98.34c.78,1.64,1.36,3.34,2,5s1.29,3.45,2,5.16l0,.11h0l.3.7c0,.09.08.17.11.26a75.28,75.28,0,0,1,3.93,10.46c.47,1.64,1,3.25,1.53,4.85.29.84.52,1.7.82,2.53s.63,1.75,1,2.61a60.33,60.33,0,0,0,3.84,6.95c.71,1.16,1.38,2.35,2.08,3.52s1.39,2,2.12,3c1.45,1.82,3.1,3.45,4.64,5.17a43.49,43.49,0,0,1,4.28,6,53.11,53.11,0,0,1,3,5.62c1,2.16,1.93,4.38,2.84,6.59.44,1.07.87,2.15,1.32,3.21s.92,2.16,1.37,3.24c.38.89.77,1.77,1.14,2.67.8,1.82,1.63,3.63,2.41,5.46,1.56,3.58,3,7.21,4.5,10.83s2.94,7.3,4.44,10.94l0,0c.82,1.88,1.71,3.73,2.54,5.61s1.65,3.81,2.45,5.73l.06.15.84,2c.31.76.59,1.52.9,2.27a16.14,16.14,0,0,1,1,2.85l.09.4a3.42,3.42,0,0,1,0,1.35,3.77,3.77,0,0,1-.85,1.63A6.77,6.77,0,0,1,146,227c-.27.16-.53.35-.81.49s-.75.33-1.13.48a9.88,9.88,0,0,1-2.5.75c-.79.11-1.58.2-2.38.24s-1.33.06-2,.07a12.6,12.6,0,0,1-2.21-.19,24.34,24.34,0,0,1-2.81-.39c-.83-.19-1.65-.38-2.48-.62a12.66,12.66,0,0,1-2.83-1.28,11.08,11.08,0,0,1-2.74-2.16,2.16,2.16,0,0,1,1.53-3.69,1.9,1.9,0,0,1,.54.07c-.2-.76-.36-1.53-.5-2.29-.42-2.18-.89-4.34-1.43-6.5s-1.21-4.35-1.87-6.51-1.4-4.11-2.23-6.11c-1.75-3.93-3.66-7.79-5.41-11.73-.88-2-1.8-3.94-2.82-5.85-.56-1.05-1.13-2.08-1.74-3.1s-1.28-1.93-1.93-2.89c-1.35-2-2.77-4-4.13-6-.6-.9-1.21-1.81-1.78-2.74s-1.1-1.83-1.7-2.71c-.19-.21-.39-.41-.58-.63a7,7,0,0,1-.55-.67l-.14-.12c-.73-.62-1.37-1.34-2.09-2S95.77,159.63,95,159s-1.58-1.12-2.38-1.67-1.64-1.18-2.48-1.75c-1-.69-2.08-1.32-3.09-2s-2-1.36-3.11-2c-2-1.19-4.06-2.42-6-3.73-1-.63-1.83-1.36-2.77-2s-1.91-1.2-2.89-1.77-2.08-1.17-3.13-1.76c-.88-.49-1.78-1-2.71-1.41s-1.92-.73-2.89-1.05-2-.72-3-1c-2-.64-4-1.1-5.92-1.67s-4-1.18-6-1.68A34.54,34.54,0,0,1,41.78,133c-1.17-.56-2.32-1.16-3.48-1.74s-2.19-1.12-3.24-1.77a50.15,50.15,0,0,1-6.12-4.63c-1.87-1.61-3.82-3.1-5.71-4.67a69.91,69.91,0,0,1-5.2-4.84c-.78-.78-1.56-1.56-2.32-2.36a38.16,38.16,0,0,1-2.65-3.18,42.54,42.54,0,0,1-4-6.31c-1.27-2.48-2.42-5-3.47-7.6a34.75,34.75,0,0,1-1.16-3.44c-.33-1.14-.53-2.33-.75-3.5-.45-2.3-1-4.57-1.63-6.84-.18-.63-.4-1.25-.57-1.89s-.27-1.14-.41-1.71S.83,77.46.7,76.91a22.48,22.48,0,0,1-.4-2.32A4,4,0,0,1,.44,72.7,3.93,3.93,0,0,1,1.5,71a3.74,3.74,0,0,1,1.72-.92,9.3,9.3,0,0,1,4.1.13,12.61,12.61,0,0,1,1.56.46c.39.16.78.27,1.17.42A16,16,0,0,1,12,72c.41.23.85.41,1.27.64.78.44,1.56.89,2.31,1.39.9.61,1.86,1.13,2.76,1.74A33.75,33.75,0,0,1,21.18,78a14.36,14.36,0,0,1,2.27,2.53,26.38,26.38,0,0,1,1.74,2.82c.6,1.05,1.18,2.11,1.76,3.16s1.13,2.12,1.74,3.15,1.16,1.87,1.8,2.77A42.33,42.33,0,0,0,34,96c.61.58,1.18,1.2,1.82,1.73L37.42,99c1.57,1.15,3.19,2.25,4.84,3.29s3.15,2.06,4.83,2.89c1.15.45,2.33.81,3.49,1.21.81.29,1.66.43,2.46.71a9.37,9.37,0,0,0,1.47.39,5.87,5.87,0,0,1,1.42.19l.76.3a13.14,13.14,0,0,1,1.27.48l.42.23.11,0a2.14,2.14,0,0,1,.56.11,5.7,5.7,0,0,1,.75.34l.13.07.19,0h.15a.31.31,0,0,0,0-.08c.08-.3.11-.6.18-.89s.17-.63.25-.94c.18-.68.25-1.38.42-2.06.12-.52.23-1,.32-1.56.13-1,.3-2,.45-3a51.44,51.44,0,0,0,.29-5.82c0-1.1,0-2.21,0-3.31,0-.85-.12-1.71-.23-2.57-.57-3.85-1.35-7.66-2.26-11.45-.29-1.22-.61-2.42-.93-3.63s-.59-2.46-.89-3.68S57.33,68,57,66.79s-.48-2.18-.7-3.28c-.92-4.6-1.65-9.22-2.54-13.82-.22-1.14-.37-2.3-.59-3.44-.26-1.45-.51-2.89-.66-4.35A65.35,65.35,0,0,1,52.25,35c0-2.14,0-4.29,0-6.44,0-1.08.18-2.17.31-3.24a31.53,31.53,0,0,1,.77-4.08c.3-1.13.68-2.23,1.08-3.33a24.88,24.88,0,0,1,1.44-3.51,16.65,16.65,0,0,1,1.54-2.52C58.2,10.91,59,10,59.84,9s1.57-1.87,2.33-2.83S63.63,4.34,64.39,3.47ZM59.08,113.73a5.42,5.42,0,0,1-1.45-.55,3.34,3.34,0,0,1-.69-.18c-.36-.15-.69-.33-1-.5s-.75-.28-1.14-.39a12.81,12.81,0,0,1-2.14-.29c-.4-.1-.78-.23-1.18-.34s-.82-.19-1.24-.28-1-.28-1.46-.45-.75-.2-1.11-.32c-.68-.21-1.36-.42-2-.68a30,30,0,0,1-4.56-2.46c-1.41-.87-2.83-1.72-4.21-2.64a38.58,38.58,0,0,1-5.53-4.26c-.83-.8-1.69-1.58-2.53-2.39A22.69,22.69,0,0,1,26,95a44.85,44.85,0,0,1-3.66-6c-.58-1.1-1.21-2.18-1.82-3.27A25.19,25.19,0,0,0,19,83.1a19,19,0,0,0-2.65-2.5c-1-.71-2-1.31-3-1.94-.53-.32-1-.67-1.58-1s-1-.57-1.51-.82-.86-.39-1.29-.6a3,3,0,0,0-.39-.14,8.84,8.84,0,0,1-.88-.25l-.15,0c.13.43.25.85.35,1.29.25,1,.63,1.94,1,2.91.26.82.54,1.64.78,2.47.54,1.87,1,3.77,1.42,5.68a32.3,32.3,0,0,0,1.57,5.16c.88,2,1.83,4,2.86,6a46.13,46.13,0,0,0,3.68,6,49.58,49.58,0,0,0,3.61,3.92c1.53,1.53,3.07,3,4.67,4.51s3.35,2.78,5,4.16c1.51,1.23,3,2.55,4.47,3.78.69.52,1.39,1,2.12,1.5.9.59,1.83,1.12,2.78,1.62,1.72.91,3.42,1.85,5.19,2.65,1.69.65,3.43,1.16,5.17,1.66s3.57,1.15,5.38,1.68,3.41,1,5.05,1.63c1.95.75,3.91,1.43,5.84,2.22l.25.11.14.06a14.62,14.62,0,0,1,1.68.84c.46.28.94.53,1.4.82,1,.59,1.93,1.18,2.88,1.78s1.86,1.16,2.76,1.78,2,1.51,3,2.28c2.94,2.23,6.08,4.19,9,6.43l0,0,.06,0,.24.19c.5.39,1,.79,1.47,1.18L93,151.42c.66.51,1.3,1,2,1.56,1.69,1.28,3.33,2.6,4.91,4,.74.68,1.44,1.39,2.13,2.11.1.11.2.21.29.32s.28.23.39.38c.28.33.5.69.74,1a19.31,19.31,0,0,1,1.84,2.8c2.28,4.15,5,8,7.46,12.07a88.8,88.8,0,0,1,5.84,12.16c.71,1.65,1.45,3.29,2.14,4.94.37.9.71,1.8,1.09,2.69a66.89,66.89,0,0,1,2.38,6.57c.69,2.31,1.3,4.66,1.85,7s1,4.64,1.36,7c.21,1.27.39,2.53.68,3.78a23.71,23.71,0,0,0,.78,2.61c.4.22.8.42,1.21.61a23.17,23.17,0,0,0,3.85,1c.73.08,1.47.18,2.2.29a19,19,0,0,0,2.5.06c.73,0,1.46,0,2.19-.11a13.13,13.13,0,0,0,2.38-.66c.24-.12.47-.25.7-.38s.4-.38.59-.58l0,0a16.38,16.38,0,0,0-.91-2.69c-.48-1.23-.94-2.46-1.45-3.67-.27-.63-.53-1.27-.79-1.9-1.29-2.95-2.71-5.85-4-8.81-1.4-3.24-2.65-6.55-4-9.81-.08-.16-.14-.33-.21-.49L133,195c-.49-1.13-1-2.28-1.44-3.42a.49.49,0,0,1,0-.11l-.06-.14-.3-.7-.06-.14s0,0,0,0l-.51-1.21c-.36-.85-.72-1.69-1.07-2.53l0-.06,0-.1c-2-4.47-4-8.88-5.86-13.39-.57-1.35-1.12-2.72-1.68-4.08a2.44,2.44,0,0,1-.1-.24.36.36,0,0,1,0-.09c0-.06-.05-.11-.07-.17-.51-1.21-1-2.43-1.51-3.65l0-.12A60.4,60.4,0,0,0,113,152.14c-1-1.16-2-2.2-3.07-3.31s-2-2.27-2.92-3.48a36.67,36.67,0,0,1-2.31-3.38c-.7-1.15-1.37-2.31-2.08-3.45a48.94,48.94,0,0,1-3.45-6.16c-.57-1.28-1.07-2.59-1.54-3.9-.37-1.05-.68-2.1-1-3.15-.69-2-1.15-4-1.78-5.93-.7-2.14-1.54-4.21-2.37-6.3-.3-.69-.61-1.38-.9-2.07-.77-1.82-1.45-3.68-2.15-5.53-.54-1.44-1.11-2.86-1.67-4.3a12.29,12.29,0,0,0-1-1.89c-.51-.77-1-1.51-1.54-2.27-1-1.55-2-3.13-3.09-4.64-.52-.66-1-1.33-1.52-2-.36-.47-.73-1-1.06-1.45s-.49-.81-.74-1.22a20,20,0,0,1-1.54-3.4,47.55,47.55,0,0,1-1.8-6c-.24-1-.43-2.11-.63-3.16s-.38-2.07-.55-3.11c-.37-2.4-.86-4.77-1.19-7.17-.17-1.05-.33-2.11-.42-3.17-.06-.72-.14-1.45-.24-2.17S72.13,58,72,57.23c-.06-.56-.11-1.12-.18-1.67-.17-1.15-.33-2.31-.48-3.46-.33-2.21-.82-4.4-1.21-6.6-.25-1.44-.46-2.9-.6-4.35-.12-1.19-.33-2.39-.4-3.59-.15-2.46-.47-4.92-.54-7.38,0-1.23-.06-2.45-.15-3.68s-.23-2.31-.3-3.48,0-2.18,0-3.27,0-2.2,0-3.3a57.9,57.9,0,0,0-.36-6c-.11-.79-.25-1.59-.31-2.39,0-.18,0-.36,0-.53-.21.25-.41.51-.62.77l-.21.27c-.07.09-.13.18-.2.26l-.06.08L66.26,9l-.19.23c-.74,1-1.51,1.92-2.27,2.87l-.07.09,0,0-.16.21v0c-.46.59-.94,1.17-1.4,1.76a17.1,17.1,0,0,0-1.81,3.13c-.52,1.31-1,2.66-1.38,4A31.17,31.17,0,0,0,58,25.47a38.74,38.74,0,0,0-.24,4c0,1.43,0,2.86.05,4.29a84.89,84.89,0,0,0,.43,8.59c.12.79.26,1.57.4,2.35s.25,1.61.39,2.41c.41,2.29.8,4.58,1.22,6.86s.75,4.61,1.22,6.89c.23,1.16.41,2.34.66,3.49S62.7,66.77,63,68s.5,2.31.77,3.47.59,2.45.89,3.68c.56,2.3,1,4.62,1.46,7,.21,1.16.4,2.32.58,3.48s.4,2.65.51,4c.08,1.09.16,2.18.14,3.28s0,2.5-.09,3.75-.1,2.27-.2,3.4c-.13,1.3-.37,2.57-.57,3.86-.08.71-.17,1.42-.32,2.12s-.28,1.11-.38,1.67a9.06,9.06,0,0,1-.25,1.15c-.08.31-.2.61-.26.93a7.49,7.49,0,0,1-.18.79c-.06.2-.14.39-.21.6a2.9,2.9,0,0,1-.39,1.28,3.69,3.69,0,0,1-3.64,1.57A9.15,9.15,0,0,1,59.08,113.73Z"/><path class="cls-2" d="M10.22,76.88c.52.25,1,.54,1.51.82s1,.64,1.58,1c1,.63,2.07,1.23,3,1.94A19,19,0,0,1,19,83.1a25.19,25.19,0,0,1,1.55,2.53c.61,1.09,1.24,2.17,1.82,3.27A44.85,44.85,0,0,0,26,95a22.69,22.69,0,0,0,2.74,3c.84.81,1.7,1.59,2.53,2.39a38.58,38.58,0,0,0,5.53,4.26c1.38.92,2.8,1.77,4.21,2.64a30,30,0,0,0,4.56,2.46c.66.26,1.34.47,2,.68.36.12.74.2,1.11.32s1,.33,1.46.45.84.16,1.24.28.78.24,1.18.34a12.81,12.81,0,0,0,2.14.29c.39.11.76.28,1.14.39s.68.35,1,.5a3.34,3.34,0,0,0,.69.18,5.42,5.42,0,0,0,1.45.55,9.15,9.15,0,0,0,1.73.18,3.69,3.69,0,0,0,3.64-1.57,2.9,2.9,0,0,0,.39-1.28c.07-.21.15-.4.21-.6a7.49,7.49,0,0,0,.18-.79c.06-.32.18-.62.26-.93a9.06,9.06,0,0,0,.25-1.15c.1-.56.26-1.11.38-1.67s.24-1.41.32-2.12c.2-1.29.44-2.56.57-3.86.1-1.13.16-2.26.2-3.4s.07-2.5.09-3.75-.06-2.19-.14-3.28c-.11-1.32-.31-2.66-.51-4s-.37-2.32-.58-3.48c-.43-2.33-.9-4.65-1.46-7-.3-1.23-.6-2.45-.89-3.68S63.19,69.12,63,68s-.52-2.38-.78-3.58-.43-2.33-.66-3.49c-.47-2.28-.8-4.59-1.22-6.89s-.81-4.57-1.22-6.86c-.14-.8-.24-1.6-.39-2.41s-.28-1.56-.4-2.35a84.89,84.89,0,0,1-.43-8.59c0-1.43,0-2.86-.05-4.29a38.74,38.74,0,0,1,.24-4A31.17,31.17,0,0,1,59,21.31c.42-1.35.86-2.7,1.38-4a17.1,17.1,0,0,1,1.81-3.13c.46-.59.94-1.17,1.4-1.76v0l.16-.21,0,0,.07-.09c.76-1,1.53-1.9,2.27-2.87L66.26,9l.07-.09.06-.08c.07-.08.13-.17.2-.26l.21-.27c.21-.26.41-.52.62-.77,0,.17,0,.35,0,.53.06.8.2,1.6.31,2.39a57.9,57.9,0,0,1,.36,6c0,1.1,0,2.19,0,3.3s0,2.19,0,3.27.22,2.32.3,3.48.12,2.45.15,3.68c.07,2.46.39,4.92.54,7.38.07,1.2.28,2.4.4,3.59.14,1.45.35,2.91.6,4.35.39,2.2.88,4.39,1.21,6.6.15,1.15.31,2.31.48,3.46.07.55.12,1.11.18,1.67.1.78.22,1.55.32,2.33s.18,1.45.24,2.17c.09,1.06.25,2.12.42,3.17.33,2.4.82,4.77,1.19,7.17.17,1,.35,2.07.55,3.11s.39,2.11.63,3.16a47.55,47.55,0,0,0,1.8,6,20,20,0,0,0,1.54,3.4c.25.41.48.82.74,1.22s.7,1,1.06,1.45c.5.68,1,1.35,1.52,2,1.09,1.51,2.07,3.09,3.09,4.64.51.76,1,1.5,1.54,2.27a12.29,12.29,0,0,1,1,1.89c.56,1.44,1.13,2.86,1.67,4.3.7,1.85,1.38,3.71,2.15,5.53.29.69.6,1.38.9,2.07.83,2.09,1.67,4.16,2.37,6.3.63,2,1.09,4,1.78,5.93.37,1,.68,2.1,1,3.15.47,1.31,1,2.62,1.54,3.9a48.94,48.94,0,0,0,3.45,6.16c.71,1.14,1.38,2.3,2.08,3.45a36.67,36.67,0,0,0,2.31,3.38c.92,1.21,1.89,2.36,2.92,3.48S112,151,113,152.14a60.4,60.4,0,0,1,7.18,12.66l0,.12c.5,1.22,1,2.44,1.51,3.65,0,.06,0,.11.07.17a.36.36,0,0,0,0,.09,2.44,2.44,0,0,0,.1.24c.56,1.36,1.11,2.73,1.68,4.08,1.86,4.51,3.9,8.92,5.86,13.39l0,.1,0,.06c.35.84.71,1.68,1.07,2.53l.51,1.21s0,0,0,0l.06.14.3.7.06.14a.49.49,0,0,0,0,.11c.48,1.14.95,2.29,1.44,3.42l.13.31c.07.16.13.33.21.49,1.35,3.26,2.6,6.57,4,9.81,1.28,3,2.7,5.86,4,8.81.26.63.52,1.27.79,1.9.51,1.21,1,2.44,1.45,3.67a16.38,16.38,0,0,1,.91,2.69l0,0c-.19.2-.39.4-.59.58s-.46.26-.7.38a13.13,13.13,0,0,1-2.38.66c-.73.07-1.46.09-2.19.11a19,19,0,0,1-2.5-.06c-.73-.11-1.47-.21-2.2-.29a23.17,23.17,0,0,1-3.85-1c-.41-.19-.81-.39-1.21-.61a23.71,23.71,0,0,1-.78-2.61c-.29-1.25-.47-2.51-.68-3.78-.38-2.35-.82-4.68-1.36-7s-1.16-4.7-1.85-7a66.89,66.89,0,0,0-2.38-6.57c-.38-.89-.72-1.79-1.09-2.69-.69-1.65-1.43-3.29-2.14-4.94a88.8,88.8,0,0,0-5.84-12.16c-2.46-4.05-5.18-7.92-7.46-12.07a19.31,19.31,0,0,0-1.84-2.8c-.24-.34-.46-.7-.74-1-.11-.15-.27-.24-.39-.38s-.19-.21-.29-.32c-.69-.72-1.39-1.43-2.13-2.11-1.58-1.42-3.22-2.74-4.91-4-.65-.52-1.29-1-2-1.56l-1.69-1.26c-.49-.39-1-.79-1.47-1.18l-.24-.19-.06,0,0,0c-2.93-2.24-6.07-4.2-9-6.43-1-.77-1.94-1.57-3-2.28s-1.83-1.19-2.76-1.78-1.92-1.19-2.88-1.78c-.46-.29-.94-.54-1.4-.82a14.62,14.62,0,0,0-1.68-.84l-.14-.06-.25-.11c-1.93-.79-3.89-1.47-5.84-2.22-1.64-.64-3.36-1.13-5.05-1.63s-3.58-1.17-5.38-1.68-3.48-1-5.17-1.66c-1.77-.8-3.47-1.74-5.19-2.65-1-.5-1.88-1-2.78-1.62-.73-.48-1.43-1-2.12-1.5-1.51-1.23-3-2.55-4.47-3.78-1.69-1.38-3.44-2.69-5-4.16s-3.14-3-4.67-4.51a49.58,49.58,0,0,1-3.61-3.92,46.13,46.13,0,0,1-3.68-6c-1-1.95-2-3.95-2.86-6A32.3,32.3,0,0,1,11,88.19c-.42-1.91-.88-3.81-1.42-5.68-.24-.83-.52-1.65-.78-2.47-.32-1-.7-1.91-1-2.91-.1-.44-.22-.86-.35-1.29l.15,0a8.84,8.84,0,0,0,.88.25,3,3,0,0,1,.39.14Q9.57,76.6,10.22,76.88Z"/><path class="cls-3" d="M193.2,186.83c-.4.36-39.53,29.82-47,35.09a8.33,8.33,0,0,0,1.87-2.17h0c7.17-6.56,24.24-21.68,23.92-22s17.45-11.88,17.45-12.46a2.25,2.25,0,0,1,.3-1.11l.35-.45c.55-.7,1.19-1.33,1.78-2s1-1.08,1.4-1.63c.73-1,1.43-2,2.18-3s1.63-2,2.45-3.06a15.55,15.55,0,0,0,1.44-2.33,9.6,9.6,0,0,0,.48-1.64c0-.32,0-.63,0-1-.44,0-.89.07-1.32.12a10.17,10.17,0,0,0-1.79.44l-1.05.53a13.48,13.48,0,0,0-1.4.86c-.82.55-1.61,1.16-2.43,1.71l-2.38,1.57c-.8.53-1.62,1-2.4,1.56L185,177.35a22.76,22.76,0,0,1-2,1.27c-.41.21-.82.41-1.24.59a6.4,6.4,0,0,1-1.43.51l-.63.1a10.06,10.06,0,0,1-1.82.12L178,177a.17.17,0,0,0,0-.07l.32-1.25c.21,0,.42,0,.63,0a5.78,5.78,0,0,0,1-.26,17.1,17.1,0,0,0,2.52-1.53L185.1,172c.88-.61,1.8-1.19,2.7-1.78s1.81-1.24,2.71-1.86c.71-.48,1.38-1,2.11-1.48a11.35,11.35,0,0,1,1.2-.63,16.22,16.22,0,0,1,1.53-.69,11.21,11.21,0,0,1,2.89-.56,9.87,9.87,0,0,1,3.21.09,3.32,3.32,0,0,1,2.39,2.47,12.53,12.53,0,0,1,.25,1.61,7.86,7.86,0,0,1,0,1.68,9.55,9.55,0,0,1-.34,1.69,15.46,15.46,0,0,1-2.65,4.82l-.36.47c-.45.58-.92,1.16-1.38,1.72l-.56.7c-.86,1.18-1.69,2.39-2.66,3.49-.45.52-.92,1-1.39,1.52S193.75,186.35,193.2,186.83Z"/><path class="cls-4" d="M171.5,44.87c-.06.08-.12.15-.17.23l0,0Z"/><path class="cls-5" d="M148.08,219.74h0a8.33,8.33,0,0,1-1.87,2.17,8.83,8.83,0,0,1-1.22.81h0A37.13,37.13,0,0,1,148.08,219.74Z"/><path class="cls-6" d="M146.21,221.92c-.55.5-1,.86-1.22.81A8.83,8.83,0,0,0,146.21,221.92Z"/><path class="cls-7" d="M142.64,204.33c-.15,1.41,5.62,14,5.44,15.41a37.13,37.13,0,0,0-3.1,3c-.58-.28-4.78-14.17-4.71-14.68l.15-1.12c.12-.88.2-1.77.32-2.66Z"/><path class="cls-8" d="M153.84,165c.43-1,.86-1.92,1.27-2.89,0,.1-.09.21-.13.32.27-.6.56-1.19.85-1.78s.55-1.18.85-1.76c.59-1.12,1.11-2.26,1.73-3.36a15.55,15.55,0,0,0,.81-1.7c.27-.6.56-1.19.83-1.79.55-1.22,1.1-2.43,1.63-3.66.06-.13.11-.27.17-.4.14-.35.29-.7.42-1.05s.25-.76.38-1.14c.28-.81.48-1.64.68-2.47s.43-1.71.58-2.58.34-1.84.5-2.77a44.17,44.17,0,0,0,.56-6,17.85,17.85,0,0,0-.91-5.7,16,16,0,0,0-1.31-2.78,15.6,15.6,0,0,0-1.29-2c-1.07-1.39-2.05-2.86-3.21-4.18s-2.21-2.48-3.4-3.63c-.65-.63-1.33-1.22-2-1.88s-1.14-1.24-1.71-1.85l-2.71-2.94c-.92-1-1.82-2.06-2.74-3.07s-1.67-1.85-2.54-2.75-1.54-1.71-2.26-2.62c-1-1.38-2-2.8-3-4.22-.49-.73-1-1.44-1.5-2.18s-1-1.56-1.49-2.35c-1.91-3.08-3.86-6.17-5.47-9.43-.5-1-.95-2.07-1.41-3.12-.28-.68-.55-1.36-.82-2s-.52-1.5-.79-2.24c-.56-1.52-1.07-3-1.51-4.61-.21-.72-.44-1.45-.68-2.16a20,20,0,0,1-.61-2c-.29-1.34-.66-2.66-.88-4a11,11,0,0,0-.23-1.64c0-.19-.09-.37-.13-.55V58a3,3,0,0,0,.18-.36c0,.08.09.17.13.25.36.67.77,1.33,1.16,2s.71,1.24,1.07,1.86c.2.35.37.72.59,1.06s.46.68.68,1,.38.56.55.85.35.62.52.93c.35.64.8,1.23,1.18,1.86a20.2,20.2,0,0,0,1.26,1.81c1.14,1.49,2.16,3.07,3.31,4.56l-.3-.38c.45.59.88,1.19,1.32,1.79s.87,1.11,1.32,1.66.72,1.14,1.13,1.69c.54.72,1.07,1.43,1.67,2.11s1.22,1.25,1.85,1.86,1.26,1.23,1.89,1.85c1.17,1.15,2.24,2.4,3.3,3.64a29.36,29.36,0,0,0,3.34,3.53c.44.36.88.72,1.34,1a12.09,12.09,0,0,0,1.22.79,8.53,8.53,0,0,0,3.19.68q.33,0,.66,0a6,6,0,0,0,1.26-.11,5.23,5.23,0,0,0,2.09-.92c.44-.32.87-.62,1.28-1a5.35,5.35,0,0,0,.91-1c.19-.23.37-.46.54-.71s.25-.45.39-.67.27-.47.39-.71a9.59,9.59,0,0,0,.43-1.24,10.22,10.22,0,0,0,.47-1.31,9.62,9.62,0,0,0,.24-1.61c.1-.42.24-.82.33-1.23a13.51,13.51,0,0,0,.23-1.66c.09-1,.08-1.92.09-2.87s0-1.77,0-2.65,0-1.61,0-2.41c.07-.46.13-.92.23-1.38s.23-1,.34-1.46.22-1.13.31-1.7.31-1.24.45-1.85.31-1,.47-1.51.33-1,.5-1.5c.33-1,.64-1.95,1-2.91.29-.68.57-1.37.84-2.06.19-.45.36-.9.54-1.34.34-.71.7-1.41,1-2.13.23-.5.46-1,.67-1.53s.5-1.09.77-1.63c.37-.7.84-1.34,1.24-2s.79-1.38,1.25-2a3.92,3.92,0,0,0,.29-.53,5.39,5.39,0,0,1,.33-.5c.17-.26.3-.53.48-.79s.38-.55.57-.84.36-.61.57-.9l.31-.42a11.06,11.06,0,0,1,1.4-1.5c.45-.4.86-.84,1.32-1.23.26-.2.5-.41.75-.63a1,1,0,0,0,.19-.12,4.31,4.31,0,0,0,.4-.32l.08,0a4.62,4.62,0,0,0,.73-.29,3,3,0,0,1-.13.39l0,0c-.06.15-.13.29-.19.43a21.37,21.37,0,0,0-1.23,3.83c-.14.65-.34,1.28-.48,1.93a22,22,0,0,0-.38,2.67c-.15.91-.31,1.8-.41,2.71s-.13,1.86-.22,2.78a42.87,42.87,0,0,0-.53,4.66c0,.73,0,1.45-.05,2.17A19.6,19.6,0,0,1,177,65c-.1.77-.21,1.55-.28,2.32s-.08,1.72-.15,2.57-.24,1.92-.33,2.88-.14,1.71-.18,2.57C176,77.17,176,79,176,80.83s.23,3.56.33,5.34c0,1,.08,1.94.15,2.91s.17,1.81.26,2.72c.18,1.81.26,3.62.31,5.44,0,.92.07,1.82.17,2.73s.22,1.88.28,2.83.07,1.74.09,2.61.1,1.7.2,2.55a47.55,47.55,0,0,1,.31,5.06c0,.91,0,1.83,0,2.73s.15,1.88.23,2.81.14,1.9.19,2.85.17,1.78.27,2.67c.2,1.77.31,3.54.34,5.32s0,3.43,0,5.15a21.13,21.13,0,0,1-.14,2.64l-.27,2.35c-.09.53-.19,1.06-.27,1.6-.1.7-.19,1.4-.27,2.11-.15,1-.33,2-.48,3-.29,1.73-.64,3.45-1,5.17-.17.91-.43,1.79-.6,2.7a26.44,26.44,0,0,0-.39,3.31c-.12,1.83-.1,3.65-.09,5.48,0,.89,0,1.79,0,2.69a16.87,16.87,0,0,1-.11,2.56v0h0l0,.19a18.05,18.05,0,0,1-.46,2.28c-.21.81-.42,1.64-.66,2.44s-.56,1.53-.73,2.33a8.61,8.61,0,0,0-.17,1.41,2.86,2.86,0,0,0,.77,1.9,3.21,3.21,0,0,0,1.59.92,8.38,8.38,0,0,0,1.65.21h.3a10.06,10.06,0,0,0,1.82-.12l.63-.1a6.4,6.4,0,0,0,1.43-.51c.42-.18.83-.38,1.24-.59a22.76,22.76,0,0,0,2-1.27l2.11-1.42c.78-.54,1.6-1,2.4-1.56l2.38-1.57c.82-.55,1.61-1.16,2.43-1.71a13.48,13.48,0,0,1,1.4-.86l1.05-.53a10.17,10.17,0,0,1,1.79-.44c.43,0,.88-.1,1.32-.12,0,.32,0,.63,0,1a9.6,9.6,0,0,1-.48,1.64,15.55,15.55,0,0,1-1.44,2.33c-.82,1-1.67,2-2.45,3.06s-1.45,2-2.18,3c-.45.55-.93,1.09-1.4,1.63s-1.23,1.3-1.78,2l-.35.45a2.25,2.25,0,0,0-.3,1.11c0,.58-17.87,12.05-17.45,12.46s-16.75,15.44-23.92,22c.18-1.45-5.59-14-5.44-15.41.18-1.18.4-2.35.56-3.53,0,0,0,0,0-.05.16-.89.33-1.8.47-2.7s.34-1.76.52-2.65c.07-.37.13-.75.2-1.12s.25-.93.36-1.4.17-.84.3-1.24.28-.86.39-1.29.15-.76.25-1.14.22-.86.33-1.29.27-.82.4-1.24.29-.88.43-1.33c.53-1.61,1.08-3.2,1.63-4.8.4-1.19.82-2.37,1.22-3.56s.87-2.58,1.27-3.88.79-2.37,1.17-3.55c.21-.64.46-1.26.66-1.91s.44-1.2.68-1.78Z"/><path class="cls-9" d="M156.68,158.93c-.3.58-.57,1.17-.85,1.76s-.58,1.18-.85,1.78c0-.11.09-.22.13-.32-.41,1-.84,1.93-1.27,2.89l-.35.83c-.24.58-.48,1.18-.68,1.78s-.45,1.27-.66,1.91c-.38,1.18-.81,2.36-1.17,3.55s-.84,2.59-1.27,3.88-.82,2.37-1.22,3.56c-.55,1.6-1.1,3.19-1.63,4.8-.14.45-.29.89-.43,1.33s-.29.83-.4,1.24-.23.86-.33,1.29-.15.76-.25,1.14-.25.86-.39,1.29-.2.82-.3,1.24-.28.92-.36,1.4-.13.75-.2,1.12c-.18.89-.38,1.76-.52,2.65s-.31,1.81-.47,2.7c0,0,0,0,0,.05-.16,1.18-.38,2.35-.56,3.53l-1.9-.07c.11-.86.25-1.71.38-2.57.08-.64.14-1.29.24-1.93s.17-1.11.25-1.66c.11-.88.26-1.76.43-2.63s.24-1.58.42-2.35.33-1.59.56-2.36c.11-.36.21-.71.29-1.08s.12-.71.21-1.06c.35-1.56.86-3.07,1.33-4.59s.94-2.86,1.41-4.3c.52-1.59,1.11-3.16,1.6-4.76.27-.88.57-1.75.86-2.62s.52-1.66.8-2.48c.54-1.64,1-3.29,1.67-4.9.32-.81.62-1.64.94-2.45.15-.38.29-.78.45-1.16s.33-.76.5-1.15c.26-.67.53-1.36.82-2s.48-1,.71-1.53.45-1.07.68-1.6.37-.77.55-1.15c.31-.79.64-1.58,1-2.37.13-.32.27-.65.4-1s.29-.72.45-1.08l.53-1.31a34.79,34.79,0,0,0,1.34-4c.19-.73.32-1.47.49-2.2s.32-1.44.43-2.18c.13-.9.29-1.8.42-2.7.13-1.06.21-2.13.24-3.2,0-.57,0-1.15,0-1.73s0-.93-.1-1.4a15.86,15.86,0,0,0-.87-3.1,16.39,16.39,0,0,0-1.52-2.42c-.34-.42-.69-.81-1-1.22s-.82-1-1.23-1.48a36.89,36.89,0,0,0-2.51-2.8,41.65,41.65,0,0,0-3.05-2.89,36.34,36.34,0,0,1-3-2.85c-1.3-1.34-2.61-2.68-3.86-4.07s-2.45-2.74-3.7-4.07c-.57-.6-1.18-1.17-1.71-1.8q-1.1-1.27-2.1-2.61c-1.1-1.46-2.12-3-3.15-4.48-.5-.73-1-1.45-1.52-2.2s-1-1.56-1.47-2.34c-1-1.58-2-3.15-2.9-4.76s-1.77-3.09-2.56-4.7c-.89-1.81-1.66-3.69-2.43-5.56-.67-1.65-1.23-3.35-1.82-5-.16-.46-.27-.94-.41-1.41l-.3-1.05c-.22-.8-.47-1.59-.72-2.38a15.13,15.13,0,0,1-.61-2.19c-.15-.83-.37-1.63-.53-2.45a19.58,19.58,0,0,1-.39-3,7.8,7.8,0,0,1,.16-1.59l0-.46v-.3a3,3,0,0,1,.32-1.28,2.22,2.22,0,0,1,.25-.35l0,0v-.23a4.17,4.17,0,0,1,.09-.8,5.11,5.11,0,0,1,.28-.68,5.49,5.49,0,0,0,.17-.7.57.57,0,0,0,0-.13,3.36,3.36,0,0,1,.48-1.6,1.9,1.9,0,0,0,.2-.34,2.75,2.75,0,0,1,1-1.06,2.39,2.39,0,0,1,2.45,0,4.23,4.23,0,0,1,.74.6,4.77,4.77,0,0,1,.53.72,12.8,12.8,0,0,1,.66,1.13c.21.39.41.79.6,1.19s.45.86.67,1.29c.4.81.83,1.59,1.29,2.36s.72,1.3,1.06,2c.22.42.42.84.66,1.25l.61,1c.18.31.36.62.52.94s.3.65.49,1c.4.67.8,1.36,1.21,2,.77,1.28,1.67,2.48,2.49,3.74s1.77,2.59,2.68,3.87l.85,1.12a16.11,16.11,0,0,1,1,1.48,17.4,17.4,0,0,0,1,1.5c1.71,2.12,3.82,3.88,5.58,6,1,1.12,1.88,2.25,2.83,3.37a21.26,21.26,0,0,0,2.91,2.86,12.05,12.05,0,0,0,1.21.8,5.58,5.58,0,0,0,1,.23,9.17,9.17,0,0,0,1.65.08,4.58,4.58,0,0,0,.53-.14A7.82,7.82,0,0,0,157.1,90a9.45,9.45,0,0,0,.79-.76L158,89c.17-.24.3-.5.45-.76l.38-.67c0-.17.08-.33.14-.5s.16-.42.25-.63a7.36,7.36,0,0,0,.34-1.22,9.77,9.77,0,0,1,.26-1.62,11.44,11.44,0,0,0,.29-1.26,24.16,24.16,0,0,0,.1-2.55c0-1.65,0-3.29,0-4.94a19.18,19.18,0,0,1,.32-2.92c.11-.77.34-1.52.47-2.29.08-.48.13-1,.24-1.45s.2-.86.29-1.29a12,12,0,0,1,.37-1.34c.12-.34.2-.7.31-1,.23-.75.48-1.5.72-2.26s.55-1.56.87-2.33c.25-.6.48-1.22.73-1.82l.18-.45c.2-.52.4-1,.63-1.53s.44-.89.65-1.35.29-.68.44-1,.39-1,.62-1.44c0,0,0,0,0,0a12,12,0,0,1,.9-1.79l.57-.91c.21-.33.38-.67.59-1s.38-.74.62-1.07c.1-.14.2-.27.29-.41s.18-.35.28-.53.36-.52.5-.79a5.17,5.17,0,0,1,.49-.73c0-.08.11-.15.17-.23l-.15.19a20.87,20.87,0,0,1,1.23-1.83,14,14,0,0,1,2-2.32c.3-.26.6-.53.88-.81a9.16,9.16,0,0,1,.89-.76c.13-.1.25-.22.37-.33a3.84,3.84,0,0,1,.54-.44,1.18,1.18,0,0,1,.19-.11,3.45,3.45,0,0,1,1.49-.83,5.3,5.3,0,0,1,1.44-.63,7.37,7.37,0,0,1,1.48-.16c.25,0,.53,0,.8,0a1.71,1.71,0,0,1,.65.1A2.33,2.33,0,0,1,184.65,38a2.89,2.89,0,0,1,.3.84c0,.29.09.58.11.87a4,4,0,0,1-.12,1.15c-.11.46-.18.93-.33,1.38s-.23.66-.36,1c-.26.71-.51,1.45-.73,2.18s-.33,1.43-.51,2.13-.32,1.29-.43,1.94-.11,1.28-.22,1.9c-.09.47-.17.93-.24,1.4s-.1.85-.14,1.27,0,1-.11,1.48c-.12,1-.31,2-.46,3.08-.15,1.24-.19,2.5-.22,3.75,0,.69,0,1.39,0,2.08s-.16,1.37-.26,2-.16,1.42-.2,2.14c0,.44,0,.88-.06,1.31s-.12,1.06-.19,1.59a52.91,52.91,0,0,0-.38,5.48c0,1.84-.11,3.68,0,5.51s.28,3.6.36,5.41.32,3.57.45,5.35c.07.94.13,1.89.16,2.83s0,1.92.1,2.88.23,1.89.33,2.84.13,1.7.17,2.55.07,1.76.16,2.64.23,1.65.3,2.48c.17,1.72.24,3.45.27,5.19s.32,3.74.44,5.62c.06.93.09,1.85.21,2.77s.24,1.74.31,2.61c.15,1.75.22,3.51.27,5.27,0,1,0,1.9,0,2.86a28.83,28.83,0,0,1,0,2.94c-.07.9-.17,1.79-.25,2.68s-.24,1.89-.39,2.83c-.08.76-.16,1.52-.27,2.28s-.22,1.31-.32,2c-.22,1.63-.49,3.26-.82,4.86-.17.82-.32,1.64-.52,2.45s-.34,1.53-.46,2.3c0,.26-.06.53-.08.79-.16,1.85-.19,3.71-.23,5.57,0,.88,0,1.76,0,2.64a25.2,25.2,0,0,1-.07,2.61,28.63,28.63,0,0,1-.45,2.9q-.25,1.16-.6,2.31c-.11.4-.2.81-.32,1.21s-.27.79-.41,1.19l-.15.41L178,177a.17.17,0,0,1,0,.07l-.11,2.91h-.3a8.38,8.38,0,0,1-1.65-.21,3.21,3.21,0,0,1-1.59-.92,2.86,2.86,0,0,1-.77-1.9,8.61,8.61,0,0,1,.17-1.41c.17-.8.5-1.54.73-2.33s.45-1.63.66-2.44a18.05,18.05,0,0,0,.46-2.28l0-.19h0v0a16.87,16.87,0,0,0,.11-2.56c0-.9,0-1.8,0-2.69,0-1.83,0-3.65.09-5.48a26.44,26.44,0,0,1,.39-3.31c.17-.91.43-1.79.6-2.7.32-1.72.67-3.44,1-5.17.15-1,.33-2,.48-3,.08-.71.17-1.41.27-2.11.08-.54.18-1.07.27-1.6l.27-2.35a21.13,21.13,0,0,0,.14-2.64c0-1.72,0-3.43,0-5.15s-.14-3.55-.34-5.32c-.1-.89-.23-1.77-.27-2.67s-.11-1.9-.19-2.85-.18-1.87-.23-2.81,0-1.82,0-2.73a47.55,47.55,0,0,0-.31-5.06c-.1-.85-.18-1.7-.2-2.55s0-1.74-.09-2.61-.17-1.89-.28-2.83-.14-1.81-.17-2.73c-.05-1.82-.13-3.63-.31-5.44-.09-.91-.2-1.82-.26-2.72s-.1-1.94-.15-2.91c-.1-1.78-.33-3.56-.33-5.34s0-3.66.1-5.48c0-.86.09-1.71.18-2.57s.25-1.91.33-2.88.07-1.71.15-2.57.18-1.55.28-2.32a19.6,19.6,0,0,0,.09-2.43c0-.72,0-1.44.05-2.17a42.87,42.87,0,0,1,.53-4.66c.09-.92.11-1.85.22-2.78s.26-1.8.41-2.71a22,22,0,0,1,.38-2.67c.14-.65.34-1.28.48-1.93a21.37,21.37,0,0,1,1.23-3.83c.06-.14.13-.28.19-.43l0,0a3,3,0,0,0,.13-.39,4.62,4.62,0,0,1-.73.29l-.08,0a4.31,4.31,0,0,1-.4.32,1,1,0,0,1-.19.12c-.25.22-.49.43-.75.63-.46.39-.87.83-1.32,1.23a11.06,11.06,0,0,0-1.4,1.5l-.31.42c-.21.29-.38.6-.57.9s-.38.57-.57.84-.31.53-.48.79a5.39,5.39,0,0,0-.33.5,3.92,3.92,0,0,1-.29.53c-.46.64-.85,1.34-1.25,2s-.87,1.32-1.24,2c-.27.54-.52,1.08-.77,1.63s-.44,1-.67,1.53c-.32.72-.68,1.42-1,2.13-.18.44-.35.89-.54,1.34-.27.69-.55,1.38-.84,2.06-.38,1-.69,1.94-1,2.91-.17.5-.34,1-.5,1.5s-.35,1-.47,1.51-.35,1.23-.45,1.85-.19,1.14-.31,1.7-.24,1-.34,1.46-.16.92-.23,1.38c-.07.8,0,1.61,0,2.41s0,1.77,0,2.65,0,1.92-.09,2.87a13.51,13.51,0,0,1-.23,1.66c-.09.41-.23.81-.33,1.23a9.62,9.62,0,0,1-.24,1.61,10.22,10.22,0,0,1-.47,1.31,9.59,9.59,0,0,1-.43,1.24c-.12.24-.25.48-.39.71s-.25.45-.39.67-.35.48-.54.71a5.35,5.35,0,0,1-.91,1c-.41.34-.84.64-1.28,1a5.23,5.23,0,0,1-2.09.92,6,6,0,0,1-1.26.11q-.33,0-.66,0a8.53,8.53,0,0,1-3.19-.68,12.09,12.09,0,0,1-1.22-.79c-.46-.33-.9-.69-1.34-1a29.36,29.36,0,0,1-3.34-3.53c-1.06-1.24-2.13-2.49-3.3-3.64-.63-.62-1.25-1.24-1.89-1.85s-1.28-1.2-1.85-1.86-1.13-1.39-1.67-2.11c-.41-.55-.75-1.14-1.13-1.69s-.9-1.1-1.32-1.66-.87-1.2-1.32-1.79l.3.38c-1.15-1.49-2.17-3.07-3.31-4.56a20.2,20.2,0,0,1-1.26-1.81c-.38-.63-.83-1.22-1.18-1.86-.17-.31-.34-.63-.52-.93s-.38-.56-.55-.85-.46-.69-.68-1-.39-.71-.59-1.06c-.36-.62-.69-1.25-1.07-1.86s-.8-1.31-1.16-2c0-.08-.08-.17-.13-.25a3,3,0,0,1-.18.36v.07c0,.18.08.36.13.55a11,11,0,0,1,.23,1.64c.22,1.35.59,2.67.88,4a20,20,0,0,0,.61,2c.24.71.47,1.44.68,2.16.44,1.56,1,3.09,1.51,4.61.27.74.5,1.5.79,2.24s.54,1.36.82,2c.46,1,.91,2.1,1.41,3.12,1.61,3.26,3.56,6.35,5.47,9.43.49.79,1,1.58,1.49,2.35s1,1.45,1.5,2.18c1,1.42,1.95,2.84,3,4.22.72.91,1.46,1.78,2.26,2.62s1.7,1.82,2.54,2.75,1.82,2.06,2.74,3.07l2.71,2.94c.57.61,1.13,1.24,1.71,1.85s1.31,1.25,2,1.88c1.19,1.15,2.31,2.38,3.4,3.63s2.14,2.79,3.21,4.18a15.6,15.6,0,0,1,1.29,2,16,16,0,0,1,1.31,2.78A17.85,17.85,0,0,1,165,132a44.17,44.17,0,0,1-.56,6c-.16.93-.35,1.84-.5,2.77s-.37,1.72-.58,2.58-.4,1.66-.68,2.47c-.13.38-.24.77-.38,1.14s-.28.7-.42,1.05c-.06.13-.11.27-.17.4-.53,1.23-1.08,2.44-1.63,3.66-.27.6-.56,1.19-.83,1.79a15.55,15.55,0,0,1-.81,1.7C157.79,156.67,157.27,157.81,156.68,158.93Z"/><path class="cls-10" d="M206.71,114.09h0l-.12.05c-.65.26-1.32.47-2,.69s-1.59.55-2.37.86c-1.51.61-3,1.13-4.59,1.65s-3,1-4.58,1.43c-.69.2-1.41.31-2.11.49s-1.42.33-2.12.54-1.64.39-2.46.61c-.39.11-.79.22-1.18.31s-.77.25-1.15.38-.63.19-.95.28a8.78,8.78,0,0,0-1,.32,8,8,0,0,1-.94.31,10.13,10.13,0,0,0-1.39.52,8,8,0,0,1-1.46.38c-.12,0,1.34-6.09,1.22-6.08l2.66-1.34c.78-.38,1.57-.74,2.33-1.14,1.55-.79,3.09-1.58,4.62-2.4s3.08-1.66,4.63-2.48,2.87-1.57,4.32-2.33c.78-.4,1.55-.82,2.32-1.24s1.46-.7,2.19-1,1.43-.64,2.12-1l2.2-1.12c1.48-.75,3-1.53,4.41-2.32s3-1.64,4.51-2.53c.57-.35,1.17-.68,1.77-1s1.26-.73,1.87-1.11a37.21,37.21,0,0,0,3.23-2.24,36.39,36.39,0,0,0,2.83-2.44,35,35,0,0,1,2.91-2.67L229,88a21.93,21.93,0,0,1,2.21-1.37l1.26-.66c.4-.21.79-.43,1.2-.62l1-.39a17.26,17.26,0,0,1,3.78-1.11c.6-.07,1.2-.11,1.8-.21s1.28-.23,1.92-.32a80,80,0,0,1,9.16-.38l4.34,0h1.34a5,5,0,0,0,.77,0c.77-.07,1.53-.21,2.29-.32s1.54-.2,2.31-.35c.37-.08.75-.14,1.13-.2s.84-.19,1.25-.28c.82-.18,1.63-.36,2.43-.58a16.55,16.55,0,0,0,2.52-.92A10.9,10.9,0,0,0,271.71,79a13.51,13.51,0,0,0,1.82-1.73,24,24,0,0,0,1.68-2.09c.48-.67.92-1.35,1.36-2.05s.89-1.5,1.32-2.25.91-1.51,1.39-2.26c.9-1.41,1.81-2.81,2.7-4.23s1.84-2.69,2.78-4,2-2.69,3-4l.5-.66c.74-.93,1.51-1.83,2.24-2.76l.15-.19h0l.51-.67c.33-.4.65-.81,1-1.2s.76-1,1.16-1.4.86-.93,1.3-1.39a13.14,13.14,0,0,1,1.08-1,5.26,5.26,0,0,1,.65-.38,5.72,5.72,0,0,1,1.1-.28c.21,0,.42,0,.64,0l.11.14a3.14,3.14,0,0,1,.28.46,5.66,5.66,0,0,1,.15.59,4.67,4.67,0,0,1,0,.52,6.72,6.72,0,0,1-.37,1.33s0,0,0,0h0c-.15.36-.31.73-.45,1.09s-.31.74-.46,1.12l0,.08a.54.54,0,0,0,0,.11c-.18.43-.37.86-.54,1.29-.09.2-.17.4-.25.59s-.25.6-.37.89c-.37.86-.72,1.72-1.06,2.58,0,0,0,0,0,0-.23.53-.46,1.06-.71,1.59-.32.68-.65,1.35-.93,2.05s-.62,1.55-.91,2.33-.5,1.62-.76,2.44a15.19,15.19,0,0,0-.55,2.21,22.69,22.69,0,0,0-.24,2.47c0,.25,0,.5,0,.76a4.26,4.26,0,0,0,0,.5,4.51,4.51,0,0,0,.25,1,4.1,4.1,0,0,0,.65,1.11,2.43,2.43,0,0,0,1.08.71,4.89,4.89,0,0,0,.72.21,11.48,11.48,0,0,0,1.43.22c1.51.17,3,.18,4.55.24a11.1,11.1,0,0,0,1.29,0,14.16,14.16,0,0,0,1.44-.18c.51-.06,1-.12,1.53-.21s1-.22,1.54-.3.92-.11,1.37-.2.9-.19,1.35-.27.84-.14,1.25-.24.82-.22,1.23-.3a15.81,15.81,0,0,0,2.43-.64,18.1,18.1,0,0,0,2.56-1,21.43,21.43,0,0,0,2.06-1.22A14.78,14.78,0,0,0,319.54,69a8.42,8.42,0,0,0,.69-.77,5.24,5.24,0,0,0,.85-1.29,7,7,0,0,0,.42-1.24c.07-.33.12-.67.17-1,.08-.57.13-1.15.2-1.72s.32-.94.43-1.43.14-.91.25-1.35c.22-.9.38-1.81.6-2.71.11-.43.2-.85.32-1.28s.26-.9.37-1.35.25-.89.39-1.34.25-.89.42-1.32l.33-.79c.12-.24.25-.47.39-.71a3.88,3.88,0,0,1,.42-.39c.2-.12.41-.21.6-.35l.1-.07c.1.17.19.35.27.52a6.67,6.67,0,0,1,.24,1c.09.89.13,1.78.15,2.67a9,9,0,0,0,.33,1.94,11.3,11.3,0,0,1,.25,1.29c0,.12,0,.24,0,.36a4,4,0,0,0,.13.78,3.28,3.28,0,0,0,.28.6c.08.16.16.31.25.46a2.45,2.45,0,0,0,1.28,1,3.13,3.13,0,0,0,2.41-.46,12.55,12.55,0,0,0,1.18-.69,30.27,30.27,0,0,1,2.73-1.5c.82-.39,1.62-.8,2.45-1.17l1.43-.61c.47-.18.95-.35,1.43-.55l-.33.14c.6-.25,1.23-.39,1.83-.63a8.51,8.51,0,0,1,1.91-.55c.3,0,.61,0,.92-.06-.25.4-.52.79-.8,1.18s-.81,1-1.24,1.47-.83.88-1.23,1.33c-.19.21-.36.43-.54.64s-.52.6-.76.91c-.12.14-.25.27-.37.4s-.33.41-.49.63l-.6.85c-.25.31-.48.63-.7,1l-.48.62-.23.28c-.24.29-.45.59-.67.89l-.18.25c-.6.7-1.21,1.4-1.76,2.14a10.19,10.19,0,0,0-.64.83.47.47,0,0,0-.09.12l-.05.06-.44.6c-.23.3-.46.6-.67.9s-.23.31-.34.47c-.32.41-.64.82-.95,1.24s-.52.67-.78,1q-.23.27-.42.54c-.93,1.11-2,2.13-2.85,3.28l-.79.92a12.55,12.55,0,0,0-.84,1.18,14.43,14.43,0,0,0-1.07,2.45,5.07,5.07,0,0,0-.38,1.58,6.34,6.34,0,0,0,.32,2.12,22.2,22.2,0,0,0,1,2.45c.17.42.31.85.48,1.27s.31.86.48,1.29.31.75.45,1.15a11.67,11.67,0,0,0,.52,1.27c.07.2.12.41.19.6l.27.67c.18.45.41.88.62,1.31s.31.71.47,1.06c.32.84.66,1.68,1,2.5.23.59.42,1.2.63,1.8a10.82,10.82,0,0,1,.45,1.76c0,.24.05.47.07.71a7.73,7.73,0,0,1-.88-.51,13,13,0,0,1-1.29-1.28c-.1-.11-.19-.23-.28-.35s-.27-.37-.42-.54-.27-.31-.4-.46l-.42-.54c-.18-.25-.37-.51-.53-.77s-.4-.57-.58-.86-.38-.63-.58-.93-.34-.54-.49-.82c-.29-.59-.67-1.12-1-1.68a12,12,0,0,0-1.4-1.87A10.39,10.39,0,0,0,322.32,90a6.34,6.34,0,0,0-1-.57l-1.11-.59c-.61-.31-1.18-.7-1.8-1-.27-.12-.52-.26-.77-.4a9.63,9.63,0,0,0-1.19-.5l-.5-.24c-.33-.14-.66-.26-1-.39s-.75-.35-1.13-.51l.18.07a6.54,6.54,0,0,1-.64-.35,6,6,0,0,0-.73-.34,10.56,10.56,0,0,0-1.59-.68,9.86,9.86,0,0,0-1.86-.29c-.5,0-1-.06-1.52-.06a12.62,12.62,0,0,0-2.19.34,14.33,14.33,0,0,0-1.46.41,12.27,12.27,0,0,1-1.6.33c-1,.15-1.9.42-2.86.59-.62.06-1.24.1-1.85.22s-1.16.24-1.74.32c-1,.15-2,.42-3,.58-.62.08-1.23.15-1.84.27s-1.11.22-1.66.3c-1,.14-2,.42-2.95.57-.76.09-1.52.14-2.28.24s-1.47.28-2.2.4l-.81.08a14.29,14.29,0,0,0-1.73.18c-.59.12-1.16.27-1.74.37a23.56,23.56,0,0,1-2.38.13h-.63a7,7,0,0,0-1.43.22c-.37.09-.75.17-1.13.23-.66.08-1.33.12-2,.15a20.86,20.86,0,0,0-2.91.51c-1,.11-2.05.1-3.08.11-.67,0-1.34,0-2,.06s-1.42.21-2.13.32a32.63,32.63,0,0,1-3.28.21H256a10.69,10.69,0,0,0-1.69.13c-.51.09-1,.2-1.54.28l-.21,0a10.17,10.17,0,0,0-1.44.28,12.12,12.12,0,0,1-1.33.29c-.26,0-.53.06-.79.11l-.77.2a15,15,0,0,1-1.48.33c-.52.09-1,.28-1.55.41s-.93.16-1.38.29-.86.28-1.3.39-.86.27-1.3.41-.84.26-1.25.42-1,.42-1.52.64c-.73.3-1.43.62-2.13,1s-1.5.79-2.26,1.16c-.38.18-.75.39-1.13.57a13.67,13.67,0,0,0-1.26.66c-.69.42-1.35.87-2,1.32s-1.36.87-2,1.36-1.34,1-2,1.44-1.44,1-2.14,1.51-1.48,1-2.22,1.51c-.48.33-1,.64-1.44,1s-.86.61-1.3.89c-1,.64-2,1.2-3,1.79-.51.3-1,.58-1.52.86s-.93.58-1.42.85a29.2,29.2,0,0,1-2.65,1.41l.4-.16c-.42.17-.83.36-1.25.55l-.19.08c-.31.12-.61.26-.93.4S207.1,113.93,206.71,114.09Z"/><path class="cls-11" d="M332.37,103.36c0,.12,0,.23,0,.34,0-.11,0-.22-.05-.33A0,0,0,0,0,332.37,103.36Z"/><path class="cls-12" d="M210.92,115.94c-.34.16-.67.31-1,.45s-.69.31-1,.45l-.92.34a10.8,10.8,0,0,1-1.43.55c-.51.16-1,.34-1.53.53-1,.37-2,.77-3,1.18-1.72.7-3.51,1.23-5.26,1.84-.71.25-1.44.47-2.16.7-.38.12-.76.24-1.14.34l-1,.22c-.71.18-1.44.35-2.16.54-.42.11-.83.26-1.25.37s-.84.18-1.26.28c-.85.21-1.71.42-2.54.7s-1.45.38-2.16.63l-.57.18c-.23.06-.47.1-.7.17-.42.12-.83.3-1.25.42a7.23,7.23,0,0,1-2.12.29,1.63,1.63,0,0,1-1.61-1.61c0-.42,0-8,.26-8.32a1.86,1.86,0,0,0,2.5.65c.12,0-1.34,6.09-1.22,6.08a8,8,0,0,0,1.46-.38,10.13,10.13,0,0,1,1.39-.52,8,8,0,0,0,.94-.31,8.78,8.78,0,0,1,1-.32c.32-.09.64-.17.95-.28s.76-.28,1.15-.38.79-.2,1.18-.31c.82-.22,1.65-.37,2.46-.61s1.41-.36,2.12-.54,1.42-.29,2.11-.49c1.53-.46,3.07-.91,4.58-1.43s3.08-1,4.59-1.65c.78-.31,1.58-.6,2.37-.86s1.34-.43,2-.69l.12-.05h0c.39-.16.79-.29,1.18-.44s.62-.28.93-.4l.19-.08c.42-.19.83-.38,1.25-.55l-.4.16a29.2,29.2,0,0,0,2.65-1.41c.49-.27.93-.58,1.42-.85s1-.56,1.52-.86c1-.59,2.05-1.15,3-1.79.44-.28.88-.58,1.3-.89s1-.65,1.44-1c.74-.5,1.51-1,2.22-1.51s1.44-1,2.14-1.51,1.36-1,2-1.44,1.33-.91,2-1.36,1.33-.9,2-1.32a13.67,13.67,0,0,1,1.26-.66c.38-.18.75-.39,1.13-.57.76-.37,1.51-.78,2.26-1.16s1.4-.67,2.13-1c.5-.22,1-.44,1.52-.64s.83-.29,1.25-.42.85-.31,1.3-.41.87-.26,1.3-.39.93-.17,1.38-.29,1-.32,1.55-.41a15,15,0,0,0,1.48-.33l.77-.2c.26,0,.53-.08.79-.11a12.12,12.12,0,0,0,1.33-.29,10.17,10.17,0,0,1,1.44-.28l.21,0c.52-.08,1-.19,1.54-.28a10.69,10.69,0,0,1,1.69-.13h.78a32.63,32.63,0,0,0,3.28-.21c.71-.11,1.41-.26,2.13-.32s1.34,0,2-.06c1,0,2.06,0,3.08-.11a20.86,20.86,0,0,1,2.91-.51c.67,0,1.34-.07,2-.15.38-.06.76-.14,1.13-.23a7,7,0,0,1,1.43-.22h.63a23.56,23.56,0,0,0,2.38-.13c.58-.1,1.15-.25,1.74-.37a14.29,14.29,0,0,1,1.73-.18l.81-.08c.73-.12,1.46-.3,2.2-.4s1.52-.15,2.28-.24c1-.15,1.95-.43,2.95-.57.55-.08,1.1-.19,1.66-.3s1.22-.19,1.84-.27c1-.16,2-.43,3-.58.58-.08,1.16-.2,1.74-.32s1.23-.16,1.85-.22c1-.17,1.9-.44,2.86-.59a12.27,12.27,0,0,0,1.6-.33,14.33,14.33,0,0,1,1.46-.41,12.62,12.62,0,0,1,2.19-.34c.51,0,1,0,1.52.06a9.86,9.86,0,0,1,1.86.29,10.56,10.56,0,0,1,1.59.68,6,6,0,0,1,.73.34,6.54,6.54,0,0,0,.64.35l-.18-.07c.38.16.76.33,1.13.51s.67.25,1,.39l.5.24a9.63,9.63,0,0,1,1.19.5c.25.14.5.28.77.4.62.28,1.19.67,1.8,1l1.11.59a6.34,6.34,0,0,1,1,.57A10.39,10.39,0,0,1,324,91.41a12,12,0,0,1,1.4,1.87c.33.56.71,1.09,1,1.68.15.28.32.55.49.82s.38.62.58.93.39.56.58.86.35.52.53.77l.42.54c.13.15.28.3.4.46s.28.36.42.54.18.24.28.35a13,13,0,0,0,1.29,1.28,7.73,7.73,0,0,0,.88.51l.13,1.34a0,0,0,0,1,0,0c0,.11,0,.22.05.33L334.6,105a2.69,2.69,0,0,1-2.28.22,10.7,10.7,0,0,1-1.07-.41c-.2-.1-.41-.21-.62-.3a7,7,0,0,1-1.51-1,11.16,11.16,0,0,1-1.78-1.79c-.15-.18-.32-.34-.48-.52s-.23-.28-.35-.42a12.1,12.1,0,0,1-.83-1.06l-.39-.49c-.22-.27-.45-.53-.66-.81l-.12-.15c-.25-.34-.49-.68-.73-1s-.36-.59-.54-.88c-.38-.6-.81-1.17-1.23-1.74a7.64,7.64,0,0,0-1-1l-.23-.17a5,5,0,0,0-.83-.52c-.3-.12-.6-.26-.91-.4-.54-.21-1.08-.44-1.6-.7l-.86-.43c-.34-.14-.67-.3-1-.45l-1.16-.46c-.25-.09-.49-.16-.74-.26-.41-.16-.81-.34-1.21-.52a6.54,6.54,0,0,1-1-.46L311,89l-.91-.41a4.7,4.7,0,0,0-.74-.18l-.86-.08a11.83,11.83,0,0,0-1.33,0l-.68.11a9.75,9.75,0,0,0-1.19.27,17.72,17.72,0,0,1-2.4.42c-.67.12-1.33.28-2,.39s-1.42.2-2.14.26c-.49.09-1,.21-1.47.29s-.93.14-1.4.24c-1.11.23-2.21.42-3.34.55-.6.11-1.19.24-1.79.33-.31,0-.63.08-1,.14s-.61.14-.91.21a20.74,20.74,0,0,1-2.36.39c-.53.07-1.08.09-1.62.15-.77.13-1.53.27-2.31.37s-1.47.14-2.21.19c-.45.08-.9.2-1.36.29a17.08,17.08,0,0,1-1.73.23c-.91.06-1.81.06-2.71.09-.32.06-.64.14-.95.21-.49.1-1,.16-1.47.21s-.76.06-1.14.07-.82,0-1.22,0-1.08.25-1.63.33a19.8,19.8,0,0,1-2.31.19c-.64,0-1.27,0-1.9,0h-.41a13,13,0,0,0-1.53,0,33.56,33.56,0,0,1-3.73.44c-.51,0-1,0-1.53,0h-.51c-.38,0-.77,0-1.15,0l-1.07.2c-.43.08-.86.13-1.29.18s-.95.24-1.44.34-1,.17-1.52.23-.78.2-1.17.28-.89.14-1.32.25-.9.24-1.35.34-.81.12-1.2.21-.76.23-1.15.33-.68.17-1,.29-.76.23-1.13.36-.66.24-1,.36-.91.41-1.37.59c-.89.4-1.75.86-2.61,1.31l-1.62.82c-.49.25-1,.48-1.48.77-.92.55-1.81,1.14-2.7,1.75s-1.79,1.2-2.66,1.84L227,106c-.35.25-.71.48-1.07.72-.72.51-1.42,1.06-2.16,1.54s-1.45.94-2.14,1.45-1.29.92-2,1.33l-1.24.73c-.34.19-.67.41-1,.6s-.81.49-1.22.73-.67.36-1,.56-.68.44-1.05.63l-1,.55-1,.53c-.3.16-.61.29-.92.42Z"/><path class="cls-13" d="M292.92,72.71h0l.07.06Z"/><path class="cls-14" d="M293.18,72.87a4.63,4.63,0,0,0,.81.22,26.16,26.16,0,0,0,3.43.12l1.51,0c.58,0,1.17,0,1.75-.07s1.07-.23,1.61-.33,1.1-.25,1.64-.39,1.23-.24,1.84-.38,1.09-.32,1.65-.42a17.18,17.18,0,0,0,1.75-.43c.49-.14,1-.21,1.49-.36a31.27,31.27,0,0,0,3-1,16.46,16.46,0,0,0,3.07-1.89q.46-.39.9-.81a9,9,0,0,0,.65-.72c.11-.17.21-.33.3-.5a3.89,3.89,0,0,0,.12-.49,11.41,11.41,0,0,0,0-1.85c0-.19,0-.38-.05-.57a3.38,3.38,0,0,1,0-1.05c.07-.38.16-.76.23-1.14s.07-.92.16-1.38.18-.92.24-1.38a23.67,23.67,0,0,1,.5-2.48c.11-.44.24-.87.34-1.3s.2-.85.32-1.26.28-.9.41-1.35a11.58,11.58,0,0,1,.56-1.37A6.81,6.81,0,0,1,322,49a6.08,6.08,0,0,1,.55-.78c.15-.14.31-.27.47-.4s.49-.37.74-.54a3.5,3.5,0,0,1,.88-.4,6.58,6.58,0,0,1,1.08-.5,2.57,2.57,0,0,1,.84-.17,3.39,3.39,0,0,1,.65.1c.19.07.37.16.56.24a2.73,2.73,0,0,1,.58.4l.22.17a4.18,4.18,0,0,1,.69.92,13.91,13.91,0,0,1,.68,1.4,9.69,9.69,0,0,1,.45,2.57c0,.39.05.77.06,1.16s0,.77,0,1.15.19.87.26,1.31a17.49,17.49,0,0,1,.18,1.76c.45-.24.89-.51,1.34-.75.64-.34,1.28-.7,1.93-1,.34-.17.69-.32,1-.5s.56-.29.84-.41c.65-.29,1.29-.6,2-.86.37-.17.74-.34,1.12-.49s.53-.19.8-.28l.11,0c.3-.13.6-.26.91-.37s.54-.15.81-.25a13.72,13.72,0,0,1,2-.64,17.52,17.52,0,0,1,3.15-.23,2.06,2.06,0,0,1,.66.06,2,2,0,0,1,1.05.76,2.45,2.45,0,0,1,0,2.47A13.37,13.37,0,0,1,347.32,57c-.29.42-.61.8-.93,1.19s-.48.59-.73.87c-.39.44-.79.88-1.17,1.33a6,6,0,0,1-.39.49l-.07.09L344,61l-.63.79-.5.6c-.33.46-.64.93-1,1.37l-.25.37c-.16.24-.34.46-.51.68s-.49.63-.74,1-.26.38-.4.56c-.26.34-.54.65-.8,1l-1,1.27c-.16.21-.32.41-.49.61l-.26.36-.17.22-.72.94-.47.6-.64.81c-.37.48-.74,1-1.13,1.43l-.66.87a.1.1,0,0,0,0,0c-.62.77-1.29,1.49-2,2.2-.36.37-.7.76-1,1.16s-.6.67-.89,1a9.57,9.57,0,0,0-.76,1.22c-.12.34-.23.68-.36,1a6.12,6.12,0,0,0-.35,1.1c0,.14,0,.28,0,.43a7.5,7.5,0,0,0,.4,1.3c.36.82.76,1.62,1.09,2.46.22.5.45,1,.67,1.51s.45,1,.66,1.45c.13.29.29.56.42.85a9.79,9.79,0,0,1,.4,1l.06.14c.05.1.09.2.14.31s.25.46.36.7.2.44.3.66c.43.9.8,1.82,1.17,2.74a14.45,14.45,0,0,1,.69,1.68c.16.49.34,1,.5,1.48a12.56,12.56,0,0,1,.51,3.33,3,3,0,0,1-.57,2.41,2.12,2.12,0,0,1-.38.29l-2.19-1.25c0-.11,0-.22,0-.34l-.13-1.34c0-.24,0-.47-.07-.71a10.82,10.82,0,0,0-.45-1.76c-.21-.6-.4-1.21-.63-1.8-.36-.82-.7-1.66-1-2.5-.16-.35-.32-.71-.47-1.06s-.44-.86-.62-1.31l-.27-.67c-.07-.19-.12-.4-.19-.6a11.67,11.67,0,0,1-.52-1.27c-.14-.4-.3-.77-.45-1.15s-.3-.87-.48-1.29-.31-.85-.48-1.27a22.2,22.2,0,0,1-1-2.45,6.34,6.34,0,0,1-.32-2.12,5.07,5.07,0,0,1,.38-1.58A14.43,14.43,0,0,1,326.76,78a12.55,12.55,0,0,1,.84-1.18l.79-.92c.88-1.15,1.92-2.17,2.85-3.28q.19-.27.42-.54c.26-.34.51-.68.78-1s.63-.83.95-1.24c.11-.16.22-.32.34-.47s.44-.6.67-.9l.44-.6.05-.06a.47.47,0,0,1,.09-.12,10.19,10.19,0,0,1,.64-.83c.55-.74,1.16-1.44,1.76-2.14l.18-.25c.22-.3.43-.6.67-.89l.23-.28.48-.62c.22-.32.45-.64.7-1l.6-.85c.16-.22.32-.43.49-.63s.25-.26.37-.4c.24-.31.5-.61.76-.91s.35-.43.54-.64c.4-.45.82-.89,1.23-1.33s.84-1,1.24-1.47.55-.78.8-1.18c-.31,0-.62,0-.92.06a8.51,8.51,0,0,0-1.91.55c-.6.24-1.23.38-1.83.63l.33-.14c-.48.2-1,.37-1.43.55l-1.43.61c-.83.37-1.63.78-2.45,1.17a30.27,30.27,0,0,0-2.73,1.5,12.55,12.55,0,0,1-1.18.69,3.13,3.13,0,0,1-2.41.46,2.45,2.45,0,0,1-1.28-1c-.09-.15-.17-.3-.25-.46a3.28,3.28,0,0,1-.28-.6,4,4,0,0,1-.13-.78c0-.12,0-.24,0-.36a11.3,11.3,0,0,0-.25-1.29,9,9,0,0,1-.33-1.94c0-.89-.06-1.78-.15-2.67a6.67,6.67,0,0,0-.24-1c-.08-.17-.17-.35-.27-.52l-.1.07c-.19.14-.4.23-.6.35a3.88,3.88,0,0,0-.42.39c-.14.24-.27.47-.39.71l-.33.79c-.17.43-.28.88-.42,1.32s-.28.88-.39,1.34-.24.9-.37,1.35-.21.85-.32,1.28c-.22.9-.38,1.81-.6,2.71-.11.44-.14.9-.25,1.35s-.31.94-.43,1.43-.12,1.15-.2,1.72c-.05.33-.1.67-.17,1a7,7,0,0,1-.42,1.24,5.24,5.24,0,0,1-.85,1.29,8.42,8.42,0,0,1-.69.77,14.78,14.78,0,0,1-1.94,1.59,21.43,21.43,0,0,1-2.06,1.22,18.1,18.1,0,0,1-2.56,1,15.81,15.81,0,0,1-2.43.64c-.41.08-.82.2-1.23.3s-.83.16-1.25.24-.9.18-1.35.27-.91.15-1.37.2-1,.19-1.54.3-1,.15-1.53.21a14.16,14.16,0,0,1-1.44.18,11.1,11.1,0,0,1-1.29,0c-1.52-.06-3-.07-4.55-.24a11.48,11.48,0,0,1-1.43-.22,4.89,4.89,0,0,1-.72-.21,2.43,2.43,0,0,1-1.08-.71,4.1,4.1,0,0,1-.65-1.11,4.51,4.51,0,0,1-.25-1,4.26,4.26,0,0,1,0-.5l1.53,0c0,.14,0,.28,0,.42a3.25,3.25,0,0,0,.18.68c.07.15.14.29.22.43l0,0,.11.12h0l.08.06Z"/><path class="cls-15" d="M228.41,88.47a35,35,0,0,0-2.91,2.67,36.39,36.39,0,0,1-2.83,2.44,37.21,37.21,0,0,1-3.23,2.24c-.61.38-1.23.78-1.87,1.11s-1.2.64-1.77,1c-1.48.89-3,1.7-4.51,2.53s-2.93,1.57-4.41,2.32l-2.2,1.12c-.69.35-1.41.66-2.12,1s-1.47.65-2.19,1-1.54.84-2.32,1.24c-1.45.76-2.87,1.57-4.32,2.33s-3.08,1.65-4.63,2.48-3.07,1.61-4.62,2.4c-.76.4-1.55.76-2.33,1.14l-2.66,1.34c-.27.08-2.3-.85-2.5-.65a1.84,1.84,0,0,1,.66-2.5c1.45-.75,2.93-1.46,4.4-2.19.79-.38,1.57-.79,2.34-1.21s1.51-.79,2.25-1.22c1.48-.84,3-1.72,4.46-2.51.77-.41,1.54-.83,2.29-1.28s1.45-.8,2.16-1.2a46.13,46.13,0,0,1,4.38-2.22l.14-.06.2-.09c.41-.17.82-.35,1.23-.51l1.05-.46c1.06-.49,2.13-.94,3.21-1.38l.62-.26c1.25-.58,2.5-1.15,3.73-1.79s2.55-1.28,3.78-2,2.57-1.38,3.83-2.12c1-.6,2-1.22,2.94-1.92l.07-.06.12-.09c.94-.75,1.85-1.53,2.71-2.36.51-.49,1-1,1.54-1.47s1-.82,1.47-1.21c.31-.25.61-.51.93-.73l.76-.5c.48-.32,1-.6,1.49-.88s1-.5,1.44-.76a14.06,14.06,0,0,1,1.88-.89,23.68,23.68,0,0,1,3.18-1.16,22.08,22.08,0,0,1,3.25-.44c.88-.14,1.75-.29,2.64-.37s1.65-.13,2.47-.15c1.63,0,3.26,0,4.89,0h6.73a16.48,16.48,0,0,0,2,0c.81-.12,1.62-.22,2.42-.31.59-.09,1.17-.21,1.75-.31s1.41-.31,2.11-.46a20.86,20.86,0,0,0,3.55-1,11,11,0,0,0,1.29-.64l1.12-.76a15.27,15.27,0,0,0,1.16-1.12,14.94,14.94,0,0,0,1.18-1.33l.28-.35.05-.07c.91-1.23,1.68-2.53,2.47-3.85.88-1.47,1.82-2.89,2.77-4.31s1.7-2.65,2.63-3.92,1.78-2.47,2.71-3.67l.1-.13.06-.08c.57-.74,1.14-1.47,1.72-2.2l.14-.18h0c.44-.57.88-1.14,1.35-1.7s1-1.13,1.48-1.7.91-1.09,1.37-1.64,1-1.12,1.5-1.68,1.09-1.17,1.66-1.73a11,11,0,0,1,1.73-1.47,5.36,5.36,0,0,1,2.42-.78c.23,0,.47,0,.71,0H298a1.74,1.74,0,0,1,.89.23,2.1,2.1,0,0,1,.51.52,3.53,3.53,0,0,1,.68,1.37,3.29,3.29,0,0,1,.08,1.17,7.37,7.37,0,0,1-.17,1,14.87,14.87,0,0,1-.51,1.41c-.18.46-.37.92-.56,1.38l-.45,1.11c-.19.46-.38.93-.58,1.39s-.34.83-.51,1.24c-.4,1-.78,2-1.21,3s-.79,1.69-1.17,2.53c-.14.35-.29.7-.44,1.05-.22.57-.44,1.14-.65,1.71s-.38,1.19-.58,1.79a18.54,18.54,0,0,0-.77,3,.06.06,0,0,0,0,0v0s0,0,0,0v0a.06.06,0,0,0,0,0c-.05.42-.08.84-.11,1.27s-.06.67-.06,1l-1.53,0c0-.26,0-.51,0-.76a22.69,22.69,0,0,1,.24-2.47,15.19,15.19,0,0,1,.55-2.21c.26-.82.46-1.64.76-2.44s.59-1.56.91-2.33.61-1.37.93-2.05c.25-.53.48-1.06.71-1.59,0,0,0,0,0,0,.34-.86.69-1.72,1.06-2.58.12-.29.24-.59.37-.89s.16-.39.25-.59c.17-.43.36-.86.54-1.29a.54.54,0,0,1,0-.11l0-.08c.15-.38.31-.74.46-1.12s.3-.73.45-1.09h0s0,0,0,0A6.72,6.72,0,0,0,298.6,48a4.67,4.67,0,0,0,0-.52,5.66,5.66,0,0,0-.15-.59,3.14,3.14,0,0,0-.28-.46l-.11-.14c-.22,0-.43,0-.64,0a5.72,5.72,0,0,0-1.1.28,5.26,5.26,0,0,0-.65.38,13.14,13.14,0,0,0-1.08,1c-.44.46-.88.91-1.3,1.39s-.78.93-1.16,1.4-.65.8-1,1.2l-.51.67h0l-.15.19c-.73.93-1.5,1.83-2.24,2.76l-.5.66c-1,1.34-2,2.66-3,4s-1.91,2.64-2.78,4-1.8,2.82-2.7,4.23c-.48.75-.94,1.5-1.39,2.26s-.86,1.51-1.32,2.25-.88,1.38-1.36,2.05a24,24,0,0,1-1.68,2.09A13.51,13.51,0,0,1,271.71,79a10.9,10.9,0,0,1-2.09,1.27,16.55,16.55,0,0,1-2.52.92c-.8.22-1.61.4-2.43.58-.41.09-.83.2-1.25.28s-.76.12-1.13.2c-.77.15-1.53.25-2.31.35s-1.52.25-2.29.32a5,5,0,0,1-.77,0h-1.34l-4.34,0a80,80,0,0,0-9.16.38c-.64.09-1.28.21-1.92.32s-1.2.14-1.8.21A17.26,17.26,0,0,0,234.58,85l-1,.39c-.41.19-.8.41-1.2.62l-1.26.66A21.93,21.93,0,0,0,229,88Z"/><path class="cls-16" d="M177,116.19c.2-.2,2.23.73,2.5.65A1.86,1.86,0,0,1,177,116.19Z"/><path class="cls-17" d="M231.18,187.83a5.85,5.85,0,0,1-.73-.12,2.07,2.07,0,0,1-1.19-.88,3.4,3.4,0,0,1-.17-2.25,3.48,3.48,0,0,1,.68-1.44,4.91,4.91,0,0,1,.32-.85c0-.11.11-.21.17-.32a6.91,6.91,0,0,1,.17-.76c.12-.34.27-.68.42-1s.1-.61.2-.91.17-.42.26-.63l0-.08,0-.05a14.79,14.79,0,0,1,.19-1.63c.09-.48.26-1,.36-1.43,0-.72.06-1.46.14-2.18s.25-1.51.38-2.26c0-.49,0-1,0-1.47s0-1,.07-1.52a29.32,29.32,0,0,1,.46-3.1c0-.33,0-.66,0-1a17.2,17.2,0,0,1,.46-4.23c.1-.34.22-.68.3-1s.11-.61.17-.92a19.22,19.22,0,0,1,.5-2c.38-1.27.7-2.57,1.19-3.8.28-.69.55-1.39.89-2.06.16-.31.36-.61.53-.92a6.11,6.11,0,0,1,.66-.94c.17-.23.34-.46.52-.68s.31-.33.46-.51a8.13,8.13,0,0,1,.83-.83c.57-.52,1.14-1,1.71-1.53s1.28-1.08,1.87-1.68c.3-.3.57-.64.85-1s.38-.43.57-.65c.27-.41.54-.82.78-1.24a4,4,0,0,0,.16-.49c0-.51,0-1,0-1.54a7.61,7.61,0,0,0,0-1.07.85.85,0,0,0,0-.17l-.11-.12c-.08,0-.15-.12-.23-.18a2.78,2.78,0,0,1-.71-.12c-.21-.07-.42-.16-.62-.25a3.07,3.07,0,0,1-.31-.17h-.88l0-2.43h.92a2.53,2.53,0,0,1,.72.08,4.79,4.79,0,0,1,.71.37,2,2,0,0,0,.35.09,2.53,2.53,0,0,1,.93.22,4.05,4.05,0,0,1,.57.43,2.63,2.63,0,0,1,.87,1,3.83,3.83,0,0,1,.32,1.26c.07.65.07,1.32.09,2a4.7,4.7,0,0,1-.14,1.67,8.07,8.07,0,0,1-.67,1.54,13.45,13.45,0,0,1-1.25,1.74l0,.05a1.71,1.71,0,0,1-.11.14,12.6,12.6,0,0,1-1.11,1.31c-.4.42-.82.83-1.22,1.25s-.76.82-1.13,1.23-.69.72-1,1.11l-.33.44c-.2.26-.37.55-.57.82a3.49,3.49,0,0,0-.46.77c-.12.29-.33.54-.46.84s-.17.37-.26.55c-.29.75-.54,1.52-.79,2.28-.13.41-.24.83-.37,1.24s-.25.79-.37,1.19-.25.92-.35,1.38-.15.85-.25,1.27-.25.85-.36,1.28-.14.62-.19.94c-.08.78-.1,1.57-.12,2.36a8.64,8.64,0,0,1-.1,1.44l-.15.69c-.07.34-.14.68-.19,1a27.76,27.76,0,0,0-.14,2.88,10.56,10.56,0,0,1-.18,1.86c-.09.43-.18.86-.26,1.29s-.07.67-.09,1a15.63,15.63,0,0,1-.12,1.68,9,9,0,0,1-.27,1c-.08.31-.15.61-.2.92s0,.38,0,.58a2.61,2.61,0,0,1-.15.92c-.06.15-.12.3-.19.44a2.9,2.9,0,0,0-.14.48,5.38,5.38,0,0,1-.22.9,5.53,5.53,0,0,0-.36,1.11.11.11,0,0,0,0,.05,2.4,2.4,0,0,1-.27,1l-.08.15c0,.08-.1.16-.14.24s-.06.25-.1.37a.24.24,0,0,1,0,.08c.73-.19,1.44-.48,2.18-.66.47-.1.92-.25,1.39-.38s.76-.2,1.13-.32.91-.27,1.36-.41.83-.29,1.25-.42c.88-.28,1.74-.62,2.6-.95.34-.14.68-.29,1-.42l.89-.4.34-.15,0,0,.24-.09,1.07-.47c.53-.24,1.08-.46,1.62-.69s.93-.39,1.4-.57l.81-.35.37-.16.83-.36c.56-.26,1.12-.52,1.69-.75l-.36.14,3-1.46c.57-.29,1.13-.61,1.68-.93s1-.55,1.55-.83,1.08-.53,1.62-.79a9.91,9.91,0,0,1,2.1-.81,9.1,9.1,0,0,0,1-.29c.29-.1.57-.21.86-.28a8.28,8.28,0,0,1,2.1-.21l1.67,0,.49,0a1.63,1.63,0,0,1,1,.44,1.84,1.84,0,0,1,.47.78c.06.18.08.36.14.53a5.59,5.59,0,0,1,.46,1.32c0,.25.08.5.11.75l-2,.21,0-.13v-.07a5,5,0,0,0-.21-.85l-.18-.4a1.85,1.85,0,0,1-.17-.5l-1,.05c-.42,0-.84.05-1.26.1a6.62,6.62,0,0,0-1.16.31c-.4.17-.8.34-1.21.48-.19.07-.4.1-.59.16l-.52.19c-2.08.95-4,2.24-6,3.35s-4.1,2.29-6.25,3.23l-.16.07c-1.09.47-2.15,1-3.22,1.53s-2.36,1.12-3.56,1.64l-.22.09c-.31.13-.62.27-.93.38l-2,.72c-.65.23-1.32.42-2,.63-.29.1-.59.17-.89.26l-1,.3c-.35.1-.72.16-1.07.26l-1,.32c-.3.09-.61.16-.91.22a4.54,4.54,0,0,1-1.16.13l-.49,0C231.77,187.87,231.47,187.86,231.18,187.83Z"/><path class="cls-18" d="M234.1,195.91l-.29.12h0Z"/><path class="cls-19" d="M220.21,150.73c.23.4.47.78.71,1.17l.37.56a4.94,4.94,0,0,0,.3.49,5.68,5.68,0,0,0,.49.59c.12.17.25.34.38.5a4.54,4.54,0,0,0,.6.5,2.64,2.64,0,0,0,1,.4,5.06,5.06,0,0,0,.78.12h.29a1.92,1.92,0,0,0,1.17-.48,3.08,3.08,0,0,0,.44-.37,3.44,3.44,0,0,0,.6-1,5.16,5.16,0,0,0,.25-1.3c.06-.54.07-1.08.08-1.63,0-1.19,0-2.38,0-3.57v-5.4c0-.31,0-.62,0-.93s0-.54,0-.82.2-.65.29-1a3.32,3.32,0,0,0,.13-.7s0-.06,0-.1v0h0a4.65,4.65,0,0,0,.37-.86,6.5,6.5,0,0,0,.18-1c.08-.28.19-.55.29-.83a4.87,4.87,0,0,0,.2-.92,18.9,18.9,0,0,0,.16-2.12c.08-.28.19-.56.27-.84s.11-.54.18-.81l.11-.19c.07-.16.13-.32.2-.47a3.53,3.53,0,0,1,.21-.32l.28-.28c.09-.09.17-.18.26-.26s.39-.37.6-.54l.65-.56c.26-.23.47-.48.73-.72.43-.35.82-.73,1.25-1.07l-.29.22a9,9,0,0,0,1-.91c.22-.22.46-.41.67-.63.44-.44.93-.84,1.41-1.24.21-.15.41-.31.61-.48.74-.58,1.45-1.19,2.18-1.77.57-.44,1.1-.92,1.66-1.35s1.13-1,1.7-1.43l.47-.38c-.13.38-.24.75-.35,1.13-.18.66-.44,1.31-.64,2s-.39,1.19-.62,1.77c-.32.73-.67,1.44-1,2.16h0c-.18.41-.37.82-.53,1.24a1,1,0,0,0,0,.1l-.05.12c-.25.55-.51,1.1-.72,1.66s-.44.93-.61,1.41a8.3,8.3,0,0,0-.36,1.85c-.05.53,0,1.06,0,1.59,0,.21,0,.43,0,.64s0,.2,0,.3a.76.76,0,0,0,0,.15,1.73,1.73,0,0,0,.19.74,1.8,1.8,0,0,0,1.14.91,3.58,3.58,0,0,0,.73.11c.34,0,.68,0,1,0h1.79a3.07,3.07,0,0,0,.31.17c.2.09.41.18.62.25a2.78,2.78,0,0,0,.71.12c.08.06.15.13.23.18l.11.12a.85.85,0,0,1,0,.17,7.61,7.61,0,0,1,0,1.07c0,.51,0,1,0,1.54a4,4,0,0,1-.16.49c-.24.42-.51.83-.78,1.24-.19.22-.39.43-.57.65s-.55.66-.85,1c-.59.6-1.25,1.12-1.87,1.68s-1.14,1-1.71,1.53a8.13,8.13,0,0,0-.83.83c-.15.18-.3.34-.46.51s-.35.45-.52.68a6.11,6.11,0,0,0-.66.94c-.17.31-.37.61-.53.92-.34.67-.61,1.37-.89,2.06-.49,1.23-.81,2.53-1.19,3.8a19.22,19.22,0,0,0-.5,2c-.06.31-.1.62-.17.92s-.2.69-.3,1A17.2,17.2,0,0,0,233,164c0,.32,0,.65,0,1a29.32,29.32,0,0,0-.46,3.1c0,.5-.05,1-.07,1.52s0,1,0,1.47c-.13.75-.28,1.5-.38,2.26s-.1,1.46-.14,2.18c-.1.48-.27.95-.36,1.43a14.79,14.79,0,0,0-.19,1.63l0,.05,0,.08c-.09.21-.18.42-.26.63s-.12.62-.2.91-.3.67-.42,1a6.91,6.91,0,0,0-.17.76c-.06.11-.12.21-.17.32a4.91,4.91,0,0,0-.32.85,3.48,3.48,0,0,0-.68,1.44,3.4,3.4,0,0,0,.17,2.25,2.07,2.07,0,0,0,1.19.88,5.85,5.85,0,0,0,.73.12c.29,0,.59,0,.89,0l.49,0a4.54,4.54,0,0,0,1.16-.13c.3-.06.61-.13.91-.22l1-.32c.35-.1.72-.16,1.07-.26l1-.3c.3-.09.6-.16.89-.26.66-.21,1.33-.4,2-.63l2-.72c.31-.11.62-.25.93-.38l.22-.09c1.2-.52,2.38-1.07,3.56-1.64s2.13-1.06,3.22-1.53l.16-.07c2.15-.94,4.2-2.1,6.25-3.23s3.92-2.4,6-3.35l.52-.19c.19-.06.4-.09.59-.16.41-.14.81-.31,1.21-.48a6.62,6.62,0,0,1,1.16-.31c.42,0,.84-.08,1.26-.1l1-.05a1.85,1.85,0,0,0,.17.5l.18.4a5,5,0,0,1,.21.85v.07a9.18,9.18,0,0,1,0,1.74,9.19,9.19,0,0,1-.85.52c-.36.2-.71.42-1.06.64-.69.43-1.36.91-2,1.37-1.41,1-2.75,2-4.06,3.08l-.7.52-.51.39a12.84,12.84,0,0,1-1.14.79c-.38.24-.78.45-1.16.69-.9.58-1.82,1.13-2.77,1.63s-1.93.94-2.89,1.43c-.47.23-.93.46-1.39.71-.25.14-.52.25-.77.38a8.69,8.69,0,0,1-.86.44c-.39.17-.76.36-1.13.53s-.48.16-.71.26-.65.29-1,.44-.77.34-1.15.51l.15-.06c-.27.11-.53.23-.79.36l-.19.08-1.2.5c-.37.15-.75.29-1.12.46s-.48.22-.72.33c-.45.17-.9.35-1.34.54a4.56,4.56,0,0,1-.52.18,5.2,5.2,0,0,0-.77.32l-.6.21a6.32,6.32,0,0,0-.62.18l-.48.2c-.3.12-.6.22-.9.35s-.58.29-.87.42-.82.4-1.24.58h0l0,0a5.75,5.75,0,0,0-.77.42,4.37,4.37,0,0,1-.43.22c-.18.08-.34.2-.51.29s-.6.36-.9.54l-.79.46c-.54.32-1.07.67-1.59,1a14.4,14.4,0,0,0-1.8,1.42,13.89,13.89,0,0,0-2.84,3.58,11.27,11.27,0,0,0-.82,2.23c-.2.68-.4,1.35-.53,2a17.76,17.76,0,0,0-.29,2.42c0,.74,0,1.48-.09,2.21s-.23,1.35-.32,2-.14,1.31-.17,2c-.08,1.4-.07,2.8,0,4.2q.06,3.65.09,7.29v0H220.9a2.54,2.54,0,0,0-.94.19c-.31.1-.64.16-1,.27l-1.55.5s0,0,0,0c-.07-1-.13-2-.27-3.05-.11-.78-.27-1.55-.38-2.34s-.12-1.41-.14-2.13a18.91,18.91,0,0,0-.39-2.58c-.08-.74-.11-1.47-.12-2.21a19.61,19.61,0,0,0-.4-2.61,18.16,18.16,0,0,0-.21-1.95c-.12-.63-.25-1.25-.35-1.89a52.64,52.64,0,0,1-.27-5.48c0-1,0-2,0-2.94s-.06-1.82,0-2.72c.08-.58.18-1.16.26-1.74s.13-1.16.17-1.74.24-1.11.32-1.67c.12-.78.2-1.55.27-2.34.12-.6.32-1.17.43-1.77a8.66,8.66,0,0,1,.34-1.13c.11-.34.2-.7.33-1s.15-.37.22-.56.15-.47.23-.7l.3-.68c.1-.2.22-.39.34-.58s.25-.47.38-.71.35-.64.53-.95.35-.62.53-.91l.61-1c.19-.32.4-.63.59-.95s.39-.61.58-.91.33-.59.51-.87a5.41,5.41,0,0,0,.49-.92l.3-.52a4.35,4.35,0,0,0,.27-.58,15.12,15.12,0,0,0,.78-1.74c.08-.17.17-.34.26-.51s.23-.62.35-.93a10.28,10.28,0,0,0,.51-1.34A8.82,8.82,0,0,0,225,171c0-.47.06-.95.07-1.42a6.76,6.76,0,0,0-.09-1.35c0-.28-.1-.56-.15-.83-.09-.49-.26-1-.38-1.44s-.28-.9-.42-1.36c-.32-1-.66-2-1-2.9l-.12-.29c-.14-.37-.27-.73-.43-1.09s-.2-.43-.31-.65c-.17-.43-.37-.84-.57-1.26s-.23-.68-.36-1l-.21-.56c-.1-.3-.23-.6-.36-.89-.19-.52-.3-1.07-.47-1.6a11.7,11.7,0,0,1-.45-1.74,6.74,6.74,0,0,0-.17-1c0-.18-.12-.37-.17-.56s-.14-.66-.19-1-.08-.76-.1-1.14l.31.53C219.68,149.86,220,150.29,220.21,150.73Z"/><path class="cls-20" d="M220.75,181c-.19.32-.4.63-.59.95l-.61,1c-.18.29-.35.6-.53.91s-.35.64-.53.95-.24.48-.38.71-.24.38-.34.58l-.3.68c-.08.23-.14.47-.23.7s-.15.37-.22.56-.22.69-.33,1a8.66,8.66,0,0,0-.34,1.13c-.11.6-.31,1.17-.43,1.77-.07.79-.15,1.56-.27,2.34-.08.56-.22,1.12-.32,1.67s-.1,1.16-.17,1.74-.18,1.16-.26,1.74c-.07.9,0,1.82,0,2.72s0,2,0,2.94a52.64,52.64,0,0,0,.27,5.48c.1.64.23,1.26.35,1.89a18.16,18.16,0,0,1,.21,1.95,19.61,19.61,0,0,1,.4,2.61c0,.74,0,1.47.12,2.21a18.91,18.91,0,0,1,.39,2.58c0,.72.06,1.43.14,2.13s.27,1.56.38,2.34c.14,1,.2,2,.27,3.05,0,0,0,0,0,0l1.55-.5c.31-.11.64-.17,1-.27a2.54,2.54,0,0,1,.94-.19H222v0q0-3.65-.09-7.29c0-1.4,0-2.8,0-4.2,0-.66.09-1.32.17-2s.22-1.35.32-2,.06-1.47.09-2.21a17.76,17.76,0,0,1,.29-2.42c.13-.69.33-1.36.53-2a11.27,11.27,0,0,1,.82-2.23,13.89,13.89,0,0,1,2.84-3.58,14.4,14.4,0,0,1,1.8-1.42c.52-.34,1.05-.69,1.59-1l.79-.46c.3-.18.59-.38.9-.54s.33-.21.51-.29a4.37,4.37,0,0,0,.43-.22,5.75,5.75,0,0,1,.77-.42l0,0,.29-.12-.28.11c.42-.18.82-.4,1.24-.58s.57-.29.87-.42.6-.23.9-.35l.48-.2a6.32,6.32,0,0,1,.62-.18l.6-.21a5.2,5.2,0,0,1,.77-.32,4.56,4.56,0,0,0,.52-.18c.44-.19.89-.37,1.34-.54.24-.11.47-.23.72-.33s.75-.31,1.12-.46l1.2-.5.19-.08c.26-.13.52-.25.79-.36l-.15.06c.38-.17.76-.35,1.15-.51s.65-.31,1-.44.47-.17.71-.26.74-.36,1.13-.53a8.69,8.69,0,0,0,.86-.44c.25-.13.52-.24.77-.38.46-.25.92-.48,1.39-.71,1-.49,1.93-.94,2.89-1.43s1.87-1,2.77-1.63c.38-.24.78-.45,1.16-.69a12.84,12.84,0,0,0,1.14-.79l.51-.39.7-.52c1.31-1.08,2.65-2.13,4.06-3.08.66-.46,1.33-.94,2-1.37.35-.22.7-.44,1.06-.64a9.19,9.19,0,0,0,.85-.52,9.18,9.18,0,0,0,0-1.74l0,.13,2-.21a6,6,0,0,1,.06.61c0,.29,0,.59,0,.89a2.87,2.87,0,0,1,0,1,2.11,2.11,0,0,1-.7,1,8.09,8.09,0,0,1-.77.53c-.41.24-.82.48-1.22.74-.8.52-1.56,1.12-2.32,1.7l-1.92,1.57c-.65.54-1.26,1.13-1.94,1.64l-.5.41a0,0,0,0,1,0,0l0,0s0,0,0,0l-.06,0a0,0,0,0,0,0,0,17.62,17.62,0,0,1-2.57,1.79c-.53.3-1,.65-1.57,1s-.88.53-1.34.77c-1,.52-2,1-3.07,1.53s-2,1.09-3.11,1.55c-.35.17-.69.35-1,.5s-.68.26-1,.39-.74.35-1.12.5l-.77.35c-.54.26-1.08.5-1.64.71s-.9.39-1.36.56c-.23.11-.47.23-.71.33s-.64.26-.95.39-.64.3-1,.43l-.55.2-.62.29c-.39.16-.78.27-1.17.41s-.65.29-1,.42l-.38.19a7,7,0,0,1-.74.33l-1.1.52c-.23.11-.44.25-.67.38s-.5.26-.74.4-.52.29-.78.45-.4.24-.6.36c-.43.25-.84.53-1.25.79s-.86.54-1.27.84a13.84,13.84,0,0,0-1.08.95c-.36.37-.7.76-1,1.16a12.27,12.27,0,0,0-1.09,1.76c-.23.63-.39,1.27-.57,1.91a14.64,14.64,0,0,0-.43,1.94c-.1.93-.15,1.86-.18,2.79a24,24,0,0,1-.4,2.93,37.65,37.65,0,0,0-.21,3.83c0,2.52-.09,5.05-.11,7.57,0,.58,0,1.16,0,1.74,0,.21,0,.42,0,.63a1.84,1.84,0,0,1-.62,1.43,2,2,0,0,1-.77.46l-.26,0c-.27,0-.53.07-.8.09L221,231h0l-.11,0c-.21.09-.43.18-.65.25s-.4.12-.6.2l-1.3.46c-.44.16-.88.27-1.31.42s-1,.39-1.57.54a1.41,1.41,0,0,1-1.73-1,1.43,1.43,0,0,1,1-1.74l.4-.13a1.49,1.49,0,0,1-.27-.78c-.05-.76-.09-1.54-.18-2.3s-.33-1.81-.47-2.72-.2-1.82-.26-2.73c-.12-.68-.32-1.34-.42-2-.13-.9-.18-1.79-.24-2.69-.1-.58-.25-1.16-.34-1.75s-.15-1.19-.2-1.79l0-.18a24.62,24.62,0,0,1-.54-4.1c0-1.28,0-2.57,0-3.84l0-3.94c0-.63,0-1.26,0-1.88s.2-1.34.31-2c0,0,0-.06,0-.09.08-.75.12-1.52.26-2.26s.25-1.22.34-1.83c0-.21.05-.42.07-.63a11.06,11.06,0,0,1,.16-1.41c.11-.45.26-.89.35-1.34a5.86,5.86,0,0,1,.23-.94c.07-.19.14-.39.2-.58s.16-.63.29-.93l.21-.51c.15-.4.26-.82.44-1.2l.27-.6a5.85,5.85,0,0,1,.43-.82c.14-.23.25-.47.38-.7s.42-.74.64-1.11.4-.67.6-1,.47-.68.68-1c.43-.69.9-1.35,1.32-2a10.23,10.23,0,0,0,.62-1c.1-.2.19-.41.31-.61a4.83,4.83,0,0,0,.32-.59c0,.1-.08.2-.12.3.2-.48.45-.94.67-1.41a7.22,7.22,0,0,1,.37-.91c.06-.13.13-.25.19-.38.1-.29.2-.59.33-.88,0-.08.07-.15.1-.23a6.82,6.82,0,0,0,.28-1c0-.37.05-.73.06-1.09s0-1,0-1.51a14.1,14.1,0,0,0-.43-1.7c-.15-.47-.26-.95-.44-1.42-.36-.92-.68-1.86-1.05-2.79-.2-.45-.4-.9-.58-1.36-.1-.2-.21-.39-.3-.6s-.19-.41-.27-.62a11.25,11.25,0,0,1-.75-1.66c-.14-.46-.35-.9-.52-1.34a12.39,12.39,0,0,1-.52-1.26c-.12-.37-.2-.75-.32-1.12s-.26-.75-.36-1.14-.15-.85-.21-1.28-.24-.86-.34-1.3a11.7,11.7,0,0,1-.21-1.32q-.12-1.14-.15-2.28c0-.35,0-.7,0-1.05a2.06,2.06,0,0,1,.58-1.43,2.23,2.23,0,0,1,1-.57l.24-.06a2.22,2.22,0,0,1,.89,0,2.31,2.31,0,0,1,1.3.65,10.86,10.86,0,0,1,.88,1l-.23-.3a10.31,10.31,0,0,1,.65.83c.14.22.27.44.42.65l.43.68c.13.2.28.39.41.59.26.4.54.79.79,1.2.12.18.22.37.35.54s.24.37.36.56l.3.31.06.08c.1-1.14.07-2.3.08-3.44v-4c0-1.29,0-2.57,0-3.85a5.25,5.25,0,0,1,.14-1.63c.1-.31.21-.61.31-.92a5.44,5.44,0,0,0,.15-.7,3.16,3.16,0,0,1,.4-1,3.18,3.18,0,0,0,.13-.51,2.93,2.93,0,0,1,.16-.77c.06-.15.13-.31.18-.47a5.54,5.54,0,0,0,.21-.8c0-.35.06-.69.07-1s0-.45,0-.68a3.44,3.44,0,0,1,.22-1c.11-.35.21-.69.29-1.05a4.47,4.47,0,0,1,.46-1.13,1.89,1.89,0,0,1,.18-.41c.08-.12.17-.23.25-.34s.23-.33.36-.48l.5-.48c.23-.22.46-.43.7-.63a9.86,9.86,0,0,0,.79-.66c.16-.14.3-.3.45-.45a5.71,5.71,0,0,1,.47-.39c.39-.32.76-.67,1.14-1s1-.94,1.49-1.38,1.09-1,1.66-1.38l.68-.52c.72-.59,1.42-1.2,2.16-1.75,1.1-.87,2.13-1.82,3.24-2.67l.91-.7.65-.5a17.28,17.28,0,0,1,1.67-1.29,2.15,2.15,0,0,1,1.1-.36h0a1.43,1.43,0,0,1,1.18.7,2.51,2.51,0,0,1,0,1.94c-.31,1.2-.74,2.36-1.1,3.55-.09.29-.16.6-.26.89s-.19.55-.29.82c-.18.55-.36,1.1-.56,1.65-.09.25-.16.5-.26.74s-.28.65-.42,1c-.22.52-.49,1-.71,1.53-.13.3-.26.6-.4.9-.21.51-.44,1-.66,1.53s-.41,1-.64,1.49a6.74,6.74,0,0,0-.36,1.26c-.05.51-.07,1-.09,1.55,0,.18,0,.36,0,.55.44,0,.89,0,1.34,0l0,2.43h-.91c-.33,0-.67,0-1,0a3.58,3.58,0,0,1-.73-.11,1.8,1.8,0,0,1-1.14-.91,1.73,1.73,0,0,1-.19-.74.76.76,0,0,1,0-.15c0-.1,0-.2,0-.3s0-.43,0-.64c0-.53,0-1.06,0-1.59a8.3,8.3,0,0,1,.36-1.85c.17-.48.4-.94.61-1.41s.47-1.11.72-1.66l.05-.12a1,1,0,0,1,0-.1c.16-.42.35-.83.53-1.24h0c.31-.72.66-1.43,1-2.16.23-.58.44-1.18.62-1.77s.46-1.31.64-2c.11-.38.22-.75.35-1.13l-.47.38c-.57.47-1.11,1-1.7,1.43s-1.09.91-1.66,1.35c-.73.58-1.44,1.19-2.18,1.77-.2.17-.4.33-.61.48-.48.4-1,.8-1.41,1.24-.21.22-.45.41-.67.63a9,9,0,0,1-1,.91L234,126c-.43.34-.82.72-1.25,1.07-.26.24-.47.49-.73.72l-.65.56c-.21.17-.4.36-.6.54s-.17.17-.26.26l-.28.28a3.53,3.53,0,0,0-.21.32c-.07.15-.13.31-.2.47l-.11.19c-.07.27-.1.55-.18.81s-.19.56-.27.84a18.9,18.9,0,0,1-.16,2.12,4.87,4.87,0,0,1-.2.92c-.1.28-.21.55-.29.83a6.5,6.5,0,0,1-.18,1,4.65,4.65,0,0,1-.37.86h0v0s0,.07,0,.1a3.32,3.32,0,0,1-.13.7c-.09.33-.2.66-.29,1s0,.55,0,.82,0,.62,0,.93v5.4c0,1.19,0,2.38,0,3.57,0,.55,0,1.09-.08,1.63a5.16,5.16,0,0,1-.25,1.3,3.44,3.44,0,0,1-.6,1,3.08,3.08,0,0,1-.44.37,1.92,1.92,0,0,1-1.17.48h-.29a5.06,5.06,0,0,1-.78-.12,2.64,2.64,0,0,1-1-.4,4.54,4.54,0,0,1-.6-.5c-.13-.16-.26-.33-.38-.5a5.68,5.68,0,0,1-.49-.59,4.94,4.94,0,0,1-.3-.49l-.37-.56c-.24-.39-.48-.77-.71-1.17s-.53-.87-.79-1.31l-.31-.53c0,.38.06.76.1,1.14s.11.67.19,1,.12.38.17.56a6.74,6.74,0,0,1,.17,1,11.7,11.7,0,0,0,.45,1.74c.17.53.28,1.08.47,1.6.13.29.26.59.36.89l.21.56c.13.33.24.67.36,1s.4.83.57,1.26c.11.22.22.43.31.65s.29.72.43,1.09l.12.29c.39.95.73,1.92,1,2.9.14.46.3.9.42,1.36s.29.95.38,1.44c0,.27.11.55.15.83a6.76,6.76,0,0,1,.09,1.35c0,.47,0,.95-.07,1.42a8.82,8.82,0,0,1-.24,1.7,10.28,10.28,0,0,1-.51,1.34c-.12.31-.2.63-.35.93s-.18.34-.26.51a15.12,15.12,0,0,1-.78,1.74,4.35,4.35,0,0,1-.27.58l-.3.52a5.41,5.41,0,0,1-.49.92c-.18.28-.33.58-.51.87S220.93,180.68,220.75,181Z"/></svg>