<svg id="Layer_1" data-name="Layer 1" xmlns="http://www.w3.org/2000/svg" viewBox="0 0 344.75 348.12"><defs><style>.cls-1{fill:#92a5c4;}</style></defs><polygon class="cls-1" points="216.6 0 166.7 6.66 133.88 45.79 131.91 31.33 115.93 33.06 101.32 65.58 101.33 65.55 96.07 77.54 94 78.38 94.01 78.38 92.28 75.81 92.39 74.6 92.38 74.63 94.23 66.74 90.14 62.38 73.77 63.28 73.78 63.28 70.53 59.18 65.52 60.01 51.73 79.08 50.43 79.5 49.97 78.29 49.97 78.31 48.62 76.19 39.67 76.73 31.05 85.41 30.04 90.62 30.04 90.62 24.47 103.85 24.49 103.79 20.29 115.69 16.11 118.67 11.22 110.8 8.21 110.27 0 114.37 16.95 289.99 205.64 348.12 206.01 347.62 247.32 343.84 262.58 328.89 227.69 312.19 226.61 309.55 290.96 242.24 290.87 242.31 308.89 223.52 308.84 223.55 344.75 171.28 339.57 164.84 309.58 169.63 260.94 219.95 261 219.9 237.23 233.8 236.96 230.86 258.12 212.64 258.13 212.64 259.83 211.07 259.67 211.2 260.85 210.11 260.8 210.15 278.78 193.28 278.7 193.33 292.82 179.45 292.74 179.51 317.46 159.43 317.39 156.41 312.97 152.94 316.28 143.4 314.31 141.06 252.6 180.09 248.18 179.66 247.66 179 255.74 169.3 255.65 169.36 309.81 88.47 309.65 88.6 319.89 46.51 314.05 42.41 297.19 45.83 254.88 95.3 254.5 95.14 254.51 95.14 283.89 14.22 282.06 10.76 264.48 10.17 264.5 10.17 238.95 39.14 241.57 6.41 238.53 4.07 226.33 5.69 225.34 1.64 216.6 0 216.6 0 216.6 0 216.6 0"/></svg>