<svg id="Layer_1" data-name="Layer 1" xmlns="http://www.w3.org/2000/svg" xmlns:xlink="http://www.w3.org/1999/xlink" viewBox="0 0 245.96 263.18"><defs><style>.cls-1{fill:url(#radial-gradient);}</style><radialGradient id="radial-gradient" cx="57.4" cy="194.34" r="98.14" gradientUnits="userSpaceOnUse"><stop offset="0" stop-color="#6b8c9c"/><stop offset="0.5" stop-color="#86adc2"/><stop offset="1" stop-color="#a6c3e1"/></radialGradient></defs><polygon class="cls-1" points="57.8 20.57 57.8 20.57 69.39 25 79.79 44.11 88.19 48.19 104.79 83.15 104.79 82.61 104.81 83.17 120.64 97.48 107.8 19.66 111.73 13.57 112.97 13.21 114.51 13.85 115.02 14.68 114.86 16.64 113.96 16.61 132.49 100.9 130.22 104.97 139.35 117.76 139.36 120.23 131.78 124.98 131.63 125.53 133.35 129.92 148.76 115.04 151.72 115.58 168.04 95.26 150.54 54.64 150.34 54.7 129.19 30.66 128.08 13.02 129.41 12.39 134.13 21.68 133.32 22.34 133.32 22.39 134.91 22.73 134.91 23.11 134.16 23.16 134.43 27.15 146.35 38.69 142.14 1.63 143.05 0.12 144.16 0 148.22 7 147.96 6.71 149.87 10.59 149.17 14.33 150.76 15.15 150.76 15.96 150.35 16.17 156.24 28.3 161.66 6.24 157.97 2.02 158.57 0.69 160.05 0.54 169.23 9.76 169.07 12.01 167.32 13.6 167.19 13.6 167.42 13.3 160.14 36.08 158.68 36.72 158.68 36.76 160.27 36.89 158.74 42.96 171.97 73.09 172.99 68.46 180.05 65.55 183.25 23.45 186.74 21.44 188.25 10.98 191.99 8.85 200.52 20.26 191.91 69.16 186.93 73.33 187.85 82.9 183.87 87.94 184.28 98.6 175.29 104.18 175.37 116.93 168.01 118.21 167.94 116.62 163.71 117.47 136.22 148.54 139.13 160.52 135.13 164.78 136.12 176.64 133.76 180.24 135.85 192.86 132.14 196.36 134.09 206.21 159.37 176.73 162.31 130.56 164.64 128.79 165.93 129 167.06 130.84 166.61 131.36 173.77 146.21 172.3 152.67 223.09 89.45 226.72 90.05 228.12 94.36 213.48 129.36 207.09 131.03 209.21 144.33 194.02 151.37 193.6 153.22 197.28 153.68 201.59 150.48 216.6 153.09 221.53 147.1 228.23 145.45 229.29 146.74 229.73 145.15 230.01 146.74 230.71 145.15 234.94 144.78 238.9 134.72 238.97 134.71 245.96 143.78 242.22 159.06 225.22 169.45 205.1 167.34 205.18 167.34 184.27 166.83 183.47 172.46 177.77 176.73 177 184.52 138.55 211.22 125.45 262.95 124.31 263.18 122.25 261.41 122.2 251.28 120.64 251 122.23 250.73 121.82 245.03 72.87 208.83 71.96 209.56 47.75 205.04 38.65 209.04 21.19 202.41 21.36 202.45 4.84 204.12 0 194.04 1.18 192.16 10.06 193.3 16.39 188.03 34.92 192.35 36.9 189.54 49.24 192.74 8.19 141.91 8.34 140.57 9.33 139.52 10.77 139.74 64.55 195.73 68.06 195.59 68.1 195.87 67.82 195.88 117.49 233.91 117.24 209.97 93.38 193.54 92.93 191.25 84.97 185.54 85 185.55 75 177.58 73.22 169.52 75.29 168.17 118.56 200.92 84.74 158.1 36.04 143.79 37.11 139.35 41.13 137.19 76.38 148.16 60.29 113.9 63.27 104.95 67.84 105.05 88.8 131.43 88.94 133.69 88.94 133.67 88.82 136.9 90.37 139.19 91.56 100.18 92.52 100.04 102.22 155.13 102.15 155.14 121.37 180.26 124.19 177.67 112.89 146.25 120.67 137.13 117.55 114.37 82.03 84.89 31.54 90.37 28.43 95.25 20.03 91.21 17.41 82.38 46.04 77.86 19.12 54.34 19.28 51.22 27.84 50.44 42.19 61.25 36.85 31.22 37.86 30.3 44.02 34.98 50.9 58.65 52.48 58.91 50.9 59.18 50.97 61.94 68 76.63 83.83 75.17 56.62 21.68 57.8 20.57 57.8 20.57 57.8 20.57 57.8 20.57 57.8 20.57"/></svg>