<svg id="Layer_1" data-name="Layer 1" xmlns="http://www.w3.org/2000/svg" xmlns:xlink="http://www.w3.org/1999/xlink" viewBox="0 0 700 700"><defs><style>.cls-1{fill:url(#radial-gradient);}.cls-2{fill:url(#radial-gradient-2);}.cls-3{fill:url(#radial-gradient-3);}.cls-4{fill:url(#radial-gradient-4);}.cls-5{fill:url(#radial-gradient-5);}.cls-6{fill:url(#radial-gradient-6);}.cls-7{fill:url(#radial-gradient-7);}.cls-8{fill:url(#radial-gradient-8);}.cls-9{fill:url(#radial-gradient-9);}.cls-10{fill:url(#radial-gradient-10);}.cls-11{fill:url(#radial-gradient-11);}.cls-12{fill:url(#radial-gradient-12);}.cls-13{fill:url(#radial-gradient-13);}.cls-14{fill:url(#radial-gradient-14);}.cls-15{fill:url(#radial-gradient-15);}.cls-16{fill:url(#radial-gradient-16);}.cls-17{fill:url(#radial-gradient-17);}.cls-18{fill:url(#radial-gradient-18);}.cls-19{fill:url(#radial-gradient-19);}.cls-20{fill:url(#radial-gradient-20);}.cls-21{fill:url(#radial-gradient-21);}.cls-22{fill:url(#radial-gradient-22);}.cls-23{fill:url(#radial-gradient-23);}</style><radialGradient id="radial-gradient" cx="288.1" cy="395.53" r="70.31" gradientUnits="userSpaceOnUse"><stop offset="0" stop-color="#949298"/><stop offset="0.1" stop-color="#9a9d9a"/><stop offset="0.5" stop-color="#b1caa0"/><stop offset="1" stop-color="#aec9a8"/></radialGradient><radialGradient id="radial-gradient-2" cx="321.06" cy="336.68" r="0.72" xlink:href="#radial-gradient"/><radialGradient id="radial-gradient-3" cx="401.46" cy="369.4" r="70.78" xlink:href="#radial-gradient"/><radialGradient id="radial-gradient-4" cx="381.93" cy="371.4" r="2.76" xlink:href="#radial-gradient"/><radialGradient id="radial-gradient-5" cx="219.77" cy="356.49" r="2.63" xlink:href="#radial-gradient"/><radialGradient id="radial-gradient-6" cx="218.85" cy="350.51" r="4.26" xlink:href="#radial-gradient"/><radialGradient id="radial-gradient-7" cx="327.44" cy="377.9" r="1.58" xlink:href="#radial-gradient"/><radialGradient id="radial-gradient-8" cx="344.74" cy="410.96" r="1.37" xlink:href="#radial-gradient"/><radialGradient id="radial-gradient-9" cx="219.46" cy="349.13" r="1.35" xlink:href="#radial-gradient"/><radialGradient id="radial-gradient-10" cx="407.57" cy="353.23" r="61.26" xlink:href="#radial-gradient"/><radialGradient id="radial-gradient-11" cx="437.87" cy="283.77" r="1.72" xlink:href="#radial-gradient"/><radialGradient id="radial-gradient-12" cx="447.61" cy="285.31" r="2.7" xlink:href="#radial-gradient"/><radialGradient id="radial-gradient-13" cx="404.96" cy="338.24" r="68.1" xlink:href="#radial-gradient"/><radialGradient id="radial-gradient-14" cx="277.39" cy="327.61" r="60.43" xlink:href="#radial-gradient"/><radialGradient id="radial-gradient-15" cx="329.75" cy="456.39" r="125.23" xlink:href="#radial-gradient"/><radialGradient id="radial-gradient-16" cx="328.81" cy="377.82" r="2.41" xlink:href="#radial-gradient"/><radialGradient id="radial-gradient-17" cx="279.36" cy="329.46" r="54.58" xlink:href="#radial-gradient"/><radialGradient id="radial-gradient-18" cx="284.15" cy="272.14" r="5.76" xlink:href="#radial-gradient"/><radialGradient id="radial-gradient-19" cx="390.18" cy="276.38" r="5.03" xlink:href="#radial-gradient"/><radialGradient id="radial-gradient-20" cx="358.21" cy="264.1" r="58.34" xlink:href="#radial-gradient"/><radialGradient id="radial-gradient-21" cx="350.74" cy="273.02" r="42.62" xlink:href="#radial-gradient"/><radialGradient id="radial-gradient-22" cx="388.05" cy="273.63" r="9.04" xlink:href="#radial-gradient"/><radialGradient id="radial-gradient-23" cx="307.64" cy="357.35" r="96.69" xlink:href="#radial-gradient"/></defs><path class="cls-1" d="M293.65,322.52,270,346l-1.77.46-.81-.14-13.54-10.86-31.86,15.82-1.44,4.86,2.1.32,24.47-15.92,16.21,12.6,5.42,1.23,13.24-8.78-.08.07,0,0,0,0,0,0,0,0,11.34-14.84,8.53-1.88,6.88,2.53,4.91,5.58.29,9.75-17.34,31-.65,9.6,5.07,6.9,23.29-.85,1.14,38.42L343,452.24l0-.05.21.31-.06-.08.05.09v0L346,465.05l-.58,2.35,2.58,1.15,1.74-.75-.2.07.08,0-.08,0,6.07-2.36-2.24-17.08-.62.18-1.49-1.15-.25-2.57-.05,0h0l0,0h0l-.29-.42,0,0h0v0h0v0h0l-14.43-12.22-3.74-8.85,1.4-23L327,385.23l-21.35,1.07-.36-.15-1.53-4.21,17.19-33.64-11.09-24.52-16.17-1.26Zm23.13,70.18h0Z"/><polygon class="cls-2" points="320.89 336.15 321.31 337.67 320.82 335.68 320.89 336.15 320.89 336.15 320.89 336.15 320.89 336.15"/><path class="cls-3" d="M438.61,284l-2.07.32L423,295.66l-3.87,8.6-2.35,2-1.14.21-7-1.94-18.1,26.87.92,1.29,1.35,12.4,13,6.81-.76,11.19-2,2.58-15,.46-.27.61,0,0v0l0,0-7.4,23.26,6.15,11.32-2.8,16-2.12,1.78-15.43-3.66-6.74,9-.38-.06-.86-.68-.13-1.07,1.13-3.29,0,.05v0l0,0v0l0,0,.87-1.92-6.5,23.77v0l0,0v0h.05l.46,5.58-1,1.78-.38.09-1.49-1.15-.15-1.07-1.93,5.31,1.74,3.06L354,453l.56-1.94v0l10.38-29.34L381,425l7.22-3.92,5.14-20.21-1.23-3.57.05.17,0-.05,0,.05-6.48-15.23.26-5.48,2.64-4.07,15.61-1,5.54-4.73,2.81-14.65-1.92-5.23-14.41-7.9-.32-1,9.89-27.06,2.23-.55,7.52,1.82,7-3.12,11.91-16.93,6.73-1.82,7.5,2.33,5-1.17-1.2-1.15.13-3.28L438.61,284ZM406.14,353.4l0,.17,0-.17Z"/><polygon class="cls-4" points="381.86 370.96 379.75 374.64 381.29 374.18 381.78 374.25 384.12 368.16 381.86 370.96 381.86 370.96 381.86 370.96 381.86 370.96"/><polygon class="cls-5" points="220.32 355.15 218.52 355.89 217.34 355.57 216.82 358.48 216.82 358.45 219.54 358.77 222.71 356.44 220.61 356.12 220.99 354.22 220.32 355.15 220.32 355.15 220.32 355.15 220.32 355.15"/><polygon class="cls-6" points="218 345.57 216.15 354.05 217.88 355.79 218.52 355.89 220.32 355.15 221.56 352.61 221.53 352.64 220.5 352.06 218.19 345.14 218 345.57 218 345.57 218 345.57 218 345.57"/><polygon class="cls-7" points="327.36 376.49 326.84 376.54 325.77 377.96 326.86 379.38 329.1 379.16 327.46 376.41 327.36 376.49 327.36 376.49 327.36 376.49 327.36 376.49"/><path class="cls-8" d="M343.83,411.48l.06.68.63.51h.54l.58-.37h0v0h0l-1-3-.81,2.23Zm1.8.79h0Z"/><polygon class="cls-9" points="218.73 348.4 220.14 350.86 220.19 350.89 218.94 347.37 218.73 348.4 218.73 348.4 218.73 348.4 218.73 348.4"/><polygon class="cls-10" points="438.83 282.06 435.25 282.31 426.09 288.19 426.23 288.15 426.17 288.18 426.24 288.16 417.61 294.38 417.99 294.16 417.86 294.25 418 294.18 396.03 312.11 388.99 331 387.6 331.64 384.14 368.14 384.12 368.16 381.78 374.25 379.75 374.64 369.38 400.53 369.47 400.45 369.46 400.48 369.49 400.46 359.24 419.36 359.32 419.26 358.17 422.58 358.29 423.66 359.15 424.34 359.53 424.4 366.27 415.39 381.7 419.05 383.82 417.27 387.32 407.16 380.47 389.93 384.02 376.27 383.46 375.19 387.87 366.67 387.79 366.76 388.13 366.07 403.11 365.64 405.07 363.06 405.83 351.87 392.8 345.06 390.85 331.63 390.53 331.37 408.63 304.5 416.07 306.43 436.54 284.37 436.24 283.39 452.67 287.23 452.68 287.22 456.54 286.64 456.97 285.61 456.96 285.43 456.95 285.46 456.54 284.58 438.83 282.06 438.83 282.06 438.83 282.06 438.83 282.06"/><path class="cls-11" d="M438.47,282.87l-2.57.73-.23.89.89.23,1.56-.36,1.15.42.81-.34v-1.28l-1-.41-.61.12Zm-.21,1.33,0,.05,0-.05Z"/><path class="cls-12" d="M444.18,284.1l.06.5,5.7,2.4,1-.4.11-.44-.25-.61-6-1.93-.61.48Zm.59.85h0Z"/><path class="cls-13" d="M420.63,263.82l-11.12.51h0l-6.55,3.1,4.91-1.35,1.56,1.16-.73,1.81-15.25,8.34-2.05,15.08-2.64,3.77-10.33,3.88-5.84,7.5-.77,4.22,0-.18v.05l0-.05-1.17,5.81L364,319.39l-8.14,8.86,1.82,34-11.85,15.52,3.57,17.81-4.77,13.47,0,.11-.85,2.32.06.68.63.51h.54l.58-.37h0v0l4.34-9.78-.07.13,2.52-7.76L349.51,378l13.57-15.17.31-35.79,1.51-1.59,9.82-3.3L380,307.05l14.72-7.49,5.21-18.35,10.41-9.32-.15.06.12-.06h0l35.66-.37L458.63,286l4.41,1,3-2.46-16.38-19-29.08-1.72Zm-75,148.45h0Z"/><path class="cls-14" d="M285.43,276.92l-7.24,1.89-4.87,9.11-4.63,1.65-8-6.24L237,297.51l.29,5.91v-.1l.3,5.56-13.17,8.05-14.18,24.51-1.74.06,6.66,16.33,1.57.63h0l2.72.32,3.18-2.34h0l.06-.18-1.2-3.66-.05.05-1-.58L218.16,345l3.52-15.37,22-13.13,3.14-19.22,6-6.21.52-.05,15.7,8.9,6.69-1.54,14.14-15.91,35,17.12,7,9.79.26,1.39-3.45,13.28,2.49,10.26,7.54,9.09,1.84,10-12.31,23h0l.23,1.18,2.57.67,15.19-25.48-5.25-15.95h-.07l-4.05-9.21.87-26.4-8.15-11,0,0h0v0h0v0h0v0h0l-44.1-13.43Zm-48.11,26.4v0Z"/><polygon class="cls-15" points="442.65 271.11 410.22 271.9 410.51 271.82 399.89 281.21 398.36 292.86 391.34 302.26 379.96 307.05 374.72 322.18 364.9 325.48 361.17 332.03 363.5 361.51 349.51 378.03 352.43 394.86 349.9 402.62 350.06 402.36 345.64 412.27 345.65 412.29 345.72 412.26 353.59 441.21 353.6 441.2 369.49 400.46 369.35 400.55 387.6 331.64 388.99 331 396.4 311.56 418 294.18 417.52 294.43 426.24 288.16 426.06 288.2 435.25 282.31 456.25 284.36 456.54 284.58 456.95 285.46 456.96 285.43 456.97 285.61 456.54 286.64 452.68 287.22 452.54 290.51 453.75 291.66 448.72 292.83 441.21 290.5 434.49 292.32 422.58 309.25 415.57 312.37 406.41 310.72 396.13 338.99 412.19 349.98 410.86 364.66 404.23 371.68 389.39 372.24 388.26 373.02 385.52 378.39 392.19 397.44 392.12 397.16 392.3 413.01 388.24 421.05 381.01 424.97 364.9 421.7 355.6 465.51 349.53 467.87 349.85 467.76 347.92 468.58 345.41 467.4 344.83 455.62 324.35 428.74 325.56 396.46 324.27 393.43 300.98 394.28 295.91 387.38 309.34 350.95 313.89 346.77 313.61 337.01 308.7 331.44 298.21 328.81 293.28 330.79 281.95 345.63 282.12 345.53 268.23 354.37 263.39 353.12 249.55 341.13 247.18 340.52 219.53 358.77 216.82 358.45 217 363.76 221.44 369.3 231.49 372.87 241.76 368.62 283.78 388.19 292 420.13 312.18 433 320.09 459.45 347.22 473.17 347.81 473.09 349.24 471.99 349.57 470.68 376.95 459.31 444.18 343.98 453.61 340.74 466.19 310.41 463.11 287.06 456.98 284.75 445.35 271.23 442.65 271.11 442.65 271.11 442.65 271.11 442.65 271.11"/><polygon class="cls-16" points="330.56 376.26 328.2 376.43 328.2 376.45 327.46 376.4 327.47 376.41 327.36 376.49 326.84 376.54 325.77 377.96 326.86 379.38 331.42 378.39 331.8 377.67 331.83 377.64 331.84 377.54 330.66 376.26 330.56 376.26 330.56 376.26 330.56 376.26 330.56 376.26"/><polygon class="cls-17" points="289.67 282.48 287.82 283.36 282.1 293.29 272.42 299.52 268.86 299.93 253 291.02 247.06 296.5 246.16 313.02 222.58 328.81 218.12 344.61 218.19 344.97 219.93 342.32 292.19 308.43 311.22 315.46 327.46 376.4 328.2 376.45 339.08 359.87 340.59 348.62 329.17 329.97 332.09 310.79 324.82 299.61 307.75 296.21 289.86 282.48 289.67 282.48 289.67 282.48 289.67 282.48 289.67 282.48"/><polygon class="cls-18" points="285.95 269.75 276.37 271.69 276.38 271.69 279.06 274.54 284.77 274.52 291.94 270.2 285.95 269.75 285.95 269.75 285.95 269.75 285.95 269.75"/><polygon class="cls-19" points="394.35 272 385.1 280.44 386.07 281.37 386.07 281.36 392.82 274.03 392.49 274.33 395.26 271.39 394.35 272 394.35 272 394.35 272 394.35 272"/><path class="cls-20" d="M394.57,253.68l-9.46,3.47h0l-12.22,5.55-5.11-1.35-4.82-5.4-5.67-1.68-23.57,5.85.53-.13-2.62.62.88-.21L330,261l.88-.22-33.21-2-11.08,8.59.27-.26-6.44,3.73-.66-.69-2.66-.39-.73,1.94h0l2.68,2.84h5.71l7.18-4.33h0l12.17-6.42,29.95,3.15H334l23.94-6.26.52.12,8.13,7.48,30.05-8.61,39.1,11.77,3.33-.59,1-1.69-1.36-1.43-2.48-.43h0l-41.65-13.59Zm-97.16,5.24-.36.2.36-.2Zm36.23,1.21-.25.06.25-.06Zm3.52,6-.11,0,.11,0Z"/><polygon class="cls-21" points="395.45 259.82 370.22 269.23 363.46 266.61 358.3 260.72 333.96 266.91 334.11 266.9 304.1 263.76 291.93 270.18 299.29 270.86 299.23 270.72 327.04 279.71 327.04 279.63 327.38 280.36 329.25 281.65 329.22 281.55 330.97 283.04 330.92 282.99 350.47 278.93 360.45 286.22 376.15 283.42 382.85 285.22 385.45 284.13 386.28 282.85 386.18 281.61 385.1 280.44 403.21 267.38 402.92 267.46 409.54 264.34 395.45 259.82 395.45 259.82 395.45 259.82 395.45 259.82"/><path class="cls-22" d="M395,265.28l-8.38,7.06.52-.5-.7.68.13-.12L383.16,278l-.79.35-1.53-.67.12-.52-1-1.46-1.46,1.06-.09,1.7.75,1.12-.22-.23,3.88,2.67,2.34-.14h-.05l1-.48h0l6.75-7.33-.32.31.24-.23-.25.23,5.24-6.14-.15-1.34-.76-1-1.87-.54Zm-11.73,12.61,0,0,0,0Zm-.68.54,0,0,0,0-.26.24.26-.25Z"/><polygon class="cls-23" points="407.9 266.09 392.49 274.34 392.83 274.03 386.07 281.36 386.28 282.85 385.45 284.13 380.95 285.18 376.15 283.42 362.81 286.33 357.34 284.79 351.78 279.53 348.54 278.63 330.92 282.99 331.15 283.21 314.5 272.16 299.27 270.73 299.3 270.87 291.95 270.19 285.12 274.41 280.36 274.97 276.72 272.4 276.38 271.69 232.42 290.22 205.81 334 205.84 338.91 206.76 340.52 209.35 341.6 210.33 341.44 224.51 316.93 237.82 308.32 237.37 303.31 237.29 303.52 237.03 297.51 260.69 283.33 268.06 289.4 271.13 289.19 273.41 287.84 278.19 278.81 300.87 277.6 313 286.86 329.53 290.35 329.5 290.04 337.69 301.27 337.36 329.48 340.87 336.88 340.89 336.88 340.99 336.78 346.19 352.82 331.42 378.39 326.86 379.38 325.77 377.96 326.85 376.54 327.36 376.49 327.46 376.41 311.21 315.46 292.19 308.43 219.94 342.32 218.16 345.01 220.5 352.06 221.53 352.64 222.05 351.26 253.91 335.44 267.45 346.3 270.03 345.99 293.65 322.52 309.82 323.78 320.91 348.3 303.71 381.94 305.25 386.15 305.61 386.3 326.96 385.23 336.15 432.36 350.58 444.58 350.71 444.41 350.61 444.55 350.9 444.97 351.08 444.82 351.25 447.47 352.74 448.61 353.12 448.52 354.15 446.74 353.69 441.16 353.51 441.39 345.72 412.26 345.64 412.29 345.63 412.28 345.63 412.28 345.63 412.27 345.64 412.29 345.06 412.66 344.52 412.67 343.89 412.15 343.83 411.48 344.68 409.15 344.66 409.05 349.44 394.48 345.86 377.77 357.42 362.95 355.89 328.25 364.03 319.39 370.73 317.48 371.91 311.67 371.83 311.9 372.62 307.63 378.46 300.13 388.79 296.25 391.44 292.48 393.48 277.4 408.73 269.06 409.46 267.25 407.9 266.09 407.9 266.09 407.9 266.09 407.9 266.09"/></svg>