<svg id="Layer_1" data-name="Layer 1" xmlns="http://www.w3.org/2000/svg" xmlns:xlink="http://www.w3.org/1999/xlink" viewBox="0 0 287.71 270.71"><defs><style>.cls-1{fill:url(#radial-gradient);}</style><radialGradient id="radial-gradient" cx="687.62" cy="198.13" r="126.6" gradientTransform="translate(-664.89 -47.96) scale(1.11 1.4)" gradientUnits="userSpaceOnUse"><stop offset="0" stop-color="#376235"/><stop offset="0.5" stop-color="#376e21"/><stop offset="1" stop-color="#6c9c53"/></radialGradient></defs><path class="cls-1" d="M103.92,0,98.47,52.64,109.33,60h0l.1.18h0l.61,8.19h0l-3.79.82,1,29.87-.11-.21,10.79,12.55-11.44.57-1.64-2.23.2.37-.78-1.25.09.13-2.75-10.46L85,97h0L83.61,73.34l-4.48.22L75.44,86.47l-1.57-.89-5.63-36.5-5.12,7,1.46,14.81-1.2-.07h0L54.8,69.53,53.27,83,61,85.39l3.42,14.33,12,4.16,2,7.25,14.78,3.26,4,8.86L97,123l21.46,4L122,146.44l-8.12-3.22.48-8.11-5-5.3-6.66,3.25-.3,28.94,12.53,1.35,5.74,24.09v-.31l.47,3.54-7.33-.11-2.59-12.75-3.57-.38L104.49,186l-2.16-.13-1.22-16.54-3.78-2.41-2.44,28.7,15.85,10.74,0,0,7.33,5.19-.35,13.16-16.81,0-.27-1.3h0l.25-10.75-7.46-6.9-4.28,9.66-5.2-1.19-1.34-39.6L87.4,173l1.89-6.36,0,.16,2.48-28.08-6-4.29-3.35,3,.26,19.85H80.22l-.92-8.61L77,146.77l-5.54,3.48,1,20.24-3.36-1.58L65.4,126.4l-7-1.2-1.15,10.71-2,.92-1.7-29v0l0-.74h0l0-1.4-3.84-2.43-5.1,3.44L43,143.17l-8.57-.5-5.09-12.19.12,1.87L29.39,127l.07,1.12,0-5.09.12,1.87.66-12.2-.29,1.85,1.59-9.17,13.28-6.86L44.46,80l.06.22-4.74-5.36-3.13,13.7-7.12-.36.43-7L26.2,78.05l-6.64,3.19,1,23.79-3.22,2.4.18-.08-8.88-.63L6.12,79.48,0,121.15H0l.41.65,0-.06,2.23,2.85-.11-.13,13,3.78.64,9.67-.07-1.12.88,5.46,0-.42L28.81,153.2l-.09-.3.23,1.22v-.28l.18,2.24-.1-1.49.17,2.1-.09-1.37,1.36,6.41,20.38-8.82v0l1.22-.47,3.14,3.74,0-.1,4.41,30.21,8.41-.79,3.3,44.91,10.3,0-.13,0,39.77,11.35,2.55,22.66-2.31,1.86.91,4.34,19.75-7.57-3.2-3.56-2.34.27,8.62-35.31,87.69-42.23,0,0,.54-.24-.51.22,2-.87-.54.24L243,166.79l-.12.74.31-1.76-.12.74,13.83-8.88h0l.32-.27-.14.12,3.1-9.36-.05.35,1.49-7.37h0v0h0l2.19-9-.25.65,3.21-8.61,15.62-3.88,0,0,.46-.21h0l1.53-1.59-.19.28,3.6-28.13-2.45-2.33-3.41,1.28-2.36,14.15h0l-6.17-1.09.43.47-2.2-5.53.2.69-.45-34.11-.11.73-.06-5.43,0,.48L271,58.28l0,.43-.13-1.93,0,.75-.12-1.44,0,.34-.1-1.27v.2l-2.34-5.1-4.66-.32-3.16,16.67-4.55-.09-1.7-42.35-6.89-1.3-.66.73h0l-2.42,41.16-2.58-10-6.43-.24L236,76.39l23.17,11.92h0l2.93,13H251.57l-1.32-10.94-3.75-2.93-4.92,3.94-1.42,21.69,14,5.32L248,150.85l-9,4.78-4.49-31.52-3.76-1.84-4.58,9.54-3.57-.21,1.72-44.5-.52-.31.13.1-.18-.1v0l-5.83-1.07,15,86-27.72,10.05.13-.19-.12.2h0l0,.07.05-.06-6.21,7.59.1-25.43,9.51.07.84-17.42-3.68-3.41-5.44,8-1.6-1-1.07-29.29-3.6-2-6.74,56.68-2.62,2.05L183,161.82l-6.27,1-1,22.48,0-.23,4.53,5.92,6.13-.6L188,201.42h0l-8.12,2.67v0l-18.73,3.78h0l-.23-.57h0l-3.15-40.44-5.54,2.88-4.87,37.78-17.26,8.06,2-18.41,9.51-6.08-2.28-23.22-4.41,2.54-.75,13.44H132l-.1-21.34,14.18-6-.14.11.24-.21-.11.07.47-24.85-5.53-.08-1.33,14.09L137,146l3.75-21.84,15.3-7-.23.17,15-9.92h0l27.81-22.11-.11,0,7.86-22h0l3.17-2.64h0l6.51-2.3h-.1l11.14-4.82,1.18-7.34,0,.07-.33-21.17-4.82.26-2.64,15.74-5-.1-.35-25.88L207,16.69l-2.12,30.59L196,48l-1.81,25.43-7.63,3.2L184.09,53l-3.4.45-3.64-21.43L171.63,63.7l4,2.23.61,10-7.49,5.33-.45,11.4-5.15-.64h0l-1.35-34.44-1.4-.52L151.56,106l-13.47,1.21-.88-8.67,10.67-3.32L147.55,72l.11.13-3.37-1.45-5,11.82.17-.06-3.25-.68,2.08-19.56.57-.16h-.09l7.13-3.2-.18-23.19-3.91-2-3.34,16.48-7.36,2.42-2.31,36.23-5.22,2.31-5.12-5,2.06-13.35h0l-.86-62.56-3,.79-2.4,33.69-5.22.73L107.49,1.18,103.92,0Zm109.3,191.58-.21.18.21-.18Z"/></svg>