<svg id="Layer_1" data-name="Layer 1" xmlns="http://www.w3.org/2000/svg" xmlns:xlink="http://www.w3.org/1999/xlink" viewBox="0 0 204.93 214.1"><defs><style>.cls-1{fill:url(#radial-gradient);}.cls-2{fill:url(#radial-gradient-2);}.cls-3{fill:url(#radial-gradient-3);}.cls-4{fill:url(#radial-gradient-4);}.cls-5{fill:url(#radial-gradient-5);}.cls-6{fill:url(#radial-gradient-6);}.cls-7{fill:url(#radial-gradient-7);}.cls-8{fill:url(#radial-gradient-8);}.cls-9{fill:url(#radial-gradient-9);}.cls-10{fill:url(#radial-gradient-10);}.cls-11{fill:url(#radial-gradient-11);}.cls-12{fill:url(#radial-gradient-12);}.cls-13{fill:url(#radial-gradient-13);}.cls-14{fill:url(#radial-gradient-14);}.cls-15{fill:url(#radial-gradient-15);}.cls-16{fill:url(#radial-gradient-16);}.cls-17{fill:url(#radial-gradient-17);}.cls-18{fill:url(#radial-gradient-18);}.cls-19{fill:url(#radial-gradient-19);}.cls-20{fill:url(#radial-gradient-20);}.cls-21{fill:url(#radial-gradient-21);}.cls-22{fill:url(#radial-gradient-22);}.cls-23{fill:url(#radial-gradient-23);}.cls-24{fill:url(#radial-gradient-24);}.cls-25{fill:url(#radial-gradient-25);}.cls-26{fill:url(#radial-gradient-27);}.cls-27{fill:url(#radial-gradient-28);}.cls-28{fill:url(#radial-gradient-29);}.cls-29{fill:url(#radial-gradient-30);}.cls-30{fill:url(#radial-gradient-32);}.cls-31{fill:url(#radial-gradient-33);}.cls-32{fill:url(#radial-gradient-36);}.cls-33{fill:url(#radial-gradient-37);}.cls-34{fill:url(#radial-gradient-38);}.cls-35{fill:url(#radial-gradient-39);}.cls-36{fill:url(#radial-gradient-40);}.cls-37{fill:url(#radial-gradient-41);}.cls-38{fill:url(#radial-gradient-42);}.cls-39{fill:url(#radial-gradient-44);}.cls-40{fill:url(#radial-gradient-45);}.cls-41{fill:url(#radial-gradient-47);}.cls-42{fill:url(#radial-gradient-49);}.cls-43{fill:url(#radial-gradient-50);}.cls-44{fill:url(#radial-gradient-51);}.cls-45{fill:url(#radial-gradient-52);}.cls-46{fill:url(#radial-gradient-53);}.cls-47{fill:url(#radial-gradient-54);}.cls-48{fill:url(#radial-gradient-55);}.cls-49{fill:url(#radial-gradient-56);}.cls-50{fill:url(#radial-gradient-57);}.cls-51{fill:url(#radial-gradient-58);}.cls-52{fill:url(#radial-gradient-60);}.cls-53{fill:url(#radial-gradient-61);}.cls-54{fill:url(#radial-gradient-62);}.cls-55{fill:url(#radial-gradient-63);}.cls-56{fill:url(#radial-gradient-64);}.cls-57{fill:url(#radial-gradient-66);}.cls-58{fill:url(#radial-gradient-67);}.cls-59{fill:url(#radial-gradient-68);}.cls-60{fill:url(#radial-gradient-74);}.cls-61{fill:url(#radial-gradient-75);}.cls-62{fill:url(#radial-gradient-78);}.cls-63{fill:url(#radial-gradient-79);}.cls-64{fill:url(#radial-gradient-80);}.cls-65{fill:url(#radial-gradient-83);}.cls-66{fill:url(#radial-gradient-86);}.cls-67{fill:url(#radial-gradient-87);}.cls-68{fill:url(#radial-gradient-88);}.cls-69{fill:url(#radial-gradient-89);}.cls-70{fill:url(#radial-gradient-90);}.cls-71{fill:url(#radial-gradient-91);}.cls-72{fill:url(#radial-gradient-92);}.cls-73{fill:url(#radial-gradient-94);}.cls-74{fill:url(#radial-gradient-95);}.cls-75{fill:url(#radial-gradient-98);}.cls-76{fill:url(#radial-gradient-102);}.cls-77{fill:url(#radial-gradient-103);}.cls-78{fill:url(#radial-gradient-107);}.cls-79{fill:url(#radial-gradient-111);}.cls-80{fill:url(#radial-gradient-114);}.cls-81{fill:url(#radial-gradient-115);}</style><radialGradient id="radial-gradient" cx="10114.8" cy="819.43" r="1.56" gradientTransform="translate(1727.34 10150.25) rotate(-103.72)" gradientUnits="userSpaceOnUse"><stop offset="0" stop-color="#5b464d"/><stop offset="0.5" stop-color="#735561"/><stop offset="1" stop-color="#8e7d83"/></radialGradient><radialGradient id="radial-gradient-2" cx="10129.77" cy="813.09" r="1.86" xlink:href="#radial-gradient"/><radialGradient id="radial-gradient-3" cx="10136.96" cy="805.48" r="0.39" xlink:href="#radial-gradient"/><radialGradient id="radial-gradient-4" cx="10139.19" cy="793.96" r="0.63" xlink:href="#radial-gradient"/><radialGradient id="radial-gradient-5" cx="10142.05" cy="801.93" r="0.68" xlink:href="#radial-gradient"/><radialGradient id="radial-gradient-6" cx="10144.77" cy="802.94" r="0.06" xlink:href="#radial-gradient"/><radialGradient id="radial-gradient-7" cx="10145.18" cy="801.59" r="0.88" xlink:href="#radial-gradient"/><radialGradient id="radial-gradient-8" cx="10145.7" cy="817.86" r="1.28" xlink:href="#radial-gradient"/><radialGradient id="radial-gradient-9" cx="10145.86" cy="800.89" r="0.57" xlink:href="#radial-gradient"/><radialGradient id="radial-gradient-10" cx="10146.13" cy="806.73" r="0.31" xlink:href="#radial-gradient"/><radialGradient id="radial-gradient-11" cx="10146.4" cy="810.37" r="0.13" xlink:href="#radial-gradient"/><radialGradient id="radial-gradient-12" cx="10144.53" cy="804.78" r="1.6" xlink:href="#radial-gradient"/><radialGradient id="radial-gradient-13" cx="10148.87" cy="823.23" r="0.09" xlink:href="#radial-gradient"/><radialGradient id="radial-gradient-14" cx="10149.64" cy="834.29" r="0.58" xlink:href="#radial-gradient"/><radialGradient id="radial-gradient-15" cx="10150.15" cy="817.95" r="0.19" xlink:href="#radial-gradient"/><radialGradient id="radial-gradient-16" cx="10151.61" cy="815.08" r="0.6" xlink:href="#radial-gradient"/><radialGradient id="radial-gradient-17" cx="10154.28" cy="813.34" r="0.02" xlink:href="#radial-gradient"/><radialGradient id="radial-gradient-18" cx="10153.28" cy="795.12" r="3.74" xlink:href="#radial-gradient"/><radialGradient id="radial-gradient-19" cx="10158.36" cy="805.41" r="4.28" xlink:href="#radial-gradient"/><radialGradient id="radial-gradient-20" cx="10160.54" cy="783.91" r="5.7" xlink:href="#radial-gradient"/><radialGradient id="radial-gradient-21" cx="10119.35" cy="813.1" r="0.42" xlink:href="#radial-gradient"/><radialGradient id="radial-gradient-22" cx="10127.88" cy="812.63" r="0.48" xlink:href="#radial-gradient"/><radialGradient id="radial-gradient-23" cx="10128.38" cy="818.85" r="1.83" xlink:href="#radial-gradient"/><radialGradient id="radial-gradient-24" cx="10131.9" cy="804.32" r="0.31" xlink:href="#radial-gradient"/><radialGradient id="radial-gradient-25" cx="10133.97" cy="815.97" r="1.14" xlink:href="#radial-gradient"/><radialGradient id="radial-gradient-27" cx="10138.44" cy="806.01" r="0.72" xlink:href="#radial-gradient"/><radialGradient id="radial-gradient-28" cx="10139.9" cy="803.76" r="0.69" xlink:href="#radial-gradient"/><radialGradient id="radial-gradient-29" cx="10141.29" cy="806.61" r="0.1" xlink:href="#radial-gradient"/><radialGradient id="radial-gradient-30" cx="10141.23" cy="803.18" r="0.23" xlink:href="#radial-gradient"/><radialGradient id="radial-gradient-32" cx="10143.03" cy="805.18" r="0.08" xlink:href="#radial-gradient"/><radialGradient id="radial-gradient-33" cx="10144.8" cy="802.9" r="0.08" xlink:href="#radial-gradient"/><radialGradient id="radial-gradient-36" cx="10146.05" cy="801.11" r="0.77" xlink:href="#radial-gradient"/><radialGradient id="radial-gradient-37" cx="10146.67" cy="810.43" r="0.32" xlink:href="#radial-gradient"/><radialGradient id="radial-gradient-38" cx="10145.01" cy="804.71" r="1.25" xlink:href="#radial-gradient"/><radialGradient id="radial-gradient-39" cx="10147.37" cy="797.45" r="0.62" xlink:href="#radial-gradient"/><radialGradient id="radial-gradient-40" cx="10147.55" cy="808.88" r="0.03" xlink:href="#radial-gradient"/><radialGradient id="radial-gradient-41" cx="10147.65" cy="801.92" r="0.09" xlink:href="#radial-gradient"/><radialGradient id="radial-gradient-42" cx="10149.43" cy="806.89" r="0.55" xlink:href="#radial-gradient"/><radialGradient id="radial-gradient-44" cx="10150.75" cy="819.07" r="0.36" xlink:href="#radial-gradient"/><radialGradient id="radial-gradient-45" cx="10152.07" cy="814.37" r="1.38" xlink:href="#radial-gradient"/><radialGradient id="radial-gradient-47" cx="10155.11" cy="821.24" r="0.51" xlink:href="#radial-gradient"/><radialGradient id="radial-gradient-49" cx="10156.02" cy="788.56" r="5.64" xlink:href="#radial-gradient"/><radialGradient id="radial-gradient-50" cx="10160.3" cy="819.66" r="0.09" xlink:href="#radial-gradient"/><radialGradient id="radial-gradient-51" cx="10161.33" cy="823.97" r="0.67" xlink:href="#radial-gradient"/><radialGradient id="radial-gradient-52" cx="10141.85" cy="806.44" r="101.73" xlink:href="#radial-gradient"/><radialGradient id="radial-gradient-53" cx="10167.56" cy="760.96" r="20.68" xlink:href="#radial-gradient"/><radialGradient id="radial-gradient-54" cx="10208.5" cy="804.82" r="20.91" xlink:href="#radial-gradient"/><radialGradient id="radial-gradient-55" cx="10207.45" cy="801.04" r="20.02" xlink:href="#radial-gradient"/><radialGradient id="radial-gradient-56" cx="10171.63" cy="766.34" r="18.65" xlink:href="#radial-gradient"/><radialGradient id="radial-gradient-57" cx="10173.82" cy="765.17" r="23.31" xlink:href="#radial-gradient"/><radialGradient id="radial-gradient-58" cx="10117.12" cy="806.77" r="1.39" xlink:href="#radial-gradient"/><radialGradient id="radial-gradient-60" cx="10130.7" cy="819.46" r="0.11" xlink:href="#radial-gradient"/><radialGradient id="radial-gradient-61" cx="10129.77" cy="813.65" r="1.99" xlink:href="#radial-gradient"/><radialGradient id="radial-gradient-62" cx="10134.58" cy="816.3" r="0.65" xlink:href="#radial-gradient"/><radialGradient id="radial-gradient-63" cx="10139.9" cy="803.72" r="0.7" xlink:href="#radial-gradient"/><radialGradient id="radial-gradient-64" cx="10140.61" cy="802.8" r="0.29" xlink:href="#radial-gradient"/><radialGradient id="radial-gradient-66" cx="10143.01" cy="804.52" r="0.24" xlink:href="#radial-gradient"/><radialGradient id="radial-gradient-67" cx="10143.81" cy="805.06" r="0.03" xlink:href="#radial-gradient"/><radialGradient id="radial-gradient-68" cx="10144.78" cy="802.9" r="0.09" xlink:href="#radial-gradient"/><radialGradient id="radial-gradient-74" cx="10149.04" cy="823.87" r="0.56" xlink:href="#radial-gradient"/><radialGradient id="radial-gradient-75" cx="10148.94" cy="802.1" r="0.98" xlink:href="#radial-gradient"/><radialGradient id="radial-gradient-78" cx="10152.47" cy="813.92" r="0.97" xlink:href="#radial-gradient"/><radialGradient id="radial-gradient-79" cx="10156.42" cy="816.91" r="0.2" xlink:href="#radial-gradient"/><radialGradient id="radial-gradient-80" cx="10157.17" cy="807.48" r="0.66" xlink:href="#radial-gradient"/><radialGradient id="radial-gradient-83" cx="10157.03" cy="805.41" r="3.35" xlink:href="#radial-gradient"/><radialGradient id="radial-gradient-86" cx="10169.76" cy="812.75" r="2.67" xlink:href="#radial-gradient"/><radialGradient id="radial-gradient-87" cx="10177.8" cy="804.33" r="6.64" xlink:href="#radial-gradient"/><radialGradient id="radial-gradient-88" cx="10093.24" cy="863.07" r="3.46" xlink:href="#radial-gradient"/><radialGradient id="radial-gradient-89" cx="10115.03" cy="808.25" r="2.92" xlink:href="#radial-gradient"/><radialGradient id="radial-gradient-90" cx="10127.44" cy="812.75" r="0.16" xlink:href="#radial-gradient"/><radialGradient id="radial-gradient-91" cx="10127.82" cy="821.57" r="1.63" xlink:href="#radial-gradient"/><radialGradient id="radial-gradient-92" cx="10130.43" cy="813.05" r="1.38" xlink:href="#radial-gradient"/><radialGradient id="radial-gradient-94" cx="10133.18" cy="814.65" r="0.93" xlink:href="#radial-gradient"/><radialGradient id="radial-gradient-95" cx="10136.37" cy="784.5" r="1.72" xlink:href="#radial-gradient"/><radialGradient id="radial-gradient-98" cx="10140.7" cy="803.95" r="0.11" xlink:href="#radial-gradient"/><radialGradient id="radial-gradient-102" cx="10141.73" cy="801.8" r="0.45" xlink:href="#radial-gradient"/><radialGradient id="radial-gradient-103" cx="10142.63" cy="804.93" r="0.26" xlink:href="#radial-gradient"/><radialGradient id="radial-gradient-107" cx="10145.26" cy="804.69" r="1.03" xlink:href="#radial-gradient"/><radialGradient id="radial-gradient-111" cx="10152.86" cy="812.83" r="0.16" xlink:href="#radial-gradient"/><radialGradient id="radial-gradient-114" cx="10160.49" cy="814.61" r="0.71" xlink:href="#radial-gradient"/><radialGradient id="radial-gradient-115" cx="10162.4" cy="829.46" r="0.93" xlink:href="#radial-gradient"/></defs><polygon class="cls-1" points="126.31 131.51 124.18 127.64 125.91 130.03 126.31 131.51"/><polygon class="cls-2" points="115.5 117.82 114.42 114.19 115.95 116.3 116.22 116.67 115.75 118.65 115.88 119.08 115.7 118.85 115.34 118.37 115.5 117.82"/><polygon class="cls-3" points="106.26 111.25 106.48 110.81 106.48 111.89 106.26 111.25"/><path class="cls-4" d="M94,112.47l1.39-1.11-.32.5Z"/><path class="cls-5" d="M102.14,106.34,102,107l-.14.87-.43.26.39-1-.38.21.67-1Z"/><polygon class="cls-6" points="102.2 104.33 102.12 104.4 102.05 104.38 102.2 104.33"/><polygon class="cls-7" points="100.1 104.06 101.96 104.37 99.62 104.8 100.1 104.06"/><polygon class="cls-8" points="114.61 100.09 118.06 99.19 116.57 100.23 114.61 100.09"/><polygon class="cls-9" points="100.54 103.36 100.1 104.06 99.13 103.89 99.76 103.52 100.54 103.36"/><polygon class="cls-10" points="105.64 101.73 105.44 102.54 105.33 102.52 105.64 101.73"/><polygon class="cls-11" points="108.96 101.21 108.89 100.85 108.96 100.87 108.96 101.21"/><polygon class="cls-12" points="103.04 102.19 103.02 102.13 103.05 102.19 104.39 104.78 104.43 104.79 104.41 104.83 104.72 105.43 104.79 105.57 104.67 105.63 104.51 106.31 104.33 105.81 103.94 106.02 104.18 105.41 103.93 104.7 103.04 102.19"/><polygon class="cls-13" points="120.76 95.64 120.93 95.53 120.99 95.53 120.76 95.64"/><polygon class="cls-14" points="130.66 92.48 131.51 92.06 132.25 92.14 130.66 92.48"/><polygon class="cls-15" points="115.22 95.73 115.65 95.43 115.52 95.66 115.22 95.73"/><polygon class="cls-16" points="111.67 95.41 112.23 94.46 112.99 94.56 111.67 95.41"/><polygon class="cls-17" points="109.97 92.7 109.99 92.64 109.99 92.66 109.97 92.7"/><polygon class="cls-18" points="89.47 96.52 97.33 99.42 97.52 99.7 87.52 96.22 89.47 96.52"/><path class="cls-19" d="M100.23,89l-.47-4.18c.31.86.62,1.7.91,2.52,1,2.7,1.88,5.15,2.67,7.26l-.24,1.67-2.56-4.5Z"/><polygon class="cls-20" points="72.28 90.92 87.52 96.22 85.04 95.84 72.28 90.92"/><polygon class="cls-21" points="117.84 126.49 117.96 126.07 118.3 127.19 117.84 126.49"/><polygon class="cls-22" points="115.75 118.65 115.88 119.08 115.7 118.85 115.34 118.37 115.5 117.82 115.75 118.65"/><polygon class="cls-23" points="121.47 114.18 121.53 113.97 121.61 114.25 122.83 118.72 120.71 116.75 121.47 114.18"/><polygon class="cls-24" points="106.49 117 106.49 116.12 106.68 116.65 106.49 117"/><polygon class="cls-25" points="117.26 111.93 117.77 110.21 117.34 111.97 117.03 113.3 116.89 113.17 117.26 111.93"/><polygon class="cls-3" points="106.26 111.25 106.48 110.81 106.48 111.89 106.26 111.25"/><polygon class="cls-26" points="106.48 110.81 106.48 108.84 106.99 109.83 106.48 110.81"/><polygon class="cls-27" points="104.03 108.23 104.11 107.93 104.11 108.19 104.15 109.86 103.83 109.02 104.03 108.23"/><polygon class="cls-28" points="106.48 107.02 106.48 106.77 106.61 106.95 106.48 107.02"/><polygon class="cls-29" points="103.13 108.07 103.24 107.44 103.31 107.61 103.13 108.07"/><path class="cls-5" d="M102.13,106.35h0L102,107l-.14.87-.43.26.39-1Z"/><polygon class="cls-30" points="104.67 105.63 104.72 105.43 104.79 105.57 104.67 105.63"/><polygon class="cls-31" points="102.2 104.33 102 104.38 101.96 104.37 102.2 104.33"/><polygon class="cls-7" points="100.1 104.06 101.96 104.37 99.62 104.8 100.1 104.06"/><polygon class="cls-8" points="114.61 100.09 118.06 99.19 116.57 100.23 114.61 100.09"/><polygon class="cls-32" points="100.54 103.36 100.1 104.06 99.13 103.89 99.76 103.52 100.87 102.86 100.54 103.36"/><polygon class="cls-33" points="108.89 100.85 108.8 100.33 108.95 100.34 108.96 100.87 108.96 101.21 108.89 100.85"/><polygon class="cls-34" points="103.05 102.19 104.39 104.78 104.43 104.79 104.41 104.83 104.18 105.41 103.93 104.7 103.04 102.19 103.02 102.13 103.05 102.19"/><polygon class="cls-35" points="96.98 102.77 96.03 103.37 95.32 103.25 96.98 102.77"/><polygon class="cls-36" points="107.28 100.28 107.2 100.25 107.28 100.25 107.28 100.28"/><polygon class="cls-37" points="100.34 101.8 100.42 101.77 100.58 101.83 100.34 101.8"/><path class="cls-38" d="M104.67,98.16l.41,1.09-.16.43Z"/><polygon class="cls-15" points="115.22 95.73 115.65 95.43 115.52 95.66 115.22 95.73"/><polygon class="cls-39" points="115.94 94.92 116.14 94.58 116.83 94.62 116.33 94.97 115.94 94.92"/><polygon class="cls-40" points="110.04 94.2 109.61 94.14 110.03 94.17 112.31 94.32 113.26 94.39 112.99 94.56 111.67 95.41 112.23 94.46 110.04 94.2"/><polygon class="cls-17" points="109.97 92.7 109.99 92.64 109.99 92.66 109.97 92.7"/><polygon class="cls-41" points="116.9 90.31 117.96 89.48 117.43 90.37 116.9 90.31"/><polygon class="cls-18" points="97.52 99.7 87.52 96.22 89.47 96.52 96.11 97.54 97.33 99.42 97.52 99.7"/><polygon class="cls-42" points="84.71 97.43 77.81 94.73 85.04 95.84 93.17 98.98 84.71 97.43"/><polygon class="cls-43" points="114.63 85.42 114.76 85.22 114.65 85.41 114.63 85.42"/><polygon class="cls-44" points="119.25 82.58 118.54 83.79 118.01 84.01 119.25 82.58"/><path class="cls-45" d="M110.37,74l8.87-68.21-7.35,38.64.8-15.65L109,55.11l-1.14-41.46.6,45.32L106.26,74l-1.06,7.48-.18-1-2.29-12L100.39,0l.19,57.28L92.33,14.07l8.26,47.65,0,11.85L94,33.37,99.11,79,96,70.69l2.37,10.24c-1.17-3.25-2.4-6.71-3.67-10.28l3.57,17.12L70.58,39.09l25,48.28L60.3,42.61,87.29,84,51.93,47.78l38.9,41.66,5.28,8.1,1.22,1.88.19.28-10-3.48L85,95.84,93.17,99l-8.46-1.55,8.47,3.32L0,87.2l95.32,16,1.66-.48-1,.6-.71-.12-12.46,3.62-66.8,13.22,57.43-10.51-54,15.66,70-17.69-5.77,3.67L19.06,135.28,79.33,114l-45.1,28.68,52.18-31.19,11.53-4.07-.53.84-2,1.64-10.8,6.29L31.5,144.14l34.24-16.95L25,151c.61-.34,35.9-19.77,59.13-32.85l4.24-2.39-.9.74L35.85,158.78l55.81-44.43,2.7-1.33L53.67,176.56l45.5-65.93,1.65-.81-17,44.89-21,40.75L80.34,164,68.66,194.93l13.73-34.59,15.37-27.65L88.07,191l11-60.72,2.13-3.83L91.45,196l13.29-61,.1,4.61L92.42,195.36l12.73-42.76.22,9.56-8.28,34.68,8.43-28.56,1.07,45.82,0-49.28,8-27.15,22,58.94L115,136,113,130.21l-.48,2-.72-1.94.56-1.9.64,1.81.52-2.15,2.17,5.76,22,58.34-19.36-65-.46-.7.12-.42.34,1.12L130,145.12l13.73,50.33-10.5-45.39,21.16,32.34-23.54-42.62-.35-1.51,26.94,35.26-27.57-38-3-13,48,44.84-49-49.31-3.24-3.25,2.84,1.52,61.21,32.77-12.2-7.69-5.91-3.72-25.88-16.31,52.58,26.38L129,110.56,202.82,134l-81.56-28.82,83.67,10.09-72-10.54,35.93.18,29.5,1-54-3.76,53.42,2.75L132.94,97l3.28-1.08,62.25,4.14-54.9-6.55,13.25-4.36,43.94-11.41L175,83.14l19.51-6.42-28.93,8.4-33.37,7-1.59.34.85-.43,60-29.76L129,91.75h-.16l41.28-28.57,19.18-8.9L155,68.6,186.67,47,149.91,70.7l-6.68,2.79L181.28,40l-48.4,37.86-9.35,3.9-.65.27,1.67-2,46.38-56.77L130.38,69.78l21.25-37L128.1,72.41l-8.85,10.17-.71,1.21L118,84l1.24-1.43,34.2-57.83L114.76,85.22l-.11.19h0l.13-.2L149,21.34,116.24,79.41l2.58-8.16,22.82-55.34L122.25,60.38l9.47-30L109.84,87l-.15.39.1-2ZM110,94.17l2.27.15,1,.07-.27.17-1.32.85.56-1L110,94.2l-.44-.06Zm-7.21,14.66.3-.76.11-.63.07.17-.18.46-.12.67Zm-.78-4.45H102l-2.34.43.48-.74-1-.17.63-.37,1.11-.66-.33.5-.44.7,1.86.31.24,0-.08.07Zm2.13,1-.25-.71-.89-2.51,0-.06,0,.06,1.34,2.59h0l0,0,.31.6.07.14-.12.06-.16.68-.18-.49-.39.2Zm.74-5.73-.25-1.52.41,1.09Zm2.36.6-.08,0h.07Zm9.62-10,1.06-.83-.53.89ZM116.33,95l-.39,0,.2-.34.69,0ZM103.83,109l-.21-.58.41-.21.07-.3v.26l0,1.68Zm1.5-6.5.31-.79-.2.81Zm1.15,4.5v-.25l.14.18Zm-.22,4.23.22-.44v-2l.51,1-.51,1v1.07Zm9.39-15.82-.13.23-.31.07Zm-9.16,20.69.19.53-.19.34Zm8.11-16,3.46-.9-1.49,1ZM121,95.53l-.23.11.17-.11.87-.58.36,0Zm-1.41-.72-.7.15.2-.19ZM109,100.87v.34l-.07-.36-.1-.52H109Zm-5.17-9.44-.11.74-.29-1.82ZM100.23,89l-.47-4.18c.31.86.62,1.7.91,2.52,1,2.7,1.88,5.15,2.67,7.26l-.24,1.67-2.56-4.5Zm.85,11.41.54.58L99,100Zm-.66,1.35.16.06-.24,0ZM94,112.47l1.39-1.11-.32.5Zm7.43-5.14.67-1h0L102,107l-.14.87-.43.26.39-1Zm14.24,11.52-.36-.48.16-.55-1.08-3.63L116,116.3l.69-2.31-1.2-2.17,1.45,1.35.37-1.24.51-1.72-.42,1.76L117,113.3l-.23,1-.58,2.4-.47,2,.13.43Zm10.61,12.66-2.13-3.86,1.73,2.38Zm-3.48-12.79-2.12-2,.76-2.57.06-.21.08.29Zm-9.89-28.88-.26,0,.49-.23Zm-3,2.86,0-.06v0Z"/><polygon class="cls-46" points="77.81 94.73 84.71 97.43 27.17 86.94 77.81 94.73"/><polygon class="cls-47" points="95.99 70.69 93.08 62.94 82.67 13.1 95.99 70.69"/><path class="cls-48" d="M93.07,62.94l1.62,7.71c-8.55-24-18.59-52.81-18.79-53.38Z"/><polygon class="cls-49" points="85.04 95.84 77.81 94.73 35.38 78.08 72.28 90.92 85.04 95.84"/><polygon class="cls-50" points="87.52 96.22 72.28 90.92 27.62 73.69 89.47 96.52 87.52 96.22"/><polygon class="cls-51" points="112.35 128.4 112.99 130.21 112.51 132.24 111.79 130.3 112.35 128.4"/><polygon class="cls-21" points="117.84 126.49 117.96 126.07 118.3 127.19 117.84 126.49"/><polygon class="cls-52" points="121.47 114.18 121.53 113.97 121.61 114.25 121.47 114.18"/><polygon class="cls-53" points="114.42 114.19 115.95 116.3 116.64 113.99 116.8 114.27 116.22 116.67 115.75 118.65 115.88 119.08 115.7 118.85 115.34 118.37 115.5 117.82 114.42 114.19"/><polygon class="cls-54" points="117.26 111.93 117.77 110.21 117.34 111.97 117.26 111.93"/><polygon class="cls-55" points="104.03 108.23 104.11 107.93 104.11 108.19 104.15 109.86 103.83 109.02 103.61 108.44 104.03 108.23"/><polygon class="cls-56" points="102.83 108.83 103.13 108.07 103.01 108.74 102.83 108.83"/><polygon class="cls-28" points="106.48 107.02 106.48 106.77 106.61 106.95 106.48 107.02"/><polygon class="cls-57" points="103.94 106.02 104.18 105.41 104.33 105.81 103.94 106.02"/><polygon class="cls-58" points="104.41 104.83 104.39 104.78 104.43 104.79 104.41 104.83"/><polygon class="cls-59" points="102 104.38 101.96 104.37 102.2 104.33 102.12 104.4 102.05 104.38 102 104.38"/><polygon class="cls-7" points="99.62 104.8 100.1 104.06 101.96 104.37 99.62 104.8"/><polygon class="cls-10" points="105.64 101.73 105.44 102.54 105.33 102.52 105.64 101.73"/><polygon class="cls-33" points="108.89 100.85 108.8 100.33 108.95 100.34 108.96 100.87 108.96 101.21 108.89 100.85"/><polygon class="cls-36" points="107.28 100.28 107.2 100.25 107.28 100.25 107.28 100.28"/><polygon class="cls-37" points="100.34 101.8 100.42 101.77 100.58 101.83 100.34 101.8"/><polygon class="cls-60" points="120.93 95.53 121.8 94.95 122.16 94.98 120.99 95.53 120.76 95.64 120.93 95.53"/><polygon class="cls-61" points="101.08 100.42 101.62 101 99.02 100.04 101.08 100.42"/><path class="cls-38" d="M104.92,99.68l-.25-1.52.41,1.09Z"/><polygon class="cls-39" points="115.94 94.92 116.14 94.58 116.83 94.62 116.33 94.97 115.94 94.92"/><polygon class="cls-62" points="110.04 94.2 109.61 94.14 110.03 94.17 112.31 94.32 112.23 94.46 110.04 94.2"/><polygon class="cls-63" points="112.68 89.81 113.17 89.58 112.94 89.84 112.68 89.81"/><polygon class="cls-64" points="103.69 92.17 103.39 90.35 103.79 91.43 103.69 92.17"/><polygon class="cls-42" points="77.81 94.73 85.04 95.84 93.17 98.98 84.71 97.43 77.81 94.73"/><polygon class="cls-43" points="114.63 85.42 114.76 85.22 114.65 85.41 114.63 85.42"/><path class="cls-65" d="M100.67,87.35c1,2.7,1.88,5.15,2.67,7.26l-.24,1.67-2.56-4.5L100.23,89l.46,2Z"/><polygon class="cls-44" points="118.01 84.01 119.25 82.58 118.54 83.79 118.01 84.01"/><polygon class="cls-20" points="85.04 95.84 72.28 90.92 87.52 96.22 85.04 95.84"/><polygon class="cls-66" points="105.02 80.56 106.26 74.03 105.2 81.51 105.02 80.56"/><path class="cls-67" d="M93.07,62.94,96,70.69l2.37,10.24c-1.17-3.25-2.4-6.71-3.67-10.28Z"/><polygon class="cls-68" points="174.47 141.4 168.56 137.68 176.96 142.68 174.47 141.4"/><polygon class="cls-69" points="112.99 130.21 113.51 128.06 115.68 133.82 115.04 135.98 112.99 130.21"/><polygon class="cls-70" points="115.75 118.65 115.88 119.08 115.7 118.85 115.75 118.65"/><polygon class="cls-71" points="125.86 118.05 122.62 114.8 125.46 116.32 125.86 118.05"/><polygon class="cls-72" points="114.42 114.19 115.95 116.3 115.5 117.82 114.42 114.19"/><polygon class="cls-24" points="106.68 116.65 106.49 117 106.49 116.12 106.68 116.65"/><polygon class="cls-73" points="116.64 113.99 115.44 111.82 116.89 113.17 116.64 113.99"/><path class="cls-74" d="M87.43,116.45l-3.34,1.65,4.24-2.39Z"/><polygon class="cls-3" points="106.26 111.25 106.48 110.81 106.48 111.89 106.26 111.25"/><path class="cls-4" d="M94,112.47l1.39-1.11-.32.5Z"/><polygon class="cls-75" points="104.03 108.23 104.11 107.93 104.11 108.19 104.03 108.23"/><polygon class="cls-56" points="102.83 108.83 103.13 108.07 103.01 108.74 102.83 108.83"/><polygon class="cls-28" points="106.48 107.02 106.48 106.77 106.61 106.95 106.48 107.02"/><polygon class="cls-29" points="103.13 108.07 103.24 107.44 103.31 107.61 103.13 108.07"/><path class="cls-76" d="M101.84,107.12,102,107l-.14.87-.43.26Z"/><polygon class="cls-77" points="104.33 105.81 104.67 105.63 104.51 106.31 104.33 105.81"/><polygon class="cls-59" points="102.2 104.33 102.12 104.4 102.05 104.38 102 104.38 101.96 104.37 102.2 104.33"/><polygon class="cls-8" points="114.61 100.09 118.06 99.19 116.57 100.23 114.61 100.09"/><polygon class="cls-32" points="100.54 103.36 100.1 104.06 99.13 103.89 99.76 103.52 100.87 102.86 100.54 103.36"/><polygon class="cls-78" points="103.93 104.7 103.04 102.19 103.05 102.19 104.39 104.78 103.93 104.7"/><polygon class="cls-35" points="95.32 103.25 96.98 102.77 96.03 103.37 95.32 103.25"/><polygon class="cls-60" points="120.93 95.53 121.8 94.95 122.16 94.98 120.99 95.53 120.76 95.64 120.93 95.53"/><polygon class="cls-15" points="115.22 95.73 115.65 95.43 115.52 95.66 115.22 95.73"/><polygon class="cls-79" points="110.04 94.2 109.61 94.14 110.03 94.17 110.04 94.2"/><polygon class="cls-17" points="109.97 92.7 109.99 92.64 109.99 92.66 109.97 92.7"/><polygon class="cls-64" points="103.69 92.17 103.39 90.35 103.79 91.43 103.69 92.17"/><polygon class="cls-80" points="109.69 87.35 109.79 85.33 109.84 86.96 109.69 87.35"/><polygon class="cls-81" points="122.88 81.98 124.55 79.93 123.53 81.71 122.88 81.98"/><path class="cls-67" d="M93.07,62.94,96,70.69l2.37,10.24c-1.17-3.25-2.4-6.71-3.67-10.28Z"/></svg>