<svg id="Layer_1" data-name="Layer 1" xmlns="http://www.w3.org/2000/svg" xmlns:xlink="http://www.w3.org/1999/xlink" viewBox="0 0 268.27 399.01"><defs><style>.cls-1{fill:url(#radial-gradient);}.cls-2{fill:url(#radial-gradient-2);}.cls-3{fill:url(#radial-gradient-3);}.cls-4{fill:url(#radial-gradient-4);}.cls-5{fill:url(#radial-gradient-5);}.cls-6{fill:url(#radial-gradient-6);}.cls-7{fill:url(#radial-gradient-7);}.cls-8{fill:url(#radial-gradient-8);}.cls-9{fill:url(#radial-gradient-9);}.cls-10{fill:url(#radial-gradient-10);}.cls-11{fill:url(#radial-gradient-11);}.cls-12{fill:url(#radial-gradient-12);}.cls-13{fill:url(#radial-gradient-13);}.cls-14{fill:url(#radial-gradient-14);}.cls-15{fill:url(#radial-gradient-15);}.cls-16{fill:url(#radial-gradient-16);}.cls-17{fill:url(#radial-gradient-17);}.cls-18{fill:url(#radial-gradient-18);}.cls-19{fill:url(#radial-gradient-19);}.cls-20{fill:url(#radial-gradient-20);}.cls-21{fill:url(#radial-gradient-21);}.cls-22{fill:url(#radial-gradient-22);}.cls-23{fill:url(#radial-gradient-23);}.cls-24{fill:url(#radial-gradient-24);}.cls-25{fill:url(#radial-gradient-25);}.cls-26{fill:url(#radial-gradient-26);}.cls-27{fill:url(#radial-gradient-27);}.cls-28{fill:url(#radial-gradient-28);}.cls-29{fill:url(#radial-gradient-29);}.cls-30{fill:url(#radial-gradient-30);}.cls-31{fill:url(#radial-gradient-31);}.cls-32{fill:url(#radial-gradient-32);}.cls-33{fill:url(#radial-gradient-33);}.cls-34{fill:url(#radial-gradient-34);}.cls-35{fill:url(#radial-gradient-35);}.cls-36{fill:url(#radial-gradient-36);}.cls-37{fill:url(#radial-gradient-37);}.cls-38{fill:url(#radial-gradient-38);}.cls-39{fill:url(#radial-gradient-39);}.cls-40{fill:url(#radial-gradient-40);}.cls-41{fill:url(#radial-gradient-41);}.cls-42{fill:url(#radial-gradient-42);}.cls-43{fill:url(#radial-gradient-43);}.cls-44{fill:url(#radial-gradient-44);}.cls-45{fill:url(#radial-gradient-45);}.cls-46{fill:url(#radial-gradient-46);}.cls-47{fill:url(#radial-gradient-47);}.cls-48{fill:url(#radial-gradient-48);}.cls-49{fill:url(#radial-gradient-49);}.cls-50{fill:url(#radial-gradient-50);}.cls-51{fill:url(#radial-gradient-51);}</style><radialGradient id="radial-gradient" cx="122.03" cy="201.29" r="132.06" gradientUnits="userSpaceOnUse"><stop offset="0" stop-color="#979969"/><stop offset="0.26" stop-color="#abaf66"/><stop offset="0.81" stop-color="#d4dc61"/><stop offset="1" stop-color="#c7cc68"/></radialGradient><radialGradient id="radial-gradient-2" cx="141.05" cy="325.03" r="19.37" xlink:href="#radial-gradient"/><radialGradient id="radial-gradient-3" cx="146.75" cy="285.62" r="22.16" xlink:href="#radial-gradient"/><radialGradient id="radial-gradient-4" cx="142.16" cy="254.42" r="20.17" xlink:href="#radial-gradient"/><radialGradient id="radial-gradient-5" cx="145.24" cy="197.62" r="25.68" xlink:href="#radial-gradient"/><radialGradient id="radial-gradient-6" cx="140.09" cy="145.13" r="26.06" xlink:href="#radial-gradient"/><radialGradient id="radial-gradient-7" cx="144.25" cy="90.99" r="26.33" xlink:href="#radial-gradient"/><radialGradient id="radial-gradient-8" cx="146.56" cy="29.94" r="17.16" xlink:href="#radial-gradient"/><radialGradient id="radial-gradient-9" cx="112.15" cy="315.52" r="15.04" xlink:href="#radial-gradient"/><radialGradient id="radial-gradient-10" cx="114.57" cy="278.81" r="17.01" xlink:href="#radial-gradient"/><radialGradient id="radial-gradient-11" cx="117.73" cy="242.67" r="18.31" xlink:href="#radial-gradient"/><radialGradient id="radial-gradient-12" cx="111.35" cy="204.54" r="16.28" xlink:href="#radial-gradient"/><radialGradient id="radial-gradient-13" cx="115.64" cy="165.33" r="13.63" xlink:href="#radial-gradient"/><radialGradient id="radial-gradient-14" cx="114.21" cy="110.11" r="16.65" xlink:href="#radial-gradient"/><radialGradient id="radial-gradient-15" cx="124.67" cy="40.49" r="15.23" xlink:href="#radial-gradient"/><radialGradient id="radial-gradient-16" cx="133.91" cy="10.73" r="8.3" xlink:href="#radial-gradient"/><radialGradient id="radial-gradient-17" cx="175.96" cy="280.39" r="88.08" xlink:href="#radial-gradient"/><radialGradient id="radial-gradient-18" cx="130.56" cy="390.12" r="13.77" xlink:href="#radial-gradient"/><radialGradient id="radial-gradient-19" cx="149.08" cy="376.94" r="8.82" xlink:href="#radial-gradient"/><radialGradient id="radial-gradient-20" cx="178.95" cy="358.92" r="7.65" xlink:href="#radial-gradient"/><radialGradient id="radial-gradient-21" cx="211.7" cy="325.4" r="10.77" xlink:href="#radial-gradient"/><radialGradient id="radial-gradient-22" cx="238.12" cy="282.57" r="14.88" xlink:href="#radial-gradient"/><radialGradient id="radial-gradient-23" cx="248.08" cy="243.48" r="12.43" xlink:href="#radial-gradient"/><radialGradient id="radial-gradient-24" cx="252.93" cy="214.15" r="15.08" xlink:href="#radial-gradient"/><radialGradient id="radial-gradient-25" cx="250.51" cy="185.22" r="12.23" xlink:href="#radial-gradient"/><radialGradient id="radial-gradient-26" cx="124.82" cy="361.81" r="12.03" xlink:href="#radial-gradient"/><radialGradient id="radial-gradient-27" cx="148.78" cy="351.96" r="10.09" xlink:href="#radial-gradient"/><radialGradient id="radial-gradient-28" cx="180.86" cy="325.01" r="11.97" xlink:href="#radial-gradient"/><radialGradient id="radial-gradient-29" cx="202.92" cy="298.69" r="12.95" xlink:href="#radial-gradient"/><radialGradient id="radial-gradient-30" cx="218.4" cy="265.26" r="12.78" xlink:href="#radial-gradient"/><radialGradient id="radial-gradient-31" cx="228.45" cy="231.12" r="10.18" xlink:href="#radial-gradient"/><radialGradient id="radial-gradient-32" cx="231.75" cy="204.05" r="9.38" xlink:href="#radial-gradient"/><radialGradient id="radial-gradient-33" cx="233.31" cy="175.57" r="8.87" xlink:href="#radial-gradient"/><radialGradient id="radial-gradient-34" cx="62.19" cy="254.48" r="92.25" xlink:href="#radial-gradient"/><radialGradient id="radial-gradient-35" cx="96.74" cy="358.55" r="13.39" xlink:href="#radial-gradient"/><radialGradient id="radial-gradient-36" cx="74.59" cy="342.66" r="13.15" xlink:href="#radial-gradient"/><radialGradient id="radial-gradient-37" cx="60.8" cy="307.44" r="14.63" xlink:href="#radial-gradient"/><radialGradient id="radial-gradient-38" cx="49.4" cy="276.13" r="13.41" xlink:href="#radial-gradient"/><radialGradient id="radial-gradient-39" cx="39.95" cy="247.05" r="13.32" xlink:href="#radial-gradient"/><radialGradient id="radial-gradient-40" cx="33.22" cy="200.53" r="13.56" xlink:href="#radial-gradient"/><radialGradient id="radial-gradient-41" cx="30.38" cy="170.43" r="11.35" xlink:href="#radial-gradient"/><radialGradient id="radial-gradient-42" cx="29.28" cy="142.49" r="8.96" xlink:href="#radial-gradient"/><radialGradient id="radial-gradient-43" cx="11.09" cy="142.86" r="13.28" xlink:href="#radial-gradient"/><radialGradient id="radial-gradient-44" cx="12.96" cy="178.18" r="11.41" xlink:href="#radial-gradient"/><radialGradient id="radial-gradient-45" cx="16.14" cy="216.08" r="11.94" xlink:href="#radial-gradient"/><radialGradient id="radial-gradient-46" cx="20.66" cy="258.09" r="10.93" xlink:href="#radial-gradient"/><radialGradient id="radial-gradient-47" cx="32.58" cy="291.81" r="9.65" xlink:href="#radial-gradient"/><radialGradient id="radial-gradient-48" cx="37.07" cy="318.15" r="12.26" xlink:href="#radial-gradient"/><radialGradient id="radial-gradient-49" cx="51.38" cy="344.53" r="9.15" xlink:href="#radial-gradient"/><radialGradient id="radial-gradient-50" cx="69.73" cy="369.69" r="9.49" xlink:href="#radial-gradient"/><radialGradient id="radial-gradient-51" cx="95.84" cy="386.4" r="8.38" xlink:href="#radial-gradient"/></defs><polygon class="cls-1" points="137.65 15.78 100.41 385.71 103.8 386.79 143.64 17.09 137.65 15.78 137.65 15.78 137.65 15.78 137.65 15.78"/><polygon class="cls-2" points="118.89 338.68 164.79 314.36 162.7 311.37 117.31 333.56 118.89 338.68 118.89 338.68 118.89 338.68 118.89 338.68"/><polygon class="cls-3" points="128.55 308.85 167.77 263.2 163.18 262.38 125.72 304.39 128.55 308.85 128.55 308.85 128.55 308.85 128.55 308.85"/><polygon class="cls-4" points="133.98 280.25 154.26 228.75 150.63 228.59 130.07 276.69 133.98 280.25 133.98 280.25 133.98 280.25 133.98 280.25"/><polygon class="cls-5" points="132.9 229.52 162.59 168.92 158.94 165.72 127.89 228.33 132.9 229.52 132.9 229.52"/><polygon class="cls-6" points="127.83 176.1 158.36 116.88 154.94 113.13 121.81 177.12 127.83 176.1 127.83 176.1"/><polygon class="cls-7" points="128.84 121.83 165.11 60.95 160.59 60.15 123.39 119.88 128.84 121.83 128.84 121.83"/><polygon class="cls-8" points="137.07 50.49 159.46 10.73 155.1 9.38 133.67 47.46 137.07 50.49 137.07 50.49 137.07 50.49 137.07 50.49"/><polygon class="cls-9" points="119.25 332.25 109.87 295.67 105.06 295.46 113.98 335.57 119.25 332.25 119.25 332.25 119.25 332.25 119.25 332.25"/><polygon class="cls-10" points="128.64 294.52 105.85 259.31 100.5 262.01 123.89 298.31 128.64 294.52 128.64 294.52 128.64 294.52 128.64 294.52"/><polygon class="cls-11" points="130.64 259.76 115.28 241.08 110.22 220.22 104.82 220.71 126.95 265.11 130.64 259.76 130.64 259.76 130.64 259.76 130.64 259.76"/><polygon class="cls-12" points="127.08 216.56 100.07 187.73 95.61 190.72 123.56 221.34 127.08 216.56 127.08 216.56 127.08 216.56 127.08 216.56"/><polygon class="cls-13" points="125.45 177.34 110.63 148.74 105.83 149.81 109.92 167.31 121.28 181.92 125.45 177.34 125.45 177.34 125.45 177.34 125.45 177.34"/><polygon class="cls-14" points="125.44 125.53 107.73 89.41 102.97 90.35 121.57 130.8 125.44 125.53 125.44 125.53 125.44 125.53 125.44 125.53"/><polygon class="cls-15" points="131.74 54.99 122.76 20.34 118.57 20.15 117.6 45.64 128.74 60.83 131.74 54.99 131.74 54.99 131.74 54.99 131.74 54.99"/><polygon class="cls-16" points="138.68 17.96 135.91 0.88 130.93 0 129.14 10.59 133.14 21.46 138.68 17.96 138.68 17.96 138.68 17.96 138.68 17.96"/><polygon class="cls-17" points="109.86 384.88 213.1 311.49 243.77 176.16 237.22 175.9 206.9 308.36 108.15 379.32 109.86 384.88 109.86 384.88 109.86 384.88 109.86 384.88"/><polygon class="cls-18" points="113.23 384.7 147.69 399.01 147.9 394.3 116.38 381.23 113.23 384.7 113.23 384.7 113.23 384.7 113.23 384.7"/><polygon class="cls-19" points="138.15 374.76 157.52 382.94 160.01 380.65 159.88 379.19 141.64 370.93 138.15 374.76 138.15 374.76 138.15 374.76 138.15 374.76"/><polygon class="cls-20" points="169.32 358.9 178.5 363.84 188.58 363.5 188.22 359.21 172.71 353.99 169.32 358.9 169.32 358.9 169.32 358.9 169.32 358.9"/><polygon class="cls-21" points="198.01 332.09 214.25 330.37 225.38 321.24 223.04 318.7 212.79 324.23 198.53 326.18 198.01 332.09 198.01 332.09 198.01 332.09 198.01 332.09"/><polygon class="cls-22" points="223.01 294.94 241.76 286.65 255.14 273.78 251.88 270.21 221.1 288.74 223.01 294.94 223.01 294.94 223.01 294.94 223.01 294.94"/><polygon class="cls-23" points="234.35 254.44 253.12 248.99 261.82 233.54 258.57 232.52 250.13 243.46 234.84 248.81 234.35 254.44 234.35 254.44 234.35 254.44 234.35 254.44"/><polygon class="cls-24" points="240.05 228.97 268.27 202.57 263.27 199.34 237.59 223.6 240.05 228.97 240.05 228.97 240.05 228.97 240.05 228.97"/><polygon class="cls-25" points="244.78 199.44 260.37 172.45 255.78 171.01 240.64 194.51 244.78 199.44 244.78 199.44 244.78 199.44 244.78 199.44"/><polygon class="cls-26" points="123.42 377 132.5 349.28 128.31 346.62 117.15 375.63 123.42 377 123.42 377"/><polygon class="cls-27" points="148.84 364.76 155.09 341.06 152.06 339.16 145.3 349.45 142.47 364.21 148.84 364.76 148.84 364.76"/><polygon class="cls-28" points="182.58 340.44 184.96 309.42 180.31 308.6 176.76 341.43 182.58 340.44 182.58 340.44"/><polygon class="cls-29" points="206.12 315.63 205.22 281.59 200 280.67 199.71 316.72 206.12 315.63 206.12 315.63"/><polygon class="cls-30" points="224.62 277.89 217.28 248.52 212.18 248.29 219.45 282.23 224.62 277.89 224.62 277.89 224.62 277.89 224.62 277.89"/><polygon class="cls-31" points="235.79 239.17 225.95 218.73 221.12 219.13 230.61 243.51 235.79 239.17 235.79 239.17 235.79 239.17 235.79 239.17"/><polygon class="cls-32" points="238.86 211.06 228.18 192.85 224.63 193.62 226.51 204.68 233.88 215.24 238.86 211.06 238.86 211.06 238.86 211.06 238.86 211.06"/><polygon class="cls-33" points="238.99 183.29 232.26 164.39 227.64 164.78 228.38 176.04 233.51 186.76 238.99 183.29 238.99 183.29 238.99 183.29 238.99 183.29"/><polygon class="cls-34" points="101.81 372.81 58.19 323.22 28.68 131.27 22.56 130.19 59.32 342.19 100.51 378.77 101.81 372.81 101.81 372.81 101.81 372.81 101.81 372.81"/><polygon class="cls-35" points="103.97 372.66 94.61 341.28 89.51 341.06 98.62 376.05 103.97 372.66 103.97 372.66 103.97 372.66 103.97 372.66"/><polygon class="cls-36" points="79.04 357.98 74.4 325.36 70.14 324.61 73.06 360.71 79.04 357.98 79.04 357.98 79.04 357.98 79.04 357.98"/><polygon class="cls-37" points="60.53 326.85 67.29 290.12 62.31 287.78 54.31 327.09 60.53 326.85 60.53 326.85"/><polygon class="cls-38" points="46.28 293.25 57.58 260.8 53.79 259.02 41.23 291.44 46.28 293.25 46.28 293.25"/><polygon class="cls-39" points="37.37 262.8 48.53 232.7 45.62 230.27 34.83 244.77 31.38 263.82 37.37 262.8 37.37 262.8"/><polygon class="cls-40" points="27.61 216.09 44.41 187.98 40.85 184.96 22.02 214.09 27.61 216.09 27.61 216.09"/><polygon class="cls-41" points="26.92 183.49 39.71 160.38 37.6 157.37 26.93 166.78 21.04 182.97 26.92 183.49 26.92 183.49"/><polygon class="cls-42" points="25.84 152.06 37.58 135.8 34.13 132.91 20.98 148.71 25.84 152.06 25.84 152.06 25.84 152.06 25.84 152.06"/><polygon class="cls-43" points="0 127.95 5.77 146.63 19.61 158.03 22.17 154.02 11.74 143.43 6.24 127.7 0 127.95 0 127.95 0 127.95 0 127.95"/><polygon class="cls-44" points="1.79 169.44 21.32 189.82 24.12 186.46 6.38 166.53 1.79 169.44 1.79 169.44 1.79 169.44 1.79 169.44"/><polygon class="cls-45" points="5.31 204.21 12.55 220.83 25.62 229.03 26.98 226.86 11.54 203.14 5.31 204.21 5.31 204.21 5.31 204.21 5.31 204.21"/><polygon class="cls-46" points="8.25 251.39 29.6 267.31 32.79 265.66 33.06 264.11 13.78 248.87 8.25 251.39 8.25 251.39 8.25 251.39 8.25 251.39"/><polygon class="cls-47" points="20.16 290.1 31.86 297.47 45.01 295.06 43.44 290.71 34.11 291.27 24.87 286.14 20.16 290.1 20.16 290.1 20.16 290.1 20.16 290.1"/><polygon class="cls-48" points="21.26 315.65 38.14 325.26 52.88 323.11 52.36 320.73 25.46 311.04 21.26 315.65 21.26 315.65 21.26 315.65 21.26 315.65"/><polygon class="cls-49" points="40.2 343.23 50.65 349.18 61.73 351.05 62.56 346.33 43.8 338.02 40.2 343.23 40.2 343.23 40.2 343.23 40.2 343.23"/><polygon class="cls-50" points="57.14 371.13 70.97 374.37 82.31 372.14 81.48 368.28 59.33 365.01 57.14 371.13 57.14 371.13 57.14 371.13 57.14 371.13"/><polygon class="cls-51" points="85.4 391.99 100.11 391.44 106.29 382.13 102.07 380.81 96.29 385.64 85.94 385.76 85.4 391.99 85.4 391.99 85.4 391.99 85.4 391.99"/></svg>