<svg id="Layer_1" data-name="Layer 1" xmlns="http://www.w3.org/2000/svg" xmlns:xlink="http://www.w3.org/1999/xlink" viewBox="0 0 86.37 342.26"><defs><style>.cls-1{fill:url(#linear-gradient);}.cls-2{fill:url(#linear-gradient-2);}.cls-3{fill:url(#linear-gradient-3);}.cls-4{fill:#687613;}.cls-5{fill:#4f5a0e;}</style><linearGradient id="linear-gradient" x1="56.28" y1="171.38" x2="82.04" y2="171.38" gradientUnits="userSpaceOnUse"><stop offset="0" stop-color="#376235"/><stop offset="0.5" stop-color="#376e21"/><stop offset="1" stop-color="#6c9c53"/></linearGradient><linearGradient id="linear-gradient-2" x1="22.16" y1="171.35" x2="42.01" y2="171.35" xlink:href="#linear-gradient"/><linearGradient id="linear-gradient-3" x1="-5.28" y1="174.6" x2="13.3" y2="174.6" xlink:href="#linear-gradient"/></defs><polygon class="cls-1" points="83.84 9.66 84.15 9.72 84.99 10.89 86.37 22.61 86.37 22.61 79.37 316.52 79.64 315.93 80.54 315.41 81.44 315.93 82.58 324.95 76.79 332.78 72.69 333.11 73.31 331.8 73.07 330.95 72.44 330.59 70.44 331.93 70.43 331.93 70.44 331.92 83.83 9.66 83.84 9.66 83.84 9.66"/><polygon class="cls-2" points="25.28 0.49 48.74 46.24 39.66 219.89 39.56 219.58 50.3 337.32 47.85 340.2 47.88 340.15 44.27 342.26 41.18 340.97 41.52 340.48 41.62 339.44 41.17 338.63 36.91 337.19 36.91 337.19 36.92 337.19 24.74 0.53 25.05 0.44 25.28 0.49 25.28 0.49"/><polygon class="cls-3" points="2.08 15.28 15.98 246.77 15.95 246.72 16.25 249.77 16.23 249.72 21.5 330.61 19.35 334.31 18.68 333.71 16.64 333.64 12.31 331.04 12.35 331.07 0.82 22.43 0.81 22.51 0.86 15.24 0.87 15.22 1.47 14.89 2.08 15.28 2.08 15.28 2.08 15.28 2.08 15.28"/><polygon class="cls-4" points="61.52 335.81 61.11 336.18 60.98 336.89 61.3 337.15 62.6 336.11 61.79 335.57 61.52 335.81 61.52 335.81 61.52 335.81 61.52 335.81"/><polygon class="cls-4" points="62.88 336.57 63.6 338.33 63.9 338.5 64.13 338.42 64.33 338.03 63.76 336.18 62.69 336.13 62.88 336.57 62.88 336.57 62.88 336.57 62.88 336.57"/><polygon class="cls-5" points="83.01 8.76 83.23 8.81 70.44 331.92 70.36 331.96 72.44 330.6 73.07 330.95 73.31 331.8 72.11 333.75 69.85 334.73 63.51 330.06 82.18 9.63 83.01 8.76 83.01 8.76 83.01 8.76 83.01 8.76"/><polygon class="cls-5" points="24.17 0 24.75 0.61 36.92 337.19 36.64 337.03 41.17 338.63 41.62 339.44 41.52 340.48 40.94 341.12 38.85 341.16 33.88 337.81 32.5 73 32.5 73 24.02 0.03 24.17 0 24.17 0"/><polygon class="cls-5" points="0.46 15.05 1.11 15.95 0.81 22.51 0.82 22.43 1.99 311.08 12.35 331.07 12.24 330.99 17.64 333.72 18.68 333.71 19.42 334.56 19.04 335.86 17.75 336.19 13.92 334.98 14.02 335.02 4.09 324.67 4.09 324.67 4.83 124.16 4.83 124.16 4.42 97.09 4.43 97.17 0 15.33 0.46 15.05 0.46 15.05 0.46 15.05 0.46 15.05"/></svg>