<svg id="Layer_1" data-name="Layer 1" xmlns="http://www.w3.org/2000/svg" xmlns:xlink="http://www.w3.org/1999/xlink" viewBox="0 0 429.79 267.99"><defs><style>.cls-1{fill:url(#radial-gradient);}</style><radialGradient id="radial-gradient" cx="214.89" cy="134" r="179.07" gradientUnits="userSpaceOnUse"><stop offset="0" stop-color="#94b598"/><stop offset="0.5" stop-color="#b1caa0"/><stop offset="1" stop-color="#aec9a8"/></radialGradient></defs><path class="cls-1" d="M71.6,0,67.93,1.55l.91,48.72L64.4,45.45l-2.67,1.32,65.4,117.63-62-74.13L62.42,92.6,62,95.34,44.5,38.44l-3.64,1.84,8.06,39.55L34.26,42.66l-3.63,4.07,6.42,29.55L27.23,48l-1.29-.29,43.88,81.39L55.61,109.42l-2.09.7,10.07,26.11L42.07,103.52l-3.56,1.2,7.92,20.88L24.1,89.9,22.28,91l9.23,22.43L8.69,86.2l-1.87.72,27.86,43.49L2.77,104.56,0,105.78l4.17,17.43,127,60.1-47-23.71-7.88,3.33,3.09,8.18,24.36,13.47-7,1.38L63.5,164.58l-1.65,1.71L192.2,218.15l-62.28-13.76-.79,1.7,2.89,5.5-.13.21L115.69,201l-3.42,3-.26,2.45-20.64-9.77-1.21,1.31,5.28,6.69L76.73,187.77l-3,2,.45,5.5L64.75,184.1l-2-.29,1.28,10.71-9.94-11-.92.2,3.22,15.66L78.3,210.57l-7.12-.66-.69,4.77L130,220.77l0,.21-19.78,0,.07,3.41L171,226.1l.82,3.54,45.67,11.63-14,26.72,40.18-.69,6.52-19.24,14.57-4.56,5.71-9.67,59.16-14.2-4.93-7.29-32.35,8.31-.17-.63,88.54-51.57-2.89-4.92L371.16,165l7.4-8.4-2.5-3.27-4.09-.07-32.05,34,16-15.11,0-2.89-4.34-2-74.87,43.85,43.76-30.44-.37-.87,46.26-30.07-1.72-3.83-42.55,18.3,66.79-40.81-.05-2-28.73,7.81,59.36-28.81-.77-3-24.07,7.31,35.19-30.47-2.54-2.25-55,39.88-1.36-.45,41.81-67.52-3.84-2.67L381.14,93.3l-1.77-.56,18-55.18-4.74.27-8,30.57L382.19,56l-5.94,7.64.34,5.19-9.16,6.84L357,120.36l-5.78,3,16-94-3.77.74-23.34,87.33L339,115.81l8-71.12-2.14-1-5.48,2.62-10.37,79-3.05-12.13-8.25,40-1,0,8.43-89.75-1.47.07-8,23.69,3.94-34.47-2-.35-3.86,3.1L307,155.24l.05-.07-3.25,14.7,1.29-84.14L303.36,85l-6,18.78-2.88-53.2-3.07,1.06-1.12,130.56-.4.4L276.34,93.3,274.1,94l-1,102.75-.77.09-1.3-1.21-6-77.07-2.52-1.14-8.21,88.37-2.3-1.16,2.94-73.8L253.2,130,251,131.26l-2.56-7.07-3.81-.91-3.16,2,2.84,9.49-4,7.76,5.87,7-2.38,1.35-2,5.83,3.56,8-3.21,5.2,3,8.66-3.49-3.05-2,.29,2.22,31.64-3.5-18.08-1.89-1-10.27,19.46-1.58-1.52L238,154.15,235.75,153l-15.27,28.08-.66-.56,8.73-39.46-2.5-.06-9.11,21.57-1.28.2,11-42.23-2.7-1.66-12.45,20.74L225.94,98l-4.11-2.44L211.94,116l-1.28-17.09,13.27-13.48L223.71,75l-2.45-1.46-2.64.64-2.92,5.44-8.12-42L203.8,38l-1.58,36.2L196.54,74l.53,30.24-2-2.73-4.64.84.7,20.42-2.28-.6-4.63,2.68,22.51,44L186.62,141l-5.18,2.62,34,65.66-1,.91-21-30.06-3.65,3.46-1.52-.45-5.38-19.41-1.75.87-1.74,5.4-2.54-.26,2.19-14.66-2.86-.6L169.62,163l7-80.29L171,81.87l1.37,25.7,0-.12h0l-7.28-25.86-4.19.35,4.61,56.55-.7.38-2.61-.74-9.1-34.83-.28,0L150.17,128l4.32-77.2-2.22-.56-2.57,1.27-.36,31.67L148,27.08l-1.63-.55L144,28.79l-.53,12.13L141.86,9.08l-4-3.88-2.92,1.33L138.47,95,122.18,32.84l-3.66,7.24-1.92-13.5-4.34.39,9.61,55.42-5.28-5-3.32.19-3,6.62,30.54,42.88-9.77-2.81-1.45,2.54,22.2,22.59,0-.12h0l-8.48-4.88-3.43,2.26,54.68,60.91L168,189.31l-3.62,3.74-9.22-26.44-4.17,9.81-6.84-15.54-1.86,1-.82,7.72-11.33-32.86-3.22.83,3.47,14-16.48-35.66-2.93-.19-2.44,2.66,1.41,9.79-1.84-.69-6-38.3-2.16,1-2.12,12.92-1.2-.64L92.76,57.07l-2.83-2L88.12,56.4l-.49,19.29L81.71,30.6l-2.12,1.89-.27,13.67-.22.22L74.51,2.48,71.6,0ZM74,67.6,69.64,52.52,74,67.6Zm79.45,9.66-1.15-24,.8.22.35,23.75Zm159.78,2.15L317,56.16l.69-.38-4.45,23.63Zm84.53,19.08,29-23.21-2.62,8.28L397.77,98.49ZM206.4,84.59l-2-8.27,2.81,3.59-.77,4.68Zm-93.62,36.78-1-2.13.33-.28.62,2.41Zm83.11,8.2-2.13-4,2.35,1.63-.22,2.38ZM85.48,144.86,71.65,132,86,144.74l-.53.12Zm147,26.51,3.8-15.1-3.8,15.1ZM369.24,161l2.32-3.42,2.73-.62-5.05,4ZM148.58,192l-10.79-4.61L150,189.74l-.94,2.14-.51.16Z"/></svg>