<svg id="Layer_1" data-name="Layer 1" xmlns="http://www.w3.org/2000/svg" xmlns:xlink="http://www.w3.org/1999/xlink" viewBox="0 0 317.99 394.85"><defs><style>.cls-1{fill:url(#radial-gradient);}.cls-2{fill:#a7bcdf;}.cls-3{fill:url(#radial-gradient-2);}.cls-4{fill:url(#radial-gradient-3);}.cls-5{fill:#92a5c4;}.cls-6{fill:url(#radial-gradient-4);}.cls-7{fill:url(#radial-gradient-5);}.cls-8{fill:#fff;}</style><radialGradient id="radial-gradient" cx="159" cy="195.87" r="178.39" gradientUnits="userSpaceOnUse"><stop offset="0" stop-color="#6b8c9c"/><stop offset="0.45" stop-color="#86adc2"/><stop offset="0.99" stop-color="#a6c3e1"/></radialGradient><radialGradient id="radial-gradient-2" cx="136.96" cy="386.21" r="0.59" gradientUnits="userSpaceOnUse"><stop offset="0" stop-color="#8e7d83"/><stop offset="0.44" stop-color="#92a5c4"/><stop offset="1" stop-color="#92a5c4"/></radialGradient><radialGradient id="radial-gradient-3" cx="138.01" cy="387.94" r="0.06" xlink:href="#radial-gradient-2"/><radialGradient id="radial-gradient-4" cx="136.84" cy="387.47" r="1.22" xlink:href="#radial-gradient-2"/><radialGradient id="radial-gradient-5" cx="86.8" cy="364.08" r="228.07" xlink:href="#radial-gradient-2"/></defs><path class="cls-1" d="M113.66,0,97.22,3.46l-4.16,5,6.88,152.89-5.31,6.36L58.23,12.68,50.41,9.53l-21.64,12L27.32,25l1.87,8.24L14.27,37.47,6.7,47,37.5,167.54l-.09,0-3.89,1.26-4.79,6,.5,14.32L17.71,171.19l-6.94.05L.85,177,0,179.18l11.18,34.6-2.75.64-4.32,3.94L1.71,224,68.39,333.29l-.18-.27,3.43,3.23,3.61-2.53h.1l-53.95-118,.87-2.14,1.81-1.65,7.22-.06,6.92,6.33,0-.06h0v0h0l0,.2v-.14h0v0l25.1,58.9.08-.05h0l0,0,23.35,54.31,0,0,0,.05v0l0-.05-2.19-.58-.76.58-.16.86,20.94,2.24h.07l-.07,0,9.12,2.1,8.21-3,.44.51,4,14.66.22-14.66h0v0l121-116v0l0,0,.06,0L126,355.24l.17,3.7,4.67-2.73h0L262.17,211.34l11.56-3.68,7.41,1.41.42.61-1.49,17L212,320.82,138.37,363.4l.13,1.06L131,368.05l-1.44-.43-.45.09,17.09,24L219,367.61l9.06-14.84-4.54-16.3-2.38-2-22.87,3.76,87.94-116.49.14,0,2.15-1,4.92-6.86-.26.17L318,167.19l-1.67-8.41-16.83-9.93-7.15,2.48-40.43,57.8,13.89-41.94-.38-2.46L253.07,153.9l-9.72,1.56-30.42,55.87-1.25-11.57-12.2-5.07-4.68.68,18.56-44.31-1.84-4.95-10.83-7.36-4.89.21-47.73,91.87.43-2.12h0l6.88-49.36-.11.08,4.43-56.27-2.76-5-5.51-2.47-16.46.76L126,6,118.42.37,113.66,0ZM74.85,165.09l-5.17-10.5-9.76-6.87L30.55,33.79l.87-.64-1.27-8,.51-1.26L50,14.14l3.57.81,38,157.33L93,173.52h.15l-.69,6.53v0l-8.34-13.14-7-2-2.21.33h0l0-.18ZM47.59,174.4l-4.75-6.21-3.35-.8L13.3,45.36,28,38.4l.46.47L56,148.05h0v0l-8,4.18L47.89,175l0-.07,0,.07-.29-.61Zm94.78-55,10,.55,2,1.59-1.76,40.28.19-.59,0,.13.05-.13-5.5,38.32.11,0,0,0h0l-.11.08-11.42,54.17v-.07l0,.07L135,119.53l7.34-.14ZM95,317.67,70.31,215.86l-10.15-8.69-9.27-51.83,6-2.77,0,0v.07L58.63,154l1.74-1.14v0l3.93,2.66L95.14,318.6l0-.1v.1l-.17-.93Zm12.1-154.27,2.53-.2,7.21,7.91.07-.09h0v0l9.59,132,1.63.57-3.44,20.82L121,328.13l-.51,2.8-3.78,1.88-15.68-1.87-.29-.74h0l9.33-3.55L94.53,184.44h0v0h.53l.71-.55.87-11.62,3.09-4.94,6.32-3.78h.15l0-.06h0l0,0,.89-.07Zm-68,50.73.5-.42L31.62,178,33.25,174l2.46-1.83,5.23-.3,14.65,33.37,1.73.14h0l.24,1v0L49,210.87l16.61,63.29,0-.05v.05l-2-4.54-.08.08,0,0,0,0,0-.08L38.4,214l.08.07-.07-.08.44.19.21,0ZM16.34,215l-2.7-1.17L3.2,183.69l1.57-4.95L16,174.59,20,177l11.15,27.11,0-.19h0v0l2.44,5.87,0,0v0l-5.12-1.44-7.62,2.27L18.65,214l-.36,2.6h0v0L16.34,215Zm177.74-15.13,4.77-1,7.61,2.75.66.89-78.74,119v0l0,0,2.86-20.62L190,207l-.22.23v0l0,0,3.18-7.37h0v0l.53.15.55-.1ZM38,213.52l-.82-.94.44-.34.51,1.43-.13-.15Z"/><polygon class="cls-2" points="86.64 338.8 87.51 338.49 86.6 338.39 86.64 338.8 86.64 338.8 86.64 338.8 86.64 338.8"/><polygon class="cls-2" points="125.75 350.36 125.5 350.57 125.93 354.32 126.35 349.33 125.75 350.36 125.75 350.36 125.75 350.36 125.75 350.36"/><polygon class="cls-3" points="137.23 386.56 137.44 386.89 136.49 385.52 137.23 386.56 137.23 386.56"/><polygon class="cls-4" points="138.09 387.95 138.09 387.96 137.93 387.92 138.09 387.95 138.09 387.95"/><polygon class="cls-5" points="49.98 14.14 30.66 23.89 30.15 25.15 31.42 33.15 30.55 33.78 33.23 36.55 59.92 147.71 65.56 150.41 74.88 165.27 77.93 164.89 86.52 168.98 92.42 180.06 93.13 173.53 91.53 172.27 53.94 15.18 49.98 14.14 49.98 14.14 49.98 14.14 49.98 14.14"/><polygon class="cls-5" points="27.96 38.39 13.3 45.36 39.49 167.38 42.84 168.19 47.88 175.01 46.23 156.59 47.98 152.25 55.96 148.06 27.97 38.4 27.96 38.39 27.96 38.39 27.96 38.39 27.96 38.39"/><polygon class="cls-5" points="56.86 152.57 51.22 155.02 50.6 155.89 60.16 207.17 66.99 212.23 95.12 318.6 65.09 156.36 60.38 152.83 58.63 154 56.89 152.66 56.88 152.59 56.86 152.57 56.86 152.57 56.86 152.57 56.86 152.57"/><polygon class="cls-5" points="39.53 171.5 34.04 173.15 31.53 179.14 39.55 213.71 39.06 214.13 38.85 214.16 38.41 213.97 63.48 269.61 63.43 269.69 63.52 269.61 65.56 274.16 48.97 210.87 57.58 206.38 57.35 205.34 55.59 205.2 40.66 171.68 39.53 171.5 39.53 171.5 39.53 171.5 39.53 171.5"/><polygon class="cls-5" points="14.29 174.63 4.77 178.74 3.2 183.69 13.64 213.83 18.28 216.63 19.51 212.16 23 209.07 33.59 209.75 31.16 203.88 31.11 204.1 20.24 178.67 13.39 187.68 6.71 188.43 5.36 187.68 4.47 186.16 5.34 182.35 17.37 175.55 17.7 175.57 16.54 174.72 14.29 174.63 14.29 174.63 14.29 174.63 14.29 174.63"/><polygon class="cls-5" points="15.94 179.33 16.79 179.97 17.07 178.94 15.94 179.33 15.94 179.33 15.94 179.33 15.94 179.33"/><polygon class="cls-5" points="109.21 163.19 106.16 163.47 106.22 163.54 103.6 164.09 99.07 168.06 95.19 178.9 95.78 183.89 95.07 184.44 94.55 184.43 110.09 326.64 100.76 330.19 101.06 330.94 116.73 332.81 120.5 330.93 121.02 328.13 124.64 324.38 128.08 303.56 126.46 302.98 116.87 171.01 116.79 171.12 111.84 164.31 109.58 163.2 109.21 163.19 109.21 163.19 109.21 163.19 109.21 163.19"/><polygon class="cls-5" points="147.08 119.22 135.03 119.53 135.9 253.75 147.34 199.59 147.45 199.51 147.32 199.54 152.83 161.22 152.6 161.86 155.13 122.75 153.41 120.55 147.08 119.22 147.08 119.22 147.08 119.22 147.08 119.22"/><polygon class="cls-5" points="198.85 198.82 193.53 199.97 193 199.82 189.8 207.2 190.07 206.96 131.23 300.87 128.37 321.48 197.69 241.84 207.12 202.47 206.46 201.58 198.85 198.82 198.85 198.82 198.85 198.82 198.85 198.82"/><path class="cls-6" d="M138.08,388l-.15,0,.16,0h0Zm-1.59-2.43.95,1.37-.95-1.37Z"/><path class="cls-7" d="M281.88,211l-.57-1.71-5.91-1.68-13.11,3.69L126.17,358.94l-.16-3.7L247.63,218l-121,115.94-.23,14.69-4-14.66-.43-.52-8.22,3-9.12-2.1,0,0-21-2.24.16-.86.76-.58,2.18.57h0v-.09L63.54,277l-.12.07L38.33,218.16l0,.23,0-.28-.05.08-.07,0-4.74-5.12-5-1.73-4.8.89-1.85,2.3,53.6,119.2h-.1l-20,16.59-.46,2.88,26.87,38.05,61.57,3.61,2.55-1.42.26-2.06-17-23.66.46-.09,1.7.41,7.26-3.57-.13-1.06,85.42-54.57L281.88,211ZM87.36,338.55l-.72.25,0-.41.92.1-.16.06Zm38.56,15.59-.42-3.58.86-1.26-.43,5v-.18Zm.79,18.26,0-1.93,0,2v-.12Zm-.36,11.76h0Zm2.54,4.06.28-.91-.35,1,.07-.11Zm9.2-.27h0l-.16,0,.15,0-.21-.37.22.37Zm-.86-1.39.21.33-.95-1.37.74,1Z"/><polygon class="cls-8" points="104.29 1.31 100.99 2.66 97.25 8.89 97.78 13.77 99.04 15.42 118.87 15.71 122.91 12.01 123.19 8.59 119.89 4.12 104.29 1.31 104.29 1.31 104.29 1.31 104.29 1.31"/><path class="cls-8" d="M195.83,142.33l-1.3.31-1.29,1.62,0,2.24,7.7,6.66,7.85,1.58,1.82-2.26-.63-2.3-14.13-7.85Zm.76,3-.23.52-.13-.52Zm-.6,0,0,0,0,0Zm9.8,5.55.14-.3,1.12,1-1.49-.32v0l.23-.31Zm2.11.74,0,0h0l.05,0Z"/><path class="cls-8" d="M136.13,119.25l-1.49,1.93.52,2.77,5,3.09,14.4.5,2-1.63-.27-3-20.21-3.69Zm1.78,2.93,0,0,0,0Zm9.23,1.76,3.8.42h-3.83l0-.43Zm1.9.16.31,0-.31,0Zm4.58.07v0h0v0Z"/><polygon class="cls-8" points="148 122.61 146.79 123.19 145.99 124.37 146.87 125.25 147.09 125.26 149.24 126.9 150.91 127.21 151.5 126.87 151.84 125.58 151.35 124.79 151.59 124.17 151.34 123.55 150.5 122.96 148 122.61 148 122.61 148 122.61 148 122.61"/><polygon class="cls-8" points="204.38 149.72 204.35 151.47 205.48 153.65 206.98 153.56 207.07 153.59 208.01 153.47 208.57 152.74 208.57 152.06 205.26 149.36 204.38 149.72 204.38 149.72 204.38 149.72 204.38 149.72"/><path class="cls-8" d="M247.62,158.22l-1.42.5-1,1.37.33,3.09,4.87,4.29,9.25,1.27,1.12-.47.68-2.76-3.94-4.74-9.88-2.55Zm.58,2.49,0,0,0,0Zm.08.21-.15.61-.07-.57.22,0Zm-.38.1-.09.08.09-.08Z"/><polygon class="cls-8" points="297.51 154.4 296.73 158.13 298.94 162.21 310.48 165.03 312.39 163.6 312.84 160.91 312.05 158.94 308.27 155.93 299.18 153.8 297.51 154.4 297.51 154.4 297.51 154.4 297.51 154.4"/><path class="cls-8" d="M45.19,16.32,34.84,23l-.28,1.45,2,2.92,4.3.36,9.48-7.78.2-1.54-1-1.32-4.33-.76Zm2.69,6.1-.16.12.16-.12Z"/><path class="cls-8" d="M20.61,40.18,14.48,42.7,13,45.5l.28,4.23L15,51l3.48-.06,3.64-2.26,2.58-6.1-.9-1.93-3.15-.45Zm-3.95,6h0l-.05,1.11h-.08l.12-1.11Zm-.53.93.09.07-.09-.07Z"/><polygon class="cls-8" points="105.93 165.75 102.87 166.29 101.02 167.98 101.38 170.3 104.64 173.04 108.13 172.7 110.09 170.78 110.33 167.61 109.11 166.3 105.93 165.75 105.93 165.75 105.93 165.75 105.93 165.75"/><path class="cls-8" d="M56,154.63l-3.08,1.2,0,2.5L55,160.21l2.13.28,1.66-1,.81-1.77-.19-.94L58.7,156l.09-.42-1-1-1.84,0Zm-.66,2.12-.1,1-.57-.71.67-.3Zm-.64.23,0,.05h0l0-.05Zm-.11.15-.07.16.07-.16Z"/><path class="cls-8" d="M77.84,168l-5.46,1.46-1.1,2.63.35,1.43,2.28,1.92,4.56-.12,3.15-1.63,1.08-2.09-.23-1.75-1.31-1.28L77.84,168Zm2.24,3.48-.15-.93.28.11.14.14,0,.15-.33.64,0-.11Zm.16-.83h0l0,0,0,0Zm-5.77.58.11,1.26-.3-.49.12-.73.07,0Z"/><path class="cls-8" d="M194.37,201.1l-1.56,2.21,1.08,2.86,3.13,2.21,5.4.82,2.06-.59,1.52-1.84-1.16-2.91-10.47-2.76Zm1,2.05,0,0,0,0Zm0,.06h0l-.07,0,.07,0Zm0,0,0,.19-.11.16v-.33l.09,0Zm-.13,0-.08.1.07-.1Zm0,.05v0h0v0Zm0,0h0l0,.06,0-.06Zm8.25,2.83-.32-.62.46.71-.12.07,0-.16Zm-1.46-.53h0Zm1.74.37-.07.17.07-.17Zm-.18.29-.08.07h0l.08-.07Z"/><path class="cls-8" d="M267.27,209.6l-1.69.76-1.53,2,.37,2.26,12,8.93,2.92-1.47,1.45-2.31,0-1.62-1-2.1.26-.25-.25-.93-8.93-5.29-3.6,0Zm0,3.29,0,.16,0-.16Zm6.72,3.77.37.49-.45-.42.08-.07Z"/><polygon class="cls-8" points="12.58 174.66 13.62 175.7 14.66 174.66 13.62 173.62 12.58 174.66 12.58 174.66 12.58 174.66 12.58 174.66"/><polygon class="cls-8" points="39.05 172.36 31.09 176.49 30.82 178.23 31.51 179.47 34.36 180.64 38.8 179.59 41.23 177.09 41.42 174.7 40.62 173.97 40.63 173.25 40.04 172.49 39.05 172.36 39.05 172.36 39.05 172.36 39.05 172.36"/><path class="cls-8" d="M57.71,212.09l-4.25,2.51L53.05,218l1,1.48,7.2,1.87,2-.81.8-1.52-1.42-4.71-1.5-1.4-3.38-.85Zm1.78,4.8-.11.08.11-.08Z"/><polygon class="cls-8" points="30.37 215.23 28.1 215.72 27.33 217.31 30.09 222.05 32.71 223.9 34.14 223.72 34.94 222.75 35.32 222.67 36.15 221.96 36.39 220.13 33.16 215.96 30.37 215.23 30.37 215.23 30.37 215.23 30.37 215.23"/><path class="cls-8" d="M11.1,218.21l-1.73,3,3,8.16,5.37,2.34,1.12-.89L20,225.61l-.75-2.53-5.12-4.83-3,0Zm1,1.76L12,220l.15-.06Zm.15,0Zm0,0-.83,2.06.18-1.55.29-.44.36-.07Zm-2.89,1.38,0-.2,0,.2Zm0-.2v0Z"/><path class="cls-8" d="M215.64,337.84l-1.67,1-.5-.08L210.33,341l-2.24,4.31,3,9.61,2.58,2.6,5.16.57,3.19-4.72-1.5-13.19-1.93-1.8-2.94-.51Zm-3.93,7.6.09,1-.21.43.12-1.42Z"/><path class="cls-8" d="M17.39,175.56l-12,6.79-.87,3.81,1.54,2,4,.37,5.13-1.9,3.65-3.88,1.37-5L20,177l-1-1.05-1.59-.36Zm-.6,4.41-.85-.64,1.14-.39-.29,1Z"/></svg>