<svg id="Layer_1" data-name="Layer 1" xmlns="http://www.w3.org/2000/svg" xmlns:xlink="http://www.w3.org/1999/xlink" viewBox="0 0 261.6 264.09"><defs><style>.cls-1{fill:url(#radial-gradient);}.cls-2{fill:url(#radial-gradient-2);}.cls-3{fill:url(#radial-gradient-3);}.cls-4{fill:url(#radial-gradient-4);}.cls-5{fill:url(#radial-gradient-5);}.cls-6{fill:url(#radial-gradient-6);}.cls-7{fill:url(#radial-gradient-7);}.cls-8{fill:url(#radial-gradient-8);}.cls-9{fill:url(#radial-gradient-9);}.cls-10{fill:url(#radial-gradient-10);}.cls-11{fill:url(#radial-gradient-11);}.cls-12{fill:url(#radial-gradient-12);}</style><radialGradient id="radial-gradient" cx="138.47" cy="132.05" r="93.99" gradientUnits="userSpaceOnUse"><stop offset="0" stop-color="#a17665"/><stop offset="0.64" stop-color="#957672"/><stop offset="1" stop-color="#bf8f8a"/></radialGradient><radialGradient id="radial-gradient-2" cx="172.08" cy="174.91" r="54.43" xlink:href="#radial-gradient"/><radialGradient id="radial-gradient-3" cx="218.05" cy="167.71" r="37.72" xlink:href="#radial-gradient"/><radialGradient id="radial-gradient-4" cx="238.35" cy="134.76" r="15.82" xlink:href="#radial-gradient"/><radialGradient id="radial-gradient-5" cx="103.95" cy="119.22" r="53.89" xlink:href="#radial-gradient"/><radialGradient id="radial-gradient-6" cx="108.62" cy="87.99" r="26.25" xlink:href="#radial-gradient"/><radialGradient id="radial-gradient-7" cx="166.62" cy="85.51" r="35.94" xlink:href="#radial-gradient"/><radialGradient id="radial-gradient-8" cx="148.84" cy="69.36" r="24.61" xlink:href="#radial-gradient"/><radialGradient id="radial-gradient-9" cx="113.96" cy="46.5" r="18.29" xlink:href="#radial-gradient"/><radialGradient id="radial-gradient-10" cx="87.83" cy="174.53" r="37.91" xlink:href="#radial-gradient"/><radialGradient id="radial-gradient-11" cx="25.93" cy="199.63" r="29.57" xlink:href="#radial-gradient"/><radialGradient id="radial-gradient-12" cx="31.66" cy="159.74" r="16.9" xlink:href="#radial-gradient"/></defs><polygon class="cls-1" points="131.56 2.07 123.19 69.41 147.57 130.71 138.53 264.09 144.47 260.31 153.75 126.47 131.1 62.14 138.3 0 131.56 2.07 131.56 2.07 131.56 2.07"/><polygon class="cls-2" points="209.58 110.89 186.29 146.95 180.7 185.75 129.35 237.42 136.23 238.94 187.98 187.69 214.81 115.61 209.58 110.89 209.58 110.89 209.58 110.89"/><polygon class="cls-3" points="256.37 136.9 208.91 156.63 174.5 192.59 178.28 198.53 214.78 161.33 261.6 141.62 256.37 136.9 256.37 136.9 256.37 136.9"/><polygon class="cls-4" points="243.7 116.02 226.13 148.77 231.35 153.49 250.58 117.55 243.7 116.02 243.7 116.02 243.7 116.02"/><polygon class="cls-5" points="123.46 120.01 65.95 56.96 60.01 60.75 137.55 143.2 138.1 179.95 144.98 181.48 147.9 149.14 123.46 120.01 123.46 120.01 123.46 120.01"/><polygon class="cls-6" points="100.01 53.84 94.07 57.62 117.23 122.15 123.17 118.36 100.01 53.84 100.01 53.84 100.01 53.84"/><polygon class="cls-7" points="177.8 38.34 149.15 108.81 148.4 132.96 155.45 132.69 184.84 38.07 177.8 38.34 177.8 38.34 177.8 38.34"/><polygon class="cls-8" points="156.45 38.07 134.18 100.92 140.91 98.85 163.5 37.8 156.45 38.07 156.45 38.07 156.45 38.07"/><polygon class="cls-9" points="118.89 47.43 110.88 40.73 105.49 25.79 98.45 26.06 122.73 67.21 129.47 65.14 118.89 47.43 118.89 47.43 118.89 47.43"/><polygon class="cls-10" points="123.87 162.82 58.68 158.67 36.61 182.73 42.88 185.95 63.97 165.07 113.27 166.39 132.01 190.38 139.05 190.11 123.87 162.82 123.87 162.82 123.87 162.82"/><polygon class="cls-11" points="48.08 166.83 0 230.9 6.88 232.43 51.87 172.77 48.08 166.83 48.08 166.83 48.08 166.83"/><polygon class="cls-12" points="51.87 165.05 14.42 147.4 11.2 153.66 52.13 172.09 51.87 165.05 51.87 165.05 51.87 165.05"/></svg>