<svg id="Layer_1" data-name="Layer 1" xmlns="http://www.w3.org/2000/svg" xmlns:xlink="http://www.w3.org/1999/xlink" viewBox="0 0 218.16 260.44"><defs><style>.cls-1{fill:url(#radial-gradient);}.cls-2{fill:url(#radial-gradient-2);}.cls-3{fill:url(#radial-gradient-3);}.cls-4{fill:url(#radial-gradient-4);}.cls-5{fill:url(#radial-gradient-5);}.cls-6{fill:url(#radial-gradient-6);}.cls-7{fill:url(#radial-gradient-7);}.cls-8{fill:url(#radial-gradient-8);}.cls-9{fill:url(#radial-gradient-9);}.cls-10{fill:url(#radial-gradient-10);}.cls-11{fill:url(#radial-gradient-11);}</style><radialGradient id="radial-gradient" cx="114.87" cy="130.22" r="93.37" gradientUnits="userSpaceOnUse"><stop offset="0" stop-color="#5b464d"/><stop offset="0.5" stop-color="#735561"/><stop offset="1" stop-color="#8e7d83"/></radialGradient><radialGradient id="radial-gradient-2" cx="140.66" cy="178.24" r="54.7" xlink:href="#radial-gradient"/><radialGradient id="radial-gradient-3" cx="170.97" cy="178.24" r="37.4" xlink:href="#radial-gradient"/><radialGradient id="radial-gradient-4" cx="72.72" cy="139.15" r="54.38" xlink:href="#radial-gradient"/><radialGradient id="radial-gradient-5" cx="80.14" cy="108.89" r="25.68" xlink:href="#radial-gradient"/><radialGradient id="radial-gradient-6" cx="136.75" cy="98.83" r="36.49" xlink:href="#radial-gradient"/><radialGradient id="radial-gradient-7" cx="135.58" cy="69.69" r="24.87" xlink:href="#radial-gradient"/><radialGradient id="radial-gradient-8" cx="111.53" cy="44.38" r="17.92" xlink:href="#radial-gradient"/><radialGradient id="radial-gradient-9" cx="50.36" cy="188.78" r="38.61" xlink:href="#radial-gradient"/><radialGradient id="radial-gradient-10" cx="30.41" cy="202.66" r="29.67" xlink:href="#radial-gradient"/><radialGradient id="radial-gradient-11" cx="43.01" cy="164.3" r="17.31" xlink:href="#radial-gradient"/></defs><polygon class="cls-1" points="129.76 0.92 92.99 260.44 99.48 257.7 136.75 0 129.76 0.92 129.76 0.92 129.76 0.92"/><polygon class="cls-2" points="188.56 121.21 88.38 232.61 94.91 235.26 192.93 126.74 188.56 121.21 188.56 121.21 188.56 121.21"/><polygon class="cls-3" points="213.79 154.35 123.78 195.63 126.53 202.12 218.16 159.88 213.79 154.35 213.79 154.35 213.79 154.35"/><polygon class="cls-4" points="89.44 142.93 43.23 71.18 36.74 73.92 93.89 204.47 100.42 207.12 108.69 175.72 89.44 142.93 89.44 142.93 89.44 142.93"/><polygon class="cls-5" points="77.34 73.78 70.85 76.51 82.94 144 89.43 141.25 77.34 73.78 77.34 73.78 77.34 73.78"/><polygon class="cls-6" points="155.63 54.17 110.88 142.57 117.87 143.48 162.61 55.08 155.63 54.17 155.63 54.17 155.63 54.17"/><polygon class="cls-7" points="148.31 40.56 115.87 98.83 122.86 97.91 155.29 41.47 148.31 40.56 148.31 40.56 148.31 40.56"/><polygon class="cls-8" points="116.09 46.55 106.48 22.98 99.49 22.07 116.58 66.69 123.57 65.77 116.09 46.55 116.09 46.55 116.09 46.55"/><polygon class="cls-9" points="89.82 181.54 26.24 166.59 0.47 186.64 6.11 190.86 30.39 173.78 78.78 183.29 93.26 210.07 100.25 210.98 89.82 181.54 89.82 181.54 89.82 181.54"/><polygon class="cls-10" points="58.09 173.75 0 228.92 6.53 231.57 60.83 180.24 58.09 173.75 58.09 173.75 58.09 173.75"/><polygon class="cls-11" points="62.11 172.63 28.13 148.98 23.91 154.63 61.2 179.61 62.11 172.63 62.11 172.63 62.11 172.63"/></svg>