<svg id="Layer_1" data-name="Layer 1" xmlns="http://www.w3.org/2000/svg" xmlns:xlink="http://www.w3.org/1999/xlink" viewBox="0 0 209.8 164.02"><defs><style>.cls-1{fill:url(#radial-gradient);}.cls-2{fill:url(#radial-gradient-2);}.cls-3{fill:url(#radial-gradient-8);}.cls-4{fill:url(#radial-gradient-9);}.cls-5{fill:url(#radial-gradient-10);}.cls-6{fill:url(#radial-gradient-12);}.cls-7{fill:url(#radial-gradient-14);}.cls-8{fill:url(#radial-gradient-15);}.cls-9{fill:url(#radial-gradient-16);}.cls-10{fill:url(#radial-gradient-17);}.cls-11{fill:url(#radial-gradient-18);}.cls-12{fill:url(#radial-gradient-19);}.cls-13{fill:url(#radial-gradient-20);}.cls-14{fill:url(#radial-gradient-23);}.cls-15{fill:url(#radial-gradient-24);}.cls-16{fill:url(#radial-gradient-25);}.cls-17{fill:url(#radial-gradient-29);}.cls-18{fill:url(#radial-gradient-31);}.cls-19{fill:url(#radial-gradient-37);}.cls-20{fill:url(#radial-gradient-38);}.cls-21{fill:url(#radial-gradient-39);}.cls-22{fill:url(#radial-gradient-42);}.cls-23{fill:url(#radial-gradient-44);}.cls-24{fill:url(#radial-gradient-45);}.cls-25{fill:url(#radial-gradient-46);}.cls-26{fill:url(#radial-gradient-47);}.cls-27{fill:url(#radial-gradient-51);}.cls-28{fill:url(#radial-gradient-52);}.cls-29{fill:url(#radial-gradient-53);}.cls-30{fill:url(#radial-gradient-54);}.cls-31{fill:url(#radial-gradient-56);}.cls-32{fill:url(#radial-gradient-57);}.cls-33{fill:url(#radial-gradient-58);}</style><radialGradient id="radial-gradient" cx="59.25" cy="104.64" r="110.87" gradientUnits="userSpaceOnUse"><stop offset="0" stop-color="#0c4c65"/><stop offset="0.06" stop-color="#11526a"/><stop offset="0.5" stop-color="#397f92"/><stop offset="1" stop-color="#1896ab"/></radialGradient><radialGradient id="radial-gradient-2" cx="58.8" cy="105.18" r="111.35" xlink:href="#radial-gradient"/><radialGradient id="radial-gradient-8" cx="191.06" cy="59.98" r="0.01" xlink:href="#radial-gradient"/><radialGradient id="radial-gradient-9" cx="183.29" cy="60.7" r="0" xlink:href="#radial-gradient"/><radialGradient id="radial-gradient-10" cx="185.23" cy="48.58" r="0.02" xlink:href="#radial-gradient"/><radialGradient id="radial-gradient-12" cx="157.84" cy="46.05" r="0" xlink:href="#radial-gradient"/><radialGradient id="radial-gradient-14" cx="159.39" cy="43.58" r="0.02" xlink:href="#radial-gradient"/><radialGradient id="radial-gradient-15" cx="157.84" cy="46.08" r="0.02" xlink:href="#radial-gradient"/><radialGradient id="radial-gradient-16" cx="162.2" cy="50.56" r="0.02" xlink:href="#radial-gradient"/><radialGradient id="radial-gradient-17" cx="162.59" cy="54.08" r="0" xlink:href="#radial-gradient"/><radialGradient id="radial-gradient-18" cx="162.59" cy="54.09" r="0" xlink:href="#radial-gradient"/><radialGradient id="radial-gradient-19" cx="162.59" cy="54.1" r="0" xlink:href="#radial-gradient"/><radialGradient id="radial-gradient-20" cx="162.66" cy="54.28" r="0.01" xlink:href="#radial-gradient"/><radialGradient id="radial-gradient-23" cx="145.74" cy="78.72" r="0.02" xlink:href="#radial-gradient"/><radialGradient id="radial-gradient-24" cx="158.28" cy="81.5" r="0" xlink:href="#radial-gradient"/><radialGradient id="radial-gradient-25" cx="159.2" cy="72.42" r="0.04" xlink:href="#radial-gradient"/><radialGradient id="radial-gradient-29" cx="111.94" cy="126.58" r="0" xlink:href="#radial-gradient"/><radialGradient id="radial-gradient-31" cx="115.95" cy="98.34" r="0.01" xlink:href="#radial-gradient"/><radialGradient id="radial-gradient-37" cx="111.93" cy="126.59" r="0.01" xlink:href="#radial-gradient"/><radialGradient id="radial-gradient-38" cx="185.54" cy="7.87" r="0" xlink:href="#radial-gradient"/><radialGradient id="radial-gradient-39" cx="201.21" cy="36.6" r="0" xlink:href="#radial-gradient"/><radialGradient id="radial-gradient-42" cx="185.61" cy="7.71" r="0" xlink:href="#radial-gradient"/><radialGradient id="radial-gradient-44" cx="185.56" cy="7.82" r="0.01" xlink:href="#radial-gradient"/><radialGradient id="radial-gradient-45" cx="185.55" cy="7.86" r="0.02" xlink:href="#radial-gradient"/><radialGradient id="radial-gradient-46" cx="185.53" cy="7.9" r="0" xlink:href="#radial-gradient"/><radialGradient id="radial-gradient-47" cx="201.19" cy="36.76" r="0.01" xlink:href="#radial-gradient"/><radialGradient id="radial-gradient-51" cx="201.18" cy="36.82" r="0.01" xlink:href="#radial-gradient"/><radialGradient id="radial-gradient-52" cx="197.06" cy="38.91" r="0.02" xlink:href="#radial-gradient"/><radialGradient id="radial-gradient-53" cx="184.65" cy="19.59" r="0.01" xlink:href="#radial-gradient"/><radialGradient id="radial-gradient-54" cx="58.89" cy="104.64" r="110.68" xlink:href="#radial-gradient"/><radialGradient id="radial-gradient-56" cx="79.54" cy="104.88" r="97.03" xlink:href="#radial-gradient"/><radialGradient id="radial-gradient-57" cx="66.38" cy="105.18" r="106.08" xlink:href="#radial-gradient"/><radialGradient id="radial-gradient-58" cx="68.39" cy="102.94" r="96.5" xlink:href="#radial-gradient"/></defs><path class="cls-1" d="M133.84,0l-2.65,2-.26,26.94-.38.35L127,27,125.14,8.83l-2-.86L120.8,9.2,119.57,24l7.49,11.79-1.65,14.35L111.73,57.3l-2.27-42.36-3.28-2.71-2.2.22L102,15l-.73,21-6-27.52L93,7.66,91.65,8l2.71,32.42,6.11,3.29,1.34,22L91,69.09l-8-8,.11.08,8.28-5.54-1.26-17.9-2.61-.89-2.12.94L82.91,51.45l-.85.11-1-1-1-42.35L77.17,6.31,75.45,7,73.84,30.89h.1L72.8,36.68l-.75.34L66.22,10.21l-2.74-1L60.3,20.93l-2.14-1.81L54,3.28l-.9-.19L50.74,4.47,53.9,26.66l6,4.16,1.78,8.93,10.41,6.48,3,20.53L78,69.5l.07-.09,15.8,47.08L77.19,71.17,75,69.94,73,70.78,71.05,88l-.4.27-5.23-2.64L62.05,69.49,60,68l-2,.79.34,19.61L73.4,98.93l0,4.07L52.11,90.65l-3.4-24.78L55.94,58,53.62,37.49,52,37l-1.59.61L46,57.07l-2.6-41.19-2.13-.7-2.6,1.43-.67,12-1.57-.4-3.84-13-2.41-1.84-2.45,1.52,0,19,9.89,5,1,30.21L37,67.66l-2.18-26-1.7-1.77-1,0,1.69,34.56,7,4,.14,8.73-10.76-6.8L25.4,44.15l-1.63-.57-3.18,2-1.36,4,.11,0-.16,23.2-1-.67L15.61,31.27l-3.06.07L10,54.19,7.78,51.67,6.67,27.85,3.76,25.33,0,27.94,23.84,88.2,88,123.53l9.47,40.12,7.26.37,1.39-1.07,1.08.49,1.22-.52,3.46-36.33v0l0,0h0l1.89-2h0l.13-.11h0l24.94-13-.6.25,9.84-4.72-.06,0,.6-.25-.2.08,10.28-5.08-.6.25,38.37-30.36,2.69-12.44,0,.34-.12-2.26,0,.12-.52-1.57-3.94-.18L191.05,60v0l-3.6,8.92-.58-.08-.37-.76,1-4,0,.2,9.94-14.28h0l4.21-2.45-.09.07.17-.13,0,0,7.15-14.6,0,.2.47-2.82,0,.2.18-1.22v0l.13-1.46v.09l0-.2v0l.24-10.15h0l-1.44-3.86h-3l-3.25,9.09.07-.5-.37,2.3.07-.49-.71,12.51h0v.09l-1.75,5,.06-.08-.05.06.08-.09-1,1,.29-.22-1,.72,0,0-4.39.57-2.11-17.61,0,.2.32-4.67v0l-.21-12.83-4.26-2.47-1.7,1.53v0l-.75,1.59.25-.59-.2,11.43,0-.06-.3,19.05v-.06l.41,7.51,0-.2.61,13.73-.27.39-1.43.31-.55-.28h0L181.93,50l.09.1-.41-.6,0,0-.61-.73-.75.56.11-.16-1,1.31.12-.16-5.91,31.49,8.1-38.32V20.2l.07.18-.5-.73-1.36-.51h0l-.16-.07-2.58,2.22-2.8,23.64L172,30.34l-2.25-.29-3.41,24.84,0,0-.93.87-1.38.17-1.1-1h0l-.4-.8h0L162.2,48v0l-1.67-4.64-1.81.36-.74.83L157.85,46v0h0l.6,15.3,4.58,5,.22,20.56-4.44,1.26-2-4.77.86-1.26,0,0,.62-.65h0l0-13.44h0l-2.39-1.29-1.15,1-1.25,10.91-1,.28-.06.25-1.56-1.47-.64-11.15.07.18-.15-.29L147.36,66l4.42,26L136.3,97.75l6.48-33.34-1.23-1.53.09.23-.23-.55h0l.06.15-.07-.15-3,.45.33-.14-2.89,6,.07-.52L135,81.24,131.89,83l-3.5-3.09V79.8h0l-.14-.59h0v0l-1.39-5.95-3-1.18-1.27,12.57L125.49,89l3,.23.52,4.24h.11l.07,7.58-9.92,4.47L116,104.7h0l-.63-5,0,.09.63-1.46,0,0,2.67-19.49-.93-.33-1.38,2.86,0-.13-.67,4,.09-.67-.25,1.6.09-.66-.54,4.7v0l-2,2.41-3.07-1.34h0l0-17.86h-1.2l-2.15,21.61,3.76,2.69-1.12,13-8,4.3-.58-39.12L154,45l0,.05.94-1.5h0l.31-1.68-.33.49,1.05-8.58,8-4.25,2.81-14.63-2.61-1.53-3.48,3.47-1.3,7.56L154,24.24l.14-14.6L152,7.75,148.2,8.82l-.48,22.11-.09.07-1.15-5.95-1.56-.9-2.53,2.12,1.22,10.26,1.94.82-.59,7-7.55,2.92L138,27.3,143,24.82l2.41-19.74-1.75-.81-2.48,1-2,11.61-2.71,1.41-1-17.53L133.84,0Zm51.69,7.9h0Zm0,0Zm0,0-.11.27.11-.27ZM57.71,25.14,54.6,22.63,53.44,8.3l1.07,12.55,4.72,4.94-1.52-.65Zm65-11.23.31-2.3L124.91,30,122.7,14.25h0l0-.35ZM179.8,36l.75-12.43-.73,13.29,0-.86Zm19.83,5.52-.1.14.1-.14ZM181.7,43.39v0Zm16,6.43,0,0,0,0Zm-5.95,3.4,0,0-.12.15.09-.12Zm-8.55,7.42.06,0-.06,0ZM132.08,86.88l.49-.11-.06.14h0l-.43,4.52L131,87l1-.13Zm-19.87,39.33-.22.29.22-.29Zm-.31.41-.08.1.08-.1Z"/><polygon class="cls-2" points="208.99 14.51 208.89 14.39 208.99 14.51 208.99 14.51 208.99 14.51 208.99 14.51"/><polygon class="cls-2" points="207.41 42.63 206.49 44.3 207.47 42.5 207.41 42.63 207.41 42.63 207.41 42.63 207.41 42.63"/><polygon class="cls-2" points="203.37 49.05 204.39 48.33 203.37 49.05 203.37 49.05 203.37 49.05 203.37 49.05"/><polygon class="cls-2" points="201.62 51.47 201.58 51.49 202.18 51.14 201.62 51.47 201.62 51.47 201.62 51.47 201.62 51.47"/><polygon class="cls-2" points="201.56 51.5 201.56 51.5 201.69 51.49 201.56 51.5 201.56 51.5 201.56 51.5 201.56 51.5"/><polygon class="cls-2" points="191.08 59.94 191.12 59.84 191.08 59.94 191.08 59.94 191.08 59.94 191.08 59.94"/><polygon class="cls-3" points="191.06 59.99 191.06 59.99 191.07 59.97 191.06 59.99 191.06 59.99 191.06 59.99 191.06 59.99"/><polygon class="cls-4" points="183.29 60.7 183.29 60.7 183.29 60.7 183.29 60.7 183.29 60.7 183.29 60.7"/><polygon class="cls-5" points="185.23 48.61 185.22 48.54 185.23 48.61 185.23 48.61 185.23 48.61 185.23 48.61"/><polygon class="cls-2" points="176.42 52.05 176.42 52.05 176.45 52.01 176.42 52.05 176.42 52.05 176.42 52.05 176.42 52.05"/><polygon class="cls-6" points="157.84 46.06 157.84 46.05 157.84 46.06 157.84 46.06 157.84 46.06 157.84 46.06"/><polygon class="cls-2" points="161.31 42.84 161.17 42.73 161.31 42.84 161.31 42.84 161.31 42.84 161.31 42.84"/><polygon class="cls-7" points="159.36 43.59 159.42 43.58 159.36 43.59 159.36 43.59 159.36 43.59 159.36 43.59"/><polygon class="cls-8" points="157.84 46.1 157.84 46.06 157.84 46.1 157.84 46.1 157.84 46.1 157.84 46.1"/><polygon class="cls-9" points="162.21 50.59 162.2 50.53 162.21 50.59 162.21 50.59 162.21 50.59 162.21 50.59"/><polygon class="cls-10" points="162.59 54.09 162.59 54.08 162.59 54.09 162.59 54.09 162.59 54.09 162.59 54.09"/><polygon class="cls-11" points="162.59 54.09 162.59 54.09 162.59 54.09 162.59 54.09 162.59 54.09 162.59 54.09"/><polygon class="cls-12" points="162.59 54.1 162.59 54.09 162.59 54.1 162.59 54.1 162.59 54.1 162.59 54.1"/><polygon class="cls-13" points="162.67 54.29 162.66 54.26 162.67 54.29 162.67 54.29 162.67 54.29 162.67 54.29"/><polygon class="cls-2" points="153.92 45.19 153.95 45.11 153.92 45.19 153.92 45.19 153.92 45.19 153.92 45.19"/><polygon class="cls-2" points="145.72 66.71 145.68 66.76 145.78 66.63 145.72 66.71 145.72 66.71 145.72 66.71 145.72 66.71"/><polygon class="cls-14" points="145.74 78.75 145.73 78.69 145.74 78.75 145.74 78.75 145.74 78.75 145.74 78.75"/><polygon class="cls-15" points="158.28 81.5 158.28 81.49 158.28 81.5 158.28 81.5 158.28 81.5 158.28 81.5"/><polygon class="cls-16" points="159.21 72.48 159.2 72.36 159.21 72.48 159.21 72.48 159.21 72.48 159.21 72.48"/><polygon class="cls-2" points="141.14 62.03 141.14 62.04 141.12 61.99 141.14 62.03 141.14 62.03 141.14 62.03 141.14 62.03"/><polygon class="cls-2" points="137.42 63.43 137.99 63.17 137.42 63.43 137.42 63.43 137.42 63.43 137.42 63.43"/><polygon class="cls-2" points="113.83 124.57 113.88 124.53 113.83 124.57 113.83 124.57 113.83 124.57 113.83 124.57"/><polygon class="cls-17" points="111.93 126.58 111.94 126.58 111.93 126.58 111.93 126.58 111.93 126.58 111.93 126.58"/><polygon class="cls-2" points="128.29 79.29 128.31 79.34 128.29 79.29 128.29 79.29 128.29 79.29 128.29 79.29 128.29 79.29"/><polygon class="cls-18" points="115.94 98.35 115.95 98.34 115.94 98.35 115.94 98.35 115.94 98.35 115.94 98.35"/><polygon class="cls-2" points="113.88 124.53 113.91 124.51 113.88 124.53 113.88 124.53 113.88 124.53 113.88 124.53"/><polygon class="cls-2" points="115.98 104.72 115.99 104.73 115.97 104.71 115.98 104.72 115.98 104.72 115.98 104.72 115.98 104.72"/><polygon class="cls-2" points="111.1 82.35 111.13 82.13 111.1 82.35 111.1 82.35 111.1 82.35 111.1 82.35"/><polygon class="cls-2" points="110.15 89.27 110.12 89.47 110.15 89.25 110.15 89.27 110.15 89.27 110.15 89.27 110.15 89.27"/><polygon class="cls-2" points="113.95 124.48 113.91 124.51 113.95 124.48 113.95 124.48 113.95 124.48 113.95 124.48"/><polygon class="cls-19" points="111.92 126.59 111.93 126.58 111.92 126.59 111.92 126.59 111.92 126.59 111.92 126.59"/><polygon class="cls-20" points="185.54 7.87 185.54 7.86 185.54 7.87 185.54 7.87 185.54 7.87 185.54 7.87"/><polygon class="cls-21" points="201.21 36.6 201.21 36.6 201.21 36.6 201.21 36.6 201.21 36.6 201.21 36.6"/><polygon class="cls-2" points="199.44 58.07 199.6 58.46 199.43 58.02 199.44 58.07 199.44 58.07 199.44 58.07 199.44 58.07"/><polygon class="cls-2" points="185.63 7.65 185.61 7.71 185.65 7.62 185.63 7.65 185.63 7.65 185.63 7.65 185.63 7.65"/><polygon class="cls-22" points="185.61 7.71 185.61 7.71 185.61 7.71 185.61 7.71 185.61 7.71 185.61 7.71"/><polygon class="cls-2" points="185.6 7.74 185.57 7.81 185.6 7.73 185.6 7.74 185.6 7.74 185.6 7.74 185.6 7.74"/><polygon class="cls-23" points="185.56 7.83 185.57 7.81 185.56 7.83 185.56 7.83 185.56 7.83 185.56 7.83"/><polygon class="cls-24" points="185.53 7.89 185.53 7.89 185.56 7.83 185.53 7.89 185.53 7.89 185.53 7.89 185.53 7.89"/><polygon class="cls-25" points="185.53 7.9 185.53 7.9 185.53 7.89 185.53 7.9 185.53 7.9 185.53 7.9 185.53 7.9"/><polygon class="cls-26" points="201.19 36.78 201.19 36.75 201.19 36.78 201.19 36.78 201.19 36.78 201.19 36.78"/><polygon class="cls-2" points="205.85 13.6 206.13 13.56 205.85 13.6 205.85 13.6 205.85 13.6 205.85 13.6"/><polygon class="cls-2" points="205.51 13.64 205.51 13.65 205.69 13.62 205.51 13.64 205.51 13.64 205.51 13.64 205.51 13.64"/><polygon class="cls-2" points="205.13 13.7 205.4 13.66 205.4 13.66 205.13 13.7 205.13 13.7 205.13 13.7 205.13 13.7"/><polygon class="cls-27" points="201.18 36.84 201.19 36.81 201.18 36.84 201.18 36.84 201.18 36.84 201.18 36.84"/><polygon class="cls-28" points="197.06 38.93 197.05 38.88 197.06 38.93 197.06 38.93 197.06 38.93 197.06 38.93"/><polygon class="cls-29" points="184.66 19.61 184.65 19.57 184.66 19.61 184.66 19.61 184.66 19.61 184.66 19.61"/><path class="cls-30" d="M52.88,7.24l1.7,17.85.57,0,1.18,1,.52,0,1.2,1.87,1.58.39.87-.68,0-3.37-3.64-3.53h0L56,20.67,53.85,7.12l-1,.12Zm6,15.41.13.17-.13-.17Z"/><polygon class="cls-2" points="121.95 30.6 123.42 32.07 124.9 30.6 123.42 29.13 121.95 30.6 121.95 30.6 121.95 30.6 121.95 30.6"/><polygon class="cls-31" points="122.51 10.57 122.02 30.29 124.1 31.25 124.8 30.52 124.75 29.67 124.99 29.37 124.93 12.27 123.38 10.46 122.51 10.57 122.51 10.57 122.51 10.57 122.51 10.57"/><path class="cls-32" d="M180,22.83l-.55,1h0l-.1,1.09-.66.73.45,11.43,1,.76,1-.76.39-13.82-1-.55-.57.15Zm1.87,2,0,.09,0-.09Z"/><polygon class="cls-33" points="130.81 86.16 130.04 89.78 130.55 90.81 133.69 90.83 133.83 86.49 130.81 86.16 130.81 86.16 130.81 86.16 130.81 86.16"/></svg>