<svg id="Layer_1" data-name="Layer 1" xmlns="http://www.w3.org/2000/svg" xmlns:xlink="http://www.w3.org/1999/xlink" viewBox="0 0 174.56 290.22"><defs><style>.cls-1{fill:url(#radial-gradient);}.cls-2{fill:url(#radial-gradient-2);}.cls-3{fill:url(#radial-gradient-3);}.cls-4{fill:url(#radial-gradient-4);}.cls-5{fill:url(#radial-gradient-5);}.cls-6{fill:url(#radial-gradient-6);}.cls-7{fill:url(#radial-gradient-7);}.cls-8{fill:url(#radial-gradient-8);}.cls-9{fill:url(#radial-gradient-9);}.cls-10{fill:url(#radial-gradient-10);}.cls-11{fill:url(#radial-gradient-11);}.cls-12{fill:url(#radial-gradient-12);}.cls-13{fill:url(#radial-gradient-13);}.cls-14{fill:url(#radial-gradient-14);}.cls-15{fill:url(#radial-gradient-15);}</style><radialGradient id="radial-gradient" cx="77.54" cy="153.04" r="98.63" gradientUnits="userSpaceOnUse"><stop offset="0" stop-color="#ab7171"/><stop offset="0.64" stop-color="#b37777"/><stop offset="1" stop-color="#bc8787"/></radialGradient><radialGradient id="radial-gradient-2" cx="97.06" cy="211.44" r="43.35" xlink:href="#radial-gradient"/><radialGradient id="radial-gradient-3" cx="128.13" cy="221.34" r="33.73" xlink:href="#radial-gradient"/><radialGradient id="radial-gradient-4" cx="146.98" cy="223.69" r="14.12" xlink:href="#radial-gradient"/><radialGradient id="radial-gradient-5" cx="108.67" cy="187.09" r="11.72" xlink:href="#radial-gradient"/><radialGradient id="radial-gradient-6" cx="50.9" cy="145.46" r="64.06" xlink:href="#radial-gradient"/><radialGradient id="radial-gradient-7" cx="30.35" cy="168.31" r="30.17" xlink:href="#radial-gradient"/><radialGradient id="radial-gradient-8" cx="13.61" cy="144.33" r="13.99" xlink:href="#radial-gradient"/><radialGradient id="radial-gradient-9" cx="51.22" cy="138.8" r="12.6" xlink:href="#radial-gradient"/><radialGradient id="radial-gradient-10" cx="52.49" cy="86.3" r="19.88" xlink:href="#radial-gradient"/><radialGradient id="radial-gradient-11" cx="108.67" cy="130.05" r="35.11" xlink:href="#radial-gradient"/><radialGradient id="radial-gradient-12" cx="126.77" cy="101.08" r="18.55" xlink:href="#radial-gradient"/><radialGradient id="radial-gradient-13" cx="108.67" cy="46.65" r="39.37" xlink:href="#radial-gradient"/><radialGradient id="radial-gradient-14" cx="87.52" cy="91.5" r="16.72" xlink:href="#radial-gradient"/><radialGradient id="radial-gradient-15" cx="128.67" cy="29.42" r="18.52" xlink:href="#radial-gradient"/></defs><polygon class="cls-1" points="61.45 287.75 102.76 20.67 94.62 15.86 52.32 290.22 61.45 287.75 61.45 287.75"/><polygon class="cls-2" points="124.52 162.25 60.46 255.8 68.6 260.62 133.66 164.73 124.52 162.25 124.52 162.25 124.52 162.25"/><polygon class="cls-3" points="169.34 210.39 81.7 224.41 86.93 232.3 174.56 218.28 169.34 210.39 169.34 210.39 169.34 210.39"/><polygon class="cls-4" points="162.25 229.47 135.89 210.83 131.72 219.32 155.97 236.56 162.25 229.47 162.25 229.47 162.25 229.47"/><polygon class="cls-5" points="118.11 194.26 102.56 173.46 99.23 179.27 109.9 198.97 116.36 200.72 118.11 194.26 118.11 194.26 118.11 194.26"/><polygon class="cls-6" points="68.22 226.24 42.71 56.53 33.58 59 63.41 234.39 68.22 226.24 68.22 226.24 68.22 226.24"/><polygon class="cls-7" points="60.71 190.15 6.75 138.32 0 144.96 55.89 198.29 60.71 190.15 60.71 190.15 60.71 190.15"/><polygon class="cls-8" points="18.88 160.93 17.48 127.74 8.34 125.26 9.74 163.4 18.88 160.93 18.88 160.93"/><polygon class="cls-9" points="55.11 125.66 39.18 143.73 43.89 151.93 63.26 130.47 55.11 125.66 55.11 125.66 55.11 125.66"/><polygon class="cls-10" points="62.5 60.03 53.04 60.07 42.48 105.83 49.12 112.58 62.5 60.03 62.5 60.03 62.5 60.03"/><polygon class="cls-11" points="137.82 97.27 71.37 158.01 79.52 162.83 145.97 102.08 137.82 97.27 137.82 97.27 137.82 97.27"/><polygon class="cls-12" points="139.99 80.9 130.86 78.43 113.54 121.27 122.67 123.74 139.99 80.9 139.99 80.9 139.99 80.9"/><polygon class="cls-13" points="139.07 0 129.6 0.04 78.27 90.82 87.4 93.29 139.07 0 139.07 0 139.07 0"/><polygon class="cls-14" points="97.5 112.9 87.01 70.06 77.54 70.1 88.03 112.94 97.5 112.9 97.5 112.9"/><polygon class="cls-15" points="141.07 13.18 108.13 40.83 116.27 45.65 149.22 18 141.07 13.18 141.07 13.18 141.07 13.18"/></svg>