<svg id="Layer_1" data-name="Layer 1" xmlns="http://www.w3.org/2000/svg" viewBox="0 0 431.41 269.41"><defs><style>.cls-1{fill:#92a5c4;}</style></defs><path class="cls-1" d="M73,0,71,.52l-1.62,1-1.55,2,2.46,46.74-1.47-2.74-2.1-1.83-1.1-.26-.64.05-.82.35-1,.93,16.36,61.85,49,55.78-.12-.12-3.88-1.43-34-31.2L69.82,92.55l-3.28-2.28-1,.22-1.7,2.11-.41,2.74L49.89,41.22,47.81,39l-2.17-.57-1.94.49-1.4,1.37,8.37,38.38-.31,1.17-1.63-1.51L37.49,43.56l-1.6-.88-.19,0L34.46,43l-1.32,1.2-1.07,2.52,6.41,29.55L28.66,48l-1-.33-.29,0-1,.58-1.5,3.06.52,18.85L42,93.92l20.14,12.57,8,15.4,1.05,7.2-7.61-15.68-5.34-3.8L56,109.53l-1.08.59-.62,1.57,10.72,23.72,0,.82-4.34-2.76L47.85,105.21,45.74,104,43,103.5l-1.94.35-.63.36-.46.51-.37,1.42,8.29,19.46L29.64,91.88,26.25,90l-.72-.08-.66.12-1.15,1-.38,2.47,9.61,20L12.2,86.92l-2.07-.72-.81.16-1.06.56L6.9,89,7,92.46,17.8,112l17.42,16,.9,2.43-11-4.37L7.16,106l-2.3-1.36-.65-.07-2.77,1.22L0,109.45l4.11,11.42L20.81,135,126,177.64l6.56,5.67-16.69-.77L85.59,159.6l-5.1.43-2.78,2.9.08,2.52,3,5.66,4.59,2.76,6.92,1.18,12.86,9.53-4.7,1.47L98.19,186l-2.57-1.06-3-7.72-1.4-.91-7.82-.41L65.68,164.48l-.74.1-1.65,1.71,5,12.15,22.18,13.87,103.17,25.84-13.12-1.69L176,213.35l-18.64-4.62-9.86,2.56-3.83-.65-9.58-6.39-1.39-.23-1.34.37-.57.54-.21,1.16,3,3.94.07,1-.28.73-.18.1-3.74-1L123,206.54l-2-3.1-3.9-2.46-3.41,3-.26,2.45-7-1.56-10.13-8.06-2-.45-1.46.3-1.21,1.31.3,1.71,5,4.87,0,.11-5.87-1-4.77-4.62-5.32-10.21-1-.69-1.77-.38-1.86.64-1.1,1.37.45,5.5L73.73,194l-7.55-9.94-1.25-.49-.7.2-.78,1.3,2.06,9.41-9-10.68-.92-.31-.91.2-.49.35-.58,1.12v7.94l2.75,4.64,16.46,10.89,6.63.9.27.42.06.58-4.83-1.3-2.29.64-1.07,2.64.38,2.13L73.3,217l2.84,1.74,36.21-2.92,18.31,4.43.76.53,0,.09V221l-.11.14-.35.22-5,.7-11.6-2.74-1.59.38-.84.79-.41,1.25.23,2.69,1.69,2.92,2.93,1.81,51.42-5.87,1.33.29,3.34,2.54.08,1.94.74,1.6,1.5,1.48,10.06,3.1,26-.61,8.11,7.66.29,1.22-2.36,8.66-11.71,13.29-.45,2.34L205,268l1.24,1,35.76.38,1.65-.61,1.52-1.5,6.52-19.24,14.58-4.56,1.55-1.67,1.82-5,3.32-3.94,2.18-.79,5.36,1.38,5.08,3.91,1.94.09,41.19-13.54,2.25-3.46.06-2.66-2.69-4.73-3.31-.83-30.89,8.56-.27-.17-.12-.21-.05-.42.55-1.13L360,193.62,380.36,174l1.92-3.59-.36-3.41-2.64-3.47-1.49-.26-5.2,1.74,6.22-5.54,1-1.74.2-1.12-.41-1.55-2.1-1.72-4.09-.07-3.63,1.83-14.51,21.83-13.9,10.31,16-15.11.32-1.21-.36-1.68-1-1.17-2.62-.86L344.25,170l-9.93,10.25-6.09,1.58-14,11.8L301.79,197l-6,8.37-14,5.95-3.67-.27.38-1.27,9.13-8.23,8.77-2.81L316.25,184l1.58.5,1.75-.45,1.5-.92.81-2.52-.37-.87,45.55-28.13.71-1.94-.35-2.06-1.37-1.77-2.69-1-3.35.34-36.51,18.92,9.91-12.67.38-3.52.63.61,3.88,1.36,49-23,3-3.58-.05-2-1.12-1.07-2.36-.63-25.24,9.51.48-.66,55-23.61,3.18-2.88.72-1.66-.77-3-1.35-.41-21.48,7.89-1.24-.17v-.12l32.5-19.63L431.41,76l-.18-1.88-1.09-1.53-1.46-.72-4.24.57-2.66,1.47-6.8,9.4-3.51,2.58L407,86.7l-3.55,2.06-7.14,7.95-7.92,4.17-8.85,9.05-4.28,1.89-2.69-.37-.18-.12,34.32-32.87,8.77-29.74-1.28-4.91-3.74-2.67h-.1l-2.85,1.25L391,88.11l-3.37,3.19-4.85,2-1.53-.18-.55-.49L382.46,87l14-15.09,5.72-19.8L401,39.56l-2.15-2-2-.48-2.75.75-1.14,1-1,11.88-4.71,7L386.1,68.4l-.65-11.1L383.63,56l-1.87.66-2.49,2.25-1.58,4.73.45,5-9.27,7-.7,9.38.5,2.09-8.51,30.67-4,4.77-.54.3-3,.47,0-.1v-.87l10.51-20,1.72-10.22-3.39-25.23L374.37,39l-2.54-7.42-.71-1-1.61-1.07-2.58-.06-2.77,1L363,31.66l-.91,14.4-8.51,14.25-1.81,41.15-9.84,15.73-.33.2-1.15-1.58,8.47-70.17-.49-1-.61-.56-1.53-.45-1.66.38-3.83,2.24-10,60.69,1.68,7.71-2,10.59-.8-10.08L329,114l-1.6-.82-.51.09-1.82,1.6-4.81,36.89-1.11,1.46-.12.08h-.52l-1-.51L316.35,151l.16-23.75,4.15-9.25-1.19-9.79,9.94-22.56V67.73l-1-2.37-1.83-1.94-.7-.15-.77.22-.51.38-3.25,17-4.26,6.28,5.15-32.74L321,52.71l-1.44-.39-.56,0-2.85,1.42-7.72,101.46,0-.07-3.25,14.7.06-.15-5.24-45,7.44-25.06-.33-13-1.06-1.34-1-.37-.31,0-.52.21-5.43,18.57-.35-.66.66-7.66,3.47-8,.7-21.94-3.19-11.43L296,50.55h-1l-1,.35-1.55,1.38-4.45,67.43.9,3.77,3.16,5,1.74,49.41-1.9,4.29-.41.4-5-15.1,3.07-37.95-9.08-34.65-2.57-1.57-2.24.69-2.71,4.4,5.77,94-3.15,3.89-.89.48-.78.09-.26-.07-.76-.65-.27-.49,2.07-52.32-8.06-24.75-2.42-1.14H264l-2.69,1.67-1.69,4.43,3.18,64.14-6.55,17.67-.45.46-1.32-.38-1-.86,5.23-47.93L256,142.44l2.1-6.48-.27-3-1.37-2.19-1.25-.77-.53-.08-1.11.31-1.09,1-.23-2.48-2.34-4.59-2.54-1-2.54.48-1.89,1.64-.55,2.46,3.4,7-3.87,5-.26,1,.09,1.75,1.3,2.25,3.69,2.83.88,1.88-2.39,1.35-2.09,3.22,0,2.61,3.06,4.87.5,3.15-2.66,3-.54,2.16.84,2,2.38,2.78.18,2.47-.37,1.37-.06-.19L243,175.54l-.66-.11-1.31.4-.74.8.49,11.32,5.66,7.78-.17,3.91-3,7.83-.08-.15-.63-.6-1.79-15.26-1-2.07-1.9-1-2.08,1.1-6.91,17.38-1.16,1-.75-.19-.51-.49-.78-2.56,16-45.93-2.25-4.5L237.19,153l-1.43.64-9.13,23.1-3.33,4-1,.35-.69-.1-.21-.18-.31-1,11.11-27.52-.48-8.41L230,141.09l-1.22-.32-1.29.26-1.25.81-7,20-1.33,1.05-.79-.06-.3-.18-.26-.49-.12-.66,12.33-35.42-.65-5.48-2.42-1.65-1.64.27-3.12,2L214,138.76l-1,.89-.35-.73v-4.76l15-23.93.92-8.6L227.37,98l-3.51-2.4-.59,0-2.79.92-7.1,19.5-.8-1-1.24-3.79-.16-9.41.91-2.93L216,93.36,223.31,89l1.5-2,1.62-5.73-.79-5.59-1.32-1.6-1.62-.65-.51,0-2.13.68-2.92,5.44L213,41.73l-1.46-2.36L209,37.56l-2.15-.12-4.67,2.5-1.11,1.91,2.35,13L201,69.67l2.66,4.48-.33-.23-2.28-.54L198,74l-1,.91-.77,2.28,3.7,12.21-1.39,14.84-.92-1.77-1.13-1-1.68-.44-3,1.28-1.68,3.89,2.38,16.53-.2-.14-2.08-.46-3.17.74-1.47,1.94.11,2.39,8.36,12.19,4.06,3.19L201.51,156l5.9,7.56.71,5.34-4.4-3.66-12.34-23-1.65-.93L187.8,141l-3.06.69-1.86,2-.86,2.47.17,8L216.71,202l.71,5.58-.72,2-.41.38-.65.27-1.19-.34-17-24.31-.91-4.34-.82-.86-.84-.27-1.21.39-2.44,3.07-.53,0-1-.42-2-2.77-.18-.73.61-9.49-1.44-4.47-2.39-1.95h-.22l-1.54.88-1.49,5.2-.24.2-2.55-.26,0-6.16,2.45-4.69-.3-3.81-1.71-.85-1.14.25L175.54,156l-4.49,7,0-.17L169.12,157,180,136l-.74-3.11-2.68-3.57.57-5.31,1.25-2.77,5.19-5.53,2-4-6.38-28.14-2.47-1.44-2.61-.59-1.7.39-1.3,2,3.26,21.87-.6,1.82,0-.12h0l-5-23-2.25-2.82-1.92-.5-1.69.47-.85.59-1.8,3.1,8.25,45.41-.9,6.79-1,1.34-.5.08-1.94-.41-.67-.49-.57-1.67,1-12.9-7.1-18.91-2.25-1.19-.29,0L151.73,106l.65,21.05-.77,1-.59-.73-.52-6.61-2.15-3.76,2.48-21.43,5.43-9.18,1.13-34.07-1.46-1.42-2.22-.56-1.36.3-1.21,1-.37,31.67L147.18,51.7l5.36-5.43,1.14-3.63L150.41,28l-.93-.9-1.64-.55-1.37.54-1.08,1.72-.45,12-.08.14L143.3,9.08l-2-3-2-.87-1.39.14-.85.45-1.4,2L139.91,95l-9.8-53.06L126,34l-2-1.16-.34,0-2,1.9L120,40.08l-.85-12.2L118,26.58,116.29,26l-1.63.4L111.91,29l-3.2,10.28,4.49,16-1.89,2.95-.81,5.09L123.44,81l-.14,1.4-.06-.19L118,77.43l-1.45-.31-1.87.5-1.2.91-1.59,3.36.19,5.06,2.22,3.86,7.17,5.75,6.82,17.26L142.11,126l.14,1.11,0-.1-1.66-1.56-4-1.51-4.08.36L131,126.85l9.05,12.67,11.94,6.1,1.11,1.68.15,1.9-.06.24,0-.12h0l-.93-1.33-6-3.33-1.55-.22L142,145.52l-.71,1.17-.21,5.25,1.29,2.71L160,165.53l15.48,21.26,18.24,12.37,2.6,5.79L196,207.6l-.09.05-2.12-.2-7-3.15-2.57-3.69-11.07-7.51-2-3-1.07-.72-.71-.11-.66.12-1.24.85-1.72,2.77,0-.18-7.14-25-1.49-1.19-.61-.12-2.29,1.56-1.89,8.25-5.08-14.59-1.75-1-1.87,1-.82,7.72-9.35-31.5-2-1.36-.87-.16-2.34,1-1.1,2.25.13,2,4.44,9.72-4.42-2.34L116.9,117.7l-1.6-1.76-1.58-.48-1.35.29L110.68,117l-.75,1.38-.07,1.62,1.93,5.34-.37,2.7-.08.13-1.84-.69-.33-.35L106.55,92l-1-1.59-1-.89-1.36-.38-1,.29-.79.69L100,101.88l-.75,1.2-1.21-.64-.23-.43L94.2,57.07,92.5,55.4l-1.13-.33-.44.07L89.56,56.4l-.43,19.17-.06.12,0-.14L88.1,74.1,86.27,34.34,83.14,30.6l-1.41.63L81,32.49,81.59,44l-.43,1.52-.62.84-.31-.74L76,2.48,75.11,1,73.79.13,73,0Zm2.41,67.6L71.07,52.52,75.45,67.6Zm79.44,9.66-1.14-24,.68.15.11.07.21.24.14,23.51Zm159.78,2.15,3.77-23.25.68-.38-4.45,23.63Zm84.54,19.08,8.89-8.29,5.21-1,11.34-12.79,3.19-1.21.26,0,.1.06,0,.11-1.82,7-2.68,2.9L399.21,98.49ZM207.84,84.59l-2-8.27,2.46,2.49.35,1.1-.77,4.68Zm-93.63,36.78-.94-2.13.33-.28.61,2.41Zm83.12,8.2-2.13-4,2,1.17.3.46-.21,2.38ZM86.92,144.86l-2.06-.5L73.08,132l13.29,10.14,1.08,2.41v.15l-.53.12Zm147,26.51,3.8-15.1,1.2,3.49L237.71,165l-3.84,6.33ZM370.68,161l1.68-2.86,1.14-.86,2.23-.32-5.05,4ZM150,192l-7.87-1.79-1.24-.78-1.68-2,.17.15,3.49,1.52,8.58.64-.08.07-.87,2.07-.1.07-.4.09Z"/></svg>