<svg id="Layer_1" data-name="Layer 1" xmlns="http://www.w3.org/2000/svg" xmlns:xlink="http://www.w3.org/1999/xlink" viewBox="0 0 615.28 333.29"><defs><style>.cls-1{fill:url(#radial-gradient);}.cls-2{fill:url(#radial-gradient-2);}.cls-3{fill:url(#radial-gradient-3);}.cls-4{fill:url(#radial-gradient-4);}.cls-5{fill:url(#radial-gradient-5);}</style><radialGradient id="radial-gradient" cx="78.46" cy="171.06" r="65.32" gradientUnits="userSpaceOnUse"><stop offset="0" stop-color="#5b464d"/><stop offset="0.5" stop-color="#735561"/><stop offset="1" stop-color="#8e7d83"/></radialGradient><radialGradient id="radial-gradient-2" cx="405.41" cy="128.72" r="131.11" xlink:href="#radial-gradient"/><radialGradient id="radial-gradient-3" cx="244.39" cy="185.04" r="146.82" xlink:href="#radial-gradient"/><radialGradient id="radial-gradient-4" cx="450.34" cy="219.56" r="141.67" xlink:href="#radial-gradient"/><radialGradient id="radial-gradient-5" cx="113.68" cy="202.58" r="79.52" xlink:href="#radial-gradient"/></defs><polygon class="cls-1" points="85.73 122.28 83.26 122.59 80.51 124.2 78.81 127.34 81.84 149.65 72.59 146.84 58.71 129.04 58.77 129.13 52.51 124.83 42.26 123.04 36.64 124.61 35.45 125.58 33.59 134.24 23.09 127.76 2.27 126.37 0 129.35 2.21 144.18 3.9 146.58 3.81 146.41 56.03 171.26 58.19 170.38 59.07 168.1 58.18 166.03 56.92 165.13 59.66 154.56 63.24 153.22 77.17 158.11 80.29 155.35 84.4 154.59 85.86 153.62 105.14 165.75 107.69 176.57 156.5 219.83 153.36 205.78 155 206.7 155.96 206.43 156.91 205.08 122.58 151.44 122.73 151.88 116.81 140.36 117.22 138.65 113.2 134.63 112.68 134.66 94.04 123.17 85.73 122.28 85.73 122.28 85.73 122.28 85.73 122.28"/><polygon class="cls-2" points="533.15 0 522.33 4.97 513.51 16.13 511.42 13.76 508.68 13.09 501.86 16.67 495.24 25.45 493.41 25.69 486.64 23.72 484.06 24.32 482.27 25.86 482.18 34.87 479.17 35.53 477.15 34.8 470.85 27.03 464.08 26.35 456.18 30.57 452.87 48.98 452.07 49.65 451.77 49.7 440.46 40.2 436.33 29.84 429.68 24.01 421.44 21.88 402.28 30.42 351.04 175.76 349.13 80.85 350.11 80.08 363.46 77.6 371.44 68.03 379.83 67 382.08 65.58 383.34 62.45 382.01 55.67 398.37 21.88 393.62 6.07 391.32 4.99 389.17 5.81 384.43 10.36 374.06 12.03 372.37 13.69 371.31 25.39 363.61 31.69 363.38 42.69 357.8 49.02 354.89 28.22 357.77 18 357.05 16.69 355.09 15.93 353.44 16.72 349.23 11.46 345.82 9.69 345.07 9.77 339.17 15.1 339.07 15.07 337.44 13.02 322.93 11.91 320.77 14.62 321.01 23.28 325.88 27.2 325.97 27.98 323.28 33.91 320.14 31.01 312.82 28.64 309.99 26.05 305.41 10.21 290.67 8.72 283.74 12.88 281.73 18.91 282.62 22.18 285.66 24.32 288.05 24.47 291.44 32.6 299.01 39.21 299.36 40.1 280.5 103.02 282.79 110.47 282.37 113.12 274.16 124.97 275.58 150.13 274.51 149.9 273.15 150.25 272.22 151.18 271.96 153.18 274.96 158.92 274.93 158.82 286.75 176.62 289.96 178.65 293.63 179.07 298.55 177.45 299.97 175.9 299.85 176.03 316.34 59.52 319.9 57.16 319.76 57.22 321.23 56.8 321.59 56.94 322.1 57.5 310.84 184.83 334.57 207.82 355.35 207.48 362.68 203.78 362.65 203.79 410.65 98.56 410.65 98.56 422.69 81.57 419.7 47.86 420.36 47 420.75 47.14 433.44 63.35 437.99 65.5 426.32 97.49 426.33 97.47 375.42 243.19 376.98 251.88 379.38 253.78 432.69 257.45 435.24 255.96 435.61 254.72 435.7 254.68 435.7 254.69 495.52 68.39 495.4 68.62 501.47 51.21 532.48 27.79 538.86 4.95 536.93 1.4 533.15 0 533.15 0 533.15 0 533.15 0"/><path class="cls-3" d="M208.44,37.62l-3.75.87L201,43l9.82,40.8L189,75.6l-2.66.7-3.42,5.41L152.52,57l-6.35.84-3.11,2.33-2.92,6.45,1.8,8.77,4.19,4.27,11.73,1.5-13.53,3.71L143,87.21l.12,4.22,78.38,56.43.78,4.43-7.74.8-87-64.35.24.14-12.2-3.1-6.67,1.86-2.49,2.56-.86,4.39,14.6,20-17.19-12-1.42-.28-1.81.5-1.5,1.58.46,12.91,133.88,84.51,8.13-.72,3.31-3,.79-52.52,1.82,2.31-.12-.19,5.49,4,9-1.84.32.13.18.19.31,2.19-6.13,14.11,4.64,55.83L257,226.09l-2.75,1.21-26.65-7.82-18.65-33.92-8.67-3.3-7.49,2.45L127.1,173.8l-2.73,3.94-.22,1.59-12-1.14-3.59,2.44-.61,5.34,7.57,11.46,52.41,21.44L207.63,260l18.65,6.13,71.66,66.32,14-.7,14.56-14.09L362,227.62l26.32-1.83,2.32-1.73-.26-1.86-1.4-1.06-1.39-.34-9.83-35.86-10-9.72-4-31.08-3.63-4.73L364.3,76l-5.53-1.46-6.74,2-22.2,19.07-.06-14.08-3.64-5.07-2.39-.64,2.3-5,11-5.83,1.81-3.49-.11-4.93-2.94-4.32-5.46-2.11-15.83,5.79L293.42,82.13,277.25,69.41,270,68.31,244,40.55l-8.16-2.12-3.52.69-3.32,4-.54,19.08,16.45,23.2,55.89,31.28,11.28,37.95-1.78,0-5-2.47-21.93-41.88L278.91,109l-2.3.32-5.08,3.45L268,126.3l-.59,0L264.71,125l-8.51-14.73-13.31.48L242,110,217.21,42l-6.7-4.18-2.07-.19Zm52.69,219.71-.43-.17-.2-.42,4.72-54.11,13.58,9.24-2.49,2.55L266.87,254l-1.67,2.18-4.07,1.15ZM306,274.94l-3.21-.7-8.53-8.42,2.19-44.93,6.57-1.2,2.42,38.06v-.2l1,17.36-.45,0Z"/><polygon class="cls-4" points="577.78 105.82 461.39 193.11 456.77 192.61 456.35 192.33 455.92 191.64 455.82 189.53 491.87 152.33 490.53 146.1 523.51 126.33 528.73 118.88 528.99 111.39 525.88 107.41 522.3 106.77 506.48 113.28 488.18 131.88 480.37 132.84 473.62 130.25 472.11 128.45 471.94 127.52 476.01 116.21 474.82 110.41 472.18 108.35 466.33 107.73 452.27 113.07 445.6 128.82 447.96 139.94 455.27 149.2 453.51 158.8 410.54 196.5 351.18 213.1 350.63 212.94 353.27 194.32 351.12 190.19 342.1 187.85 334.03 189.93 307.22 225.16 302.83 226.43 300.28 222.95 298.5 222.19 296.61 222.95 295.85 224.79 301.01 237.84 285.41 295.34 288.21 307.65 346.49 333.29 370.38 326.4 375.19 321.56 423.09 320.08 431.34 316.15 463.8 270.93 465.93 269.96 477.16 270.9 613.53 166.04 615.28 160.65 614 157.64 612.61 156.65 599.62 157.82 500.57 224.19 499.36 223.89 495.56 217.78 492.95 216.78 490.67 217.24 472.22 240.61 464.44 244.63 463.45 244.45 463.75 241.96 553.47 163.09 553.35 163.17 560.94 153.77 559.69 147.81 558.4 146.19 555.15 144.71 534.66 151.18 534.71 151.17 533.96 151.24 532.64 148.32 532.78 147.02 584.42 111.92 584.38 108.92 582.56 106.9 577.78 105.82 577.78 105.82 577.78 105.82 577.78 105.82"/><polygon class="cls-5" points="139.68 139.48 136.91 140.15 131.62 145.07 131.63 145.08 131.1 145.72 131.1 145.73 126.84 150.06 125.5 150.46 121.64 147.29 115.28 145.58 111.45 146.89 116.95 187.55 120.36 192.71 120.6 194.06 119.65 195.4 118.69 195.68 117.32 195.1 117.06 194.79 120.2 208.78 120.19 208.78 120.2 208.8 120.19 208.79 120.19 208.81 71.38 165.55 68.83 154.73 49.55 142.6 48.09 143.57 43.98 144.32 40.86 147.09 39.42 147.31 26.93 142.2 23.35 143.54 20.6 154.11 21.87 155.01 22.76 157.08 21.9 159.33 50.77 187.6 50.7 187.54 141.85 261.67 175.24 265.69 178.38 264.63 179.27 262.48 178.86 260.94 177.37 259.68 191.79 217.72 189.46 190.5 205.99 165.97 206.76 146.05 205.35 144.18 196.47 141.57 192.2 142.39 184.63 148.49 184.8 148.31 178.78 154.54 173.91 154.67 164.39 148.25 158.63 148.05 153.31 150.54 151.04 156.65 158.46 218.41 158.41 218.5 158.4 218.5 157.37 219.29 152.4 214.37 146.74 145.02 142.91 140.26 139.68 139.48 139.68 139.48 139.68 139.48 139.68 139.48"/></svg>