<svg id="Layer_1" data-name="Layer 1" xmlns="http://www.w3.org/2000/svg" xmlns:xlink="http://www.w3.org/1999/xlink" viewBox="0 0 202.18 274.89"><defs><style>.cls-1{fill:url(#radial-gradient);}.cls-2{fill:url(#radial-gradient-2);}.cls-3{fill:url(#radial-gradient-3);}.cls-4{fill:url(#radial-gradient-4);}.cls-5{fill:url(#radial-gradient-5);}.cls-6{fill:url(#radial-gradient-6);}.cls-7{fill:url(#radial-gradient-7);}.cls-8{fill:url(#radial-gradient-8);}.cls-9{fill:url(#radial-gradient-9);}.cls-10{fill:url(#radial-gradient-10);}.cls-11{fill:url(#radial-gradient-11);}.cls-12{fill:url(#radial-gradient-12);}.cls-13{fill:url(#radial-gradient-13);}</style><radialGradient id="radial-gradient" cx="110.85" cy="137.48" r="98.74" gradientUnits="userSpaceOnUse"><stop offset="0" stop-color="#0c4c65"/><stop offset="0.06" stop-color="#11526a"/><stop offset="0.5" stop-color="#397f92"/><stop offset="1" stop-color="#1896ab"/></radialGradient><radialGradient id="radial-gradient-2" cx="115.46" cy="225.71" r="43.35" xlink:href="#radial-gradient"/><radialGradient id="radial-gradient-3" cx="155.75" cy="235.46" r="33.82" xlink:href="#radial-gradient"/><radialGradient id="radial-gradient-4" cx="127.08" cy="201.36" r="11.72" xlink:href="#radial-gradient"/><radialGradient id="radial-gradient-5" cx="67.71" cy="158.13" r="64.06" xlink:href="#radial-gradient"/><radialGradient id="radial-gradient-6" cx="30.35" cy="170.75" r="30.17" xlink:href="#radial-gradient"/><radialGradient id="radial-gradient-7" cx="32.02" cy="150.61" r="13.99" xlink:href="#radial-gradient"/><radialGradient id="radial-gradient-8" cx="69.63" cy="153.07" r="12.6" xlink:href="#radial-gradient"/><radialGradient id="radial-gradient-9" cx="70.9" cy="100.58" r="19.88" xlink:href="#radial-gradient"/><radialGradient id="radial-gradient-10" cx="131.7" cy="137.85" r="35.11" xlink:href="#radial-gradient"/><radialGradient id="radial-gradient-11" cx="101.98" cy="193.75" r="19.5" xlink:href="#radial-gradient"/><radialGradient id="radial-gradient-12" cx="146.66" cy="46.65" r="39.37" xlink:href="#radial-gradient"/><radialGradient id="radial-gradient-13" cx="105.93" cy="105.78" r="16.72" xlink:href="#radial-gradient"/></defs><polygon class="cls-1" points="88.75 271.5 142.19 6.58 134.27 1.4 79.51 273.56 88.75 271.5 88.75 271.5"/><polygon class="cls-2" points="142.93 176.53 78.86 270.08 87.02 274.89 152.06 179 142.93 176.53 142.93 176.53 142.93 176.53"/><polygon class="cls-3" points="196.95 225.02 147.17 224 109.32 239.04 114.55 246.93 202.18 232.91 196.95 225.02 196.95 225.02 196.95 225.02"/><polygon class="cls-4" points="136.51 208.54 126.78 191.07 120.97 187.74 117.64 193.54 128.31 213.24 134.76 214.99 136.51 208.54 136.51 208.54 136.51 208.54"/><polygon class="cls-5" points="85.03 238.91 65.31 204.89 59.52 69.2 50.39 71.67 80.22 247.06 85.03 238.91 85.03 238.91 85.03 238.91"/><polygon class="cls-6" points="60.71 192.59 6.75 140.77 0 147.4 55.89 200.74 60.71 192.59 60.71 192.59 60.71 192.59"/><polygon class="cls-7" points="37.29 167.21 35.89 134.01 26.75 131.54 28.15 169.68 37.29 167.21 37.29 167.21"/><polygon class="cls-8" points="73.52 139.94 57.59 158 62.3 166.21 81.67 144.75 73.52 139.94 73.52 139.94 73.52 139.94"/><polygon class="cls-9" points="80.91 74.3 71.45 74.34 60.9 120.11 67.53 126.85 80.91 74.3 80.91 74.3 80.91 74.3"/><polygon class="cls-10" points="160.85 105.07 143.56 124.42 121.8 135.41 94.4 165.81 102.55 170.63 169 109.88 160.85 105.07 160.85 105.07 160.85 105.07"/><polygon class="cls-11" points="120.22 177.96 112.12 173.08 83.73 209.54 91.84 214.42 120.22 177.96 120.22 177.96 120.22 177.96"/><polygon class="cls-12" points="177.06 0 167.6 0.04 150.08 53.55 116.26 90.82 125.4 93.29 162.95 50.76 177.06 0 177.06 0 177.06 0"/><polygon class="cls-13" points="115.9 127.17 105.42 84.34 95.95 84.38 106.44 127.21 115.9 127.17 115.9 127.17"/></svg>