<svg id="Layer_1" data-name="Layer 1" xmlns="http://www.w3.org/2000/svg" xmlns:xlink="http://www.w3.org/1999/xlink" viewBox="0 0 150.93 138.19"><defs><style>.cls-1{fill:#f4e5cd;}.cls-2{fill:url(#radial-gradient);}.cls-3{fill:url(#radial-gradient-2);}.cls-4{fill:url(#radial-gradient-3);}.cls-5{fill:url(#radial-gradient-4);}</style><radialGradient id="radial-gradient" cx="6968.37" cy="-7830.39" r="150.82" gradientTransform="translate(-2657.75 3170.68) scale(0.39 0.39)" gradientUnits="userSpaceOnUse"><stop offset="0" stop-color="#a76c42"/><stop offset="0.64" stop-color="#af7756"/><stop offset="1" stop-color="#ba8471"/></radialGradient><radialGradient id="radial-gradient-2" cx="7000.47" cy="-7928.88" r="99.32" gradientTransform="translate(-2657.75 3170.68) scale(0.39 0.39)" gradientUnits="userSpaceOnUse"><stop offset="0" stop-color="#376235"/><stop offset="0.5" stop-color="#376e21"/><stop offset="1" stop-color="#6c9c53"/></radialGradient><radialGradient id="radial-gradient-3" cx="6954.97" cy="-8003.98" r="25.27" gradientTransform="translate(-2657.75 3170.68) scale(0.39 0.39)" gradientUnits="userSpaceOnUse"><stop offset="0" stop-color="#80a8aa"/><stop offset="0.64" stop-color="#8db4ba"/><stop offset="1" stop-color="#98bec7"/></radialGradient><radialGradient id="radial-gradient-4" cx="6974.85" cy="-7936.06" r="156.34" xlink:href="#radial-gradient-3"/></defs><polygon class="cls-1" points="1.03 116.06 1.44 116.06 2.67 114.38 2.56 113.77 1.03 116.06 1.03 116.06 1.03 116.06 1.03 116.06"/><polygon class="cls-2" points="35.06 30.73 32.45 31.91 30.76 95.97 8.64 122.18 36.29 132.18 36.25 132.15 132.85 138.19 133.17 137.41 116.71 97.45 137.21 62.73 136.31 61.61 35.06 30.73 35.06 30.73 35.06 30.73 35.06 30.73"/><polygon class="cls-3" points="40.28 30.53 33.31 33.33 32.55 35.19 64.38 50.73 64.38 50.73 80.98 55.98 80.84 55.92 138.27 60.77 138.46 53.06 60.77 31.37 60.82 31.37 40.28 30.53 40.28 30.53 40.28 30.53 40.28 30.53"/><polygon class="cls-4" points="65.47 2.51 64.48 2.7 63.81 3.99 65.71 10.52 65.7 10.48 65.78 15.53 65.79 15.53 65.78 15.58 65.78 15.58 65.47 26.65 64.61 27.58 64.69 28.06 65.23 28.35 67.59 26.79 69.3 27.39 70.6 29.41 71.04 29.58 71.54 29.25 67.04 3.52 67.05 3.55 66.05 2.59 65.47 2.51 65.47 2.51 65.47 2.51 65.47 2.51"/><path class="cls-5" d="M40.43,0l-2.5,2.91,1,9.08-.22.23h-.21L34.84,3.57l-.74-.28-.61.36.6,4.62,0-.06,2.9,9L23.43,2.47l-.63.19-.36.51L25.73,6.6l-.06,0h0L21.6,6.54l-.54.53.39.85,1.14.45h0L22,9.63l5.27,2.15L29,15h0l.81,2.14-.44.95-.93.23L16.58,13.55l-1.38.65-.33.9,8.71,5.35L6.42,17.29l-.32.63.15,1.46,1.29,1.25,3.14.21-8.76,7.1.43,1.12.87.36,12.26-7.65L11.74,24.6l.47,1L22,23l5.91,3.29-17.71.09L0,40.34l.87.54,9.35-11,1,0,.64,1.23L14,31.6,6.79,35.37,5.18,39,1.57,41.23l.07.69,2.55.43L9.73,39l-.06-.07,5.64-1.58-9.15,7,.28.35,9-4.25-.26,1.09L6.21,49l.17.48.89.12,1.52-1L3.47,56.46v.79l.5.24L16.4,42.8l.71.28-6.59,14,.32.11L14,53.71l.7,2.85.07,0,.05,4,.44.24,1.81-3L16.48,47l2.14-3.42,7.81-1.93-7.75,8.7h0L17.27,57l.35.34.4-.08,2.05-4.52H20l.55-2,6-3.46L16.77,61.81l.09.23.31.15,4-2.85.07,0,.53-.42.69.41,7.8-11.29-.1,0,.37-.18-.08-.06,9.68-7.62,0-.08,2.59-.84.82,1.27L26.1,58.67l.24.63.81.29,4.43-2.86.41.54.79.19,5.88-6.26-1.25,3.89.1,0H37.4l-.15.16-.72-.52-.8.17-.83,1.62,1.21,1.65,3-1.55-.35,3.17.59.58,1.54-.24,6.44-8.71,4.27.79-1,8.72.87.34,1.81-2.48.85.62,1.59-.06-1.3,3.08.69,1.64.63-.06v1l1,.83L73.93,50.24,64.82,65.59l0,1,.82.82L78,54.29,76.5,58.77l.19-.09L70.86,73.39l.53.85L87.71,57.37,79,75.28l.82.76,11.28-9.23h0L93,59l1,2.07.12,0,2.36,21.21.65.4.62-.42L99.43,58.5l2,.14,7.21,18.93.61-.2,1.17-1.56.1-1.83-1-1.13.18-9.6L118,78.74l2.15-.59-2.24-16.24L122.7,80l1.22.55,1.63-.83-1.84-15.32,7,11.28,0-.08.69,8.07,2.49,1.94.77-.35-2.9-11.15,2.32-.48.09-1.38-1-1.17-.45-.11-1.66-2.78,2.57-.15,4.27,14.12.8.44.47-.36-4.49-14.82.31-.18,4,5.09.3,6.72.79.92,1.24.25,0,0,2.46-.72-.12-1.92-.56-.57,0-.32,0,0-4.15-10.78,2-2,.65.47v0l5.83,8.37h2.74l.14-1.88-.67-.5h-.41L141.41,59l8.44,8.53,1.08-.37-.08-1.34L140.26,55l8.63,3.53,1.08-.42.25-.63L135.63,48.8l9.83,3.53.47-.57-.18-.95-8.38-2.59,12.2.92.18-1.29-4.74-3-14.87,1.87,12.74-9.92.05-.57-.89-1,1-1,.16-1.51-.52-.51L129,38.85l7.78-6.32.26-1.1-.49-.48-6.89,2.42.47-1.06-.28-.88-8.57,3.3,5.53-12.82-.74-.36L123,24.13l.05,0-5.35,6.62-3.43-11.65-1,.11-5.08,15.88,2.72-11.47-1.79-.28-3.36,6.2h-.12l-.69-9.13-.54-.16-1.1.51-.75,2.46-2.34-4.59,1.38-3-.68-1.07-.61-.19L98.54,15.7l-.75-1-.69-.07-.95.83L96,18l.88.78-4.28,10.7L91,29.1,90.21,26l-.06,0-1.76-2.37.1-3.84-1-.52-1.77,1.26v-6.2l-.63-.48-1.44.48L83,16.46,80.68,6.08l-1.21-.9L78,5.71l-.32,7.51-2.75,2.5-.24,2.55-2.56-3.44-.72-.07-.7.49,1.54,15L91.07,45.66l.15.66.42.19L92.2,46l.19.1,4.85-1.51v-.06l18.41-3.91-7.12,4.76-.07.78,21,1.07-.27.14-.34.68.08.52,5.18.72,2.46,3.81-4.28,1.4h.05l-.42.19-2.1-.33,0-.05-.2,0-.7,1.09.46.82-5.59,3-1.12-.32.33-.13.1-.26-.35-.35-3.46.94,0-.19-.18-.22-.17,0-.27.12L117.7,61l-.2-1,0,.07-2.13-3.89-4.28-.45.19,0L103,57.56l-.23.24-4.18-1-4.37-8.15L88,48.35l-.42.46v0l-2.21-.33.47-2.14-.39-.63-.52-.22-5.48,5.24,1.94-5.39-.18-.63-7.32-4v.09l-9-2.59L54.56,43.87l.69-2.73v0l2.76,1,3.35-1.71-.63-2.4-3.42-1.22L45,40.06l-.46-1.32L30.68,35.82v.06l-.07,0L15.69,40.32l12.53-8.06,1.88,1,.08-.07.93.89,6.33.14.14.34.71.17.24-.11.08-.32h0l.21-.77-2.33-2-1.34-.13-.66-.83,22,3.29.23-.15,0,0,.23.21.46,0L55.08,22.25l3.77-7,2.25-1,0,0-3.5,15.37-.19.09L57.3,30,64,32.86l.49-.3-.62-20,0,0,.38-.79-3.2-6-.68,0-.11.09.35,4L52.4,16,46.3,6.81l-.5.13.89,3-.31.21L41.49,6,40.72.06,40.43,0Zm6.11,25.43L42.1,10.3l6.2,11.55-.75-.05-.77,3.49-.24.14Zm32.36-5.8.2-2.08-.2,10.79-.32.19.32-8.9ZM97.69,30l-.41-.39.11-1.83,1.77-2.37-.91-2.79,1.63,2.31L97.76,30h-.07ZM85.05,36.11l.46-8.43-.46,8.43ZM98.43,37l2.91-6.06L99.41,36h0l-1,1Zm26.67-.72,1.27-.76L121.13,42l3.78-5.78.19.07ZM59.66,55.79,66.59,43.5l0-.12.63-.5-2.52,5.34.07.08h0l-2.45,6.23-2.62,1.26ZM35.94,49.72l5.35-4.14-5.35,4.14Zm14.91-1.86,2.07-1.71-.53,1.1-1.54.61Zm6.92.51.52-.21-.42.59-.1-.38Zm77.45.81-.1-.17.24-.09-.14.26ZM54.4,56l3.37-7-3,6.75-.4.24ZM40.89,53.69l2.78-3.88-2.78,3.88Zm38.56,7.65L83.22,53l-1,3.22.09.07-.11,0-2.73,5ZM57.4,62.57l1.93-1.91L57.4,62.57ZM118,71l-5.49-10.1L118,71Z"/></svg>