<svg id="Layer_1" data-name="Layer 1" xmlns="http://www.w3.org/2000/svg" xmlns:xlink="http://www.w3.org/1999/xlink" viewBox="0 0 172.89 274.89"><defs><style>.cls-1{fill:url(#radial-gradient);}.cls-2{fill:url(#radial-gradient-2);}.cls-3{fill:url(#radial-gradient-3);}.cls-4{fill:url(#radial-gradient-4);}.cls-5{fill:url(#radial-gradient-5);}.cls-6{fill:url(#radial-gradient-6);}.cls-7{fill:url(#radial-gradient-7);}.cls-8{fill:url(#radial-gradient-8);}.cls-9{fill:url(#radial-gradient-9);}.cls-10{fill:url(#radial-gradient-10);}.cls-11{fill:url(#radial-gradient-11);}.cls-12{fill:url(#radial-gradient-12);}.cls-13{fill:url(#radial-gradient-13);}</style><radialGradient id="radial-gradient" cx="81.56" cy="137.48" r="98.74" gradientUnits="userSpaceOnUse"><stop offset="0" stop-color="#0c4c65"/><stop offset="0.06" stop-color="#11526a"/><stop offset="0.5" stop-color="#397f92"/><stop offset="1" stop-color="#1896ab"/></radialGradient><radialGradient id="radial-gradient-2" cx="86.18" cy="225.71" r="43.35" xlink:href="#radial-gradient"/><radialGradient id="radial-gradient-3" cx="126.46" cy="235.98" r="33.73" xlink:href="#radial-gradient"/><radialGradient id="radial-gradient-4" cx="97.79" cy="201.36" r="11.72" xlink:href="#radial-gradient"/><radialGradient id="radial-gradient-5" cx="45.43" cy="162.91" r="64.06" xlink:href="#radial-gradient"/><radialGradient id="radial-gradient-6" cx="30.35" cy="169.45" r="30.17" xlink:href="#radial-gradient"/><radialGradient id="radial-gradient-7" cx="11.24" cy="137.52" r="13.99" xlink:href="#radial-gradient"/><radialGradient id="radial-gradient-8" cx="40.34" cy="153.07" r="12.6" xlink:href="#radial-gradient"/><radialGradient id="radial-gradient-9" cx="41.62" cy="100.58" r="19.88" xlink:href="#radial-gradient"/><radialGradient id="radial-gradient-10" cx="102.42" cy="137.85" r="35.11" xlink:href="#radial-gradient"/><radialGradient id="radial-gradient-11" cx="72.69" cy="193.75" r="19.5" xlink:href="#radial-gradient"/><radialGradient id="radial-gradient-12" cx="117.38" cy="46.65" r="39.37" xlink:href="#radial-gradient"/><radialGradient id="radial-gradient-13" cx="76.64" cy="105.78" r="16.72" xlink:href="#radial-gradient"/></defs><polygon class="cls-1" points="59.46 271.5 112.91 6.58 104.98 1.4 50.22 273.56 59.46 271.5 59.46 271.5"/><polygon class="cls-2" points="113.64 176.53 49.58 270.08 57.73 274.89 122.78 179 113.64 176.53 113.64 176.53 113.64 176.53"/><polygon class="cls-3" points="167.66 225.02 80.03 239.04 85.26 246.93 172.89 232.91 167.66 225.02 167.66 225.02 167.66 225.02"/><polygon class="cls-4" points="107.23 208.54 91.69 187.74 88.35 193.54 99.02 213.24 105.48 214.99 107.23 208.54 107.23 208.54 107.23 208.54"/><polygon class="cls-5" points="62.76 243.69 37.25 73.98 28.11 76.45 57.94 251.84 62.76 243.69 62.76 243.69 62.76 243.69"/><polygon class="cls-6" points="60.71 191.28 6.75 139.46 0 146.1 55.89 199.43 60.71 191.28 60.71 191.28 60.71 191.28"/><polygon class="cls-7" points="16.51 154.12 15.11 120.92 5.98 118.45 7.38 156.59 16.51 154.12 16.51 154.12"/><polygon class="cls-8" points="44.23 139.94 28.3 158 33.01 166.21 52.38 144.75 44.23 139.94 44.23 139.94 44.23 139.94"/><polygon class="cls-9" points="51.63 74.3 42.16 74.34 31.61 120.11 38.24 126.85 51.63 74.3 51.63 74.3 51.63 74.3"/><polygon class="cls-10" points="131.56 105.07 65.12 165.81 73.27 170.63 139.72 109.88 131.56 105.07 131.56 105.07 131.56 105.07"/><polygon class="cls-11" points="90.93 177.96 82.83 173.08 54.44 209.54 62.55 214.42 90.93 177.96 90.93 177.96 90.93 177.96"/><polygon class="cls-12" points="147.77 0 138.31 0.04 86.98 90.82 96.11 93.29 147.77 0 147.77 0 147.77 0"/><polygon class="cls-13" points="86.61 127.17 76.13 84.34 66.66 84.38 77.15 127.21 86.61 127.17 86.61 127.17"/></svg>