<svg id="Layer_1" data-name="Layer 1" xmlns="http://www.w3.org/2000/svg" xmlns:xlink="http://www.w3.org/1999/xlink" viewBox="0 0 209.46 197.28"><defs><style>.cls-1{fill:url(#radial-gradient);}.cls-2{fill:url(#radial-gradient-2);}.cls-3{fill:url(#radial-gradient-3);}.cls-4{fill:url(#radial-gradient-4);}.cls-5{fill:url(#radial-gradient-5);}.cls-6{fill:url(#radial-gradient-6);}.cls-7{fill:url(#radial-gradient-7);}.cls-8{fill:url(#radial-gradient-8);}.cls-9{fill:url(#radial-gradient-9);}.cls-10{fill:url(#radial-gradient-10);}.cls-11{fill:url(#radial-gradient-11);}.cls-12{fill:url(#radial-gradient-12);}.cls-13{fill:url(#radial-gradient-13);}.cls-14{fill:url(#radial-gradient-14);}.cls-15{fill:url(#radial-gradient-15);}.cls-16{fill:url(#radial-gradient-16);}.cls-17{fill:url(#radial-gradient-17);}.cls-18{fill:url(#radial-gradient-18);}.cls-19{fill:url(#radial-gradient-19);}.cls-20{fill:url(#radial-gradient-20);}.cls-21{fill:url(#radial-gradient-21);}.cls-22{fill:url(#radial-gradient-22);}.cls-23{fill:url(#radial-gradient-23);}.cls-24{fill:url(#radial-gradient-24);}.cls-25{fill:url(#radial-gradient-25);}.cls-26{fill:url(#radial-gradient-27);}.cls-27{fill:url(#radial-gradient-28);}.cls-28{fill:url(#radial-gradient-29);}.cls-29{fill:url(#radial-gradient-30);}.cls-30{fill:url(#radial-gradient-32);}.cls-31{fill:url(#radial-gradient-33);}.cls-32{fill:url(#radial-gradient-36);}.cls-33{fill:url(#radial-gradient-37);}.cls-34{fill:url(#radial-gradient-38);}.cls-35{fill:url(#radial-gradient-39);}.cls-36{fill:url(#radial-gradient-40);}.cls-37{fill:url(#radial-gradient-41);}.cls-38{fill:url(#radial-gradient-42);}.cls-39{fill:url(#radial-gradient-44);}.cls-40{fill:url(#radial-gradient-45);}.cls-41{fill:url(#radial-gradient-47);}.cls-42{fill:url(#radial-gradient-49);}.cls-43{fill:url(#radial-gradient-50);}.cls-44{fill:url(#radial-gradient-51);}.cls-45{fill:url(#radial-gradient-52);}.cls-46{fill:url(#radial-gradient-53);}.cls-47{fill:url(#radial-gradient-54);}.cls-48{fill:url(#radial-gradient-55);}.cls-49{fill:url(#radial-gradient-56);}.cls-50{fill:url(#radial-gradient-57);}.cls-51{fill:url(#radial-gradient-58);}.cls-52{fill:url(#radial-gradient-60);}.cls-53{fill:url(#radial-gradient-61);}.cls-54{fill:url(#radial-gradient-62);}.cls-55{fill:url(#radial-gradient-63);}.cls-56{fill:url(#radial-gradient-64);}.cls-57{fill:url(#radial-gradient-66);}.cls-58{fill:url(#radial-gradient-67);}.cls-59{fill:url(#radial-gradient-68);}.cls-60{fill:url(#radial-gradient-74);}.cls-61{fill:url(#radial-gradient-75);}.cls-62{fill:url(#radial-gradient-78);}.cls-63{fill:url(#radial-gradient-79);}.cls-64{fill:url(#radial-gradient-80);}.cls-65{fill:url(#radial-gradient-83);}.cls-66{fill:url(#radial-gradient-86);}.cls-67{fill:url(#radial-gradient-87);}.cls-68{fill:url(#radial-gradient-88);}.cls-69{fill:url(#radial-gradient-89);}.cls-70{fill:url(#radial-gradient-90);}.cls-71{fill:url(#radial-gradient-91);}.cls-72{fill:url(#radial-gradient-92);}.cls-73{fill:url(#radial-gradient-94);}.cls-74{fill:url(#radial-gradient-95);}.cls-75{fill:url(#radial-gradient-98);}.cls-76{fill:url(#radial-gradient-102);}.cls-77{fill:url(#radial-gradient-103);}.cls-78{fill:url(#radial-gradient-107);}.cls-79{fill:url(#radial-gradient-111);}.cls-80{fill:url(#radial-gradient-114);}.cls-81{fill:url(#radial-gradient-115);}</style><radialGradient id="radial-gradient" cx="77.69" cy="111.63" r="1.56" gradientUnits="userSpaceOnUse"><stop offset="0" stop-color="#5b464d"/><stop offset="0.5" stop-color="#735561"/><stop offset="1" stop-color="#8e7d83"/></radialGradient><radialGradient id="radial-gradient-2" cx="92.65" cy="105.29" r="1.86" xlink:href="#radial-gradient"/><radialGradient id="radial-gradient-3" cx="99.84" cy="97.69" r="0.39" xlink:href="#radial-gradient"/><radialGradient id="radial-gradient-4" cx="102.08" cy="86.16" r="0.63" xlink:href="#radial-gradient"/><radialGradient id="radial-gradient-5" cx="104.94" cy="94.14" r="0.68" xlink:href="#radial-gradient"/><radialGradient id="radial-gradient-6" cx="107.66" cy="95.14" r="0.06" xlink:href="#radial-gradient"/><radialGradient id="radial-gradient-7" cx="108.07" cy="93.8" r="0.88" xlink:href="#radial-gradient"/><radialGradient id="radial-gradient-8" cx="108.58" cy="110.07" r="1.28" xlink:href="#radial-gradient"/><radialGradient id="radial-gradient-9" cx="108.75" cy="93.09" r="0.57" xlink:href="#radial-gradient"/><radialGradient id="radial-gradient-10" cx="109.02" cy="98.94" r="0.31" xlink:href="#radial-gradient"/><radialGradient id="radial-gradient-11" cx="109.29" cy="102.57" r="0.13" xlink:href="#radial-gradient"/><radialGradient id="radial-gradient-12" cx="107.42" cy="96.98" r="1.6" xlink:href="#radial-gradient"/><radialGradient id="radial-gradient-13" cx="111.76" cy="115.44" r="0.09" xlink:href="#radial-gradient"/><radialGradient id="radial-gradient-14" cx="112.52" cy="126.5" r="0.58" xlink:href="#radial-gradient"/><radialGradient id="radial-gradient-15" cx="113.04" cy="110.15" r="0.19" xlink:href="#radial-gradient"/><radialGradient id="radial-gradient-16" cx="114.49" cy="107.28" r="0.6" xlink:href="#radial-gradient"/><radialGradient id="radial-gradient-17" cx="117.16" cy="105.55" r="0.02" xlink:href="#radial-gradient"/><radialGradient id="radial-gradient-18" cx="116.17" cy="87.33" r="3.74" xlink:href="#radial-gradient"/><radialGradient id="radial-gradient-19" cx="121.24" cy="97.61" r="4.28" xlink:href="#radial-gradient"/><radialGradient id="radial-gradient-20" cx="123.42" cy="76.11" r="5.7" xlink:href="#radial-gradient"/><radialGradient id="radial-gradient-21" cx="82.24" cy="105.3" r="0.42" xlink:href="#radial-gradient"/><radialGradient id="radial-gradient-22" cx="90.76" cy="104.84" r="0.48" xlink:href="#radial-gradient"/><radialGradient id="radial-gradient-23" cx="91.27" cy="111.06" r="1.83" xlink:href="#radial-gradient"/><radialGradient id="radial-gradient-24" cx="94.78" cy="96.52" r="0.31" xlink:href="#radial-gradient"/><radialGradient id="radial-gradient-25" cx="96.86" cy="108.17" r="1.14" xlink:href="#radial-gradient"/><radialGradient id="radial-gradient-27" cx="101.32" cy="98.21" r="0.72" xlink:href="#radial-gradient"/><radialGradient id="radial-gradient-28" cx="102.78" cy="95.96" r="0.69" xlink:href="#radial-gradient"/><radialGradient id="radial-gradient-29" cx="104.17" cy="98.82" r="0.1" xlink:href="#radial-gradient"/><radialGradient id="radial-gradient-30" cx="104.12" cy="95.38" r="0.23" xlink:href="#radial-gradient"/><radialGradient id="radial-gradient-32" cx="105.92" cy="97.38" r="0.08" xlink:href="#radial-gradient"/><radialGradient id="radial-gradient-33" cx="107.69" cy="95.1" r="0.08" xlink:href="#radial-gradient"/><radialGradient id="radial-gradient-36" cx="108.94" cy="93.31" r="0.77" xlink:href="#radial-gradient"/><radialGradient id="radial-gradient-37" cx="109.55" cy="102.63" r="0.32" xlink:href="#radial-gradient"/><radialGradient id="radial-gradient-38" cx="107.89" cy="96.91" r="1.25" xlink:href="#radial-gradient"/><radialGradient id="radial-gradient-39" cx="110.25" cy="89.66" r="0.62" xlink:href="#radial-gradient"/><radialGradient id="radial-gradient-40" cx="110.43" cy="101.08" r="0.03" xlink:href="#radial-gradient"/><radialGradient id="radial-gradient-41" cx="110.54" cy="94.13" r="0.09" xlink:href="#radial-gradient"/><radialGradient id="radial-gradient-42" cx="112.32" cy="99.1" r="0.55" xlink:href="#radial-gradient"/><radialGradient id="radial-gradient-44" cx="113.64" cy="111.27" r="0.36" xlink:href="#radial-gradient"/><radialGradient id="radial-gradient-45" cx="114.96" cy="106.58" r="1.38" xlink:href="#radial-gradient"/><radialGradient id="radial-gradient-47" cx="118" cy="113.44" r="0.51" xlink:href="#radial-gradient"/><radialGradient id="radial-gradient-49" cx="118.91" cy="80.77" r="5.64" xlink:href="#radial-gradient"/><radialGradient id="radial-gradient-50" cx="123.19" cy="111.87" r="0.09" xlink:href="#radial-gradient"/><radialGradient id="radial-gradient-51" cx="124.22" cy="116.18" r="0.67" xlink:href="#radial-gradient"/><radialGradient id="radial-gradient-52" cx="104.73" cy="98.64" r="101.73" xlink:href="#radial-gradient"/><radialGradient id="radial-gradient-53" cx="130.44" cy="53.16" r="20.68" xlink:href="#radial-gradient"/><radialGradient id="radial-gradient-54" cx="171.38" cy="97.03" r="20.91" xlink:href="#radial-gradient"/><radialGradient id="radial-gradient-55" cx="170.34" cy="93.24" r="20.02" xlink:href="#radial-gradient"/><radialGradient id="radial-gradient-56" cx="134.51" cy="58.55" r="18.65" xlink:href="#radial-gradient"/><radialGradient id="radial-gradient-57" cx="136.71" cy="57.37" r="23.31" xlink:href="#radial-gradient"/><radialGradient id="radial-gradient-58" cx="80" cy="98.98" r="1.39" xlink:href="#radial-gradient"/><radialGradient id="radial-gradient-60" cx="93.58" cy="111.67" r="0.11" xlink:href="#radial-gradient"/><radialGradient id="radial-gradient-61" cx="92.65" cy="105.85" r="1.99" xlink:href="#radial-gradient"/><radialGradient id="radial-gradient-62" cx="97.47" cy="108.5" r="0.65" xlink:href="#radial-gradient"/><radialGradient id="radial-gradient-63" cx="102.78" cy="95.92" r="0.7" xlink:href="#radial-gradient"/><radialGradient id="radial-gradient-64" cx="103.49" cy="95" r="0.29" xlink:href="#radial-gradient"/><radialGradient id="radial-gradient-66" cx="105.89" cy="96.73" r="0.24" xlink:href="#radial-gradient"/><radialGradient id="radial-gradient-67" cx="106.7" cy="97.26" r="0.03" xlink:href="#radial-gradient"/><radialGradient id="radial-gradient-68" cx="107.67" cy="95.1" r="0.09" xlink:href="#radial-gradient"/><radialGradient id="radial-gradient-74" cx="111.93" cy="116.08" r="0.56" xlink:href="#radial-gradient"/><radialGradient id="radial-gradient-75" cx="111.82" cy="94.3" r="0.98" xlink:href="#radial-gradient"/><radialGradient id="radial-gradient-78" cx="115.35" cy="106.13" r="0.97" xlink:href="#radial-gradient"/><radialGradient id="radial-gradient-79" cx="119.31" cy="109.11" r="0.2" xlink:href="#radial-gradient"/><radialGradient id="radial-gradient-80" cx="120.06" cy="99.69" r="0.66" xlink:href="#radial-gradient"/><radialGradient id="radial-gradient-83" cx="119.91" cy="97.61" r="3.35" xlink:href="#radial-gradient"/><radialGradient id="radial-gradient-86" cx="132.64" cy="104.95" r="2.67" xlink:href="#radial-gradient"/><radialGradient id="radial-gradient-87" cx="140.69" cy="96.54" r="6.64" xlink:href="#radial-gradient"/><radialGradient id="radial-gradient-88" cx="56.12" cy="155.28" r="3.46" xlink:href="#radial-gradient"/><radialGradient id="radial-gradient-89" cx="77.92" cy="100.45" r="2.92" xlink:href="#radial-gradient"/><radialGradient id="radial-gradient-90" cx="90.33" cy="104.96" r="0.16" xlink:href="#radial-gradient"/><radialGradient id="radial-gradient-91" cx="90.7" cy="113.78" r="1.63" xlink:href="#radial-gradient"/><radialGradient id="radial-gradient-92" cx="93.31" cy="105.25" r="1.38" xlink:href="#radial-gradient"/><radialGradient id="radial-gradient-94" cx="96.07" cy="106.85" r="0.93" xlink:href="#radial-gradient"/><radialGradient id="radial-gradient-95" cx="99.25" cy="76.71" r="1.72" xlink:href="#radial-gradient"/><radialGradient id="radial-gradient-98" cx="103.59" cy="96.15" r="0.11" xlink:href="#radial-gradient"/><radialGradient id="radial-gradient-102" cx="104.62" cy="94" r="0.45" xlink:href="#radial-gradient"/><radialGradient id="radial-gradient-103" cx="105.52" cy="97.13" r="0.26" xlink:href="#radial-gradient"/><radialGradient id="radial-gradient-107" cx="108.14" cy="96.9" r="1.03" xlink:href="#radial-gradient"/><radialGradient id="radial-gradient-111" cx="115.74" cy="105.04" r="0.16" xlink:href="#radial-gradient"/><radialGradient id="radial-gradient-114" cx="123.37" cy="106.81" r="0.71" xlink:href="#radial-gradient"/><radialGradient id="radial-gradient-115" cx="125.29" cy="121.67" r="0.93" xlink:href="#radial-gradient"/></defs><polygon class="cls-1" points="75.56 112.21 79.82 111.05 77.09 112.17 75.56 112.21"/><polygon class="cls-2" points="91.42 104.95 95.2 104.76 92.79 105.75 92.36 105.92 90.55 104.99 90.11 105.02 90.37 104.9 90.92 104.66 91.42 104.95"/><polygon class="cls-3" points="100 97.53 100.36 97.85 99.32 97.59 100 97.53"/><path class="cls-4" d="M101.71,85.35l.74,1.62-.4-.42C101.94,86.16,101.82,85.76,101.71,85.35Z"/><path class="cls-5" d="M105.74,94.68l-.64-.27-.81-.34-.15-.48.91.62-.11-.42.79.89Z"/><polygon class="cls-6" points="107.68 95.22 107.64 95.13 107.66 95.06 107.68 95.22"/><polygon class="cls-7" points="108.44 93.25 107.7 94.99 107.83 92.61 108.44 93.25"/><polygon class="cls-8" points="108.86 108.28 108.91 111.85 108.26 110.16 108.86 108.28"/><polygon class="cls-9" points="109.01 93.84 108.44 93.25 108.83 92.35 109.05 93.04 109.01 93.84"/><polygon class="cls-10" points="109.39 99.18 108.65 98.8 108.69 98.69 109.39 99.18"/><polygon class="cls-11" points="109.11 102.53 109.47 102.55 109.44 102.61 109.11 102.53"/><polygon class="cls-12" points="109.56 96.55 109.63 96.54 109.56 96.56 106.73 97.24 106.71 97.28 106.67 97.26 106.01 97.42 105.86 97.45 105.83 97.32 105.2 96.99 105.73 96.94 105.63 96.52 106.16 96.9 106.91 96.82 109.56 96.55"/><polygon class="cls-13" points="111.72 115.31 111.79 115.51 111.77 115.56 111.72 115.31"/><polygon class="cls-14" points="112.45 125.69 112.65 126.61 112.39 127.31 112.45 125.69"/><polygon class="cls-15" points="112.95 109.91 113.14 110.4 112.94 110.22 112.95 109.91"/><polygon class="cls-16" points="114.1 106.53 114.89 107.31 114.61 108.03 114.1 106.53"/><polygon class="cls-17" points="117.14 105.53 117.19 105.57 117.17 105.56 117.14 105.53"/><polygon class="cls-18" points="118.28 84.71 113.6 91.66 113.29 91.77 119.04 82.88 118.28 84.71"/><path class="cls-19" d="M123,96.94l4.18.54-2.66.29-7.69.86L115.28,98l5-1.42Z"/><polygon class="cls-20" points="127.8 69.34 119.04 82.88 120 80.56 127.8 69.34"/><polygon class="cls-21" points="82.44 105.16 82.82 105.38 81.66 105.44 82.44 105.16"/><polygon class="cls-22" points="90.55 104.99 90.11 105.02 90.37 104.9 90.92 104.66 91.42 104.95 90.55 104.99"/><polygon class="cls-23" points="93.54 111.61 93.73 111.72 93.44 111.72 88.81 111.85 91.23 110.26 93.54 111.61"/><polygon class="cls-24" points="94.36 96.39 95.2 96.59 94.65 96.66 94.36 96.39"/><polygon class="cls-25" points="96.73 108.05 98.27 108.95 96.66 108.13 95.45 107.5 95.61 107.39 96.73 108.05"/><polygon class="cls-3" points="100 97.53 100.36 97.85 99.32 97.59 100 97.53"/><polygon class="cls-26" points="100.36 97.85 102.28 98.31 101.2 98.57 100.36 97.85"/><polygon class="cls-27" points="103.46 96.08 103.73 96.22 103.48 96.17 101.84 95.81 102.73 95.7 103.46 96.08"/><polygon class="cls-28" points="104.05 98.74 104.29 98.8 104.09 98.89 104.05 98.74"/><polygon class="cls-29" points="103.82 95.24 104.41 95.5 104.23 95.52 103.82 95.24"/><path class="cls-5" d="M105.73,94.68h0l-.64-.27-.81-.34-.15-.48.91.62Z"/><polygon class="cls-30" points="105.83 97.32 106.01 97.42 105.86 97.45 105.83 97.32"/><polygon class="cls-31" points="107.68 95.22 107.68 95.02 107.7 94.99 107.68 95.22"/><polygon class="cls-7" points="108.44 93.25 107.7 94.99 107.83 92.61 108.44 93.25"/><polygon class="cls-8" points="108.86 108.28 108.91 111.85 108.26 110.16 108.86 108.28"/><polygon class="cls-32" points="109.01 93.84 108.44 93.25 108.83 92.35 109.05 93.04 109.43 94.28 109.01 93.84"/><polygon class="cls-33" points="109.47 102.55 110 102.58 109.95 102.73 109.44 102.61 109.11 102.53 109.47 102.55"/><polygon class="cls-34" points="109.56 96.56 106.73 97.24 106.71 97.28 106.67 97.26 106.16 96.9 106.91 96.82 109.56 96.55 109.63 96.54 109.56 96.56"/><polygon class="cls-35" points="110.43 90.52 110.07 89.46 110.36 88.8 110.43 90.52"/><polygon class="cls-36" points="110.41 101.12 110.46 101.05 110.44 101.12 110.41 101.12"/><polygon class="cls-37" points="110.58 94.02 110.59 94.1 110.49 94.24 110.58 94.02"/><path class="cls-38" d="M113.09,99.08l-1.16.15-.38-.26Z"/><polygon class="cls-15" points="112.95 109.91 113.14 110.4 112.94 110.22 112.95 109.91"/><polygon class="cls-39" points="113.56 110.81 113.85 111.08 113.64 111.74 113.43 111.17 113.56 110.81"/><polygon class="cls-40" points="115.67 105.24 115.82 104.83 115.69 105.25 115 107.42 114.72 108.32 114.61 108.03 114.1 106.53 114.89 107.31 115.67 105.24"/><polygon class="cls-17" points="117.14 105.53 117.19 105.57 117.17 105.56 117.14 105.53"/><polygon class="cls-41" points="117.81 112.83 118.37 114.06 117.63 113.33 117.81 112.83"/><polygon class="cls-18" points="113.29 91.77 119.04 82.88 118.28 84.71 115.72 90.92 113.6 91.66 113.29 91.77"/><polygon class="cls-42" points="118.53 79.87 122.79 73.81 120 80.56 115.02 87.73 118.53 79.87"/><polygon class="cls-43" points="123.1 111.78 123.27 111.95 123.11 111.81 123.1 111.78"/><polygon class="cls-44" points="124.77 116.95 123.76 115.97 123.67 115.4 124.77 116.95"/><path class="cls-45" d="M135.18,110.35l64.16,24.79-35.79-16.31,15,4.49-24.67-9.86,40.55,8.71L150.27,112l-14.12-5.65-7-2.81,1,0,12.21.62,67.15,14-55.69-13.4L197.71,107l-48.25-3.27L137.93,101l40.63,3.12L133,98.23l8.81-1.06L131.32,97l10.86-1.13-17.48-.59L178.56,80,125.72,92.83l51.86-23.68L131,85.55,174.53,59.8l-49.7,27.91-9.11,3.21-2.12.74-.31.11L119,82.88l1-2.32-5,7.17,3.51-7.86-5.24,7.44L148.55,0,110.36,88.8l.07,1.72-.36-1.06.29-.66-.56-13,3-68-3.41,58.28L107,9.91l.6,72.18-2.19-6.47L97.32,7.11l6.39,63.6L86.54,20.1l17.92,58.09,1.23,12.17-.69-.73-1.12-2.32-3.55-12L85.77,17.1l8.35,37.28L80.7,9.14c.18.67,10.69,39.55,17.89,65.23.46,1.61.9,3.18,1.32,4.68l-.5-1L70.51,17.85l29.93,64.76.66,2.94L49,31l53.26,59.84.4,1.79L63.08,65.46,28.48,35.4l26.4,24.44L27.61,41.16,58,62.7,81.18,84.19,26.81,60.94,83.19,86.05l3.21,3-65.22-26L77.3,90.42l-4.51-1L21.57,64.14l38.52,22.5-9.34-2L19,68.33l25.75,15L0,73.46,47.89,85.1,72.36,99.31,9.88,106.74l64-6.55L80,99.57l-1.85-.95,2.06-.24,1.7,1L80,99.57l2,1-6.11.75-61.9,7.52,67.72-3.41.78-.28.38.22-1.16.06-20.21,7.15L9.3,114l46.59.56L19.46,127.45l47-12.76H68L27.35,132.51,70.8,114.74l13.35.16-54.93,36L88.74,115l3.93-2.37L90.52,115l-46.35,51.7,10.37-10,5-4.85,22-21.28L43.43,175.33,95.27,119.8,55,185.93l47.34-72.4L72.66,192.42,100,124.94l-8.7,34.87-7.93,28.42,16.44-51.52L84.45,188l23.07-61.12.27,3.44L89,189.76,108.4,138l1.09,13.91.66,45.39L111,171l1.61,20.47-1.3-30.09,1.09-34.08.06-1.62.2.92,14.7,65.33-13.81-67.7.06-.15,18,46.88,4.09,20.74L129.88,155l13.51,35.93L129,149.55l-1.13-7.16,23.57,44.92-25.31-56-1.57-10-.11-.69,1.59,2.1,44.16,58.52-35.68-50.45,30.9,29.41L132.55,128l-7.78-11-1-1-.09-.57,1.1,1.55,48.07,46.93L123.27,112l-.16-.14v0l.17.17,53.94,48.37-48.65-45.55,7.32,4.44,48.35,35.3-38.6-29.39,26.92,16.32-49.81-34.68-.34-.24,1.94.58Zm-19.49-5.11-.69,2.18-.28.9-.11-.29-.51-1.49.79.77.78-2.07.15-.41ZM103.16,94.77l.66.47.59.26-.18,0-.41-.28-.61-.28Zm4.5.29,0,0,0,0,.13-2.38.61.64.39-.9.22.69.38,1.24-.42-.44-.57-.59L107.7,95l0,.23,0-.09Zm-1.5,1.84.75-.08,2.65-.27h.07l-.08,0-2.82.68,0,0,0,0-.66.15-.15,0,0-.13-.62-.33.52,0-.1-.42ZM111.55,99l1.54.11-1.16.15Zm-1.14,2.15,0-.07,0,.07Zm7.41,11.71.55,1.23-.74-.73Zm-4.39-1.66.13-.36.29.27-.21.66ZM102.73,95.7l.62-.07.11.45.27.14-.25-.06-1.64-.35Zm6,3,.7.49-.74-.38Zm-4.64,0,.24.06-.2.09ZM100,97.53l.37.32,1.92.46-1.08.26-.84-.72-1-.25Zm13.15,12.87-.2-.18v-.31ZM95.21,96.59l-.56.07-.29-.27Zm13.65,11.69,0,3.57-.65-1.69Zm2.91,7.28,0-.25.07.2.35,1-.11.35Zm1-1.19,0-.72.13.24Zm-3.37-11.76-.33-.08.36,0,.53,0,0,.15Zm10.4-2.78-.7-.28,1.84.14ZM123,96.94l4.18.54-2.66.29-7.69.86L115.28,98l5-1.42Zm-11.27-1.88-.7.39,1.55-2.3Zm-1.16-1-.1.14.09-.23Zm-8.88-8.75.74,1.62-.4-.42C101.94,86.16,101.82,85.76,101.71,85.35Zm3.23,8.44.79.89h0l-.64-.27-.81-.34-.15-.48.91.62ZM90.37,104.9l.55-.24.5.29,3.78-.19-2.41,1L94.87,107l2.39-.65-1.65,1.09,1.12.65,1.54.9-1.61-.82-1.21-.63-.89-.45-2.2-1.13L90.55,105l-.44,0Zm-14.81,7.31,4.26-1.16-2.73,1.12Zm13.25-.36,2.42-1.59,2.31,1.35.19.11h-.29Zm30.4-2.75.09-.25.11.53Zm-2.08-3.57.06,0h0Z"/><polygon class="cls-46" points="122.79 73.81 118.53 79.87 142.36 26.45 122.79 73.81"/><polygon class="cls-47" points="141.83 97.17 150.05 96.17 200.94 97.88 141.83 97.17"/><path class="cls-48" d="M150.05,96.17l-7.87-.26c25.35-2.61,55.71-5.54,56.31-5.6Z"/><polygon class="cls-49" points="120 80.56 122.79 73.81 149.03 36.53 127.8 69.34 120 80.56"/><polygon class="cls-50" points="119.04 82.88 127.8 69.34 155.13 30.03 118.28 84.71 119.04 82.88"/><polygon class="cls-51" points="81.89 99.38 79.97 99.57 78.12 98.63 80.18 98.38 81.89 99.38"/><polygon class="cls-21" points="82.44 105.16 82.82 105.38 81.66 105.44 82.44 105.16"/><polygon class="cls-52" points="93.54 111.61 93.73 111.72 93.44 111.72 93.54 111.61"/><polygon class="cls-53" points="95.2 104.76 92.79 105.75 94.87 106.96 94.56 107.05 92.36 105.92 90.55 104.99 90.11 105.02 90.37 104.9 90.92 104.66 91.42 104.95 95.2 104.76"/><polygon class="cls-54" points="96.73 108.05 98.27 108.95 96.66 108.13 96.73 108.05"/><polygon class="cls-55" points="103.46 96.08 103.73 96.22 103.48 96.17 101.84 95.81 102.73 95.7 103.35 95.63 103.46 96.08"/><polygon class="cls-56" points="103.16 94.77 103.82 95.24 103.21 94.96 103.16 94.77"/><polygon class="cls-28" points="104.05 98.74 104.29 98.8 104.09 98.89 104.05 98.74"/><polygon class="cls-57" points="105.63 96.52 106.16 96.9 105.73 96.94 105.63 96.52"/><polygon class="cls-58" points="106.67 97.26 106.73 97.24 106.71 97.28 106.67 97.26"/><polygon class="cls-59" points="107.68 95.02 107.7 94.99 107.68 95.22 107.64 95.13 107.66 95.06 107.68 95.02"/><polygon class="cls-7" points="107.83 92.61 108.44 93.25 107.7 94.99 107.83 92.61"/><polygon class="cls-10" points="109.39 99.18 108.65 98.8 108.69 98.69 109.39 99.18"/><polygon class="cls-33" points="109.47 102.55 110 102.58 109.95 102.73 109.44 102.61 109.11 102.53 109.47 102.55"/><polygon class="cls-36" points="110.41 101.12 110.46 101.05 110.44 101.12 110.41 101.12"/><polygon class="cls-37" points="110.58 94.02 110.59 94.1 110.49 94.24 110.58 94.02"/><polygon class="cls-60" points="111.79 115.51 112.14 116.49 112.03 116.83 111.77 115.56 111.72 115.31 111.79 115.51"/><polygon class="cls-61" points="111.75 95.06 111.05 95.45 112.6 93.15 111.75 95.06"/><path class="cls-38" d="M111.55,99l1.54.11-1.16.15Z"/><polygon class="cls-39" points="113.56 110.81 113.85 111.08 113.64 111.74 113.43 111.17 113.56 110.81"/><polygon class="cls-62" points="115.67 105.24 115.82 104.83 115.69 105.25 115 107.42 114.89 107.31 115.67 105.24"/><polygon class="cls-63" points="119.31 108.85 119.41 109.38 119.21 109.1 119.31 108.85"/><polygon class="cls-64" points="119.14 99.55 120.98 99.69 119.84 99.83 119.14 99.55"/><polygon class="cls-42" points="122.79 73.81 120 80.56 115.02 87.73 118.53 79.87 122.79 73.81"/><polygon class="cls-43" points="123.1 111.78 123.27 111.95 123.11 111.81 123.1 111.78"/><path class="cls-65" d="M124.54,97.77l-7.69.86L115.28,98l5-1.42,2.75.35-2,0Z"/><polygon class="cls-44" points="123.67 115.4 124.77 116.95 123.76 115.97 123.67 115.4"/><polygon class="cls-20" points="120 80.56 127.8 69.34 119.04 82.88 120 80.56"/><polygon class="cls-66" points="130.1 103.6 136.15 106.36 129.14 103.55 130.1 103.6"/><path class="cls-67" d="M150.05,96.17l-8.22,1L131.32,97l10.86-1.13Z"/><polygon class="cls-68" points="54.53 156.64 59.55 151.79 52.7 158.76 54.53 156.64"/><polygon class="cls-69" points="79.97 99.57 81.95 100.58 75.84 101.33 73.89 100.19 79.97 99.57"/><polygon class="cls-70" points="90.55 104.99 90.11 105.02 90.37 104.9 90.55 104.99"/><polygon class="cls-71" points="88.74 114.95 92.67 112.58 90.52 114.97 88.74 114.95"/><polygon class="cls-72" points="95.2 104.76 92.79 105.75 91.42 104.95 95.2 104.76"/><polygon class="cls-24" points="94.65 96.66 94.36 96.39 95.2 96.59 94.65 96.66"/><polygon class="cls-73" points="94.87 106.96 97.26 106.31 95.61 107.39 94.87 106.96"/><path class="cls-74" d="M99.41,78l-.82-3.63c.46,1.61.9,3.18,1.32,4.68Z"/><polygon class="cls-3" points="100 97.53 100.36 97.85 99.32 97.59 100 97.53"/><path class="cls-4" d="M101.71,85.35l.74,1.62-.4-.42C101.94,86.16,101.82,85.76,101.71,85.35Z"/><polygon class="cls-75" points="103.46 96.08 103.73 96.22 103.48 96.17 103.46 96.08"/><polygon class="cls-56" points="103.16 94.77 103.82 95.24 103.21 94.96 103.16 94.77"/><polygon class="cls-28" points="104.05 98.74 104.29 98.8 104.09 98.89 104.05 98.74"/><polygon class="cls-29" points="103.82 95.24 104.41 95.5 104.23 95.52 103.82 95.24"/><path class="cls-76" d="M105.05,94.21l0,.2-.81-.34-.15-.48Z"/><polygon class="cls-77" points="105.73 96.94 105.83 97.32 105.2 96.99 105.73 96.94"/><polygon class="cls-59" points="107.68 95.22 107.64 95.13 107.66 95.06 107.68 95.02 107.7 94.99 107.68 95.22"/><polygon class="cls-8" points="108.86 108.28 108.91 111.85 108.26 110.16 108.86 108.28"/><polygon class="cls-32" points="109.01 93.84 108.44 93.25 108.83 92.35 109.05 93.04 109.43 94.28 109.01 93.84"/><polygon class="cls-78" points="106.91 96.82 109.56 96.55 109.56 96.56 106.73 97.24 106.91 96.82"/><polygon class="cls-35" points="110.36 88.8 110.43 90.52 110.07 89.46 110.36 88.8"/><polygon class="cls-60" points="111.79 115.51 112.14 116.49 112.03 116.83 111.77 115.56 111.72 115.31 111.79 115.51"/><polygon class="cls-15" points="112.95 109.91 113.14 110.4 112.94 110.22 112.95 109.91"/><polygon class="cls-79" points="115.67 105.24 115.82 104.83 115.69 105.25 115.67 105.24"/><polygon class="cls-17" points="117.14 105.53 117.19 105.57 117.17 105.56 117.14 105.53"/><polygon class="cls-64" points="119.14 99.55 120.98 99.69 119.84 99.83 119.14 99.55"/><polygon class="cls-80" points="122.4 106.53 124.34 107.1 122.74 106.76 122.4 106.53"/><polygon class="cls-81" points="124.49 120.62 126.08 122.72 124.6 121.31 124.49 120.62"/><path class="cls-67" d="M150.05,96.17l-8.22,1L131.32,97l10.86-1.13Z"/></svg>