<svg id="Layer_1" data-name="Layer 1" xmlns="http://www.w3.org/2000/svg" xmlns:xlink="http://www.w3.org/1999/xlink" viewBox="0 0 202.18 301.99"><defs><style>.cls-1{fill:url(#radial-gradient);}.cls-2{fill:url(#radial-gradient-2);}.cls-3{fill:url(#radial-gradient-3);}.cls-4{fill:url(#radial-gradient-4);}.cls-5{fill:url(#radial-gradient-5);}.cls-6{fill:url(#radial-gradient-6);}.cls-7{fill:url(#radial-gradient-7);}.cls-8{fill:url(#radial-gradient-8);}.cls-9{fill:url(#radial-gradient-9);}.cls-10{fill:url(#radial-gradient-10);}.cls-11{fill:url(#radial-gradient-11);}.cls-12{fill:url(#radial-gradient-12);}.cls-13{fill:url(#radial-gradient-13);}.cls-14{fill:url(#radial-gradient-14);}.cls-15{fill:url(#radial-gradient-15);}</style><radialGradient id="radial-gradient" cx="106.14" cy="164.81" r="98.63" gradientUnits="userSpaceOnUse"><stop offset="0" stop-color="#ab7171"/><stop offset="0.64" stop-color="#b37777"/><stop offset="1" stop-color="#bc8787"/></radialGradient><radialGradient id="radial-gradient-2" cx="115.46" cy="222.51" r="43.35" xlink:href="#radial-gradient"/><radialGradient id="radial-gradient-3" cx="155.75" cy="232.26" r="33.82" xlink:href="#radial-gradient"/><radialGradient id="radial-gradient-4" cx="165.39" cy="234.77" r="14.12" xlink:href="#radial-gradient"/><radialGradient id="radial-gradient-5" cx="127.08" cy="198.17" r="11.72" xlink:href="#radial-gradient"/><radialGradient id="radial-gradient-6" cx="69.31" cy="156.53" r="64.06" xlink:href="#radial-gradient"/><radialGradient id="radial-gradient-7" cx="30.35" cy="175.55" r="30.17" xlink:href="#radial-gradient"/><radialGradient id="radial-gradient-8" cx="32.02" cy="155.41" r="13.99" xlink:href="#radial-gradient"/><radialGradient id="radial-gradient-9" cx="69.63" cy="149.87" r="12.6" xlink:href="#radial-gradient"/><radialGradient id="radial-gradient-10" cx="70.9" cy="97.38" r="19.88" xlink:href="#radial-gradient"/><radialGradient id="radial-gradient-11" cx="136.5" cy="136.25" r="35.11" xlink:href="#radial-gradient"/><radialGradient id="radial-gradient-12" cx="145.17" cy="112.16" r="18.55" xlink:href="#radial-gradient"/><radialGradient id="radial-gradient-13" cx="141.86" cy="46.65" r="39.37" xlink:href="#radial-gradient"/><radialGradient id="radial-gradient-14" cx="105.93" cy="102.58" r="16.72" xlink:href="#radial-gradient"/><radialGradient id="radial-gradient-15" cx="167.09" cy="40.09" r="18.52" xlink:href="#radial-gradient"/></defs><polygon class="cls-1" points="90.05 299.52 131.36 32.44 123.21 27.62 80.92 301.99 90.05 299.52 90.05 299.52"/><polygon class="cls-2" points="142.93 173.33 78.86 266.88 87.01 271.69 152.06 175.8 142.93 173.33 142.93 173.33 142.93 173.33"/><polygon class="cls-3" points="196.95 221.82 147.17 220.79 109.32 235.84 114.54 243.73 202.18 229.71 196.95 221.82 196.95 221.82 196.95 221.82"/><polygon class="cls-4" points="180.66 240.55 154.3 221.9 150.12 230.4 174.38 247.63 180.66 240.55 180.66 240.55 180.66 240.55"/><polygon class="cls-5" points="136.51 205.33 126.78 187.87 120.97 184.54 117.64 190.34 128.31 210.04 134.76 211.79 136.51 205.33 136.51 205.33 136.51 205.33"/><polygon class="cls-6" points="86.63 237.31 66.91 203.29 61.12 67.6 51.98 70.08 81.82 245.46 86.63 237.31 86.63 237.31 86.63 237.31"/><polygon class="cls-7" points="60.71 197.39 6.75 145.56 0 152.2 55.89 205.54 60.71 197.39 60.71 197.39 60.71 197.39"/><polygon class="cls-8" points="37.29 172 35.89 138.81 26.75 136.34 28.15 174.47 37.29 172 37.29 172"/><polygon class="cls-9" points="73.52 136.74 57.59 154.8 62.3 163.01 81.67 141.55 73.52 136.74 73.52 136.74 73.52 136.74"/><polygon class="cls-10" points="80.91 71.1 71.45 71.15 60.89 116.91 67.53 123.65 80.91 71.1 80.91 71.1 80.91 71.1"/><polygon class="cls-11" points="165.65 103.47 148.36 122.82 126.6 133.81 99.2 164.21 107.35 169.03 173.8 108.28 165.65 103.47 165.65 103.47 165.65 103.47"/><polygon class="cls-12" points="158.4 91.97 149.27 89.5 131.95 132.34 141.08 134.81 158.4 91.97 158.4 91.97 158.4 91.97"/><polygon class="cls-13" points="172.26 0 162.79 0.04 145.28 53.54 111.47 90.82 120.6 93.29 158.15 50.76 172.26 0 172.26 0 172.26 0"/><polygon class="cls-14" points="115.9 123.97 105.42 81.14 95.95 81.18 106.44 124.01 115.9 123.97 115.9 123.97"/><polygon class="cls-15" points="179.49 23.86 146.54 51.51 154.69 56.33 187.64 28.68 179.49 23.86 179.49 23.86 179.49 23.86"/></svg>