<svg id="Layer_1" data-name="Layer 1" xmlns="http://www.w3.org/2000/svg" xmlns:xlink="http://www.w3.org/1999/xlink" viewBox="0 0 281.51 201.86"><defs><style>.cls-1{fill:url(#radial-gradient);}.cls-2{fill:url(#radial-gradient-2);}.cls-3{fill:url(#radial-gradient-3);}.cls-4{fill:url(#radial-gradient-4);}.cls-5{fill:url(#radial-gradient-5);}.cls-6{fill:url(#radial-gradient-6);}.cls-7{fill:url(#radial-gradient-7);}.cls-8{fill:url(#radial-gradient-8);}.cls-9{fill:url(#radial-gradient-9);}.cls-10{fill:url(#radial-gradient-10);}.cls-11{fill:url(#radial-gradient-11);}.cls-12{fill:url(#radial-gradient-12);}.cls-13{fill:url(#radial-gradient-13);}.cls-14{fill:url(#radial-gradient-14);}.cls-15{fill:url(#radial-gradient-15);}.cls-16{fill:url(#radial-gradient-16);}.cls-17{fill:url(#radial-gradient-17);}.cls-18{fill:url(#radial-gradient-18);}.cls-19{fill:url(#radial-gradient-19);}.cls-20{fill:url(#radial-gradient-20);}.cls-21{fill:url(#radial-gradient-21);}.cls-22{fill:url(#radial-gradient-22);}.cls-23{fill:url(#radial-gradient-23);}.cls-24{fill:url(#radial-gradient-24);}.cls-25{fill:url(#radial-gradient-25);}.cls-26{fill:url(#radial-gradient-26);}.cls-27{fill:url(#radial-gradient-27);}.cls-28{fill:url(#radial-gradient-28);}.cls-29{fill:url(#radial-gradient-29);}.cls-30{fill:url(#radial-gradient-30);}.cls-31{fill:url(#radial-gradient-31);}.cls-32{fill:url(#radial-gradient-32);}.cls-33{fill:url(#radial-gradient-33);}.cls-34{fill:url(#radial-gradient-34);}.cls-35{fill:url(#radial-gradient-35);}.cls-36{fill:url(#radial-gradient-36);}.cls-37{fill:url(#radial-gradient-37);}.cls-38{fill:url(#radial-gradient-38);}.cls-39{fill:url(#radial-gradient-39);}.cls-40{fill:url(#radial-gradient-40);}.cls-41{fill:url(#radial-gradient-41);}.cls-42{fill:url(#radial-gradient-42);}.cls-43{fill:url(#radial-gradient-43);}.cls-44{fill:url(#radial-gradient-44);}.cls-45{fill:url(#radial-gradient-45);}.cls-46{fill:url(#radial-gradient-46);}.cls-47{fill:url(#radial-gradient-47);}.cls-48{fill:url(#radial-gradient-48);}.cls-49{fill:url(#radial-gradient-49);}.cls-50{fill:#edc66a;}.cls-51{fill:url(#radial-gradient-50);}.cls-52{fill:url(#radial-gradient-51);}</style><radialGradient id="radial-gradient" cx="65.84" cy="79.4" r="52.87" gradientUnits="userSpaceOnUse"><stop offset="0" stop-color="#979969"/><stop offset="0.16" stop-color="#abaf66"/><stop offset="0.5" stop-color="#d4dc61"/><stop offset="1" stop-color="#c7cc68"/></radialGradient><radialGradient id="radial-gradient-2" cx="147.07" cy="46.45" r="0" xlink:href="#radial-gradient"/><radialGradient id="radial-gradient-3" cx="58.44" cy="25.1" r="0.04" xlink:href="#radial-gradient"/><radialGradient id="radial-gradient-4" cx="6" cy="40.86" r="0.18" xlink:href="#radial-gradient"/><radialGradient id="radial-gradient-5" cx="5.69" cy="49.79" r="0.1" xlink:href="#radial-gradient"/><radialGradient id="radial-gradient-6" cx="65.89" cy="79.19" r="52.85" xlink:href="#radial-gradient"/><radialGradient id="radial-gradient-7" cx="162.84" cy="83.16" r="4.41" xlink:href="#radial-gradient"/><radialGradient id="radial-gradient-8" cx="130.01" cy="93.05" r="38.53" xlink:href="#radial-gradient"/><radialGradient id="radial-gradient-9" cx="117.29" cy="90.78" r="83.03" xlink:href="#radial-gradient"/><radialGradient id="radial-gradient-10" cx="159.74" cy="77.06" r="30.31" xlink:href="#radial-gradient"/><radialGradient id="radial-gradient-11" cx="133.03" cy="76.95" r="0.12" xlink:href="#radial-gradient"/><radialGradient id="radial-gradient-12" cx="132.77" cy="72.65" r="0.15" xlink:href="#radial-gradient"/><radialGradient id="radial-gradient-13" cx="125.71" cy="80.06" r="26.8" xlink:href="#radial-gradient"/><radialGradient id="radial-gradient-14" cx="97.27" cy="93.81" r="20.46" xlink:href="#radial-gradient"/><radialGradient id="radial-gradient-15" cx="92.5" cy="92.85" r="27.21" xlink:href="#radial-gradient"/><radialGradient id="radial-gradient-16" cx="223.85" cy="77.99" r="0.21" xlink:href="#radial-gradient"/><radialGradient id="radial-gradient-17" cx="204.33" cy="106.97" r="25.91" xlink:href="#radial-gradient"/><radialGradient id="radial-gradient-18" cx="196.66" cy="74.83" r="63.14" xlink:href="#radial-gradient"/><radialGradient id="radial-gradient-19" cx="93.44" cy="109.44" r="86.02" xlink:href="#radial-gradient"/><radialGradient id="radial-gradient-20" cx="168.12" cy="91.77" r="0.03" xlink:href="#radial-gradient"/><radialGradient id="radial-gradient-21" cx="134.24" cy="149.92" r="101.47" xlink:href="#radial-gradient"/><radialGradient id="radial-gradient-22" cx="185.73" cy="128.1" r="95.67" xlink:href="#radial-gradient"/><radialGradient id="radial-gradient-23" cx="144.5" cy="149.01" r="24.21" xlink:href="#radial-gradient"/><radialGradient id="radial-gradient-24" cx="95.02" cy="154.65" r="0.15" xlink:href="#radial-gradient"/><radialGradient id="radial-gradient-25" cx="108.75" cy="152.74" r="66.67" xlink:href="#radial-gradient"/><radialGradient id="radial-gradient-26" cx="87.56" cy="144.83" r="19.57" xlink:href="#radial-gradient"/><radialGradient id="radial-gradient-27" cx="63.9" cy="130.53" r="43.66" xlink:href="#radial-gradient"/><radialGradient id="radial-gradient-28" cx="123.83" cy="177.25" r="122.12" xlink:href="#radial-gradient"/><radialGradient id="radial-gradient-29" cx="125.87" cy="181.37" r="2.43" xlink:href="#radial-gradient"/><radialGradient id="radial-gradient-30" cx="112.51" cy="185.87" r="25.34" xlink:href="#radial-gradient"/><radialGradient id="radial-gradient-31" cx="123.85" cy="176.49" r="121.8" xlink:href="#radial-gradient"/><radialGradient id="radial-gradient-32" cx="277.16" cy="103.64" r="0.09" xlink:href="#radial-gradient"/><radialGradient id="radial-gradient-33" cx="273.24" cy="99.11" r="0.62" xlink:href="#radial-gradient"/><radialGradient id="radial-gradient-34" cx="267.12" cy="121.19" r="10.17" xlink:href="#radial-gradient"/><radialGradient id="radial-gradient-35" cx="256.01" cy="134.07" r="24.41" xlink:href="#radial-gradient"/><radialGradient id="radial-gradient-36" cx="234.13" cy="148.68" r="24.92" xlink:href="#radial-gradient"/><radialGradient id="radial-gradient-37" cx="234.81" cy="119.49" r="69.01" xlink:href="#radial-gradient"/><radialGradient id="radial-gradient-38" cx="227.44" cy="136.95" r="80.87" xlink:href="#radial-gradient"/><radialGradient id="radial-gradient-39" cx="232.52" cy="85.9" r="12.88" xlink:href="#radial-gradient"/><radialGradient id="radial-gradient-40" cx="218.32" cy="135.37" r="53.51" xlink:href="#radial-gradient"/><radialGradient id="radial-gradient-41" cx="224.07" cy="138.53" r="0.56" xlink:href="#radial-gradient"/><radialGradient id="radial-gradient-42" cx="170.93" cy="193.4" r="68.83" xlink:href="#radial-gradient"/><radialGradient id="radial-gradient-43" cx="171.18" cy="193.07" r="68.47" xlink:href="#radial-gradient"/><radialGradient id="radial-gradient-44" cx="225.8" cy="166.76" r="28.87" xlink:href="#radial-gradient"/><radialGradient id="radial-gradient-45" cx="222.53" cy="162.24" r="0.02" xlink:href="#radial-gradient"/><radialGradient id="radial-gradient-46" cx="219.53" cy="157.09" r="0.29" xlink:href="#radial-gradient"/><radialGradient id="radial-gradient-47" cx="225.83" cy="166.8" r="28.95" xlink:href="#radial-gradient"/><radialGradient id="radial-gradient-48" cx="259.48" cy="149.44" r="22.25" xlink:href="#radial-gradient"/><radialGradient id="radial-gradient-49" cx="259.55" cy="149.4" r="22.05" xlink:href="#radial-gradient"/><radialGradient id="radial-gradient-50" cx="244.44" cy="167.29" r="19.93" xlink:href="#radial-gradient"/><radialGradient id="radial-gradient-51" cx="244.28" cy="167.89" r="20.17" xlink:href="#radial-gradient"/></defs><polygon class="cls-1" points="146.66 46.13 146.97 46.37 146.98 46.37 147.07 46.44 147.08 46.45 147.09 46.46 148.37 48.69 147.92 52.46 122.15 64.65 113.36 67.91 113.97 67.44 104.76 72.99 74.32 70.1 71.62 73.59 45.36 69.58 45.95 70.03 26.94 63.35 26.57 55.37 24.59 53.86 5.18 52.26 5.73 49.66 22.66 40.22 27.79 41.7 32.16 39.62 34.15 36.23 29.99 24.71 34.4 25.39 36.73 23.62 36.98 15.49 37.92 15.76 45.73 24.52 58.49 25.1 58.53 25.11 65.8 25.83 79.32 16.83 102.39 21.95 105.66 20.02 106.23 7.76 106.68 7.2 111.9 6.38 115.82 7.99 119.65 27.31 144.54 25.58 144.27 25.69 156.79 25.11 150.7 34.08 152.23 41.25 146.52 42.23 146.66 46.13"/><polygon class="cls-2" points="147.08 46.45 147.07 46.44 147.08 46.44 147.08 46.45"/><polygon class="cls-3" points="58.51 25.1 58.49 25.1 58.4 25.06 58.51 25.1"/><polygon class="cls-4" points="6.33 40.44 6.07 40.8 5.78 40.86 6.33 40.44"/><polygon class="cls-5" points="5.85 49.12 5.73 49.66 5.59 49.74 5.85 49.12"/><path class="cls-6" d="M29.22,34.93l-.29-.83L24.82,18.78l5.84-1.16,0-6.5L34.3,9l5.31,1.09L46.7,19l18.17,1.51L76,11.82l-.45.58,1.51-1.56,18.64,4.07-.78-.1,6.26,1.2-.5-9.41,2.77-4.15,8.66-2.2L118.6,2,124,22.93,160.41,21l1.84,3.24-6.15,9.78,1.35,6.77L156,44.76l-2.61,1.59-2,10.35L133.09,69.83l-12.43.55-11,7.15-15.45.39L77.66,76l-4.21,3.41-13.91-.87.19,0L22.79,67.6l-1.23-8L1.6,55.2.25,49.08,6.07,40.8l22-4.29Zm115.32-9.35-24.89,1.73L115.82,8,111.9,6.38l-5.22.82-.45.56L105.66,20,102.39,22,79.32,16.83l-13.52,9-7.27-.72h0l-.11,0,.09,0-12.76-.58-7.81-8.76L37,15.49l-.25,8.13L34.4,25.39,30,24.71l4.16,11.52-2,3.39L27.79,41.7l-5.13-1.48L5.73,49.66l.12-.54-.26.62.14-.08-.55,2.6,19.41,1.6,2,1.51.37,8L46,70l-.59-.45,26.26,4,2.7-3.49L104.76,73,114,67.44l-.61.47,8.79-3.26,25.77-12.19.45-3.77-1.28-2.23h0l-.09-.07h0l-.31-.24-.14-3.9,5.71-1-1.53-7.17,6.09-9-12.52.58Z"/><polygon class="cls-7" points="161.24 83.2 166.18 79.03 162.62 82.97 161.24 83.2"/><polygon class="cls-8" points="161.24 83.2 148.69 93.79 112.76 91.16 161.24 83.2"/><polygon class="cls-9" points="147.41 67.1 154.45 62.29 159.96 56.34 180.12 63.63 166.18 79.03 161.24 83.2 112.76 91.16 89.84 89.49 87.12 87.66 114.53 81.24 133.07 76.89 132.99 76.95 133.13 76.88 133.07 76.89 147.41 67.1"/><polygon class="cls-10" points="154.45 62.29 147.41 67.1 146.21 65.35 146.33 65.26 146.57 65.08 146.8 64.9 146.45 64.32 148.45 63.11 150.43 60.58 158.1 51.38 159.68 50.92 172.77 56.15 184.21 61.49 184.24 63.8 166.18 79.03 180.12 63.63 159.96 56.34 154.45 62.29"/><polygon class="cls-11" points="133.13 76.88 132.99 76.95 133.07 76.89 133.13 76.88"/><polygon class="cls-12" points="132.89 72.57 132.86 72.59 132.7 72.65 132.89 72.57"/><polygon class="cls-13" points="132.51 72.73 146.45 64.32 146.8 64.9 146.57 65.08 146.33 65.26 146.21 65.35 147.41 67.1 133.07 76.89 114.53 81.24 114.1 79.39 114.01 79.4 113.73 78.25 127.6 74.86 132.86 72.59 132.89 72.57 132.7 72.65 132.51 72.73"/><polygon class="cls-14" points="112.76 91.16 96.34 93.86 89.84 89.49 112.76 91.16"/><polygon class="cls-15" points="87.12 87.66 89.84 89.49 84.38 89.09 85.24 91.71 83.97 93.95 81.91 93.11 80.33 86.42 113.73 78.25 114.01 79.4 114.1 79.39 114.53 81.24 87.12 87.66"/><polygon class="cls-16" points="223.82 77.56 223.86 78.01 223.8 77.52 223.82 77.56"/><polygon class="cls-17" points="228.31 89.56 223.4 94.41 214.97 94.35 211.65 99.88 220 99.8 220.02 102.37 208.15 103.52 207.5 101.87 211.91 92.22 223.53 90.35 224.82 88 221.76 78.7 223.86 78.01 223.82 77.56 228.31 89.56"/><polygon class="cls-18" points="210.08 66.43 187.73 68.81 173.84 85.06 173.25 84.56 186.17 64.89 202.75 63.37 202.25 63.58 207.24 62.08 223.07 69.88 223.82 77.56 223.8 77.52 223.86 78.01 221.76 78.7 219.66 72.31 210.08 66.43"/><polygon class="cls-19" points="173.84 85.06 168.12 91.74 104.63 106.52 104.48 105.88 104.08 105.83 173.25 84.56 173.84 85.06"/><polygon class="cls-20" points="168.14 91.74 168.1 91.77 168.12 91.74 168.14 91.74"/><polygon class="cls-21" points="220.14 106.6 194.11 130.31 189.19 130.8 186.67 136.1 177.02 136.18 176.2 138.34 176.97 142.26 169.73 146.4 169.67 146.43 169.65 146.44 163.35 148.22 162.59 147.99 162.68 139.37 161.2 138.51 156.19 141.04 155.74 140.45 153.27 140.54 138.18 141.08 137.06 141.88 136.9 143.29 138.53 145.39 138.66 145.56 138.82 145.77 138.87 145.83 138.97 145.96 143.16 152.5 141.06 154.45 138.65 154.34 115.22 153.28 111.3 156.06 107.08 153.38 100.7 154.4 100.86 154.33 98.55 154.83 97.88 154.33 94.75 146.76 83.66 144.37 80.45 143.68 79.81 142.88 79.74 141.89 89.93 128.02 89.38 126.62 76.17 125.82 74.67 124.73 73.56 119.7 88.64 110.81 95.31 112.78 97.15 112.02 97.91 110.18 97.06 108.28 104.63 106.52 168.12 91.74 168.1 91.77 168.14 91.74 168.12 91.74 173.84 85.06 187.73 68.81 210.08 66.43 219.66 72.31 221.76 78.7 224.82 88 223.53 90.35 211.91 92.22 207.5 101.87 208.15 103.52 220.02 102.37 220.14 106.6"/><polygon class="cls-22" points="179.86 142.09 177.87 145.33 162.56 150.83 160.7 149.99 159.74 148.46 159.96 142.92 160.08 142.01 155.53 143.89 153.32 142.05 153.27 140.54 155.74 140.45 156.19 141.04 161.2 138.51 162.68 139.37 162.59 147.99 163.35 148.22 169.65 146.44 169.67 146.43 169.73 146.4 176.97 142.26 176.2 138.34 177.02 136.18 186.67 136.1 189.19 130.8 194.11 130.31 220.14 106.6 220.02 102.37 220 99.8 222.49 99.78 223.31 101.09 223.43 107.46 197.26 132.59 197.25 132.6 197.24 132.6 191.15 133.52 187.66 138.85 179.61 139.71 179.86 142.09"/><polygon class="cls-23" points="138.97 145.96 138.87 145.83 138.82 145.77 138.66 145.56 138.53 145.39 136.9 143.29 137.06 141.88 138.18 141.08 153.27 140.54 153.32 142.05 141.75 144.03 146.52 152.34 145.25 155.52 138.69 155.81 138.66 155.07 138.62 155.07 138.65 154.34 141.06 154.45 143.16 152.5 138.97 145.96"/><polygon class="cls-24" points="95.08 154.39 95.16 154.61 95.04 154.31 95.08 154.39"/><polygon class="cls-25" points="100.7 154.4 107.08 153.38 111.3 156.06 115.22 153.28 138.65 154.34 138.62 155.07 138.66 155.07 138.69 155.81 115.39 156.86 112.27 159.45 111.02 159.45 106.38 156.2 98.53 157.53 96.18 156.25 95.08 154.39 93.18 148.74 82.98 145.89 83.28 144.81 83.56 144.84 83.66 144.37 94.75 146.76 97.88 154.33 98.55 154.83 100.86 154.33 100.7 154.4"/><polygon class="cls-26" points="76.59 141.68 84.58 128.99 75.89 127.64 76.17 125.82 89.38 126.62 89.93 128.02 79.74 141.89 79.81 142.88 80.45 143.68 83.66 144.37 83.56 144.84 83.28 144.81 82.98 145.89 77.03 144.23 76.59 141.68"/><polygon class="cls-27" points="94.53 106.22 104.48 105.88 104.63 106.52 97.06 108.28 97.91 110.18 97.15 112.02 95.31 112.78 88.64 110.81 73.56 119.7 74.67 124.73 76.17 125.82 75.89 127.64 71.91 127.02 69.29 120 77.77 109.52 94.36 106.37 94.53 106.22"/><polygon class="cls-28" points="182.06 147.57 141.41 175.73 135.75 174.21 133.39 176.16 132.89 176.54 127.03 180.78 125.53 181.5 108.78 183.9 106.77 179.26 109.09 176.41 115.96 176.2 123.18 165.53 182.06 147.57"/><polygon class="cls-29" points="127.03 180.78 126.15 181.41 125.53 181.5 127.03 180.78"/><polygon class="cls-30" points="125.53 181.5 114.16 186.96 108.43 184.84 108.78 183.9 125.53 181.5"/><polygon class="cls-31" points="106.77 179.26 108.78 183.9 108.43 184.84 105.86 183.9 105.85 183.89 104.34 180.58 104.92 176.68 108.18 173.71 114.03 173.2 119.41 165.04 119.38 165 119.65 162.91 182.09 143.6 182.1 143.6 183.53 143.01 184.04 142.94 185.81 143.94 186.09 146.91 144.98 177.69 136.46 176.25 127.03 180.78 132.89 176.54 133.39 176.16 135.75 174.21 141.41 175.73 182.06 147.57 123.18 165.53 115.96 176.2 109.09 176.41 106.77 179.26"/><polygon class="cls-32" points="277.16 103.51 277.21 103.62 277.18 103.58 277.16 103.51"/><polygon class="cls-33" points="273.63 99.08 273.35 99.02 273.26 98.92 273.63 99.08"/><polygon class="cls-34" points="273.15 114.15 271 119.95 264.84 122.15 273.15 114.15"/><polygon class="cls-35" points="264.84 122.15 249.92 136.51 248.84 135.39 253.13 126.32 264.84 122.15"/><polygon class="cls-36" points="248.84 135.39 249.92 136.51 239.2 146.82 235.07 145.83 235.47 144.18 248.84 135.39"/><polygon class="cls-37" points="240.86 84.14 240.21 83.91 240.71 81.36 243.19 81.84 244.21 84.69 241.07 96.08 248.24 90.47 252.25 91.9 252.82 96.14 257.91 93.46 262.16 93.71 264.23 97.24 273.35 99.02 277.18 103.58 278.52 108.98 273.15 114.15 275.46 107.9 272.8 102.16 263.88 100.44 260.21 96.12 253.37 99.18 250.46 98.32 249.52 93.42 239.86 101.75 238.45 101.55 237.41 99.26 240.86 84.14"/><polygon class="cls-38" points="222.12 119.33 234.48 85.19 240.21 83.91 240.86 84.14 237.41 99.26 238.45 101.55 239.86 101.75 249.52 93.42 250.46 98.32 253.37 99.18 260.21 96.12 263.88 100.44 272.8 102.16 275.46 107.9 273.15 114.15 264.84 122.15 253.13 126.32 248.84 135.39 235.47 144.18 224.25 138.52 224.4 138.55 223.94 138.36 224.25 138.52 214 136.27 214.13 136.28 209.27 135.57 222.12 119.33"/><polygon class="cls-39" points="240.21 83.91 234.48 85.19 233.01 84.39 234.4 81.83 237.97 80.82 240.71 81.36 240.21 83.91"/><polygon class="cls-40" points="235.47 144.18 235.07 145.83 205.99 138.85 204.4 136.79 233.01 84.39 234.48 85.19 222.12 119.33 209.27 135.57 214.13 136.28 214 136.27 224.25 138.52 235.47 144.18"/><polygon class="cls-41" points="224.4 138.55 224.25 138.52 223.94 138.36 224.4 138.55"/><polygon class="cls-42" points="196.43 159.04 196.83 169.71 179.37 191.58 164.39 197.11 171.91 173.9 176.84 170.81 176.85 170.77 194.57 160.06 196.43 159.04"/><path class="cls-43" d="M164.39,197.11l15-5.53,17.46-21.87-.4-10.67-1.86,1-17.72,10.71v0l-4.93,3.09Zm16-3.19-17.12,5-2.18,2.73h-1.93l8.64-30.24,30.57-18.42,1.62.67.9,14.44Z"/><path class="cls-44" d="M245.78,153.18,219.07,155l-1.13,0,1.53,1.77,4.18,11.78Zm-2.2,5.86-20.73,12.44-1.79-.72-8.17-17.64.93-1.82,33.89-2,1.4.11,1.63,1.52-6.47,7.54-.06.05-.11.09-.47.36Z"/><polygon class="cls-45" points="222.53 162.16 222.54 162.19 222.54 162.25 222.53 162.16"/><polygon class="cls-46" points="219.45 156.79 219.72 157.13 219.47 156.83 219.45 156.79"/><path class="cls-47" d="M219.07,155l26.71-1.86-22.13,15.43-4.18-11.78.25.3-.27-.34,0,0-1.53-1.77Zm3.47,7.21v0Z"/><polygon class="cls-48" points="276.92 135.05 274.62 140.52 267.33 147.88 259.24 149.77 256.59 142.57 256.72 142.54 276.92 135.05"/><path class="cls-49" d="M276.92,135.05l-20.2,7.49-.13,0,2.65,7.2,8.09-1.89,7.29-7.36ZM253.17,141l23.65-10.9,2.25-1.11,2.19,1.79L273.91,147l-14.82,5.48-1.62-.92.18-1.08-1.06-.91-3.53-7Z"/><polygon class="cls-50" points="241.71 169.78 243.09 171.16 244.47 169.78 243.09 168.41 241.71 169.78 241.71 169.78 241.71 169.78 241.71 169.78"/><path class="cls-51" d="M262.29,162.16l-29.06,10.55.28-2.2,12.9-11.39.55-3.34,1.82-1.71,13.69,2.78,1.29,2.17ZM259,160.37l-8.18-1.81-2.9,5.38-1.9,1.54-.17.13h0l-.09.07L242.8,168l14.63-5.37Z"/><polygon class="cls-52" points="257.43 162.6 242.8 167.97 245.71 165.7 245.8 165.63 245.82 165.62 245.83 165.61 246 165.48 247.9 163.94 250.8 158.56 258.98 160.37 257.43 162.6"/></svg>