<svg id="Layer_1" data-name="Layer 1" xmlns="http://www.w3.org/2000/svg" xmlns:xlink="http://www.w3.org/1999/xlink" viewBox="0 0 190.8 211.7"><defs><style>.cls-1{fill:url(#radial-gradient);}</style><radialGradient id="radial-gradient" cx="15.87" cy="144.73" r="22.58" gradientUnits="userSpaceOnUse"><stop offset="0" stop-color="#80a8aa"/><stop offset="0.64" stop-color="#8db4ba"/><stop offset="1" stop-color="#98bec7"/></radialGradient></defs><polygon class="cls-1" points="100.18 0 125.24 59.36 134.33 62.62 138.06 61.06 151.91 3.3 156.78 1.98 190.8 28.12 136 123.23 140.45 199.59 140.45 199.6 140.43 199.62 140.43 199.62 140.43 199.62 129.01 211.7 104.22 207.98 92.09 183.3 9.37 158.21 0 133.9 6.18 110.88 31.28 107.79 89.03 151.31 100.2 140.61 99.63 128.89 98.32 127.92 88.6 128.71 45.06 91.47 27.44 94 4.81 70.63 9.32 54.28 37.13 40.7 52.61 50.62 55.39 50.41 80.39 91.68 99.72 94.66 104.13 71.09 91.31 50.43 91.33 50.45 81.09 32.67 99.31 0.08 100.18 0 100.18 0"/></svg>