<svg id="Layer_1" data-name="Layer 1" xmlns="http://www.w3.org/2000/svg" xmlns:xlink="http://www.w3.org/1999/xlink" viewBox="0 0 243.2 231.45"><defs><style>.cls-1{fill:url(#radial-gradient);}.cls-2{fill:#7faaa0;}.cls-3{fill:#9ca542;}.cls-4{fill:#a5c0cd;}</style><radialGradient id="radial-gradient" cx="50.12" cy="196.3" r="198.81" gradientUnits="userSpaceOnUse"><stop offset="0" stop-color="#0a526d"/><stop offset="0.5" stop-color="#318697"/><stop offset="1" stop-color="#518da3"/></radialGradient></defs><polygon class="cls-1" points="48.48 73.57 15.53 105.74 24.27 200.47 36.85 216.9 222.77 230.45 232.41 211.05 233.09 147.96 128.03 55.68 48.48 73.57 48.48 73.57"/><polygon class="cls-2" points="57.65 37.83 45.04 50.44 32.43 37.83 45.04 25.22 57.65 37.83 57.65 37.83"/><polygon class="cls-3" points="54.04 34.23 50.44 37.83 46.84 34.23 50.44 30.63 54.04 34.23 54.04 34.23"/><polygon class="cls-4" points="43.82 81.95 51.51 48.33 33.56 43.72 38.18 77.01 43.82 81.95 43.82 81.95"/><polygon class="cls-2" points="32.43 69.36 16.21 81.07 0 69.36 16.21 57.65 32.43 69.36 32.43 69.36"/><polygon class="cls-3" points="25.22 66.66 21.62 70.26 18.02 66.66 21.62 63.05 25.22 66.66 25.22 66.66"/><polygon class="cls-4" points="40.32 116.24 31.08 72.14 1.51 75.72 38.46 117.83 40.32 116.24 40.32 116.24"/><polygon class="cls-2" points="82.87 102.68 72.96 109.89 63.05 102.68 72.96 95.48 82.87 102.68 82.87 102.68"/><polygon class="cls-3" points="73.86 101.78 71.16 104.49 68.46 101.78 71.16 99.08 73.86 101.78 73.86 101.78"/><polygon class="cls-4" points="84.22 162.99 77.08 122.67 63.2 104.93 77.95 108.93 88.99 164.78 84.22 162.99 84.22 162.99"/><polygon class="cls-2" points="54.04 88.27 46.84 95.48 39.63 88.27 46.84 81.07 54.04 88.27 54.04 88.27"/><polygon class="cls-3" points="52.24 85.57 50.44 88.27 48.64 85.57 50.44 82.87 52.24 85.57 52.24 85.57"/><polygon class="cls-4" points="58.18 124.55 42.65 93.75 51.98 93.03 60.47 125.14 58.18 124.55 58.18 124.55"/><polygon class="cls-2" points="72.06 119.8 54.95 136.91 37.83 119.8 54.95 102.68 72.06 119.8 72.06 119.8"/><polygon class="cls-3" points="54.04 117.1 50.44 120.7 46.84 117.1 50.44 113.49 54.04 117.1 54.04 117.1"/><polygon class="cls-2" points="57.65 54.95 52.24 63.05 46.84 54.95 52.24 46.84 57.65 54.95 57.65 54.95"/><polygon class="cls-3" points="55.85 51.34 53.14 54.04 50.44 51.34 53.14 48.64 55.85 51.34 55.85 51.34"/><polygon class="cls-4" points="64.98 95.49 55.2 67.2 49.98 62.29 56.2 59.87 68.16 95.5 64.98 95.49 64.98 95.49"/><polygon class="cls-2" points="90.07 8.11 79.27 16.21 68.46 8.11 79.27 0 90.07 8.11 90.07 8.11"/><polygon class="cls-3" points="86.47 5.4 83.77 9.01 81.07 5.4 83.77 1.8 86.47 5.4 86.47 5.4"/><polygon class="cls-4" points="98.51 63.33 85.96 14.03 74.16 15.06 94.79 61.14 98.51 63.33 98.51 63.33"/><polygon class="cls-2" points="79.27 36.03 69.36 43.24 59.45 36.03 69.36 28.82 79.27 36.03 79.27 36.03"/><polygon class="cls-3" points="77.46 35.13 74.76 37.83 72.06 35.13 74.76 32.43 77.46 35.13 77.46 35.13"/><polygon class="cls-4" points="84.28 74.38 77.44 38.83 66.41 42.56 79.7 74.75 84.28 74.38 84.28 74.38"/><polygon class="cls-2" points="117.1 41.43 104.49 54.04 91.88 41.43 104.49 28.82 117.1 41.43 117.1 41.43"/><polygon class="cls-3" points="104.49 36.03 101.78 39.63 99.08 36.03 101.78 32.43 104.49 36.03 104.49 36.03"/><polygon class="cls-4" points="116.5 91.86 97.91 51.52 113.75 49.31 111.8 54.24 122.22 91.92 116.5 91.86 116.5 91.86"/><polygon class="cls-2" points="91.88 64.85 77.46 75.66 63.05 64.85 77.46 54.04 91.88 64.85 91.88 64.85"/><polygon class="cls-3" points="84.67 61.25 81.07 64.85 77.46 61.25 81.07 57.65 84.67 61.25 84.67 61.25"/><polygon class="cls-4" points="88.3 123.73 80.37 82.36 72.22 74.33 90.05 69.48 93.04 123.06 88.3 123.73 88.3 123.73"/><polygon class="cls-2" points="127.91 100.88 108.09 120.7 88.27 100.88 108.09 81.07 127.91 100.88 127.91 100.88"/><polygon class="cls-3" points="102.68 92.78 99.98 97.28 97.28 92.78 99.98 88.27 102.68 92.78 102.68 92.78"/><polygon class="cls-4" points="119.7 181.15 111.07 134.3 99.58 118.58 125.3 111.86 122.47 192.68 119.7 181.15 119.7 181.15"/><polygon class="cls-2" points="127.91 8.11 121.6 14.41 115.3 8.11 121.6 1.8 127.91 8.11 127.91 8.11"/><polygon class="cls-3" points="126.1 5.4 123.4 7.21 120.7 5.4 123.4 3.6 126.1 5.4 126.1 5.4"/><polygon class="cls-4" points="118.33 69 116.19 11.22 126.11 12.39 124.72 68.8 118.33 69 118.33 69"/><polygon class="cls-2" points="122.5 21.62 115.3 28.82 108.09 21.62 115.3 14.41 122.5 21.62 122.5 21.62"/><polygon class="cls-3" points="117.1 18.92 114.39 21.62 111.69 18.92 114.39 16.21 117.1 18.92 117.1 18.92"/><polygon class="cls-4" points="138.47 82.79 119.53 26.96 112.54 28.01 138.47 82.79 138.47 82.79"/><polygon class="cls-2" points="154.93 15.31 146.82 23.42 138.71 15.31 146.82 7.21 154.93 15.31 154.93 15.31"/><polygon class="cls-3" points="147.72 11.71 145.92 14.41 144.12 11.71 145.92 9.01 147.72 11.71 147.72 11.71"/><polygon class="cls-4" points="141.88 21.35 154.17 56.76 150.66 86.81 155.37 89.27 153.6 18.97 141.88 21.35 141.88 21.35"/><polygon class="cls-2" points="144.12 36.93 138.71 43.24 133.31 36.93 138.71 30.63 144.12 36.93 144.12 36.93"/><polygon class="cls-3" points="140.52 35.13 138.71 37.83 136.91 35.13 138.71 32.43 140.52 35.13 140.52 35.13"/><polygon class="cls-4" points="145.78 96.27 134.78 40.59 143.01 39.92 150.21 94.37 145.78 96.27 145.78 96.27"/><polygon class="cls-2" points="178.35 14.41 169.34 23.42 160.33 14.41 169.34 5.4 178.35 14.41 178.35 14.41"/><polygon class="cls-3" points="169.34 9.91 167.54 12.61 165.74 9.91 167.54 7.21 169.34 9.91 169.34 9.91"/><polygon class="cls-4" points="161.62 96.75 163.23 55.18 166.92 50.72 168.34 28.84 162.16 18.62 170.93 21.57 175.42 27.24 167.05 98.04 161.62 96.75 161.62 96.75"/><polygon class="cls-2" points="210.77 20.72 200.87 30.63 190.96 20.72 200.87 10.81 210.77 20.72 210.77 20.72"/><polygon class="cls-3" points="205.37 17.11 201.77 19.82 198.16 17.11 201.77 14.41 205.37 17.11 205.37 17.11"/><polygon class="cls-4" points="170.46 90.05 188.39 62.86 192.55 25.59 205.73 29.05 181.08 90.39 172.88 94.72 170.46 90.05 170.46 90.05"/><polygon class="cls-2" points="203.57 46.84 181.95 68.46 160.33 46.84 181.95 25.22 203.57 46.84 203.57 46.84"/><polygon class="cls-3" points="178.35 34.23 175.64 37.83 172.94 34.23 175.64 30.63 178.35 34.23 178.35 34.23"/><polygon class="cls-4" points="178.16 164.09 196.85 61.97 167.3 62.51 169.71 157.7 178.16 164.09 178.16 164.09"/><polygon class="cls-2" points="149.52 69.36 137.81 81.07 126.1 69.36 137.81 57.65 149.52 69.36 149.52 69.36"/><polygon class="cls-3" points="138.71 63.95 136.01 66.66 133.31 63.95 136.01 61.25 138.71 63.95 138.71 63.95"/><polygon class="cls-4" points="129.56 134.78 129.22 77.47 144.93 78.34 133.87 139.64 129.56 134.78 129.56 134.78"/><polygon class="cls-2" points="223.38 42.34 215.28 50.44 207.17 42.34 215.28 34.23 223.38 42.34 223.38 42.34"/><polygon class="cls-3" points="219.78 37.83 216.18 41.43 212.57 37.83 216.18 34.23 219.78 37.83 219.78 37.83"/><polygon class="cls-4" points="190.08 101.87 208.34 46.63 218.95 49.59 194.16 103.65 190.08 101.87 190.08 101.87"/><polygon class="cls-2" points="32.43 105.39 24.32 117.1 16.21 105.39 24.32 93.68 32.43 105.39 32.43 105.39"/><polygon class="cls-3" points="30.63 99.08 27.92 102.68 25.22 99.08 27.92 95.48 30.63 99.08 30.63 99.08"/><polygon class="cls-4" points="48.19 159.56 36.47 157.24 27.58 150.09 19.17 113.53 29.61 114.13 33.62 146.92 49.55 156.16 48.19 159.56 48.19 159.56"/><polygon class="cls-4" points="47.29 134.82 68.09 182.35 79.96 189.47 82.71 184.53 67.89 130.67 47.29 134.82 47.29 134.82"/><polygon class="cls-2" points="156.73 108.09 146.82 120.7 136.91 108.09 146.82 95.48 156.73 108.09 156.73 108.09"/><polygon class="cls-3" points="153.13 100.88 149.52 104.49 145.92 100.88 149.52 97.28 153.13 100.88 153.13 100.88"/><polygon class="cls-4" points="142.34 175.24 140.63 118.22 150.66 118.85 146.05 173.59 146.85 175.69 142.34 175.24 142.34 175.24"/><polygon class="cls-2" points="207.17 107.19 193.66 120.7 180.15 107.19 193.66 93.68 207.17 107.19 207.17 107.19"/><polygon class="cls-3" points="194.56 101.78 190.96 106.29 187.35 101.78 190.96 97.28 194.56 101.78 194.56 101.78"/><polygon class="cls-4" points="169.77 181.89 189.8 150.84 189.52 122.91 185.33 117.97 201.47 117.67 187.92 175.07 175.39 188.22 169.77 181.89 169.77 181.89"/><polygon class="cls-2" points="180.15 122.5 167.54 135.11 154.93 122.5 167.54 109.89 180.15 122.5 180.15 122.5"/><polygon class="cls-3" points="172.94 116.2 168.44 120.7 163.94 116.2 168.44 111.69 172.94 116.2 172.94 116.2"/><polygon class="cls-4" points="173.8 133.44 161.92 189.03 154.36 186.5 157.91 130.17 173.8 133.44 173.8 133.44"/><polygon class="cls-2" points="225.19 85.57 215.28 97.28 205.37 85.57 215.28 73.86 225.19 85.57 225.19 85.57"/><polygon class="cls-3" points="219.78 81.97 216.18 86.47 212.57 81.97 216.18 77.46 219.78 81.97 219.78 81.97"/><polygon class="cls-4" points="209.1 94.8 197.1 155.88 201.09 158.32 221.59 94.7 209.1 94.8 209.1 94.8"/><polygon class="cls-2" points="234.19 90.97 227.89 97.28 221.58 90.97 227.89 84.67 234.19 90.97 234.19 90.97"/><polygon class="cls-3" points="226.99 88.27 226.09 90.07 225.19 88.27 226.09 86.47 226.99 88.27 226.99 88.27"/><polygon class="cls-4" points="223.77 95.03 209.2 142.23 211.46 142.91 212.05 142.82 230.4 96.53 223.77 95.03 223.77 95.03"/><polygon class="cls-2" points="232.39 101.78 225.19 109.89 217.98 101.78 225.19 93.68 232.39 101.78 232.39 101.78"/><polygon class="cls-3" points="230.59 99.08 227.89 102.68 225.19 99.08 227.89 95.48 230.59 99.08 230.59 99.08"/><polygon class="cls-4" points="219.94 106.55 213.25 143.34 202.33 153.39 203.81 154.83 205.75 155.04 219.35 143.6 228.56 108.86 219.94 106.55 219.94 106.55"/><polygon class="cls-2" points="243.2 131.51 223.38 151.32 203.57 131.51 223.38 111.69 243.2 131.51 243.2 131.51"/><polygon class="cls-3" points="225.19 123.4 218.88 129.71 212.57 123.4 218.88 117.1 225.19 123.4 225.19 123.4"/><polygon class="cls-4" points="208.48 144.88 214.34 176.48 198.05 227.03 207.39 231.45 234.35 146 208.48 144.88 208.48 144.88"/><polygon class="cls-2" points="185.55 163.94 176.54 172.94 167.54 163.94 176.54 154.93 185.55 163.94 185.55 163.94"/><polygon class="cls-3" points="178.35 159.43 176.54 162.13 174.74 159.43 176.54 156.73 178.35 159.43 178.35 159.43"/><polygon class="cls-4" points="168.77 167.91 157.78 208.41 162.11 210.16 163.41 209.99 181.78 171.17 168.77 167.91 168.77 167.91"/><polygon class="cls-2" points="214.38 163.03 208.07 169.34 201.77 163.03 208.07 156.73 214.38 163.03 214.38 163.03"/><polygon class="cls-3" points="212.57 160.33 210.77 162.13 208.97 160.33 210.77 158.53 212.57 160.33 212.57 160.33"/><polygon class="cls-4" points="202.44 164.81 198.01 188.09 194.53 192.31 192.56 192.82 188.94 199.33 190.3 200.72 190.53 198.86 198.39 193.96 201.34 189.1 202.47 188.51 208.39 166.89 202.8 165.35 202.44 164.81 202.44 164.81"/><polygon class="cls-2" points="99.08 127 94.58 131.51 90.07 127 94.58 122.5 99.08 127 99.08 127"/><polygon class="cls-3" points="95.48 125.2 94.58 126.1 93.68 125.2 94.58 124.3 95.48 125.2 95.48 125.2"/><polygon class="cls-4" points="91.98 130.29 94.78 141.02 109.37 142.61 112.15 145.24 113.49 151.32 115.12 148.6 112.1 141.2 99.11 139.46 97.4 137.31 97.1 130.3 91.98 130.29 91.98 130.29"/><polygon class="cls-2" points="133.31 124.3 126.1 131.51 118.9 124.3 126.1 117.1 133.31 124.3 133.31 124.3"/><polygon class="cls-3" points="127.91 120.7 126.1 122.5 124.3 120.7 126.1 118.9 127.91 120.7 127.91 120.7"/><polygon class="cls-4" points="121.24 129.01 121.67 148.01 126.73 148.81 130.71 129.74 123.67 128.26 121.24 129.01 121.24 129.01"/><polygon class="cls-2" points="160.33 151.32 145.92 169.34 131.51 151.32 145.92 133.31 160.33 151.32 160.33 151.32"/><polygon class="cls-3" points="144.12 143.22 140.52 147.72 136.91 143.22 140.52 138.71 144.12 143.22 144.12 143.22"/><polygon class="cls-4" points="138.46 166.88 146.43 178.27 148.46 193.06 146.64 195.14 134.13 197.02 120.9 207.76 127.55 210.65 151.28 201.13 156.62 193.97 153.81 166.39 138.46 166.88 138.46 166.88"/><polygon class="cls-2" points="57.65 144.12 45.04 149.52 32.43 144.12 45.04 138.71 57.65 144.12 57.65 144.12"/><polygon class="cls-3" points="54.04 143.22 51.34 145.92 48.64 143.22 51.34 140.52 54.04 143.22 54.04 143.22"/><polygon class="cls-4" points="35.55 147.9 65.57 182.29 71.21 183.98 72.07 180.81 55.08 160.76 56.98 146.34 35.55 147.9 35.55 147.9"/><polygon class="cls-2" points="104.49 147.72 91.88 160.33 79.27 147.72 91.88 135.11 104.49 147.72 104.49 147.72"/><polygon class="cls-3" points="100.88 144.12 98.18 147.72 95.48 144.12 98.18 140.52 100.88 144.12 100.88 144.12"/><polygon class="cls-4" points="82.5 156.56 96.08 188.17 100.47 187.38 100.82 156.4 82.5 156.56 82.5 156.56"/><polygon class="cls-2" points="77.46 161.23 71.16 167.54 64.85 161.23 71.16 154.93 77.46 161.23 77.46 161.23"/><polygon class="cls-3" points="75.66 159.43 72.96 162.13 70.26 159.43 72.96 156.73 75.66 159.43 75.66 159.43"/><polygon class="cls-4" points="75.94 164.73 75.33 177.22 84.88 196.79 79.56 197.11 77.44 191.19 74.05 188.72 66.27 164.53 75.94 164.73 75.94 164.73"/><polygon class="cls-2" points="54.04 168.44 42.34 180.15 30.63 168.44 42.34 156.73 54.04 168.44 54.04 168.44"/><polygon class="cls-3" points="48.64 161.23 45.94 163.94 43.24 161.23 45.94 158.53 48.64 161.23 48.64 161.23"/><polygon class="cls-4" points="51.77 172.65 53.73 188.37 59.09 196.22 76.37 205.05 76.12 210.88 58.87 208.18 35.94 178.11 44.97 177.25 51.77 172.65 51.77 172.65"/><polygon class="cls-2" points="91.88 172.94 84.67 180.15 77.46 172.94 84.67 165.74 91.88 172.94 91.88 172.94"/><polygon class="cls-3" points="90.07 171.14 88.27 172.94 86.47 171.14 88.27 169.34 90.07 171.14 90.07 171.14"/><polygon class="cls-4" points="89.36 178.63 88.3 191.82 89.27 194.24 89 196.74 86.23 200.57 83.46 198.36 78.38 176.47 89.36 178.63 89.36 178.63"/><polygon class="cls-2" points="113.49 170.24 107.19 176.54 100.88 170.24 107.19 163.94 113.49 170.24 113.49 170.24"/><polygon class="cls-3" points="109.89 168.44 108.09 171.14 106.29 168.44 108.09 165.74 109.89 168.44 109.89 168.44"/><polygon class="cls-4" points="111.43 173.96 107.84 178.82 107.46 180.67 121.02 200.71 117.47 202.81 107.1 188.8 104.02 188.09 101.03 170.99 109.75 174.63 111.43 173.96 111.43 173.96"/><polygon class="cls-2" points="138.71 171.14 131.51 178.35 124.3 171.14 131.51 163.94 138.71 171.14 138.71 171.14"/><polygon class="cls-3" points="133.31 169.34 130.61 171.14 127.91 169.34 130.61 167.54 133.31 169.34 133.31 169.34"/><polygon class="cls-4" points="132.6 177.77 124.55 197.54 124.84 201.2 121.05 202.65 120.81 202.25 126.46 179.91 124.03 171.93 132.6 177.77 132.6 177.77"/></svg>