<svg id="Layer_1" data-name="Layer 1" xmlns="http://www.w3.org/2000/svg" xmlns:xlink="http://www.w3.org/1999/xlink" viewBox="0 0 232.2 229.9"><defs><style>.cls-1{fill:#f8f8f5;}.cls-2{fill:url(#radial-gradient);}.cls-3{fill:#ce1f00;}.cls-4{fill:url(#radial-gradient-2);}.cls-5{fill:url(#radial-gradient-3);}.cls-6{fill:url(#radial-gradient-4);}</style><radialGradient id="radial-gradient" cx="187.25" cy="134.58" r="29.19" gradientUnits="userSpaceOnUse"><stop offset="0" stop-color="#979969"/><stop offset="0.16" stop-color="#abaf66"/><stop offset="0.5" stop-color="#d4dc61"/><stop offset="1" stop-color="#c7cc68"/></radialGradient><radialGradient id="radial-gradient-2" cx="39.76" cy="105.33" r="71.47" xlink:href="#radial-gradient"/><radialGradient id="radial-gradient-3" cx="138.75" cy="191.19" r="71.52" gradientUnits="userSpaceOnUse"><stop offset="0" stop-color="#a76c42"/><stop offset="0.64" stop-color="#af7756"/><stop offset="1" stop-color="#ba8471"/></radialGradient><radialGradient id="radial-gradient-4" cx="125.8" cy="101.99" r="87.38" xlink:href="#radial-gradient"/></defs><polygon class="cls-1" points="205.52 15.26 205.52 15.29 205.52 15.26 205.52 15.26 205.52 15.26 205.52 15.26"/><path class="cls-2" d="M174.19,101.76l-7.92.73-4.06,53.78,42.84,11.13-1.94-3.71,9.18-53.64-11.6-5.52.18,0-26.68-2.81Zm-1.76,2.48,31.1,5.69,4.72,6.95-.07-.22-.15,6.89-14.24,6.61-23-7.21-4.24-14.84,6.26-3.9-.34,0h0Z"/><polygon class="cls-3" points="173.21 159.6 170.05 159.85 189.98 164.37 173.21 159.6 173.21 159.6 173.21 159.6 173.21 159.6"/><polygon class="cls-3" points="205.47 167.55 208.9 168.32 205.05 167.4 205.47 167.55 205.47 167.55"/><path class="cls-4" d="M41.07,12.41,0,35.05,75.92,198.26,59.25,69.72l20.26-1.39L41.07,12.41Zm-9.71,7.27,11,2.45,1.31,10.75-6.22,8,.16-.1L11.26,46.36,5.35,37.44l9.43-13.53,16.07-4.13-.26,0,.77-.12Z"/><polygon class="cls-3" points="112.88 153.11 114.48 152.47 112.63 147.54 112.88 153.11 112.88 153.11 112.88 153.11 112.88 153.11"/><polygon points="35.4 19.52 30.2 19.95 30.46 19.93 14.4 24.06 4.97 37.59 10.88 46.51 37.18 40.9 37.03 41 44.01 27.74 38.13 19.78 35.4 19.52 35.4 19.52 35.4 19.52 35.4 19.52"/><polygon points="172.78 104.22 171.72 105.32 171.73 105.33 171.73 105.32 170.05 104.22 166.93 107.33 165.91 116.48 172.18 125.84 195.5 131.18 207.61 123.59 208.25 116.88 207.61 115.95 203.53 109.93 187.39 105.23 184.08 104.7 172.78 104.22"/><path class="cls-5" d="M114,152.68l-1.15.43,0,49L110.49,204l-27.87-5.33.82,1.27L83,201l-1,.42-2.86-2.07-1.42.24-1.82-1.35.47-1.74L62.84,170.14,50.5,175.21l-5.2,19.66,47.82,35,95.64-1.49,43.44-33.15-11.92-24.47-58.07-14.52.27,25.59,1.56,1.52-1,2.51-33.63-6-3-.54.73-1.25-12.61-25.66-.45.21ZM190,164.37l-19.91-4.52L190,164.38Zm18,4-2.93-1,3.87.93-.94.06Z"/><path class="cls-6" d="M161.07,0,102.73,81.87,91.44,68.3,59.25,69.72,75.92,198.26l1.82,1.35,1.42-.24L82,201.44l1-.42.43-1.11-.85-1.3,27.9,5.36,2.41-1.84-.28-54.77,14.47,30.77-.73,1.25L163,185.89l1-2.51-1.56-1.52-4.82-67.42-9.33-5.1-13.62,2.41,21.36-26.19-.08,0h.1l39.5-62.26L161.07,0Zm11.74,41.73-25.48-25,7.53-13.49,29,15.08,3.77,13.24-5.29,7.88L173,41.74h0l-.23,0ZM77.28,100.48,61,94.94l-5-13.4,1.74-5.89,34.79.54,6.68,11.19-7.69,11.3-14.26,1.8Zm63.23,41.22L119,135.53l2.09-14.2,18-5.73,14.22,6.69,2.59,10.38-15.4,9Z"/><polygon points="74.66 70.56 57.76 75.65 59.62 93.57 82.94 100.56 96.07 95.13 99.23 87.38 92.55 76.19 74.66 70.56 74.66 70.56 74.66 70.56 74.66 70.56"/><polygon points="136.44 115.35 119.38 123.78 120.06 136.97 141.65 141.7 155.84 132.85 154.7 124.17 136.44 115.35 136.44 115.35 136.44 115.35 136.44 115.35"/><polygon points="157.59 3.25 148.52 17.62 160.8 37.05 174.06 42.34 174.06 42.33 183.2 40.18 188.32 33.46 184.08 17.23 157.59 3.25 157.59 3.25 157.59 3.25 157.59 3.25"/></svg>