<svg id="Layer_1" data-name="Layer 1" xmlns="http://www.w3.org/2000/svg" xmlns:xlink="http://www.w3.org/1999/xlink" viewBox="0 0 199.62 238.99"><defs><style>.cls-1{fill:url(#radial-gradient);}.cls-2{fill:url(#radial-gradient-2);}.cls-3{fill:url(#radial-gradient-3);}.cls-4{fill:url(#radial-gradient-4);}.cls-5{fill:url(#radial-gradient-5);}.cls-6{fill:url(#radial-gradient-6);}.cls-7{fill:url(#radial-gradient-7);}.cls-8{fill:url(#radial-gradient-8);}.cls-9{fill:url(#radial-gradient-9);}.cls-10{fill:url(#radial-gradient-10);}.cls-11{fill:url(#radial-gradient-11);}.cls-12{fill:url(#radial-gradient-12);}.cls-13{fill:url(#radial-gradient-13);}.cls-14{fill:url(#radial-gradient-14);}.cls-15{fill:url(#radial-gradient-15);}.cls-16{fill:url(#radial-gradient-16);}.cls-17{fill:url(#radial-gradient-17);}.cls-18{fill:url(#radial-gradient-18);}.cls-19{fill:url(#radial-gradient-19);}.cls-20{fill:url(#radial-gradient-20);}.cls-21{fill:url(#radial-gradient-21);}.cls-22{fill:url(#radial-gradient-22);}.cls-23{fill:url(#radial-gradient-23);}.cls-24{fill:url(#radial-gradient-24);}.cls-25{fill:url(#radial-gradient-25);}.cls-26{fill:url(#radial-gradient-26);}.cls-27{fill:url(#radial-gradient-27);}.cls-28{fill:url(#radial-gradient-28);}.cls-29{fill:url(#radial-gradient-29);}.cls-30{fill:url(#radial-gradient-30);}.cls-31{fill:url(#radial-gradient-31);}.cls-32{fill:url(#radial-gradient-32);}.cls-33{fill:url(#radial-gradient-33);}.cls-34{fill:url(#radial-gradient-34);}.cls-35{fill:url(#radial-gradient-35);}.cls-36{fill:url(#radial-gradient-36);}.cls-37{fill:url(#radial-gradient-37);}.cls-38{fill:url(#radial-gradient-38);}</style><radialGradient id="radial-gradient" cx="104.95" cy="218.2" r="14.41" gradientUnits="userSpaceOnUse"><stop offset="0" stop-color="#62abad"/><stop offset="0.26" stop-color="#2dadbd"/><stop offset="0.5" stop-color="#00afcb"/><stop offset="1" stop-color="#21d9f0"/></radialGradient><radialGradient id="radial-gradient-2" cx="109.19" cy="188.88" r="16.49" xlink:href="#radial-gradient"/><radialGradient id="radial-gradient-3" cx="105.78" cy="165.66" r="15.01" xlink:href="#radial-gradient"/><radialGradient id="radial-gradient-4" cx="108.07" cy="123.4" r="19.11" xlink:href="#radial-gradient"/><radialGradient id="radial-gradient-5" cx="104.24" cy="84.34" r="19.39" xlink:href="#radial-gradient"/><radialGradient id="radial-gradient-6" cx="107.33" cy="44.06" r="19.59" xlink:href="#radial-gradient"/><radialGradient id="radial-gradient-7" cx="106.68" cy="15.29" r="12.77" xlink:href="#radial-gradient"/><radialGradient id="radial-gradient-8" cx="83.45" cy="211.12" r="11.19" xlink:href="#radial-gradient"/><radialGradient id="radial-gradient-9" cx="85.25" cy="183.81" r="12.65" xlink:href="#radial-gradient"/><radialGradient id="radial-gradient-10" cx="87.6" cy="156.92" r="13.62" xlink:href="#radial-gradient"/><radialGradient id="radial-gradient-11" cx="82.85" cy="128.55" r="12.11" xlink:href="#radial-gradient"/><radialGradient id="radial-gradient-12" cx="86.05" cy="99.37" r="10.14" xlink:href="#radial-gradient"/><radialGradient id="radial-gradient-13" cx="84.98" cy="58.28" r="12.39" xlink:href="#radial-gradient"/><radialGradient id="radial-gradient-14" cx="90.74" cy="23.14" r="11.25" xlink:href="#radial-gradient"/><radialGradient id="radial-gradient-15" cx="157.52" cy="218.48" r="8.01" xlink:href="#radial-gradient"/><radialGradient id="radial-gradient-16" cx="177.18" cy="186.61" r="11.07" xlink:href="#radial-gradient"/><radialGradient id="radial-gradient-17" cx="184.59" cy="157.52" r="9.24" xlink:href="#radial-gradient"/><radialGradient id="radial-gradient-18" cx="188.2" cy="135.7" r="11.22" xlink:href="#radial-gradient"/><radialGradient id="radial-gradient-19" cx="134.58" cy="218.19" r="8.9" xlink:href="#radial-gradient"/><radialGradient id="radial-gradient-20" cx="150.99" cy="198.61" r="9.64" xlink:href="#radial-gradient"/><radialGradient id="radial-gradient-21" cx="162.51" cy="173.73" r="9.51" xlink:href="#radial-gradient"/><radialGradient id="radial-gradient-22" cx="169.99" cy="148.32" r="7.58" xlink:href="#radial-gradient"/><radialGradient id="radial-gradient-23" cx="172.44" cy="128.18" r="6.98" xlink:href="#radial-gradient"/><radialGradient id="radial-gradient-24" cx="45.24" cy="205.11" r="10.89" xlink:href="#radial-gradient"/><radialGradient id="radial-gradient-25" cx="36.76" cy="181.82" r="9.98" xlink:href="#radial-gradient"/><radialGradient id="radial-gradient-26" cx="29.73" cy="160.17" r="9.91" xlink:href="#radial-gradient"/><radialGradient id="radial-gradient-27" cx="24.72" cy="125.56" r="10.09" xlink:href="#radial-gradient"/><radialGradient id="radial-gradient-28" cx="22.6" cy="103.16" r="8.45" xlink:href="#radial-gradient"/><radialGradient id="radial-gradient-29" cx="21.79" cy="82.38" r="6.67" xlink:href="#radial-gradient"/><radialGradient id="radial-gradient-30" cx="8.25" cy="82.65" r="9.88" xlink:href="#radial-gradient"/><radialGradient id="radial-gradient-31" cx="9.64" cy="108.93" r="8.49" xlink:href="#radial-gradient"/><radialGradient id="radial-gradient-32" cx="12.01" cy="137.14" r="8.88" xlink:href="#radial-gradient"/><radialGradient id="radial-gradient-33" cx="15.37" cy="168.39" r="8.13" xlink:href="#radial-gradient"/><radialGradient id="radial-gradient-34" cx="24.24" cy="192.58" r="6.94" xlink:href="#radial-gradient"/><radialGradient id="radial-gradient-35" cx="27.58" cy="212.28" r="8.9" xlink:href="#radial-gradient"/><radialGradient id="radial-gradient-36" cx="27.21" cy="146.66" r="55.04" xlink:href="#radial-gradient"/><radialGradient id="radial-gradient-37" cx="91.03" cy="118.54" r="78.17" xlink:href="#radial-gradient"/><radialGradient id="radial-gradient-38" cx="156.1" cy="178.97" r="46.29" xlink:href="#radial-gradient"/></defs><polygon class="cls-1" points="88.46 228.36 122.62 210.26 121.06 208.04 87.29 224.55 88.46 228.36 88.46 228.36 88.46 228.36 88.46 228.36"/><polygon class="cls-2" points="95.65 206.17 124.83 172.19 121.42 171.59 93.55 202.84 95.65 206.17 95.65 206.17 95.65 206.17 95.65 206.17"/><polygon class="cls-3" points="99.69 184.88 114.78 146.56 112.08 146.44 96.78 182.23 99.69 184.88 99.69 184.88"/><polygon class="cls-4" points="98.89 147.13 120.99 102.04 118.26 99.66 95.16 146.25 98.89 147.13 98.89 147.13"/><polygon class="cls-5" points="95.12 107.38 117.84 63.32 115.29 60.53 90.64 108.15 95.12 107.38 95.12 107.38"/><polygon class="cls-6" points="95.87 67 122.86 21.7 119.49 21.11 91.81 65.55 95.87 67 95.87 67"/><polygon class="cls-7" points="99.61 30.59 116.27 1 113.03 0 97.08 28.33 99.61 30.59 99.61 30.59"/><polygon class="cls-8" points="88.73 223.57 81.75 196.36 78.17 196.2 84.81 226.05 88.73 223.57 88.73 223.57"/><polygon class="cls-9" points="95.72 195.5 78.76 169.3 74.78 171.31 92.19 198.32 95.72 195.5 95.72 195.5"/><polygon class="cls-10" points="97.21 169.63 82.01 140.21 78 140.58 94.46 173.62 97.21 169.63 97.21 169.63 97.21 169.63 97.21 169.63"/><polygon class="cls-11" points="94.56 137.49 74.46 116.04 71.15 118.26 91.94 141.05 94.56 137.49 94.56 137.49 94.56 137.49 94.56 137.49"/><polygon class="cls-12" points="93.35 108.31 82.32 87.03 78.74 87.82 90.24 111.72 93.35 108.31 93.35 108.31 93.35 108.31 93.35 108.31"/><polygon class="cls-13" points="93.34 69.76 80.16 42.88 76.62 43.58 90.46 73.68 93.34 69.76 93.34 69.76 93.34 69.76 93.34 69.76"/><polygon class="cls-14" points="95.64 33.94 88.96 8.15 85.85 8.01 93.42 38.28 95.64 33.94 95.64 33.94 95.64 33.94 95.64 33.94"/><polygon class="cls-15" points="147.34 223.46 167.7 215.38 165.97 213.5 147.72 219.06 147.34 223.46 147.34 223.46 147.34 223.46 147.34 223.46"/><polygon class="cls-16" points="165.94 195.81 189.85 180.07 187.42 177.41 164.51 191.2 165.94 195.81 165.94 195.81 165.94 195.81 165.94 195.81"/><polygon class="cls-17" points="174.38 165.68 188.34 161.62 194.81 150.13 192.4 149.37 174.74 161.49 174.38 165.68 174.38 165.68 174.38 165.68 174.38 165.68"/><polygon class="cls-18" points="178.62 146.72 199.62 127.08 195.89 124.68 176.79 142.73 178.62 146.72 178.62 146.72 178.62 146.72 178.62 146.72"/><polygon class="cls-19" points="135.86 229.67 137.63 206.59 134.16 205.97 131.53 230.41 135.86 229.67 135.86 229.67"/><polygon class="cls-20" points="153.37 211.21 152.71 185.88 148.81 185.19 148.6 212.02 153.37 211.21 153.37 211.21"/><polygon class="cls-21" points="167.14 183.12 161.68 161.27 157.88 161.1 163.29 186.35 167.14 183.12 167.14 183.12"/><polygon class="cls-22" points="175.45 154.31 168.13 139.1 164.53 139.41 171.59 157.54 175.45 154.31 175.45 154.31"/><polygon class="cls-23" points="177.73 133.4 169.78 119.85 167.14 120.42 174.03 136.51 177.73 133.4 177.73 133.4"/><polygon class="cls-24" points="45.04 219.55 50.06 192.23 46.37 190.49 40.41 219.74 45.04 219.55 45.04 219.55"/><polygon class="cls-25" points="34.44 194.55 42.84 170.41 40.02 169.08 30.68 193.21 34.44 194.55 34.44 194.55"/><polygon class="cls-26" points="27.81 171.9 36.11 149.5 33.94 147.69 23.35 172.66 27.81 171.9 27.81 171.9"/><polygon class="cls-27" points="20.55 137.14 33.05 116.22 30.39 113.98 16.39 135.65 20.55 137.14 20.55 137.14"/><polygon class="cls-28" points="20.03 112.88 29.55 95.69 27.98 93.45 15.66 112.5 20.03 112.88 20.03 112.88"/><polygon class="cls-29" points="19.23 89.5 27.96 77.4 25.39 75.25 15.61 87.01 19.23 89.5 19.23 89.5"/><polygon class="cls-30" points="0 71.56 14.59 93.94 16.5 90.95 4.64 71.37 0 71.56 0 71.56 0 71.56 0 71.56"/><polygon class="cls-31" points="1.34 102.43 15.86 117.59 17.95 115.1 4.75 100.27 1.34 102.43 1.34 102.43 1.34 102.43 1.34 102.43"/><polygon class="cls-32" points="3.95 128.3 19.07 146.77 20.08 145.16 8.59 127.5 3.95 128.3 3.95 128.3 3.95 128.3 3.95 128.3"/><polygon class="cls-33" points="6.14 163.41 22.02 175.25 24.4 174.03 24.6 172.87 10.25 161.53 6.14 163.41 6.14 163.41 6.14 163.41 6.14 163.41"/><polygon class="cls-34" points="15 192.21 33.49 195.9 32.32 192.67 18.51 189.27 15 192.21 15 192.21 15 192.21 15 192.21"/><polygon class="cls-35" points="15.82 211.22 39.34 216.77 38.96 215 18.94 207.79 15.82 211.22 15.82 211.22 15.82 211.22 15.82 211.22"/><line class="cls-36" x1="12.33" y1="70.26" x2="42.08" y2="223.07"/><line class="cls-37" x1="98.22" y1="8.23" x2="83.83" y2="228.85"/><line class="cls-38" x1="182.21" y1="118.94" x2="129.98" y2="238.99"/></svg>