<svg id="Layer_1" data-name="Layer 1" xmlns="http://www.w3.org/2000/svg" xmlns:xlink="http://www.w3.org/1999/xlink" viewBox="0 0 268.62 203.75"><defs><style>.cls-1{fill:url(#radial-gradient);}</style><radialGradient id="radial-gradient" cx="118.31" cy="161.71" r="150.24" gradientUnits="userSpaceOnUse"><stop offset="0" stop-color="#949298"/><stop offset="0.1" stop-color="#9a9d9a"/><stop offset="0.5" stop-color="#b1caa0"/><stop offset="1" stop-color="#aec9a8"/></radialGradient></defs><polygon class="cls-1" points="96.59 0 99.23 0.69 108.83 32.6 120.74 11.14 121.62 10.92 125.77 15.81 124.87 40.26 87.86 75.52 100.88 136.73 134.84 159.08 134.99 148.11 136.57 148.02 136.57 148.03 135.54 137.34 121.98 129.25 121.18 109.93 119.55 109.08 108.09 75.25 113.61 70.54 116.45 70.72 117.56 71.72 124.16 96.27 129.04 84.15 131.81 82.05 133.81 81.98 139.26 85.72 135.77 111.2 135.69 110.85 136.83 119.9 140.9 121.34 143.48 120.84 155.18 102.36 154.19 77.55 137.8 50.98 143.58 34.66 146.15 32.88 149.08 32.92 150.25 33.77 155.33 60.53 162.95 34.34 168.65 33.84 173.3 36.05 164.41 82.68 165.56 86.02 169.27 87.75 174.55 85.05 177.39 80.63 177.78 76.03 177.78 76.77 178.34 59.27 221.62 11.08 225.25 10.58 229.56 13.78 226.6 32.14 191.03 70.02 191.42 72.22 193.88 75.44 196.53 75.89 235.4 46.85 238.13 47.73 239.33 49.29 236.31 62.72 161.3 128.6 159.29 136.81 208.39 120.59 217.94 99.04 223.29 97.84 225.52 99.58 224.1 117.47 243.05 107.17 256.47 81.7 261.24 79.83 268.23 83.03 268.62 90.47 223.23 135.3 223.59 135.3 223.79 135.16 224.27 135.44 224.4 133.72 224.54 133.72 224.67 135.43 242.25 141.64 263.15 136.59 265.53 137.65 266.9 139.95 266.81 143.23 262.51 150.85 252.09 155.81 209.45 142.15 157.21 152.71 154.76 155.69 145.91 200.21 137.06 203.75 135 203.28 132.01 200.37 131.13 177.19 126.79 170.19 14.79 150.24 9.78 144.25 10.01 142.99 16.9 139.46 33.1 144.95 18.76 126.93 19.07 124.21 21.02 121.94 26.72 120.86 47.35 132.32 50.25 136.62 86.91 138.95 80.29 123.81 61.38 110.42 43.59 111.53 43.66 111.53 0.5 78.94 0 75.95 0.54 74.52 4.76 70.82 9.29 69.7 14.95 71.57 32.74 95.36 49.34 99.3 10.16 55.06 11.23 49.13 17.2 44.02 24.54 43.15 80.33 98.34 48.27 41.24 50.19 21.25 57.78 16.43 71.67 23.04 82.81 57.27 99.53 48.91 99.52 48.91 90.6 12.45 93.58 1.67 94.52 0.62 96.59 0 96.59 0"/></svg>