<svg id="Layer_1" data-name="Layer 1" xmlns="http://www.w3.org/2000/svg" xmlns:xlink="http://www.w3.org/1999/xlink" viewBox="0 0 333.85 326.82"><defs><style>.cls-1{fill:url(#radial-gradient);}.cls-2{fill:url(#radial-gradient-2);}.cls-3{fill:url(#radial-gradient-3);}.cls-4{fill:url(#radial-gradient-4);}.cls-5{fill:url(#radial-gradient-5);}.cls-6{fill:url(#radial-gradient-6);}.cls-7{fill:url(#radial-gradient-7);}.cls-8{fill:url(#radial-gradient-8);}.cls-9{fill:url(#radial-gradient-9);}.cls-10{fill:url(#radial-gradient-10);}.cls-11{fill:url(#radial-gradient-11);}.cls-12{fill:url(#radial-gradient-12);}.cls-13{fill:url(#radial-gradient-13);}.cls-14{fill:url(#radial-gradient-14);}.cls-15{fill:url(#radial-gradient-15);}.cls-16{fill:url(#radial-gradient-16);}.cls-17{fill:url(#radial-gradient-17);}.cls-18{fill:url(#radial-gradient-18);}.cls-19{fill:url(#radial-gradient-19);}.cls-20{fill:url(#radial-gradient-20);}.cls-21{fill:url(#radial-gradient-21);}.cls-22{fill:url(#radial-gradient-22);}.cls-23{fill:url(#radial-gradient-23);}.cls-24{fill:url(#radial-gradient-24);}.cls-25{fill:url(#radial-gradient-25);}.cls-26{fill:url(#radial-gradient-26);}.cls-27{fill:url(#radial-gradient-27);}.cls-28{fill:url(#radial-gradient-28);}.cls-29{fill:url(#radial-gradient-29);}.cls-30{fill:url(#radial-gradient-30);}.cls-31{fill:url(#radial-gradient-31);}.cls-32{fill:url(#radial-gradient-32);}.cls-33{fill:url(#radial-gradient-33);}.cls-34{fill:url(#radial-gradient-34);}.cls-35{fill:url(#radial-gradient-35);}.cls-36{fill:url(#radial-gradient-36);}.cls-37{fill:url(#radial-gradient-37);}.cls-38{fill:url(#radial-gradient-38);}.cls-39{fill:url(#radial-gradient-39);}.cls-40{fill:url(#radial-gradient-40);}.cls-41{fill:url(#radial-gradient-41);}.cls-42{fill:url(#radial-gradient-42);}.cls-43{fill:url(#radial-gradient-43);}.cls-44{fill:url(#radial-gradient-44);}.cls-45{fill:url(#radial-gradient-45);}.cls-46{fill:url(#radial-gradient-46);}.cls-47{fill:url(#radial-gradient-47);}.cls-48{fill:url(#radial-gradient-48);}.cls-49{fill:url(#radial-gradient-49);}.cls-50{fill:url(#radial-gradient-50);}.cls-51{fill:url(#radial-gradient-51);}.cls-52{fill:url(#radial-gradient-52);}.cls-53{fill:url(#radial-gradient-53);}.cls-54{fill:url(#radial-gradient-54);}.cls-55{fill:url(#radial-gradient-55);}.cls-56{fill:url(#radial-gradient-56);}.cls-57{fill:url(#radial-gradient-57);}.cls-58{fill:url(#radial-gradient-58);}.cls-59{fill:url(#radial-gradient-59);}.cls-60{fill:url(#radial-gradient-60);}.cls-61{fill:url(#radial-gradient-61);}.cls-62{fill:url(#radial-gradient-62);}.cls-63{fill:url(#radial-gradient-63);}.cls-64{fill:url(#radial-gradient-64);}.cls-65{fill:url(#radial-gradient-65);}.cls-66{fill:url(#radial-gradient-66);}.cls-67{fill:url(#radial-gradient-67);}.cls-68{fill:url(#radial-gradient-68);}.cls-69{fill:url(#radial-gradient-69);}.cls-70{fill:url(#radial-gradient-70);}.cls-71{fill:url(#radial-gradient-71);}.cls-72{fill:url(#radial-gradient-72);}.cls-73{fill:url(#radial-gradient-73);}.cls-74{fill:url(#radial-gradient-74);}.cls-75{fill:url(#radial-gradient-75);}.cls-76{fill:url(#radial-gradient-76);}.cls-77{fill:url(#radial-gradient-77);}.cls-78{fill:url(#radial-gradient-78);}.cls-79{fill:url(#radial-gradient-79);}.cls-80{fill:url(#radial-gradient-80);}.cls-81{fill:url(#radial-gradient-81);}.cls-82{fill:url(#radial-gradient-82);}.cls-83{fill:url(#radial-gradient-83);}.cls-84{fill:url(#radial-gradient-84);}.cls-85{fill:url(#radial-gradient-85);}.cls-86{fill:url(#radial-gradient-86);}.cls-87{fill:url(#radial-gradient-87);}.cls-88{fill:url(#radial-gradient-88);}.cls-89{fill:url(#radial-gradient-89);}.cls-90{fill:url(#radial-gradient-90);}.cls-91{fill:url(#radial-gradient-91);}.cls-92{fill:url(#radial-gradient-92);}.cls-93{fill:url(#radial-gradient-93);}.cls-94{fill:url(#radial-gradient-94);}.cls-95{fill:url(#radial-gradient-95);}.cls-96{fill:url(#radial-gradient-96);}.cls-97{fill:url(#radial-gradient-97);}.cls-98{fill:url(#radial-gradient-98);}.cls-99{fill:url(#radial-gradient-99);}.cls-100{fill:url(#radial-gradient-100);}.cls-101{fill:url(#radial-gradient-101);}.cls-102{fill:url(#radial-gradient-102);}.cls-103{fill:url(#radial-gradient-103);}.cls-104{fill:url(#radial-gradient-104);}.cls-105{fill:url(#radial-gradient-105);}.cls-106{fill:url(#radial-gradient-106);}.cls-107{fill:url(#radial-gradient-107);}.cls-108{fill:url(#radial-gradient-108);}.cls-109{fill:url(#radial-gradient-109);}.cls-110{fill:url(#radial-gradient-110);}.cls-111{fill:url(#radial-gradient-111);}.cls-112{fill:url(#radial-gradient-112);}.cls-113{fill:url(#radial-gradient-113);}.cls-114{fill:url(#radial-gradient-114);}.cls-115{fill:url(#radial-gradient-115);}.cls-116{fill:url(#radial-gradient-116);}.cls-117{fill:url(#radial-gradient-117);}.cls-118{fill:url(#radial-gradient-118);}.cls-119{fill:url(#radial-gradient-119);}.cls-120{fill:url(#radial-gradient-120);}.cls-121{fill:url(#radial-gradient-121);}.cls-122{fill:url(#radial-gradient-122);}.cls-123{fill:url(#radial-gradient-123);}.cls-124{fill:url(#radial-gradient-124);}.cls-125{fill:url(#radial-gradient-125);}.cls-126{fill:url(#radial-gradient-126);}.cls-127{fill:url(#radial-gradient-127);}.cls-128{fill:url(#radial-gradient-128);}.cls-129{fill:url(#radial-gradient-129);}.cls-130{fill:url(#radial-gradient-130);}.cls-131{fill:url(#radial-gradient-131);}.cls-132{fill:url(#radial-gradient-132);}.cls-133{fill:url(#radial-gradient-133);}.cls-134{fill:url(#radial-gradient-134);}.cls-135{fill:url(#radial-gradient-135);}.cls-136{fill:url(#radial-gradient-136);}.cls-137{fill:url(#radial-gradient-137);}.cls-138{fill:url(#radial-gradient-138);}.cls-139{fill:url(#radial-gradient-139);}.cls-140{fill:url(#radial-gradient-140);}.cls-141{fill:url(#radial-gradient-141);}.cls-142{fill:url(#radial-gradient-142);}.cls-143{fill:url(#radial-gradient-143);}.cls-144{fill:url(#radial-gradient-144);}.cls-145{fill:url(#radial-gradient-145);}.cls-146{fill:url(#radial-gradient-146);}.cls-147{fill:url(#radial-gradient-147);}.cls-148{fill:url(#radial-gradient-148);}.cls-149{fill:url(#radial-gradient-149);}.cls-150{fill:url(#radial-gradient-150);}.cls-151{fill:url(#radial-gradient-151);}.cls-152{fill:url(#radial-gradient-152);}.cls-153{fill:url(#radial-gradient-153);}.cls-154{fill:url(#radial-gradient-154);}.cls-155{fill:url(#radial-gradient-155);}.cls-156{fill:url(#radial-gradient-156);}.cls-157{fill:url(#radial-gradient-157);}.cls-158{fill:url(#radial-gradient-158);}.cls-159{fill:url(#radial-gradient-159);}.cls-160{fill:url(#radial-gradient-160);}.cls-161{fill:url(#radial-gradient-161);}.cls-162{fill:url(#radial-gradient-162);}.cls-163{fill:url(#radial-gradient-163);}.cls-164{fill:url(#radial-gradient-164);}.cls-165{fill:url(#radial-gradient-165);}.cls-166{fill:url(#radial-gradient-166);}.cls-167{fill:url(#radial-gradient-167);}.cls-168{fill:url(#radial-gradient-168);}.cls-169{fill:url(#radial-gradient-169);}.cls-170{fill:url(#radial-gradient-170);}.cls-171{fill:url(#radial-gradient-171);}.cls-172{fill:url(#radial-gradient-172);}.cls-173{fill:url(#radial-gradient-173);}.cls-174{fill:url(#radial-gradient-174);}.cls-175{fill:url(#radial-gradient-175);}.cls-176{fill:url(#radial-gradient-176);}.cls-177{fill:url(#radial-gradient-177);}.cls-178{fill:url(#radial-gradient-178);}.cls-179{fill:url(#radial-gradient-179);}.cls-180{fill:url(#radial-gradient-180);}.cls-181{fill:url(#radial-gradient-181);}.cls-182{fill:url(#radial-gradient-182);}.cls-183{fill:url(#radial-gradient-183);}.cls-184{fill:url(#radial-gradient-184);}.cls-185{fill:url(#radial-gradient-185);}.cls-186{fill:url(#radial-gradient-186);}.cls-187{fill:url(#radial-gradient-187);}.cls-188{fill:url(#radial-gradient-188);}.cls-189{fill:url(#radial-gradient-189);}.cls-190{fill:url(#radial-gradient-190);}.cls-191{fill:url(#radial-gradient-191);}.cls-192{fill:url(#radial-gradient-192);}.cls-193{fill:url(#radial-gradient-193);}.cls-194{fill:url(#radial-gradient-194);}.cls-195{fill:url(#radial-gradient-195);}.cls-196{fill:url(#radial-gradient-196);}.cls-197{fill:url(#radial-gradient-197);}.cls-198{fill:url(#radial-gradient-198);}.cls-199{fill:url(#radial-gradient-199);}.cls-200{fill:url(#radial-gradient-200);}.cls-201{fill:url(#radial-gradient-201);}.cls-202{fill:url(#radial-gradient-202);}.cls-203{fill:url(#radial-gradient-203);}.cls-204{fill:url(#radial-gradient-204);}.cls-205{fill:url(#radial-gradient-205);}.cls-206{fill:url(#radial-gradient-206);}.cls-207{fill:url(#radial-gradient-207);}.cls-208{fill:url(#radial-gradient-208);}.cls-209{fill:url(#radial-gradient-209);}.cls-210{fill:url(#radial-gradient-210);}</style><radialGradient id="radial-gradient" cx="79" cy="255.68" r="285.59" gradientUnits="userSpaceOnUse"><stop offset="0" stop-color="#ab7171"/><stop offset="0.64" stop-color="#b37777"/><stop offset="1" stop-color="#bc8787"/></radialGradient><radialGradient id="radial-gradient-2" cx="138.07" cy="146.76" r="84.28" gradientUnits="userSpaceOnUse"><stop offset="0" stop-color="#a76c42"/><stop offset="0.64" stop-color="#af7756"/><stop offset="1" stop-color="#ba8471"/></radialGradient><radialGradient id="radial-gradient-3" cx="151.58" cy="77.32" r="45.45" xlink:href="#radial-gradient-2"/><radialGradient id="radial-gradient-4" cx="165.96" cy="115.49" r="53.4" xlink:href="#radial-gradient-2"/><radialGradient id="radial-gradient-5" cx="195.97" cy="152.04" r="87.56" xlink:href="#radial-gradient-2"/><radialGradient id="radial-gradient-6" cx="214.96" cy="100.16" r="34.84" xlink:href="#radial-gradient-2"/><radialGradient id="radial-gradient-7" cx="247.29" cy="75.92" r="21.97" xlink:href="#radial-gradient-2"/><radialGradient id="radial-gradient-8" cx="229.96" cy="134.65" r="45.31" xlink:href="#radial-gradient-2"/><radialGradient id="radial-gradient-9" cx="269.3" cy="113.74" r="26.8" xlink:href="#radial-gradient-2"/><radialGradient id="radial-gradient-10" cx="235.21" cy="222.12" r="67.11" xlink:href="#radial-gradient-2"/><radialGradient id="radial-gradient-11" cx="237.45" cy="171.37" r="22.68" xlink:href="#radial-gradient-2"/><radialGradient id="radial-gradient-12" cx="212.45" cy="219.9" r="32.81" xlink:href="#radial-gradient-2"/><radialGradient id="radial-gradient-13" cx="280.94" cy="191.98" r="21.11" xlink:href="#radial-gradient-2"/><radialGradient id="radial-gradient-14" cx="237.14" cy="237.02" r="23.34" xlink:href="#radial-gradient-2"/><radialGradient id="radial-gradient-15" cx="150.97" cy="290.72" r="22.05" xlink:href="#radial-gradient-2"/><radialGradient id="radial-gradient-16" cx="109.5" cy="163.83" r="81.07" xlink:href="#radial-gradient-2"/><radialGradient id="radial-gradient-17" cx="111.08" cy="128.54" r="32.93" xlink:href="#radial-gradient-2"/><radialGradient id="radial-gradient-18" cx="74.08" cy="170.07" r="24.6" xlink:href="#radial-gradient-2"/><radialGradient id="radial-gradient-19" cx="77.73" cy="105.6" r="13.6" xlink:href="#radial-gradient-2"/><radialGradient id="radial-gradient-20" cx="109.09" cy="193.54" r="23.35" xlink:href="#radial-gradient-2"/><radialGradient id="radial-gradient-21" cx="80.17" cy="177.3" r="64.44" xlink:href="#radial-gradient-2"/><radialGradient id="radial-gradient-22" cx="111.09" cy="42.28" r="15.04" xlink:href="#radial-gradient-2"/><radialGradient id="radial-gradient-23" cx="144.31" cy="25.2" r="11.62" xlink:href="#radial-gradient-2"/><radialGradient id="radial-gradient-24" cx="158.56" cy="37.77" r="15.89" xlink:href="#radial-gradient-2"/><radialGradient id="radial-gradient-25" cx="164.33" cy="113.17" r="32.98" xlink:href="#radial-gradient-2"/><radialGradient id="radial-gradient-26" cx="189.42" cy="86.65" r="18.14" xlink:href="#radial-gradient-2"/><radialGradient id="radial-gradient-27" cx="183.5" cy="44.64" r="17.26" xlink:href="#radial-gradient-2"/><radialGradient id="radial-gradient-28" cx="213.77" cy="49.38" r="15.71" xlink:href="#radial-gradient-2"/><radialGradient id="radial-gradient-29" cx="208.87" cy="112.67" r="9.18" xlink:href="#radial-gradient-2"/><radialGradient id="radial-gradient-30" cx="234.83" cy="47.78" r="17.91" xlink:href="#radial-gradient-2"/><radialGradient id="radial-gradient-31" cx="246.74" cy="44.84" r="12.37" xlink:href="#radial-gradient-2"/><radialGradient id="radial-gradient-32" cx="264.54" cy="77.61" r="10.27" xlink:href="#radial-gradient-2"/><radialGradient id="radial-gradient-33" cx="232.84" cy="135.84" r="19.22" xlink:href="#radial-gradient-2"/><radialGradient id="radial-gradient-34" cx="256.36" cy="104.08" r="9.25" xlink:href="#radial-gradient-2"/><radialGradient id="radial-gradient-35" cx="259.79" cy="116.47" r="11.64" xlink:href="#radial-gradient-2"/><radialGradient id="radial-gradient-36" cx="287.26" cy="112.11" r="11.12" xlink:href="#radial-gradient-2"/><radialGradient id="radial-gradient-37" cx="286.31" cy="132.99" r="17.81" xlink:href="#radial-gradient-2"/><radialGradient id="radial-gradient-38" cx="249.85" cy="161.98" r="16.74" xlink:href="#radial-gradient-2"/><radialGradient id="radial-gradient-39" cx="259.05" cy="179.41" r="9.18" xlink:href="#radial-gradient-2"/><radialGradient id="radial-gradient-40" cx="268.05" cy="161.4" r="10.02" xlink:href="#radial-gradient-2"/><radialGradient id="radial-gradient-41" cx="273.74" cy="168.98" r="9.29" xlink:href="#radial-gradient-2"/><radialGradient id="radial-gradient-42" cx="301.41" cy="170.2" r="7.36" xlink:href="#radial-gradient-2"/><radialGradient id="radial-gradient-43" cx="276.01" cy="189.67" r="8.09" xlink:href="#radial-gradient-2"/><radialGradient id="radial-gradient-44" cx="311.92" cy="177.39" r="9.55" xlink:href="#radial-gradient-2"/><radialGradient id="radial-gradient-45" cx="320.04" cy="188.25" r="7.81" xlink:href="#radial-gradient-2"/><radialGradient id="radial-gradient-46" cx="300.13" cy="205.41" r="16.71" xlink:href="#radial-gradient-2"/><radialGradient id="radial-gradient-47" cx="222.51" cy="211" r="11.23" xlink:href="#radial-gradient-2"/><radialGradient id="radial-gradient-48" cx="219.11" cy="191.75" r="9.82" xlink:href="#radial-gradient-2"/><radialGradient id="radial-gradient-49" cx="195.95" cy="215.67" r="12.93" xlink:href="#radial-gradient-2"/><radialGradient id="radial-gradient-50" cx="109.33" cy="62.76" r="12.79" xlink:href="#radial-gradient-2"/><radialGradient id="radial-gradient-51" cx="82.65" cy="61.81" r="17.94" xlink:href="#radial-gradient-2"/><radialGradient id="radial-gradient-52" cx="116.09" cy="117.49" r="18.2" xlink:href="#radial-gradient-2"/><radialGradient id="radial-gradient-53" cx="136.62" cy="136.02" r="17" xlink:href="#radial-gradient-2"/><radialGradient id="radial-gradient-54" cx="144.5" cy="191.92" r="16.48" xlink:href="#radial-gradient-2"/><radialGradient id="radial-gradient-55" cx="112.64" cy="173.31" r="9.19" xlink:href="#radial-gradient-2"/><radialGradient id="radial-gradient-56" cx="73.31" cy="142.57" r="11.86" xlink:href="#radial-gradient-2"/><radialGradient id="radial-gradient-57" cx="63.63" cy="168.39" r="10.98" xlink:href="#radial-gradient-2"/><radialGradient id="radial-gradient-58" cx="71.68" cy="197" r="9.76" xlink:href="#radial-gradient-2"/><radialGradient id="radial-gradient-59" cx="92.19" cy="189.81" r="8.73" xlink:href="#radial-gradient-2"/><radialGradient id="radial-gradient-60" cx="87.91" cy="164.67" r="7.39" xlink:href="#radial-gradient-2"/><radialGradient id="radial-gradient-61" cx="58.88" cy="83.2" r="9.07" xlink:href="#radial-gradient-2"/><radialGradient id="radial-gradient-62" cx="66.2" cy="84.8" r="9.14" xlink:href="#radial-gradient-2"/><radialGradient id="radial-gradient-63" cx="65.48" cy="54.63" r="6.15" xlink:href="#radial-gradient-2"/><radialGradient id="radial-gradient-64" cx="118.44" cy="29.08" r="7.94" xlink:href="#radial-gradient-2"/><radialGradient id="radial-gradient-65" cx="124.24" cy="24.24" r="9.3" xlink:href="#radial-gradient-2"/><radialGradient id="radial-gradient-66" cx="166.7" cy="16.11" r="8.91" xlink:href="#radial-gradient-2"/><radialGradient id="radial-gradient-67" cx="143.97" cy="73.86" r="8.6" xlink:href="#radial-gradient-2"/><radialGradient id="radial-gradient-68" cx="173.49" cy="63.35" r="9.06" xlink:href="#radial-gradient-2"/><radialGradient id="radial-gradient-69" cx="99.8" cy="221.45" r="13.32" xlink:href="#radial-gradient-2"/><radialGradient id="radial-gradient-70" cx="87.11" cy="226.08" r="7.41" xlink:href="#radial-gradient-2"/><radialGradient id="radial-gradient-71" cx="39.06" cy="132.21" r="18.13" xlink:href="#radial-gradient-2"/><radialGradient id="radial-gradient-72" cx="28.13" cy="111.4" r="8.67" xlink:href="#radial-gradient-2"/><radialGradient id="radial-gradient-73" cx="76.53" cy="246.25" r="7.73" xlink:href="#radial-gradient-2"/><radialGradient id="radial-gradient-74" cx="43.47" cy="215.48" r="6.73" xlink:href="#radial-gradient-2"/><radialGradient id="radial-gradient-75" cx="173.04" cy="166.89" r="35.66" xlink:href="#radial-gradient-2"/><radialGradient id="radial-gradient-76" cx="195.54" cy="141.83" r="11.83" xlink:href="#radial-gradient-2"/><radialGradient id="radial-gradient-77" cx="168.67" cy="175.67" r="8.58" xlink:href="#radial-gradient-2"/><radialGradient id="radial-gradient-78" cx="200.71" cy="127.2" r="5.23" xlink:href="#radial-gradient-2"/><radialGradient id="radial-gradient-79" cx="206.33" cy="68.55" r="9.56" xlink:href="#radial-gradient-2"/><radialGradient id="radial-gradient-80" cx="219.47" cy="37.85" r="7.2" xlink:href="#radial-gradient-2"/><radialGradient id="radial-gradient-81" cx="235.68" cy="28.57" r="6.84" xlink:href="#radial-gradient-2"/><radialGradient id="radial-gradient-82" cx="221.48" cy="78.09" r="13.36" xlink:href="#radial-gradient-2"/><radialGradient id="radial-gradient-83" cx="222.83" cy="56.99" r="8.32" xlink:href="#radial-gradient-2"/><radialGradient id="radial-gradient-84" cx="248.37" cy="32.82" r="5.43" xlink:href="#radial-gradient-2"/><radialGradient id="radial-gradient-85" cx="258.15" cy="37.41" r="8.23" xlink:href="#radial-gradient-2"/><radialGradient id="radial-gradient-86" cx="263.85" cy="52.15" r="11.74" xlink:href="#radial-gradient-2"/><radialGradient id="radial-gradient-87" cx="280.39" cy="76.78" r="9.34" xlink:href="#radial-gradient-2"/><radialGradient id="radial-gradient-88" cx="262.72" cy="85.41" r="7.59" xlink:href="#radial-gradient-2"/><radialGradient id="radial-gradient-89" cx="245.85" cy="74.08" r="14.19" xlink:href="#radial-gradient-2"/><radialGradient id="radial-gradient-90" cx="234.2" cy="116.34" r="15.59" xlink:href="#radial-gradient-2"/><radialGradient id="radial-gradient-91" cx="225.64" cy="100.28" r="10.52" xlink:href="#radial-gradient-2"/><radialGradient id="radial-gradient-92" cx="189.25" cy="78.08" r="12.07" xlink:href="#radial-gradient-2"/><radialGradient id="radial-gradient-93" cx="167.53" cy="72.27" r="12.19" xlink:href="#radial-gradient-2"/><radialGradient id="radial-gradient-94" cx="172.47" cy="48.54" r="12.19" xlink:href="#radial-gradient-2"/><radialGradient id="radial-gradient-95" cx="162.68" cy="30.06" r="10.63" xlink:href="#radial-gradient-2"/><radialGradient id="radial-gradient-96" cx="181.42" cy="24.66" r="8.82" xlink:href="#radial-gradient-2"/><radialGradient id="radial-gradient-97" cx="141.48" cy="31.56" r="11.84" xlink:href="#radial-gradient-2"/><radialGradient id="radial-gradient-98" cx="147.18" cy="18.62" r="9.79" xlink:href="#radial-gradient-2"/><radialGradient id="radial-gradient-99" cx="167.92" cy="7.48" r="6.64" xlink:href="#radial-gradient-2"/><radialGradient id="radial-gradient-100" cx="138.58" cy="64.5" r="13.69" xlink:href="#radial-gradient-2"/><radialGradient id="radial-gradient-101" cx="157.53" cy="80.14" r="17.8" xlink:href="#radial-gradient-2"/><radialGradient id="radial-gradient-102" cx="144.16" cy="88.55" r="8.76" xlink:href="#radial-gradient-2"/><radialGradient id="radial-gradient-103" cx="112.45" cy="58.37" r="10.88" xlink:href="#radial-gradient-2"/><radialGradient id="radial-gradient-104" cx="112.24" cy="42.56" r="9.26" xlink:href="#radial-gradient-2"/><radialGradient id="radial-gradient-105" cx="109.67" cy="22" r="4.11" xlink:href="#radial-gradient-2"/><radialGradient id="radial-gradient-106" cx="89.86" cy="31.99" r="5.88" xlink:href="#radial-gradient-2"/><radialGradient id="radial-gradient-107" cx="100.9" cy="22.81" r="8.38" xlink:href="#radial-gradient-2"/><radialGradient id="radial-gradient-108" cx="77.03" cy="34.38" r="5.86" xlink:href="#radial-gradient-2"/><radialGradient id="radial-gradient-109" cx="94.05" cy="46.27" r="9.33" xlink:href="#radial-gradient-2"/><radialGradient id="radial-gradient-110" cx="97.09" cy="47.81" r="7.06" xlink:href="#radial-gradient-2"/><radialGradient id="radial-gradient-111" cx="122.59" cy="11.97" r="4.25" xlink:href="#radial-gradient-2"/><radialGradient id="radial-gradient-112" cx="105.32" cy="77.39" r="16.78" xlink:href="#radial-gradient-2"/><radialGradient id="radial-gradient-113" cx="96.5" cy="75.59" r="11.29" xlink:href="#radial-gradient-2"/><radialGradient id="radial-gradient-114" cx="60.7" cy="67.32" r="7.06" xlink:href="#radial-gradient-2"/><radialGradient id="radial-gradient-115" cx="52.21" cy="70.72" r="5.94" xlink:href="#radial-gradient-2"/><radialGradient id="radial-gradient-116" cx="84.36" cy="92.48" r="12.04" xlink:href="#radial-gradient-2"/><radialGradient id="radial-gradient-117" cx="73.95" cy="126.29" r="8.7" xlink:href="#radial-gradient-2"/><radialGradient id="radial-gradient-118" cx="87.11" cy="133.73" r="7.37" xlink:href="#radial-gradient-2"/><radialGradient id="radial-gradient-119" cx="60.72" cy="148.64" r="11.43" xlink:href="#radial-gradient-2"/><radialGradient id="radial-gradient-120" cx="45.3" cy="119.4" r="10.71" xlink:href="#radial-gradient-2"/><radialGradient id="radial-gradient-121" cx="37.75" cy="106.64" r="8.42" xlink:href="#radial-gradient-2"/><radialGradient id="radial-gradient-122" cx="43.81" cy="103.49" r="4.98" xlink:href="#radial-gradient-2"/><radialGradient id="radial-gradient-123" cx="15.89" cy="109.53" r="6.14" xlink:href="#radial-gradient-2"/><radialGradient id="radial-gradient-124" cx="20.85" cy="135.32" r="12.17" xlink:href="#radial-gradient-2"/><radialGradient id="radial-gradient-125" cx="29.53" cy="157.15" r="5.7" xlink:href="#radial-gradient-2"/><radialGradient id="radial-gradient-126" cx="30.92" cy="171.89" r="8.34" xlink:href="#radial-gradient-2"/><radialGradient id="radial-gradient-127" cx="33.03" cy="195.64" r="6.55" xlink:href="#radial-gradient-2"/><radialGradient id="radial-gradient-128" cx="43.85" cy="180.5" r="17.41" xlink:href="#radial-gradient-2"/><radialGradient id="radial-gradient-129" cx="49.32" cy="153.04" r="7.32" xlink:href="#radial-gradient-2"/><radialGradient id="radial-gradient-130" cx="34.77" cy="130.99" r="5.93" xlink:href="#radial-gradient-2"/><radialGradient id="radial-gradient-131" cx="96.68" cy="167.32" r="10.18" xlink:href="#radial-gradient-2"/><radialGradient id="radial-gradient-132" cx="91.55" cy="165.5" r="4.81" xlink:href="#radial-gradient-2"/><radialGradient id="radial-gradient-133" cx="87.18" cy="199.97" r="7.77" xlink:href="#radial-gradient-2"/><radialGradient id="radial-gradient-134" cx="82.67" cy="213.13" r="7.09" xlink:href="#radial-gradient-2"/><radialGradient id="radial-gradient-135" cx="65.88" cy="207.09" r="7.53" xlink:href="#radial-gradient-2"/><radialGradient id="radial-gradient-136" cx="50.92" cy="182.04" r="8.31" xlink:href="#radial-gradient-2"/><radialGradient id="radial-gradient-137" cx="64.64" cy="198.68" r="4" xlink:href="#radial-gradient-2"/><radialGradient id="radial-gradient-138" cx="64.16" cy="212.97" r="15.7" xlink:href="#radial-gradient-2"/><radialGradient id="radial-gradient-139" cx="57.21" cy="228.22" r="6.86" xlink:href="#radial-gradient-2"/><radialGradient id="radial-gradient-140" cx="72.52" cy="242.38" r="7.71" xlink:href="#radial-gradient-2"/><radialGradient id="radial-gradient-141" cx="74.75" cy="220.35" r="7.31" xlink:href="#radial-gradient-2"/><radialGradient id="radial-gradient-142" cx="90.64" cy="223.66" r="9.3" xlink:href="#radial-gradient-2"/><radialGradient id="radial-gradient-143" cx="101.43" cy="211.17" r="10.74" xlink:href="#radial-gradient-2"/><radialGradient id="radial-gradient-144" cx="106.52" cy="187.37" r="10.78" xlink:href="#radial-gradient-2"/><radialGradient id="radial-gradient-145" cx="88.58" cy="180.89" r="7.51" xlink:href="#radial-gradient-2"/><radialGradient id="radial-gradient-146" cx="66.8" cy="162.2" r="5.18" xlink:href="#radial-gradient-2"/><radialGradient id="radial-gradient-147" cx="98.81" cy="114.84" r="18.73" xlink:href="#radial-gradient-2"/><radialGradient id="radial-gradient-148" cx="122.51" cy="154.99" r="14.87" xlink:href="#radial-gradient-2"/><radialGradient id="radial-gradient-149" cx="135.08" cy="130.97" r="9.01" xlink:href="#radial-gradient-2"/><radialGradient id="radial-gradient-150" cx="139.98" cy="173.7" r="20.48" xlink:href="#radial-gradient-2"/><radialGradient id="radial-gradient-151" cx="133.34" cy="183.26" r="9.93" xlink:href="#radial-gradient-2"/><radialGradient id="radial-gradient-152" cx="115.96" cy="184.93" r="7.04" xlink:href="#radial-gradient-2"/><radialGradient id="radial-gradient-153" cx="139.79" cy="206.85" r="12.85" xlink:href="#radial-gradient-2"/><radialGradient id="radial-gradient-154" cx="126.08" cy="215.25" r="11.61" xlink:href="#radial-gradient-2"/><radialGradient id="radial-gradient-155" cx="119.17" cy="225.41" r="12.2" xlink:href="#radial-gradient-2"/><radialGradient id="radial-gradient-156" cx="154.77" cy="148.79" r="16.32" xlink:href="#radial-gradient-2"/><radialGradient id="radial-gradient-157" cx="172.4" cy="114.54" r="11.6" xlink:href="#radial-gradient-2"/><radialGradient id="radial-gradient-158" cx="158.92" cy="109.37" r="5.93" xlink:href="#radial-gradient-2"/><radialGradient id="radial-gradient-159" cx="171.83" cy="89.04" r="10.06" xlink:href="#radial-gradient-2"/><radialGradient id="radial-gradient-160" cx="200.52" cy="95.17" r="7.93" xlink:href="#radial-gradient-2"/><radialGradient id="radial-gradient-161" cx="197.25" cy="117.69" r="14.85" xlink:href="#radial-gradient-2"/><radialGradient id="radial-gradient-162" cx="185.54" cy="150.99" r="12.58" xlink:href="#radial-gradient-2"/><radialGradient id="radial-gradient-163" cx="175.07" cy="191.75" r="22.26" xlink:href="#radial-gradient-2"/><radialGradient id="radial-gradient-164" cx="201.16" cy="148.01" r="12.3" xlink:href="#radial-gradient-2"/><radialGradient id="radial-gradient-165" cx="218.12" cy="79.74" r="8.29" xlink:href="#radial-gradient-2"/><radialGradient id="radial-gradient-166" cx="221.59" cy="149.96" r="17.05" xlink:href="#radial-gradient-2"/><radialGradient id="radial-gradient-167" cx="235.39" cy="115.07" r="8.22" xlink:href="#radial-gradient-2"/><radialGradient id="radial-gradient-168" cx="278.24" cy="86.07" r="8.12" xlink:href="#radial-gradient-2"/><radialGradient id="radial-gradient-169" cx="293.55" cy="80.64" r="5.32" xlink:href="#radial-gradient-2"/><radialGradient id="radial-gradient-170" cx="306.58" cy="114.67" r="6.56" xlink:href="#radial-gradient-2"/><radialGradient id="radial-gradient-171" cx="314.69" cy="141.78" r="6.17" xlink:href="#radial-gradient-2"/><radialGradient id="radial-gradient-172" cx="251.18" cy="147.45" r="11.3" xlink:href="#radial-gradient-2"/><radialGradient id="radial-gradient-173" cx="288.63" cy="123.14" r="8.13" xlink:href="#radial-gradient-2"/><radialGradient id="radial-gradient-174" cx="292.86" cy="101.31" r="7.66" xlink:href="#radial-gradient-2"/><radialGradient id="radial-gradient-175" cx="242.64" cy="155.94" r="5.96" xlink:href="#radial-gradient-2"/><radialGradient id="radial-gradient-176" cx="231.07" cy="179.68" r="12.06" xlink:href="#radial-gradient-2"/><radialGradient id="radial-gradient-177" cx="204.52" cy="187.98" r="7.44" xlink:href="#radial-gradient-2"/><radialGradient id="radial-gradient-178" cx="273.43" cy="174.95" r="10.58" xlink:href="#radial-gradient-2"/><radialGradient id="radial-gradient-179" cx="292.37" cy="165.17" r="6.47" xlink:href="#radial-gradient-2"/><radialGradient id="radial-gradient-180" cx="249.59" cy="194.39" r="14" xlink:href="#radial-gradient-2"/><radialGradient id="radial-gradient-181" cx="257.22" cy="185.87" r="11.27" xlink:href="#radial-gradient-2"/><radialGradient id="radial-gradient-182" cx="236.65" cy="204.24" r="8.92" xlink:href="#radial-gradient-2"/><radialGradient id="radial-gradient-183" cx="212.73" cy="218.92" r="11" xlink:href="#radial-gradient-2"/><radialGradient id="radial-gradient-184" cx="264.46" cy="215.65" r="11.84" xlink:href="#radial-gradient-2"/><radialGradient id="radial-gradient-185" cx="248.34" cy="223.28" r="13.32" xlink:href="#radial-gradient-2"/><radialGradient id="radial-gradient-186" cx="280.75" cy="224.52" r="14.04" xlink:href="#radial-gradient-2"/><radialGradient id="radial-gradient-187" cx="261.8" cy="241.6" r="12" xlink:href="#radial-gradient-2"/><radialGradient id="radial-gradient-188" cx="237.73" cy="249.19" r="7.67" xlink:href="#radial-gradient-2"/><radialGradient id="radial-gradient-189" cx="221.32" cy="245.41" r="9.24" xlink:href="#radial-gradient-2"/><radialGradient id="radial-gradient-190" cx="324.67" cy="191.73" r="10.07" xlink:href="#radial-gradient-2"/><radialGradient id="radial-gradient-191" cx="310.14" cy="198.12" r="8.55" xlink:href="#radial-gradient-2"/><radialGradient id="radial-gradient-192" cx="301.34" cy="179.04" r="9.13" xlink:href="#radial-gradient-2"/><radialGradient id="radial-gradient-193" cx="318.78" cy="166.24" r="7.12" xlink:href="#radial-gradient-2"/><radialGradient id="radial-gradient-194" cx="324.69" cy="178.94" r="7.35" xlink:href="#radial-gradient-2"/><radialGradient id="radial-gradient-195" cx="188.59" cy="263.98" r="13.28" xlink:href="#radial-gradient-2"/><radialGradient id="radial-gradient-196" cx="200.75" cy="259.77" r="10.49" xlink:href="#radial-gradient-2"/><radialGradient id="radial-gradient-197" cx="186.29" cy="221.44" r="15.86" xlink:href="#radial-gradient-2"/><radialGradient id="radial-gradient-198" cx="191.18" cy="193.5" r="9.04" xlink:href="#radial-gradient-2"/><radialGradient id="radial-gradient-199" cx="167.67" cy="222.08" r="11.59" xlink:href="#radial-gradient-2"/><radialGradient id="radial-gradient-200" cx="153.82" cy="226.35" r="7.7" xlink:href="#radial-gradient-2"/><radialGradient id="radial-gradient-201" cx="113.85" cy="249.71" r="12.85" xlink:href="#radial-gradient-2"/><radialGradient id="radial-gradient-202" cx="97.07" cy="247.84" r="8.37" xlink:href="#radial-gradient-2"/><radialGradient id="radial-gradient-203" cx="94.92" cy="247.89" r="4.48" xlink:href="#radial-gradient-2"/><radialGradient id="radial-gradient-204" cx="109.17" cy="251.57" r="7.1" xlink:href="#radial-gradient-2"/><radialGradient id="radial-gradient-205" cx="96.87" cy="263.79" r="8.13" xlink:href="#radial-gradient-2"/><radialGradient id="radial-gradient-206" cx="88.52" cy="251.92" r="7.34" xlink:href="#radial-gradient-2"/><radialGradient id="radial-gradient-207" cx="140.98" cy="257.11" r="13.82" xlink:href="#radial-gradient-2"/><radialGradient id="radial-gradient-208" cx="126.3" cy="261.69" r="10.21" xlink:href="#radial-gradient-2"/><radialGradient id="radial-gradient-209" cx="143.92" cy="273.78" r="9.26" xlink:href="#radial-gradient-2"/><radialGradient id="radial-gradient-210" cx="166.3" cy="273.52" r="11.88" xlink:href="#radial-gradient-2"/></defs><polygon class="cls-1" points="153.14 0 146.59 1.2 144.22 0.38 137.96 1.17 131.35 6.12 119.78 4.01 102.07 15.15 97.62 14.4 90.05 18.17 85.81 17.54 41.41 72.3 46.61 89.23 52.64 93.35 58.27 107.07 58.22 106.92 60.4 121.56 57 124.81 56.57 132 59.59 138.33 59.17 140.78 58.28 141.98 56.03 142.14 51.58 97.85 32.07 97.58 30.2 98.54 24.77 95.21 16.66 95.08 10.7 104.02 7.49 103.3 5.35 103.94 0 115.5 1.87 130.9 15.08 136.53 56.25 257.83 139.64 276.02 144.14 282.3 140.38 312.14 138.5 314.91 138.43 315.45 136.86 314.84 136.49 314.89 135.61 315.57 135.49 316.78 156.38 326.82 157.66 325.85 157.51 324.82 155.56 323.93 160.8 317.8 162.85 298.67 162.86 298.71 161.78 285.03 161.81 284.96 161.82 284.97 171.69 280.48 195.38 281.38 206.66 274.92 216.13 275.46 222.7 272.4 222.51 272.53 231.76 266.01 233.95 260.83 239.94 263.28 252.47 256.8 262.43 258.45 264.47 257.15 266.8 249.13 286 243.64 287.48 233.72 291.81 228.49 295.73 228.32 304.96 222.05 311.44 224.05 322.4 220.91 326.43 217.13 326.43 217.13 326.43 217.12 326.44 217.11 326.43 217.13 326.44 217.13 326.71 216.76 326.59 216.9 332.36 206.91 330.72 172.31 314.77 158.95 312.01 159.75 303.08 157.16 296.97 160.91 285.65 156.39 285.55 148.91 283.01 145.76 273.11 144.04 273.81 139.9 279.32 135.3 279.24 135.33 282.12 134.23 292.92 145.26 294.04 150.2 295.7 151.99 308.25 152.72 309.4 153.52 323.39 150.89 325.64 148.88 326.26 146.94 324.12 136.13 316.68 128.13 316.75 128.31 307.95 104.3 298.12 96.32 298.77 76.08 293.97 70.91 288.45 69.81 288.45 69.81 285.97 66.27 275.37 66.64 274.15 67.35 272.61 67.22 272.56 67.13 273.67 59.81 277.4 59.36 278.3 58.44 278.53 55.81 276.59 51.34 273.54 49.15 273.55 49.15 269.72 31.75 268.4 30.53 268.44 30.57 255.49 27.12 241.4 14.78 213.36 9.76 211.18 11.08 210.87 11.73 211.1 14.4 206.64 14.73 205.13 15.86 201.59 42.73 195.04 52.87 194.97 52.79 194.98 52.78 194.76 51.35 197.16 49.23 197.41 46.71 194.52 40.23 195.06 37.86 198.8 36.67 202.95 30.16 202.89 25.97 192.75 20.22 192.26 16.23 188.9 11.69 188.9 11.69 186.18 8.05 174.55 2.38 174.55 2.38 153.14 0 153.14 0 153.14 0 153.14 0"/><path class="cls-2" d="M122.44,31.29,125.22,93l4.47,4.77-.4-.3,3.8,3.1,7.36,24.57v0l11.08,139,.74.74.74-.74L148.13,134l0,.29-4.37-14,0,.08-.26-.6.12.27L127,29.38l-1.91-.79-2.69,2.7Zm5.85,32.31-.06.42.06-.42Zm11.05,58.92.07.16-.07-.16Zm14.37,135.11-.06.13.06-.13Z"/><path class="cls-3" d="M154.56,14.34,143.77,140.05l1.9,1.08.92-.71,2.17-25-.06.47,10.68-99.6-.83-2-2-.82-1.95.82Zm-6.13,103.51,0,.33,0-.33Z"/><polygon class="cls-4" points="176.84 42.82 174.52 48.95 180.48 119.26 180.4 118.58 179.99 130.9 146.29 186.41 147.42 188.4 185.63 127.15 180.5 44.92 178.72 42.58 176.84 42.82 176.84 42.82 176.84 42.82 176.84 42.82"/><path class="cls-5" d="M237.8,37.81,159.88,251.32h0l-2.46,3.22,0-.06L154.85,258l.17-.23-5.08,7.85.36,1.38,1.39-.36L242,38.92l-2.42-1.84-1.78.73Zm.81,23,0,.29,0-.29Zm-.05.35-.05.39.05-.39Zm-61.72,139.3-.08.18.08-.18Zm-6.49,28.18-.06.41.06-.41Zm-13.07,26.12.15-.19-.15.19Z"/><path class="cls-6" d="M219,52.5l-12.83,94.44,1,1.7,1.7-1,3.17-9.47,0,.13.15-.36,0,.06,0,0h0l11.64-82.74-1.3-3.2L221,51.68l-2,.82Zm-8.12,88.3-.07.17.07-.17Z"/><path class="cls-7" d="M260.67,49.67l-12.7,38L231.09,99.69l.22,1.72,1.34,1,16.45-9,14.38-40.91L263.16,50l-1.41-.58-1.08.26Zm-7.81,14.76-.05.39.05-.39Z"/><path class="cls-8" d="M266.75,87.47l-21.64,43.36,1.24,6.73-57.49,43.18-.2,1.53,2.44,1.38,60-44.62-.94-10.68L265,106.17l-.28.38,6.56-19.67-1.48-1.14-.64-.08-2.39,1.81Zm-2.84,10-.09.22.09-.22Zm-60.21,76.3-.5.39.41-.32h0l.1-.08Z"/><polygon class="cls-9" points="289.94 83.45 285.86 85.25 246.51 142 246.7 143.39 249.16 144.03 292.08 85.08 291.51 84.1 290.08 83.44 289.94 83.45 289.94 83.45 289.94 83.45 289.94 83.45"/><path class="cls-10" d="M316.15,177.17l-163.92,87-.6,2.3,2.29.6,74.38-43.64-.63.26,91.12-43.89-2.54-2.64Zm-21.52,12.65-.21.16.21-.16Zm3.38,4.53-.15.12.15-.12Zm-39,14.47-.19,0,.19,0Z"/><polygon class="cls-11" points="265.58 165.38 206.61 175.04 205.97 177.48 268.67 169.39 268.94 167.29 267.69 165.66 266.25 165.26 265.58 165.38 265.58 165.38 265.58 165.38 265.58 165.38"/><polygon class="cls-12" points="240.71 186.54 206 204 180.48 251.17 181.06 253.37 182.29 253.53 201.95 221.93 201.87 222.13 211.46 206.81 223.13 202.21 222.92 202.24 243.99 190.8 244.41 187.52 242.79 186.27 240.71 186.54 240.71 186.54 240.71 186.54 240.71 186.54"/><path class="cls-13" d="M298.59,171.26l-.23.1.29-.13-3.71,1.6.18-.08-6.92,3.09-28.52,34.33V213h2.78L302.19,174l-.25-1.89L300.48,171l-1.89.25Zm-19.86,18.4-.14.33.14-.33Z"/><path class="cls-14" d="M266.59,230l-36.2,9.86-17.26-8.74-7,1.21-1.19,2.09,2.1,1.2,5.34-1.15,17.34,9.6,38.89-9.29.82-2-.82-2-1.8-.83ZM238,238.23l-.29.12.29-.12Z"/><path class="cls-15" d="M151.27,260.91l-3.58,58.67.8,2,1.34.18,1-.8,3.39-60.41-1-.75-.41,0-1.6,1.19Zm-.39,49.24,0,.11,0-.11Z"/><path class="cls-16" d="M65.89,58.58,150.15,268.8l1.89,1.07,1.07-1.89-1.1-7v.07l-.06-.41v.06l-5.2-18.68.18.44-2.65-6.21h0l-39.91-86.44.26.35-13-64.42L69.36,58.29l.55.43-2.1-.93-1.92.79Zm73.55,166.76.07.16-.07-.16Z"/><path class="cls-17" d="M101.82,83.37l-1.24.72-.83,2L120,172.85l1.51.86.86-1.51-3.27-10.15h0l-.14-.34.1.24L104,83.65l-2.16-.28Zm3.29,20.35.09.72-.09-.72Zm11.74,52.94.09.2-.09-.2Zm2.28,5.39h0l0-.09,0,.09Z"/><path class="cls-18" d="M95.28,144.3,73.82,157.77l-8.47,28.57-9.2,5.23-3.23,0-2.12,1.61,1.54,2.7,7.34-.27,10.42-8.13L81,155.89l15.15-8.31,1.18-2.09-1.63-1.26-.45.07ZM81.36,155.63l-.15.11.15-.11Z"/><path class="cls-19" d="M67.57,90.47,66,91.71l5.29,23.46,17.36,5.65.87-1.12-1.31-2.31-12.27-3.3-5.3-22.38-2.33-1.34-.71.1Zm5.72,11.64,0,.18,0-.18Z"/><polygon class="cls-20" points="86.8 170.88 85.92 172.99 99.7 197.41 131.22 217.08 132.25 216.65 132.25 214.58 90.43 170.41 88.92 170 86.8 170.88 86.8 170.88 86.8 170.88 86.8 170.88"/><path class="cls-21" d="M19.07,111.32l-1.69,3L22,125.59l-.12-.28,17,78.29-.16-.37,8.71,11.83-.48-.37,6.08,6-.18-.23L75,237.39l65.11,6,2.82-1.6-1.6-2.82L77.76,230.8,41.33,192.65,26.7,123.39,27,124l-5.17-11.59-2.1-1.19-.62.08Zm100,125.48.28,0-.28,0Zm16.66,5.67.14,0-.14,0Z"/><path class="cls-22" d="M95.93,28l-.3.73,13.88,24.06,15.9,4.11,1.13-.64-.64-1.13L111.76,52,97.39,28l-.72-.3-.74.3Zm14.23,23,.09.07-.09-.07Z"/><polygon class="cls-23" points="141.31 10.44 137.93 19.74 148.72 40.19 149.83 40.34 150.69 39.67 141.32 21.51 143.17 10.44 142.25 10.06 141.31 10.44 141.31 10.44 141.31 10.44 141.31 10.44"/><path class="cls-24" d="M170.21,20.43,144.82,53.86v1.69h1.69l25.79-33v-2.1l-1-.43-1,.43Zm-10,21.78-.1.12.1-.12Z"/><path class="cls-25" d="M162.25,67l1.37,91.82,1,1,1-1-1.06-91.22-1.32-1-1,.39Zm4.14,23.73,0,.12,0-.12Z"/><polygon class="cls-26" points="193.67 62.53 182.76 109.91 183.16 111.42 184.68 111.03 196.08 62.85 195.47 62.06 194.81 61.89 193.67 62.53 193.67 62.53 193.67 62.53 193.67 62.53"/><polygon class="cls-27" points="183.59 20.99 185.29 50.53 178.12 66.98 178.96 68.46 180.43 67.62 188.88 42.38 184.81 20.83 183.59 20.99 183.59 20.99 183.59 20.99 183.59 20.99"/><path class="cls-28" d="M213.22,27.57l-1,43.19,1.38.78.78-1.38.91-42-1.21-.92-.88.36Zm2,22.84-.06.13.13-.3-.07.17Z"/><polygon class="cls-29" points="202.06 102.78 204.85 115.33 212.02 119.14 213.25 122.84 214.8 123.72 215.67 122.18 213.78 117.28 206.35 111.93 205.16 103.19 204 101.68 203.6 101.63 202.06 102.78 202.06 102.78 202.06 102.78 202.06 102.78"/><polygon class="cls-30" points="224.29 25.45 223 27.73 241.4 68.51 245.69 70.17 246.66 69.42 246.08 67.19 238.63 60.56 226.38 26.31 224.76 25.39 224.29 25.45 224.29 25.45 224.29 25.45 224.29 25.45"/><path class="cls-31" d="M251.13,28.9l-1.28,15.15-9.76,14.28-.18,1.38.82,1.06,1.37.18,2.26-2.37-.08.11.27-.36-.16.21,9.18-14.71-.22-14.35-1-.75-1.26.17Zm2.35,1.88,0,.16,0-.16Zm-9.11,27.78v0l0,0,0,0Z"/><polygon class="cls-32" points="259.2 72.96 251.71 81.32 251.53 82.76 252.38 83.88 253.83 84.07 263.39 75.03 273.31 79.37 276.28 78.71 277.37 77.87 277.55 76.47 275.31 75.2 273.25 75.55 263.84 71.16 259.2 72.96 259.2 72.96 259.2 72.96 259.2 72.96"/><polygon class="cls-33" points="238.94 111.78 232.53 131.62 232.78 131.29 223.68 159.51 224.76 161.43 226.68 160.34 235.71 132.68 235.45 133 242 111.78 240.47 110.25 238.94 111.78 238.94 111.78 238.94 111.78 238.94 111.78"/><polygon class="cls-34" points="256.85 91.8 253.55 98.02 254.71 116.43 255.74 116.86 256.78 116.43 259.18 91.8 258.01 91.31 256.85 91.8 256.85 91.8 256.85 91.8 256.85 91.8"/><path class="cls-35" d="M269.91,106.31l-8.66,15-6.63,3-6.61-.36-.8,1,1.22,2.14,11.19-1,5.89-4.09,6.86-13.8-.24-1.9-1.16-.46-1.06.46Zm-6.14,12.24-.15.19.15-.19Z"/><path class="cls-36" d="M293.35,105.22l-14.24,10.2.34,0h-4.52l-1.81,1.81,1.81,1.82,11.1-2.5,6.87-7.44,6.58,1.61,1.92-.77-.61-2.32-7.44-2.36Zm4.89,4.94.12,0-.12,0Z"/><path class="cls-37" d="M299.63,125.74l-35.41,5.5-2,2,2,2,8.69-1.63-.27.11,27.82-3.87,7.44,10.16,1.42.19,1.11-.85-.66-2.53-3.31-3.27.31.42-3.55-7.36-3.59-.92Zm.62,3.88.09.08-.09-.08Zm-27.68,4.18-.15.06.15-.06Z"/><path class="cls-38" d="M264,146.53l-30.64,27.35-1,2.82.72,1.28,34.17-30.09-.56-1.36-1.36-.56-1.36.56ZM247.67,162l-.24.1.24-.1Z"/><polygon class="cls-39" points="247.83 174.23 247.36 175.36 255.67 183.71 260.22 185.05 270.03 181.78 270.74 180.04 270.03 179.13 259.59 181.66 248.97 173.76 247.83 174.23 247.83 174.23 247.83 174.23 247.83 174.23"/><path class="cls-40" d="M273.78,150.14,264,161.71l0-.05-4,9.68.14,1.12.87.66,1.11-.14L276,152.37v-2.23l-1.11-.47-1.12.47Zm-1.9,1.52-.18.13.18-.13Zm-.26.19-.09.07.09-.07Z"/><polygon class="cls-41" points="273.27 164.22 262.18 170.21 261.49 172.85 262.64 173.75 275.32 168.06 283.74 168.69 285.69 167.47 285.99 165.14 283.36 164.45 282.23 164.97 273.27 164.22 273.27 164.22 273.27 164.22 273.27 164.22"/><polygon class="cls-42" points="305.57 162.39 294.98 176.4 295.5 178.39 297.49 177.87 307.84 163.33 307.45 162.39 306.54 162.01 305.57 162.39 305.57 162.39 305.57 162.39 305.57 162.39"/><polygon class="cls-43" points="276.86 179.3 272.83 199.53 273.97 200.67 275.11 199.53 279.18 180.28 278.6 178.84 277.96 178.68 276.86 179.3 276.86 179.3 276.86 179.3 276.86 179.3"/><path class="cls-44" d="M318,167.7l-14.88,17.44.64,2.45,2.45-.65,14.61-17.06-.28-2.18-1.24-.51-1.3.51Zm-6.89,10.84-.1.14.1-.14Z"/><polygon class="cls-45" points="312.08 182.41 310.9 183.33 310.7 184.85 320.97 193.6 324.75 194.15 328.57 192.49 329.37 190.52 327.22 189.29 324.14 190.26 322.9 190.09 312.64 182.34 312.08 182.41 312.08 182.41 312.08 182.41 312.08 182.41"/><polygon class="cls-46" points="320.83 199.54 306.06 206 283.96 202.26 278.01 206.4 277.24 208.25 278.01 210.1 281.71 210.1 284.42 207.61 305.39 211.29 321.42 203.85 323.03 201.73 320.87 199.54 320.83 199.54 320.83 199.54 320.83 199.54 320.83 199.54"/><polygon class="cls-47" points="214.53 206.9 207.95 208.91 207.18 209.91 207.35 211.21 208.35 211.99 214.29 210.31 226.72 215.1 237.23 211.58 237.85 209.22 235.49 208.6 228.66 211.69 214.53 206.9 214.53 206.9 214.53 206.9 214.53 206.9"/><path class="cls-48" d="M221.09,179.23,214.32,192l4.09,11.52-.08-.18.91,1.24,1.43.18,1.11-.85.18-1.43-3.5-10.39,5.43-10.72-.28-2.16-1.3-.52-1.22.52Zm-2.76,24.13-.11-.27.11.27Z"/><polygon class="cls-49" points="198.07 199.12 191.11 226.27 193.97 232.91 195.5 233.31 193.36 215.35 200.78 198.77 199.9 198.08 199.51 198.03 198.07 199.12 198.07 199.12 198.07 199.12 198.07 199.12"/><polygon class="cls-50" points="94.87 52.63 94.44 54.28 102.48 67.13 122.84 73.05 124.21 71.68 122.84 70.31 105.61 66.02 96.52 53.06 95.47 52.47 94.87 52.63 94.87 52.63 94.87 52.63 94.87 52.63"/><path class="cls-51" d="M77.65,37.45,76.08,59.24,86.36,74.53v0l.75,11.06,1.35.77L89.22,85,78.05,56.67l1.8-17.52-1-1.85-1.15.15Zm5.28,29.79.09.12-.09-.12Z"/><path class="cls-52" d="M112,92.65l-.49,1.18,5.7,23.75-5.56,24.08,1.17,1.16,1.16-1.16,6.65-25.95-5.84-22.32-1.61-1.23-1.18.49Zm2,9.61.15.37-.15-.37Z"/><polygon class="cls-53" points="127.19 114.49 126.04 116.52 127.18 140.53 136.08 154.5 145.97 157.61 147.2 156.37 146.84 155.49 138.75 153.38 129.51 134.71 129.06 115.25 127.62 114.43 127.19 114.49 127.19 114.49 127.19 114.49 127.19 114.49"/><polygon class="cls-54" points="132.76 173.03 145.25 208.72 155.09 212.05 156.23 211.41 155.58 210.27 144.18 205.31 134.88 172.15 134.01 171.79 132.76 173.03 132.76 173.03 132.76 173.03 132.76 173.03"/><polygon class="cls-55" points="101.36 168.22 100.76 169.01 100.89 170.02 107.69 176.06 123.25 178.57 124.52 177.3 123.25 176.03 105.02 170.74 102.95 168.43 102.03 168.05 101.36 168.22 101.36 168.22 101.36 168.22 101.36 168.22"/><polygon class="cls-56" points="58.99 135.68 58.16 136.32 58.02 137.39 63.35 145.41 87.35 149.46 88.6 148.2 87.35 146.95 62.98 141.02 60.06 135.82 58.99 135.68 58.99 135.68 58.99 135.68 58.99 135.68"/><path class="cls-57" d="M51.22,160.28l-.69.53-.11.89,10.45,14.84L76.12,176l.72-.71-.72-.72-7.13.62h.06l.15,0-.45.06h0l-5.15.09L51.52,160.24l-.3,0ZM68.7,175.23l-.12,0,.12,0Zm.07,0,.19,0-.19,0Z"/><polygon class="cls-58" points="69.09 183.65 68.37 184.93 72.66 200.74 72.62 200.45 71.43 208.91 72.28 210.4 73.2 210.28 75 202.22 70.38 184.37 69.37 183.61 69.09 183.65 69.09 183.65 69.09 183.65 69.09 183.65"/><path class="cls-59" d="M81.53,185.09l-.67.86,3.6,5.35,17.64,3.43,1.42-1.42-1.42-1.42-12.74-1.13-4.83-3.54.18.23-.23-.3,0,0-.34-.43.24.3-.9-1.45-1.26-.71-.72.19Zm3,2.1,0,0,0,0Z"/><polygon class="cls-60" points="90.26 155.75 83.52 168.88 85.63 173.99 86.78 174.14 87.67 173.45 87.83 172.3 86.41 168.16 92.31 156.61 91.8 155.34 91.24 155.19 90.26 155.75 90.26 155.75 90.26 155.75 90.26 155.75"/><path class="cls-61" d="M49.84,74.89l-.39.93,5.9,13.49L58.6,91.9l8.77-.18.94-1.65-1.66-.94L61.71,90l-4.4-3L52,75.47l-1.27-1-.93.39Zm3.94,5.76,0,.1,0-.1Z"/><polygon class="cls-62" points="60.91 73.59 60.51 74.55 60.91 75.5 68.78 81.07 69.43 82.58 66.8 95.91 67.46 96.41 68.8 95.64 71.89 81.63 70.82 79.35 61.86 73.2 60.91 73.59 60.91 73.59 60.91 73.59 60.91 73.59"/><polygon class="cls-63" points="66.16 47.08 62.55 56.75 64.96 62.19 65.78 62.83 66.84 62.69 67.34 60.8 65.33 57.01 68.41 48.39 67.94 46.61 67.3 46.44 66.16 47.08 66.16 47.08 66.16 47.08 66.16 47.08"/><path class="cls-64" d="M109.39,23.74l-.29,4.88,3.48,4.48,14.31,2.22.89-1.57-.59-.76-13.77-2.63L112,28.41l-.34-5-.74-.56-.32-.05-1.19.9Zm2.22,1.54,0,.29,0-.29Z"/><polygon class="cls-65" points="123.2 12.92 121.99 35.63 123.55 37.2 125.11 35.63 126.49 12.92 124.84 11.28 123.2 12.92 123.2 12.92 123.2 12.92 123.2 12.92"/><polygon class="cls-66" points="175.38 10.05 162.47 10.29 156.72 13.91 155.7 20.27 157.67 22.25 159.65 20.27 159.99 16.2 160.87 15.16 176.84 13.5 177.71 11.37 176.84 10.24 175.85 9.97 175.38 10.05 175.38 10.05 175.38 10.05 175.38 10.05"/><path class="cls-67" d="M134.2,67.54l-.55.73.94,10.53,1.79,1.5,17.91-6.6V72.25l-.73-.31L138,78.05l-.82-.27-.4-.58L136,68.59l-.89-1.17-.94.12Zm16.28,6.63-.07,0,.07,0ZM139.68,78l-.21,0,.21,0Z"/><polygon class="cls-68" points="164.7 55.62 165.47 62.73 173.93 71.09 180.98 72.67 182.29 71.36 180.98 70.05 178.68 69.93 178.7 69.93 174.14 68.03 168.13 60.47 167.4 54.5 166.28 54.04 164.7 55.62 164.7 55.62 164.7 55.62 164.7 55.62"/><path class="cls-69" d="M91.35,205.39l-1.1.84-.18,1.41,13.5,12.09,3.07,16.75,2,1.1.94-.73-2.36-17.4L91.83,205.32l-.48.07Zm13,15.74,0,.1,0-.1Z"/><path class="cls-70" d="M85.3,215.87l2,20.41.91.12.71-.55-2.78-20.09-.85.11Zm1.17,3.2,0,.19,0-.19Z"/><path class="cls-71" d="M41.66,107.8,37,120.72l3.47,20.21L34,155.69l.43,1.64L36,156.9l6.84-14.08-2.69-15.54,0,.38,3.94-18.39-.52-2-.72-.2-1.27.72Zm-1.31,35,0,.1,0-.1Z"/><polygon class="cls-72" points="30.03 100.6 24.22 118.9 27.48 123.01 29.62 123.01 29.62 120.87 27.24 118.35 32.05 100.33 31.39 99.83 31.11 99.79 30.03 100.6 30.03 100.6 30.03 100.6 30.03 100.6"/><polygon class="cls-73" points="80.25 236.66 79.79 237.25 78.78 244.93 78.82 244.66 76.77 251.35 71.57 254.21 71.45 255.11 72.9 255.94 78.01 253.38 81.6 237.02 81.01 236.56 80.25 236.66 80.25 236.66 80.25 236.66 80.25 236.66"/><path class="cls-74" d="M35.09,212.46l-.58.76L38,218.29l13.17.39,1.3-1.3-1.3-1.29-11.68,0-3.73-3.76-.64.17Zm5.14,3.82h0Z"/><path class="cls-75" d="M192.51,122.32l-41.33,88.35.44,1.67,1.67-.44,1.83-2.58-.19.25,8.72-18-.1.22.8-1.84-.14.32.57-1.3,0,0,.14-.32-.05.1,30.05-66.11-.9-1.18-.31,0-1.18.89Zm-34.93,75.32-.08.18.08-.18Z"/><polygon class="cls-76" points="203.7 128.55 185.79 154.16 186.12 155.42 187.37 155.09 205.3 129.78 205.14 128.55 204.4 128.25 203.7 128.55 203.7 128.55 203.7 128.55 203.7 128.55"/><path class="cls-77" d="M173,165.15l-7.74,14.25.05-.1-2.12,6.52.39.68.68-.39,9.88-20.81-.28-.38-.32-.08-.54.31Zm-7.75,14.29v0Z"/><polygon class="cls-78" points="200.13 120 200.03 134.08 200.9 134.57 201.39 133.7 201.12 120.41 200.54 119.83 200.13 120 200.13 120 200.13 120 200.13 120"/><path class="cls-79" d="M202.36,56l-.09.52,0-.13,7.52,25.07.37,0,.21-.29-5.22-9.55,0,0-.06-.12,0,0-1.9-15.41-.33-.44h-.12l-.44.33Zm2.79,15.54,0,0,0,0Z"/><path class="cls-80" d="M223.26,29.18,214.76,46l.22.86.86-.23,2.81-3.51,0,0,.23-.18,0,0,2.88-3.26,2.48-10.31-.33-.58-.13,0-.46.35ZM218.81,43l-.09.06.09-.06Z"/><polygon class="cls-81" points="239.31 20.16 231.07 36.19 231.15 36.74 231.57 37.07 232.12 37 240.29 20.91 240.23 20.4 239.63 20.07 239.31 20.16 239.31 20.16 239.31 20.16 239.31 20.16"/><path class="cls-82" d="M229.75,62.54,223.41,85l-11.76,8.38.23.87,13.38-9L231.31,63l-.57-1-.2,0-.79.59Zm-5.43,20.84,0,.07,0-.07Zm-7.52,7.19-.05,0,.05,0Z"/><path class="cls-83" d="M226.19,46.11l-.43.34.22,7.27-3,7,.08-.1-.11.15,0,0L218.4,67l.24.9.9-.24,7.71-12-.17-9-.7-.53-.19,0Zm-4.72,18.51-.08.1.08-.1ZM223,60.69v0Z"/><polygon class="cls-84" points="245.56 26.38 245.11 26.73 244.18 33.17 248.03 38.62 251.49 39.26 252.56 38.19 251.49 37.12 249.49 36.96 245.95 31.74 246.49 27.31 246.14 26.46 245.56 26.38 245.56 26.38 245.56 26.38 245.56 26.38"/><path class="cls-85" d="M264.59,28.58,250.7,45.1v1.25H252l13.53-16.61.12-.9-.67-.37-.35.11Zm-.51,2.68-.05.06.05-.06Z"/><path class="cls-86" d="M271.19,38.38,268.7,49l0-.13V49l0-.19-2.46,7.57.14-.17-3.72,3.69h0l-7.57,5.45.08.61.47.36.62-.08L265.23,60l7.33-21-.35-.84-.37-.1-.65.36Zm-3.56,15.55,0,.1,0-.1Z"/><polygon class="cls-87" points="292.09 73.81 286.95 76.59 269.46 76.51 267.63 78.57 267.54 79.25 267.95 79.77 268.63 79.86 271.09 77.61 283.27 79.16 292.93 75.25 293.23 74.11 292.51 73.7 292.09 73.81 292.09 73.81 292.09 73.81 292.09 73.81"/><polygon class="cls-88" points="270.59 79.82 253.63 89.67 253.63 90.86 254.22 91.11 271.81 80.76 271.73 80.12 271 79.71 270.59 79.82 270.59 79.82 270.59 79.82 270.59 79.82"/><polygon class="cls-89" points="248.67 54.48 248.32 54.93 241.9 92.77 242.47 93.76 243.46 93.2 249.8 55.13 249.25 54.41 248.67 54.48 248.67 54.48 248.67 54.48 248.67 54.48"/><polygon class="cls-90" points="246.64 99.13 220.7 133.04 221.11 133.77 221.84 133.35 233.18 114.21 233.16 114.24 247.71 100.2 247.71 99.13 247.18 98.91 246.64 99.13 246.64 99.13 246.64 99.13 246.64 99.13"/><polygon class="cls-91" points="230.31 86.46 220.13 102.02 221.66 113.7 222.37 114.1 222.77 113.39 221.54 103.72 221.54 103.73 221.49 102.03 230.08 89.97 230 90.15 231.15 87.3 230.84 86.53 230.31 86.46 230.31 86.46 230.31 86.46 230.31 86.46"/><path class="cls-92" d="M186.28,61.37l-.39.29.4,3.5V65l.36,14.13,0-.12,2.24,14.85,3.3.92.45-.45-.14-.32-2.76-.69-2.63-31.54-.64-.48-.16,0Zm3,31.42,0,.07,0-.07Zm-2.65-13.74v0Z"/><path class="cls-93" d="M156,60.13,160.12,75l18.12,10.07.61-.26.25-.6-.25-.6-16.59-9.18h0l-2.56-3-2.34-8.83v.12l-.15-2.56-.64-.64-.63.64Zm4.65,12.75,0,.05,0-.05Z"/><path class="cls-94" d="M174.63,31.71l-.85,1.63,0,0-.32.74.09-.22-4.42,16.7,1.6,5.57-1.35,8.54.46.81.81-.46,5.12-32.39-.55-1-.61.08Zm-.76,1.42-.05.13.05-.13Zm-2.7,10.71,0,.07,0-.07Zm-.54,14.62v0Z"/><path class="cls-95" d="M165.34,15.46l-4.5,15.83.93,4.25L159.05,44l.38.67.68-.38,2.3-14.4,0,.24,3.86-13.4-.3-1.16-.66-.09ZM162.4,27.17v0Zm0,2.82,0,.22,0-.22Zm-1.51,11.46,0,.07,0-.07Z"/><path class="cls-96" d="M180.94,12.69l-1.21,2.65,0,0-.1.22v0l-1.45,10.42,5.11,10.56.54.23.54-.23.23-.54-4.11-7,1.6-15.33-.56-1-.62.08Zm-1.28,2.81.07-.16-.07.16Zm.07-.17,0-.06,0,.06Zm0-.06.06-.15-.06.15Z"/><path class="cls-97" d="M139.62,15.67,137,45.93l9.2,1.56.42-.42-.12-.3-9.4-2.22,3.37-28.22-.4-.71-.45.05Zm-.43.77,0,.07,0-.07ZM136.35,33l0,.11,0-.11Zm0,9v0Zm2,3.56,0,0,0,0Z"/><polygon class="cls-98" points="151.41 5.66 151.11 5.89 142.33 31.07 142.62 31.59 143.13 31.29 152.02 6.28 151.79 5.71 151.41 5.66 151.41 5.66 151.41 5.66 151.41 5.66"/><polygon class="cls-99" points="173.31 0.76 161.56 13.52 161.56 14.39 162.43 14.39 172.62 3.73 172.61 3.75 174.28 1.73 174.28 0.76 173.81 0.56 173.31 0.76 173.31 0.76 173.31 0.76 173.31 0.76"/><path class="cls-100" d="M133.79,45.91l-.34.43L134.65,58l6.88,10-1.09,14.58.52.53.53-.53,2.22-11.27-7.38-13.69.09.2-1.54-11.34-.53-.71-.56.08Zm1.2,6.28,0,.19,0-.19Z"/><path class="cls-101" d="M162.86,55.86,159.17,78v0l0,.15v0l0,.31h0l-.35,10.78,0-.09-7.74,14.67v.77h.78l8.48-16.57,0,.19,3.51-31.47-.49-.86-.55.07Zm-2.48,13.82v0ZM159,77l0,.11,0-.11Zm.2,1.54v0Zm.07.55v0Z"/><path class="cls-102" d="M138.5,78.3l.67,10.34,5.1,8.44,4.4,2.49,1.16-.65-.1-.73-4.37-2.7L140.05,78.3l-.78-.78-.77.78Zm1.75,6.55,0,.24,0-.24Zm4.3,9.72,0,.05,0-.05Z"/><path class="cls-103" d="M102.37,47.2l3.29,14.17,3.24,3.19,5.41,1-.17,0L121.77,70l.75-.2-.19-.75-10-5,.12,0-3.9-1.32-1.25-1.3.11.14L103.5,47.05l-.37-.28-.16,0-.6.46Zm15,19.27,0,0,0,0Zm-5-2.38h0Z"/><path class="cls-104" d="M109,30l-.21.79,3.92,4.56,1.82,6.93L114,44.71l0-.09L110,55l.28.22.58-.33.75-3.24,0,.11,4.14-10.59-6-11-.39-.16L109,30Zm3.4,4.86,0,.06,0-.06ZM114.49,43v0Zm-2.71,8.29,0,.11,0-.11Zm0,.11,0,0,0,0Z"/><polygon class="cls-105" points="106.93 16.99 106.8 23.52 109.56 27.07 112.33 26.74 112.53 26.38 112.17 26.18 110.21 26.64 109.72 26.42 107.28 21.52 107.66 17.54 107.31 16.94 106.93 16.99 106.93 16.99 106.93 16.99 106.93 16.99"/><path class="cls-106" d="M82.46,29l-.3.38,4.91,5.78,10.11-1.36.33-.25,0-.43-.25-.33L88,34l-5.17-5.18-.32.09Zm1.94,1.86.07.08-.07-.08Z"/><path class="cls-107" d="M101.55,11.13l-.57.44L99.07,34.21l.56.31,3.11-22.72-.93-.7-.26,0ZM101,16.87v0Z"/><path class="cls-108" d="M76.8,27.8l-4.12,10,.93,1.84,6.75,1.81,1-.59-.08-.64-6.41-2-.34-1,3.85-8.43-.33-1.28-.46-.13-.82.47Zm-2.27,8.6v0Z"/><polygon class="cls-109" points="89.22 34.73 88.87 35.19 88.13 40.12 88.16 39.88 87.8 42.48 87.84 42.24 88.42 54.91 90.26 56.72 93.55 57.88 100.11 55.69 100.29 54.98 99.59 54.8 96.62 56.36 92.47 56.1 89.78 53.71 90.38 35.39 89.81 34.65 89.22 34.73 89.22 34.73 89.22 34.73 89.22 34.73"/><polygon class="cls-110" points="97.12 38.95 95.19 57.02 95.78 57.61 96.38 57.02 99 38.95 98.73 38.28 98.06 38.01 97.12 38.95 97.12 38.95 97.12 38.95 97.12 38.95"/><path class="cls-111" d="M119.1,7.62l-.65,1.14,6.64,7.4,1.11.16.38-.16.16-.38-.16-.38-.36-.16h0l-1.76-.52-4.67-7-.71-.1Zm7,7.61h0Zm0,0h0Z"/><path class="cls-112" d="M95.36,56.15l-.56.43,4.57,16.07,13.54,8.94,1.54,5.93-2.18,6.91.61,3.86.67.38.37-.67-.64-2.93,2.56-11.18L100,69.3,96.53,56.81l-.92-.7-.25,0Zm19.08,31.41,0,.15,0-.15Zm-.87,6.54,0,.1,0-.1Z"/><polygon class="cls-113" points="90.74 60.98 90.15 61.44 96.55 77.75 98.29 79.14 98.18 79.06 100.62 82.15 101.86 90.07 102.27 90.24 102.85 89.66 91.95 61.67 91 60.95 90.74 60.98 90.74 60.98 90.74 60.98 90.74 60.98"/><path class="cls-114" d="M58.71,57.72l-.37.49,3.41,18.34.83.47.47-.82L59.81,58l-.69-.39-.41.1Zm.91,3.61.05.12-.05-.12Zm.86,3.2,0,.13,0-.13Z"/><path class="cls-115" d="M53.74,63.35,49.36,78l.18.42.42.17.42-.17,4.68-15.26-.43-.34-.19,0-.7.53Zm-2.56,9.27,0,.08,0-.08ZM51,75.73l0,.08,0-.08Zm-.36,1.54v0Z"/><path class="cls-116" d="M77,77.44l-.4.52,6.55,22.46,8,7.21,1-.27-.27-1-6.66-5.18-7-23.37-.76-.44-.44.12Zm9.8,25.68,0,0,0,0Z"/><path class="cls-117" d="M82.29,118.44,78,126.13l.11-.15-4.89,6-1.26.59L65.63,129l-.63.08-.3,1.12,6.82,4.15,3.19-1.4,8.49-14-.19-.72-.26-.07-.46.26Zm-6.07,12.48-.07.09.07-.09Zm-1.8-.46.07-.09-.07.09Zm.07-.09.06-.08-.06.08Z"/><path class="cls-118" d="M83.39,126l-2.52,10.71,1.2,3.81,1.08,1.07,1.43.47,8.47-4.39.3-1.14-1.14-.3-7.32,3.92-.43,0-.68-.57,1.34-13.3-.64-.85-.22,0-.87.64Zm-.17,12.45,0,.08,0-.08Z"/><path class="cls-119" d="M47.81,139.56l-.27.66L58.77,158l4.33,0,10.79-8.39-.06-.53-.93-.24-12.33,7.41L48.48,139.28l-.67.28ZM68.4,152.41l-.08.06.08-.06Zm-5.27,3.29-.16.06.16-.06Z"/><path class="cls-120" d="M47.69,104.94l.12,16.59v0l-1.28,4.62L42,131.29l-.19,2.25.61.61.61-.61.24-2.23,5.19-7.3-.55-12.9,0,.17.81-5.89-.27-.66-.3-.08-.5.29Zm.89,8.64,0,.09,0-.09Zm-.53,6.15v0Zm-.22,1.65v0Z"/><path class="cls-121" d="M39.82,95.67l-5.36,15.14.58,5.61,1.21,1.51,1,.15L40.16,114l-.13-.5-.5.13-2.44,3.57H37l-.28-.13-1.23-3L41,96l-.44-.78-.16,0-.62.47Zm-3.36,12.45,0,.08,0-.08Z"/><path class="cls-122" d="M45,97.83l-4.28,10.62.36,1.39,1.39-.37,4.37-11.39-.13-.47-.56-.43-.24,0-.91.68Zm-1.94,5.93-.06.13.06-.13Z"/><path class="cls-123" d="M9.21,104.23l.44,9.65,1.22,1.22,11.45-.33.24-.57-.24-.58-10.52-.48-1.07-8.28L9.84,104l-.63.26Zm3.37,9.22h0Z"/><polygon class="cls-124" points="16.12 124.98 9.8 126.94 9.04 126.25 7.54 126.06 7.09 127.76 8.4 129.13 10.15 129.47 15.64 127.34 21.63 128.29 26.24 143.76 28.75 145.66 33.69 144.57 34.62 142.93 32.98 142 29.15 143.03 23.74 127.48 16.12 124.98 16.12 124.98 16.12 124.98 16.12 124.98"/><path class="cls-125" d="M23,153.11l-.27.66L24,159l3.87,2.51,4.64-.25,3.82-2.88v-1.18H35.16l-2.88,2.22-4.21,0-2.42-1.68-1.09-4.12-.9-.69-.66.27Zm3.54,5.37.07.06-.07-.06Z"/><path class="cls-126" d="M24.19,162.7l-.61.47.37,1.41,3.65,2.56,1.79,13.93,3.23.05L37.94,178l.33-1.24L37,176.39l-5.45,2.9-.85,0-.61-11.73-5.66-4.85-.26,0Zm6.31,16.47,0,0,0,0Z"/><polygon class="cls-127" points="36.77 188.15 28.19 200.41 27.91 202.84 28.58 203.36 29.97 202.57 38.16 188.73 37.92 188.15 37.31 187.91 36.77 188.15 36.77 188.15 36.77 188.15 36.77 188.15"/><polygon class="cls-128" points="44.13 156.66 41.83 175.27 44.27 182.53 44.18 182.32 44.85 192.29 44.88 192.09 44.59 194.38 44.6 194.3 44.01 199.28 44.03 199.11 43.8 204.4 44.43 205.03 45.06 204.4 45.87 156.43 45.3 155.99 45.06 155.96 44.13 156.66 44.13 156.66 44.13 156.66 44.13 156.66"/><polygon class="cls-129" points="44.72 144.14 44.26 144.73 51.06 161.85 52.24 162.09 53.84 161.68 54.37 160.74 53.43 160.2 51.92 160.54 51.74 160.44 45.93 144.29 45.24 144 44.72 144.14 44.72 144.14 44.72 144.14 44.72 144.14"/><polygon class="cls-130" points="34.47 123.55 33.4 138.57 34.11 139.27 34.81 138.57 36.14 123.55 35.3 122.71 34.47 123.55 34.47 123.55 34.47 123.55 34.47 123.55"/><polygon class="cls-131" points="97.38 153.05 96.89 153.43 96.41 174.34 96.44 174.1 94.98 180.48 95.63 181.62 96.77 180.97 98.38 153.62 97.59 153.02 97.38 153.05 97.38 153.05 97.38 153.05 97.38 153.05"/><path class="cls-132" d="M91.62,159.62l-1.91,11.29.65,1.14.71-.1,2.05-6.24,0,.25.3-6.1-.66-.87-.23,0-.88.66ZM91.17,166l0,.21,0-.21Z"/><path class="cls-133" d="M80.26,192l1.11,7.13,6.82,2.55,4.7,6.59.9.24.3-.4-2.42-5.18-4.19-3.16-2.91-.56-1.77-1.39-1.06-6-.49-.37-.2,0-.79.59Zm3.14,6.45.08.06-.08-.06Zm4.87,3.26.06,0-.06,0Z"/><path class="cls-134" d="M79.93,204.55l-1.46,6.94L82,219.81l4.07,2.42.51-.07.31-.39-.07-.52-4.33-2.94-2.57-7.15,1.38-6.24-.49-.87-.18,0-.69.52Zm4,15.25,0,0,0,0Zm1.83.9.13.05-.13-.05Z"/><path class="cls-135" d="M57.86,200.72l-.51.9,5,8.3,5.79,3.54,1.93-.28,4.34-5-.27-.64-.64-.26-.65.26-3.58,4-.89.13-6.73-5.18.05.06-.13-.17.07.08-3.22-5.69-.56-.08Zm3.79,5.79h0v0Z"/><polygon class="cls-136" points="49.11 170.6 48.74 171.07 51.52 177.39 51.48 177.29 51.63 177.64 51.53 177.42 51.91 193.34 52.5 193.59 53.09 193.34 52.49 175.17 50.2 170.88 49.5 170.49 49.11 170.6 49.11 170.6 49.11 170.6 49.11 170.6"/><path class="cls-137" d="M63.78,193.32l-.2.47.91,8.22-.63,1.07v1l.49.2.48-.2.79-.95-.89-9.77-.48-.2-.47.2Zm1.92,5.79v0l0-.19,0,.16Z"/><path class="cls-138" d="M56.46,193l5.66,22.87-.13-.16,8.76,17.93.46.19.66-.65-14-40.76-.58-.24-.82.82ZM69,226.62l0,.12,0-.12Z"/><path class="cls-139" d="M49,223.71l-.3.39,7.56,8.14,2.33.58,3.15-.68,4-4.26-.14-.53-.52.14-4,3.81.13-.05-3.54.11-8.37-7.73-.33.08Zm15.25,5,0,.05,0-.05Z"/><path class="cls-140" d="M66.11,237.45,63.74,239l-.92,2.17.45.58,1.33-.35,1.29-1.66.66-.27,12.57,7.84,2.68-.88.43-.56-.09-.74-.57-.44-2.76.7-11.65-8-1,0Zm4.22,3.5.06.05-.06-.05Z"/><polygon class="cls-141" points="72.08 210.55 71.53 211.54 76.71 229.86 77.12 230.17 77.65 230.1 77.97 229.69 73.08 211.12 72.29 210.53 72.08 210.55 72.08 210.55 72.08 210.55 72.08 210.55"/><path class="cls-142" d="M84.68,212.23l-.37,1.42L95,234.45l1.29.74L97,233.9l-4.91-15.33-6.57-6.45-.81.11Zm9.2,15.89,0,.23,0-.23Z"/><path class="cls-143" d="M95.45,198l1.77,7.2,8.19,8.24h0l1.25,7.2,0-.22-1.25,4.23.39.5,1.14-.3.45-11.18L96.22,197.21l-.77.76Zm10.73,24.53,0,.09,0-.09Z"/><path class="cls-144" d="M102.38,173.59l6.68,27.88,1,.58.58-1-6.51-27.43-.89-.9-.89.9Zm2.17,5.31v0Zm1,11,.08.19-.08-.19Z"/><path class="cls-145" d="M81.16,173.78l-.36.47,6.68,10,8.42,3.87.47-.27-.27-.47-6.72-3.26h0l-2.86-2.83.12.15-4.4-7.37-.69-.38-.39.1Zm11.4,12.28,0,0,0,0Z"/><path class="cls-146" d="M60.69,159.15l-.53.4.1,1.52,1.31,2.36,11.55,1.85.33-.43-.07-.55L73,164l-8.8-.84-1.31-1.08-1.05-2.28-.86-.66-.24,0Zm4.86,4.35h0Z"/><polygon class="cls-147" points="101.66 89.03 96.44 129.86 96.47 129.56 94.29 139.74 94.97 140.93 96.16 140.25 103.32 89.72 102.35 88.75 101.66 89.03 101.66 89.03 101.66 89.03 101.66 89.03"/><path class="cls-148" d="M122,134.81,118.67,148l6,14.73-2.61,9v0L121,174.77l.5.9.9-.51,3.95-11.06-5.57-17.91,3-11.14-.46-.6-.51-.13-.86.49Zm0,37.09.05-.1-.05.1Zm.05-.1,0-.06,0,.06Z"/><polygon class="cls-149" points="137.38 119.26 131.45 142.43 131.87 143.18 132.62 142.75 136.88 128.92 136.85 129.13 138.72 119.63 138.23 118.78 138.05 118.75 137.38 119.26 137.38 119.26 137.38 119.26 137.38 119.26"/><path class="cls-150" d="M138.5,145.51,137.22,202l.34.45.59.07.45-.34,4.14-11.91-4.06-36.75,0,.28,1.54-7.83-.61-1.07-.23,0-.84.63Zm.09,18.81v0Z"/><path class="cls-151" d="M129.84,170.67l-1.33,14.66,3.22,7.93,5.32,3.19,1.13-.64-.65-1.13-4.67-3-1.53-21.25-.48-.38-.21,0-.8.59Zm3.08,21.13.05.06-.05-.06Z"/><polygon class="cls-152" points="111.36 176.42 110.84 176.82 117.04 191.81 119.73 193.48 121.08 193.13 111.58 176.39 111.36 176.42 111.36 176.42 111.36 176.42 111.36 176.42"/><path class="cls-153" d="M139.12,189.76l1.49,27.15-3.46,6.61v1.31h1.32l3.6-5.39-.44-14.27v.05l0-.28,0,.17-.7-15.35-.9-.9-.9.9Zm3.3,20.78,0,.09,0-.09Zm-3.79,11.53,0,.06,0-.06Zm3-16.92v0Z"/><path class="cls-154" d="M116,202.74l-.48.37,10.31,22.57,5.17,2.1,5.49-1,.23-.89-.38-.3-5.71.74-7.48-6,.1.13-6.34-17.33-.71-.39-.2,0Zm14.44,23.57.18,0-.18,0Z"/><path class="cls-155" d="M116.06,209.18l4.62,32.39.8.81.8-.81L122,235v.05l0-.18v0l0-.11v0l0-.13v0l0-.32v.09l0-.22h0l-3.79-16.9h0l-.82-8.72-.52-.22-.74.73ZM122,234.8v0Z"/><polygon class="cls-156" points="150.97 126.93 156.26 171.16 157.21 171.56 158.56 170.21 152.76 126.69 151.88 126.02 150.97 126.93 150.97 126.93 150.97 126.93 150.97 126.93"/><path class="cls-157" d="M179.76,100.78l-2.56,8.91-13.14,14.18-.43,4,.69.53.91-.12,15.26-20.51.69-6.16-.69-.91-.73.09Zm-4.41,10.74-.14.1.14-.1Z"/><polygon class="cls-158" points="153.85 103.43 156.4 114.41 157.99 115.53 163.17 116.05 163.98 115.24 163.17 114.42 158.15 113.75 155.13 102.9 154.6 102.69 153.85 103.43 153.85 103.43 153.85 103.43 153.85 103.43"/><polygon class="cls-159" points="175.83 76.62 166.19 101.09 166.76 102.09 167.76 101.52 177.48 77.07 176.88 76.02 176.66 75.99 175.83 76.62 175.83 76.62 175.83 76.62 175.83 76.62"/><polygon class="cls-160" points="206.94 87.57 192.54 101.49 192.66 102.46 193.41 103.03 194.38 102.91 208.51 88.22 208.24 87.57 207.59 87.3 206.94 87.57 206.94 87.57 206.94 87.57 206.94 87.57"/><path class="cls-161" d="M209.45,101.85,202.33,108l-6.28,1.56-12.3,23.56.39.68.68-.38,10.26-20.85,9.21-3.11,6.46-6.59-.13-1-.58-.25-.59.25Zm-11.37,8.66-.09,0,.09,0Z"/><polygon class="cls-162" points="188.15 133.91 181.97 167.57 182.81 168.41 183.66 167.57 189.12 133.66 188.76 133.56 188.15 133.91 188.15 133.91 188.15 133.91 188.15 133.91"/><path class="cls-163" d="M180.08,161l-.45.6L174.11,189l-5.3,5.35,0,0,4.08,28,.95.26.25-1-4.59-24.49,7.69-9.91,3.19-16.46v.06l.46-3.43v.07l0-.27v0l.56-5.83-.6-.46-.77.1Zm-10.54,36.08,0,.12,0-.12Zm-.85-2.57.12-.16-.12.16Zm11.7-23.62,0-.1,0,.1Zm.5-3.65,0,.12,0-.17v.05Z"/><polygon class="cls-164" points="204.45 131.96 196.22 163.46 196.59 164.33 197.46 164.69 198.33 164.33 206.09 132.41 205.5 131.37 205.27 131.33 204.45 131.96 204.45 131.96 204.45 131.96 204.45 131.96"/><path class="cls-165" d="M225.26,72.64,209.51,85l-.45,1.75,1.74.46,14.27-10.62-.19.25.37-.49h0l1.93-2.89-.33-.79-.82-.33-.77.33Zm0,3.65,0,0,.16-.2-.14.18Z"/><path class="cls-166" d="M227,127.42l-12.31,45.24.72.41.42-.73-.55-4.14v0l5.32-18.93,0,.08.1-.23,0,.09,7.8-22-.46-.35-.2,0-.75.57Zm-6.4,21.85v0l0-.06v0Z"/><polygon class="cls-167" points="231.78 104.29 232.47 119.13 237.39 126.13 239 126.13 233.37 104.95 232.44 104.02 231.78 104.29 231.78 104.29 231.78 104.29 231.78 104.29"/><path class="cls-168" d="M285.44,78.25l-11.83,7.4-2.79,4.72.07-.18-1.05,2.55.1.73.57.43.73-.09,1.3-2.65v0l4.27-5.06,6.35-2.23,3.49-4.07-.38-1.47-.82-.1ZM270.79,90.42l0,0,0,0Z"/><path class="cls-169" d="M296.42,74.65l-6.2,9.9,0,0L289.34,86l.26.63.64.27.64-.27,6.87-10.94-.13-1-.6-.25-.6.25Zm-6.05,9.72-.1.12.1-.12Z"/><polygon class="cls-170" points="300.53 108.77 299.94 109.53 299.54 112.78 302.46 118.3 306.27 120.71 313.1 119.54 313.63 118.26 312.23 117.46 305.88 117.94 302.08 112.62 302.27 109.22 301.51 108.64 300.53 108.77 300.53 108.77 300.53 108.77 300.53 108.77"/><path class="cls-171" d="M313.13,139.46l-5.74.51-1.11,1.11,1.11,1.1,15.19,1.92.51-1.26-.51-.66-9.45-2.72Zm-2.41.27-.23,0,.23,0Z"/><path class="cls-172" d="M263.4,141.45l-10.31,9.92-14.23-.92.4.06h-2l-.71.92.16,1.19.92.7,19-.07,9.05-10.09.2-.71-.42-1-1-.41-1,.41ZM246.65,153.8l.13,0-.13,0Z"/><path class="cls-173" d="M295.55,115.34l-9,4.52-6.16,10.3.6,1.05,1.05-.6,1.81-5.49,12.95-8.5v-1.28l-.63-.26-.66.26Zm-12.21,10.83-.06.14.06-.14Z"/><polygon class="cls-174" points="296.24 91.98 290.38 96.73 287.94 109.78 289.11 110.96 289.95 110.62 292.38 97.99 297.78 93.53 297.78 91.98 297.01 91.66 296.24 91.98 296.24 91.98 296.24 91.98 296.24 91.98"/><path class="cls-175" d="M235.59,152.19v5.2l1.41,2.39,2,.77,10.54-5.69.18-1.41-.7-.54L239,158l-.35-.14-1.16-3.52.4-1.54-.82-1.44-.31,0-1.14.86Zm6.07,5.08-.3.12.3-.12Zm-2.91.71,0,0h0l0,0Zm0,0Z"/><polygon class="cls-176" points="215.78 173.4 215.29 175.27 217.93 179.29 220.98 180.95 230.6 178.29 242.17 186.14 244.37 186.14 246.25 185.25 246.85 184.47 246.72 183.47 244.94 183 243.95 183.41 242.15 183.18 231.85 175.6 221.59 178.31 219.32 176.73 219.53 177.01 217.65 173.89 216.47 173.22 215.78 173.4 215.78 173.4 215.78 173.4 215.78 173.4"/><polygon class="cls-177" points="196.63 181.49 196.63 183.78 211.8 194.93 212.42 194.13 212.28 193.08 197.78 181.02 196.63 181.49 196.63 181.49 196.63 181.49 196.63 181.49"/><polygon class="cls-178" points="259.62 170.34 261 173.92 270.74 180.71 285.6 178.29 287.07 177.27 287.24 175.93 285.73 175.53 273.07 178.88 262.15 171.74 261.6 169.52 260.78 169.18 259.62 170.34 259.62 170.34 259.62 170.34 259.62 170.34"/><path class="cls-179" d="M299.39,162.36l-2.89,1.55.2-.09h-8.29l-4.7,2.38v1.59l.79.33,3.53-1.9,10.27-.49,2.44-1.62.29-.49-.11-.87-1-.55-.54.15Zm-7.67,1.71.11,0-.11,0Z"/><path class="cls-180" d="M266.26,188.81l-11.63,8.29-14.28-1.63.36.05-1.94-.26.12,0-2.68-.36.12,0-.34-.05h.07l-4.77-.37-.57.75.12,1,.75.58,23,3.55,13.85-9.87-.22-1.7-1-.42-1,.42Zm-33.11,5.72.09,0-.09,0Zm18.11,2.5.2,0-.2,0Zm-15.13-2.12h.08l-.15,0Z"/><polygon class="cls-181" points="270.34 181.22 264.4 186.01 242.68 188.53 242.09 189.3 242.22 190.29 242.99 190.89 250.02 188.81 250.02 188.81 262.92 189.6 272.35 182.77 272.15 181.22 271.25 180.84 270.34 181.22 270.34 181.22 270.34 181.22 270.34 181.22"/><path class="cls-182" d="M224.53,201.33,225,203l11,4.76,10.6-1.25,2.16-1.76-.13-1-12.92,1.42-10.14-4.37-1,.59Zm20.55,2.83-.11,0,.11,0Zm-9.65.91.1,0-.1,0Z"/><path class="cls-183" d="M224.42,212.13l-5.93,4.61-10.65.44-8.9,6.36v2.15l1.07.44,9.58-6.23,11.81-1,5.11-4.69v-2.09l-1-.43-1.05.43Zm-16.06,8.19-.1,0,.1,0Z"/><path class="cls-184" d="M249.22,211.34l-.81,2.72,7.71,6.37L280,219l.56-1.36-.56-.72-17.6,1.26.37,0-9.25-1.67-2.9-2.2-.15-.34.6-2.36-.45-.59-.51-.13-.85.48Zm2.05,3.61.1.07-.1-.07Zm6.72,3.28.15,0-.15,0Z"/><path class="cls-185" d="M230.3,218.47l.46,1.75,16,8.51,19.42-1.93.22-1.67-18.56.91-16.41-8.2-1.11.63Zm31.41,7-.11,0,.11,0Z"/><path class="cls-186" d="M295.65,215.83l-2.21,3-14.57,2.12-7.3,6.69.27-.21-7.72,4.1-.87,1.53,1.53.87,17.39-11.46,12.9-1.1,3-4.09.15-1.09-.66-.85-.7-.19-1.24.7Zm-1.19,1.82-.08.11.08-.11Z"/><path class="cls-187" d="M276.6,235.83l-19.69,10L247,240.18l-.7.09-.42.54.09.7,10,6,21.73-10.78-.07-.59-.68-.38-.37.11Zm-28,6.92.16.07-.16-.07Zm9.73,2.82-.07,0,.07,0Z"/><polygon class="cls-188" points="228.47 243.87 228.47 245.44 243.31 254.28 243.13 254.26 245.77 254.84 246.89 254.38 246.99 253.61 229.25 243.55 228.47 243.87 228.47 243.87 228.47 243.87 228.47 243.87"/><path class="cls-189" d="M215.86,234l-.29.69L219,250.4l5.95,6.28,1.52.46.58-.44-.35-1.32-5.62-5.23L217.24,234l-.69-.28-.69.28Zm9.54,20.56.08.07-.08-.07Z"/><path class="cls-190" d="M330.5,179.37l-12.9,23,.14,1.1.85.66,1.1-.15,12.05-23-.4-1.49-.84-.11Zm-10.16,23.72.08-.18-.08.19Z"/><path class="cls-191" d="M315.28,188.77l-12.12,17.64.41,1.57,1.57-.41,12-17.72-.38-1.46-.53-.14-.93.52Zm-4.37,7.88-.05.07.05-.07Z"/><polygon class="cls-192" points="304.65 167.53 296.43 189.94 297.46 190.98 298.5 189.94 306.25 167.74 305.85 167.21 305.4 167.1 304.65 167.53 304.65 167.53 304.65 167.53 304.65 167.53"/><path class="cls-193" d="M322.6,157.68,317,162.22l-3.33,11.61.62,1.08,1.08-.62,4-11.79,1.77-1.65-.22.17,2.69-1.7.34-1.3-.57-.44-.74.1Zm-2,3.57-.08.07.08-.07Z"/><polygon class="cls-194" points="332.04 174.33 318.25 182.05 316.81 181.26 315.53 181.6 315.86 182.88 317.7 183.85 333.54 175.84 333.86 175.09 333.54 174.33 332.79 174.02 332.04 174.33 332.04 174.33 332.04 174.33 332.04 174.33"/><polygon class="cls-195" points="173.09 257.47 171.49 258.3 171.08 259.85 172.63 260.26 175.18 259.17 191.4 270.05 199.42 270.76 205.69 267.87 206.09 266.32 204.54 265.91 196.7 268.49 177.65 257.19 173.09 257.47 173.09 257.47 173.09 257.47 173.09 257.47"/><path class="cls-196" d="M211.42,251.19l-22.6,16.21.29,1.11.62.09,23-16.44-.12-1L212,251l-.54.24Zm-19.08,14.62-.1.08.1-.08Z"/><polygon class="cls-197" points="186.79 200.03 183.49 241.83 184.97 243.24 186.68 243.7 188 242.95 187.25 241.63 185.72 241.21 189.08 200.34 188.22 199.22 187.93 199.18 186.79 200.03 186.79 200.03 186.79 200.03 186.79 200.03"/><polygon class="cls-198" points="200.64 187.2 180.3 198.63 180.2 199.38 180.65 199.96 181.4 200.06 199.79 190.84 202.15 187.82 201.89 187.2 201.26 186.95 200.64 187.2 200.64 187.2 200.64 187.2 200.64 187.2"/><polygon class="cls-199" points="166.79 206.21 166.1 206.74 163.75 228.94 169.03 237.48 170.21 238 171.08 237.88 171.6 237.21 171.48 236.34 170.78 235.81 170.91 235.86 169.36 234.9 166.93 230.17 166.98 230.28 168.2 207.01 167.08 206.17 166.79 206.21 166.79 206.21 166.79 206.21 166.79 206.21"/><polygon class="cls-200" points="147.38 217.8 149.35 231.84 159.63 235.14 160.25 234.52 159.63 233.91 151.06 230.86 149.87 229.35 148.81 218.39 147.97 217.56 147.38 217.8 147.38 217.8 147.38 217.8 147.38 217.8"/><polygon class="cls-201" points="127.48 239.66 116.24 255.88 107.28 257.52 102.96 256.07 100.93 252.93 99.56 252.14 98.89 252.66 99.75 256.26 101.25 258.1 111.94 260.04 118.88 256.94 128.81 240.98 128.81 239.66 128.15 239.39 127.48 239.66 127.48 239.66 127.48 239.66 127.48 239.66"/><path class="cls-202" d="M103.22,238.72,89.8,255.57l.17,1.3.76.31,13.61-17.34v-1.12l-.56-.22-.56.22Zm-.23,2.53-.07.09.07-.09Zm-6.11,7.07-.06.08.06-.08Z"/><polygon class="cls-203" points="88.72 247.05 89.15 247.81 100.66 249.18 101.12 248.72 100.66 248.26 89.33 246.61 88.72 247.05 88.72 247.05 88.72 247.05 88.72 247.05"/><path class="cls-204" d="M105,242.75l.24.91,4.4,3.34,1.59,10,0-.24.46,3.36.41.53.7.1.53-.42-.31-3.61v.1l-1.39-9.66-6-4.69-.58.32Zm5.23,5.25,0,.11,0-.11Zm2.78,8.85v0Z"/><path class="cls-205" d="M104.78,258.89,95.52,267l-1.1.14-6.89-3.38-1,.28.27,1.05L95,268.69l9.63-8.55,1.92.35.76-.43-.43-.76-2.06-.41Zm-.25,1.26h0Zm-2.44,2.14,0,0,0,0Z"/><path class="cls-206" d="M80.57,246.13l.41,5.59,1.76,2.68,9.91,4.19.91,0,2.83-1.81.09-.35-.35-.1-2.94,1.64-9.76-5.71-1.12-6.08-.87-.87-.87.87ZM93.2,257.92h0Z"/><path class="cls-207" d="M128.9,242l.95,12,9.07,4.16-.21-.08,0,0h0l.22.09-.1,0h0l13.33,14.33h.84v-.84l-5.81-9.44-15.31-8.64-1-1.4-.83-9.7-.71-.7-.49.21Zm3.59,11.94.06,0-.06,0Zm10.87,6.84.06.05-.06-.05Zm-4.48-2.6-.12-.05.12.05Z"/><path class="cls-208" d="M119.78,249.07l-.41.32-.07.54,10.22,11.8L132.39,274l.58.33.33-.58-2.37-12.18-11-12.51-.18,0Zm11.43,17.16v0Zm1.45,5v0Z"/><path class="cls-209" d="M137.77,267.86,134.86,269l-2.61,4.6.07.57.45.35.58-.08,1.64-3.32,2.55-1.78,15.31,8.49-.13-.17,1.55,1.89,1,.12.37-.47-.08-.62-1.71-2.22.13.18-15-8.68-1.19,0ZM134.12,273l0,0,0,0Zm20.35,4.3,0,0,0,0Z"/><path class="cls-210" d="M177.88,262.76l-17.67,8.56-6.6,12.23.25,1,1-.26,7-12.42,17.11-8v-1.12l-.55-.23-.57.23Zm-10.51,5.64-.22,0,.22,0Z"/></svg>