<svg id="Layer_1" data-name="Layer 1" xmlns="http://www.w3.org/2000/svg" xmlns:xlink="http://www.w3.org/1999/xlink" viewBox="0 0 323.94 184.66"><defs><style>.cls-1{fill:url(#radial-gradient);}.cls-2{fill:url(#radial-gradient-2);}.cls-3{fill:url(#radial-gradient-3);}.cls-4{fill:url(#radial-gradient-4);}.cls-5{fill:url(#radial-gradient-5);}.cls-6{fill:url(#radial-gradient-6);}.cls-7{fill:url(#radial-gradient-7);}.cls-8{fill:url(#radial-gradient-8);}.cls-9{fill:url(#radial-gradient-9);}.cls-10{fill:url(#radial-gradient-10);}.cls-11{fill:url(#radial-gradient-11);}.cls-12{fill:url(#radial-gradient-12);}.cls-13{fill:url(#radial-gradient-13);}.cls-14{fill:url(#radial-gradient-14);}.cls-15{fill:url(#radial-gradient-15);}.cls-16{fill:url(#radial-gradient-16);}.cls-17{fill:url(#radial-gradient-17);}.cls-18{fill:url(#radial-gradient-18);}.cls-19{fill:url(#radial-gradient-19);}</style><radialGradient id="radial-gradient" cx="-4554.69" cy="-3586.54" r="310.73" gradientTransform="translate(2679.31 1140.57) scale(0.57 0.26)" gradientUnits="userSpaceOnUse"><stop offset="0" stop-color="#a76c42"/><stop offset="0.64" stop-color="#af7756"/><stop offset="1" stop-color="#ba8471"/></radialGradient><radialGradient id="radial-gradient-2" cx="-4513.69" cy="-4727.77" r="128.13" gradientTransform="translate(2679.31 1817.23) scale(0.57 0.36)" gradientUnits="userSpaceOnUse"><stop offset="0" stop-color="#979969"/><stop offset="0.16" stop-color="#abaf66"/><stop offset="0.5" stop-color="#d4dc61"/><stop offset="1" stop-color="#c7cc68"/></radialGradient><radialGradient id="radial-gradient-3" cx="-4534.13" cy="-4779.86" r="137.56" xlink:href="#radial-gradient-2"/><radialGradient id="radial-gradient-4" cx="-4555.31" cy="-4718.11" r="92.98" xlink:href="#radial-gradient-2"/><radialGradient id="radial-gradient-5" cx="-4076.51" cy="-3921.62" r="92.98" gradientTransform="matrix(0.57, 0.05, -0.1, 0.44, 2036.1, 2035.26)" xlink:href="#radial-gradient-2"/><radialGradient id="radial-gradient-6" cx="-7170.59" cy="-3401.03" r="137.56" gradientTransform="matrix(0.42, 0.05, -0.12, 0.4, 2719.86, 1801.28)" xlink:href="#radial-gradient-2"/><radialGradient id="radial-gradient-7" cx="-6460.7" cy="2818.35" r="76.94" gradientTransform="matrix(0.35, 0.11, -0.16, 0.22, 2837.27, 253.91)" xlink:href="#radial-gradient-2"/><radialGradient id="radial-gradient-8" cx="-4412.08" cy="-4564.09" r="35.24" xlink:href="#radial-gradient-2"/><radialGradient id="radial-gradient-9" cx="-4517.49" cy="-4574.44" r="33.28" xlink:href="#radial-gradient-2"/><radialGradient id="radial-gradient-10" cx="-4578.58" cy="-4578.59" r="56.4" xlink:href="#radial-gradient-2"/><radialGradient id="radial-gradient-11" cx="-4602.77" cy="-4617.91" r="61.57" xlink:href="#radial-gradient-2"/><radialGradient id="radial-gradient-12" cx="-6648.27" cy="-4618.57" r="175.89" gradientTransform="translate(3299.08 1684.51) scale(0.46 0.34)" xlink:href="#radial-gradient-2"/><radialGradient id="radial-gradient-13" cx="-4326.21" cy="-4783.14" r="140.59" xlink:href="#radial-gradient-2"/><radialGradient id="radial-gradient-14" cx="-11609.36" cy="-3808.99" r="140.59" gradientTransform="matrix(0.33, -0.01, 0.01, 0.16, 3995.79, 572.7)" xlink:href="#radial-gradient-2"/><radialGradient id="radial-gradient-15" cx="13900.65" cy="-2515.16" r="92.98" gradientTransform="matrix(-0.56, -0.08, -0.13, 0.35, 7632.11, 2130.75)" xlink:href="#radial-gradient-2"/><radialGradient id="radial-gradient-16" cx="-12361.43" cy="8794.13" r="76.94" gradientTransform="matrix(0.23, 0.07, -0.1, 0.13, 3850.63, -103.68)" xlink:href="#radial-gradient-2"/><radialGradient id="radial-gradient-17" cx="4651.27" cy="4527.21" r="35.24" gradientTransform="matrix(0.21, 0.51, -0.49, 0.08, 1336.71, -2610.06)" xlink:href="#radial-gradient-2"/><radialGradient id="radial-gradient-18" cx="10891.66" cy="1256" r="92.98" gradientTransform="matrix(-0.43, -0.24, -0.38, 0.27, 5365.53, 2418.54)" xlink:href="#radial-gradient-2"/><radialGradient id="radial-gradient-19" cx="-10588.28" cy="-9188.94" r="175.89" gradientTransform="matrix(0.3, -0.1, 0.26, 0.33, 5795.23, 2085.05)" xlink:href="#radial-gradient-2"/></defs><polygon class="cls-1" points="113.06 139.51 173.9 137.39 173.9 165.9 195.91 178.8 151.37 184.66 98.17 184.11 115.79 160.87 113.06 139.51"/><path class="cls-2" d="M144,45.78l-1.6.32-1.11.69-.88,1.35,4.22,17.31,2.59,2.85,5.65,12.34-1.92,26.64-9.55,20.79L125.27,62.15l-.46-.49L124,61.2l-.59-.18-1.09-.14-.79.1-.5.14-.53.28-1,1.1,7.32,50-.31-.1L106,62.38l-.55-.29-.61-.18L104,61.8l-.8.16-.72.42-.44.6,2,13.93-1.67-1-1.1-.27-.92,0-1.79.25-.93.51-.58.53-.72,3.57,10.24,49.32,5.94,6.68-32-3.8L56.05,119l-8.77-2.81-.66-.43-9.18-11.94-1.62-.66-2.34-.31-.67,0-.62.15-1.6,1.3,0,2.57.39,1.1L57.39,131,107,145.64l31.07.13,8.25-2.1,2.86-1.48.71-.59,1.93.46,6.58,0,2.9-.59,0,0,0,.3.62.51.72.13,1-.21.75-.31.73-.56.72-1.37-.59-3.31-1.3-1.86-4-2.7-1.62-3.38,3.21-57.78-1.67-3.32-6.42-6.36-3-11.76-1-1.3L147.8,47,146,46.12l-2-.34Zm-14.34,88.84.58-4.81,1.66,2.53,1.62,1.07-3.86,1.21Z"/><polyline class="cls-3" points="117.1 138.81 112.72 136.29 46.07 97.89 32.66 57.23 53.8 40.35 52.83 37.31 58.15 37.31 60.57 41.28 40.45 58.87 51.87 95.78 117.1 134.62 108.4 108.66 84.24 91.43 74.88 59.13 90.53 40.35 105.02 21.28 98.17 14.81 104.06 14.81 111.3 17.28 105.99 27.43 81.83 59.13 92.94 92.04 119.03 122.19 108.89 89.27 98.17 59.13 111.3 45.78 122.42 32.35 135.95 24.35 135.95 19.12 140.3 20.05 140.3 24.97 126.77 32.66 104.54 57.59 129.65 124.35 124.83 138.81"/><path class="cls-4" d="M107.44,140.35l-44-22.77L39.52,95.78,35.68,84.35l8.61-13.07,13.86-9.07L63,60.43l1.45,3.31-14,13.07-10,11.54s2.78,6.86,4.92,7.43,23.41,21.8,23.41,21.8L92,129.81,71.56,102.2,62.5,93.27l-1-9.53,2.9-6.93,4.83-2.61-3.38-2.77h5.68v4.31l-4.71,3.69L65.4,85l1,7.38,13,13.54,32.86,32.92-17.4-24.92s-6.64-8.92-8.39-10.46c-.59-.52.12-2.87,1.32-5.76,2.36-5.64,6.59-13.32,6.59-13.32L92,71.43V58.25l3.87,1.82-1,9.8,2.17,7,.25,8.71-1.93,4.31L92,103.43l6.2,6.15,6.65,11.79,8.24,10.84v8.14Z"/><path class="cls-5" d="M151.76,135.9l-37.11-31.76L97.08,75.41l-.6-14.25,12.19-15.1,16.26-9.75,5.28-1.72.51,4.16-17.54,14.6-13.1,13.11s.82,8.6,2.79,9.49,17,28.68,17,28.68l19.52,17L127,86.18l-6.46-11.69,1.72-11.69,4.82-8.15,5.51-2.73L130,48.24l5.62.52L134.4,54l-5.7,4-3,6.61-1.11,9.07,9.1,17.67L157,134.48l-10.21-31.92s-4.07-11.47-5.37-13.5c-.44-.69.92-3.48,2.92-6.88,3.92-6.64,10.26-15.59,10.26-15.59l1.24-15.94,3.7-16,3.31,2.58L159.11,49l.18,8.71-2.2,10.62L154,73.42l-7.14,16.15,4.4,8.05,3.27,15,5.11,14-2.28,9.89Z"/><polyline class="cls-6" points="153.71 139.06 151.37 135.88 115.69 87.45 119.43 41.23 140.39 24.39 140.7 20.93 144.56 21.39 145 26 124.55 43.73 120.6 85.63 155.1 134.41 157.4 104.88 145.56 83.66 149.47 47.05 167.06 27.62 183.92 7.76 181.09 0 185.36 0.52 189.81 3.88 182.58 14.67 154.52 47.66 151.68 85.11 160.63 120.82 164.18 83.45 166.39 49.11 180.36 35.47 192.88 21.57 205.36 13.9 207.1 8.1 209.95 9.51 208.32 14.96 195.94 22.29 171.53 47.96 167.63 124.14 159.33 139.74"/><polyline class="cls-7" points="133.99 142.76 134.36 155.66 123.15 170.38 103.23 176.4 80.23 177.27 77.68 173.78 80.47 171.13 88.27 173.53 92.3 173.02 102.99 172.87 115.79 170.23 122.16 164.66 129.44 155.12 130.1 150.74 131.03 144.43 134.24 142.43"/><path class="cls-8" d="M151.83,142.06l14,12.68,6.46,13.43-6.46,2.24H154.24l-3.08-3.31-3.95-4.25-6.91-6.62,2.52-2,1.31,2,2.2,3.62,9.94,8.23,2.19-.08,2.87-1.58,3.79-1.16.67-.5,1.82-.47a6.63,6.63,0,0,1-.27-1,41.37,41.37,0,0,0-3.4-3l-1.7-2.25-1.83-3.08-1.3-1.58-3.65-4-9.13-6.92,6.39-2.08Z"/><path class="cls-9" d="M115.69,143.37l3.9,7.69-6.53,8.79H95.17L77.68,158.4l-3.31-4.9-2-1.34,1.29-1,2.71.43.12,1.67,1.16,2.1,2.72,2,4.83.23,9.65.82,4.47.68,7.77-.74,3.19-.77,2.75-.74,1.39-3.76s2-2,2-2,.71-2.23.71-2.23l-2.47-2-1.6-2.85Z"/><polygon class="cls-10" points="104.03 140.35 83.92 153.78 55.07 159.85 20.17 151.61 18.1 152.71 18.1 151.61 20.54 149.7 22.98 150.57 34.25 152.61 43.99 154.84 53.13 154.84 56.64 156.97 70.95 155.42 77.68 153.29 86.48 148.63 89.84 145.77 98.17 141.46 104.03 140.35"/><path class="cls-11" d="M94.46,139.74s-40,6.72-41.54,6-37.65,0-37.65,0L2.92,140.35v-8.14L0,129.81l2.92-3.09,10.71-1-.8,2.45-5.72,5.39,5.72,4.16,7.82,2.61,16.89,2.08H52.15l7.31-2.08s10.87.4,12.94,0S91,138.81,91,138.81Z"/><path class="cls-12" d="M151.37,136.88s9.25-27.26,11.61-29.21,22.3-25.63,24.1-26.53,12-2.54,17.36-3.72S233.78,74.3,238,74.59s24.55-3.76,24.55-3.76l6.59-6.22,14.37-12.75,6.85-10.56h6.92v6.78s-6.05,10.73-6.92,12.06-6.85,7.49-9.24,8.89-16.77,8.39-16.77,8.39-9-1.94-11.38,0S236,78.91,232.19,81.14s-18.77,3.58-18.77,3.58l-14.88-3.58-10.27,8-9,10s-4.19,3.55-4.79,5.34-6.32,7.59-6.32,7.59l-3.26,7.15L158,128.06l14.1-4.47,14.37-8s6.58-13,8.38-13.19,6.59-4.69,8.38-5.58,10.18-3.13,10.18-3.13,16.58,1.79,18.77,1.79c1.4,0,12.22,1.48,19.82,2.54L259.53,99,273.9,93.2l10.78-8,9-7.74,6-6.59,10.78-3.11,4.79-5.36V54.78l4.19-2.92,4.53,7.83-4.53,7.61-7.19,7.29L302,77.42l-6.58,3.72-3,8-7.78,5L271.5,99l-9.58,3.32H232.19l-8-3.32-12,3.32-13.68,5.31-3.68,5.64-6,8-13.17,9.81H163l-6.81,6.23s11.15.85,17.73,0,16.77-6.26,18.56-6.23,8.39-4.89,10.78-6.23,2.4-2.68,4.79-4.92,1.8-5.36,7.79-6.25,6-.9,13.17-2.24,8.66-3.85,8.66-3.85,8.71-12.23,10.5-14,8.58-7.59,8.58-7.59l3.4-.45,1.2,3.74-7.19,6.09-6.59,12.23-7.18,3.85-10.78,4.92L220,118.23l-9,4.46-6,8.47a43.39,43.39,0,0,0-6.7,2.27c-2.88,1.33-17.25,7.1-17.25,7.1l-9.58.57s1.88.38-3.33,0,9.91,7.06,9.91,7.06,19.17,1.79,23.36,0,13.17-5.89,13.77-7.63,7.76-4.42,9-7.1,6.41-3.14,8-4,2.15-1.93,5.46-2.08,8.71-7.31,8.71-7.31l3.59.45-2.4,6.86s-7.22,2.47-9.9,3.84-8.66,4.53-8.66,4.53l-4.8,4a53.6,53.6,0,0,1-5.38,4.3c-1.79,1.09-7.18,5-7.18,5l-13.09,4.56s-9.07-.44-10.87,0-9,0-9,0l-10.51-4.91Z"/><path class="cls-13" d="M143.66,132.21l51.46-62.34,18.44-13.41s6.69-3.8,9.66-6.64,7.44-8.93,8.18-12.51-3.71-14,0-15.42,10.4-7.07,10.4-7.07V29.46l-4.15,16.32L227.69,56,210,66.88l-8.29,6.63-6.54,12-13.54,19.42-13.64,13-.31,6.16,48.83-23L218,97.51l3.84-8.89,1.34-3.11s4.47-18.15,5.21-18.63,5.81-6.06,9.22-8,14.57-8.1,16.81-9,5.2-7.1,6.69-8.52,0-14.68,0-14.68l6-2.37v17l-6.7,13.26-14.12,7.58-13.39,7.73a8.64,8.64,0,0,0-1.49,6.94c.79,4.33-29.74,28.12-29.74,28.12L163,131.16l-19.32,5.26Z"/><path class="cls-14" d="M145.38,102.32l27.41-27.84,10.09-6.1a37.38,37.38,0,0,0,5.3-3c1.6-1.28,4-4,4.28-5.55s-2.54-6-.46-6.69a30.84,30.84,0,0,0,5.7-3.23l.11,1.63.32,4.72-1.87,7.14L190.9,68l-9.76,5-4.52,3-3.37,5.3-7.12,8.63-7.37,5.88v2.67l27.09-10.72.79-1.62,1.92-3.91.67-1.37s2-7.94,2.4-8.16,3.13-2.72,5-3.62,8-3.74,9.29-4.18,2.75-3.17,3.55-3.8-.44-6.37-.44-6.37l3.32-1.12.15,2.26.35,5.13-3.41,5.85-7.81,3.51-7.38,3.57a3,3,0,0,0-.64,3c.58,1.86-16.08,12.65-16.08,12.65l-21.22,12-10.83,2.59Z"/><path class="cls-15" d="M160.28,140.18l50.87-15.92,31-17.84,7.77-10.59-3.81-14L235.8,71.05l-4.08-2.42-2.58,3,9.06,14.75,5.65,12.66s-5.11,6.29-7.4,6.54S206,123.5,206,123.5l-26.91,8.61,29.61-24,12-7.4,4.29-9.16-.39-7.16-3.79-3.24L225,78.93l-5.53-.81L218,82.32l3.29,4.27-.54,5.61-3.54,7.06-17.47,11.33L156.12,138l25.71-21.81s9.62-7.75,11.86-9c.77-.42.9-2.81.74-5.79-.31-5.84-1.74-13.93-1.74-13.93l6.9-12.25,4.64-12.84-4.41,1.22-2.51,9.69-4.57,6.52-3.31,8.45.37,4.47-1.46,13.68-8.2,5.11-10.63,10.55-11.85,9.39-2.86,7.93Z"/><polyline class="cls-16" points="128.23 132.41 128.98 140.3 122.26 149.12 109.53 152.49 94.59 152.66 92.8 150.48 94.51 148.9 99.68 150.5 102.28 150.25 109.23 150.33 117.46 148.91 121.39 145.62 125.75 139.89 126.01 137.22 126.37 133.38 128.38 132.21"/><path class="cls-17" d="M95.15,127.89,83.08,143.2,67.23,152l-5.41-5.25-4.26-10.29L60.92,133l4.31-4.49,6.44-7.66,3.71,1.77-2.3,1.65L69,127l-7.51,10.73.91,1.92,3.21,2.2,3,3.11.92.49L70.79,147a11,11,0,0,1,1.3-.48,35.92,35.92,0,0,0,2.81-3.71l2.42-2,3.51-2.33,1.66-1.52,4.1-4.17,6-9.71,5.18,5.23Z"/><path class="cls-18" d="M168.4,139.77,225,141.39l40.65-6.15,14.81-6.91,7.21-13.41-.88-12.64-1.74-3.38-4.54,1.86-3.19,15.7-4.61,12.84s-9.23,3.94-11.43,3.46-40.25,6.37-40.25,6.37L191,138.45l44.08-12,16.09-2.83,10.68-6.71,5.06-6.4-.88-4,5.42-.64-4.24-2.4-4.49,3.22-.34,4.75-4.7,4.75-8.44,5.1-23.88,4.59L166.4,136.58l39-11.25s14.28-3.85,17.19-4.26c1-.14,2.91-2.19,5-4.86,4.13-5.21,9-12.74,9-12.74l15.3-8.63L265.69,85l-4.79-.28-9.51,7.73-8.93,4.31-9.29,6.4-3,4-11.61,11.54-11,2-17.28,6-17.49,4.61-8.49,6.07Z"/><path class="cls-19" d="M165,129.13s-14.92-28.2-14.88-30.57-5.16-29.39-4.68-30.63,5.85-5,8.45-7.25,16.73-9.19,19.69-9.79,13.11-8.8,13.11-8.8l-.48-7.38-.44-15.31L182.09,7.79l4.51-1.46,5.21,6.53s4.3,11.6,4.77,13.07,1.28,8.66.79,10.51-4.48,11.61-4.48,11.61-7.34,0-7.41,2.4-9.91,5-10.67,8-9.48,7.39-9.48,7.39l-12.45-.3-.58,9.82,1.79,11.48s0,4.3,1,6.14,1.72,8.65,1.72,8.65l3.36,7.57,2.36,10.07,5.76-7.28,3.19-10.78s-5.67-13.87-4.67-14.46.69-5.9,1.17-7.14,4.23-5.16,4.23-5.16,12.18-1.78,13.61-2.24c.91-.29,9.1-1.15,14.87-1.73l5.72-.57,4.88-8.65.84-10L212,41.86l-1.16-7.6L215.49,29l-1-6.17-5.82-7.3.49-3.69,9,6.58L221,26.69l.92,8.54-4.46,4.86-1.43,5,4.16,8.29L219,59.82l-4.79,7.54-3.69,5.22-19.38,6.27-7.77-1.51-5.24,5.72-4.84,8,1.93,6.2,2.28,9-1,12.22-8.29,2.68.35,7.44s7.92-1.53,11.56-3.74,6.11-9.57,7.31-9.92,1.7-6.47,2.23-8.27-.49-3.08-.65-5.74-2.95-5.54.27-7.67a79.6,79.6,0,0,0,6.87-4.93c3.65-2.8,2.68-5.53,2.68-5.53S195,69.19,194.83,67.09s-.25-9.12-.25-9.12l1.88-1.15,3.65,3.35v7.38l5.11,13.17L203.49,86l-3.25,7-4.87,3.74-2.42,6.2,2.6,9.41a13.88,13.88,0,0,0-2.62,3.6c-.86,1.89-5.79,10.47-5.79,10.47l-5.8,2.58s1.51,0-2.17.7,11.89,4.71,11.89,4.71,13.86-2.32,15.22-4.93,4.06-8.45,3.11-10.25,1.66-5.89.38-8.73,1.77-4.37,2.12-5.57-.07-2.31,2-3.15.06-8.87.06-8.87l2.68-.33,3.71,7.11a37.87,37.87,0,0,0-3.5,5.78c-.69,1.88-2.16,6.2-2.16,6.2l-.09,4.82a31.25,31.25,0,0,1-.2,5.28c-.34,1.42-.84,6.33-.84,6.33l-5,7.16s-6.26,1.48-7.09,2.29-5.85,1.89-5.85,1.89l-10.63-2.51Z"/></svg>