<svg id="Layer_1" data-name="Layer 1" xmlns="http://www.w3.org/2000/svg" xmlns:xlink="http://www.w3.org/1999/xlink" viewBox="0 0 528.02 429.45"><defs><style>.cls-1{fill:url(#radial-gradient);}</style><radialGradient id="radial-gradient" cx="152.01" cy="370.47" r="363.98" gradientUnits="userSpaceOnUse"><stop offset="0" stop-color="#5b464d"/><stop offset="0.5" stop-color="#735561"/><stop offset="1" stop-color="#8e7d83"/></radialGradient></defs><path class="cls-1" d="M359.08,0,350.8,3l-5,8.47h0v0l0-.08-20,32.07-1.56.66-5.43-4.22-2.71.53-1.45,1.25-13,40.05-2.64-4,11-31-1-3-1.42-1.36L303,42.34l-5.11,2.46-.7-.26L289.38,33,288,32.58l-2.19.69-.7.76L273,76.91h0l0,.06h0l-18.8,25-2.45,14L253,92l0,.05L276.08,42.5l-.05.25-.61-7.16-.94-.37L237.38,72l.68-19.63-1-.88-1.16,0-12.33,8.77L218,70.92l.11-.24-6.65,14.95,15.14-38.8-1.32-2.44-15.43,3-.27-.22-2.69-8.75-3.34-2L198.4,38.9,168.67,108l-1.41,1-1.33.28L150.4,95.81l-2-.6-1.17.29-.87.74,4.45,12.67L157.1,114l-1.72,47.4-7.7-25.69-2.25-1-3.73,2L137,160.51l0-.24-3.07,9-.56-.2,1.73-30.21,8.13-14.64-.26-2.37-.84-1.32-1.66-.59-3.11.59,1.5-4.16-1.41-4.66-2.54-.8-8.74,4.43-.23-.2-.18-5.52,7.46-11.07L133.09,94l-1.84-1.88-2.51-.7L118.3,99.9l-.52-21.65-1.26-1.81-3-1.41-4.06,3.11L105,90.82l-3.88-12.08-.9-.78-.75-.17L98.7,78,92.28,118.2l-.45.48L93.24,87.4l-.8-.54L90.8,86.6l4.5-30.67-1.65-1.68-1.84-.36-6.63,3.3-11.51,57.1L46.52,69.54l-4-1.71-1.66.1L38.71,69.3l14.9,44.84-.25.49,2,5.8-.09.72-3.2,2.53-.7,6,18,28.84.19,5.19-1.4-.66-19.35-24-3.81-.19-1.27.77,11,30.76-.55,1.77-.69.56h0l-.76.1-1.72-.93h0L39,162.71l0,0-2.37-3.13.12.17L17,134.86l-2.22-.06-1.76,1.53,1.12,18.5L35,178.48l20,7.43h0l1.62.85L62,196.57l-.21.69-.27.16-.38.06L32.74,180.86h0L14.54,168.43l.06.06-8.89-7.55-3.27-.12L.74,162,0,165.12l20.31,32.62,14.5,6.55,8.62,10.87h0l4.48,5L45,235.78l1.19,1.39,8.27.9,1,.83,3.31,13.48-2.26,2.1-.3,1.37,5.77,12-.54,10.42,14.78,21-.28,11.46L77,312.06l9.45,1.54,25.38,38.17,5.28,2.58,1.41-.26,1.48-1.25-12.72-33.11.1.16L82.55,271.26l1-4.42.84-.69,1.31-.31,4,2.18,8.67,32.06V300l55.27,87.07-.31,16.77-7.1,4.74-2.08,4.68.16,3.68-.1.09-.42,1,3.86,10.55,1.77.85,48.3-4.57,2.27-1.29-4.93-29.34,11.78,24.4,1.84,1,16.39-2.87,2-1.67,2.17-6.8,8.56,2.09,7.12-1.31,12.79-12.17,0-3.88-6.86-7.14-.08-.37,3.51-4.08,15.58-5.2.28-1.66-1.27-2.34-7.1-3.89-27.18.16-4.19,3.67h0L227.18,371,225,359.86l.41-.49,38.06-3.83,7.37-6.78,2.1-12,1.32-1.53,1.91-.91,9.08,3.23,5-1.47.81-2.89,27-4.09-6.1-15.85L290.76,315l-.94-1.11-.08-.54.77-1.56,6.62-2.08h0l24.73-1.83,1.29-1.23-.4-1.51-12.39-4.52h0l-16.52-2.26-3.24-2.92-.16-.94.2-.41,62.7-24.14-.91-5.46-4.59-6.65-24.65-.57-.32-.47-.28-1.87.31-.89,39.24-.42,1.8,1.49,8.67,24.7,12.22.87,1.39-1.3-4.12-27.12,1.25,1.39-.09-.14,22.54,30.8,21.8,5.64,3.22-.79,2.92-3.87.18-2.16-4.2-6.26-19.76-9-9.3-22.36.64-1.42,18.28-4.13.9-.73,32.9,7.39,1.12-1.33L452.06,240l1.19-.18h-.05L486,244.38l1.59-1.88-3.75-8.64-4.32-3.22,21.37-8.24.85-1.1-.11-3.43-2.9-3.75-51,4.76-.94-.56,10.1-15.77,2,2.7,1.7.62,5-2.56,5-10.34L528,168.29l0-3.65-3.11-3.84-5.22-1.23.37.07-.45-.08h0l-53,8-4.12-5-1.12-.32-19.39,14.66-5.54.17-10.58-8.4-.14-.83,3-4.54,19.38-9.14L471.91,156l1-1.27-.3-1.93-3.17-3.09-.06-.25.39-.78,56.85-20.86,1.38-2.18-.66-4.28-5.34-4h0l-3.54-.88-2-3.1L503,112.56l-27.92,11.56,5.2-17.12-.56-.77-.8-.16-2.47.79h.06l-1.39.59h0l-41.53,30.73-2.51,0-1.61-.9-2.81-4.84-1.2-.32-50.84,35.24-1.8-.23-3.72-4.18.25-1.25,2.2-3.07-.29-3.72,6.85-4h0l98.53-48.8,6.91-9.38L483.11,91l-3.66-2.45-10.54,1.88.08,0-19.14,2.29-.19-.27,2.48-12.74-2.62-10.53-4.25-3-14.09,7.36-23.47,35.08-4.26,1.24-.65-.2-.16-.19,1.06-7.93,21.21-26.28-.06,0L433.21,69l-.08.09,7.38-16.81-3.41-5.44-1.91-.34L404.74,64.67l.68-7.17,3.31-3.36-.25.17.51-.38h0l.15-.1-.11.07L414.19,47l-.71-4.87-1.31-1.31-10,.88L328,89.7H328l-.18-.1-.22-3.44L339.8,69.81l7.46-3.08v-3l-1.35-2.86.38-3.07,39.5-25.52,3-8.37-.24-2.38-1.07-1.24-4.13-1-26.18,8.55,1.6-4.08,0,.06L362.61,5.7,361.36.91,359.08,0Zm23.69,80.57L391,71.76l-10.27,24-29.2,11-6,8.76,0,0-7.7,21.89L318,145.44h.13l-8.37.23,0-.08h0l1.77-6.71-.61-1.54-1.26-1-3.34-.37L332.9,111.9l-.06,0,49.43-31,0,0,.54-.4Zm-96.75,23,10.3-9.86,1.26,6.16-23,29.15-.91.24-.38-.07,11.47-24-.05.07,1.34-1.77v0Zm-91.69,19.18,20.34-26.88.93-.23,1.54,33.77h0l-9.54,39.81L207.11,123l-1.39-1.85-4.55-.53-1.59.91-3,6.16,0-.08-6.12,15-2.45,2.07-2.56.15-.72-.55-1.12-4.42,1.77-6.77,1.67-1.5h0l.26-.2-.05,0,3.32-2.32,1.15-2.17.92-.57,1.23-2.63,0,.08.43-1ZM364.17,129l-2.69-1.14-1.66-1.83,7.05-11.44,16.68-10.69L374.29,125l-10.12,4ZM110,152.12l-7-7.39,4.36-3.83,1.6-6.85,9-4.53,1.82.21,1.4,2-1.86,4h0L110,152.12Zm214.55,11.39,9.61-2.65,3.16,2,.06,1-48.07,31.58-1.61-.54-.25-.35.74-3.8,36.36-27.21Zm-225,16.42-.21,0-.37-.32-.58-11.15,2.26.37,1.19,8.41-.67,1.86-1.62.86ZM346.07,181l3.61-9.4,2.67-.86.84,10.49L297.3,218.94l-2.89-.74-2.31-3.13,2-3.6L346,181.19h0l0-.06h0l.11-.22,0,.09ZM183.8,173.5l1.24-.88,4.4,15.59-.67,1.83-1.79,1.4-1.73.06-.14-.12L183,183.63l-5.18-.09,6.06-10.08-.06,0Zm-96,34-7.91-22.24,1.69-.62,1.84.71,5.31,18.44-.89,3.68,0,0Zm298.76-8.34-.76-1.83-5.56-3.61,3.66-3.15,17.68,0-15,8.54Zm46,2.63,10.18-.65-10.49,15.89-22.61-.87L426,203l6.57-1.16Zm-59.68,4.57-4.31-1.18-1.65-2.14.31-.22,2.44-.13,5.58,2.59.57-.13,2.13,1.92-5.07-.71ZM197.5,231.17l-1.18,0,.09-6,8.06-14.89-3.37,19.06-1,1.31-2.62.6Zm-56.89,19.29-1-.29,3.83-40,2.32,1.73,2.73,5.87-6.69,32.11-.58.43-.62.12ZM66.26,217.23l1.39-.58,1.79,4.69L76,226.75l4.68.6.26.32.07.76-5.61,12L65.58,221l.2-3.84.48.09Zm47.58,26.59,1-23,.66.07h0l.34.26,13.06,83.58-.92-.34-12.54-51v0l-1.54-9.56Zm241.75-20.4.89-.41.19-.24,7.73,4.78,1.3,2.47,0,.06h0l-.8.85L350,234.79h-.14l-10.63-.59,14-10.88,2.44.09Zm-126.5,1.44h0l.34-1.59,4,5.29-3.33,6.34-1-10Zm60.63,32.53,3.69-11.72,8-.73-5.78,9.49-5.91,3Zm-32.48,1,12.27-10.75-1.71,11.15-1.24,1.82-2.73.75-6.33-2.42-.27-.55Zm-83.18,6.14,1.93-7.14,1.53.52.21.28.1,1.52-3.77,4.82ZM161,305l5-2.77-6.19,13.28-1.59-.86,2.5-9.7.31.05Zm67.25,1.71-.42-.07h0l-.13-.15h0l0-.31.7-1.51,3.72-2.06,1.3.29-5,3.82ZM191,322.06l-.26-.13-.64-.86-.17-1.12,7.29-13.88.89.26.19.19,0,.08h0l-5.84,14.14L191,322.05Z"/></svg>