<svg id="Layer_1" data-name="Layer 1" xmlns="http://www.w3.org/2000/svg" xmlns:xlink="http://www.w3.org/1999/xlink" viewBox="0 0 258.93 193.69"><defs><style>.cls-1{fill:url(#radial-gradient);}</style><radialGradient id="radial-gradient" cx="89.24" cy="164.15" r="126.61" gradientUnits="userSpaceOnUse"><stop offset="0" stop-color="#376235"/><stop offset="0.5" stop-color="#376e21"/><stop offset="1" stop-color="#6c9c53"/></radialGradient></defs><path class="cls-1" d="M93.53,0,88.62,37.6l9.77,5.23h0l.08.12h0L99,48.81h0l-3.41.59.93,21.34-.1-.15,9.71,9L95.84,80l-1.48-1.59.18.26-.7-.89.08.09-2.48-7.47-14.92-1h0L75.25,52.39l-4,.15-3.32,9.22-1.41-.63L61.41,35.06,56.8,40l1.32,10.58-1.08,0h0l-7.73-.89-1.38,9.63,7,1.7L58,71.23l10.77,3,1.79,5.18,11.77,1.2L87.42,88l-.11-.18,19.31,2.84,3.14,13.9-7.31-2.3.44-5.8-4.48-3.78-6,2.32-.27,20.67,11.28,1,5.16,17.21v-.23l.43,2.53-6.6-.08-2.34-9.1-1.59-.78-1.62.5L94,132.82l-2-.09L91,120.91l-4.55-1.45.18,22,13,5.91,0,0,6.6,3.71-.31,9.4H90.8l-.25-.93h0l.23-7.68-6.71-4.93-3.85,6.9L75.53,153,74.32,124.7l4.34-1.16,1.7-4.54,0,.11,2.24-20.06L77.18,96l-3,2.16.23,14.18H72.19l-.82-6.14-2.1-1.34-5,2.48.92,14.46-3-1.14L58.86,90.29l-6.3-.86-1,7.65-1.84.65L48.14,77v0l0-.52h0l0-1-3.45-1.73L40,76.24l-1.35,26L31,101.91l-4.72-5.27.14-3.44.1,1.33-.05-3.85.07.8,0-3.63.1,1.34.59-8.72-.25,1.32,1.43-6.55,12-4.9L40,57.15l0,.16L35.8,53.48l-.95.13L33,63.26,26.57,63,27,58l-3.38-2.26L17.6,58l.93,17-2.89,1.71.15,0-8-.45L7.38,57.46,5.5,56.77,0,86.53H0L.37,87l0,0,2,2-.1-.09L14,91.59l.57,6.91-.06-.8.79,3.9,0-.3,10.68,8.13-.08-.22.21.87,0-.19.16,1.59-.08-1.06.15,1.5-.08-1,1.22,4.58,9.64,1,8.71-7.32h0l1.1-.33,2.83,2.67,0-.07,4,21.58,7.57-.57,3,32.08,9.27,0-.12,0,.15-.06h0l35.63,8.16,2.29,16.18-2.07,1.33-.23,1.75,2.24,1.68,15.84-3.94.74-1.79-2.53-2.54-2.45.19,7.75-25.23,78.92-30.16h0l.49-.17-.46.16,1.77-.62-.49.17,7.75-10.64-.1.53.27-1.25-.1.52,12.45-6.34h0l.3-.2-.13.09,2.79-6.69-.05.25,1.34-5.26h0v0h0l2-6.41-.23.47,2.89-6.16,14.06-2.77,0,0,.42-.16h0l1.38-1.14-.17.2,3.24-20.09-2.2-1.66-3.07.91-2.13,10.11h0L246,73.32l.39.34-2-4,.17.49-.4-24.37-.1.53L244,42.48l0,.34-.11-1.2,0,.31-.11-1.37,0,.53-.11-1v.23l-.08-.9v.14l-2.1-3.64-4.19-.23-2.85,11.91h0l-4.08,0-1.53-30.25-6.21-.94-.59.53h0l-2.18,29.4-2.32-7.15-5.79-.17.58,15.64,20.13,7,.72,1.46h0l2.63,9.29H226.4l-1.18-7.81-5.49-2-3.1,19.9,12.14,2.07-5.61,23.2L215,111.16l-2.84-2.45L211,88.65l-3.37-1.32-4.13,6.82L200.27,94l1.55-31.79-.47-.22.11.07L201.3,62h0l-5.24-.77,13.51,61.43L185.2,128.9l-.58.91.12-.13-.11.14h0l0,.05,0,0L179,135.24l.09-18.16,8.56,0,.76-12.45-3.32-2.43L180.24,108l-1.45-.72-1-20.92-3.24-1.45-6.06,40.48-2.36,1.47-1.51-11.24-5.64.69-.87,16,0-.16,4.08,4.23,6.26.06.7,7.42h0l-7.31,1.91v0L145,148.45h0l-.21-.41h0L142,119.15l-5,2.06-4.38,27L117,154l1.8-13.16,3.89,0,5.12-18.6-4.16-2.43-3,11.5h-1.9l-.09-15.24,12.77-4.31-.13.08.22-.15-.11,0L131.89,94l-5-.06L125.72,104l-2.45.3,3.39-15.6,13.76-5-.2.13,13.49-7.09h0l4.83-4.11.46-5.54,19.73-6.14-.1,0,7.07-15.71h0l2.85-1.89h0l5.86-1.64h-.09l10-3.43L205.43,33l0,0L205.11,18l-4.34.18L198.4,29.38l-4.54-.07-.31-18.49-7.28,1.1-1.91,21.85-8,.53-1.64,18.17-6.85,2.28-.35-15.94-4.92-.61L163,26.34l-3.66-3.45L155.9,25.4l-1.44,20.1L158,47.09l.56,7.18-6.74,3.8-.41,8.14-4.64-.46h0l-1.21-24.6-1.26-.37-7.93,35-12.12.87-.8-6.2L133.09,68l-.3-16.61.1.09-3-1-3.72,2.74-.37,5.44-.45.26.15,0-1.37.38-1.55-.86,1.87-14,.51-.12h-.08L131.27,42l-.16-16.57-1.69-1.15L125,25.63l-.37,10.15L118,37.5l-2.08,25.88L109,64.64l-2.4-3.19,1.86-9.54h0l-.77-44.69L105,7.79l-2.16,24.06-4.7.52L96.73.84,93.53,0Zm98.36,136.84-.19.13.19-.13Z"/></svg>