<svg id="Layer_1" data-name="Layer 1" xmlns="http://www.w3.org/2000/svg" xmlns:xlink="http://www.w3.org/1999/xlink" viewBox="0 0 265.42 201.96"><defs><style>.cls-1{fill:url(#radial-gradient);}</style><radialGradient id="radial-gradient" cx="116.9" cy="160.29" r="148.49" gradientUnits="userSpaceOnUse"><stop offset="0" stop-color="#cb9a97"/><stop offset="0.5" stop-color="#d1b0a8"/><stop offset="1" stop-color="#cbc5c2"/></radialGradient></defs><polygon class="cls-1" points="96.09 0 108.34 32.6 121.12 10.92 104.86 141.42 134.34 159.08 134.5 148.11 136.07 148.02 136.07 148.03 106.53 77.95 115.96 70.72 123.66 96.27 128.54 84.15 134.95 82.62 135.28 111.2 135.19 110.85 137.76 120.82 144.45 33.55 149.22 33.27 154.83 60.53 162.45 34.34 172.8 36.05 167.34 87.36 177.28 76.03 177.28 76.77 221.12 11.08 229.07 13.78 190.93 72.22 194.69 75.97 234.91 46.85 238.83 49.29 158.79 136.81 222.8 97.84 223.61 117.47 263.85 80.42 222.73 135.3 223.77 135.44 223.9 133.72 224.04 133.72 224.17 135.43 265.42 138.09 257.01 154.14 156.15 153.62 147.43 197.73 132.76 201.96 120.29 167.36 10.63 147.34 10.87 141.45 32.61 144.95 18.58 124.21 86.42 138.95 43.09 111.53 43.16 111.53 0 78.94 2.98 71.47 48.84 99.3 9.66 55.06 21.22 42.79 79.83 98.34 57.44 16.43 82.31 57.27 99.04 48.91 96.09 0 96.09 0 96.09 0 96.09 0"/></svg>