<svg id="Layer_1" data-name="Layer 1" xmlns="http://www.w3.org/2000/svg" xmlns:xlink="http://www.w3.org/1999/xlink" viewBox="0 0 1920.99 191.5"><defs><radialGradient id="radial-gradient" cx="960.49" cy="95.75" r="682.54" gradientUnits="userSpaceOnUse"><stop offset="0" stop-color="#6d7751"/><stop offset="0.53" stop-color="#8b9766"/><stop offset="1" stop-color="#aeb98d"/></radialGradient></defs><polygon points="1920.99 191.5 1919.9 13.04 1865.09 12.04 1832.76 22.06 1770.92 0 1675.35 44.13 1635.99 12.04 1591.02 34.1 1568.53 12.04 1496.85 12.04 1496.85 44.13 1443.44 31.09 1426.58 0 1390.03 22.06 1291.65 22.06 1227 44.13 1149.69 20.06 1043.1 13.04 997.9 29.09 931.84 29.09 832.05 25.07 740.7 15.04 666.2 26.08 604.36 15.04 550.95 13.04 531.28 24.07 473.65 15.04 410.4 9.03 383.7 20.06 344.35 21.06 307.8 7.02 275.48 23.07 236.12 6.02 226.28 17.05 217.85 26.08 158.82 9.03 146.17 18.05 88.55 15.04 68.87 0 36.54 9.03 0.12 29.47 0 117.02 0.67 191.5 299.34 120.28 670.42 134.39 1122.99 99.29 1616.3 100.95 1810.74 136.56 1920.99 191.5" style="fill:url(#radial-gradient)"/></svg>