<svg id="Layer_1" data-name="Layer 1" xmlns="http://www.w3.org/2000/svg" xmlns:xlink="http://www.w3.org/1999/xlink" viewBox="0 0 1923 555.12"><defs><radialGradient id="radial-gradient" cx="961.5" cy="277.81" r="707.6" gradientUnits="userSpaceOnUse"><stop offset="0" stop-color="#856e65"/><stop offset="0.64" stop-color="#94786d"/><stop offset="1" stop-color="#a1887e"/></radialGradient><radialGradient id="radial-gradient-2" cx="234.39" cy="138.4" r="107.22" gradientUnits="userSpaceOnUse"><stop offset="0" stop-color="#aaaf9a"/><stop offset="0.64" stop-color="#b6baa8"/><stop offset="1" stop-color="#cfdac0"/></radialGradient><radialGradient id="radial-gradient-3" cx="379.39" cy="154.95" r="103.69" xlink:href="#radial-gradient-2"/><radialGradient id="radial-gradient-4" cx="612.38" cy="217.13" r="59.75" xlink:href="#radial-gradient-2"/><radialGradient id="radial-gradient-5" cx="817.2" cy="223.15" r="55.72" xlink:href="#radial-gradient-2"/><radialGradient id="radial-gradient-6" cx="1065.67" cy="216.13" r="53.17" xlink:href="#radial-gradient-2"/><radialGradient id="radial-gradient-7" cx="1356.38" cy="220.64" r="60.34" xlink:href="#radial-gradient-2"/><radialGradient id="radial-gradient-8" cx="1760.4" cy="144.92" r="132.92" xlink:href="#radial-gradient-2"/><radialGradient id="radial-gradient-9" cx="1594.99" cy="145.42" r="52.29" xlink:href="#radial-gradient-2"/></defs><polyline points="0 148.94 188.64 0.5 251.99 54.66 297.04 35.6 461.75 204.1 582.6 157.47 661.65 220.14 744.71 209.11 812.28 170 844.66 220.14 865.77 205.1 933.35 220.14 1050.05 157.47 1103.68 197.08 1193.78 213.12 1320.48 163.98 1420.43 231.18 1549.94 99.79 1621.74 87.76 1689.31 8.53 1889.21 181.03 1923 180.62 1923 555.12 0 555.12 0 148.94" style="fill:url(#radial-gradient)"/><polygon points="207.65 276.81 172.45 207.61 190.75 142.42 224.54 109.32 189.34 0 252.69 54.16 265.36 108.32 265.36 157.46 296.33 194.57 207.65 276.81" style="fill:url(#radial-gradient-2)"/><polygon points="362.5 275.81 373.76 213.62 334.34 109.32 304.78 83.24 296.33 34.1 462.45 202.59 441.33 242.71 448.37 261.76 362.5 275.81" style="fill:url(#radial-gradient-3)"/><polygon points="582.11 276.81 559.59 238.7 552.55 213.62 560.99 195.57 568.03 176.52 582.11 157.46 662.35 218.64 672.21 245.72 629.97 232.68 659.54 276.81 613.08 259.76 582.11 276.81" style="fill:url(#radial-gradient-4)"/><polygon points="797.5 276.81 759.49 247.72 770.75 223.65 786.23 202.59 810.17 169.5 842.54 216.63 836.91 243.71 874.92 241.71 859.44 257.75 817.21 251.74 797.5 276.81" style="fill:url(#radial-gradient-5)"/><polygon points="1019.92 275.81 1050.89 248.73 1035.41 230.67 1050.89 199.58 1035.41 177.52 1050.89 156.46 1102.98 195.57 1111.43 233.68 1077.64 221.65 1080.46 264.77 1019.92 275.81" style="fill:url(#radial-gradient-6)"/><polygon points="1311.33 277.81 1293.03 207.61 1302.88 186.54 1319.78 163.48 1419.73 230.67 1311.33 277.81" style="fill:url(#radial-gradient-7)"/><polygon points="1701.28 279.82 1682.98 243.71 1629.48 207.61 1664.68 159.47 1680.16 106.31 1701.28 55.16 1691.42 10.03 1891.33 182.53 1792.78 212.62 1839.24 225.66 1701.28 279.82" style="fill:url(#radial-gradient-8)"/><polygon points="1550.65 98.29 1583.03 162.47 1628.07 204.6 1639.34 109.32 1628.07 86.25 1550.65 98.29" style="fill:url(#radial-gradient-9)"/></svg>