<svg id="Layer_1" data-name="Layer 1" xmlns="http://www.w3.org/2000/svg" xmlns:xlink="http://www.w3.org/1999/xlink" viewBox="0 0 1920 15000"><defs><style>.cls-1{fill:#00742a;}.cls-2{fill:url(#radial-gradient);}.cls-186,.cls-201,.cls-3,.cls-77,.cls-78{fill:none;}.cls-3,.cls-4,.cls-77,.cls-78{stroke:#000;}.cls-181,.cls-182,.cls-186,.cls-201,.cls-3,.cls-4,.cls-77,.cls-78{stroke-miterlimit:10;}.cls-3{stroke-width:2px;}.cls-4{stroke-width:3px;}.cls-5{fill:url(#radial-gradient-2);}.cls-6{fill:url(#radial-gradient-3);}.cls-7{fill:url(#radial-gradient-4);}.cls-8{fill:url(#radial-gradient-5);}.cls-9{fill:url(#radial-gradient-6);}.cls-10{fill:url(#radial-gradient-7);}.cls-11{fill:url(#radial-gradient-8);}.cls-12{fill:url(#radial-gradient-9);}.cls-13{fill:url(#radial-gradient-10);}.cls-14{fill:url(#radial-gradient-11);}.cls-15{fill:url(#radial-gradient-12);}.cls-16{fill:url(#radial-gradient-13);}.cls-17{fill:url(#radial-gradient-14);}.cls-18{fill:url(#radial-gradient-15);}.cls-19{fill:url(#radial-gradient-16);}.cls-20{fill:url(#radial-gradient-17);}.cls-21{fill:url(#radial-gradient-18);}.cls-22{fill:url(#radial-gradient-19);}.cls-23{fill:#5c776f;}.cls-24{fill:url(#linear-gradient);}.cls-25{fill:url(#linear-gradient-2);}.cls-26{fill:url(#linear-gradient-3);}.cls-27{fill:url(#radial-gradient-20);}.cls-28{fill:#face3d;}.cls-29{fill:url(#radial-gradient-21);}.cls-30{fill:url(#linear-gradient-4);}.cls-31{fill:url(#linear-gradient-5);}.cls-32{fill:url(#linear-gradient-6);}.cls-33{fill:url(#radial-gradient-22);}.cls-34{fill:url(#radial-gradient-23);}.cls-35{fill:url(#radial-gradient-24);}.cls-36{fill:url(#radial-gradient-25);}.cls-37{fill:url(#radial-gradient-26);}.cls-38{fill:url(#radial-gradient-27);}.cls-39{fill:url(#radial-gradient-28);}.cls-40{fill:url(#radial-gradient-29);}.cls-41{fill:url(#radial-gradient-30);}.cls-42{fill:url(#radial-gradient-31);}.cls-43{fill:#ffdc00;}.cls-44{fill:#357273;}.cls-45{fill:url(#radial-gradient-32);}.cls-46{fill:url(#radial-gradient-33);}.cls-47{fill:url(#radial-gradient-34);}.cls-48{fill:url(#radial-gradient-35);}.cls-49{fill:url(#radial-gradient-36);}.cls-50{fill:url(#radial-gradient-37);}.cls-51{fill:url(#radial-gradient-38);}.cls-52{fill:url(#radial-gradient-39);}.cls-53{fill:url(#radial-gradient-40);}.cls-54{fill:url(#radial-gradient-41);}.cls-55{fill:url(#radial-gradient-42);}.cls-56{fill:url(#radial-gradient-43);}.cls-57{fill:url(#radial-gradient-44);}.cls-58{fill:url(#radial-gradient-45);}.cls-59{fill:url(#radial-gradient-46);}.cls-60{fill:url(#radial-gradient-47);}.cls-61{fill:url(#linear-gradient-7);}.cls-62{fill:url(#linear-gradient-8);}.cls-63{fill:url(#linear-gradient-9);}.cls-64{fill:#90784b;}.cls-65{fill:url(#linear-gradient-10);}.cls-66{fill:url(#linear-gradient-11);}.cls-67{fill:url(#linear-gradient-12);}.cls-68{fill:url(#linear-gradient-13);}.cls-69{fill:url(#linear-gradient-14);}.cls-70{fill:url(#linear-gradient-15);}.cls-71{fill:#fff;}.cls-72{fill:url(#radial-gradient-48);}.cls-73{fill:url(#radial-gradient-49);}.cls-74{fill:url(#radial-gradient-50);}.cls-75{fill:url(#radial-gradient-51);}.cls-76{fill:url(#radial-gradient-52);}.cls-77{stroke-width:2.61px;}.cls-78{stroke-width:0.87px;}.cls-79{fill:url(#radial-gradient-53);}.cls-80{fill:url(#radial-gradient-54);}.cls-81{fill:url(#radial-gradient-55);}.cls-82{fill:url(#radial-gradient-56);}.cls-83{fill:url(#radial-gradient-57);}.cls-84{fill:url(#radial-gradient-58);}.cls-85{fill:url(#radial-gradient-59);}.cls-86{fill:url(#radial-gradient-60);}.cls-87{fill:url(#radial-gradient-61);}.cls-88{fill:url(#radial-gradient-62);}.cls-89{fill:url(#radial-gradient-63);}.cls-90{fill:url(#radial-gradient-64);}.cls-91{fill:url(#radial-gradient-65);}.cls-92{fill:url(#radial-gradient-66);}.cls-93{fill:url(#radial-gradient-67);}.cls-94{fill:url(#radial-gradient-68);}.cls-95{fill:url(#radial-gradient-69);}.cls-96{fill:url(#radial-gradient-70);}.cls-97{fill:url(#radial-gradient-71);}.cls-98{fill:url(#radial-gradient-72);}.cls-99{fill:url(#radial-gradient-73);}.cls-100{fill:url(#radial-gradient-74);}.cls-101{fill:url(#radial-gradient-75);}.cls-102{fill:url(#radial-gradient-76);}.cls-103{fill:url(#radial-gradient-77);}.cls-104{fill:url(#radial-gradient-78);}.cls-105{fill:url(#radial-gradient-79);}.cls-106{fill:url(#radial-gradient-80);}.cls-107{fill:url(#radial-gradient-81);}.cls-108{fill:url(#radial-gradient-82);}.cls-109{fill:url(#radial-gradient-83);}.cls-110{fill:url(#radial-gradient-84);}.cls-111,.cls-181,.cls-182{fill:gray;}.cls-112{fill:url(#radial-gradient-85);}.cls-113{fill:url(#radial-gradient-86);}.cls-114{fill:url(#radial-gradient-87);}.cls-115{fill:url(#radial-gradient-88);}.cls-116{fill:url(#radial-gradient-89);}.cls-117{fill:url(#radial-gradient-90);}.cls-118{fill:url(#radial-gradient-91);}.cls-119{fill:url(#radial-gradient-92);}.cls-120{fill:url(#radial-gradient-93);}.cls-121{fill:url(#radial-gradient-94);}.cls-122{fill:url(#radial-gradient-95);}.cls-123{fill:url(#radial-gradient-96);}.cls-124{fill:url(#radial-gradient-97);}.cls-125{fill:url(#radial-gradient-98);}.cls-126{fill:url(#radial-gradient-99);}.cls-127{fill:url(#radial-gradient-100);}.cls-128{fill:url(#radial-gradient-101);}.cls-129{fill:url(#radial-gradient-102);}.cls-130{fill:url(#radial-gradient-103);}.cls-131{fill:url(#radial-gradient-104);}.cls-132{fill:url(#radial-gradient-105);}.cls-133{fill:url(#radial-gradient-106);}.cls-134{fill:url(#radial-gradient-107);}.cls-135{fill:url(#radial-gradient-108);}.cls-136{fill:url(#radial-gradient-109);}.cls-137{fill:url(#radial-gradient-110);}.cls-138{fill:url(#radial-gradient-111);}.cls-139{fill:url(#radial-gradient-112);}.cls-140{fill:url(#radial-gradient-113);}.cls-141{fill:url(#radial-gradient-114);}.cls-142{fill:url(#radial-gradient-115);}.cls-143{fill:url(#radial-gradient-117);}.cls-144{fill:url(#radial-gradient-118);}.cls-145{fill:url(#radial-gradient-119);}.cls-146{fill:url(#radial-gradient-120);}.cls-147{fill:url(#radial-gradient-121);}.cls-148{fill:url(#radial-gradient-122);}.cls-149{fill:url(#radial-gradient-123);}.cls-150{fill:url(#radial-gradient-124);}.cls-151{fill:url(#radial-gradient-125);}.cls-152{fill:url(#radial-gradient-126);}.cls-153{fill:url(#radial-gradient-127);}.cls-154{fill:url(#radial-gradient-128);}.cls-155{fill:url(#radial-gradient-129);}.cls-156{fill:url(#radial-gradient-130);}.cls-157{fill:url(#radial-gradient-131);}.cls-158{fill:url(#radial-gradient-132);}.cls-159{fill:url(#radial-gradient-133);}.cls-160{fill:url(#radial-gradient-134);}.cls-161{fill:url(#radial-gradient-135);}.cls-162{fill:url(#radial-gradient-136);}.cls-163{fill:url(#radial-gradient-137);}.cls-164{fill:url(#radial-gradient-138);}.cls-165{fill:url(#radial-gradient-139);}.cls-166{fill:url(#radial-gradient-140);}.cls-167{fill:url(#radial-gradient-141);}.cls-168{fill:url(#radial-gradient-142);}.cls-169{fill:url(#radial-gradient-143);}.cls-170{fill:url(#radial-gradient-144);}.cls-171{fill:url(#radial-gradient-145);}.cls-172{fill:url(#radial-gradient-146);}.cls-173{fill:url(#radial-gradient-147);}.cls-174{fill:url(#radial-gradient-148);}.cls-175{fill:url(#radial-gradient-149);}.cls-176{fill:url(#radial-gradient-151);}.cls-177{fill:url(#radial-gradient-152);}.cls-178{fill:url(#radial-gradient-153);}.cls-179{fill:url(#radial-gradient-154);}.cls-180{fill:url(#radial-gradient-155);}.cls-181,.cls-182,.cls-186,.cls-201{stroke:gray;}.cls-181{stroke-width:0.32px;}.cls-182{stroke-width:0.76px;}.cls-183{fill:url(#radial-gradient-156);}.cls-184{fill:url(#radial-gradient-157);}.cls-185{fill:url(#radial-gradient-158);}.cls-186{stroke-width:0.96px;}.cls-187{fill:url(#radial-gradient-159);}.cls-188{fill:url(#radial-gradient-160);}.cls-189{fill:url(#radial-gradient-161);}.cls-190{fill:url(#radial-gradient-162);}.cls-191{fill:url(#radial-gradient-163);}.cls-192{fill:url(#radial-gradient-164);}.cls-193{fill:url(#radial-gradient-165);}.cls-194{fill:url(#radial-gradient-166);}.cls-195{fill:url(#radial-gradient-167);}.cls-196{fill:url(#radial-gradient-168);}.cls-197{fill:url(#radial-gradient-169);}.cls-198{fill:url(#radial-gradient-170);}.cls-199{fill:url(#radial-gradient-171);}.cls-200{fill:url(#radial-gradient-172);}.cls-201{stroke-width:0.58px;}.cls-202{fill:url(#radial-gradient-173);}.cls-203{fill:url(#radial-gradient-174);}.cls-204{fill:url(#radial-gradient-175);}.cls-205{fill:url(#radial-gradient-176);}.cls-206{fill:url(#radial-gradient-177);}</style><radialGradient id="radial-gradient" cx="518.81" cy="4794.17" r="160.56" gradientUnits="userSpaceOnUse"><stop offset="0" stop-color="#94b598"/><stop offset="0.5" stop-color="#b1caa0"/><stop offset="1" stop-color="#aec9a8"/></radialGradient><radialGradient id="radial-gradient-2" cx="84.62" cy="4678.61" fx="77.89036119612321" r="8.91" gradientTransform="translate(414.64 212.37) scale(0.91 0.95)" gradientUnits="userSpaceOnUse"><stop offset="0" stop-color="#aaaf9a"/><stop offset="0.64" stop-color="#b6baa8"/><stop offset="1" stop-color="#cfdac0"/></radialGradient><radialGradient id="radial-gradient-3" cx="131.65" cy="4679.22" fx="125.0849512189754" r="8.69" xlink:href="#radial-gradient-2"/><radialGradient id="radial-gradient-4" cx="103.24" cy="4772.9" fx="86.59793903310396" fy="4725.9173600414015" r="49.85" xlink:href="#radial-gradient-2"/><radialGradient id="radial-gradient-5" cx="106.14" cy="4703.16" fx="79.53209586707716" fy="4691.188593149716" r="35.22" xlink:href="#radial-gradient-2"/><radialGradient id="radial-gradient-6" cx="29.16" cy="4763.37" fx="16.35862409662122" fy="4727.252029527573" r="38.32" xlink:href="#radial-gradient-2"/><radialGradient id="radial-gradient-7" cx="-431.76" cy="5651.43" fx="-444.69970222917937" r="17.12" gradientTransform="matrix(0.88, 0.21, -0.2, 0.92, 2090.69, -413.38)" xlink:href="#radial-gradient-2"/><radialGradient id="radial-gradient-8" cx="88.19" cy="4703.14" fx="76.77734570438025" r="15.11" gradientTransform="translate(414.64 212.37) scale(0.91 0.95)" gradientUnits="userSpaceOnUse"><stop offset="0" stop-color="#1b2324"/><stop offset="0.64" stop-color="#43474a"/><stop offset="1" stop-color="#575d5d"/></radialGradient><radialGradient id="radial-gradient-9" cx="7447.84" cy="4703.14" fx="7436.417300650589" r="15.12" gradientTransform="matrix(-0.91, 0, 0, 0.95, 7286.94, 212.37)" xlink:href="#radial-gradient-8"/><radialGradient id="radial-gradient-10" cx="11.05" cy="4753.44" fx="2.4002274173494964" r="11.45" xlink:href="#radial-gradient-8"/><radialGradient id="radial-gradient-11" cx="27.41" cy="4784.03" fx="18.548300078623853" r="11.72" xlink:href="#radial-gradient-8"/><radialGradient id="radial-gradient-12" cx="19.24" cy="4727.35" fx="19.243542406896267" r="6.48" xlink:href="#radial-gradient-8"/><radialGradient id="radial-gradient-13" cx="6784.79" cy="3980.9" fx="6771.857292888816" r="17.12" gradientTransform="matrix(-0.88, 0.21, 0.2, 0.92, 5645.85, -413.38)" xlink:href="#radial-gradient-2"/><radialGradient id="radial-gradient-14" cx="85.04" cy="4681.01" fx="85.03813210476073" r="3.73" xlink:href="#radial-gradient-8"/><radialGradient id="radial-gradient-15" cx="130.73" cy="4681.27" fx="130.732048787052" r="3.64" xlink:href="#radial-gradient-8"/><radialGradient id="radial-gradient-16" cx="104.35" cy="4719.16" fx="104.35101809630942" r="3.81" xlink:href="#radial-gradient-8"/><radialGradient id="radial-gradient-17" cx="104.89" cy="4722.75" fx="104.88658563625631" r="6.47" xlink:href="#radial-gradient-8"/><radialGradient id="radial-gradient-18" cx="-687.4" cy="5193.94" fx="-687.403737259272" r="4.52" gradientTransform="translate(1080.06 -1027.21) scale(0.73 1.11)" xlink:href="#radial-gradient-8"/><radialGradient id="radial-gradient-19" cx="8223.57" cy="5191.52" fx="8223.565766687774" r="4.52" gradientTransform="matrix(-0.73, 0, 0, 1.11, 6476.75, -1027.21)" xlink:href="#radial-gradient-8"/><linearGradient id="linear-gradient" x1="359.24" y1="2479.67" x2="362.33" y2="2479.67" gradientUnits="userSpaceOnUse"><stop offset="0" stop-color="#446763"/><stop offset="0.49" stop-color="#5a786d"/><stop offset="1" stop-color="#8c9f86"/></linearGradient><linearGradient id="linear-gradient-2" x1="345.52" y1="2479.97" x2="360.61" y2="2479.97" xlink:href="#linear-gradient"/><linearGradient id="linear-gradient-3" x1="360.95" y1="2479.97" x2="376.05" y2="2479.97" xlink:href="#linear-gradient"/><radialGradient id="radial-gradient-20" cx="360.78" cy="2449.52" r="22.74" gradientUnits="userSpaceOnUse"><stop offset="0" stop-color="#979b92"/><stop offset="0.43" stop-color="#aeb2ac"/><stop offset="0.69" stop-color="#c2c6bf"/></radialGradient><radialGradient id="radial-gradient-21" cx="360.78" cy="2449.52" r="9.33" gradientUnits="userSpaceOnUse"><stop offset="0" stop-color="#979969"/><stop offset="0.16" stop-color="#abaf66"/><stop offset="0.5" stop-color="#d4dc61"/><stop offset="1" stop-color="#c7cc68"/></radialGradient><linearGradient id="linear-gradient-4" x1="404.16" y1="2552.41" x2="407.26" y2="2552.41" xlink:href="#linear-gradient"/><linearGradient id="linear-gradient-5" x1="390.45" y1="2552.71" x2="405.54" y2="2552.71" xlink:href="#linear-gradient"/><linearGradient id="linear-gradient-6" x1="405.88" y1="2552.71" x2="420.97" y2="2552.71" xlink:href="#linear-gradient"/><radialGradient id="radial-gradient-22" cx="405.71" cy="2522.26" r="22.74" xlink:href="#radial-gradient-20"/><radialGradient id="radial-gradient-23" cx="405.71" cy="2522.26" r="9.33" xlink:href="#radial-gradient-21"/><radialGradient id="radial-gradient-24" cx="241.91" cy="3975.89" r="17.95" gradientTransform="translate(0 -635.51) scale(1 1.21)" xlink:href="#radial-gradient"/><radialGradient id="radial-gradient-25" cx="230.26" cy="4193.47" r="11.39" xlink:href="#radial-gradient"/><radialGradient id="radial-gradient-26" cx="253.56" cy="4193.47" r="11.39" xlink:href="#radial-gradient"/><radialGradient id="radial-gradient-27" cx="242.15" cy="4131.68" r="15.8" gradientUnits="userSpaceOnUse"><stop offset="0" stop-color="#cb9a97"/><stop offset="0.5" stop-color="#d1b0a8"/><stop offset="1" stop-color="#cbc5c2"/></radialGradient><radialGradient id="radial-gradient-28" cx="224.22" cy="4142.6" r="15.47" xlink:href="#radial-gradient-27"/><radialGradient id="radial-gradient-29" cx="228.87" cy="4165.96" r="14.91" xlink:href="#radial-gradient-27"/><radialGradient id="radial-gradient-30" cx="255.26" cy="4165.86" r="14.81" xlink:href="#radial-gradient-27"/><radialGradient id="radial-gradient-31" cx="259.54" cy="4142.71" r="15.48" xlink:href="#radial-gradient-27"/><radialGradient id="radial-gradient-32" cx="109.06" cy="3534.04" r="17.95" gradientTransform="translate(0 -3206.6) scale(1 2.1)" xlink:href="#radial-gradient"/><radialGradient id="radial-gradient-33" cx="97.41" cy="4176.93" r="11.39" xlink:href="#radial-gradient"/><radialGradient id="radial-gradient-34" cx="120.71" cy="4176.93" r="11.39" xlink:href="#radial-gradient"/><radialGradient id="radial-gradient-35" cx="109.3" cy="4115.14" r="15.8" xlink:href="#radial-gradient-27"/><radialGradient id="radial-gradient-36" cx="91.37" cy="4126.06" r="15.47" xlink:href="#radial-gradient-27"/><radialGradient id="radial-gradient-37" cx="96.02" cy="4149.43" r="14.91" xlink:href="#radial-gradient-27"/><radialGradient id="radial-gradient-38" cx="122.41" cy="4149.32" r="14.81" xlink:href="#radial-gradient-27"/><radialGradient id="radial-gradient-39" cx="126.69" cy="4126.17" r="15.48" xlink:href="#radial-gradient-27"/><radialGradient id="radial-gradient-40" cx="171.17" cy="4223.47" r="17.95" gradientTransform="translate(0 -26.44) scale(1 1.01)" xlink:href="#radial-gradient"/><radialGradient id="radial-gradient-41" cx="159.52" cy="4235.91" r="11.39" xlink:href="#radial-gradient"/><radialGradient id="radial-gradient-42" cx="182.82" cy="4235.91" r="11.39" xlink:href="#radial-gradient"/><radialGradient id="radial-gradient-43" cx="171.41" cy="4174.12" r="15.8" xlink:href="#radial-gradient-27"/><radialGradient id="radial-gradient-44" cx="153.48" cy="4185.04" r="15.47" xlink:href="#radial-gradient-27"/><radialGradient id="radial-gradient-45" cx="158.13" cy="4208.4" r="14.91" xlink:href="#radial-gradient-27"/><radialGradient id="radial-gradient-46" cx="184.52" cy="4208.3" r="14.81" xlink:href="#radial-gradient-27"/><radialGradient id="radial-gradient-47" cx="188.8" cy="4185.15" r="15.48" xlink:href="#radial-gradient-27"/><linearGradient id="linear-gradient-7" x1="1760.31" y1="4076.68" x2="1765.19" y2="4076.68" gradientUnits="userSpaceOnUse"><stop offset="0" stop-color="#6d7751"/><stop offset="0.53" stop-color="#8b9766"/><stop offset="1" stop-color="#aeb98d"/></linearGradient><linearGradient id="linear-gradient-8" x1="1738.7" y1="3984.91" x2="1762.48" y2="3984.91" xlink:href="#linear-gradient-7"/><linearGradient id="linear-gradient-9" x1="1763.02" y1="3984.91" x2="1786.8" y2="3984.91" xlink:href="#linear-gradient-7"/><linearGradient id="linear-gradient-10" x1="1851.65" y1="5022.47" x2="1856.53" y2="5022.47" gradientTransform="translate(0 1329.27) scale(1 0.54)" xlink:href="#linear-gradient-7"/><linearGradient id="linear-gradient-11" x1="1830.04" y1="4009.4" x2="1853.82" y2="4009.4" xlink:href="#linear-gradient-7"/><linearGradient id="linear-gradient-12" x1="1854.36" y1="4009.4" x2="1878.14" y2="4009.4" xlink:href="#linear-gradient-7"/><linearGradient id="linear-gradient-13" x1="1810.22" y1="4661.72" x2="1815.1" y2="4661.72" gradientTransform="translate(0 927.78) scale(1 0.68)" xlink:href="#linear-gradient-7"/><linearGradient id="linear-gradient-14" x1="1788.61" y1="4031.34" x2="1812.39" y2="4031.34" xlink:href="#linear-gradient-7"/><linearGradient id="linear-gradient-15" x1="1812.93" y1="4031.34" x2="1836.71" y2="4031.34" xlink:href="#linear-gradient-7"/><radialGradient id="radial-gradient-48" cx="445.71" cy="1546.58" r="19.48" gradientTransform="matrix(0.95, 0.32, -0.46, 1.37, 730.17, -713.01)" gradientUnits="userSpaceOnUse"><stop offset="0" stop-color="#856e65"/><stop offset="0.64" stop-color="#94786d"/><stop offset="1" stop-color="#a1887e"/></radialGradient><radialGradient id="radial-gradient-49" cx="-379.14" cy="1672.03" r="121.03" gradientTransform="translate(735.98) scale(0.82 1)" gradientUnits="userSpaceOnUse"><stop offset="0" stop-color="#0c4c65"/><stop offset="0.06" stop-color="#11526a"/><stop offset="0.5" stop-color="#397f92"/><stop offset="1" stop-color="#1896ab"/></radialGradient><radialGradient id="radial-gradient-50" cx="407.28" cy="1571.26" r="86" gradientTransform="matrix(1, 0, 0, 1, 0, 0)" xlink:href="#radial-gradient-48"/><radialGradient id="radial-gradient-51" cx="-85.81" cy="2334.76" fx="-114.94697018395578" fy="2321.6538677290337" r="38.57" gradientTransform="translate(496.36 -1176.32) scale(0.84 1.16)" xlink:href="#radial-gradient-48"/><radialGradient id="radial-gradient-52" cx="438.38" cy="1467.3" r="6.13" gradientTransform="matrix(1, 0, 0, 1, 0, 0)" xlink:href="#radial-gradient-48"/><radialGradient id="radial-gradient-53" cx="950.9" cy="1643.67" r="473.33" gradientTransform="matrix(0.98, -0.2, 0.37, 1.86, -596.25, -1230.96)" gradientUnits="userSpaceOnUse"><stop offset="0" stop-color="#2c645f"/><stop offset="0.51" stop-color="#489899"/><stop offset="1" stop-color="#449890"/></radialGradient><radialGradient id="radial-gradient-54" cx="1120.56" cy="1528.08" r="173.44" gradientTransform="matrix(0.98, -0.2, 0.37, 1.86, -549.69, -1097.83)" xlink:href="#radial-gradient-53"/><radialGradient id="radial-gradient-55" cx="1117.1" cy="1528.69" r="47.38" gradientTransform="matrix(0.98, -0.2, 0.37, 1.86, -549.98, -1099.03)" xlink:href="#radial-gradient-53"/><radialGradient id="radial-gradient-56" cx="1122.28" cy="1535.24" r="136.02" gradientTransform="matrix(0.98, -0.2, 0.37, 1.86, -552.33, -1103.66)" xlink:href="#radial-gradient-53"/><radialGradient id="radial-gradient-57" cx="1256.43" cy="1535.48" r="29.36" gradientTransform="matrix(0.98, -0.2, 0.37, 1.86, -549.79, -1077.46)" xlink:href="#radial-gradient-53"/><radialGradient id="radial-gradient-58" cx="1019.38" cy="1579.54" r="5.12" gradientTransform="matrix(0.98, -0.2, 0.37, 1.86, -570.92, -1162.15)" xlink:href="#radial-gradient-53"/><radialGradient id="radial-gradient-59" cx="1543.53" cy="2942.27" fx="1543.5309993313003" r="35.53" gradientTransform="matrix(1, 0, 0, 1, 0, 0)" xlink:href="#radial-gradient-8"/><radialGradient id="radial-gradient-60" cx="1705.13" cy="3015.87" fx="1705.1309993313007" r="35.53" gradientTransform="matrix(1, 0, 0, 1, 0, 0)" xlink:href="#radial-gradient-8"/><radialGradient id="radial-gradient-61" cx="1829.93" cy="2956.67" fx="1829.9309993313018" r="35.53" gradientTransform="matrix(1, 0, 0, 1, 0, 0)" xlink:href="#radial-gradient-8"/><radialGradient id="radial-gradient-62" cx="1598.73" cy="2943.07" fx="1598.730999331301" r="58.41" gradientTransform="matrix(1, 0, 0, 1, 0, 0)" xlink:href="#radial-gradient-8"/><radialGradient id="radial-gradient-63" cx="1631.53" cy="2900.67" fx="1631.5309993313022" r="82.76" gradientTransform="matrix(1, 0, 0, 1, 0, 0)" xlink:href="#radial-gradient-8"/><radialGradient id="radial-gradient-64" cx="1708.33" cy="2870.27" fx="1708.3309993313014" r="115.25" gradientTransform="matrix(1, 0, 0, 1, 0, 0)" xlink:href="#radial-gradient-8"/><radialGradient id="radial-gradient-65" cx="1766.73" cy="2915.07" fx="1766.730999331301" r="85.43" gradientTransform="matrix(1, 0, 0, 1, 0, 0)" xlink:href="#radial-gradient-8"/><radialGradient id="radial-gradient-66" cx="1611.53" cy="2993.07" fx="1611.5309993313022" r="31.12" gradientTransform="matrix(1, 0, 0, 1, 0, 0)" xlink:href="#radial-gradient-8"/><radialGradient id="radial-gradient-67" cx="1505.52" cy="2998.22" r="19.83" gradientTransform="translate(3011.05 5281.27) rotate(180) scale(1 0.76)" gradientUnits="userSpaceOnUse"><stop offset="0" stop-color="#8c917d"/><stop offset="0.5" stop-color="#aab19e"/><stop offset="1" stop-color="#bcc0ab"/></radialGradient><radialGradient id="radial-gradient-68" cx="1517.8" cy="3027.49" r="13.03" gradientTransform="translate(3035.61 5332.82) rotate(180) scale(1 0.76)" xlink:href="#radial-gradient-67"/><radialGradient id="radial-gradient-69" cx="8105.5" cy="2925.37" r="69.81" gradientTransform="matrix(-1, 0, 0, 1, 9647, 0)" xlink:href="#radial-gradient-67"/><radialGradient id="radial-gradient-70" cx="8141.72" cy="2845.16" r="24.84" gradientTransform="matrix(-1, 0, 0, 1, 9647, 0)" gradientUnits="userSpaceOnUse"><stop offset="0" stop-color="#b3d7cd"/><stop offset="0.5" stop-color="#b6dad0"/><stop offset="1" stop-color="#c1e2d9"/></radialGradient><radialGradient id="radial-gradient-71" cx="8143.43" cy="2813.64" r="37.1" gradientTransform="matrix(-1, 0, 0, 1, 9647, 0)" xlink:href="#radial-gradient-67"/><radialGradient id="radial-gradient-72" cx="8129.8" cy="2841.75" r="6.82" gradientTransform="matrix(-1, 0, 0, 1, 9647, 0)" xlink:href="#radial-gradient-21"/><radialGradient id="radial-gradient-73" cx="8155.36" cy="2841.75" r="6.82" gradientTransform="matrix(-1, 0, 0, 1, 9647, 0)" xlink:href="#radial-gradient-21"/><radialGradient id="radial-gradient-74" cx="8143.46" cy="2865.61" fx="8143.456718836302" r="5.81" gradientTransform="matrix(-1, 0, 0, 1, 9647, 0)" xlink:href="#radial-gradient-8"/><radialGradient id="radial-gradient-75" cx="7311.67" cy="2908.21" r="57.76" gradientTransform="matrix(-1.31, 0, 0, 1, 11167.84, 0)" xlink:href="#radial-gradient-67"/><radialGradient id="radial-gradient-76" cx="1495.18" cy="3004.46" r="19.83" gradientTransform="translate(2990.35 5292.27) rotate(180) scale(1 0.76)" xlink:href="#radial-gradient-67"/><radialGradient id="radial-gradient-77" cx="1507.45" cy="3029.73" r="13.03" gradientTransform="translate(3014.91 5336.78) rotate(180) scale(1 0.76)" xlink:href="#radial-gradient-67"/><radialGradient id="radial-gradient-78" cx="182.97" cy="6371.64" r="12.87" xlink:href="#radial-gradient"/><radialGradient id="radial-gradient-79" cx="169.49" cy="6361.69" r="5.64" gradientTransform="matrix(-1, 0.02, -0.02, -1, 479.32, 12718.09)" gradientUnits="userSpaceOnUse"><stop offset="0" stop-color="#6b8c9c"/><stop offset="0.5" stop-color="#86adc2"/><stop offset="1" stop-color="#a6c3e1"/></radialGradient><radialGradient id="radial-gradient-80" cx="169.49" cy="6361.69" r="6.07" gradientTransform="matrix(1, 0, 0, 1, 0, 0)" xlink:href="#radial-gradient-79"/><radialGradient id="radial-gradient-81" cx="169.49" cy="6361.69" r="1.53" gradientTransform="matrix(1, 0, 0, 1, 0, 0)" xlink:href="#radial-gradient-79"/><radialGradient id="radial-gradient-82" cx="280.92" cy="6264.18" r="13.34" gradientTransform="matrix(1, 0, 0, 1, 0, 0)" xlink:href="#radial-gradient-79"/><radialGradient id="radial-gradient-83" cx="261.05" cy="6258.59" r="6.86" gradientTransform="translate(-4895.65 2702.39) rotate(-53.02)" xlink:href="#radial-gradient-79"/><radialGradient id="radial-gradient-84" cx="152.18" cy="6265.94" r="12.99" xlink:href="#radial-gradient"/><radialGradient id="radial-gradient-85" cx="302.65" cy="6372.9" r="60.32" gradientTransform="matrix(1, 0, 0, 1, 0, 0)" xlink:href="#radial-gradient-79"/><radialGradient id="radial-gradient-86" cx="302.16" cy="6345.77" r="19.19" gradientTransform="matrix(1, 0, 0, 1, 0, 0)" xlink:href="#radial-gradient-79"/><radialGradient id="radial-gradient-87" cx="307.8" cy="6346.36" r="19.26" gradientTransform="translate(6451.48 4725.81) rotate(78)" xlink:href="#radial-gradient-79"/><radialGradient id="radial-gradient-88" cx="313.2" cy="6348.12" r="19.32" gradientTransform="translate(5985.1 3479.99) rotate(66)" xlink:href="#radial-gradient-79"/><radialGradient id="radial-gradient-89" cx="318.11" cy="6350.95" r="19.36" gradientTransform="translate(5269.16 2360.6) rotate(54)" xlink:href="#radial-gradient-79"/><radialGradient id="radial-gradient-90" cx="322.32" cy="6354.75" r="19.37" gradientTransform="translate(4334.95 1416.57) rotate(42)" xlink:href="#radial-gradient-79"/><radialGradient id="radial-gradient-91" cx="325.66" cy="6359.34" r="19.35" gradientTransform="translate(3223.3 689.16) rotate(30)" xlink:href="#radial-gradient-79"/><radialGradient id="radial-gradient-92" cx="327.97" cy="6364.52" r="19.3" gradientTransform="translate(1982.8 210.15) rotate(18)" xlink:href="#radial-gradient-79"/><radialGradient id="radial-gradient-93" cx="329.14" cy="6370.07" r="19.23" gradientTransform="translate(667.66 0.49) rotate(6)" xlink:href="#radial-gradient-79"/><radialGradient id="radial-gradient-94" cx="329.14" cy="6375.74" r="19.23" gradientTransform="translate(6635.55 5381.95) rotate(84)" xlink:href="#radial-gradient-79"/><radialGradient id="radial-gradient-95" cx="327.97" cy="6381.29" r="19.3" gradientTransform="translate(6295.58 4097.45) rotate(72)" xlink:href="#radial-gradient-79"/><radialGradient id="radial-gradient-96" cx="325.66" cy="6386.47" r="19.35" gradientTransform="translate(5693.68 2911.21) rotate(60)" xlink:href="#radial-gradient-79"/><radialGradient id="radial-gradient-97" cx="322.32" cy="6391.06" r="19.37" gradientTransform="translate(4856.13 1875.07) rotate(48)" xlink:href="#radial-gradient-79"/><radialGradient id="radial-gradient-98" cx="318.11" cy="6394.86" r="19.36" gradientTransform="translate(3819.56 1034.33) rotate(36)" xlink:href="#radial-gradient-79"/><radialGradient id="radial-gradient-99" cx="313.2" cy="6397.69" r="19.32" gradientTransform="translate(2629.25 425.72) rotate(24)" xlink:href="#radial-gradient-79"/><radialGradient id="radial-gradient-100" cx="307.8" cy="6399.45" r="19.26" gradientTransform="translate(1337.25 75.85) rotate(12)" xlink:href="#radial-gradient-79"/><radialGradient id="radial-gradient-101" cx="302.16" cy="6400.04" r="19.19" gradientTransform="matrix(1, 0, 0, 1, 0, 0)" xlink:href="#radial-gradient-79"/><radialGradient id="radial-gradient-102" cx="296.52" cy="6399.45" r="19.26" gradientTransform="translate(6494.47 4778.89) rotate(78)" xlink:href="#radial-gradient-79"/><radialGradient id="radial-gradient-103" cx="291.12" cy="6397.69" r="19.32" gradientTransform="translate(6017.29 3529.56) rotate(66)" xlink:href="#radial-gradient-79"/><radialGradient id="radial-gradient-104" cx="286.21" cy="6394.86" r="19.36" gradientTransform="translate(5291.53 2404.51) rotate(54)" xlink:href="#radial-gradient-79"/><radialGradient id="radial-gradient-105" cx="281.99" cy="6391.06" r="19.37" gradientTransform="translate(4348.89 1452.89) rotate(42)" xlink:href="#radial-gradient-79"/><radialGradient id="radial-gradient-106" cx="278.66" cy="6386.47" r="19.35" gradientTransform="translate(3230.57 716.29) rotate(30)" xlink:href="#radial-gradient-79"/><radialGradient id="radial-gradient-107" cx="276.35" cy="6381.29" r="19.3" gradientTransform="translate(1985.45 226.92) rotate(18)" xlink:href="#radial-gradient-79"/><radialGradient id="radial-gradient-108" cx="275.17" cy="6375.74" r="19.23" gradientTransform="translate(667.95 6.16) rotate(6)" xlink:href="#radial-gradient-79"/><radialGradient id="radial-gradient-109" cx="275.17" cy="6370.07" r="19.23" gradientTransform="translate(6581.58 5430.55) rotate(84)" xlink:href="#radial-gradient-79"/><radialGradient id="radial-gradient-110" cx="276.35" cy="6364.52" r="19.3" gradientTransform="translate(6243.97 4134.95) rotate(72)" xlink:href="#radial-gradient-79"/><radialGradient id="radial-gradient-111" cx="278.66" cy="6359.34" r="19.35" gradientTransform="translate(5646.68 2938.34) rotate(60)" xlink:href="#radial-gradient-79"/><radialGradient id="radial-gradient-112" cx="281.99" cy="6354.75" r="19.37" gradientTransform="translate(4815.8 1893.03) rotate(48)" xlink:href="#radial-gradient-79"/><radialGradient id="radial-gradient-113" cx="286.21" cy="6350.95" r="19.36" gradientTransform="translate(3787.66 1044.69) rotate(36)" xlink:href="#radial-gradient-79"/><radialGradient id="radial-gradient-114" cx="291.12" cy="6348.12" r="19.32" gradientTransform="translate(2607.18 430.41) rotate(24)" xlink:href="#radial-gradient-79"/><radialGradient id="radial-gradient-115" cx="296.52" cy="6346.36" r="19.26" gradientTransform="translate(1325.96 77.03) rotate(12)" xlink:href="#radial-gradient-79"/><radialGradient id="radial-gradient-117" cx="302.42" cy="6372.84" r="4.7" gradientTransform="matrix(1, 0, 0, 1, 0, 0)" xlink:href="#radial-gradient-79"/><radialGradient id="radial-gradient-118" cx="302.42" cy="6372.84" r="5.67" gradientTransform="matrix(1, 0, 0, 1, 0, 0)" xlink:href="#radial-gradient-79"/><radialGradient id="radial-gradient-119" cx="116.75" cy="6369.99" r="60.32" gradientTransform="matrix(1, 0, 0, 1, 0, 0)" xlink:href="#radial-gradient-79"/><radialGradient id="radial-gradient-120" cx="116.61" cy="6342.92" r="19.19" gradientTransform="matrix(1, 0, 0, 1, 0, 0)" xlink:href="#radial-gradient-79"/><radialGradient id="radial-gradient-121" cx="122.25" cy="6343.51" r="19.26" gradientTransform="translate(6301.72 4905.05) rotate(78)" xlink:href="#radial-gradient-79"/><radialGradient id="radial-gradient-122" cx="127.64" cy="6345.26" r="19.32" gradientTransform="translate(5872.41 3647.81) rotate(66)" xlink:href="#radial-gradient-79"/><radialGradient id="radial-gradient-123" cx="132.55" cy="6348.1" r="19.36" gradientTransform="translate(5190.36 2509.54) rotate(54)" xlink:href="#radial-gradient-79"/><radialGradient id="radial-gradient-124" cx="136.77" cy="6351.9" r="19.37" gradientTransform="translate(4285.38 1540) rotate(42)" xlink:href="#radial-gradient-79"/><radialGradient id="radial-gradient-125" cx="140.1" cy="6356.49" r="19.35" gradientTransform="translate(3197.01 781.56) rotate(30)" xlink:href="#radial-gradient-79"/><radialGradient id="radial-gradient-126" cx="142.41" cy="6361.67" r="19.3" gradientTransform="translate(1972.83 267.35) rotate(18)" xlink:href="#radial-gradient-79"/><radialGradient id="radial-gradient-127" cx="143.59" cy="6367.22" r="19.23" gradientTransform="translate(666.34 19.87) rotate(6)" xlink:href="#radial-gradient-79"/><radialGradient id="radial-gradient-128" cx="143.59" cy="6372.89" r="19.23" gradientTransform="translate(6466.56 5563.94) rotate(84)" xlink:href="#radial-gradient-79"/><radialGradient id="radial-gradient-129" cx="142.41" cy="6378.44" r="19.3" gradientTransform="translate(6164.66 4271.95) rotate(72)" xlink:href="#radial-gradient-79"/><radialGradient id="radial-gradient-130" cx="140.1" cy="6383.62" r="19.35" gradientTransform="translate(5598.43 3070.48) rotate(60)" xlink:href="#radial-gradient-79"/><radialGradient id="radial-gradient-131" cx="136.77" cy="6388.21" r="19.37" gradientTransform="translate(4792.62 2012.02) rotate(48)" xlink:href="#radial-gradient-79"/><radialGradient id="radial-gradient-132" cx="132.55" cy="6392" r="19.36" gradientTransform="translate(3782.44 1142.85) rotate(36)" xlink:href="#radial-gradient-79"/><radialGradient id="radial-gradient-133" cx="127.64" cy="6394.84" r="19.32" gradientTransform="translate(2612.05 500.95) rotate(24)" xlink:href="#radial-gradient-79"/><radialGradient id="radial-gradient-134" cx="122.25" cy="6396.59" r="19.26" gradientTransform="translate(1332.6 114.36) rotate(12)" xlink:href="#radial-gradient-79"/><radialGradient id="radial-gradient-135" cx="116.61" cy="6397.19" r="19.19" gradientTransform="matrix(1, 0, 0, 1, 0, 0)" xlink:href="#radial-gradient-79"/><radialGradient id="radial-gradient-136" cx="110.96" cy="6396.59" r="19.26" gradientTransform="translate(6344.71 4958.13) rotate(78)" xlink:href="#radial-gradient-79"/><radialGradient id="radial-gradient-137" cx="105.57" cy="6394.84" r="19.32" gradientTransform="translate(5904.61 3697.38) rotate(66)" xlink:href="#radial-gradient-79"/><radialGradient id="radial-gradient-138" cx="100.66" cy="6392" r="19.36" gradientTransform="translate(5212.73 2553.45) rotate(54)" xlink:href="#radial-gradient-79"/><radialGradient id="radial-gradient-139" cx="96.44" cy="6388.21" r="19.37" gradientTransform="translate(4299.32 1576.31) rotate(42)" xlink:href="#radial-gradient-79"/><radialGradient id="radial-gradient-140" cx="93.11" cy="6383.62" r="19.35" gradientTransform="translate(3204.28 808.69) rotate(30)" xlink:href="#radial-gradient-79"/><radialGradient id="radial-gradient-141" cx="90.8" cy="6378.44" r="19.3" gradientTransform="translate(1975.49 284.12) rotate(18)" xlink:href="#radial-gradient-79"/><radialGradient id="radial-gradient-142" cx="89.62" cy="6372.89" r="19.23" gradientTransform="translate(666.64 25.54) rotate(6)" xlink:href="#radial-gradient-79"/><radialGradient id="radial-gradient-143" cx="89.62" cy="6367.22" r="19.23" gradientTransform="translate(6412.59 5612.53) rotate(84)" xlink:href="#radial-gradient-79"/><radialGradient id="radial-gradient-144" cx="90.8" cy="6361.67" r="19.3" gradientTransform="translate(6113.05 4309.45) rotate(72)" xlink:href="#radial-gradient-79"/><radialGradient id="radial-gradient-145" cx="93.11" cy="6356.49" r="19.35" gradientTransform="translate(5551.43 3097.61) rotate(60)" xlink:href="#radial-gradient-79"/><radialGradient id="radial-gradient-146" cx="96.44" cy="6351.9" r="19.37" gradientTransform="translate(4752.29 2029.98) rotate(48)" xlink:href="#radial-gradient-79"/><radialGradient id="radial-gradient-147" cx="100.66" cy="6348.1" r="19.36" gradientTransform="translate(3750.54 1153.21) rotate(36)" xlink:href="#radial-gradient-79"/><radialGradient id="radial-gradient-148" cx="105.57" cy="6345.26" r="19.32" gradientTransform="translate(2589.98 505.64) rotate(24)" xlink:href="#radial-gradient-79"/><radialGradient id="radial-gradient-149" cx="110.96" cy="6343.51" r="19.26" gradientTransform="translate(1321.31 115.55) rotate(12)" xlink:href="#radial-gradient-79"/><radialGradient id="radial-gradient-151" cx="115.9" cy="6369.08" r="5.67" gradientTransform="matrix(1, 0, 0, 1, 0, 0)" xlink:href="#radial-gradient-79"/><radialGradient id="radial-gradient-152" cx="115.9" cy="6369.08" r="6.83" gradientTransform="matrix(1, 0, 0, 1, 0, 0)" xlink:href="#radial-gradient-79"/><radialGradient id="radial-gradient-153" cx="89.8" cy="6327.16" r="22.31" gradientTransform="matrix(1, 0, 0, 1, 0, 0)" xlink:href="#radial-gradient-79"/><radialGradient id="radial-gradient-154" cx="122.32" cy="6296.01" r="12.75" gradientTransform="matrix(1, 0, 0, 1, 0, 0)" xlink:href="#radial-gradient-79"/><radialGradient id="radial-gradient-155" cx="210.4" cy="6391.07" r="12.86" xlink:href="#radial-gradient"/><radialGradient id="radial-gradient-156" cx="224.1" cy="6400.72" r="5.6" gradientTransform="matrix(1, 0, 0, 1, 0, 0)" xlink:href="#radial-gradient-79"/><radialGradient id="radial-gradient-157" cx="224.1" cy="6400.72" r="6.02" gradientTransform="matrix(1, 0, 0, 1, 0, 0)" xlink:href="#radial-gradient-79"/><radialGradient id="radial-gradient-158" cx="224.1" cy="6400.72" r="1.53" gradientTransform="matrix(1, 0, 0, 1, 0, 0)" xlink:href="#radial-gradient-79"/><radialGradient id="radial-gradient-159" cx="213.47" cy="6290.37" r="37.89" gradientTransform="matrix(1, 0, 0, 1, 0, 0)" xlink:href="#radial-gradient-79"/><radialGradient id="radial-gradient-160" cx="231.78" cy="6338.55" r="40.19" gradientTransform="translate(4703.94 1840.7) rotate(46.93)" xlink:href="#radial-gradient-79"/><radialGradient id="radial-gradient-161" cx="176.92" cy="6333.58" r="36.42" gradientTransform="translate(-5872.32 4448.88) rotate(-71.09)" xlink:href="#radial-gradient-79"/><radialGradient id="radial-gradient-162" cx="139.67" cy="6332.46" r="32.62" gradientTransform="translate(5369.12 2758.62) rotate(56.91)" xlink:href="#radial-gradient-79"/><radialGradient id="radial-gradient-163" cx="272.82" cy="6311.68" r="26.1" gradientTransform="translate(-5786.79 4524.8) rotate(-71.09)" xlink:href="#radial-gradient-79"/><radialGradient id="radial-gradient-164" cx="258.23" cy="6269.08" r="5.61" gradientTransform="translate(2045.11 254.51) rotate(18.91)" xlink:href="#radial-gradient-79"/><radialGradient id="radial-gradient-165" cx="157.34" cy="6276.39" r="5.68" gradientTransform="translate(2042.04 287.59) rotate(18.91)" xlink:href="#radial-gradient-79"/><radialGradient id="radial-gradient-166" cx="293.28" cy="6357.39" r="14.15" gradientTransform="translate(5683.49 9740.87) rotate(124.76)" xlink:href="#radial-gradient-79"/><radialGradient id="radial-gradient-167" cx="180.58" cy="6332.25" fx="180.58372185549615" r="31.94" gradientTransform="translate(-5868.59 4451.44) rotate(-71.09)" xlink:href="#radial-gradient-2"/><radialGradient id="radial-gradient-168" cx="240.14" cy="6330.25" fx="240.1447225831107" r="25.6" gradientTransform="translate(-4220.24 10828.54) rotate(-133.07)" xlink:href="#radial-gradient-2"/><radialGradient id="radial-gradient-169" cx="271.72" cy="6302.9" fx="271.7160626564664" r="16.84" gradientTransform="translate(-5779.22 4517.82) rotate(-71.09)" xlink:href="#radial-gradient-2"/><radialGradient id="radial-gradient-170" cx="160.27" cy="6284.66" fx="160.2699136877709" r="2.99" gradientTransform="matrix(1, 0, 0, 1, 0, 0)" xlink:href="#radial-gradient-2"/><radialGradient id="radial-gradient-171" cx="260.9" cy="6277.03" fx="260.9045566932764" r="2.8" gradientTransform="matrix(1, 0, 0, 1, 0, 0)" xlink:href="#radial-gradient-2"/><radialGradient id="radial-gradient-172" cx="153.57" cy="6269.17" fx="153.5654875594155" r="2.89" gradientTransform="matrix(1, 0, 0, 1, 0, 0)" xlink:href="#radial-gradient-2"/><radialGradient id="radial-gradient-173" cx="5935.73" cy="8114.28" r="45.57" gradientTransform="matrix(-0.86, -0.52, -0.52, 0.86, 9491.79, 2345.64)" gradientUnits="userSpaceOnUse"><stop offset="0" stop-color="#979b92"/><stop offset="0.64" stop-color="#aeb2ac"/><stop offset="1" stop-color="#c2c6bf"/></radialGradient><radialGradient id="radial-gradient-174" cx="5981.7" cy="8151.46" r="88.72" gradientTransform="matrix(-0.86, -0.52, -0.52, 0.86, 9491.79, 2345.64)" gradientUnits="userSpaceOnUse"><stop offset="0" stop-color="#a76c42"/><stop offset="0.64" stop-color="#af7756"/><stop offset="1" stop-color="#ba8471"/></radialGradient><radialGradient id="radial-gradient-175" cx="5941.22" cy="8166.32" r="39.52" xlink:href="#radial-gradient-174"/><radialGradient id="radial-gradient-176" cx="5995.84" cy="8070.75" r="87.38" xlink:href="#radial-gradient-174"/><radialGradient id="radial-gradient-177" cx="19.73" cy="15134.56" r="1753.17" gradientTransform="translate(0 5175.05) scale(1 0.65)" gradientUnits="userSpaceOnUse"><stop offset="0" stop-color="#446763"/><stop offset="0.26" stop-color="#5a786d"/><stop offset="1" stop-color="#8c9f86"/></radialGradient></defs><polygon class="cls-1" points="380.48 1793.33 379.69 1793.34 380.08 1792.65 380.48 1793.33"/><polygon class="cls-1" points="380.48 1793.33 379.69 1793.34 380.08 1792.65 380.48 1793.33"/><polygon class="cls-1" points="380.48 1793.33 379.69 1793.34 380.08 1792.65 380.48 1793.33"/><path class="cls-2" d="M371.64,4627.73s-39.12,212,272.67,338c0,0,12.16-3.63,22.55-21.72s-98.75-204.14-119.05-224.85S423.27,4639,391.27,4622.6Z"/><ellipse cx="512.17" cy="4793.68" rx="46.65" ry="78.68" transform="translate(-3288.24 1827.44) rotate(-45.93)"/><path class="cls-3" d="M487.29,4689.43,414,4646.86l-23,7.26s-2.06,48.18,10.73,61.66Z"/><line class="cls-4" x1="442.7" y1="4663.51" x2="401.78" y2="4715.78"/><line class="cls-4" x1="391.37" y1="4676.45" x2="487.29" y2="4689.43"/><path class="cls-5" d="M486.47,4660.84l-1.69-18.12a1.13,1.13,0,0,1,1.76-1.08l11.57,8.26Z"/><path class="cls-6" d="M528.63,4649.9l9.31-8.09a1,1,0,0,1,1.69.89l-1.19,19.16Z"/><polygon class="cls-7" points="490.37 4690.15 476.52 4708.39 466.33 4750.12 469.61 4791.03 550.36 4791.03 539.63 4756.17 537.01 4712.56 529.79 4690.15 490.37 4690.15"/><path class="cls-8" d="M499.8,4648.31l-26,24.49L501,4701.26h16.33l30.86-27.52-20.66-25.19a2.57,2.57,0,0,0-2.77-.85l-7.43,2.33h-9.07l-5.76-2.26A2.55,2.55,0,0,0,499.8,4648.31Z"/><path class="cls-9" d="M468.28,4774.41l-34.22-10.51-20.12-36.65,15.24-38.56h11.93l-1.57,8.29-7.62,14.66s7.7,23.9,9.19,24.85,25.76,20.41,25.76,20.41Z"/><polygon class="cls-10" points="535.61 4706.66 546.84 4706.91 572.51 4725.58 571.19 4731.55 564.78 4730.73 545.61 4723.82 537.45 4723.85 535.61 4706.66"/><polygon class="cls-11" points="485.82 4685.4 498.11 4685.4 506.23 4676.85 510.98 4671.11 510.98 4663.42 495.8 4667.54 486.69 4669.84 478.39 4677.63 485.82 4685.4"/><polygon class="cls-12" points="536.18 4685.4 523.89 4685.4 515.78 4676.85 510.98 4671.11 510.98 4663.42 526.21 4667.54 535.32 4669.84 543.61 4677.63 536.18 4685.4"/><polygon class="cls-13" points="431.92 4711.64 413.94 4727.25 416.88 4732.61 435.41 4722.12 431.92 4711.64"/><polygon class="cls-14" points="441.11 4736.49 434.06 4763.9 440.27 4765.81 444.98 4739.47 441.11 4736.49"/><polygon class="cls-15" points="427.29 4693.48 439.55 4696.98 437.32 4701.26 424.67 4701.26 427.29 4693.48"/><polygon class="cls-16" points="478 4704.64 466.78 4704.89 441.11 4723.56 442.43 4729.53 448.83 4728.71 468 4721.8 476.17 4721.83 478 4704.64"/><polygon class="cls-17" points="490.12 4657.41 488.96 4649.4 494.69 4653.12 490.12 4657.41"/><polygon class="cls-18" points="530.99 4652.76 535.61 4649.4 535.2 4657.9 530.99 4652.76"/><polygon class="cls-19" points="509.71 4686.61 505.39 4692.6 513.32 4692.6 509.71 4686.61"/><polygon class="cls-20" points="513.32 4692.6 518.07 4691.84 517.51 4693.12 509.35 4694.17 501.61 4693.59 501.61 4691.84 505.39 4692.6 513.08 4692.6 513.32 4692.6"/><polygon class="cls-21" points="572.32 4726.84 576.63 4726.84 577.85 4724.81 579.32 4729.05 577.49 4732.68 571.51 4730.98 572.32 4726.84"/><polygon class="cls-22" points="442.62 4724.15 438.3 4724.15 437.08 4722.12 435.61 4726.36 437.44 4729.99 443.42 4728.28 442.62 4724.15"/><rect class="cls-23" x="396.11" y="4724.48" width="220.64" height="7.69"/><path class="cls-23" d="M614.3,4731.88c2.17,5.88,11,10.28,20.7,12.13s20.1,1.59,30.22,1.05c8.13-.43,16.48-1.07,23.6-3.44s12.77-6.88,12.13-11.71c-.77-5.92-10.19-10.05-19.34-12.48a109.69,109.69,0,0,0-35.33-3.79c-12,.85-23.8,4.44-30.55,10.4Z"/><path class="cls-23" d="M397.64,4731.88c-2.18,5.88-11,10.28-20.7,12.13s-20.1,1.59-30.23,1.05c-8.13-.43-16.48-1.07-23.59-3.44s-12.77-6.88-12.14-11.71c.78-5.92,10.2-10.05,19.35-12.48a109.66,109.66,0,0,1,35.33-3.79c12,.85,23.79,4.44,30.54,10.4Z"/><rect class="cls-24" x="359.24" y="2466.34" width="3.1" height="26.65"/><path class="cls-25" d="M356.58,2476.46c4.17,4.17,4,11.06,4,11.06s-6.89.13-11.05-4-4-11.06-4-11.06,6.89-.13,11.06,4"/><path class="cls-26" d="M365,2476.46c-4.17,4.17-4,11.06-4,11.06s6.89.13,11.05-4,4-11.06,4-11.06-6.89-.13-11.06,4"/><path class="cls-27" d="M374.76,2435.54s1.23-4.48-1.55-7.26-8.62-1.61-12.21,3.91l-.22.33-.22-.33c-3.58-5.52-9.31-6.8-12.2-3.91s-1.55,7.26-1.55,7.26-4.49-1.23-7.26,1.55-1.61,8.62,3.91,12.21l.33.22-.34.22c-5.51,3.58-6.8,9.31-3.9,12.2s7.26,1.55,7.26,1.55-1.23,4.49,1.55,7.26,8.61,1.61,12.2-3.91l.22-.33a4,4,0,0,1,.22.34c3.59,5.51,9.31,6.8,12.21,3.91s1.55-7.27,1.55-7.27,4.48,1.23,7.26-1.55,1.61-8.61-3.91-12.2l-.33-.22.33-.22c5.52-3.59,6.8-9.31,3.91-12.21s-7.26-1.55-7.26-1.55"/><path class="cls-28" d="M369.57,2457.13a.56.56,0,0,1-.69.08.55.55,0,0,1-.19-.77.57.57,0,0,1,.88-.11.55.55,0,0,1,0,.75l0,.05"/><path class="cls-28" d="M367.08,2459.27l-.09.08a.56.56,0,0,1-.72-.07.59.59,0,0,1,.16-.91.56.56,0,0,1,.75.25.54.54,0,0,1-.1.65"/><path class="cls-28" d="M371.32,2454.34a.55.55,0,0,1-.51.15.56.56,0,0,1-.44-.66.88.88,0,0,1,.05-.15.57.57,0,0,1,.76-.25.56.56,0,0,1,.27.71.44.44,0,0,1-.13.2"/><path class="cls-28" d="M364.06,2460.6a.72.72,0,0,1-.24.14.56.56,0,0,1-.67-.29.55.55,0,0,1,.25-.75l.15,0a.56.56,0,0,1,.51.95"/><path class="cls-28" d="M372.17,2451.16a.57.57,0,0,1-1-.4s0-.09,0-.12a.56.56,0,0,1,.67-.44.56.56,0,0,1,.44.63.52.52,0,0,1-.16.33"/><path class="cls-28" d="M360.78,2461a.55.55,0,0,1-.39.16h0a.56.56,0,1,1,.4-.16"/><path class="cls-28" d="M372.05,2447.86a.53.53,0,0,1-.4.17.56.56,0,0,1-.56-.56.52.52,0,0,1,.45-.62.6.6,0,0,1,.66.49.59.59,0,0,1,0,.13.56.56,0,0,1-.17.39"/><path class="cls-28" d="M357.55,2460.36a.57.57,0,1,1-.3-1l.15.05a.56.56,0,0,1,.25.76.71.71,0,0,1-.1.14"/><path class="cls-28" d="M354.63,2458.83a.56.56,0,0,1-.76,0,.56.56,0,0,1,.64-.92.54.54,0,0,1,.12.09.57.57,0,0,1,0,.8"/><path class="cls-28" d="M369,2442.1a.57.57,0,0,1-.8,0h0l0,0a.57.57,0,0,1,0-.8.56.56,0,0,1,.79,0h0v0h0a.57.57,0,0,1,0,.8"/><path class="cls-28" d="M371,2444.76a.56.56,0,0,1-.79,0l0,0,0,0a.57.57,0,0,1,0-.8.56.56,0,0,1,.79,0h0a.57.57,0,0,1,0,.8"/><path class="cls-28" d="M352.3,2456.5h0a.57.57,0,0,1-.8,0,.48.48,0,0,1-.09-.11.56.56,0,1,1,.89.11"/><path class="cls-28" d="M366.32,2440.12a.56.56,0,1,1-.15-.91l0,0a.56.56,0,0,1,.2.77l-.09.11"/><path class="cls-28" d="M350.75,2453.6a.56.56,0,0,1-.15.1.55.55,0,0,1-.75-.25.47.47,0,0,1-.06-.15.56.56,0,0,1,.45-.66.57.57,0,0,1,.64.35.6.6,0,0,1-.13.61"/><path class="cls-28" d="M363.21,2439a.59.59,0,0,1-.4.17l-.12,0a.55.55,0,0,1-.44-.66.57.57,0,0,1,1.12.11.56.56,0,0,1-.16.4"/><path class="cls-28" d="M350.13,2450.35a.57.57,0,0,1-.4.17.56.56,0,0,1-.56-.56h0a.56.56,0,0,1,1.12,0,.58.58,0,0,1-.16.4"/><path class="cls-28" d="M359.91,2438.93a.55.55,0,0,1-.39.16.52.52,0,0,1-.62-.44.61.61,0,0,1,.5-.67h.12a.56.56,0,0,1,.39,1"/><path class="cls-28" d="M350.49,2447.08a.59.59,0,0,1-.51.16.58.58,0,0,1-.44-.67,1.31,1.31,0,0,1,0-.15.56.56,0,0,1,1,.42.72.72,0,0,1-.14.24"/><path class="cls-28" d="M356.73,2439.79a.58.58,0,0,1-.2.13.56.56,0,0,1-.46-1l.15-.06a.57.57,0,0,1,.67.45.59.59,0,0,1-.16.51"/><path class="cls-28" d="M351.8,2444.06a.58.58,0,0,1-.65.1.57.57,0,0,1-.26-.75.59.59,0,0,1,.91-.16.56.56,0,0,1,.07.72l-.07.09"/><path class="cls-28" d="M354,2441.55l-.05,0a.57.57,0,0,1-.76,0,.58.58,0,0,1,.12-.88.56.56,0,0,1,.69.88"/><path class="cls-29" d="M367.38,2442.92a9.33,9.33,0,1,1-13.2,0,9.32,9.32,0,0,1,13.2,0"/><rect class="cls-30" x="404.16" y="2539.08" width="3.1" height="26.65"/><path class="cls-31" d="M401.5,2549.2c4.17,4.17,4,11.06,4,11.06s-6.89.13-11.06-4-4-11-4-11,6.89-.13,11.05,4"/><path class="cls-32" d="M409.91,2549.2c-4.16,4.17-4,11.06-4,11.06s6.89.13,11.06-4,4-11,4-11-6.89-.13-11.06,4"/><path class="cls-33" d="M419.68,2508.28s1.24-4.48-1.55-7.26-8.61-1.6-12.2,3.91l-.22.33-.22-.33c-3.59-5.51-9.31-6.8-12.21-3.91s-1.55,7.26-1.55,7.26-4.48-1.23-7.26,1.55-1.6,8.62,3.91,12.21l.33.22-.33.22c-5.51,3.58-6.8,9.31-3.91,12.2s7.26,1.55,7.26,1.55-1.23,4.49,1.55,7.27,8.62,1.6,12.21-3.91l.22-.34.22.34c3.59,5.51,9.31,6.8,12.2,3.91s1.55-7.27,1.55-7.27,4.49,1.23,7.27-1.55,1.6-8.61-3.91-12.2l-.34-.22.34-.22c5.51-3.59,6.8-9.31,3.91-12.21s-7.27-1.55-7.27-1.55"/><path class="cls-28" d="M414.49,2529.87a.57.57,0,0,1-.69.09.57.57,0,0,1-.19-.77.58.58,0,0,1,.89-.12.55.55,0,0,1,0,.75.1.1,0,0,1,0,0"/><path class="cls-28" d="M412,2532l-.08.07a.56.56,0,0,1-.72-.07.58.58,0,0,1,.15-.9.56.56,0,0,1,.65.9"/><path class="cls-28" d="M416.25,2527.08a.56.56,0,0,1-.95-.51,1.31,1.31,0,0,1,.05-.15.56.56,0,0,1,1,.46.58.58,0,0,1-.13.2"/><path class="cls-28" d="M409,2533.34a.56.56,0,0,1-.25.14.57.57,0,0,1-.67-.28.58.58,0,0,1,.25-.76l.16-.05a.56.56,0,0,1,.66.44.58.58,0,0,1-.15.51"/><path class="cls-28" d="M417.1,2523.9a.59.59,0,0,1-.4.16.56.56,0,0,1-.56-.56.49.49,0,0,1,0-.12.56.56,0,0,1,.66-.44.57.57,0,0,1,.45.63.64.64,0,0,1-.16.33"/><path class="cls-28" d="M405.71,2533.71a.58.58,0,0,1-.4.16h0a.56.56,0,0,1,0-1.12.57.57,0,0,1,.57.56.56.56,0,0,1-.16.4"/><path class="cls-28" d="M417,2520.61a.59.59,0,0,1-.4.16.57.57,0,0,1-.57-.56.52.52,0,0,1,.45-.61.59.59,0,0,1,.67.49.45.45,0,0,1,0,.12.59.59,0,0,1-.16.4"/><path class="cls-28" d="M402.47,2533.11a.57.57,0,0,1-.6.12.56.56,0,0,1,.3-1.08l.16,0a.57.57,0,0,1,.25.76l-.11.15"/><path class="cls-28" d="M399.56,2531.57a.57.57,0,0,1-.76,0,.57.57,0,0,1,.64-.93l.12.09a.59.59,0,0,1,0,.8"/><path class="cls-28" d="M413.93,2514.84a.56.56,0,0,1-.79,0h0v0a.57.57,0,0,1,0-.8.56.56,0,0,1,.79,0h0v0h0a.56.56,0,0,1,0,.79"/><path class="cls-28" d="M415.89,2517.5a.57.57,0,0,1-.8,0l0,0h0a.57.57,0,0,1,.79-.81h0s0,0,0,0h0a.57.57,0,0,1,0,.8"/><path class="cls-28" d="M397.22,2529.25h0a.59.59,0,0,1-.8,0l-.09-.12a.56.56,0,0,1,.19-.77.57.57,0,0,1,.7.89"/><path class="cls-28" d="M411.25,2512.86a.57.57,0,1,1-.16-.91l.05,0a.56.56,0,0,1,.19.77.44.44,0,0,1-.08.11"/><path class="cls-28" d="M395.67,2526.34a.71.71,0,0,1-.14.1.56.56,0,0,1-.76-.25.66.66,0,0,1,0-.15.56.56,0,0,1,1.08-.31.57.57,0,0,1-.13.61"/><path class="cls-28" d="M408.13,2511.78a.57.57,0,0,1-.4.17l-.12,0a.56.56,0,0,1,.19-1.1.55.55,0,0,1,.5.55.57.57,0,0,1-.17.4"/><path class="cls-28" d="M395.05,2523.09a.52.52,0,0,1-.39.17.57.57,0,0,1-.57-.56h0a.57.57,0,0,1,.57-.56.56.56,0,0,1,.56.56.53.53,0,0,1-.17.4"/><path class="cls-28" d="M404.84,2511.67a.56.56,0,0,1-.4.16.52.52,0,0,1-.61-.44.6.6,0,0,1,.49-.67h.12a.57.57,0,0,1,.4,1"/><path class="cls-28" d="M395.41,2519.82a.55.55,0,0,1-.51.16.57.57,0,0,1-.44-.66,1,1,0,0,1,.05-.16.57.57,0,0,1,.76-.25.57.57,0,0,1,.29.67.49.49,0,0,1-.15.24"/><path class="cls-28" d="M401.66,2512.53a.59.59,0,0,1-.92-.14.58.58,0,0,1,.26-.76l.15-.05a.56.56,0,0,1,.66.44.58.58,0,0,1-.15.51"/><path class="cls-28" d="M396.72,2516.8a.58.58,0,0,1-.65.11.56.56,0,0,1-.25-.76.59.59,0,0,1,.91-.16.57.57,0,0,1,.06.72l-.07.09"/><path class="cls-28" d="M398.87,2514.29l-.05,0a.55.55,0,0,1-.75,0,.58.58,0,0,1,.11-.89.57.57,0,0,1,.78.19.57.57,0,0,1-.09.69"/><path class="cls-34" d="M412.31,2515.66a9.33,9.33,0,1,1-13.2,0,9.34,9.34,0,0,1,13.2,0"/><rect class="cls-35" x="239.57" y="4162.55" width="4.67" height="61.4"/><path class="cls-36" d="M235.57,4188.16c6.28,6.28,6.08,16.67,6.08,16.67a21.56,21.56,0,0,1-22.76-22.76s10.39-.19,16.68,6.09"/><path class="cls-37" d="M248.25,4188.16c-6.28,6.28-6.08,16.67-6.08,16.67a21.56,21.56,0,0,0,22.76-22.76s-10.39-.19-16.68,6.09"/><path class="cls-38" d="M255.08,4126.78c0,7.35-13.17,23.12-13.17,23.12-34.07-36.2,11-48.32,13.17-23.12"/><path class="cls-39" d="M224,4130.23c7,2.27,17.92,19.67,17.92,19.67-44.95,21.2-42.54-25.41-17.92-19.67"/><path class="cls-40" d="M217.67,4160.86c4.32-5.95,24.24-11,24.24-11,6.28,49.3-37.31,32.6-24.24,11"/><path class="cls-41" d="M244.85,4176.34c-4.32-5.95-2.94-26.44-2.94-26.44,48.83,9.25,19.49,45.55,2.94,26.44"/><path class="cls-42" d="M268,4155.27c-7,2.28-26.06-5.37-26.06-5.37,23.9-43.59,49.35-4.46,26.06,5.37"/><path class="cls-43" d="M246.23,4138.33c0,3.68-4.32,11.57-4.32,11.57-10.72-16.15,2.75-25.41,4.32-11.57"/><path class="cls-43" d="M232.24,4142.21c3.5,1.14,9.67,7.69,9.67,7.69-18.66,5.2-23.32-10.46-9.67-7.69"/><path class="cls-43" d="M231.62,4156.72c2.16-3,10.29-6.82,10.29-6.82-.77,19.25-17.15,19-10.29,6.82"/><path class="cls-43" d="M245.22,4161.79c-2.17-3-3.31-11.89-3.31-11.89,18.07,6.68,12.79,22.19,3.31,11.89"/><path class="cls-43" d="M254.25,4150.43c-3.5,1.14-12.34-.53-12.34-.53,12.05-15.2,25-5.23,12.34.53"/><path class="cls-44" d="M245.34,4149.9c.06,4.44-6.92,4.45-6.86,0s6.92-4.45,6.86,0"/><rect class="cls-45" x="106.72" y="4146.01" width="4.67" height="105.93"/><path class="cls-46" d="M102.72,4171.62c6.28,6.29,6.08,16.68,6.08,16.68A21.56,21.56,0,0,1,86,4165.54s10.39-.2,16.68,6.08"/><path class="cls-47" d="M115.4,4171.62c-6.28,6.29-6.08,16.68-6.08,16.68a21.56,21.56,0,0,0,22.76-22.76s-10.4-.2-16.68,6.08"/><path class="cls-48" d="M122.23,4110.24c0,7.35-13.17,23.12-13.17,23.12-34.07-36.2,11-48.31,13.17-23.12"/><path class="cls-49" d="M91.14,4113.69c7,2.27,17.92,19.67,17.92,19.67-44.95,21.21-42.54-25.41-17.92-19.67"/><path class="cls-50" d="M84.82,4144.33c4.32-5.95,24.24-11,24.24-11,6.28,49.31-37.31,32.6-24.24,11"/><path class="cls-51" d="M112,4159.8c-4.33-5.94-2.94-26.44-2.94-26.44,48.83,9.25,19.49,45.56,2.94,26.44"/><path class="cls-52" d="M135.12,4138.74c-7,2.27-26.06-5.38-26.06-5.38,23.9-43.59,49.35-4.45,26.06,5.38"/><path class="cls-43" d="M113.38,4121.79c0,3.68-4.32,11.57-4.32,11.57-10.72-16.14,2.75-25.4,4.32-11.57"/><path class="cls-43" d="M99.39,4125.68c3.5,1.14,9.67,7.68,9.67,7.68-18.66,5.21-23.32-10.46-9.67-7.68"/><path class="cls-43" d="M98.77,4140.18c2.16-3,10.29-6.82,10.29-6.82-.77,19.25-17.15,19-10.29,6.82"/><path class="cls-43" d="M112.37,4145.26c-2.17-3-3.31-11.9-3.31-11.9,18.07,6.68,12.79,22.19,3.31,11.9"/><path class="cls-43" d="M121.4,4133.89c-3.5,1.14-12.34-.53-12.34-.53,12-15.19,25-5.22,12.34.53"/><path class="cls-44" d="M112.49,4133.36c.06,4.45-6.92,4.45-6.86,0s6.92-4.45,6.86,0"/><rect class="cls-53" x="168.83" y="4204.99" width="4.67" height="50.95"/><path class="cls-54" d="M164.83,4230.6c6.28,6.29,6.08,16.68,6.08,16.68a21.56,21.56,0,0,1-22.76-22.76s10.39-.2,16.68,6.08"/><path class="cls-55" d="M177.51,4230.6c-6.28,6.29-6.08,16.68-6.08,16.68a21.57,21.57,0,0,0,22.76-22.76s-10.4-.2-16.68,6.08"/><path class="cls-56" d="M184.34,4169.22c0,7.35-13.17,23.12-13.17,23.12-34.07-36.2,11-48.31,13.17-23.12"/><path class="cls-57" d="M153.25,4172.67c7,2.27,17.92,19.67,17.92,19.67-45,21.21-42.54-25.41-17.92-19.67"/><path class="cls-58" d="M146.93,4203.3c4.32-5.94,24.24-11,24.24-11,6.28,49.31-37.31,32.6-24.24,11"/><path class="cls-59" d="M174.1,4218.78c-4.32-5.94-2.93-26.44-2.93-26.44,48.83,9.25,19.49,45.56,2.93,26.44"/><path class="cls-60" d="M197.22,4197.72c-7,2.27-26.05-5.38-26.05-5.38,23.9-43.59,49.35-4.45,26.05,5.38"/><path class="cls-43" d="M175.49,4180.77c0,3.68-4.32,11.57-4.32,11.57-10.72-16.15,2.75-25.4,4.32-11.57"/><path class="cls-43" d="M161.5,4184.66c3.5,1.13,9.67,7.68,9.67,7.68-18.66,5.2-23.32-10.46-9.67-7.68"/><path class="cls-43" d="M160.88,4199.16c2.16-3,10.29-6.82,10.29-6.82-.77,19.25-17.15,19-10.29,6.82"/><path class="cls-43" d="M174.48,4204.24c-2.17-3-3.31-11.9-3.31-11.9,18.07,6.68,12.79,22.19,3.31,11.9"/><path class="cls-43" d="M183.51,4192.87c-3.5,1.14-12.34-.53-12.34-.53,12.05-15.19,25-5.23,12.34.53"/><path class="cls-44" d="M174.6,4192.34c.06,4.45-6.93,4.45-6.86,0s6.92-4.45,6.86,0"/><rect class="cls-61" x="1760.31" y="3957.55" width="4.88" height="238.26"/><path class="cls-62" d="M1756.12,3977.86c6.57,8.37,6.36,22.2,6.36,22.2s-10.86.27-17.43-8.1-6.35-22.2-6.35-22.2,10.85-.27,17.42,8.1"/><path class="cls-63" d="M1769.37,3977.86c-6.56,8.37-6.35,22.2-6.35,22.2s10.85.27,17.42-8.1,6.36-22.2,6.36-22.2-10.86-.27-17.43,8.1"/><path class="cls-64" d="M1774.58,3954.45c0,8.33-5.3,15.08-11.83,15.08s-11.84-6.75-11.84-15.08v-49.79c0-8.33,5.3-15.08,11.84-15.08s11.83,6.75,11.83,15.08Z"/><rect class="cls-65" x="1851.65" y="3982.04" width="4.88" height="128.9"/><path class="cls-66" d="M1847.46,4002.35c6.57,8.37,6.36,22.2,6.36,22.2s-10.86.26-17.42-8.1-6.36-22.2-6.36-22.2,10.86-.27,17.42,8.1"/><path class="cls-67" d="M1860.72,4002.35c-6.57,8.37-6.36,22.2-6.36,22.2s10.86.26,17.42-8.1,6.36-22.2,6.36-22.2-10.86-.27-17.42,8.1"/><path class="cls-64" d="M1865.92,3978.94c0,8.33-5.29,15.08-11.83,15.08s-11.83-6.75-11.83-15.08v-49.8c0-8.32,5.3-15.07,11.83-15.07s11.83,6.75,11.83,15.07Z"/><rect class="cls-68" x="1810.22" y="4003.98" width="4.88" height="161.35"/><path class="cls-69" d="M1806,4024.29c6.56,8.37,6.35,22.2,6.35,22.2s-10.86.27-17.42-8.1-6.36-22.2-6.36-22.2,10.86-.27,17.43,8.1"/><path class="cls-70" d="M1819.29,4024.29c-6.56,8.37-6.36,22.2-6.36,22.2s10.86.27,17.43-8.1,6.35-22.2,6.35-22.2-10.85-.27-17.42,8.1"/><path class="cls-64" d="M1824.5,4000.88c0,8.33-5.3,15.08-11.84,15.08s-11.83-6.75-11.83-15.08v-49.79c0-8.33,5.3-15.08,11.83-15.08s11.84,6.75,11.84,15.08Z"/><path class="cls-71" d="M94.61,70.2C76.36,74.75,62.6,91.62,60.08,110a43,43,0,0,0,.67,15.59,1.46,1.46,0,0,0,1,1A56,56,0,0,0,94.65,123l-1.52-2.59a43.34,43.34,0,0,0-19.71,23.39A41.5,41.5,0,0,0,71,159.3c.2,5.29,1.37,11.12,5.45,14.84,8.34,7.61,20.56,1.5,28.21-4,5.41-3.91,10.45-8.38,15.62-12.59l16.19-13.21,37-30.18c1.5-1.22-.63-3.34-2.12-2.12l-61.68,50.3c-4.29,3.51-8.54,7-13.52,9.5-4.06,2-9,3.74-13.57,2.44-10.24-2.93-9.48-17.74-7.41-25.83A40.46,40.46,0,0,1,94.65,123c1.73-.94.21-3.34-1.52-2.59a52.43,52.43,0,0,1-30.54,3.37l1,1c-3.93-17,4.25-35.63,18.36-45.54a40.36,40.36,0,0,1,13.4-6.17c1.88-.46,1.08-3.36-.79-2.89Z"/><polygon class="cls-72" points="436.45 1559.26 452.09 1560.97 463.99 1559.26 469.2 1545.2 459.56 1534.41 422.21 1532.2 426.64 1560.97 436.45 1559.26"/><polygon class="cls-73" points="283.9 1678.55 538.39 1673.33 554.83 1668.98 564.84 1662.89 564.84 1665.5 556.26 1671.59 539.1 1675.94 283.9 1681.16 283.9 1678.55"/><path class="cls-74" d="M469.2,1482.14l-3.37,9.32s-25.91,15.29-33.16,14.77-9.33,21.77-6,28.5,10.62,27,10.62,27l-2.59,30-8.81,23.32-2.85,1.4,13.22,23.48-6.48,28.5,6.48,2.33-2.6,5.18H401.32l-.78-48.45-13.21-2.85-9.07,40.94,9.07,1.55-2.59,8.81H345.35l8.29-70.73-6.73,1.55-1.56-6,6.22-11.4,7-58.55,3.11-23.58,22.8-24.36,47.93-16.32s11.14-.26,15.8,2.07,10.89,9.85,10.89,9.85Z"/><polygon class="cls-75" points="404.69 1500.02 421.79 1517.63 460.91 1530.07 465.83 1538.88 461.43 1552.35 450.79 1554.17 421.01 1551.06 409.61 1547.17 400.11 1540.67 383.44 1527.22 404.69 1500.02"/><polygon class="cls-76" points="431.54 1470.74 438.98 1461.97 442.97 1463.57 445.22 1472.63 431.54 1470.74"/><polygon class="cls-77" points="500.91 1549.82 463.51 1535.91 463.51 1557.65 500.91 1549.82"/><line class="cls-78" x1="497.5" y1="1550.54" x2="1024.95" y2="1550.54"/><polygon class="cls-79" points="1095.31 1653.33 1300.99 1653.33 1393.12 1625.51 1472.02 1557.56 1437.36 1546.15 1362.11 1538.86 1291.42 1538.86 1115.83 1538.86 1017.78 1580.81 986.77 1631.89 951.2 1631.89 937.97 1646.94 983.12 1646.94 1008.66 1635.08 1052.44 1653.33 1095.31 1653.33"/><polygon class="cls-80" points="1311.24 1538.86 1245.36 1452.2 1169.19 1416.63 1115.83 1411.16 1115.83 1416.63 1167.37 1421.65 1238.06 1455.4 1304.99 1538.86 1311.24 1538.86"/><polygon class="cls-81" points="1133.79 1418.38 1161.9 1458.59 1115.83 1538.86 1122.22 1538.86 1168.28 1458.13 1140.01 1418.46 1133.79 1418.38"/><polygon class="cls-82" points="1270.61 1495.99 1222.55 1503.74 1118.57 1538.86 1123.46 1538.86 1222.55 1506.02 1272.02 1497.74 1270.61 1495.99"/><polygon class="cls-83" points="1255.63 1500.49 1274.62 1538.86 1288.58 1538.86 1265.71 1498.8 1255.63 1500.49"/><polygon class="cls-84" points="1019.25 1582.22 1019.25 1550.49 1024.34 1550.59 1024.34 1582.2 1019.25 1582.22"/><polygon class="cls-85" points="1531.53 2898.27 1531.53 2984.67 1536.33 2991.07 1545.93 2991.07 1555.53 2986.27 1555.53 2893.47 1531.53 2898.27"/><polygon class="cls-86" points="1693.13 2971.87 1693.13 3058.27 1697.93 3064.67 1707.53 3064.67 1717.13 3059.87 1717.13 2967.07 1693.13 2971.87"/><polygon class="cls-87" points="1817.93 2912.67 1817.93 2999.07 1822.73 3005.47 1832.33 3005.47 1841.93 3000.67 1841.93 2907.87 1817.93 2912.67"/><polygon class="cls-71" points="1531.53 2899.87 1669.13 2963.87 1697.93 2951.07 1561.93 2890.27 1531.53 2899.87"/><polygon class="cls-88" points="1528.33 2901.47 1528.33 2920.67 1669.13 2986.27 1669.13 2963.87 1533.13 2899.87 1528.33 2901.47"/><polygon class="cls-89" points="1552.33 2845.47 1555.53 2856.67 1553.93 2869.47 1547.53 2880.67 1528.33 2883.87 1528.33 2901.47 1561.93 2890.27 1709.13 2955.87 1734.73 2947.87 1731.53 2883.87 1552.33 2845.47"/><polygon class="cls-90" points="1864.33 2843.87 1809.93 2823.07 1733.13 2823.07 1552.33 2845.47 1712.33 2909.47 1739.53 2917.47 1853.13 2869.47 1864.33 2843.87"/><polygon class="cls-91" points="1669.13 2963.87 1696.33 2951.07 1712.33 2938.27 1712.33 2909.47 1797.13 2887.07 1801.93 2880.67 1801.93 2869.47 1808.33 2866.27 1845.13 2859.87 1864.33 2843.87 1864.33 2903.07 1837.13 2914.27 1813.13 2920.67 1793.93 2951.07 1669.13 2986.27 1669.13 2963.87"/><polygon class="cls-92" points="1598.73 2953.47 1598.73 3000.67 1592.33 3000.67 1592.33 3016.67 1614.73 3032.67 1630.73 3024.67 1630.73 3011.87 1625.93 3011.87 1625.93 2967.07 1598.73 2953.47"/><polygon class="cls-93" points="1512.29 2980.18 1512.29 2980.18 1517.7 3001.83 1512.29 3023.48 1501.46 3023.48 1493.35 3001.83 1493.35 2980.18 1508.69 2972.96 1512.29 2980.18"/><polygon class="cls-94" points="1502.54 3017.26 1502.47 3032.6 1507.58 3037.71 1512.69 3037.71 1517.8 3032.6 1517.8 3032.6 1522.91 3032.6 1528.03 3037.71 1533.14 3032.6 1522.91 3022.38 1512.69 3027.49 1512.69 3022.38 1512.69 3017.26 1502.54 3017.26"/><polygon class="cls-95" points="1505.28 2804.26 1478.01 2811.08 1471.19 2829.82 1471.19 2855.38 1464.38 2870.72 1464.38 2964.44 1445.63 3012.15 1449.04 3018.97 1455.86 3018.97 1466.08 2995.11 1469.49 2993.41 1462.67 3015.56 1466.08 3018.97 1471.19 3018.97 1483.12 2990 1486.53 2991.7 1479.71 3012.15 1483.12 3012.15 1493.35 2991.7 1501.87 2988.3 1515.5 2974.66 1547.88 2921.84 1547.88 2896.28 1539.36 2874.13 1527.43 2867.31 1535.95 2855.38 1539.36 2840.05 1539.36 2829.82 1529.13 2816.19 1505.28 2804.26"/><polygon class="cls-96" points="1528.2 2828.24 1532.54 2833.23 1532.54 2841.75 1530.84 2850.27 1503.57 2867.31 1478.01 2848.57 1478.01 2833.23 1478.01 2828.12 1484.83 2823.01 1522.32 2823.01 1528.2 2828.24"/><polygon class="cls-97" points="1515.5 2814.49 1525.72 2802.56 1535.95 2802.56 1547.88 2790.63 1547.88 2800.86 1544.47 2814.49 1530.84 2826.41 1508.68 2841.75 1500.16 2841.75 1483.12 2826.41 1464.38 2814.49 1459.27 2799.15 1459.27 2785.52 1474.6 2802.56 1488.23 2804.26 1493.35 2814.49 1515.5 2814.49"/><circle class="cls-98" cx="1517.2" cy="2841.75" r="6.82"/><circle class="cls-99" cx="1491.64" cy="2841.75" r="6.82"/><polygon class="cls-100" points="1508.12 2864.47 1503.57 2858.79 1498.97 2863.93 1503.57 2872.42 1508.12 2864.47"/><polygon class="cls-101" points="1472.9 2891.17 1546.75 2867.31 1658.63 2923.54 1658.63 2925.25 1656.4 2926.95 1629.54 2916.73 1651.92 2928.66 1651.92 2930.36 1647.45 2932.06 1629.54 2921.84 1640.73 2935.47 1640.73 2937.18 1638.49 2938.88 1625.07 2923.54 1631.78 2940.58 1629.54 2942.29 1627.31 2940.58 1618.36 2923.54 1620.59 2945.7 1618.36 2947.4 1616.12 2945.7 1613.88 2925.25 1609.4 2947.4 1607.17 2949.1 1604.93 2947.4 1604.93 2943.99 1537.8 2916.73 1479.61 2923.54 1472.9 2891.17"/><polygon class="cls-102" points="1501.94 2986.43 1501.94 2986.43 1507.35 3008.08 1501.94 3029.72 1491.12 3029.72 1483 3008.08 1483 2986.43 1498.34 2979.2 1501.94 2986.43"/><polygon class="cls-103" points="1492.19 3019.51 1492.12 3034.84 1497.23 3039.96 1502.34 3039.96 1507.45 3034.84 1507.45 3034.84 1512.57 3034.84 1517.68 3039.96 1522.79 3034.84 1512.57 3024.62 1502.34 3029.73 1502.34 3024.62 1502.34 3019.51 1492.19 3019.51"/><polygon class="cls-104" points="168.52 6363.22 170.42 6360.57 197.43 6380.06 196.48 6381.38 195.52 6382.71 168.52 6363.22"/><rect class="cls-105" x="161.82" y="6359.72" width="15.34" height="3.95" rx="1.01" transform="translate(198.55 12725.57) rotate(-178.74)"/><path class="cls-106" d="M162.85,6359.09l13.38.29a1.46,1.46,0,0,1,1.43,1.49l0,2a1.46,1.46,0,0,1-1.49,1.42l-13.39-.29a1.46,1.46,0,0,1-1.42-1.49l0-2A1.46,1.46,0,0,1,162.85,6359.09Zm13.3,4.24a.48.48,0,0,0,.5-.48l0-2a.49.49,0,0,0-.49-.5l-13.38-.3a.5.5,0,0,0-.51.48l0,2a.48.48,0,0,0,.48.5Z"/><circle class="cls-107" cx="169.49" cy="6361.69" r="1.53"/><path class="cls-108" d="M296,6264.14c0,6-5.5,11-12.36,11.32h-13v-2.89h13c5.38-.25,9.68-3.85,9.68-8.43s-4.3-8.1-9.68-8.35H265.81v-2.89h17.87C290.54,6253.16,296,6258.1,296,6264.14Z"/><rect class="cls-109" x="259.6" y="6250.28" width="2.89" height="16.61" transform="translate(5103.69 2285.32) rotate(53.02)"/><path class="cls-110" d="M165.93,6264.49l-16.29,3.86a2.39,2.39,0,0,0-1.47,1c-1.77,2.71-7.8,10.78-11.07.16-3.5-11.39,3.36-12.42,4.63-12.51h.33l23.38,1.55A3,3,0,0,1,165.93,6264.49Z"/><path class="cls-111" d="M194.49,6364.08l1.67-3.6a.35.35,0,0,1,.64,0l1.68,3.6Z"/><path class="cls-111" d="M199.24,6364.56h-5.51l2-4.28a.81.81,0,0,1,.75-.48h0a.81.81,0,0,1,.75.48Zm-4-1h2.48l-1.24-2.66Z"/><path class="cls-111" d="M189.26,6365.54l.48-3.94a.36.36,0,0,1,.61-.2l2.71,2.91Z"/><path class="cls-111" d="M188.69,6366.23l.58-4.69a.82.82,0,0,1,.56-.69.85.85,0,0,1,.87.22l3.23,3.46Zm1.5-4.29-.36,2.91,2.36-.77Z"/><path class="cls-111" d="M184.74,6368.54l-.76-3.9a.36.36,0,0,1,.52-.37l3.47,1.92Z"/><path class="cls-111" d="M184.41,6369.37l-.9-4.63a.82.82,0,0,1,.33-.83.8.8,0,0,1,.89-.06l4.14,2.29Zm.1-4.54.56,2.88,2-1.46Z"/><path class="cls-111" d="M181.37,6372.79l-1.92-3.47a.35.35,0,0,1,.37-.51l3.9.75Z"/><path class="cls-111" d="M181.32,6373.69l-2.29-4.13a.84.84,0,0,1,.05-.9.81.81,0,0,1,.83-.32l4.64.89Zm-1.31-4.35,1.42,2.56,1.45-2Z"/><path class="cls-111" d="M179.48,6377.88l-2.9-2.71a.35.35,0,0,1,.19-.6l3.94-.49Z"/><path class="cls-111" d="M179.7,6378.75l-3.45-3.23a.82.82,0,0,1-.23-.86.84.84,0,0,1,.69-.57l4.7-.58Zm-2.59-3.74,2.15,2,.76-2.36Z"/><path class="cls-111" d="M179.25,6383.3l-3.6-1.68a.35.35,0,0,1,0-.63l3.6-1.68Z"/><path class="cls-111" d="M179.73,6384.06l-4.28-2a.84.84,0,0,1-.48-.75.83.83,0,0,1,.48-.76l4.28-2Zm-3.61-2.75,2.65,1.23v-2.47Z"/><path class="cls-111" d="M180.71,6388.53l-3.94-.49a.35.35,0,0,1-.19-.6l2.9-2.71Z"/><path class="cls-111" d="M181.4,6389.1l-4.69-.58a.84.84,0,0,1-.69-.57.82.82,0,0,1,.23-.86l3.45-3.23Zm-4.29-1.5,2.91.36-.77-2.36Z"/><path class="cls-111" d="M183.71,6393.05l-3.89.75a.35.35,0,0,1-.37-.51l1.92-3.47Z"/><path class="cls-111" d="M179.75,6394.29a.82.82,0,0,1-.67-.34.84.84,0,0,1-.06-.89l2.29-4.14,3.24,4.45-4.64.91Zm1.67-3.58-1.41,2.57,2.87-.56Z"/><path class="cls-111" d="M188,6396.42l-3.48,1.92a.35.35,0,0,1-.51-.37l.76-3.9Z"/><path class="cls-111" d="M184.32,6398.87a.84.84,0,0,1-.48-.16.82.82,0,0,1-.33-.83l.9-4.64,4.45,3.23-4.13,2.29A.87.87,0,0,1,184.32,6398.87Zm.75-4-.56,2.87,2.56-1.42Z"/><path class="cls-111" d="M193.05,6398.31l-2.7,2.9a.35.35,0,0,1-.61-.19l-.48-4Z"/><path class="cls-111" d="M190.09,6401.81a.85.85,0,0,1-.26-.05.81.81,0,0,1-.56-.68l-.59-4.7,5.24,1.7-3.22,3.46A.84.84,0,0,1,190.09,6401.81Zm-.26-4,.36,2.9,2-2.14Z"/><path class="cls-111" d="M198.47,6398.54l-1.67,3.59a.35.35,0,0,1-.64,0l-1.68-3.59Z"/><path class="cls-111" d="M196.48,6402.82a.83.83,0,0,1-.75-.48l-2-4.29h5.5l-2,4.29a.83.83,0,0,1-.75.48Zm-1.24-3.8,1.24,2.65,1.24-2.65Z"/><path class="cls-111" d="M203.7,6397.08l-.48,3.94a.35.35,0,0,1-.6.19l-2.72-2.9Z"/><path class="cls-111" d="M202.87,6401.81a.84.84,0,0,1-.61-.27l-3.23-3.45,5.24-1.7-.58,4.69a.81.81,0,0,1-.56.68A.85.85,0,0,1,202.87,6401.81Zm-2.1-3.28,2,2.14.36-2.9Z"/><path class="cls-111" d="M208.22,6394.07l.76,3.9a.35.35,0,0,1-.51.37l-3.48-1.92Z"/><path class="cls-111" d="M208.64,6398.87a.87.87,0,0,1-.41-.11l-4.14-2.29,4.46-3.23.9,4.64a.82.82,0,0,1-.33.83A.84.84,0,0,1,208.64,6398.87Zm-2.75-2.51,2.56,1.42-.56-2.87Z"/><path class="cls-111" d="M211.59,6389.82l1.92,3.47a.35.35,0,0,1-.37.51l-3.9-.75Z"/><path class="cls-111" d="M213.21,6394.29h-.16l-4.64-.9,3.23-4.45,2.3,4.13a.84.84,0,0,1-.06.89A.81.81,0,0,1,213.21,6394.29Zm-3.13-1.57,2.87.56-1.42-2.56Z"/><path class="cls-111" d="M213.48,6384.74l2.9,2.7a.35.35,0,0,1-.19.6l-3.94.49Z"/><path class="cls-111" d="M211.56,6389.1l1.7-5.23,3.45,3.22a.82.82,0,0,1,.23.86.83.83,0,0,1-.69.57Zm2.15-3.5-.77,2.36,2.91-.36Z"/><path class="cls-111" d="M213.71,6379.32l3.6,1.67a.35.35,0,0,1,0,.63l-3.6,1.69Z"/><path class="cls-111" d="M213.23,6384.06v-5.5l4.28,2a.8.8,0,0,1,.48.75.82.82,0,0,1-.48.75Zm1-4v2.48l2.65-1.24Z"/><path class="cls-111" d="M212.25,6374.09l3.94.48a.35.35,0,0,1,.2.6l-2.91,2.71Z"/><path class="cls-111" d="M213.26,6378.75l-1.7-5.23,4.69.57a.83.83,0,0,1,.46,1.44Zm-.32-4.09.77,2.36,2.14-2Z"/><path class="cls-111" d="M209.25,6369.57l3.89-.76a.35.35,0,0,1,.38.51l-1.93,3.48Z"/><path class="cls-111" d="M211.65,6373.69l-3.24-4.45,4.64-.9a.81.81,0,0,1,.83.32.84.84,0,0,1,.06.89Zm-1.57-3.79,1.46,2,1.42-2.56Z"/><path class="cls-111" d="M205,6366.2l3.48-1.93a.35.35,0,0,1,.51.37l-.76,3.9Z"/><path class="cls-111" d="M208.55,6369.38l-4.45-3.24,4.13-2.29a.8.8,0,0,1,.89.06.82.82,0,0,1,.33.83Zm-2.66-3.13,2,1.46.56-2.88Z"/><path class="cls-111" d="M199.91,6364.31l2.71-2.91a.35.35,0,0,1,.6.2l.49,3.94Z"/><path class="cls-111" d="M204.28,6366.23l-5.24-1.7,3.22-3.46a.85.85,0,0,1,.87-.22.81.81,0,0,1,.56.69Zm-3.5-2.15,2.35.77-.36-2.91Z"/><circle class="cls-111" cx="196.48" cy="6381.31" r="7.1"/><path class="cls-111" d="M196.48,6389.57a8.26,8.26,0,1,1,8.26-8.26A8.27,8.27,0,0,1,196.48,6389.57Zm0-14.2a5.94,5.94,0,1,0,6,5.94A5.95,5.95,0,0,0,196.48,6375.37Z"/><path class="cls-111" d="M196.48,6400.1a18.79,18.79,0,1,1,18.79-18.79A18.81,18.81,0,0,1,196.48,6400.1Zm0-34.69a15.9,15.9,0,1,0,15.9,15.9A15.91,15.91,0,0,0,196.48,6365.41Z"/><path class="cls-111" d="M196.48,6400.58a19.27,19.27,0,1,1,19.27-19.27A19.3,19.3,0,0,1,196.48,6400.58Zm0-37.58a18.31,18.31,0,1,0,18.31,18.31A18.33,18.33,0,0,0,196.48,6363Zm0,34.69a16.38,16.38,0,1,1,16.38-16.38A16.4,16.4,0,0,1,196.48,6397.69Zm0-31.8a15.42,15.42,0,1,0,15.42,15.42A15.44,15.44,0,0,0,196.48,6365.89Z"/><circle cx="196.64" cy="6381.44" r="0.72"/><path class="cls-112" d="M302.65,6433.22A60.32,60.32,0,1,1,363,6372.9,60.39,60.39,0,0,1,302.65,6433.22Zm0-116.1a55.79,55.79,0,1,0,55.78,55.78A55.85,55.85,0,0,0,302.65,6317.12Z"/><rect class="cls-113" x="301.9" y="6318.64" width="0.52" height="54.27"/><rect class="cls-114" x="280.67" y="6346.1" width="54.27" height="0.52" transform="translate(-5963.87 5327.95) rotate(-78)"/><rect class="cls-115" x="286.06" y="6347.86" width="54.27" height="0.52" transform="translate(-5613.48 4052.22) rotate(-66)"/><rect class="cls-116" x="290.97" y="6350.69" width="54.27" height="0.52" transform="matrix(0.59, -0.81, 0.81, 0.59, -5006.9, 2875.31)"/><rect class="cls-117" x="295.19" y="6354.49" width="54.27" height="0.52" transform="translate(-4169.37 1847.93) rotate(-42)"/><rect class="cls-118" x="298.52" y="6359.08" width="54.27" height="0.52" transform="translate(-3136.04 1014.82) rotate(-30)"/><rect class="cls-119" x="300.83" y="6364.26" width="54.27" height="0.52" transform="matrix(0.95, -0.31, 0.31, 0.95, -1950.69, 412.85)"/><rect class="cls-120" x="302.01" y="6369.81" width="54.27" height="0.52" transform="translate(-664.05 69.3) rotate(-6)"/><rect class="cls-121" x="328.88" y="6348.61" width="0.52" height="54.27" transform="translate(-6046.07 6036.64) rotate(-84)"/><rect class="cls-122" x="327.71" y="6354.15" width="0.52" height="54.27" transform="matrix(0.31, -0.95, 0.95, 0.31, -5842.35, 4721.28)"/><rect class="cls-123" x="325.4" y="6359.34" width="0.52" height="54.27" transform="matrix(0.5, -0.87, 0.87, 0.5, -5368.02, 3475.26)"/><rect class="cls-124" x="322.06" y="6363.93" width="0.52" height="54.27" transform="translate(-4642.84 2354.14) rotate(-48)"/><rect class="cls-125" x="317.85" y="6367.72" width="0.52" height="54.27" transform="translate(-3698.05 1408.29) rotate(-36)"/><rect class="cls-126" x="312.94" y="6370.56" width="0.52" height="54.27" transform="translate(-2575.1 680.5) rotate(-24)"/><rect class="cls-127" x="307.54" y="6372.31" width="0.52" height="54.27" transform="translate(-1323.79 203.84) rotate(-12)"/><rect class="cls-128" x="301.9" y="6372.9" width="0.52" height="54.27"/><rect class="cls-129" x="269.38" y="6399.19" width="54.27" height="0.52" transform="translate(-6024.73 5358.96) rotate(-78)"/><rect class="cls-130" x="263.99" y="6397.43" width="54.27" height="0.52" transform="translate(-5671.87 4061.47) rotate(-66)"/><rect class="cls-131" x="259.08" y="6394.6" width="54.27" height="0.52" transform="matrix(0.59, -0.81, 0.81, 0.59, -5055.57, 2867.6)"/><rect class="cls-132" x="254.86" y="6390.8" width="54.27" height="0.52" transform="translate(-4204.02 1830.27) rotate(-42)"/><rect class="cls-133" x="251.53" y="6386.21" width="54.27" height="0.52" transform="translate(-3155.9 994.95) rotate(-30)"/><rect class="cls-134" x="249.22" y="6381.03" width="54.27" height="0.52" transform="translate(-1958.4 397.72) rotate(-18)"/><rect class="cls-135" x="248.04" y="6375.48" width="54.27" height="0.52" transform="translate(-664.94 63.69) rotate(-6)"/><rect class="cls-136" x="274.91" y="6342.93" width="0.52" height="54.27" transform="translate(-6088.76 5977.88) rotate(-84)"/><rect class="cls-137" x="276.09" y="6337.38" width="0.52" height="54.27" transform="translate(-5862.06 4660.6) rotate(-72)"/><rect class="cls-138" x="278.4" y="6332.2" width="0.52" height="54.27" transform="matrix(0.5, -0.87, 0.87, 0.5, -5368.02, 3421)"/><rect class="cls-139" x="281.73" y="6327.61" width="0.52" height="54.27" transform="translate(-4629.19 2312.15) rotate(-48)"/><rect class="cls-140" x="285.95" y="6323.82" width="0.52" height="54.27" transform="translate(-3678.33 1381.15) rotate(-36)"/><rect class="cls-141" x="290.86" y="6320.98" width="0.52" height="54.27" transform="translate(-2556.84 667.23) rotate(-24)"/><rect class="cls-142" x="296.26" y="6319.23" width="0.52" height="54.27" transform="translate(-1313 200.33) rotate(-12)"/><rect class="cls-113" x="301.9" y="6318.64" width="0.52" height="54.27"/><circle class="cls-143" cx="302.42" cy="6372.84" r="4.7"/><path class="cls-144" d="M302.42,6378.5a5.67,5.67,0,1,1,5.66-5.66A5.67,5.67,0,0,1,302.42,6378.5Zm0-9.4a3.74,3.74,0,1,0,3.74,3.74A3.75,3.75,0,0,0,302.42,6369.1Z"/><path class="cls-145" d="M116.75,6430.3A60.32,60.32,0,1,1,177.07,6370,60.38,60.38,0,0,1,116.75,6430.3Zm0-116.1A55.79,55.79,0,1,0,172.53,6370,55.85,55.85,0,0,0,116.75,6314.2Z"/><rect class="cls-146" x="116.35" y="6315.78" width="0.52" height="54.27"/><rect class="cls-147" x="95.11" y="6343.25" width="54.27" height="0.52" transform="translate(-6108.06 5144.2) rotate(-78)"/><rect class="cls-148" x="100.51" y="6345" width="54.27" height="0.52" transform="translate(-5720.96 3881.02) rotate(-66)"/><rect class="cls-149" x="105.42" y="6347.84" width="54.27" height="0.52" transform="translate(-5081.08 2724.02) rotate(-54)"/><rect class="cls-150" x="109.64" y="6351.64" width="54.27" height="0.52" transform="translate(-4215.12 1723.03) rotate(-42)"/><rect class="cls-151" x="112.97" y="6356.23" width="54.27" height="0.52" transform="translate(-3159.47 921.66) rotate(-30)"/><rect class="cls-152" x="115.28" y="6361.41" width="54.27" height="0.52" transform="translate(-1958.89 355.37) rotate(-18)"/><rect class="cls-153" x="116.46" y="6366.96" width="54.27" height="0.52" transform="translate(-664.77 49.89) rotate(-6)"/><rect class="cls-154" x="143.33" y="6345.75" width="0.52" height="54.27" transform="translate(-6209.4 5849.54) rotate(-84)"/><rect class="cls-155" x="142.15" y="6351.3" width="0.52" height="54.27" transform="translate(-5967.85 4542.83) rotate(-72)"/><rect class="cls-156" x="139.84" y="6356.49" width="0.52" height="54.27" transform="translate(-5458.32 3313.14) rotate(-60)"/><rect class="cls-157" x="136.51" y="6361.07" width="0.52" height="54.27" transform="translate(-4702.11 2215.3) rotate(-48)"/><rect class="cls-158" x="132.29" y="6364.87" width="0.52" height="54.27" transform="translate(-3731.81 1298.68) rotate(-36)"/><rect class="cls-159" x="127.38" y="6367.71" width="0.52" height="54.27" transform="translate(-2589.98 604.78) rotate(-24)"/><rect class="cls-160" x="121.99" y="6369.46" width="0.52" height="54.27" transform="translate(-1327.26 165.2) rotate(-12)"/><rect class="cls-161" x="116.35" y="6370.05" width="0.52" height="54.27"/><rect class="cls-162" x="83.83" y="6396.33" width="54.27" height="0.52" transform="translate(-6168.92 5175.21) rotate(-78)"/><rect class="cls-163" x="78.43" y="6394.58" width="54.27" height="0.52" transform="translate(-5779.35 3890.27) rotate(-66)"/><rect class="cls-164" x="73.52" y="6391.74" width="54.27" height="0.52" transform="translate(-5129.75 2716.31) rotate(-54)"/><rect class="cls-165" x="69.31" y="6387.95" width="54.27" height="0.52" transform="translate(-4249.77 1705.38) rotate(-42)"/><rect class="cls-166" x="65.97" y="6383.36" width="54.27" height="0.52" transform="translate(-3179.34 901.8) rotate(-30)"/><rect class="cls-167" x="63.67" y="6378.18" width="54.27" height="0.52" transform="matrix(0.95, -0.31, 0.31, 0.95, -1966.6, 340.24)"/><rect class="cls-168" x="62.49" y="6372.63" width="54.27" height="0.52" transform="translate(-665.66 44.28) rotate(-6)"/><rect class="cls-169" x="89.36" y="6340.08" width="0.52" height="54.27" transform="translate(-6252.08 5790.79) rotate(-84)"/><rect class="cls-170" x="90.54" y="6334.53" width="0.52" height="54.27" transform="translate(-5987.56 4482.16) rotate(-72)"/><rect class="cls-171" x="92.85" y="6329.35" width="0.52" height="54.27" transform="translate(-5458.32 3258.88) rotate(-60)"/><rect class="cls-172" x="96.18" y="6324.76" width="0.52" height="54.27" transform="translate(-4688.47 2173.32) rotate(-48)"/><rect class="cls-173" x="100.4" y="6320.97" width="0.52" height="54.27" transform="translate(-3712.1 1271.54) rotate(-36)"/><rect class="cls-174" x="105.31" y="6318.13" width="0.52" height="54.27" transform="translate(-2571.72 591.52) rotate(-24)"/><rect class="cls-175" x="110.7" y="6316.38" width="0.52" height="54.27" transform="translate(-1316.47 161.69) rotate(-12)"/><rect class="cls-146" x="116.35" y="6315.78" width="0.52" height="54.27"/><circle class="cls-176" cx="115.9" cy="6369.08" r="5.67"/><path class="cls-177" d="M115.9,6375.92a6.84,6.84,0,1,1,6.83-6.84A6.84,6.84,0,0,1,115.9,6375.92Zm0-11.34a4.51,4.51,0,1,0,4.51,4.5A4.51,4.51,0,0,0,115.9,6364.58Z"/><path class="cls-178" d="M102,6353.59H94.13a3.73,3.73,0,0,1-2.82-1.29l-17.12-19.69a6.59,6.59,0,0,1-1.63-4.34V6307.4a6.67,6.67,0,0,1,6.66-6.67h27.83v47.86A5,5,0,0,1,102,6353.59Zm-22.82-50.93a4.74,4.74,0,0,0-4.73,4.74v20.87a4.7,4.7,0,0,0,1.15,3.08L92.76,6351a1.82,1.82,0,0,0,1.37.62H102a3.08,3.08,0,0,0,3.08-3.07v-45.93Z"/><path class="cls-179" d="M121,6303.81H106.08v-2.11c.18,0,17.44.13,24.28,0,5.84-.12,6.28-13.39,6.28-13.51l1.93.05c0,.58-.41,15.41-8.17,15.57C128.1,6303.85,124.57,6303.81,121,6303.81Z"/><polygon class="cls-180" points="225.04 6399.17 223.19 6401.86 195.76 6382.97 196.68 6381.63 197.61 6380.28 225.04 6399.17"/><path class="cls-181" d="M115.24,6363.43l.55-1.18a.12.12,0,0,1,.21,0l.55,1.18Z"/><path class="cls-181" d="M113.53,6363.91l.16-1.3a.11.11,0,0,1,.19-.06l.89.95Z"/><path class="cls-181" d="M112,6364.89l-.24-1.28a.11.11,0,0,1,.16-.12l1.14.63Z"/><path class="cls-181" d="M110.94,6366.29l-.63-1.14a.11.11,0,0,1,.12-.17l1.28.25Z"/><path class="cls-181" d="M110.32,6368l-1-.89a.12.12,0,0,1,.07-.2l1.29-.16Z"/><path class="cls-181" d="M110.24,6369.74l-1.18-.55a.12.12,0,0,1,0-.21l1.18-.55Z"/><path class="cls-181" d="M110.72,6371.45l-1.29-.16a.11.11,0,0,1-.07-.19l1-.89Z"/><path class="cls-181" d="M111.71,6372.94l-1.28.24a.11.11,0,0,1-.12-.16l.63-1.14Z"/><path class="cls-181" d="M113.1,6374l-1.14.63a.12.12,0,0,1-.17-.12l.25-1.28Z"/><path class="cls-181" d="M114.77,6374.66l-.89,1a.11.11,0,0,1-.19-.07l-.16-1.29Z"/><path class="cls-181" d="M116.55,6374.74l-.55,1.18a.12.12,0,0,1-.21,0l-.55-1.18Z"/><path class="cls-181" d="M118.27,6374.26l-.16,1.29a.12.12,0,0,1-.2.07l-.89-1Z"/><path class="cls-181" d="M119.75,6373.27l.25,1.28a.11.11,0,0,1-.17.12l-1.14-.63Z"/><path class="cls-181" d="M120.86,6371.88l.63,1.14a.12.12,0,0,1-.12.17l-1.28-.25Z"/><path class="cls-181" d="M121.48,6370.21l1,.89a.11.11,0,0,1-.06.19l-1.3.16Z"/><path class="cls-181" d="M121.55,6368.43l1.18.55a.12.12,0,0,1,0,.21l-1.18.55Z"/><path class="cls-181" d="M121.07,6366.71l1.29.16a.12.12,0,0,1,.07.2l-1,.89Z"/><path class="cls-181" d="M120.09,6365.23l1.28-.25a.12.12,0,0,1,.12.17l-.63,1.14Z"/><path class="cls-181" d="M118.69,6364.12l1.14-.63a.12.12,0,0,1,.17.12l-.25,1.28Z"/><path class="cls-181" d="M117,6363.5l.89-.95a.12.12,0,0,1,.2.06l.16,1.3Z"/><circle class="cls-182" cx="115.9" cy="6369.08" r="2.33"/><path class="cls-181" d="M115.9,6375.25a6.17,6.17,0,1,1,6.16-6.17A6.18,6.18,0,0,1,115.9,6375.25Zm0-11.38a5.22,5.22,0,1,0,5.21,5.21A5.22,5.22,0,0,0,115.9,6363.87Z"/><rect class="cls-183" x="216.43" y="6398.75" width="15.34" height="3.95" rx="1.01"/><path class="cls-184" d="M230.79,6403.18H217.41a1.46,1.46,0,0,1-1.46-1.46v-2a1.46,1.46,0,0,1,1.46-1.46h13.38a1.46,1.46,0,0,1,1.46,1.46v2A1.46,1.46,0,0,1,230.79,6403.18Zm-13.38-4a.49.49,0,0,0-.5.49v2a.49.49,0,0,0,.5.49h13.38a.49.49,0,0,0,.5-.49v-2a.49.49,0,0,0-.5-.49Z"/><circle class="cls-185" cx="224.1" cy="6400.72" r="1.53"/><polygon class="cls-111" points="239.46 6326.17 235.44 6322.03 229.83 6327.65 230.57 6328.39 235.44 6323.73 238.86 6326.81 239.46 6326.17"/><path class="cls-186" d="M224.23,6342.46l-2.9-3a.67.67,0,0,1,.24-1.1,5.5,5.5,0,0,0,3.38-3.64.57.57,0,0,1,1-.22l2.85,3.09Z"/><rect class="cls-187" x="160" y="6287" width="106.95" height="6.74"/><rect class="cls-188" x="178.3" y="6335.18" width="106.95" height="6.74" transform="translate(-4556.95 2179.34) rotate(-46.93)"/><rect class="cls-189" x="127.56" y="6330.2" width="98.73" height="6.74" transform="translate(6111.52 4114.12) rotate(71.09)"/><rect class="cls-190" x="95.31" y="6330.53" width="88.71" height="3.85" transform="matrix(0.55, -0.84, 0.84, 0.55, -5242.27, 2992.66)"/><rect class="cls-191" x="238.08" y="6308.31" width="69.49" height="6.74" transform="translate(6155.64 4008.59) rotate(71.09)"/><rect class="cls-192" x="256.79" y="6262.12" width="2.89" height="13.93" transform="translate(-2017.25 421.84) rotate(-18.91)"/><rect class="cls-193" x="155.71" y="6269.47" width="3.26" height="13.85" transform="translate(-2025.06 389.55) rotate(-18.91)"/><rect class="cls-194" x="275.08" y="6355.46" width="36.4" height="3.85" transform="matrix(-0.57, -0.82, 0.82, -0.57, -4762.54, 10222.76)"/><rect class="cls-195" x="136.76" y="6330.1" width="87.65" height="4.29" transform="translate(6112.74 4109.75) rotate(71.09)"/><rect class="cls-196" x="206" y="6328.19" width="68.29" height="4.13" transform="translate(5028.52 10477.68) rotate(133.07)"/><rect class="cls-197" x="248.34" y="6302.19" width="46.76" height="1.41" transform="translate(6146.58 4003.7) rotate(71.09)"/><polygon class="cls-198" points="163.46 6285.25 157.08 6287.43 157.38 6282.94 160.47 6281.89 163.46 6285.25"/><polygon class="cls-199" points="264.1 6277.19 257.71 6279.38 258.46 6275.61 261.2 6274.68 264.1 6277.19"/><polygon class="cls-200" points="156.68 6270.75 153.57 6271.81 150.45 6267.9 156.23 6266.53 156.68 6270.75"/><ellipse class="cls-201" cx="188.16" cy="6399.79" rx="1.48" ry="2.05" transform="translate(-6019.23 4831.02) rotate(-74.13)"/><ellipse class="cls-201" cx="190.89" cy="6400.61" rx="1.48" ry="2.05" transform="translate(-6175.61 5713.6) rotate(-82.13)"/><ellipse class="cls-201" cx="193.71" cy="6401.04" rx="2.05" ry="1.48" transform="translate(-14.84 0.47) rotate(-0.13)"/><ellipse class="cls-201" cx="196.56" cy="6401.08" rx="2.05" ry="1.48" transform="translate(-903.57 92.18) rotate(-8.13)"/><ellipse class="cls-201" cx="199.39" cy="6400.72" rx="2.05" ry="1.48" transform="translate(-1770.68 307.46) rotate(-16.13)"/><ellipse class="cls-201" cx="202.14" cy="6399.96" rx="2.05" ry="1.48" transform="translate(-2598.98 642) rotate(-24.13)"/><ellipse class="cls-201" cx="204.76" cy="6398.84" rx="2.05" ry="1.48" transform="translate(-3372.07 1089.1) rotate(-32.13)"/><ellipse class="cls-201" cx="207.2" cy="6397.35" rx="2.05" ry="1.48" transform="translate(-4074.7 1639.79) rotate(-40.13)"/><ellipse class="cls-201" cx="209.4" cy="6395.55" rx="2.05" ry="1.48" transform="translate(-4693.08 2283.06) rotate(-48.13)"/><ellipse class="cls-201" cx="211.34" cy="6393.45" rx="2.05" ry="1.48" transform="translate(-5215.12 3006.06) rotate(-56.13)"/><ellipse class="cls-201" cx="212.96" cy="6391.11" rx="2.05" ry="1.48" transform="translate(-5630.72 3794.38) rotate(-64.13)"/><ellipse class="cls-201" cx="214.24" cy="6388.56" rx="2.05" ry="1.48" transform="translate(-5931.93 4632.39) rotate(-72.13)"/><ellipse class="cls-201" cx="215.16" cy="6385.86" rx="2.05" ry="1.48" transform="translate(-6113.11 5503.52) rotate(-80.13)"/><ellipse class="cls-201" cx="215.69" cy="6383.05" rx="2.05" ry="1.48" transform="matrix(0.03, -1, 1, 0.03, -6171, 6390.65)"/><ellipse class="cls-201" cx="215.82" cy="6380.21" rx="1.48" ry="2.05" transform="translate(-680.38 59.57) rotate(-6.13)"/><ellipse class="cls-201" cx="215.56" cy="6377.37" rx="1.48" ry="2.05" transform="translate(-1550.64 245.66) rotate(-14.13)"/><ellipse class="cls-201" cx="214.9" cy="6374.59" rx="1.48" ry="2.05" transform="translate(-2385.82 550.69) rotate(-22.13)"/><ellipse class="cls-201" cx="213.87" cy="6371.93" rx="1.48" ry="2.05" transform="translate(-3169.85 968.44) rotate(-30.13)"/><ellipse class="cls-201" cx="212.47" cy="6369.44" rx="1.48" ry="2.05" transform="translate(-3887.7 1490.56) rotate(-38.13)"/><ellipse class="cls-201" cx="210.74" cy="6367.18" rx="1.48" ry="2.05" transform="translate(-4525.7 2106.73) rotate(-46.13)"/><ellipse class="cls-201" cx="208.72" cy="6365.17" rx="1.48" ry="2.05" transform="translate(-5071.76 2804.9) rotate(-54.13)"/><ellipse class="cls-201" cx="206.43" cy="6363.46" rx="1.48" ry="2.05" transform="translate(-5515.57 3571.52) rotate(-62.13)"/><ellipse class="cls-201" cx="203.93" cy="6362.09" rx="1.48" ry="2.05" transform="translate(-5848.82 4391.78) rotate(-70.13)"/><ellipse class="cls-201" cx="201.26" cy="6361.09" rx="1.48" ry="2.05" transform="translate(-6065.26 5249.93) rotate(-78.13)"/><ellipse class="cls-201" cx="198.48" cy="6360.46" rx="1.48" ry="2.05" transform="translate(-6160.88 6129.51) rotate(-86.13)"/><ellipse class="cls-201" cx="195.64" cy="6360.22" rx="2.05" ry="1.48" transform="translate(-457.86 30.64) rotate(-4.13)"/><ellipse class="cls-201" cx="115.51" cy="6360.65" rx="2.05" ry="1.48"/><ellipse class="cls-201" cx="112.83" cy="6361.12" rx="2.05" ry="1.48" transform="translate(-1960.17 346.2) rotate(-18)"/><ellipse class="cls-201" cx="110.42" cy="6362.4" rx="2.05" ry="1.48" transform="translate(-3718.63 1280.01) rotate(-36)"/><ellipse class="cls-201" cx="108.53" cy="6364.35" rx="2.05" ry="1.48" transform="translate(-5104.13 2711.28) rotate(-54)"/><ellipse class="cls-201" cx="107.34" cy="6366.8" rx="2.05" ry="1.48" transform="translate(-5981.01 4501.43) rotate(-72)"/><ellipse class="cls-201" cx="106.96" cy="6369.49" rx="1.48" ry="2.05"/><ellipse class="cls-201" cx="107.43" cy="6372.17" rx="1.48" ry="2.05" transform="translate(-1963.85 345.07) rotate(-18)"/><ellipse class="cls-201" cx="108.7" cy="6374.57" rx="1.48" ry="2.05" transform="translate(-3726.12 1281.33) rotate(-36)"/><ellipse class="cls-201" cx="110.66" cy="6376.46" rx="1.48" ry="2.05" transform="translate(-5113.05 2718) rotate(-54)"/><ellipse class="cls-201" cx="119.69" cy="6360.65" rx="2.05" ry="1.48"/><ellipse class="cls-201" cx="122.58" cy="6360.65" rx="2.05" ry="1.48"/><ellipse class="cls-201" cx="125.47" cy="6360.65" rx="2.05" ry="1.48"/><ellipse class="cls-201" cx="128.36" cy="6360.65" rx="2.05" ry="1.48"/><ellipse class="cls-201" cx="131.25" cy="6360.65" rx="2.05" ry="1.48"/><ellipse class="cls-201" cx="134.14" cy="6360.65" rx="2.05" ry="1.48"/><ellipse class="cls-201" cx="137.03" cy="6360.65" rx="2.05" ry="1.48"/><ellipse class="cls-201" cx="139.92" cy="6360.65" rx="2.05" ry="1.48"/><ellipse class="cls-201" cx="142.81" cy="6360.65" rx="2.05" ry="1.48"/><ellipse class="cls-201" cx="145.7" cy="6360.65" rx="2.05" ry="1.48"/><ellipse class="cls-201" cx="148.59" cy="6360.65" rx="2.05" ry="1.48"/><ellipse class="cls-201" cx="151.49" cy="6360.65" rx="2.05" ry="1.48"/><ellipse class="cls-201" cx="154.38" cy="6360.65" rx="2.05" ry="1.48"/><ellipse class="cls-201" cx="157.27" cy="6360.65" rx="2.05" ry="1.48"/><ellipse class="cls-201" cx="160.16" cy="6360.65" rx="2.05" ry="1.48"/><ellipse class="cls-201" cx="163.05" cy="6360.65" rx="2.05" ry="1.48"/><ellipse class="cls-201" cx="165.94" cy="6360.65" rx="2.05" ry="1.48"/><ellipse class="cls-201" cx="168.83" cy="6360.65" rx="2.05" ry="1.48"/><ellipse class="cls-201" cx="171.72" cy="6360.65" rx="2.05" ry="1.48"/><ellipse class="cls-201" cx="174.61" cy="6360.65" rx="2.05" ry="1.48"/><ellipse class="cls-201" cx="177.5" cy="6360.65" rx="2.05" ry="1.48"/><ellipse class="cls-201" cx="180.39" cy="6360.65" rx="2.05" ry="1.48"/><ellipse class="cls-201" cx="183.28" cy="6360.65" rx="2.05" ry="1.48"/><ellipse class="cls-201" cx="186.17" cy="6360.65" rx="2.05" ry="1.48"/><ellipse class="cls-201" cx="189.06" cy="6360.65" rx="2.05" ry="1.48"/><ellipse class="cls-201" cx="191.95" cy="6360.65" rx="2.05" ry="1.48"/><ellipse class="cls-201" cx="185.37" cy="6399.34" rx="1.48" ry="2.05" transform="translate(-5958.05 4598.13) rotate(-72)"/><ellipse class="cls-201" cx="182.48" cy="6398.47" rx="1.48" ry="2.05" transform="translate(-5959.22 4594.78) rotate(-72)"/><ellipse class="cls-201" cx="179.59" cy="6397.6" rx="1.48" ry="2.05" transform="translate(-5960.39 4591.43) rotate(-72)"/><ellipse class="cls-201" cx="176.69" cy="6396.73" rx="1.48" ry="2.05" transform="translate(-5961.56 4588.08) rotate(-72)"/><ellipse class="cls-201" cx="173.8" cy="6395.87" rx="1.48" ry="2.05" transform="translate(-5962.74 4584.73) rotate(-72)"/><ellipse class="cls-201" cx="170.91" cy="6395" rx="1.48" ry="2.05" transform="translate(-5963.91 4581.39) rotate(-72)"/><ellipse class="cls-201" cx="168.02" cy="6394.13" rx="1.48" ry="2.05" transform="translate(-5965.08 4578.04) rotate(-72)"/><ellipse class="cls-201" cx="165.13" cy="6393.27" rx="1.48" ry="2.05" transform="translate(-5966.25 4574.69) rotate(-72)"/><ellipse class="cls-201" cx="162.24" cy="6392.4" rx="1.48" ry="2.05" transform="translate(-5967.43 4571.34) rotate(-72)"/><ellipse class="cls-201" cx="159.35" cy="6391.53" rx="1.48" ry="2.05" transform="translate(-5968.6 4567.99) rotate(-72)"/><ellipse class="cls-201" cx="156.46" cy="6390.66" rx="1.48" ry="2.05" transform="translate(-5969.77 4564.64) rotate(-72)"/><ellipse class="cls-201" cx="153.57" cy="6389.8" rx="1.48" ry="2.05" transform="translate(-5970.94 4561.3) rotate(-72)"/><ellipse class="cls-201" cx="150.68" cy="6388.93" rx="1.48" ry="2.05" transform="translate(-5972.12 4557.95) rotate(-72)"/><ellipse class="cls-201" cx="147.79" cy="6388.06" rx="1.48" ry="2.05" transform="translate(-5973.29 4554.6) rotate(-72)"/><ellipse class="cls-201" cx="144.9" cy="6387.2" rx="1.48" ry="2.05" transform="translate(-5974.46 4551.25) rotate(-72)"/><ellipse class="cls-201" cx="142.01" cy="6386.33" rx="1.48" ry="2.05" transform="matrix(0.31, -0.95, 0.95, 0.31, -5975.63, 4547.9)"/><ellipse class="cls-201" cx="139.12" cy="6385.46" rx="1.48" ry="2.05" transform="translate(-5976.81 4544.56) rotate(-72)"/><ellipse class="cls-201" cx="136.23" cy="6384.59" rx="1.48" ry="2.05" transform="translate(-5977.98 4541.21) rotate(-72)"/><ellipse class="cls-201" cx="133.34" cy="6383.73" rx="1.48" ry="2.05" transform="translate(-5979.15 4537.86) rotate(-72)"/><ellipse class="cls-201" cx="130.45" cy="6382.86" rx="1.48" ry="2.05" transform="translate(-5980.32 4534.51) rotate(-72)"/><ellipse class="cls-201" cx="127.56" cy="6381.99" rx="1.48" ry="2.05" transform="translate(-5981.5 4531.16) rotate(-72)"/><ellipse class="cls-201" cx="124.67" cy="6381.13" rx="1.48" ry="2.05" transform="translate(-5982.67 4527.81) rotate(-72)"/><ellipse class="cls-201" cx="121.78" cy="6380.26" rx="1.48" ry="2.05" transform="translate(-5983.84 4524.47) rotate(-72)"/><ellipse class="cls-201" cx="118.89" cy="6379.39" rx="1.48" ry="2.05" transform="translate(-5985.01 4521.12) rotate(-72)"/><ellipse class="cls-201" cx="115.99" cy="6378.52" rx="1.48" ry="2.05" transform="translate(-5986.19 4517.77) rotate(-72)"/><ellipse class="cls-201" cx="113.1" cy="6377.66" rx="1.48" ry="2.05" transform="translate(-5987.36 4514.42) rotate(-72)"/><polygon class="cls-202" points="246.39 6231.6 230.14 6236.11 220.85 6259.87 205.39 6275.28 175.53 6274.23 204.2 6206.19 250.31 6183.54 271.07 6202.95 246.39 6231.6"/><polygon class="cls-203" points="297.76 6210.89 290.37 6181.01 274.75 6159.65 259.34 6158.2 230.22 6177.87 181.47 6171.45 146.7 6212.29 144.52 6255.99 163.03 6269.78 204.64 6230.67 202.35 6222.84 215.92 6216.61 241.54 6229.17 294.34 6262.21 297.78 6248.54 255.38 6217.78 253.75 6205.63 249.77 6185.33 272.06 6211.34 297.76 6210.89"/><polygon class="cls-204" points="167.75 6236.52 196.29 6231.65 211.55 6245.26 200.31 6271.39 173.63 6279.31 193.82 6313.63 200.02 6329.82 182.83 6318.69 165.2 6280.38 162.01 6275.8 167.75 6236.52"/><polygon class="cls-205" points="156.23 6262.73 124.67 6229.04 130.29 6183.45 146.43 6138.69 137.95 6116.98 153.7 6095.76 180.78 6094.13 209.68 6115.84 212.97 6148.73 197.33 6170.92 166.01 6190.27 151.11 6225.04 156.23 6262.73"/><path class="cls-206" d="M12.88,14770.39c129.29-29.44,271.13-21.53,406-6.3s269.38,37.49,406.22,35.68c120.57-1.59,239.9-21.89,360.36-18.14,71.54,2.23,141.74,12.91,212.34,20.78a2723,2723,0,0,0,514.5,8.14l9.57,8.45-1,190.71H3.88l-2-236.46Z"/></svg>