<svg id="Layer_1" data-name="Layer 1" xmlns="http://www.w3.org/2000/svg" xmlns:xlink="http://www.w3.org/1999/xlink" viewBox="0 0 1925.66 5484.66"><defs><style>.cls-1{fill:url(#radial-gradient);}.cls-2{fill:url(#radial-gradient-2);}.cls-3{fill:url(#radial-gradient-3);}.cls-4{fill:url(#radial-gradient-4);}.cls-5{fill:url(#radial-gradient-5);}.cls-6{fill:url(#radial-gradient-6);}.cls-7{fill:url(#linear-gradient);}.cls-8{fill:url(#linear-gradient-2);}.cls-9{fill:url(#linear-gradient-3);}.cls-10{fill:url(#linear-gradient-4);}.cls-11{fill:url(#linear-gradient-5);}.cls-12{fill:url(#linear-gradient-6);}.cls-13{fill:url(#linear-gradient-7);}.cls-14{fill:url(#linear-gradient-8);}.cls-15{fill:url(#linear-gradient-9);}.cls-16{fill:url(#linear-gradient-10);}.cls-17{fill:url(#linear-gradient-11);}.cls-18{fill:url(#linear-gradient-12);}.cls-19{fill:url(#linear-gradient-13);}.cls-20{fill:url(#linear-gradient-14);}.cls-21{fill:url(#linear-gradient-15);}.cls-22{fill:url(#linear-gradient-16);}.cls-23{fill:url(#linear-gradient-17);}.cls-24{fill:url(#linear-gradient-18);}.cls-25{fill:url(#linear-gradient-19);}.cls-26{fill:url(#linear-gradient-20);}.cls-27{fill:url(#linear-gradient-21);}.cls-28{fill:url(#linear-gradient-22);}.cls-29{fill:url(#linear-gradient-23);}.cls-30{fill:url(#linear-gradient-24);}.cls-31{fill:url(#linear-gradient-25);}.cls-32{fill:url(#linear-gradient-26);}.cls-33{fill:url(#linear-gradient-27);}.cls-34{fill:url(#linear-gradient-28);}.cls-35{fill:url(#linear-gradient-29);}.cls-36{fill:url(#linear-gradient-30);}.cls-37{fill:url(#linear-gradient-31);}.cls-38{fill:url(#linear-gradient-32);}.cls-39{fill:url(#linear-gradient-33);}.cls-40{fill:url(#linear-gradient-34);}.cls-41{fill:url(#linear-gradient-35);}.cls-42{fill:url(#linear-gradient-36);}.cls-43{fill:url(#linear-gradient-37);}.cls-44{fill:url(#linear-gradient-38);}.cls-45{fill:url(#linear-gradient-39);}.cls-46{fill:url(#linear-gradient-40);}.cls-47{fill:url(#linear-gradient-41);}.cls-48{fill:url(#linear-gradient-42);}.cls-49{fill:url(#linear-gradient-43);}.cls-50{fill:url(#linear-gradient-44);}.cls-51{fill:url(#linear-gradient-45);}.cls-52{fill:url(#linear-gradient-46);}.cls-53{fill:url(#linear-gradient-47);}.cls-54{fill:url(#linear-gradient-48);}.cls-55{fill:url(#linear-gradient-49);}.cls-56{fill:url(#linear-gradient-50);}.cls-57{fill:url(#linear-gradient-51);}.cls-58{fill:url(#linear-gradient-52);}.cls-59{fill:url(#linear-gradient-53);}.cls-60{fill:url(#linear-gradient-54);}.cls-61{fill:url(#linear-gradient-55);}.cls-62{fill:url(#linear-gradient-56);}.cls-63{fill:url(#linear-gradient-57);}.cls-64{fill:url(#linear-gradient-58);}.cls-65{fill:url(#linear-gradient-59);}.cls-66{fill:url(#linear-gradient-60);}.cls-67{fill:url(#linear-gradient-61);}.cls-68{fill:url(#linear-gradient-62);}.cls-69{fill:url(#linear-gradient-63);}.cls-70{fill:url(#linear-gradient-64);}.cls-71{fill:url(#linear-gradient-65);}.cls-72{fill:url(#linear-gradient-66);}.cls-73{fill:url(#linear-gradient-67);}.cls-74{fill:url(#linear-gradient-68);}.cls-75{fill:url(#linear-gradient-69);}.cls-76{fill:url(#linear-gradient-70);}.cls-77{fill:url(#linear-gradient-71);}.cls-78{fill:url(#linear-gradient-72);}.cls-79{fill:url(#linear-gradient-73);}.cls-80{fill:url(#linear-gradient-74);}.cls-81{fill:url(#linear-gradient-75);}.cls-82{fill:url(#linear-gradient-76);}.cls-83{fill:url(#linear-gradient-77);}.cls-84{fill:url(#linear-gradient-78);}.cls-85{fill:url(#linear-gradient-79);}.cls-86{fill:url(#linear-gradient-80);}.cls-87{fill:url(#linear-gradient-81);}.cls-88{fill:url(#linear-gradient-82);}.cls-89{fill:url(#linear-gradient-83);}.cls-90{fill:url(#radial-gradient-7);}</style><radialGradient id="radial-gradient" cx="1113.41" cy="171.04" r="229.41" gradientUnits="userSpaceOnUse"><stop offset="0" stop-color="#1b2324"/><stop offset="0.64" stop-color="#43474a"/><stop offset="1" stop-color="#575d5d"/></radialGradient><radialGradient id="radial-gradient-2" cx="433.09" cy="280.99" r="285.16" xlink:href="#radial-gradient"/><radialGradient id="radial-gradient-3" cx="1072.88" cy="1810.86" r="1160.55" xlink:href="#radial-gradient"/><radialGradient id="radial-gradient-4" cx="1616.81" cy="5203.91" r="294.95" xlink:href="#radial-gradient"/><radialGradient id="radial-gradient-5" cx="619.64" cy="1828.45" r="563.25" xlink:href="#radial-gradient"/><radialGradient id="radial-gradient-6" cx="574.09" cy="4148.88" r="462.87" xlink:href="#radial-gradient"/><linearGradient id="linear-gradient" x1="961.54" y1="373.54" x2="961.54" y2="1805.33" gradientUnits="userSpaceOnUse"><stop offset="0.02" stop-color="#a6c4cd"/><stop offset="0.12" stop-color="#b3d7cd"/><stop offset="0.5" stop-color="#b6dad0"/><stop offset="1" stop-color="#c1e2d9"/></linearGradient><linearGradient id="linear-gradient-2" x1="962.65" y1="781.97" x2="985.7" y2="224.39" xlink:href="#linear-gradient"/><linearGradient id="linear-gradient-3" x1="1045.68" y1="911.94" x2="2027.12" y2="598.56" xlink:href="#linear-gradient"/><linearGradient id="linear-gradient-4" x1="1342.23" y1="825.74" x2="1445.78" y2="1250.41" xlink:href="#linear-gradient"/><linearGradient id="linear-gradient-5" x1="1183.71" y1="963.82" x2="1968.63" y2="2137.01" xlink:href="#linear-gradient"/><linearGradient id="linear-gradient-6" x1="1219.35" y1="1155.61" x2="1749.37" y2="1947.81" xlink:href="#linear-gradient"/><linearGradient id="linear-gradient-7" x1="1453.51" y1="1145.24" x2="2362.47" y2="855" xlink:href="#linear-gradient"/><linearGradient id="linear-gradient-8" x1="1285.35" y1="1438.53" x2="2443.58" y2="1068.69" xlink:href="#linear-gradient"/><linearGradient id="linear-gradient-9" x1="1493.11" y1="1326.86" x2="2483.17" y2="1010.73" xlink:href="#linear-gradient"/><linearGradient id="linear-gradient-10" x1="1575.95" y1="1372.96" x2="2349.31" y2="1126.02" xlink:href="#linear-gradient"/><linearGradient id="linear-gradient-11" x1="1656.55" y1="1454.33" x2="1656.55" y2="2626.61" xlink:href="#linear-gradient"/><linearGradient id="linear-gradient-12" x1="1381.24" y1="1557.32" x2="1782.88" y2="915.27" xlink:href="#linear-gradient"/><linearGradient id="linear-gradient-13" x1="1536.04" y1="1694.03" x2="1806.67" y2="1261.41" xlink:href="#linear-gradient"/><linearGradient id="linear-gradient-14" x1="1385.62" y1="1674.4" x2="2051.12" y2="2679.61" xlink:href="#linear-gradient"/><linearGradient id="linear-gradient-15" x1="1214.99" y1="1617.25" x2="1551.91" y2="2792.31" xlink:href="#linear-gradient"/><linearGradient id="linear-gradient-16" x1="1170.84" y1="1787.95" x2="569.39" y2="1197.63" xlink:href="#linear-gradient"/><linearGradient id="linear-gradient-17" x1="1251.04" y1="1937.32" x2="1490.29" y2="1554.86" xlink:href="#linear-gradient"/><linearGradient id="linear-gradient-18" x1="938.85" y1="1810.45" x2="2253.14" y2="1687.93" xlink:href="#linear-gradient"/><linearGradient id="linear-gradient-19" x1="1005.46" y1="2003.69" x2="1315.71" y2="1507.74" xlink:href="#linear-gradient"/><linearGradient id="linear-gradient-20" x1="919.49" y1="2116.72" x2="1236.93" y2="1996.99" xlink:href="#linear-gradient"/><linearGradient id="linear-gradient-21" x1="761.37" y1="1856.75" x2="1510.4" y2="1976.49" xlink:href="#linear-gradient"/><linearGradient id="linear-gradient-22" x1="751.11" y1="2175.6" x2="453.17" y2="1039.52" xlink:href="#linear-gradient"/><linearGradient id="linear-gradient-23" x1="398.25" y1="1915.38" x2="867.57" y2="1165.14" xlink:href="#linear-gradient"/><linearGradient id="linear-gradient-24" x1="511.15" y1="1995.44" x2="-340.91" y2="3095.32" xlink:href="#linear-gradient"/><linearGradient id="linear-gradient-25" x1="417.38" y1="2323.02" x2="1671.13" y2="2053.87" xlink:href="#linear-gradient"/><linearGradient id="linear-gradient-26" x1="287.39" y1="2215.16" x2="-358.62" y2="3654.75" xlink:href="#linear-gradient"/><linearGradient id="linear-gradient-27" x1="360.51" y1="2502.4" x2="1487" y2="2260.56" xlink:href="#linear-gradient"/><linearGradient id="linear-gradient-28" x1="631.31" y1="2482.12" x2="1923.33" y2="3604.27" xlink:href="#linear-gradient"/><linearGradient id="linear-gradient-29" x1="931.42" y1="891.09" x2="956.1" y2="294.21" xlink:href="#linear-gradient"/><linearGradient id="linear-gradient-30" x1="1010.83" y1="571.96" x2="1075.57" y2="837.5" xlink:href="#linear-gradient"/><linearGradient id="linear-gradient-31" x1="727.22" y1="716.59" x2="1292.74" y2="311.56" xlink:href="#linear-gradient"/><linearGradient id="linear-gradient-32" x1="902.95" y1="750.36" x2="457.32" y2="413.31" xlink:href="#linear-gradient"/><linearGradient id="linear-gradient-33" x1="753.69" y1="614.33" x2="168.74" y2="171.89" xlink:href="#linear-gradient"/><linearGradient id="linear-gradient-34" x1="602.18" y1="672.5" x2="144" y2="325.96" xlink:href="#linear-gradient"/><linearGradient id="linear-gradient-35" x1="598.74" y1="535.9" x2="202.24" y2="236" xlink:href="#linear-gradient"/><linearGradient id="linear-gradient-36" x1="527.39" y1="621.83" x2="100.03" y2="298.59" xlink:href="#linear-gradient"/><linearGradient id="linear-gradient-37" x1="388.79" y1="527.54" x2="15.19" y2="244.97" xlink:href="#linear-gradient"/><linearGradient id="linear-gradient-38" x1="304.38" y1="505.73" x2="-75.85" y2="218.14" xlink:href="#linear-gradient"/><linearGradient id="linear-gradient-39" x1="254.69" y1="554.92" x2="-186.2" y2="221.45" xlink:href="#linear-gradient"/><linearGradient id="linear-gradient-40" x1="195.49" y1="414.25" x2="-292.07" y2="655.16" xlink:href="#linear-gradient"/><linearGradient id="linear-gradient-41" x1="93.28" y1="393.03" x2="85.63" y2="748.66" xlink:href="#linear-gradient"/><linearGradient id="linear-gradient-42" x1="149.35" y1="303.32" x2="-169.95" y2="599.68" xlink:href="#linear-gradient"/><linearGradient id="linear-gradient-43" x1="266.1" y1="325.67" x2="-300.5" y2="605.64" xlink:href="#linear-gradient"/><linearGradient id="linear-gradient-44" x1="345.01" y1="278.09" x2="307.64" y2="498.58" xlink:href="#linear-gradient"/><linearGradient id="linear-gradient-45" x1="450.9" y1="250.56" x2="92.64" y2="427.59" xlink:href="#linear-gradient"/><linearGradient id="linear-gradient-46" x1="423.96" y1="323.4" x2="561.17" y2="73.74" xlink:href="#linear-gradient"/><linearGradient id="linear-gradient-47" x1="537.73" y1="282.89" x2="340.3" y2="-20.79" xlink:href="#linear-gradient"/><linearGradient id="linear-gradient-48" x1="593.26" y1="301.08" x2="370.46" y2="-41.64" xlink:href="#linear-gradient"/><linearGradient id="linear-gradient-49" x1="646.39" y1="230.78" x2="646.76" y2="300.92" xlink:href="#linear-gradient"/><linearGradient id="linear-gradient-50" x1="688.66" y1="272.86" x2="791.98" y2="239.95" xlink:href="#linear-gradient"/><linearGradient id="linear-gradient-51" x1="745.89" y1="253.98" x2="846.62" y2="67.44" xlink:href="#linear-gradient"/><linearGradient id="linear-gradient-52" x1="784.14" y1="230.85" x2="924.69" y2="-29.42" xlink:href="#linear-gradient"/><linearGradient id="linear-gradient-53" x1="833.96" y1="229.1" x2="726.51" y2="352.59" xlink:href="#linear-gradient"/><linearGradient id="linear-gradient-54" x1="142.39" y1="2910.96" x2="734.86" y2="2437.27" xlink:href="#linear-gradient"/><linearGradient id="linear-gradient-55" x1="632.1" y1="3116.72" x2="276.21" y2="2573.95" gradientUnits="userSpaceOnUse"><stop offset="0.02" stop-color="#a6c4cd"/><stop offset="0.5" stop-color="#b6dad0"/><stop offset="1" stop-color="#c1e2d9"/></linearGradient><linearGradient id="linear-gradient-56" x1="905.63" y1="2765.55" x2="541.07" y2="3352.01" xlink:href="#linear-gradient"/><linearGradient id="linear-gradient-57" x1="1169.41" y1="2885.29" x2="1199.01" y2="2662.31" xlink:href="#linear-gradient"/><linearGradient id="linear-gradient-58" x1="871.61" y1="3002.35" x2="2173.08" y2="3152.05" xlink:href="#linear-gradient"/><linearGradient id="linear-gradient-59" x1="953.35" y1="3299.82" x2="803.65" y2="2590.09" xlink:href="#linear-gradient"/><linearGradient id="linear-gradient-60" x1="1480.43" y1="3281.85" x2="529.3" y2="2563.57" gradientUnits="userSpaceOnUse"><stop offset="0.02" stop-color="#a6c4cd"/><stop offset="0.28" stop-color="#b3d7cd"/><stop offset="0.5" stop-color="#b6dad0"/><stop offset="1" stop-color="#c1e2d9"/></linearGradient><linearGradient id="linear-gradient-61" x1="1493.26" y1="3019.43" x2="2211.54" y2="3725.87" gradientUnits="userSpaceOnUse"><stop offset="0.02" stop-color="#a6c4cd"/><stop offset="0.41" stop-color="#b3d7cd"/><stop offset="0.5" stop-color="#b6dad0"/><stop offset="1" stop-color="#c1e2d9"/></linearGradient><linearGradient id="linear-gradient-62" x1="1179.48" y1="3725.88" x2="2010.24" y2="2753.05" gradientUnits="userSpaceOnUse"><stop offset="0.02" stop-color="#a6c4cd"/><stop offset="0.07" stop-color="#b3d7cd"/><stop offset="0.5" stop-color="#b6dad0"/><stop offset="1" stop-color="#c1e2d9"/></linearGradient><linearGradient id="linear-gradient-63" x1="1788.74" y1="3614.25" x2="1109.93" y2="3489.93" gradientUnits="userSpaceOnUse"><stop offset="0.02" stop-color="#a6c4cd"/><stop offset="0.23" stop-color="#b3d7cd"/><stop offset="0.5" stop-color="#b6dad0"/><stop offset="1" stop-color="#c1e2d9"/></linearGradient><linearGradient id="linear-gradient-64" x1="1852.55" y1="3881.31" x2="812.62" y2="4370.68" xlink:href="#linear-gradient-63"/><linearGradient id="linear-gradient-65" x1="1402.11" y1="4241.19" x2="444.24" y2="3727.5" gradientUnits="userSpaceOnUse"><stop offset="0.02" stop-color="#a6c4cd"/><stop offset="0.38" stop-color="#b3d7cd"/><stop offset="0.5" stop-color="#b6dad0"/><stop offset="1" stop-color="#c1e2d9"/></linearGradient><linearGradient id="linear-gradient-66" x1="1144.04" y1="4573.76" x2="1680.91" y2="4494.58" xlink:href="#linear-gradient-65"/><linearGradient id="linear-gradient-67" x1="829.51" y1="4136.96" x2="926.07" y2="4872.74" xlink:href="#linear-gradient-65"/><linearGradient id="linear-gradient-68" x1="760.42" y1="3816.97" x2="802.18" y2="4135.16" xlink:href="#linear-gradient-65"/><linearGradient id="linear-gradient-69" x1="291.47" y1="4290" x2="1343.97" y2="4564.23" xlink:href="#linear-gradient-65"/><linearGradient id="linear-gradient-70" x1="610.34" y1="4630.13" x2="623.85" y2="5230.73" xlink:href="#linear-gradient-65"/><linearGradient id="linear-gradient-71" x1="1102.68" y1="4897.22" x2="913.42" y2="3943.22" xlink:href="#linear-gradient-65"/><linearGradient id="linear-gradient-72" x1="745.94" y1="5086.5" x2="1027.45" y2="5279.23" xlink:href="#linear-gradient-65"/><linearGradient id="linear-gradient-73" x1="1447.01" y1="5281.38" x2="941.04" y2="5059.29" xlink:href="#linear-gradient-65"/><linearGradient id="linear-gradient-74" x1="1224.01" y1="5408.55" x2="1224.01" y2="5449.69" xlink:href="#linear-gradient-65"/><linearGradient id="linear-gradient-75" x1="1258.06" y1="5388.38" x2="1582.5" y2="5257.06" xlink:href="#linear-gradient-65"/><linearGradient id="linear-gradient-76" x1="1660.87" y1="5340.93" x2="1673.86" y2="5401.56" xlink:href="#linear-gradient-65"/><linearGradient id="linear-gradient-77" x1="616.22" y1="5259.13" x2="616.22" y2="5473.52" xlink:href="#linear-gradient-65"/><linearGradient id="linear-gradient-78" x1="234.55" y1="4725.79" x2="223.13" y2="4176.38" gradientUnits="userSpaceOnUse"><stop offset="0.02" stop-color="#a6c4cd"/><stop offset="0.33" stop-color="#b3d7cd"/><stop offset="0.5" stop-color="#b6dad0"/><stop offset="1" stop-color="#c1e2d9"/></linearGradient><linearGradient id="linear-gradient-79" x1="350.01" y1="5117.55" x2="339.58" y2="4615.6" xlink:href="#linear-gradient-78"/><linearGradient id="linear-gradient-80" x1="178.81" y1="5186.94" x2="174.48" y2="5468.45" xlink:href="#linear-gradient-78"/><linearGradient id="linear-gradient-81" x1="367.13" y1="5195.37" x2="438.59" y2="5422.74" xlink:href="#linear-gradient-78"/><linearGradient id="linear-gradient-82" x1="10.52" y1="4886.34" x2="534.96" y2="4630.68" xlink:href="#linear-gradient-78"/><linearGradient id="linear-gradient-83" x1="140.59" y1="5243.71" x2="-44.61" y2="5215.85" xlink:href="#linear-gradient-78"/><radialGradient id="radial-gradient-7" cx="1109.24" cy="186.65" r="231.06" gradientUnits="userSpaceOnUse"><stop offset="0" stop-color="#80a8aa"/><stop offset="0.64" stop-color="#8db4ba"/><stop offset="1" stop-color="#98bec7"/></radialGradient></defs><polygon class="cls-1" points="1335.6 316.28 1284.52 342.07 1348.63 266.3 1371.34 207.15 1366.28 140.49 1344.09 82.36 1310.6 37.9 1265.72 18.42 1102.69 18.32 913.04 66.44 843.35 140.29 837.72 135.74 910.42 50.28 1046.75 17.41 1187.12 0 1294.11 12.31 1339.72 50.31 1378.74 119.72 1389.11 194.2 1380.64 240.91 1335.6 316.28"/><polygon class="cls-2" points="823.86 181.33 628.74 225.63 233.08 283.47 67.2 312.04 42.31 380.66 76.42 323.19 634.22 235.89 823.86 181.33"/><polygon class="cls-3" points="912.02 2711.56 811.02 2461.59 769.47 2286.3 1013.57 2060.24 1520.91 1891.86 1684.25 1807.38 1685.22 1791.65 1732.84 1424.79 1529.66 872.66 1073.51 635.24 220.11 412.15 235.4 408.52 1080.09 617.3 1080.97 617.74 1552.19 848.24 1553.56 851.55 1770.85 1403.66 1768.98 1419.28 1687.04 1809.5 1547.28 1876.11 1506.54 1897.37 1007.66 2076.66 777.66 2289.66 832.2 2467.52 926 2702.97 1632.58 2891 1924.38 3204.28 1925.66 3213.19 1923.07 3210.59 1631.06 2917.41 912.02 2711.56"/><polygon class="cls-4" points="1308.32 4945.66 1310.98 4923.16 1917.71 5447.84 1925.32 5484.66 1308.32 4945.66"/><polygon class="cls-5" points="1213.24 1436.29 1189.97 1297.29 1200.86 1433.06 1089.55 1598.18 745.54 1723.84 545.51 1800.43 217.14 1937.16 26.04 2359.62 241.3 1963.91 1109.24 1609.15 1213.24 1436.29"/><polygon class="cls-6" points="1091.32 3747.66 1038.64 3760.39 660.66 3936.05 403.27 4075.35 194.92 4191.62 56.87 4550.11 234.04 4233.31 990.6 3821.95 1091.32 3747.66"/><polygon class="cls-7" points="925.09 210.66 853.09 199.66 851.09 172.66 625.11 231.49 70.09 314.66 40.09 379.66 40.09 424.66 127.09 518.66 881.09 834.66 1162.09 1114.66 1211.09 1435.66 1097.61 1608.15 228.8 1952.24 0.09 2405.66 0.09 2793.66 119.09 2942.66 1005.09 3276.66 1089.09 3746.66 569.96 4003.22 212.91 4203.83 0 4668.34 0.09 5483.66 1923.09 5483.66 1306.09 4944.66 1346.73 4765.98 1302.09 4524.66 1923.09 4015.66 1923.09 3212.19 1628.5 2916.41 923.09 2701.66 775.09 2288.66 1005.09 2075.66 1443.09 1930.66 1685.03 1808.88 1761.09 1403.66 1527.09 871.66 1063.48 622.22 533.09 493.66 222.09 409.66 267.09 352.66 562.09 293.66 925.09 243.66 925.09 210.66"/><polygon class="cls-8" points="730.29 771.46 1151.55 669.61 1199.02 695.29 982.63 764.56 867.82 829.1 730.29 771.46"/><polygon class="cls-9" points="995.21 948.38 982.63 764.56 1199.02 695.29 1154.04 874.88 1107.21 1059.98 995.21 948.38"/><polygon class="cls-10" points="1375.52 790.11 1156.72 864.3 1350.02 1001.29 1574.78 980.08 1527.02 871.29 1375.52 790.11"/><polygon class="cls-11" points="1157.02 1114.29 1444.02 1199.29 1350.02 1001.29 1157.02 864.29 1107.02 1060.29 1157.02 1114.29"/><polygon class="cls-12" points="1444.02 1199.29 1421.02 1297.29 1211.02 1435.29 1162.09 1114.66 1444.02 1199.29"/><polygon class="cls-13" points="1444.02 1199.29 1691.81 1246.15 1575.02 980.29 1350.02 1001.29 1444.02 1199.29"/><polygon class="cls-14" points="1211.02 1435.29 1552.02 1451.29 1421.02 1297.29 1211.02 1435.29"/><polygon class="cls-15" points="1552.02 1451.29 1691.81 1246.15 1444.02 1199.29 1421.02 1297.29 1552.02 1451.29"/><polygon class="cls-16" points="1761.09 1403.66 1552.02 1451.29 1691.81 1246.15 1761.09 1403.66"/><polygon class="cls-17" points="1552.02 1451.29 1685.03 1808.88 1761.09 1403.66 1552.02 1451.29"/><polygon class="cls-18" points="1211.02 1435.29 1340.28 1653.95 1605.01 1593.75 1552.02 1451.29 1211.02 1435.29"/><polygon class="cls-19" points="1685.03 1808.88 1340.28 1653.95 1605.01 1593.75 1685.03 1808.88"/><polygon class="cls-20" points="1340.28 1653.95 1303.05 1867.46 1443.09 1930.66 1685.03 1808.88 1340.28 1653.95"/><polygon class="cls-21" points="1097.61 1608.15 1303.05 1867.46 1340.28 1653.95 1211.02 1435.29 1097.61 1608.15"/><polygon class="cls-22" points="940.92 1670.21 1303.05 1867.46 1097.61 1608.15 940.92 1670.21"/><polygon class="cls-23" points="1156.72 1787.75 1151.55 1930.66 1234.41 1999.74 1443.09 1930.66 1303.05 1867.46 1156.72 1787.75"/><polygon class="cls-24" points="1151.55 1930.66 864.2 1867.46 808.04 1722.84 940.92 1670.21 1156.72 1787.75 1151.55 1930.66"/><polygon class="cls-25" points="864.2 1867.46 874.51 2016.22 1005.09 2075.66 1234.41 1999.74 1151.55 1930.66 864.2 1867.46"/><polygon class="cls-26" points="874.51 2016.22 775.09 2288.66 1005.09 2075.66 874.51 2016.22"/><polygon class="cls-27" points="612.11 1800.43 874.51 2016.22 864.2 1867.46 808.04 1722.84 612.11 1800.43"/><polygon class="cls-28" points="612.11 1800.43 525.64 1945.76 775.09 2288.66 874.51 2016.22 612.11 1800.43"/><polygon class="cls-29" points="525.64 1945.76 228.8 1952.24 612.11 1800.43 525.64 1945.76"/><polygon class="cls-30" points="228.8 1952.24 310.81 2206.99 690.21 2171.98 525.64 1945.76 228.8 1952.24"/><polygon class="cls-31" points="775.09 2288.66 668.28 2408.06 310.81 2206.99 690.21 2171.98 775.09 2288.66"/><polygon class="cls-32" points="310.81 2206.99 310.81 2612.69 0 2679.52 0.09 2405.66 228.8 1952.24 310.81 2206.99"/><polygon class="cls-33" points="668.28 2408.06 585.06 2760.27 310.81 2612.69 310.81 2206.99 668.28 2408.06"/><polygon class="cls-34" points="585.06 2760.27 923.09 2701.66 775.09 2288.66 668.28 2408.06 585.06 2760.27"/><polygon class="cls-35" points="867.82 829.1 982.63 764.56 995.21 948.38 881.09 834.66 867.82 829.1"/><polygon class="cls-36" points="1034.23 697.97 912.63 648.73 898.32 582.19 1063.48 622.22 1151.55 669.61 1034.23 697.97"/><polygon class="cls-37" points="898.32 582.19 622.82 726.42 730.29 771.46 912.63 648.73 898.32 582.19"/><polygon class="cls-38" points="730.29 771.46 912.63 648.73 1034.23 697.97 730.29 771.46"/><polygon class="cls-39" points="622.82 515.41 631.99 599.75 677.16 697.97 898.32 582.19 622.82 515.41"/><polygon class="cls-40" points="453.85 655.61 631.99 599.75 677.16 697.97 622.82 726.42 453.85 655.61"/><polygon class="cls-41" points="498.36 484.28 631.99 599.75 622.82 515.41 498.36 484.28"/><polygon class="cls-42" points="376.19 623.06 498.36 484.28 631.99 599.75 453.85 655.61 376.19 623.06"/><polygon class="cls-43" points="325.46 437.58 313.66 596.85 376.19 623.06 498.36 484.28 325.46 437.58"/><polygon class="cls-44" points="247.42 416.5 206.57 458.27 313.66 596.85 325.46 437.58 247.42 416.5"/><polygon class="cls-45" points="127.09 518.66 206.57 458.27 313.66 596.85 127.09 518.66"/><polygon class="cls-46" points="222.09 409.66 147.3 367.45 127.09 518.66 206.57 458.27 247.42 416.5 222.09 409.66"/><polygon class="cls-47" points="147.3 367.45 40.09 379.66 40.09 424.66 127.09 518.66 147.3 367.45"/><polygon class="cls-48" points="147.3 367.45 202.61 294.8 70.09 314.66 40.09 379.66 147.3 367.45"/><polygon class="cls-49" points="222.09 409.66 147.3 367.45 202.61 294.8 302.51 279.83 267.09 352.66 222.09 409.66"/><polygon class="cls-50" points="372.05 269.41 402.24 325.63 267.09 352.66 302.51 279.83 372.05 269.41"/><polygon class="cls-51" points="387.26 297.75 488.91 251.9 372.05 269.41 387.26 297.75"/><polygon class="cls-52" points="402.24 325.63 482.35 309.61 488.91 251.9 387.26 297.75 402.24 325.63"/><polygon class="cls-53" points="488.91 251.9 581.33 238.05 530.4 300 482.35 309.61 488.91 251.9"/><polygon class="cls-54" points="562.09 293.66 643.33 282.47 581.33 238.05 530.4 300 562.09 293.66"/><polygon class="cls-55" points="581.33 238.05 643.33 282.47 704.47 244.14 711.37 209.03 625.11 231.49 581.33 238.05"/><polygon class="cls-56" points="704.47 244.14 801.02 260.75 643.33 282.47 704.47 244.14"/><polygon class="cls-57" points="711.37 209.03 791.4 210.94 801.02 260.75 704.47 244.14 711.37 209.03"/><polygon class="cls-58" points="791.4 210.94 869.38 229.59 853.09 199.66 851.09 172.66 711.37 209.03 791.4 210.94"/><polygon class="cls-59" points="801.02 260.75 873.47 250.77 869.38 229.59 791.4 210.94 801.02 260.75"/><polygon class="cls-60" points="310.43 2612.97 400.79 3048.86 119.43 2942.97 0.43 2793.97 0.43 2679.97 310.43 2612.97"/><polygon class="cls-61" points="585.43 2759.97 715.43 3006.97 658.64 3146.06 400.43 3048.97 310.43 2612.97 585.43 2759.97"/><polygon class="cls-62" points="923.43 2701.97 1131.43 2922.97 715.43 3006.97 585.43 2759.97 923.43 2701.97"/><polygon class="cls-63" points="1131.43 2922.97 1356.43 2955.97 1443.09 2859.97 923.43 2701.97 1131.43 2922.97"/><polygon class="cls-64" points="715.43 3006.97 1083.43 3135.97 1131.43 2922.97 715.43 3006.97"/><polygon class="cls-65" points="1083.43 3135.97 1219.43 3316.97 1005.43 3276.97 658.43 3145.97 715.43 3006.97 1083.43 3135.97"/><polygon class="cls-66" points="1219.43 3316.97 1555.43 3316.97 1356.43 2955.97 1131.43 2922.97 1083.43 3135.97 1219.43 3316.97"/><polygon class="cls-67" points="1555.43 3316.97 1923.09 3491.49 1923.43 3211.97 1628.43 2915.97 1443.43 2859.97 1356.43 2955.97 1555.43 3316.97"/><polygon class="cls-68" points="1219.43 3316.97 1579.66 3656.61 1538.22 3958.52 1089.09 3746.66 1005.43 3276.97 1219.43 3316.97"/><polygon class="cls-69" points="1579.66 3656.61 1923.09 3893.4 1923.09 3491.49 1555.43 3316.97 1219.43 3316.97 1579.66 3656.61"/><polygon class="cls-70" points="1538.22 3958.52 1391.47 4451.4 1923.09 4015.66 1923.09 3893.4 1579.66 3656.61 1538.22 3958.52"/><polygon class="cls-71" points="1089.09 3746.66 872.45 4102.17 1005.43 4384.12 1391.47 4451.4 1538.22 3958.52 1089.09 3746.66"/><polygon class="cls-72" points="1005.43 4384.12 816.45 4832.16 1302.09 4524.66 1391.47 4451.4 1005.43 4384.12"/><polygon class="cls-73" points="816.45 4832.16 733.41 4498.06 733.41 4086.72 872.45 4102.17 1005.43 4384.12 816.45 4832.16"/><polygon class="cls-74" points="733.41 4086.72 455.41 4067.58 1089.09 3746.66 872.45 4102.17 733.41 4086.72"/><polygon class="cls-75" points="212.91 4203.83 408.97 4639.04 733.41 4498.06 733.41 4086.72 455.41 4067.58 212.91 4203.83"/><polygon class="cls-76" points="408.97 4639.04 488.15 5181.7 741.13 5181.7 816.45 4832.16 733.41 4498.06 408.97 4639.04"/><polygon class="cls-77" points="816.45 4832.16 1103.96 5156.6 1306.09 4944.66 1346.73 4765.98 1302.09 4524.66 816.45 4832.16"/><polygon class="cls-78" points="741.13 5181.7 884.04 5483.66 1073.3 5392.2 1103.96 5156.6 816.45 4832.16 741.13 5181.7"/><polygon class="cls-79" points="1563.97 5169.94 1073.3 5392.2 1103.96 5156.6 1306.09 4944.66 1563.97 5169.94"/><polygon class="cls-80" points="1073.3 5392.2 1440.22 5392.2 1563.97 5483.66 884.04 5483.66 1073.3 5392.2"/><polygon class="cls-81" points="1440.22 5392.2 1712 5299.26 1563.97 5169.94 1073.3 5392.2 1440.22 5392.2"/><polygon class="cls-82" points="1923.09 5483.66 1712 5299.26 1440.22 5392.2 1563.97 5483.66 1923.09 5483.66"/><polygon class="cls-83" points="488.15 5181.7 348.4 5483.66 884.04 5483.66 741.13 5181.7 488.15 5181.7"/><polygon class="cls-84" points="54.65 4549.11 263.63 4798.54 408.97 4639.04 212.91 4203.83 54.65 4549.11"/><polygon class="cls-85" points="263.63 4798.54 212.91 5103.4 488.15 5181.7 408.97 4639.04 263.63 4798.54"/><polygon class="cls-86" points="212.91 5103.4 0.09 5483.66 348.4 5483.66 212.91 5103.4"/><polygon class="cls-87" points="212.91 5103.4 488.15 5181.7 348.4 5483.66 212.91 5103.4"/><polygon class="cls-88" points="212.91 5103.4 0.09 4961.49 0 4668.34 54.65 4549.11 263.63 4798.54 212.91 5103.4"/><polygon class="cls-89" points="212.91 5103.4 0.09 4961.49 0.09 5483.66 212.91 5103.4"/><polygon class="cls-90" points="837.72 135.74 905.9 68.27 924.06 58.46 1048.75 26.24 1187.06 4.86 1292.66 18.83 1333.88 54.7 1370.52 123.94 1380.77 194.81 1371.79 239.22 1332.47 311.93 1282.56 343.3 1180.15 368.45 1131.58 353.13 1040.41 309.66 961.41 288.99 907.41 279.96 880.16 258.35 837.76 167.23 837.72 135.74"/></svg>