<svg id="Layer_1" data-name="Layer 1" xmlns="http://www.w3.org/2000/svg" xmlns:xlink="http://www.w3.org/1999/xlink" viewBox="0 0 1382.76 676.8"><defs><radialGradient id="radial-gradient" cx="465.43" cy="299.89" r="236.14" gradientUnits="userSpaceOnUse"><stop offset="0" stop-color="#856e65"/><stop offset="0.64" stop-color="#94786d"/><stop offset="1" stop-color="#a1887e"/></radialGradient><radialGradient id="radial-gradient-2" cx="465.43" cy="299.89" r="236.14" gradientUnits="userSpaceOnUse"><stop offset="0" stop-color="#94b598"/><stop offset="0.64" stop-color="#b1caa0"/><stop offset="1" stop-color="#aec9a8"/></radialGradient><radialGradient id="radial-gradient-3" cx="861.06" cy="340.3" r="207.64" xlink:href="#radial-gradient"/><radialGradient id="radial-gradient-4" cx="861.06" cy="340.3" r="207.64" gradientUnits="userSpaceOnUse"><stop offset="0" stop-color="#6d7751"/><stop offset="0.53" stop-color="#8b9766"/><stop offset="1" stop-color="#aeb98d"/></radialGradient><radialGradient id="radial-gradient-5" cx="333.55" cy="474.31" r="243.73" xlink:href="#radial-gradient"/><radialGradient id="radial-gradient-6" cx="333.55" cy="474.31" r="243.73" xlink:href="#radial-gradient-4"/><radialGradient id="radial-gradient-7" cx="1205.64" cy="589.17" r="234.63" xlink:href="#radial-gradient"/><radialGradient id="radial-gradient-8" cx="1205.64" cy="589.17" r="234.63" xlink:href="#radial-gradient-2"/><radialGradient id="radial-gradient-9" cx="1078.01" cy="482.82" r="204.8" xlink:href="#radial-gradient"/><radialGradient id="radial-gradient-10" cx="1078.01" cy="482.82" r="204.74" xlink:href="#radial-gradient-4"/><radialGradient id="radial-gradient-11" cx="163.13" cy="307.56" r="243.73" xlink:href="#radial-gradient"/><radialGradient id="radial-gradient-12" cx="163.13" cy="307.56" r="243.73" xlink:href="#radial-gradient-4"/><radialGradient id="radial-gradient-13" cx="46.77" cy="331.67" r="206.07" xlink:href="#radial-gradient-2"/></defs><rect x="468.71" y="289.57" width="19.87" height="114.95" style="fill:url(#radial-gradient)"/><polygon points="478.34 101.65 477.55 101.66 477.94 100.97 478.34 101.65" style="fill:#00742a"/><polygon points="478.34 101.65 477.55 101.66 477.94 100.97 478.34 101.65" style="fill:#00742a"/><path d="M581.41,327.89,533,246.14l30.61-.33L517,167l28.91-.31-38.65-65.31,26.51-.28L481.37,12.52l-50.48,89.64,20.4-.22-37.23,66.12,26.26-.28-45,79.84,29.79-.32-46.61,82.77ZM477.94,101l.4.68h-.79Z" style="fill:url(#radial-gradient-2)"/><polygon points="478.34 101.65 477.55 101.66 477.94 100.97 478.34 101.65" style="fill:#00742a"/><rect x="867.57" y="333.76" width="19.87" height="114.95" style="fill:url(#radial-gradient-3)"/><path d="M980.27,372.08,931.9,290.33l30.61-.33-46.66-78.85,28.91-.31-38.65-65.31,26.51-.28L880.23,56.71l-50.48,89.64,20.4-.22-37.23,66.12,26.26-.28-45,79.84,29.79-.32L777.4,374.26ZM876.8,145.16l.4.68h-.79Z" style="fill:url(#radial-gradient-4)"/><rect x="386.59" y="443.8" width="19.87" height="114.95" style="fill:url(#radial-gradient-5)"/><path d="M499.29,482.11l-48.37-81.75,30.61-.33-46.66-78.85,28.91-.31-38.65-65.31,26.51-.28-52.39-88.54-50.48,89.64,20.4-.22-37.23,66.12L358.2,322l-45,79.84,29.79-.32-46.61,82.77ZM395.82,255.19l.4.68h-.79Z" style="fill:url(#radial-gradient-6)"/><rect x="1270.05" y="561.85" width="19.87" height="114.95" style="fill:url(#radial-gradient-7)"/><polygon points="1279.69 373.93 1278.9 373.94 1279.29 373.25 1279.69 373.93" style="fill:#00742a"/><polygon points="1279.69 373.93 1278.9 373.94 1279.29 373.25 1279.69 373.93" style="fill:#00742a"/><path d="M1382.76,600.17l-48.37-81.75,30.61-.33-46.66-78.85,28.91-.31-38.65-65.31,26.51-.28-52.39-88.54-50.48,89.64,20.4-.22-37.23,66.12,26.26-.28-45,79.84,29.79-.32-46.61,82.77ZM1279.29,373.25l.4.68h-.79Z" style="fill:url(#radial-gradient-8)"/><polygon points="1279.69 373.93 1278.9 373.94 1279.29 373.25 1279.69 373.93" style="fill:#00742a"/><rect x="1115.05" y="445.85" width="19.87" height="114.95" style="fill:url(#radial-gradient-9)"/><path d="M1227.76,484.17l-48.37-81.75,30.61-.33-46.66-78.85,28.91-.31-38.65-65.31,26.51-.28-52.39-88.54-50.48,89.64,20.4-.22-37.23,66.12,26.26-.28-45,79.84,29.79-.32-46.61,82.77ZM1124.29,257.25l.4.68h-.79Z" style="fill:url(#radial-gradient-10)"/><rect x="216.17" y="277.05" width="19.87" height="114.95" style="fill:url(#radial-gradient-11)"/><path d="M328.87,315.37,280.5,233.62l30.61-.33-46.66-78.85,28.91-.31L254.71,88.82l26.51-.28L228.83,0,178.35,89.64l20.4-.22-37.23,66.12,26.26-.28-45,79.84,29.79-.32L126,317.55ZM225.4,88.45l.4.68H225Z" style="fill:url(#radial-gradient-12)"/><rect x="90.17" y="320.05" width="19.87" height="114.95" style="fill:url(#radial-gradient-13)"/><path d="M202.87,358.37,154.5,276.62l30.61-.33-46.66-78.85,28.91-.31-38.65-65.31,26.51-.28L102.83,43,52.35,132.64l20.4-.22L35.52,198.54l26.26-.28-45,79.84,29.79-.32L0,360.55ZM99.4,131.45l.4.68H99Z" style="fill:url(#radial-gradient-13)"/></svg>