<svg id="Layer_1" data-name="Layer 1" xmlns="http://www.w3.org/2000/svg" xmlns:xlink="http://www.w3.org/1999/xlink" viewBox="0 0 739.05 497.59"><defs><style>.cls-1{fill:url(#radial-gradient);}.cls-2{fill:url(#radial-gradient-2);}.cls-3{fill:url(#radial-gradient-3);}.cls-4{fill:#00742a;}.cls-5{fill:url(#radial-gradient-4);}.cls-6{fill:url(#radial-gradient-5);}.cls-7{fill:url(#radial-gradient-6);}.cls-8{fill:url(#radial-gradient-7);}.cls-9{fill:url(#radial-gradient-8);}.cls-10{fill:url(#radial-gradient-9);}.cls-11{fill:url(#radial-gradient-10);}</style><radialGradient id="radial-gradient" cx="36.89" cy="403.64" r="242.79" gradientUnits="userSpaceOnUse"><stop offset="0" stop-color="#856e65"/><stop offset="0.64" stop-color="#94786d"/><stop offset="1" stop-color="#a1887e"/></radialGradient><radialGradient id="radial-gradient-2" cx="36.89" cy="403.64" r="242.79" gradientUnits="userSpaceOnUse"><stop offset="0" stop-color="#446763"/><stop offset="0.49" stop-color="#5a786d"/><stop offset="1" stop-color="#8c9f86"/></radialGradient><radialGradient id="radial-gradient-3" cx="228.59" cy="365.3" r="396.57" xlink:href="#radial-gradient"/><radialGradient id="radial-gradient-4" cx="228.59" cy="365.3" r="396.57" gradientUnits="userSpaceOnUse"><stop offset="0" stop-color="#94b598"/><stop offset="0.64" stop-color="#b1caa0"/><stop offset="1" stop-color="#aec9a8"/></radialGradient><radialGradient id="radial-gradient-5" cx="357.41" cy="303.95" r="329.36" xlink:href="#radial-gradient"/><radialGradient id="radial-gradient-6" cx="357.41" cy="303.95" r="329.36" gradientUnits="userSpaceOnUse"><stop offset="0" stop-color="#6d7751"/><stop offset="0.53" stop-color="#8b9766"/><stop offset="1" stop-color="#aeb98d"/></radialGradient><radialGradient id="radial-gradient-7" cx="590.77" cy="410.88" r="396.57" xlink:href="#radial-gradient"/><radialGradient id="radial-gradient-8" cx="590.77" cy="410.88" r="396.57" xlink:href="#radial-gradient-4"/><radialGradient id="radial-gradient-9" cx="466.59" cy="388.54" r="329.36" xlink:href="#radial-gradient"/><radialGradient id="radial-gradient-10" cx="466.59" cy="388.54" r="329.36" xlink:href="#radial-gradient-6"/></defs><rect class="cls-1" x="90.17" y="377.05" width="19.87" height="114.95"/><path class="cls-2" d="M202.87,415.37,154.5,333.62l30.61-.33-46.66-78.85,28.91-.31-38.65-65.31,26.51-.28L102.83,100,52.35,189.64l20.4-.22L35.52,255.54l26.26-.28-45,79.84,29.79-.32L0,417.55ZM99.4,188.45l.4.68H99Z"/><rect class="cls-3" x="264.17" y="337.05" width="19.87" height="114.95"/><polygon class="cls-4" points="273.8 149.13 273.01 149.14 273.4 148.45 273.8 149.13"/><polygon class="cls-4" points="273.8 149.13 273.01 149.14 273.4 148.45 273.8 149.13"/><path class="cls-5" d="M376.87,375.37,328.5,293.62l30.61-.33-46.66-78.85,28.91-.31-38.65-65.31,26.51-.28L276.83,60l-50.48,89.64,20.4-.22-37.23,66.12,26.26-.28-45,79.84,29.79-.32L174,377.55ZM273.4,148.45l.4.68H273Z"/><polygon class="cls-4" points="273.8 149.13 273.01 149.14 273.4 148.45 273.8 149.13"/><rect class="cls-6" x="403.17" y="277.05" width="19.87" height="114.95"/><path class="cls-7" d="M515.87,315.37,467.5,233.62l30.61-.33-46.66-78.85,28.91-.31L441.71,88.82l26.51-.28L415.83,0,365.35,89.64l20.4-.22-37.23,66.12,26.26-.28-45,79.84,29.79-.32L313,317.55ZM412.4,88.45l.4.68H412Z"/><rect class="cls-8" x="626.35" y="382.64" width="19.87" height="114.95"/><polygon class="cls-4" points="635.98 194.72 635.19 194.73 635.58 194.04 635.98 194.72"/><polygon class="cls-4" points="635.98 194.72 635.19 194.73 635.58 194.04 635.98 194.72"/><path class="cls-9" d="M739.05,421l-48.37-81.75,30.61-.33L674.63,260l28.91-.31-38.65-65.31,26.51-.28L639,105.59l-50.48,89.64,20.4-.22L571.7,261.13l26.26-.28-45,79.84,29.79-.32-46.61,82.77ZM635.58,194l.4.68h-.79Z"/><polygon class="cls-4" points="635.98 194.72 635.19 194.73 635.58 194.04 635.98 194.72"/><rect class="cls-10" x="512.35" y="361.64" width="19.87" height="114.95"/><path class="cls-11" d="M625.05,400l-48.37-81.75,30.61-.33L560.63,239l28.91-.31-38.65-65.31,26.51-.28L525,84.59l-50.48,89.64,20.4-.22L457.7,240.13l26.26-.28-45,79.84,29.79-.32-46.61,82.77ZM521.58,173l.4.68h-.79Z"/></svg>