<svg id="Layer_1" data-name="Layer 1" xmlns="http://www.w3.org/2000/svg" xmlns:xlink="http://www.w3.org/1999/xlink" viewBox="0 0 429.31 473.05"><defs><radialGradient id="radial-gradient" cx="77.07" cy="311.5" r="255.81" gradientUnits="userSpaceOnUse"><stop offset="0" stop-color="#856e65"/><stop offset="0.64" stop-color="#94786d"/><stop offset="1" stop-color="#a1887e"/></radialGradient><radialGradient id="radial-gradient-2" cx="77.07" cy="311.5" r="255.81" gradientUnits="userSpaceOnUse"><stop offset="0" stop-color="#94b598"/><stop offset="0.64" stop-color="#b1caa0"/><stop offset="1" stop-color="#aec9a8"/></radialGradient><radialGradient id="radial-gradient-3" cx="146.54" cy="298.87" r="264" xlink:href="#radial-gradient"/><radialGradient id="radial-gradient-4" cx="146.54" cy="298.87" r="264" gradientUnits="userSpaceOnUse"><stop offset="0" stop-color="#6d7751"/><stop offset="0.53" stop-color="#8b9766"/><stop offset="1" stop-color="#aeb98d"/></radialGradient><radialGradient id="radial-gradient-5" cx="279.17" cy="371.5" r="259.25" xlink:href="#radial-gradient"/><radialGradient id="radial-gradient-6" cx="279.17" cy="371.5" r="259.25" xlink:href="#radial-gradient-2"/></defs><rect x="90.17" y="307.05" width="19.87" height="114.95" style="fill:url(#radial-gradient)"/><polygon points="99.8 119.13 99.01 119.14 99.4 118.45 99.8 119.13" style="fill:#00742a"/><polygon points="99.8 119.13 99.01 119.14 99.4 118.45 99.8 119.13" style="fill:#00742a"/><path d="M202.87,345.37,154.5,263.62l30.61-.33-46.66-78.85,28.91-.31-38.65-65.31,26.51-.28L102.83,30,52.35,119.64l20.4-.22L35.52,185.54l26.26-.28-45,79.84,29.79-.32L0,347.55ZM99.4,118.45l.4.68H99Z" style="fill:url(#radial-gradient-2)"/><polygon points="99.8 119.13 99.01 119.14 99.4 118.45 99.8 119.13" style="fill:#00742a"/><rect x="215.17" y="277.05" width="19.87" height="114.95" style="fill:url(#radial-gradient-3)"/><path d="M327.87,315.37,279.5,233.62l30.61-.33-46.66-78.85,28.91-.31L253.71,88.82l26.51-.28L227.83,0,177.35,89.64l20.4-.22-37.23,66.12,26.26-.28-45,79.84,29.79-.32L125,317.55ZM224.4,88.45l.4.68H224Z" style="fill:url(#radial-gradient-4)"/><rect x="316.6" y="358.1" width="19.87" height="114.95" style="fill:url(#radial-gradient-5)"/><polygon points="326.24 170.18 325.44 170.19 325.83 169.5 326.24 170.18" style="fill:#00742a"/><polygon points="326.24 170.18 325.44 170.19 325.83 169.5 326.24 170.18" style="fill:#00742a"/><path d="M429.31,396.42l-48.37-81.75,30.61-.33-46.66-78.85,28.91-.31-38.65-65.31,26.51-.28L329.27,81.05l-50.48,89.64,20.4-.22L262,236.59l26.26-.28-45,79.84,29.79-.32L226.44,398.6ZM325.84,169.5l.4.68h-.79Z" style="fill:url(#radial-gradient-6)"/><polygon points="326.24 170.18 325.44 170.19 325.83 169.5 326.24 170.18" style="fill:#00742a"/></svg>