<svg id="Layer_1" data-name="Layer 1" xmlns="http://www.w3.org/2000/svg" xmlns:xlink="http://www.w3.org/1999/xlink" viewBox="0 0 739.05 497.59"><defs><radialGradient id="radial-gradient" cx="36.89" cy="403.64" r="242.79" gradientUnits="userSpaceOnUse"><stop offset="0" stop-color="#856e65"/><stop offset="0.64" stop-color="#94786d"/><stop offset="1" stop-color="#a1887e"/></radialGradient><radialGradient id="radial-gradient-2" cx="36.89" cy="403.64" r="242.79" gradientUnits="userSpaceOnUse"><stop offset="0" stop-color="#446763"/><stop offset="0.49" stop-color="#5a786d"/><stop offset="1" stop-color="#8c9f86"/></radialGradient><radialGradient id="radial-gradient-3" cx="228.59" cy="365.3" r="396.57" xlink:href="#radial-gradient"/><radialGradient id="radial-gradient-4" cx="228.59" cy="365.3" r="396.57" gradientUnits="userSpaceOnUse"><stop offset="0" stop-color="#94b598"/><stop offset="0.64" stop-color="#b1caa0"/><stop offset="1" stop-color="#aec9a8"/></radialGradient><radialGradient id="radial-gradient-5" cx="357.41" cy="303.95" r="329.36" xlink:href="#radial-gradient"/><radialGradient id="radial-gradient-6" cx="357.41" cy="303.95" r="329.36" gradientUnits="userSpaceOnUse"><stop offset="0" stop-color="#6d7751"/><stop offset="0.53" stop-color="#8b9766"/><stop offset="1" stop-color="#aeb98d"/></radialGradient><radialGradient id="radial-gradient-7" cx="590.77" cy="410.88" r="396.57" xlink:href="#radial-gradient"/><radialGradient id="radial-gradient-8" cx="590.77" cy="410.88" r="396.57" xlink:href="#radial-gradient-4"/><radialGradient id="radial-gradient-9" cx="466.59" cy="388.54" r="329.36" xlink:href="#radial-gradient"/><radialGradient id="radial-gradient-10" cx="466.59" cy="388.54" r="329.36" xlink:href="#radial-gradient-6"/></defs><rect x="90.17" y="377.05" width="19.87" height="114.95" style="fill:url(#radial-gradient)"/><path d="M202.87,415.37,154.5,333.62l30.61-.33-46.66-78.85,28.91-.31-38.65-65.31,26.51-.28L102.83,100,52.35,189.64l20.4-.22L35.52,255.54l26.26-.28-45,79.84,29.79-.32L0,417.55ZM99.4,188.45l.4.68H99Z" style="fill:url(#radial-gradient-2)"/><rect x="264.17" y="337.05" width="19.87" height="114.95" style="fill:url(#radial-gradient-3)"/><polygon points="273.8 149.13 273.01 149.14 273.4 148.45 273.8 149.13" style="fill:#00742a"/><polygon points="273.8 149.13 273.01 149.14 273.4 148.45 273.8 149.13" style="fill:#00742a"/><path d="M376.87,375.37,328.5,293.62l30.61-.33-46.66-78.85,28.91-.31-38.65-65.31,26.51-.28L276.83,60l-50.48,89.64,20.4-.22-37.23,66.12,26.26-.28-45,79.84,29.79-.32L174,377.55ZM273.4,148.45l.4.68H273Z" style="fill:url(#radial-gradient-4)"/><polygon points="273.8 149.13 273.01 149.14 273.4 148.45 273.8 149.13" style="fill:#00742a"/><rect x="403.17" y="277.05" width="19.87" height="114.95" style="fill:url(#radial-gradient-5)"/><path d="M515.87,315.37,467.5,233.62l30.61-.33-46.66-78.85,28.91-.31L441.71,88.82l26.51-.28L415.83,0,365.35,89.64l20.4-.22-37.23,66.12,26.26-.28-45,79.84,29.79-.32L313,317.55ZM412.4,88.45l.4.68H412Z" style="fill:url(#radial-gradient-6)"/><rect x="626.35" y="382.64" width="19.87" height="114.95" style="fill:url(#radial-gradient-7)"/><polygon points="635.98 194.72 635.19 194.73 635.58 194.04 635.98 194.72" style="fill:#00742a"/><polygon points="635.98 194.72 635.19 194.73 635.58 194.04 635.98 194.72" style="fill:#00742a"/><path d="M739.05,421l-48.37-81.75,30.61-.33L674.63,260l28.91-.31-38.65-65.31,26.51-.28L639,105.59l-50.48,89.64,20.4-.22L571.7,261.13l26.26-.28-45,79.84,29.79-.32-46.61,82.77ZM635.58,194l.4.68h-.79Z" style="fill:url(#radial-gradient-8)"/><polygon points="635.98 194.72 635.19 194.73 635.58 194.04 635.98 194.72" style="fill:#00742a"/><rect x="512.35" y="361.64" width="19.87" height="114.95" style="fill:url(#radial-gradient-9)"/><path d="M625.05,400l-48.37-81.75,30.61-.33L560.63,239l28.91-.31-38.65-65.31,26.51-.28L525,84.59l-50.48,89.64,20.4-.22L457.7,240.13l26.26-.28-45,79.84,29.79-.32-46.61,82.77ZM521.58,173l.4.68h-.79Z" style="fill:url(#radial-gradient-10)"/></svg>