<svg id="Layer_1" data-name="Layer 1" xmlns="http://www.w3.org/2000/svg" xmlns:xlink="http://www.w3.org/1999/xlink" viewBox="0 0 954.35 566.49"><defs><style>.cls-1{fill:url(#radial-gradient);}.cls-2{fill:#00742a;}.cls-3{fill:url(#radial-gradient-2);}.cls-4{fill:url(#radial-gradient-3);}.cls-5{fill:url(#radial-gradient-4);}.cls-6{fill:url(#radial-gradient-5);}.cls-7{fill:url(#radial-gradient-6);}.cls-8{fill:url(#radial-gradient-7);}.cls-9{fill:url(#radial-gradient-8);}.cls-10{fill:url(#radial-gradient-9);}.cls-11{fill:url(#radial-gradient-10);}.cls-12{fill:url(#radial-gradient-11);}.cls-13{fill:url(#radial-gradient-12);}</style><radialGradient id="radial-gradient" cx="342.1" cy="382.84" r="228.29" gradientUnits="userSpaceOnUse"><stop offset="0" stop-color="#856e65"/><stop offset="0.64" stop-color="#94786d"/><stop offset="1" stop-color="#a1887e"/></radialGradient><radialGradient id="radial-gradient-2" cx="342.1" cy="382.84" r="228.29" gradientUnits="userSpaceOnUse"><stop offset="0" stop-color="#94b598"/><stop offset="0.64" stop-color="#b1caa0"/><stop offset="1" stop-color="#aec9a8"/></radialGradient><radialGradient id="radial-gradient-3" cx="35.38" cy="456.45" r="238.65" xlink:href="#radial-gradient"/><radialGradient id="radial-gradient-4" cx="35.38" cy="456.45" r="238.65" xlink:href="#radial-gradient-2"/><radialGradient id="radial-gradient-5" cx="228.61" cy="467.19" r="230.16" xlink:href="#radial-gradient"/><radialGradient id="radial-gradient-6" cx="228.61" cy="467.19" r="230.16" gradientUnits="userSpaceOnUse"><stop offset="0" stop-color="#6d7751"/><stop offset="0.53" stop-color="#8b9766"/><stop offset="1" stop-color="#aeb98d"/></radialGradient><radialGradient id="radial-gradient-7" cx="535.33" cy="367.51" r="285.37" xlink:href="#radial-gradient"/><radialGradient id="radial-gradient-8" cx="535.33" cy="367.51" r="285.37" xlink:href="#radial-gradient-2"/><radialGradient id="radial-gradient-9" cx="667.3" cy="384.13" r="309.65" xlink:href="#radial-gradient"/><radialGradient id="radial-gradient-10" cx="667.3" cy="384.13" r="309.65" gradientUnits="userSpaceOnUse"><stop offset="0" stop-color="#446763"/><stop offset="0.49" stop-color="#5a786d"/><stop offset="1" stop-color="#8c9f86"/></radialGradient><radialGradient id="radial-gradient-11" cx="800.98" cy="432.33" r="228.29" xlink:href="#radial-gradient"/><radialGradient id="radial-gradient-12" cx="800.98" cy="432.33" r="228.29" xlink:href="#radial-gradient-2"/></defs><rect class="cls-1" x="382.77" y="385.74" width="19.87" height="114.95"/><polygon class="cls-2" points="392.4 197.81 391.61 197.82 392 197.13 392.4 197.81"/><polygon class="cls-2" points="392.4 197.81 391.61 197.82 392 197.13 392.4 197.81"/><path class="cls-3" d="M495.47,424.06,447.1,342.31l30.61-.33-46.66-78.85,28.91-.31-38.65-65.31,26.51-.28-52.39-88.54L345,198.33l20.4-.22-37.23,66.12,26.26-.28-45,79.84,29.79-.32L292.6,426.24ZM392,197.14l.4.68h-.79Z"/><polygon class="cls-2" points="392.4 197.81 391.61 197.82 392 197.13 392.4 197.81"/><rect class="cls-4" x="90.17" y="426.54" width="19.87" height="114.95"/><polygon class="cls-2" points="99.8 238.62 99.01 238.63 99.4 237.94 99.8 238.62"/><polygon class="cls-2" points="99.8 238.62 99.01 238.63 99.4 237.94 99.8 238.62"/><path class="cls-5" d="M202.87,464.85,154.5,383.1l30.61-.33-46.66-78.85,28.91-.31L128.71,238.3l26.51-.28-52.39-88.54L52.35,239.12l20.4-.22L35.52,305l26.26-.28-45,79.84,29.79-.32L0,467ZM99.4,237.93l.4.68H99Z"/><polygon class="cls-2" points="99.8 238.62 99.01 238.63 99.4 237.94 99.8 238.62"/><rect class="cls-6" x="257.17" y="451.54" width="19.87" height="114.95"/><path class="cls-7" d="M369.87,489.85,321.5,408.1l30.61-.33-46.66-78.85,28.91-.31L295.71,263.3l26.51-.28-52.39-88.54-50.48,89.64,20.4-.22L202.52,330l26.26-.28-45,79.84,29.79-.32L167,492ZM266.4,262.93l.4.68H266Z"/><rect class="cls-8" x="583.24" y="333.56" width="23.92" height="138.39"/><polygon class="cls-2" points="594.84 107.31 593.88 107.32 594.36 106.49 594.84 107.31"/><polygon class="cls-2" points="594.84 107.31 593.88 107.32 594.36 106.49 594.84 107.31"/><path class="cls-9" d="M718.93,379.69l-58.24-98.42,36.85-.4-56.17-94.93,34.8-.38-46.53-78.63,31.92-.33L598.48,0,537.71,107.92l24.56-.26-44.82,79.6,31.61-.34-54.13,96.13,35.87-.39-56.12,99.65ZM594.35,106.49l.49.82h-1Z"/><polygon class="cls-2" points="594.84 107.31 593.88 107.32 594.36 106.49 594.84 107.31"/><rect class="cls-10" x="705.65" y="363.22" width="19.87" height="114.95"/><path class="cls-11" d="M818.35,401.54,770,319.79l30.61-.33-46.66-78.85,28.91-.31L744.19,175l26.51-.28L718.31,86.17l-50.48,89.64,20.4-.22L651,241.71l26.26-.28-45,79.84,29.79-.32-46.61,82.77ZM714.88,174.62l.4.68h-.79Z"/><rect class="cls-12" x="841.65" y="435.22" width="19.87" height="114.95"/><polygon class="cls-2" points="851.28 247.3 850.49 247.31 850.88 246.62 851.28 247.3"/><polygon class="cls-2" points="851.28 247.3 850.49 247.31 850.88 246.62 851.28 247.3"/><path class="cls-13" d="M954.35,473.54,906,391.79l30.61-.33-46.66-78.85,28.91-.31L880.19,247l26.51-.28-52.39-88.54-50.48,89.64,20.4-.22L787,313.71l26.26-.28-45,79.84,29.79-.32-46.61,82.77ZM850.88,246.62l.4.68h-.79Z"/><polygon class="cls-2" points="851.28 247.3 850.49 247.31 850.88 246.62 851.28 247.3"/></svg>