<svg id="Layer_1" data-name="Layer 1" xmlns="http://www.w3.org/2000/svg" xmlns:xlink="http://www.w3.org/1999/xlink" viewBox="0 0 1280.87 682.26"><defs><radialGradient id="radial-gradient" cx="608.86" cy="320.58" r="213.91" gradientUnits="userSpaceOnUse"><stop offset="0" stop-color="#856e65"/><stop offset="0.64" stop-color="#94786d"/><stop offset="1" stop-color="#a1887e"/></radialGradient><radialGradient id="radial-gradient-2" cx="608.86" cy="320.58" r="213.91" gradientUnits="userSpaceOnUse"><stop offset="0" stop-color="#6d7751"/><stop offset="0.53" stop-color="#8b9766"/><stop offset="1" stop-color="#aeb98d"/></radialGradient><radialGradient id="radial-gradient-3" cx="849.22" cy="533.28" r="260.8" xlink:href="#radial-gradient"/><radialGradient id="radial-gradient-4" cx="849.22" cy="533.28" r="260.8" gradientUnits="userSpaceOnUse"><stop offset="0" stop-color="#94b598"/><stop offset="0.64" stop-color="#b1caa0"/><stop offset="1" stop-color="#aec9a8"/></radialGradient><radialGradient id="radial-gradient-5" cx="672.67" cy="514.14" r="255.69" xlink:href="#radial-gradient"/><radialGradient id="radial-gradient-6" cx="672.67" cy="514.14" r="255.69" xlink:href="#radial-gradient-2"/><radialGradient id="radial-gradient-7" cx="540.8" cy="526.9" r="186.85" gradientUnits="userSpaceOnUse"><stop offset="0" stop-color="#446763"/><stop offset="0.49" stop-color="#5a786d"/><stop offset="1" stop-color="#8c9f86"/></radialGradient><radialGradient id="radial-gradient-9" cx="949.19" cy="288.67" r="206.07" xlink:href="#radial-gradient-4"/><radialGradient id="radial-gradient-11" cx="1139.61" cy="582.96" r="230.16" xlink:href="#radial-gradient"/><radialGradient id="radial-gradient-12" cx="1139.61" cy="582.96" r="230.16" xlink:href="#radial-gradient-2"/><radialGradient id="radial-gradient-13" cx="183.38" cy="452.16" r="186.85" xlink:href="#radial-gradient-7"/><radialGradient id="radial-gradient-15" cx="78" cy="594.83" r="213.91" xlink:href="#radial-gradient"/><radialGradient id="radial-gradient-16" cx="78" cy="594.83" r="213.91" xlink:href="#radial-gradient-2"/></defs><rect x="621.03" y="290.05" width="19.87" height="114.95" style="fill:url(#radial-gradient)"/><path d="M733.73,328.37l-48.37-81.75,30.61-.33-46.66-78.85,28.91-.31-38.65-65.31,26.51-.28L633.69,13l-50.48,89.64,20.4-.22-37.23,66.12,26.26-.28-45,79.84,29.79-.32-46.61,82.77ZM630.26,101.45l.4.68h-.79Z" style="fill:url(#radial-gradient-2)"/><rect x="888.59" y="508.05" width="19.87" height="114.95" style="fill:url(#radial-gradient-3)"/><polygon points="898.22 320.13 897.43 320.14 897.82 319.45 898.22 320.13" style="fill:#00742a"/><polygon points="898.22 320.13 897.43 320.14 897.82 319.45 898.22 320.13" style="fill:#00742a"/><path d="M1001.29,546.37l-48.37-81.75,30.61-.33-46.66-78.85,28.91-.31-38.65-65.31,26.51-.28L901.25,231l-50.48,89.64,20.4-.22-37.23,66.12,26.26-.28-45,79.84,29.79-.32-46.61,82.77ZM897.82,319.45l.4.68h-.79Z" style="fill:url(#radial-gradient-4)"/><polygon points="898.22 320.13 897.43 320.14 897.82 319.45 898.22 320.13" style="fill:#00742a"/><rect x="734.59" y="486.05" width="19.87" height="114.95" style="fill:url(#radial-gradient-5)"/><path d="M847.29,524.37l-48.37-81.75,30.61-.33-46.66-78.85,28.91-.31-38.65-65.31,26.51-.28L747.25,209l-50.48,89.64,20.4-.22-37.23,66.12,26.26-.28-45,79.84,29.79-.32-46.61,82.77ZM743.82,297.45l.4.68h-.79Z" style="fill:url(#radial-gradient-6)"/><rect x="550.59" y="495.05" width="19.87" height="114.95" style="fill:url(#radial-gradient-7)"/><path d="M663.29,533.37l-48.37-81.75,30.61-.33-46.66-78.85,28.91-.31-38.65-65.31,26.51-.28L563.25,218l-50.48,89.64,20.4-.22-37.23,66.12,26.26-.28-45,79.84,29.79-.32-46.61,82.77ZM559.82,306.45l.4.68h-.79Z" style="fill:url(#radial-gradient-7)"/><rect x="992.59" y="277.05" width="19.87" height="114.95" style="fill:url(#radial-gradient-9)"/><path d="M1105.29,315.37l-48.37-81.75,30.61-.33-46.66-78.85,28.91-.31-38.65-65.31,26.51-.28L1005.25,0,954.77,89.64l20.4-.22-37.23,66.12,26.26-.28-45,79.84,29.79-.32-46.61,82.77ZM1001.82,88.45l.4.68h-.79Z" style="fill:url(#radial-gradient-9)"/><rect x="1168.17" y="567.31" width="19.87" height="114.95" style="fill:url(#radial-gradient-11)"/><path d="M1280.87,605.63l-48.37-81.75,30.61-.33-46.66-78.85,28.91-.31-38.65-65.31,26.51-.28-52.39-88.54-50.48,89.64,20.4-.22-37.23,66.12,26.26-.28-45,79.84,29.79-.32L1078,607.81ZM1177.4,378.71l.4.68H1177Z" style="fill:url(#radial-gradient-12)"/><rect x="193.17" y="420.31" width="19.87" height="114.95" style="fill:url(#radial-gradient-13)"/><path d="M305.87,458.63,257.5,376.88l30.61-.33L241.45,297.7l28.91-.31-38.65-65.31,26.51-.28-52.39-88.54L155.35,232.9l20.4-.22L138.52,298.8l26.26-.28-45,79.84,29.79-.32L103,460.81ZM202.4,231.71l.4.68H202Z" style="fill:url(#radial-gradient-13)"/><rect x="90.17" y="564.31" width="19.87" height="114.95" style="fill:url(#radial-gradient-15)"/><path d="M202.87,602.63,154.5,520.88l30.61-.33L138.45,441.7l28.91-.31-38.65-65.31,26.51-.28-52.39-88.54L52.35,376.9l20.4-.22L35.52,442.8l26.26-.28-45,79.84L46.61,522,0,604.81ZM99.4,375.71l.4.68H99Z" style="fill:url(#radial-gradient-16)"/></svg>