<svg id="Layer_1" data-name="Layer 1" xmlns="http://www.w3.org/2000/svg" xmlns:xlink="http://www.w3.org/1999/xlink" viewBox="0 0 857.05 449"><defs><radialGradient id="radial-gradient" cx="30.76" cy="314.97" r="291.48" gradientUnits="userSpaceOnUse"><stop offset="0" stop-color="#94b598"/><stop offset="0.64" stop-color="#b1caa0"/><stop offset="1" stop-color="#aec9a8"/></radialGradient><radialGradient id="radial-gradient-3" cx="375.81" cy="333.38" r="309.65" gradientUnits="userSpaceOnUse"><stop offset="0" stop-color="#856e65"/><stop offset="0.64" stop-color="#94786d"/><stop offset="1" stop-color="#a1887e"/></radialGradient><radialGradient id="radial-gradient-4" cx="375.81" cy="333.38" r="309.65" gradientUnits="userSpaceOnUse"><stop offset="0" stop-color="#446763"/><stop offset="0.49" stop-color="#5a786d"/><stop offset="1" stop-color="#8c9f86"/></radialGradient><radialGradient id="radial-gradient-5" cx="217.86" cy="330.31" r="230.91" xlink:href="#radial-gradient-3"/><radialGradient id="radial-gradient-6" cx="217.86" cy="330.31" r="230.91" gradientUnits="userSpaceOnUse"><stop offset="0" stop-color="#6d7751"/><stop offset="0.53" stop-color="#8b9766"/><stop offset="1" stop-color="#aeb98d"/></radialGradient><radialGradient id="radial-gradient-7" cx="579.77" cy="305.3" r="396.57" xlink:href="#radial-gradient-3"/><radialGradient id="radial-gradient-8" cx="579.77" cy="305.3" r="396.57" xlink:href="#radial-gradient"/><radialGradient id="radial-gradient-9" cx="698.59" cy="360.95" r="329.36" xlink:href="#radial-gradient-3"/><radialGradient id="radial-gradient-10" cx="698.59" cy="360.95" r="329.36" xlink:href="#radial-gradient-6"/></defs><rect x="90.17" y="294.47" width="19.87" height="114.95" style="fill:url(#radial-gradient)"/><path d="M202.87,332.78,154.5,251l30.61-.33-46.66-78.85,28.91-.31-38.65-65.31,26.51-.28L102.83,17.41,52.35,107.05l20.4-.22L35.52,173l26.26-.28-45,79.84,29.79-.32L0,335ZM99.4,105.86l.4.68H99Z" style="fill:url(#radial-gradient)"/><rect x="414.17" y="312.47" width="19.87" height="114.95" style="fill:url(#radial-gradient-3)"/><path d="M526.87,350.78,478.5,269l30.61-.33-46.66-78.85,28.91-.31-38.65-65.31,26.51-.28L426.83,35.41l-50.48,89.64,20.4-.22L359.52,191l26.26-.28-45,79.84,29.79-.32L324,353ZM423.4,123.86l.4.68H423Z" style="fill:url(#radial-gradient-4)"/><rect x="266.17" y="303.47" width="19.87" height="114.95" style="fill:url(#radial-gradient-5)"/><path d="M378.87,341.78,330.5,260l30.61-.33-46.66-78.85,28.91-.31-38.65-65.31,26.51-.28L278.83,26.41l-50.48,89.64,20.4-.22L211.52,182l26.26-.28-45,79.84,29.79-.32L176,344ZM275.4,114.86l.4.68H275Z" style="fill:url(#radial-gradient-6)"/><rect x="615.35" y="277.05" width="19.87" height="114.95" style="fill:url(#radial-gradient-7)"/><polygon points="624.98 89.13 624.19 89.14 624.58 88.45 624.98 89.13" style="fill:#00742a"/><polygon points="624.98 89.13 624.19 89.14 624.58 88.45 624.98 89.13" style="fill:#00742a"/><path d="M728.05,315.37l-48.37-81.75,30.61-.33-46.66-78.85,28.91-.31L653.89,88.82l26.51-.28L628,0,577.53,89.64l20.4-.22L560.7,155.54l26.26-.28L542,235.1l29.79-.32-46.61,82.77ZM624.58,88.45l.4.68h-.79Z" style="fill:url(#radial-gradient-8)"/><polygon points="624.98 89.13 624.19 89.14 624.58 88.45 624.98 89.13" style="fill:#00742a"/><rect x="744.35" y="334.05" width="19.87" height="114.95" style="fill:url(#radial-gradient-9)"/><path d="M857.05,372.37l-48.37-81.75,30.61-.33-46.66-78.85,28.91-.31-38.65-65.31,26.51-.28L757,57l-50.48,89.64,20.4-.22L689.7,212.54l26.26-.28L671,292.1l29.79-.32-46.61,82.77ZM753.58,145.45l.4.68h-.79Z" style="fill:url(#radial-gradient-10)"/></svg>