<svg id="Layer_1" data-name="Layer 1" xmlns="http://www.w3.org/2000/svg" xmlns:xlink="http://www.w3.org/1999/xlink" viewBox="0 0 1354.49 803.73"><defs><style>.cls-1{fill:url(#radial-gradient);}.cls-2{fill:#00742a;}.cls-3{fill:url(#radial-gradient-2);}.cls-4{fill:url(#radial-gradient-3);}.cls-5{fill:url(#radial-gradient-4);}.cls-6{fill:url(#radial-gradient-5);}.cls-7{fill:url(#radial-gradient-6);}.cls-8{fill:url(#radial-gradient-7);}.cls-9{fill:url(#radial-gradient-8);}.cls-10{fill:url(#radial-gradient-9);}.cls-11{fill:url(#radial-gradient-11);}.cls-12{fill:url(#radial-gradient-12);}.cls-13{fill:url(#radial-gradient-13);}.cls-14{fill:url(#radial-gradient-14);}.cls-15{fill:url(#radial-gradient-15);}.cls-16{fill:url(#radial-gradient-16);}.cls-17{fill:url(#radial-gradient-17);}.cls-18{fill:url(#radial-gradient-18);}</style><radialGradient id="radial-gradient" cx="490.78" cy="520.88" r="245.94" gradientUnits="userSpaceOnUse"><stop offset="0" stop-color="#856e65"/><stop offset="0.64" stop-color="#94786d"/><stop offset="1" stop-color="#a1887e"/></radialGradient><radialGradient id="radial-gradient-2" cx="490.78" cy="520.88" r="245.94" gradientUnits="userSpaceOnUse"><stop offset="0" stop-color="#94b598"/><stop offset="0.64" stop-color="#b1caa0"/><stop offset="1" stop-color="#aec9a8"/></radialGradient><radialGradient id="radial-gradient-3" cx="1188.44" cy="297.54" r="286.16" xlink:href="#radial-gradient"/><radialGradient id="radial-gradient-4" cx="1188.44" cy="297.54" r="286.16" xlink:href="#radial-gradient-2"/><radialGradient id="radial-gradient-5" cx="1001.27" cy="493.23" r="327.44" xlink:href="#radial-gradient"/><radialGradient id="radial-gradient-6" cx="1001.27" cy="493.23" r="327.44" gradientUnits="userSpaceOnUse"><stop offset="0" stop-color="#446763"/><stop offset="0.49" stop-color="#5a786d"/><stop offset="1" stop-color="#8c9f86"/></radialGradient><radialGradient id="radial-gradient-7" cx="908.61" cy="530.43" r="230.16" xlink:href="#radial-gradient"/><radialGradient id="radial-gradient-8" cx="908.61" cy="530.43" r="230.16" gradientUnits="userSpaceOnUse"><stop offset="0" stop-color="#6d7751"/><stop offset="0.53" stop-color="#8b9766"/><stop offset="1" stop-color="#aeb98d"/></radialGradient><radialGradient id="radial-gradient-9" cx="753.77" cy="469.4" r="206.07" xlink:href="#radial-gradient-2"/><radialGradient id="radial-gradient-11" cx="456.13" cy="650.29" r="243.73" xlink:href="#radial-gradient"/><radialGradient id="radial-gradient-12" cx="456.13" cy="650.29" r="243.73" xlink:href="#radial-gradient-8"/><radialGradient id="radial-gradient-13" cx="12.38" cy="577.43" r="327.44" xlink:href="#radial-gradient"/><radialGradient id="radial-gradient-14" cx="12.38" cy="577.43" r="327.44" xlink:href="#radial-gradient-6"/><radialGradient id="radial-gradient-15" cx="290.04" cy="590.11" r="245.94" xlink:href="#radial-gradient"/><radialGradient id="radial-gradient-16" cx="290.04" cy="590.11" r="245.94" xlink:href="#radial-gradient-2"/><radialGradient id="radial-gradient-17" cx="266" cy="719.31" r="213.91" xlink:href="#radial-gradient"/><radialGradient id="radial-gradient-18" cx="266" cy="719.31" r="213.91" xlink:href="#radial-gradient-8"/></defs><rect class="cls-1" x="554.6" y="490.08" width="23.92" height="138.39"/><polygon class="cls-2" points="566.2 263.83 565.25 263.84 565.72 263.01 566.2 263.83"/><polygon class="cls-2" points="566.2 263.83 565.25 263.84 565.72 263.01 566.2 263.83"/><path class="cls-3" d="M690.29,536.21l-58.23-98.42,36.85-.4-56.18-94.93,34.81-.37L601,263.46l31.91-.34-63.07-106.6L509.07,264.45l24.56-.27-44.82,79.61,31.62-.34L466.3,439.57l35.86-.38-56.11,99.65ZM565.72,263l.48.82h-1Z"/><polygon class="cls-2" points="566.2 263.83 565.25 263.84 565.72 263.01 566.2 263.83"/><rect class="cls-4" x="1241.79" y="277.05" width="19.87" height="114.95"/><path class="cls-5" d="M1354.49,315.37l-48.37-81.75,30.61-.33-46.66-78.85,28.91-.31-38.65-65.31,26.51-.28L1254.45,0,1204,89.64l20.4-.22-37.23,66.12,26.26-.28-45,79.84,29.79-.32-46.61,82.77ZM1251,88.45l.4.68h-.79Z"/><rect class="cls-6" x="1079.05" y="473.58" width="19.87" height="114.95"/><path class="cls-7" d="M1191.76,511.9l-48.37-81.75,30.61-.33L1127.34,351l28.91-.31-38.65-65.31,26.51-.28-52.39-88.54-50.48,89.64,20.4-.22-37.23,66.12,26.26-.28-45,79.84,29.79-.32-46.61,82.77ZM1088.29,285l.4.68h-.79Z"/><rect class="cls-8" x="937.17" y="514.78" width="19.87" height="114.95"/><path class="cls-9" d="M1049.87,553.1l-48.37-81.75,30.61-.33-46.66-78.85,28.91-.31-38.65-65.31,26.51-.28-52.39-88.54-50.48,89.64,20.4-.22-37.23,66.12,26.26-.28-45,79.84,29.79-.32L847,555.28ZM946.4,326.18l.4.68H946Z"/><rect class="cls-10" x="797.17" y="457.78" width="19.87" height="114.95"/><path class="cls-10" d="M909.87,496.1,861.5,414.35l30.61-.33-46.66-78.85,28.91-.31-38.65-65.31,26.51-.28-52.39-88.54-50.48,89.64,20.4-.22-37.23,66.12,26.26-.28-45,79.84,29.79-.32L707,498.28ZM806.4,269.18l.4.68H806Z"/><rect class="cls-11" x="509.17" y="619.78" width="19.87" height="114.95"/><path class="cls-12" d="M621.87,658.1,573.5,576.35l30.61-.33-46.66-78.85,28.91-.31-38.65-65.31,26.51-.28-52.39-88.54-50.48,89.64,20.4-.22-37.23,66.12,26.26-.28-45,79.84,29.79-.32L419,660.28ZM518.4,431.18l.4.68H518Z"/><rect class="cls-13" x="90.17" y="557.78" width="19.87" height="114.95"/><path class="cls-14" d="M202.87,596.1,154.5,514.35l30.61-.33-46.66-78.85,28.91-.31-38.65-65.31,26.51-.28-52.39-88.54L52.35,370.37l20.4-.22L35.52,436.27,61.78,436l-45,79.84,29.79-.32L0,598.28ZM99.4,369.18l.4.68H99Z"/><rect class="cls-15" x="353.87" y="559.31" width="23.92" height="138.39"/><polygon class="cls-2" points="365.47 333.06 364.51 333.07 364.99 332.24 365.47 333.06"/><polygon class="cls-2" points="365.47 333.06 364.51 333.07 364.99 332.24 365.47 333.06"/><path class="cls-16" d="M489.56,605.44,431.32,507l36.86-.4L412,411.69l34.81-.37-46.54-78.63,31.92-.34-63.08-106.6L308.34,333.68l24.56-.27L288.08,413l31.61-.34L265.56,508.8l35.87-.38-56.12,99.65ZM365,332.24l.48.82h-1Z"/><polygon class="cls-2" points="365.47 333.06 364.51 333.07 364.99 332.24 365.47 333.06"/><rect class="cls-17" x="278.17" y="688.78" width="19.87" height="114.95"/><path class="cls-18" d="M390.87,727.1,342.5,645.35l30.61-.33-46.66-78.85,28.91-.31-38.65-65.31,26.51-.28-52.39-88.54-50.48,89.64,20.4-.22-37.23,66.12,26.26-.28-45,79.84,29.79-.32L188,729.28ZM287.4,500.18l.4.68H287Z"/></svg>