<svg id="Layer_1" data-name="Layer 1" xmlns="http://www.w3.org/2000/svg" xmlns:xlink="http://www.w3.org/1999/xlink" viewBox="0 0 373.68 527.78"><defs><radialGradient id="radial-gradient" cx="166.36" cy="418.35" r="340.46" gradientUnits="userSpaceOnUse"><stop offset="0" stop-color="#856e65"/><stop offset="0.64" stop-color="#94786d"/><stop offset="1" stop-color="#a1887e"/></radialGradient><radialGradient id="radial-gradient-2" cx="166.36" cy="418.35" r="340.46" gradientUnits="userSpaceOnUse"><stop offset="0" stop-color="#6d7751"/><stop offset="0.53" stop-color="#8b9766"/><stop offset="1" stop-color="#aeb98d"/></radialGradient><radialGradient id="radial-gradient-3" cx="49.52" cy="361.51" r="333.44" xlink:href="#radial-gradient"/><radialGradient id="radial-gradient-4" cx="49.52" cy="361.51" r="333.44" gradientUnits="userSpaceOnUse"><stop offset="0" stop-color="#94b598"/><stop offset="0.64" stop-color="#b1caa0"/><stop offset="1" stop-color="#aec9a8"/></radialGradient></defs><rect x="236.16" y="387.52" width="24.24" height="140.25" style="fill:url(#radial-gradient)"/><path d="M373.68,434.27l-59-99.74,37.35-.4-56.94-96.21,35.28-.38-47.16-79.69,32.35-.34-63.93-108L190,158.85l24.89-.26-45.42,80.67,32-.34-54.86,97.41,36.35-.39-56.87,101ZM247.43,157.4l.49.83h-1Z" style="fill:url(#radial-gradient-2)"/><rect x="116.49" y="357.94" width="25.67" height="148.51" style="fill:url(#radial-gradient-3)"/><polygon points="128.94 115.15 127.92 115.16 128.42 114.27 128.94 115.15" style="fill:#00742a"/><polygon points="128.94 115.15 127.92 115.16 128.42 114.27 128.94 115.15" style="fill:#00742a"/><path d="M262.1,407.44,199.61,301.82l39.54-.42L178.87,199.53l37.35-.4-49.93-84.38,34.25-.36L132.85,0,67.63,115.81,94,115.53,45.89,201l33.93-.36L21.73,303.74l38.49-.42L0,410.26ZM128.42,114.27l.52.88h-1Z" style="fill:url(#radial-gradient-4)"/><polygon points="128.94 115.15 127.92 115.16 128.42 114.27 128.94 115.15" style="fill:#00742a"/></svg>