<svg id="Layer_1" data-name="Layer 1" xmlns="http://www.w3.org/2000/svg" viewBox="0 0 150 150"><path d="M75,48.27a22,22,0,1,1,22-22A22,22,0,0,1,75,48.27ZM75,8A18.23,18.23,0,1,0,93.23,26.25,18.25,18.25,0,0,0,75,8Z" style="fill:#f2f2f2"/><path d="M75.42,145.77c-23.23,0-42.13-22.05-42.13-49.15s18.9-49.15,42.13-49.15,42.14,22,42.14,49.15S98.66,145.77,75.42,145.77Zm0-94.51c-21.14,0-38.35,20.35-38.35,45.36S54.28,142,75.42,142s38.36-20.35,38.36-45.36S96.57,51.26,75.42,51.26Z" style="fill:#f2f2f2"/><path d="M147.84,93.13c-16.06-11.13-30.42-.51-31,0l-2.29-3c.17-.13,17.11-12.77,35.48,0Z" style="fill:#f2f2f2"/><path d="M143.72,119c-16.13-11.17-30.88-.17-31-.06l-2.3-3c.17-.13,17.11-12.78,35.48-.06Z" style="fill:#f2f2f2"/><path d="M138.36,67.31c-16.06-11.12-30.43-.51-31,0l-2.3-3c.17-.13,17.12-12.77,35.49,0Z" style="fill:#f2f2f2"/><path d="M2.16,93.13,0,90c18.36-12.72,35.31-.08,35.48,0l-2.29,3C32.58,92.62,18.22,82,2.16,93.13Z" style="fill:#f2f2f2"/><path d="M6.28,119l-2.15-3.12c18.36-12.71,35.31-.07,35.48.06l-2.3,3C36.71,118.44,22.35,107.82,6.28,119Z" style="fill:#f2f2f2"/><path d="M11.64,67.31,9.48,64.2c18.37-12.72,35.31-.08,35.49,0l-2.3,3C42.07,66.81,27.7,56.19,11.64,67.31Z" style="fill:#f2f2f2"/></svg>