<svg id="Layer_1" data-name="Layer 1" xmlns="http://www.w3.org/2000/svg" xmlns:xlink="http://www.w3.org/1999/xlink" viewBox="0 0 787.03 594.82"><defs><radialGradient id="radial-gradient" cx="69.8" cy="-7845.76" r="0.01" gradientTransform="translate(609.43 -4167.26) rotate(180) scale(0.55)" gradientUnits="userSpaceOnUse"><stop offset="0" stop-color="#b0a690"/><stop offset="0.51" stop-color="#b0a690"/><stop offset="1" stop-color="#c6cdc7"/></radialGradient><radialGradient id="radial-gradient-2" cx="549.47" cy="78.37" r="0.01" gradientTransform="matrix(1, 0, 0, 1, 0, 0)" xlink:href="#radial-gradient"/><radialGradient id="radial-gradient-3" cx="109.24" cy="-7776.99" r="0.01" xlink:href="#radial-gradient"/></defs><path d="M757.09,90.13H59.48c-16.53,0-29.93,11.06-29.93,24.71V389.52c0,13.65,13.4,24.71,29.93,24.71h58.71c16.53,0,29.93-11.06,29.93-24.71V357.2c0-13.64,13.4-24.71,29.93-24.71h61c16.53,0,29.93,11.07,29.93,24.71v5.71c0,13.65,13.4,24.71,29.93,24.71h0c16.53,0,29.93-11.06,29.93-24.71V336.29c0-13.64,13.41-24.71,29.94-24.71H424.4c16.53,0,29.93,11.07,29.93,24.71V473.16c0,13.65,13.4,24.71,29.93,24.71h70.23c16.53,0,29.93,11.07,29.93,24.71v47.53c0,13.64,13.4,24.71,29.93,24.71H757.09c16.54,0,29.94-11.07,29.94-24.71V114.84C787,101.19,773.63,90.13,757.09,90.13Z" style="fill:#23586a"/><path d="M727.55,53.78H29.93C13.4,53.78,0,64.84,0,78.49V353.17c0,13.65,13.4,24.71,29.93,24.71H88.64c16.53,0,29.93-11.06,29.93-24.71V320.85c0-13.64,13.4-24.71,29.93-24.71h61c16.53,0,29.93,11.07,29.93,24.71v5.71c0,13.64,13.4,24.71,29.93,24.71h0c16.53,0,29.93-11.07,29.93-24.71V299.94c0-13.64,13.4-24.71,29.93-24.71h65.62c16.53,0,29.93,11.07,29.93,24.71V436.81c0,13.65,13.4,24.71,29.93,24.71h70.22c16.53,0,29.93,11.06,29.93,24.71v47.52c0,13.65,13.4,24.72,29.93,24.72H727.55c16.53,0,29.93-11.07,29.93-24.72V78.49C757.48,64.84,744.08,53.78,727.55,53.78Z" style="fill:#8b9e85"/><path d="M126.08,136.58,232.2,226.46a39.27,39.27,0,0,0,32.15,8.72L315,226.33a39.33,39.33,0,0,1,12.58-.16L539,257.8a39.28,39.28,0,0,1,13.63,4.72l48,27.34a39.26,39.26,0,0,0,36,1.49l85.63-39.76a39.26,39.26,0,0,0,22.58-39.06l-3.33-37.88a39.29,39.29,0,0,0-26.68-33.81L598.29,101.91a39.24,39.24,0,0,0-12.44-2H428.57c-1.55,0-6.55-45.2-8.09-45.38H255.62c-1.11-.13-119.6-2.94-120.72-3L42,56C4.76,54.7,97.65,112.51,126.08,136.58Z" style="fill:#c6cdc7"/><path d="M632.09,79.61a3.26,3.26,0,0,1,3.83,2.27c-4.31,4.89-9.69,6.12.91,6-4.29,4.8-22.54,8.38-10.69,16-15.8,5.9,2.33,8.83-27,10.15,10.4,6.57-5.9,5.86-9,8.91l6.65,3.75-20.66,4c-.06-.72-.15-1.37-.25-1.94a5.67,5.67,0,0,0-.12-.62h0c-.49-2.4-1.2-3.53-1.06-4.54a23.48,23.48,0,0,0,4.47-2.79,13.12,13.12,0,0,0,.22-1.49l.94-.61-2.2-4.6c4.61,5.87,4.23-1.66,4.38-6.79,0,0,0-.07,0-.1.06-1.77.18-3.24.62-3.74,11.32-1.35,5.23,14.5,11.72-5.88,9,17.46,3.06-12.44,4.35-17.35,6.43-2.62,4.87,6.79,6,10.16,3.1-4.43,1.42-20.34,8.08-6.69-2-24.84,6.62,3.4,8.1-23.43,7.57,12.76,5.24-4.42,7.74-8.89,3.89,9.3,5.14,6.67,11,.81,11.69,7.74-13.23,11.68,5.12,13.74C642.62,69.77,636.6,77.93,632.09,79.61Z" style="fill:#c7b570"/><path d="M574.88,127.9v0l0,.94a2,2,0,0,0,0-.22v-.16c0-.2,0-.43,0-.6a.92.92,0,0,1,0-.24C574.79,127.58,574.82,127.64,574.88,127.9Z" style="fill:#aa7455"/><path d="M574.27,46.7c18.25,1.57-12.47,12.53,1.73,10.81L577.24,65c-1.1,1-13.72,2.46-4.48,3,3.08,12.63-11.31,5.51-2.29,17.74-2.76,2.74-7,4.18-.06,4.22l-7.11,9.13c1.94-.24,2.69,1.69,3,3.22-5.22,4-4.38,5.68-3.06,11.68a9.93,9.93,0,0,0-3.61,2,2.69,2.69,0,0,0-.85,2.13,0,0,0,0,0,0,0c.07,1.38,1,3,2.39,5.23-7.32,3.54-8.12,1.19-9-.37-.11-.18-.21-.36-.32-.51-.56-.72-1.39-.92-3.74.68,0-2.64,4.89-10.18,2-12a2.2,2.2,0,0,0-.56-.24,4.63,4.63,0,0,0-1.69-.11c.13-1.17.35-2.44.62-3.78,0,0,0,0,0,0,2.22-4.47,4.21-9.3,2.17-9.81,1.22-5.87,1.85-11.46-.57-14.29l-.09-.11.71-.78c1.83-2,2.51-3.06,1.75-3.87.17-1.51-.84-2.35-4-1.75l-.11,0c4.25-9.19,4.55-.21,8,3L555.23,67l4.08,2.28-1.43-11c8,9.39-2.43-12-1.49-12.94,17.74,10.23-3.91-14.08,9.57-7.27-6.3-17.37,6.44,4-1.27-17,2.38-2,5,2.4,6.43,3.7.54-1.77.13-6.9,3.52-5.8,1.29,2.14,2.15,6.32,5.19,3.62,6.87,3.1-.57,7.4-2.7,10.86C587.9,33.7,575.08,42.92,574.27,46.7Z" style="fill:#c7b570"/><polygon points="549.26 90.65 549.81 89.64 549.26 90.65 549.26 90.65" style="fill:#aa7455"/><path d="M551.08,125.8l.6-1.43C551.82,125.15,551.59,125.62,551.08,125.8Z" style="fill:#aa7455"/><path d="M565,111.5a.3.3,0,0,1,0-.21C565,111.41,565,111.48,565,111.5Z" style="fill:#aa7455"/><path d="M538.9,123.62l-3.81,9.31c-1.58-3-2.62-2.58-4.78-.47-.18-2.41,0-5.1-2.37-5.56l-.12,0a4.53,4.53,0,0,0-1,0c-.32-2.7-2.13-.66-1.4-3.71a1.77,1.77,0,0,0-2-.9c-1.08.26-2.17,1.39-3.07,2l0,0s.94-3.32.94-3.32a1.65,1.65,0,0,1-.53,0c.51-3.68.18-5.4-.53-6.18-.26-1.51-1.4-2.5-4.88-1.8l-.14,0,.11-.17c2.94-4.26,2.34-6.06,1.25-7.23-.4-.43-.88-.78-1.26-1.14-1-.87-1.35-1.79,1.24-4.2-3.13-2.83-6.91-4.21-1.47-7.29-1.85-2.19-10.44-5.85-6.67-9.69,1.13-.47,7.23,2.55,5.13-.94-3.3-4.44-7.86-5.83.79-7-2.94-4-3.91-3.72-.81-7.53C506.31,66.1,509,64,511.69,59.1c-3.28.73-4.64-1-4.93-4.09.35-.31,4.3-2.69,3.52-3.43-11.72-3,3-6.28-6.95-8.54,1.18-2.54,5.88-7.16.81-8.6.08-4.16.23-9.61,5.19-10.66,3,6.08.13,9.36,7,4.67-.22,7.93,4,16.58,1.89,23.32,8.11-5.08,1.93,2.81,2.59,6.09,9-5.53.88,6,2,8.75,6.78-1.72,1.7,3.62,1.43,6.68,10.88-6.67-4.84,9.7,4.48,11.18-7.35,7.65,5.6,8.48-3.9,16.61,0,1.87,4.27.79,5.22,1l-1.23,10.49c4.8-5.38,3,6.81,4.23,8.35C533.52,118.17,538.06,123.54,538.9,123.62Z" style="fill:#c7b570"/><path d="M539.12,121.13l-.23-.29C539,121,539.12,121.07,539.12,121.13Z" style="fill:#aa7455"/><path d="M470.42,103.34c-2.74.61-5.72,2-7.12-.81,8.57-5-4.89-2.74-6.48-4.68l4.56-5.07c-2.46-1.67-22.3-.77-9.31-5.24-4.74-1-14.69-3.1-3.86-6.46l-11.32-2.81s5.79-3.26,5.5-3.25c-3.44,0-7-1.51-7.73-5.22,12.38-2.24-6.34-11.13,7.34-12,5.69,7.45,10-5.25,8.74,10.06,6.75-3.9,8.68.44,4.77,6.06a12.85,12.85,0,0,0,4.15-.56C461.86,81.46,466.13,92.65,470.42,103.34Z" style="fill:#c7b570"/><path d="M499.9,140.78l-.31.08a4.73,4.73,0,0,0,0-1.06,2.61,2.61,0,0,0-.35-1.2h0a2.45,2.45,0,0,0-1.62-1.07,11.35,11.35,0,0,0-2.6-.2c-.52,0-1,0-1.54,0,0-.34,0-.68,0-1h0c0-.29,0-.58,0-.86v0c.42-1.6,2.25-3.77.26-5.28-.27-2.07-1.65-3-6.42-1.89a13,13,0,0,1-.49-3.14c2.19-12.88-3.77-10-4.38-13.39l2.37-6.15-.6-.3c-3.64-1.85-6.16-3.39-6-5.5.11-1.28,1.21-2.76,3.64-4.65,3.64.36,0,4.92-.23,6.62,8.55,2.09,9.38,3.07,4.64,10.75,7-.5,7,2.24,6.61,8.25,5.74-1.2,6.22.82,6.5,6,.95-2.54,4.73-.59,8.12,1.56.87.54,1.71,1.1,2.47,1.6h0c.67.44,1.26.84,1.77,1.14,0,0,0,0,0,0a5.54,5.54,0,0,0,1.21.56,8.61,8.61,0,0,1,.17,1.06h0C514,140,505.17,139.39,499.9,140.78Z" style="fill:#c7b570"/><path d="M571.33,117.56h0Z" style="fill:url(#radial-gradient)"/><path d="M582.54,107.19s0,.07,0,.1l0,0Zm-6.64,21.55.79-.43-.91-.19A5.67,5.67,0,0,1,575.9,128.74Zm-1.11-.86c0,.17,0,.4,0,.6v.16a2,2,0,0,1,0,.22l0-.94v0l-.08,0Zm0,.13v.25c0-.12,0-.24,0-.34A.28.28,0,0,1,574.81,128ZM565,111.5s0-.09,0-.21A.3.3,0,0,0,565,111.5Zm-6.13,6.66a2.69,2.69,0,0,1,.85-2.13C558.63,116.3,558.45,117.09,558.82,118.16Z" style="fill:#b0a690"/><path d="M599.21,64.44l11.44-6.72c-.88-4.85-4-6.25-8.61-5.19,1.49-4.81,15.57-14.92,3.71-16.89l-3.63,4.76-9.28-5.53c-1.1,5.45,8.14,15.09-4.32,8.92.48,6.06,11,19.93-3,9.83-6,4.6,1.27,10.33,4.07,14.25l-7.06-1.61,3.8,8.49-5.63-2.11C575.75,74.7,584.17,81,585,83.17c-.9,2-10.42-5.74-11.35-6-4.3,2.08,3.64,11.61,4.56,13.8-5.76,1-7.14,1.85-5.34,7.68-10.46-6-6.12,4-2.27,8.56-11.35,0-8.12,2.24-4,10-3.62-1.25-5.8-1.57-6.94-1.26a2.69,2.69,0,0,0-.85,2.13,0,0,0,0,0,0,0c.71,2.1,3.48,5.26,6,7.79-2,.21-8.42-1-7.86,2.8,6.27,10,11.45,4.09,18.89,0a5.67,5.67,0,0,0-.12-.62h0l-.9-.21v0l0,.94v-.38c0-.2,0-.43,0-.6-5.38-1.39-3.19-2.65-.07-4.31a23.48,23.48,0,0,0,4.47-2.79,13.12,13.12,0,0,0,.22-1.49c.84-8.9-10-3,3.12-12,0,0,0-.07,0-.1-.93-1.9-2.34-3.74-4.67-2.85,2.23-3.79,21.67-13.82,8.08-15.87,7.27-3.7,16.51-6.27,6.11-13.47C597.32,70.57,613.58,74,599.21,64.44ZM565,111.5a.3.3,0,0,1,0-.21C565,111.41,565,111.48,565,111.5Z" style="fill:#b0a690"/><path d="M549.48,78.37h0Z" style="fill:url(#radial-gradient-2)"/><path d="M549.78,80h0Z" style="fill:url(#radial-gradient-3)"/><path d="M538.89,120.84l.23.29C539.12,121.07,539,121,538.89,120.84Zm11.22-10.2-.52.37a2.2,2.2,0,0,1,.56.24A3.74,3.74,0,0,0,550.11,110.64ZM550,82.89l.09.11.62-.89Zm1.87,39.64c.11.15.21.33.32.51l.5-1.19Z" style="fill:#b0a690"/><path d="M548.54,76.49a24.84,24.84,0,0,0-3.48,1s6.27-10.81,6.27-10.81c-2.25-2.48-5.24-1.76-7.69,0,2.13-6.59,9.87-12-2.4-12.23-2.53-5.34,9.62-7.26,12.25-9L542.16,38.7c6.68-4.09,12.26-4.1,2.47-10.06,7-1.46,1.92-6.41.27-10.19-5.66.35-8,2.28-8.19,8.1l-6.62-2.3c-.82,2.79-1.72,5.42,1.75,6.52l-7.2.41c3.1,3.5,12.21,8.17.87,5.31-7.56,6.74,18.26,9.21-1.91,13-2.6,4.48,11.49,5.8,9.84,9.36L525.23,61c24,27.36-4.35-2.71,7,22.72,3,.67,6.67,1.42,5.59,5.36-13.3-7.41-12.14-1.59-7.53,4.9a0,0,0,0,0,0,0,44.18,44.18,0,0,0,7.64,8.3s-1.5,2.25-1.5,2.25c-14.16-7.94,1.71,7.4,2.1,10.65-11.9-.62.83,6,1.43,10-6.27,3.27,4.82,9.33,6.32,12l4.75-11.37.6-1.43.55-1.33c-.11-.18-.21-.36-.32-.51-10.07,8.12-1.88-6.46-1.76-11.28a2.2,2.2,0,0,0-.56-.24c-1.29.93-4.57,3.26-4.77,3.4.46-1.18,2.13-4.14,3.7-7.29,0,0,0,0,0,0,2.22-4.47,4.21-9.3,2.17-9.81-.89-.23-2.54.36-5.26,2.14,1.66-3.58,12.16-15.33.74-11.77a46.12,46.12,0,0,0,4-4.66l-.09-.11.71-.78a10.15,10.15,0,0,0,1.75-3.87C552.67,76.73,551.66,75.89,548.54,76.49Z" style="fill:#b0a690"/><path d="M538.89,120.84c.14.13.23.23.23.29Z" style="fill:#b0a690"/><path d="M549.45,78.38h0Z" style="fill:#b0a690"/><path d="M527.94,126.9l-3.31,15.24c-1.89-2.95-4.16-4.43-7.21-1.79-.28-3.19-.71-6.36-2.19-8.68,0,0,0,0,0,0a8.61,8.61,0,0,0-.17-1.06,5.54,5.54,0,0,1-1.21-.56s0,0,0,0a6.81,6.81,0,0,0-1.77-1.14h0c-.76-.5-1.6-1.06-2.47-1.6,1-.84,2.3-2,1.58-2.58-4.79,2.56-14.71-9.11-3.2-7.79,1.09-4.48-6.53-3-8.82-3.45,3.16-4.92-1.81-7.36-5.5-9.42,7.43-8.89-9.18-7.9-1.27-13.14-4.37-3.66-7.1-5.27-1.73-9.9-1.35-2.47-10.65-5.75-3.41-7.69-1.82-3.69-11.55-7.61-2.47-9.72-3.13-3.92-10.21-4.88-.19-6.23-3.39-4.52-15.15-5-1.37-7.8l-7.71-2.78c-1.23-5.15.89-4.83,5.15-4.36l-7.16-4.62c1-3,3.95-2.15,6.23-1.57-.18-3.47-3.55-9,2.69-8.2,2.22,1.85,3.48,18.33,6.36,6.47l2.58,11.19L497,47.07c-.22,3.31.06,9-4.6,9.24,13.59,2-.06,6.2.28,11.25,3-3.16,6.36-2.66,9.42.06-3.5,3.12-4.36,4.38.57,6.33-8.56,9.48-1.93.81,3.07,8.92l-6.45,6.47c8.39-.33,6.37,1.72,4.13,8,15-1-3.5,9.51,11.88,7.15.38.36.86.71,1.26,1.14-1.15,3.9-1.45,6.06-1.25,7.23l-.11.17.14,0c.53,2.44,3.46.22,4.88,1.8.71.78,1,2.5.53,6.18a1.65,1.65,0,0,0,.53,0s-.94,3.31-.94,3.32l0,0c.9-.63,2-1.76,3.07-2,2.54.72-.08,12.51,4.39,4.65Z" style="fill:#b0a690"/><path d="M509.59,127.29c.87.54,1.71,1.1,2.47,1.6a9.89,9.89,0,0,0-3.33-.77A5.29,5.29,0,0,1,509.59,127.29Z" style="fill:#b0a690"/><path d="M515.06,130.6a8.61,8.61,0,0,1,.17,1.06,6.93,6.93,0,0,0-1.38-1.62A5.54,5.54,0,0,0,515.06,130.6Z" style="fill:#b0a690"/><path d="M515.3,112.85a.7.7,0,0,0,0,.14l-.14,0Z" style="fill:#b0a690"/><path d="M515.29,104.48c.53-.07,1.09-.17,1.7-.28-.16.5-.3,1-.44,1.42C516.15,105.19,515.67,104.84,515.29,104.48Z" style="fill:#b0a690"/><path d="M523.43,122.22c-1.08.26-2.17,1.39-3.07,2C521.84,122.55,522.8,122,523.43,122.22Z" style="fill:#b0a690"/><path d="M480.31,98.75c-.19,2.11,2.33,3.65,6,5.5l.48-1C482.75,102.79,481,101.08,480.31,98.75Zm15.19,36.54c0,.34,0,.68,0,1,.5,0,1,0,1.54,0C496.06,136.11,495.63,135.75,495.5,135.29Zm5.44,1.19c-.48,0-.92,0-1.32,0a2.45,2.45,0,0,1,1.62,1.07Q501.09,137,500.94,136.48Zm1,3.3c-.09-.32-.19-.65-.3-1a4.73,4.73,0,0,1,0,1.06Z" style="fill:#b0a690"/><path d="M497.49,148c-2.22-3.78-5.09-5.29-8.93-2.39-8.92-6.14,1.9-8.29-9.57-9.65.73-.93-14.76-37.1-13.76-38.1,2.47-2.46-1.4-1.06-2.63-4.28-1.75-4.57-4.37-10.72-3.37-11.72,1.92-1.91-3-6.35-3.57-8.53-2.06-7.5-2.33-12.34.78-11.69-1.87-2.84-10.05-5.65-2.92-8.16-.25-.69-9.39-5.07-7.29-6.37,9.25,1.69,5.1-.92,2.91-6.68,5.86-5.15,13.63-7,10.82,3.74,13-.66-4.45,12.82,10.7,12.62-9.9,19.05,5.64-.31-1.21,21.27,15.48-3.77-4.14,15.42,11.36,8.8-.19,3.92-1.47,8.52-.5,11.86-.19,2.11,2.33,3.65,6,5.5-1.56,3.45-2,5.31-1.77,6.45.61,3.37,6.57.51,4.38,13.39-.17,1-.39,2.12-.67,3.33,4.25.23,6.49.87,7.58,1.7,2,1.51.16,3.68-.26,5.28v0a1.82,1.82,0,0,0,0,.86h0c0,.34,0,.68,0,1,.5,0,1,0,1.54,0a11.81,11.81,0,0,0,2.6.2,2.45,2.45,0,0,1,1.62,1.07h0c.11.41.24.81.35,1.2a4.73,4.73,0,0,1,0,1.06l.31-.08C503.12,143.78,503.69,146.82,497.49,148Z" style="fill:#b0a690"/><polygon points="386.15 13.84 386.59 13.94 392.11 20.7 393.05 30.28 395.7 32.49 402.41 62.98 410.2 22.67 413.48 20.46 414.22 20.54 414.86 21.02 415.04 21.57 414.9 22.33 414.6 22.61 414.12 22.42 409.13 60.86 408.62 61.38 408.35 67.82 406.33 69.41 406.16 70.88 408.9 77.77 408.43 78.81 403.42 79.62 403.24 79.86 403.35 82.38 422.18 74.51 422.34 74.02 422.43 74.02 422.63 73.66 422.74 73.66 423.14 74 423.81 73.69 425.5 71.43 426.94 70.74 426.75 64.18 427.02 64.14 427.02 64.54 426.13 47.37 426.01 47.36 425.12 46.61 419.53 33.17 422.73 22.06 423.52 22 424.07 22.38 423.24 30.41 424.57 31.66 427.06 38.51 432 19 432.75 18.41 433.29 18.52 433.78 19.19 434.05 22.87 433.97 22.67 434.03 35.16 440.98 25.05 439.92 22.21 440.12 21.86 440.69 21.63 441.25 21.87 444.13 28.27 443.62 29.38 443.04 29.55 442.51 29.44 441.41 34.05 432.6 42.59 433.48 60.31 433.57 59.87 434.87 58.17 438.97 58.04 438.96 58.02 449.11 37.1 450.51 37.11 450.08 37.11 450.24 37.03 452.96 32.1 454.82 31.67 455.75 32.07 457.29 39.03 454.69 40.64 454.08 47.82 448.71 54.79 445.24 56.58 443.8 61.83 440.54 62.97 439.19 67.92 436.26 69.69 434.46 75.09 433.48 76.05 428.95 76.19 427.65 81.65 426.58 82.57 420.63 81.1 418.41 84.23 412.56 85.55 412.1 84.71 411.95 84.71 410.82 85.53 410.82 85.56 400.87 91.44 400.06 98 397.24 99.38 395.53 104.81 395.57 104.97 395.58 104.6 395.2 105.6 393.66 106.35 392.32 112.86 389.78 113.88 388.9 119.03 401.06 110.22 405.23 110.43 412.31 103.91 417.45 87.46 418.53 87 419.05 87.04 419.56 87.36 419.76 87.7 418.91 90.58 420.83 94.63 418.27 100.03 418.33 99.98 422.93 99.62 445.1 80.54 456.63 78.86 457.68 79.95 456.93 83.14 443.91 96.28 440.23 95.76 439.76 96.01 438.6 102.52 437.57 103.33 429.45 103.38 428.87 104.21 430.48 105.11 430.6 105.11 430.52 105.11 431.27 105.31 433.84 104.86 440.55 108.97 444.82 106.81 451.18 108.37 452.01 107.97 454.7 104.18 454.88 104.12 454.92 104.13 456.69 109.95 451.95 116.85 440.17 118.89 425.17 109.71 421.5 109.72 421.26 110.88 420.04 112.39 415.98 113.74 414.45 117.28 406.03 118.67 401.96 117.52 398.31 118.55 396.76 118.26 386.15 126.22 386.01 126.21 378.08 143.36 373.57 146.79 373.16 146.68 372.63 146.14 375.35 137.11 357.66 109.67 357.1 110.21 347.42 103.87 341.24 103.88 332.97 97.02 333.05 97.08 324.46 94.79 323.79 93.37 323.95 88.83 324.64 88.16 324.88 88.11 324.86 88.11 325.47 87.98 326.24 88.92 329.61 89.94 333.14 88.51 341.49 94.23 341.64 94.23 343.63 93.11 348.86 97.11 343.12 85.94 343.18 84.98 337.25 75.45 338.24 63.19 338.93 62.85 339.14 62.88 339.61 63.23 355.97 101.52 362.71 105.27 375.41 130.59 376.19 128.49 377.5 127.29 379.13 119.35 379.82 118.53 371.33 107.37 371.12 103.89 368.35 100.19 368.36 100.2 364.88 94.32 365 90.82 365.52 89.94 365.96 89.68 367.29 90.13 382.11 114.27 373.41 86.63 353.4 73.31 351.98 70.38 352.41 69.24 354.71 67.83 371.14 80.11 369.61 60.05 372.77 56.16 373.6 56.21 375.01 57.06 380.44 74.11 379.28 77.46 379.67 78.52 386.86 59.68 387.65 59.21 387.82 59.21 388.3 58.86 388.92 59.54 388.76 76.39 382.88 88.42 382.69 88.52 382.65 88.51 387.56 104.86 389.81 103.81 389.77 86.07 395.43 82.95 397.27 75.42 396.43 75.4 398.2 70.87 392.07 53.46 392.03 53.47 359.35 42.36 358.6 43.46 357.34 44.18 356.44 44.18 354.15 42.18 353.1 38.82 353.76 35.62 355.61 34.81 369.07 38.8 369.02 38.76 359.98 21.79 360.65 20.25 365.12 21.49 370.3 29.68 370.96 17.63 373.33 13.51 374.02 13.23 374.67 13.5 376.44 18.1 374.56 31.82 380.29 42.37 388.06 44.69 388.47 44.63 385.34 35.27 385.38 35.21 385.38 35.14 384.53 34.72 384.53 34.64 385.38 33.94 384.53 33.61 384.53 33.29 385.36 32.98 385.38 22.96 385.38 23.72 385.36 14.17 386.15 13.84 386.15 13.84 386.15 13.84 386.15 13.84" style="fill:#507282"/><polygon points="145.39 0 131.96 31.83 127.08 33.58 125.08 32.74 117.66 1.77 115.04 1.06 96.8 15.08 126.19 66.08 123.8 107.03 123.8 107.03 123.81 107.05 123.81 107.05 123.81 107.05 129.94 113.52 143.23 111.53 149.74 98.3 194.09 84.84 199.12 71.8 195.8 59.46 182.34 57.8 151.38 81.14 145.38 75.41 145.69 69.12 146.39 68.6 151.61 69.02 174.95 49.05 184.4 50.41 196.54 37.88 194.12 29.11 179.21 21.82 170.91 27.14 169.41 27.03 156.01 49.16 145.64 50.76 143.28 38.12 150.15 27.04 150.14 27.05 155.63 17.52 145.86 0.04 145.39 0" style="fill:#b0a690"/><polygon points="338.12 226.53 357.62 100.46 353.77 98.18 333.81 227.7 338.12 226.53" style="fill:#aa7455"/><polygon points="367.89 167.29 337.65 211.45 341.5 213.72 372.2 168.46 367.89 167.29 367.89 167.29" style="fill:#aa7455"/><polygon points="389.05 190.01 347.68 196.63 350.15 200.35 391.51 193.74 389.05 190.01 389.05 190.01" style="fill:#aa7455"/><polygon points="385.7 199.02 373.26 190.22 371.29 194.23 382.74 202.37 385.7 199.02 385.7 199.02" style="fill:#aa7455"/><polygon points="364.86 182.4 357.53 172.58 355.95 175.32 360.99 184.62 364.04 185.45 364.86 182.4 364.86 182.4" style="fill:#aa7455"/><polygon points="341.32 197.5 329.27 117.39 324.96 118.55 339.04 201.34 341.32 197.5 341.32 197.5" style="fill:#aa7455"/><polygon points="337.77 180.46 312.3 155.99 309.11 159.13 335.5 184.31 337.77 180.46 337.77 180.46" style="fill:#aa7455"/><polygon points="318.02 166.67 317.36 151 313.05 149.83 313.71 167.83 318.02 166.67" style="fill:#aa7455"/><polygon points="335.13 150.02 327.61 158.55 329.83 162.42 338.97 152.29 335.13 150.02 335.13 150.02" style="fill:#aa7455"/><polygon points="338.62 119.04 334.15 119.06 329.17 140.66 332.3 143.84 338.62 119.04 338.62 119.04" style="fill:#aa7455"/><polygon points="374.17 136.62 342.8 165.29 346.65 167.56 378.02 138.89 374.17 136.62 374.17 136.62" style="fill:#aa7455"/><polygon points="375.19 128.89 370.88 127.72 362.71 147.94 367.02 149.11 375.19 128.89 375.19 128.89" style="fill:#aa7455"/><polygon points="374.76 90.7 370.29 90.72 346.06 133.57 350.37 134.74 374.76 90.7 374.76 90.7" style="fill:#aa7455"/><polygon points="355.13 143.99 350.18 123.77 345.71 123.79 350.66 144.01 355.13 143.99" style="fill:#aa7455"/><polygon points="375.7 96.92 360.15 109.97 364 112.25 379.55 99.19 375.7 96.92 375.7 96.92" style="fill:#aa7455"/><path d="M663.35,255s27.15-7.84,29.54-13.22A47.16,47.16,0,0,0,696.07,231c-2.52-10.62.29-12.47-11.13-9,4.85-6,33.68-54.15,33.77-67.58L731,125.75c.42-7,1.7-16.87-8.75-19.14-4.62,6-14.11,30.43-17.08,37.68.63-3.3,11.63-31,0-32.89-6.75-.22-12.56,29.13-15.11,33.49.24-3.93.38-13.6-7.33-8.67l7.33-23c.63-2-1.94-14.14-7.55-10.76-2.78,1.19-18.67,54.42-18.67,54.42L669,97c-.55-5.91-1.81-7.91-11.12-7.17-1,1,6.76-91.75-16.3-65.19a903.07,903.07,0,0,0,3.18,92.1s-1.59,0-2.38,3-5.57-85.52-14.71-91.5-12.31,7.18-12.31,7.18l1.19,5.38c-25.07-3.85,4.57,76.61,2.38,77.74-2.33,0-3.44,12.44-3,12.63,0,0-1.79-6-3.77-7.84-4.27-2.25-8.09,2-8,9,.4,5.38,4,14.95,4,14.95-7.94,13.21,5.36,44.67,17.49,65.78" style="fill:#81a0c5"/><path d="M660.7,220.84s37.35-43.06,52.06-87.32c0,0,6-7.17,9.14-1.79,3.09,9.24-17,63.77-58.82,94.49Z" style="fill:#7895a4"/><path d="M631.29,206.49c.62-.19-22.74-54-12.32-65.19,7.6,2.93,4.75,37.94,16.3,56.21Z" style="fill:#7895a4"/><path d="M645.2,201.7s-.4-62.79,1.59-67.58c2-5.61,7.2-3.25,6.76,1.2-.4,3.59-6,61-4,73Z" style="fill:#7895a4"/><path d="M623.74,122.16c1.13-2.14-26-71.91-10.33-77.15,7.35-6.69,13,71.25,17.09,77.15Z" style="fill:#7895a4"/><path d="M657.12,208.28s21.46-36.48,25-65.79c0,0,2.38-6.57,4.77-4.78,6.21,7.11-18.81,61.38-25.44,74.16Z" style="fill:#7895a4"/><path d="M613.68,128.36c.93,3.22-7.57,7.22-8.49,3.15C604.26,128.29,612.76,124.29,613.68,128.36Z" style="fill:#fff"/><path d="M617.11,48.45c1.6,2.27-6.61,11-8.6,7.48C606.92,53.67,615.13,44.91,617.11,48.45Z" style="fill:#fff"/><path d="M628.08,34.24c.72,5.4-9.27,7.88-9.87,1.81C617.49,30.65,627.48,28.17,628.08,34.24Z" style="fill:#fff"/><path d="M653.55,27.07c.12,5.43-11.66,5.43-11.53,0C641.89,21.65,653.67,21.65,653.55,27.07Z" style="fill:#fff"/><path d="M621.75,145.78a2.58,2.58,0,1,1-5.16,0A2.58,2.58,0,1,1,621.75,145.78Z" style="fill:#fff"/><path d="M653.15,133.82c.06,2.72-5.63,2.72-5.57,0S653.21,131.11,653.15,133.82Z" style="fill:#fff"/><path d="M689.86,111.7c-2.51,4.71-10.15-4.12-8.26-7.18C684.12,99.81,691.76,108.64,689.86,111.7Z" style="fill:#fff"/><path d="M709.81,120.22c-2.47,4.76-9.06-3.17-7.22-6.28C705.05,109.18,711.64,117.1,709.81,120.22Z" style="fill:#fff"/><path d="M730.26,120.32c-3.51,4.75-10.86-7.2-8.38-10.08C725.38,105.49,732.74,117.44,730.26,120.32Z" style="fill:#fff"/><path d="M658.71,92.86c6.5-3,8.94,3.91,7.95,8.37-1.35,3.19-.42,56.66-7.95,62.79Z" style="fill:#7895a4"/><path d="M666,98.38c-1.21,3.12-7.27-1.67-6.25-3.87C661,91.39,667,96.19,666,98.38Z" style="fill:#fff"/><path d="M694.08,232.2c.06,10.07-4.44,10.07-4.37,0S694.14,222.13,694.08,232.2Z" style="fill:#fff"/><polygon points="505.38 99.93 505.38 99.93 499.17 102.31 493.59 112.56 489.08 114.74 480.18 133.49 480.18 133.21 480.17 133.5 471.68 141.18 478.56 99.45 476.46 96.18 475.79 95.99 474.97 96.33 474.69 96.78 474.78 97.83 475.26 97.81 465.33 143.01 466.55 145.19 461.65 152.05 461.64 153.38 465.71 155.93 465.78 156.22 464.87 158.57 456.6 150.59 455.02 150.88 446.26 139.99 455.65 118.2 455.75 118.24 467.09 105.35 467.69 95.88 466.98 95.55 464.45 100.53 464.88 100.89 464.88 100.91 464.03 101.09 464.03 101.3 464.43 101.33 464.29 103.46 457.89 109.65 460.15 89.78 459.66 88.97 459.07 88.9 456.89 92.66 457.03 92.5 456.01 94.58 456.38 96.59 455.53 97.03 455.53 97.46 455.75 97.58 452.59 104.08 449.68 92.25 451.66 89.99 451.34 89.28 450.55 89.19 445.63 94.14 445.71 95.35 446.64 96.19 446.72 96.19 446.59 96.03 450.5 108.25 451.28 108.6 451.28 108.62 450.43 108.69 451.25 111.94 444.15 128.1 443.61 125.62 439.82 124.06 438.1 101.48 436.24 100.4 435.42 94.79 433.42 93.65 428.84 99.77 433.46 125.99 436.13 128.23 435.64 133.36 437.77 136.06 437.55 141.78 442.37 144.77 442.33 151.61 446.28 152.29 446.31 151.44 448.58 151.9 463.33 168.56 461.76 174.99 463.91 177.27 463.38 183.63 464.65 185.56 463.52 192.32 465.52 194.21 464.46 199.49 450.91 183.68 449.34 158.92 448.08 157.97 447.39 158.08 446.79 159.07 447.03 159.35 443.19 167.31 443.98 170.78 416.74 136.87 414.8 137.2 414.04 139.5 421.89 158.28 425.32 159.17 424.18 166.3 432.33 170.08 432.56 171.07 430.58 171.31 428.27 169.6 420.22 171 417.57 167.78 413.99 166.9 413.42 167.59 413.18 166.74 413.03 167.59 412.65 166.74 410.39 166.54 408.26 161.15 408.22 161.15 404.48 166 406.48 174.2 415.6 179.78 426.39 178.64 426.35 178.64 437.56 178.37 437.99 181.39 441.04 183.68 441.45 187.85 462.08 202.17 469.1 229.92 469.71 230.04 470.82 229.09 470.84 223.66 471.68 223.5 470.83 223.36 471.05 220.31 497.3 200.89 497.78 201.28 510.77 198.86 515.65 201.01 525.01 197.45 524.92 197.47 533.78 198.37 536.38 192.96 535.74 191.95 530.98 192.56 527.59 189.74 517.65 192.06 516.59 190.55 509.97 192.26 531.98 165 531.9 164.29 531.37 163.72 530.6 163.84 501.76 193.87 499.88 193.79 499.86 193.94 500.01 193.94 473.37 214.34 473.5 201.5 486.3 192.69 486.54 191.46 490.81 188.4 490.79 188.41 496.15 184.13 497.11 179.81 496 179.09 472.79 196.65 490.93 173.69 517.05 166.01 516.47 163.63 514.32 162.47 495.42 168.35 504.05 149.99 502.45 145.19 500 145.24 488.75 159.39 488.68 160.6 488.68 160.59 488.75 162.32 487.91 163.54 487.27 142.63 486.76 142.55 481.56 172.09 481.6 172.1 471.29 185.57 469.78 184.18 475.83 167.34 471.66 162.44 473.34 150.24 492.39 134.43 519.46 137.37 521.13 139.99 525.63 137.82 527.04 133.08 511.69 130.66 526.12 118.04 526.03 116.37 521.45 115.95 513.75 121.75 516.62 105.65 516.07 105.15 512.77 107.66 509.08 120.36 508.23 120.5 509.08 120.64 509.04 122.12 499.91 130 491.42 129.22 506.01 100.53 505.38 99.93 505.38 99.93 505.38 99.93 505.38 99.93" style="fill:#7f947d"/><polygon points="279.18 23.75 277.77 24.11 272.62 41.23 266.23 29.72 265.76 29.6 263.53 32.22 264.02 45.33 283.87 64.24 276.88 97.07 258.67 109.05 258.59 103.17 257.74 103.12 257.74 103.13 258.29 97.4 265.56 93.06 266 82.7 266.87 82.24 273.02 64.1 270.06 61.58 268.53 61.67 267.94 62.21 264.4 75.37 261.78 68.87 260.3 67.74 259.22 67.71 256.3 69.72 258.17 83.38 258.22 83.19 257.6 88.05 255.42 88.81 254.04 88.55 247.76 78.64 248.29 65.33 257.08 51.09 253.98 42.33 252.6 41.38 251.03 41.4 250.41 41.85 247.68 56.2 243.6 42.16 240.54 41.9 238.05 43.08 242.81 68.09 242.19 69.87 240.21 70.8 237.37 69.36 235.85 66.98 235.64 64.52 235.64 64.91 235.34 55.53 212.14 29.69 210.19 29.42 207.87 31.14 209.46 40.98 228.54 61.3 228.33 62.47 227.01 64.2 225.59 64.44 204.74 48.87 203.28 49.34 202.64 50.18 204.25 57.38 244.48 92.71 245.56 97.11 219.23 88.41 214.11 76.86 211.24 76.21 210.04 77.15 210.8 86.74 200.64 81.22 193.44 67.56 190.89 66.55 187.14 68.27 186.93 72.26 211.27 96.3 211.08 96.3 210.97 96.23 210.71 96.38 210.65 95.45 210.57 95.45 210.5 96.37 201.07 99.7 189.86 97 188.59 97.56 187.85 98.8 187.9 100.55 190.21 104.64 195.79 107.3 218.66 99.97 246.67 105.64 247.99 107.23 252.73 131.11 257.48 133.01 258.58 132.75 260.19 131.19 260.66 118.77 262.99 115.01 323.05 104.31 325.74 101.1 325.61 100.42 321.92 98.53 313.23 101.48 320.92 91.81 320.75 90.36 319.7 89.14 316.65 88.56 305.58 94.7 304.03 97.01 284.37 98.26 287.93 90.14 298.06 82.96 307.61 83.55 307.57 83.55 330.71 66.08 330.98 64.48 330.69 63.71 328.43 61.72 326 61.12 322.96 62.13 313.42 74.88 304.52 77 325.53 53.27 324.96 50.09 321.75 47.35 317.82 46.88 287.9 76.48 305.1 45.86 304.06 35.14 300 32.55 292.54 36.1 286.57 54.46 277.6 49.98 277.61 49.98 282.39 30.42 280.8 24.64 280.29 24.08 279.18 23.75" style="fill:#ff9774"/><path d="M242.24,145c-.07.22-.13.43-.19.64l-.21.22Z" style="fill:#71535c"/><polygon points="236.51 167.46 236.5 167.43 236.37 167.08 236.48 166.59 236.51 167.46" style="fill:#71535c"/><polygon points="236.02 148.4 235.86 148.34 233.35 144.61 232.94 143.63 236.02 148.4" style="fill:#71535c"/><polygon points="232.94 143.63 228.24 136.37 232.43 142.39 232.94 143.63" style="fill:#71535c"/><polygon points="252.99 155.73 252.36 155.7 252.57 155.58 252.99 155.73" style="fill:#71535c"/><polygon points="237.75 147.16 237.56 147.73 237.6 146.8 237.75 147.16" style="fill:#71535c"/><polygon points="236.02 148.4 235.86 148.34 234.72 147.94 233.35 144.61 232.94 143.63 236.02 148.4" style="fill:#71535c"/><polygon points="235.1 146.23 232.43 142.39 230.93 138.77 233.22 142.02 235.1 146.23" style="fill:#71535c"/><polygon points="230.76 159.13 230.76 159.15 230.67 159.22 230.76 159.13" style="fill:#71535c"/><polygon points="230.46 161.07 230.41 161.38 229.87 161.9 230.45 161.09 230.46 161.07" style="fill:#71535c"/><path d="M230.45,161.09l0,.29.05-.31Zm6,5.5,0,.84v0Zm5.36-20.77.21-.22c.06-.21.12-.42.19-.64Zm0,0,.21-.22c.06-.21.12-.42.19-.64Z" style="fill:#71535c"/><path d="M263.82,159.56,253,155.73l-.63,0,.21-.12.42.15,36.31,1.83-33.19-4,1-.6,34.33,3.51-33.51-4,13.13-7.62,25.68-6.24-24,5.27,13.81-8-17,8.72-5,1.1,20.66-12.07-27.47,13.57-2.42.53L285.42,133l-35,13.92,1.72-1.59,30.24-13.46-29.15,12.46,12.44-11.52L282,121.26l-14.62,10,14.16-13.11L263,134.29l-21.23,14.55.21-1,28.56-32.08-27.93,29.27.36-1.57L259,108.76,243.47,141l-.27.57c.23-.81.46-1.65.71-2.51,3.56-12.71,8.64-31.46,9.47-34.55l-7.07,23.83,4.48-20L243,139.58,241.07,146l-.6,1.24-.37.39.66-6.52L250.37,110l-9.21,27.15L244.59,103l-4.32,36.74-1.18,3.47.32-38.71-1.29,30.13-1.83-31.26,1.61,36.48-.3,7,.15.36-.19.57,0-.93L217.12,99.19,236,146l-2.8-4,1.88,4.21-2.67-3.84.51,1.24L236,148.4h0l-.16-.06-1.14-.4-4.89-1.72-26.65-15,23.37,13.82-25-8.8L229.36,149,201,142.07l28.88,8.23-9.38.32,5.82.61-5.63.06,4.72.57L201,155l21.78-1.68-6.18,1.49-25.88,1.76,23.57-1.2-29.87,7.18,36-7.49,6.55-.34.51,0-3.75,1.5-7.58,3-23.68,5.45L214.25,160,201,165.32l8-2.41-19.19,8.75,34.4-13.3,5.82-1.74,1-.31h0l-.16.12h0L204.24,175l14.44-8.76L198,182l25.93-18.93,3.92-2.38-26.09,24.43,28.93-25.94.09-.09v0l-.09.07-26.58,27.85,25.78-25.17.58-.83v0l-.05.31-.54.52-4.18,5.9-17.64,17.3,16.57-15.77-19.14,27L229.16,165l.86-1.13-.06.37-.85,5.37-13.57,30,12.64-24.09-.6,3.83-7.7,22.17,7.24-19.27L224,202l2.19-11.12,9.64-25.14,0,.08-7.41,36.3,7.88-35,.12-.49,0,.87v0l.59,18.27-.7,16.14.86-11,.46,14.09.35-24.34.59-7.46L249,201,239,169.05l.15-1.85L251.49,200l-8.23-27.48,8.82,27.63-4.25-15.24-4.67-18.7,14.65,36.18-15.89-42.3,25.38,38.82-21.62-35.46,27.81,29.78-20.43-24,11.78,11.4,2.69,2.61,5.56,5.38-24.86-27.73-1.15-1.28,2.11,1.27,31.92,19.26L251.65,160.8l7.16-.08,23.3,9.53-21.79-9.55h.83l25.19,6.84-19.53-6.91,25-.3ZM242.24,145c-.07.22-.13.43-.19.64l-.21.22Z" style="fill:#71535c"/><polygon points="230.93 138.77 233.22 142.02 220.44 113.38 230.93 138.77" style="fill:#71535c"/><polygon points="220.72 151.3 216.31 150.76 189.03 151.68 220.72 151.3" style="fill:#71535c"/><path d="M216.31,150.76l4.23-.14c-13.6-1.4-29.88-3-30.2-3Z" style="fill:#71535c"/><polygon points="232.43 142.39 230.93 138.77 216.86 118.78 228.25 136.38 232.43 142.39" style="fill:#71535c"/><polygon points="232.94 143.64 228.25 136.38 213.59 115.3 233.35 144.62 232.94 143.64" style="fill:#71535c"/><polygon points="252.99 155.73 252.36 155.7 252.57 155.58 252.99 155.73" style="fill:#71535c"/><polygon points="235.1 146.23 232.43 142.39 230.93 138.77 233.22 142.02 235.1 146.23" style="fill:#71535c"/><polygon points="230.76 159.13 230.76 159.15 230.67 159.22 230.76 159.13" style="fill:#71535c"/><polygon points="230.46 161.07 230.41 161.38 229.87 161.9 230.45 161.09 230.46 161.07" style="fill:#71535c"/><polygon points="232.94 143.63 228.24 136.37 232.43 142.39 232.94 143.63" style="fill:#71535c"/><polygon points="227.52 154.72 223.77 156.22 227.01 154.74 227.52 154.72" style="fill:#71535c"/><path d="M226.35,151.23l-5.63.06-4.41-.53,4.22-.14Z" style="fill:#71535c"/><polygon points="268.52 184.33 264.84 180.58 267.53 183.19 268.52 184.33" style="fill:#71535c"/><polygon points="249.19 160.83 248.23 160.84 247.08 159.56 249.19 160.83" style="fill:#71535c"/><path d="M243.91,139.07l-.44,1.94-.27.57C243.43,140.77,243.66,139.93,243.91,139.07Z" style="fill:#71535c"/><path d="M242.24,145c-.07.22-.13.43-.19.64l-.21.22Z" style="fill:#71535c"/><polygon points="237.75 147.16 237.56 147.73 237.6 146.8 237.75 147.16" style="fill:#71535c"/><polygon points="231.12 156.32 230.96 156.44 230.95 156.44 230.1 156.62 231.12 156.32" style="fill:#71535c"/><polygon points="230.02 163.87 229.96 164.24 229.17 165 230.02 163.87" style="fill:#71535c"/><path d="M226.35,151.23l-5.63.06-4.41-.53,4.22-.14Z" style="fill:#71535c"/><path d="M574.27,86.46c-.21-8-1.3-16.64-4.07-24.19l17.11,3.11.81,15.82C598.83,79,608.06,73,617,67.14a34.74,34.74,0,0,1,4.75,8c-5.47,1.29-10.45,3.88-15.3,6.53-3.93,2.16-7.86,4.41-11,7.49-3.64,3.62-5.94,8.18-8.18,12.65-.92,1.85-.09,10.3.34,12.62.86,4.63,6.33,9.22,7,13.87.91,6.79-2.71,13.56.5,32,4.26.36,9-1.06,13.23-.7-.3,3.47,2,7-1.15,9.56-1.75,1.44-9.58-.39-10.69,1.46-3.13,5.21-2.61,21.25-2.61,21.25q-.17,5.87.19,11.72a138.48,138.48,0,0,0-15.11-.09l-.71-1.81c-1.33-9.4,4.24-18.74,3.07-28.16a3.65,3.65,0,0,0-1.84-1.56c-4.18-.49-8.54-9.6-12.72-10.09-.29,0-.72-2.79-.69-3.12a12.3,12.3,0,0,1,1.61-3.51c.55-.81,1.17-.6,2.19-.74,3.87-.53,7.21,8.62,11.08,9.14A9,9,0,0,0,583,161c3.91-12.67-5-28.61-5.5-31.7-.45-2.65,3.33-18.12.29-27.85a2.37,2.37,0,0,0-.27-1.36,2.71,2.71,0,0,0-1.18-.85c-2.4-1.1-10.7-3.7-11.29-5-1.14-2.43.43-7.16,1.63-9.57a2,2,0,0,1,.8-.94,2.49,2.49,0,0,1,2.14.35L583,90.91" style="fill:#d4943e"/><path d="M572.94,86.46c-.22-8-1.3-16.64-4.07-24.19L586,65.38l.81,15.82C597.5,79,606.72,73,615.63,67.14a34.74,34.74,0,0,1,4.75,8c-5.47,1.29-10.46,3.88-15.31,6.53-3.92,2.16-7.86,4.41-11,7.49-3.64,3.62-5.94,8.18-8.18,12.65-.92,1.85-.09,10.3.34,12.62.86,4.63,6.33,9.22,7,13.87.92,6.79-2.7,13.56.5,32,4.26.36,9-1.06,13.24-.7-.3,3.47,2,7-1.15,9.56-1.75,1.44-9.59-.39-10.7,1.46-3.13,5.21-2.6,21.25-2.6,21.25q-.16,5.87.18,11.72a138.45,138.45,0,0,0-15.11-.09l-.7-1.81c-1.33-9.4,4.24-18.74,3.07-28.16a3.69,3.69,0,0,0-1.84-1.56c-4.18-.49-9.26-7.39-11.39-10.09a9.8,9.8,0,0,1-.86-2.4,9.89,9.89,0,0,1,1.38-3.2c.54-.81,1-1.46,2-1.6,3.86-.53,6.47,8.45,10.33,9a9.06,9.06,0,0,0,2.14-2.65c3.9-12.67-5-28.61-5.51-31.7-.44-2.65,3.34-18.12.3-27.85a2.45,2.45,0,0,0-.27-1.36,2.68,2.68,0,0,0-1.19-.85c-2.39-1.1-10.69-3.7-11.28-5-1.15-2.43.43-7.16,1.63-9.57a1.89,1.89,0,0,1,.8-.94,2.47,2.47,0,0,1,2.13.35l13.35,6.8" style="fill:#f9ad42"/><path d="M582.57,124.94c0,4.88-2.93,5.17-7.81,5.14s-9.91-.39-9.87-5.27a8.84,8.84,0,1,1,17.68.13Z" style="fill:#efeeee;stroke:#221f1f;stroke-miterlimit:10;stroke-width:0.824621647711965px"/><path d="M606.1,123c0,4.62-4.91,4.56-9.54,4.52s-7.24,0-7.21-4.64a8.38,8.38,0,1,1,16.75.12Z" style="fill:#efeeee;stroke:#221f1f;stroke-miterlimit:10;stroke-width:0.824621647711965px"/><path d="M580,123.21c1.87,3.86-3,4.64-6.09,4.61s-5.62-2-5.61-4.37,2.56-4.32,5.68-4.29A6.43,6.43,0,0,1,580,123.21Z" style="stroke:#221f1f;stroke-miterlimit:10;stroke-width:0.824621647711965px"/><path d="M602.78,122.06c.53,3.65-2.54,4.23-5.27,4.21s-4.91-1.93-4.9-4.27,2.26-4,5-4.19C600.93,117.51,602.41,119.54,602.78,122.06Z" style="stroke:#221f1f;stroke-miterlimit:10;stroke-width:0.824621647711965px"/><path d="M576.07,120.57h-.15c2.18.58,2.7,3.59,2.06,5.77v.06a3.24,3.24,0,0,0-1.91-5.84Z" style="fill:#fff"/><path d="M599.52,119.12h-.16c2.32.57,2.86,3.57,2.2,5.74a.13.13,0,0,0,0,.06,3.13,3.13,0,0,0,1.37-2.56A3.32,3.32,0,0,0,599.52,119.12Z" style="fill:#fff"/><path d="M578.6,137.65a5.12,5.12,0,0,1-.87-4.12.5.5,0,0,1,.56-.46,3.18,3.18,0,0,1,2.37.93c.47.48.77,1.11,1.22,1.62a7.17,7.17,0,0,0,2.46,1.62,13.75,13.75,0,0,0,3.64,1.34,4.81,4.81,0,0,0,3.7-.74c.56-.43,1-1,1.55-1.44,2.52-1.91,2.82,1.38,1.7,2.94A6.65,6.65,0,0,1,591,142C587,142.77,581,141.05,578.6,137.65Z" style="fill:#221f1f;stroke:#221f1f;stroke-miterlimit:10;stroke-width:0.824621647711965px"/><path d="M582.38,138.92V139c0,2.87,1.58,4.91,3.53,5.23,5.28.86,5.7-2.13,4.72-5.26,0,0-1.12,0-1.12,0Z" style="fill:#edeae6;stroke:#221f1f;stroke-miterlimit:10;stroke-width:0.824621647711965px"/><path d="M578.37,230.75a8.12,8.12,0,0,1,3-3,62.76,62.76,0,0,1,7.27-4.33,3.22,3.22,0,0,0,1.12-.72,1,1,0,0,0,.15-1.22,1.37,1.37,0,0,0-1.3-.35c-4.3.45-8.47,1.26-12,3.79a5.46,5.46,0,0,0-2.21,3.45C575.69,229.17,577,230,578.37,230.75Z" style="fill:#5897d1"/><path d="M589.17,223.21a1.73,1.73,0,0,0,.88-1.42.12.12,0,0,0,0-.09c0-.07-.31-.45-.43-.47a4.1,4.1,0,0,0-1.21-.09l-2.6.25a19.74,19.74,0,0,0-4.82,1.23,7,7,0,0,1,2,3.76c.47,0,.79-.32,1.31-.58.25-.13,1.24-.62,1.61-.84C587,224.31,588.1,223.89,589.17,223.21Z" style="fill:#f06a24"/><path d="M590,251.87c-4,.16-10.45-1.26-12.92-3.08-5.18-3.81-6.72-5.48-11.5-9.17-.9-.69-2.35-5.5-2.33-6.92.08-4.78,4.35-4.78,7.7-4.28,8.17,1.19,12.8,5,21.41,5.83,7.12.69,16.95.65,24.19,3.76,2.26-7.21,0-12.22-6.79-15.41,4.56-3.75,9.84-3.47,13.84.91,2.59-2.22,10-7.44,12.32-2.75-2.93,1.05-5.74,2.59-7.48,5.16a20.7,20.7,0,0,0-3.71,9,2.75,2.75,0,0,0,.42,2.3c.56.7,1.36.58,2.29.77,6.34,1.33,10.07,5.68,11.36,12a2.52,2.52,0,0,1-.34,2.08,2.45,2.45,0,0,1-1.7.8c-7.14,1.17-14.63,2.28-21.81,2.09C606.38,254.66,598.55,251.53,590,251.87Z" style="fill:#5954a2"/><path d="M590.09,250.48c-3.94.17-10.35-1.27-12.76-3.12-5.05-3.87-6.52-5.51-11.27-9.12-.89-.68-2.32-5.39-2.3-6.82,0-4.83,4.34-4.66,7.65-4.19,8.08,1.14,12.64,4.86,21.1,5.65,7,.65,16.7.68,23.81,3.77,2.29-7.12-.32-12.29-7-15.4,4.52-3.77,9.85-3.49,13.84.88,2.6-2.2,10-7.39,12.34-2.72-2.91,1.06-5.77,2.55-7.49,5.12a21.06,21.06,0,0,0-3.6,9,2.8,2.8,0,0,0,.43,2.32c.57.7,1.37.58,2.29.77,6.32,1.34,10,5.68,11.3,11.94a2.52,2.52,0,0,1-.35,2.08,2.42,2.42,0,0,1-1.7.8c-7.09,1.17-14.56,2.29-21.68,2.11C606.26,253.31,598.58,250.1,590.09,250.48Z" style="fill:#26225b"/><path d="M583.54,238.8a11.61,11.61,0,0,0,7.29-1.31,11.8,11.8,0,0,0,4.84-3.65,7,7,0,0,0,.92-6.22c-3.72,1.18-6.26,4.08-10,5.38-2.56.91-5.06.1-7.32-1.29A44.2,44.2,0,0,0,583.54,238.8Z" style="fill:#5897d1"/><path d="M593.76,228.68a13.57,13.57,0,0,0-1.13.79c-1.1.84-2.21,1.67-3.37,2.43a50.17,50.17,0,0,0,3.53,4.17.26.26,0,0,0,.16.09.23.23,0,0,0,.16-.08c.3-.28.62-.56.93-.83s.63-.45.92-.75a6.7,6.7,0,0,0,1.91-5.52c0-.51.12-1.77-.55-1.78-.35,0-1.06.76-1.42.92A11.94,11.94,0,0,0,593.76,228.68Z" style="fill:#f26b24"/><path d="M590.88,243.11c1.08.88,2.56-.31,3.23-1.18s1.51-2.58.44-3.42-2.52.32-3.23,1.19S589.79,242.24,590.88,243.11Z" style="fill:#5897d1"/><path d="M583.67,242.92c-.78,1.11.07,2.51,1.07,3.21s2.57,1.09,3.33-.06-.23-2.49-1.19-3.13S584.44,241.8,583.67,242.92Z" style="fill:#5897d1"/><path d="M603,240.27a2.58,2.58,0,0,0,2.75,2.85,3,3,0,0,0,3-3.05,2.62,2.62,0,0,0-2.79-2.74A3,3,0,0,0,603,240.27Z" style="fill:#5897d1"/><path d="M597.05,246.59a2.07,2.07,0,1,0,.22-2.86A2,2,0,0,0,597.05,246.59Z" style="fill:#5897d1"/><path d="M612.5,240.83c.78.65,2.1,1.06,2.84.16s0-2.07-.73-2.7-2-1.09-2.73-.21S611.72,240.18,612.5,240.83Z" style="fill:#5897d1"/><path d="M607.26,248.24a2.13,2.13,0,0,0,3-.26,1.91,1.91,0,0,0-.09-2.8,2.1,2.1,0,0,0-2.88.23A1.9,1.9,0,0,0,607.26,248.24Z" style="fill:#5897d1"/><path d="M616.75,247.39a2.47,2.47,0,0,0,3.39-.63,2.21,2.21,0,0,0-.27-3.27,2.48,2.48,0,0,0-3.35.63A2.2,2.2,0,0,0,616.75,247.39Z" style="fill:#5897d1"/><path d="M619.82,239.86a1.94,1.94,0,0,0,2.74-.6,2,2,0,0,0-.3-2.8,1.92,1.92,0,0,0-2.72.6A2,2,0,0,0,619.82,239.86Z" style="fill:#5897d1"/><path d="M622.91,246.77a2.28,2.28,0,0,0,3.1-.67,2.06,2.06,0,0,0-.39-3,2.23,2.23,0,0,0-3.06.66A2.05,2.05,0,0,0,622.91,246.77Z" style="fill:#5897d1"/><path d="M630.75,241.43c.28.86,1,2,2.07,1.65s.92-1.77.65-2.63-1-2-2.06-1.65S630.47,240.57,630.75,241.43Z" style="fill:#5897d1"/><path d="M636,250.54c-9.71.82-19.51,2.19-29.21.65a59.84,59.84,0,0,1-6.77-1.56,21.39,21.39,0,0,0-6.95-.59,34.77,34.77,0,0,1-7.14,0,27.22,27.22,0,0,1-7.09-2.29c-.48-.22-2.06.49-1.39.8a25.94,25.94,0,0,0,10.5,2.64c1.94,0,3.86-.19,5.8-.23a19.51,19.51,0,0,1,6.07.86c7.32,2.16,15.06,2.3,22.62,1.8,4.44-.29,8.87-.77,13.3-1.14.82-.07,1.46-1,.26-.89Z" style="fill:#f26b24"/><path d="M624.18,234.48a9.16,9.16,0,0,1,.72-5.08c.29-.74.62-1.47.93-2.2.16-.38.32-.76.46-1.15a3.06,3.06,0,0,1,.37-1,16.62,16.62,0,0,1,1.73-1.73c.59-.58,1.19-1.16,1.82-1.71,1.32-1.16,3-1.63,4.56-2.41.42-.22.05-.86-.38-.64-1.61.81-3.33,1.31-4.71,2.52-.73.65-1.44,1.34-2.14,2a8.37,8.37,0,0,0-1.68,1.79c-.35.69-.51,1.53-.82,2.25s-.67,1.52-1,2.29a9.54,9.54,0,0,0-.62,5.22c.09.47.81.27.72-.2Z" style="fill:#f26b24"/><path d="M633,217.94a19.23,19.23,0,0,0-5.36,1.58,13.62,13.62,0,0,0-2.39,1.48c-.85.66-1.52,1.54-2.4,2.15l.51.14c-2.15-4-8.29-4.92-12-2.8a.37.37,0,0,0,.37.64c3.38-1.92,9-1.11,11,2.53a.38.38,0,0,0,.51.14,25.1,25.1,0,0,0,1.95-1.77,13,13,0,0,1,2.55-1.73,18.75,18.75,0,0,1,5.48-1.64c.47-.08.27-.8-.2-.72Z" style="fill:#f26b24"/><path d="M618.68,232a16.11,16.11,0,0,0-1.71-6.27,10.61,10.61,0,0,0-4-4,.37.37,0,0,0-.37.64,9.86,9.86,0,0,1,3.73,3.69,15.26,15.26,0,0,1,1.61,5.89c0,.47.8.47.74,0Z" style="fill:#f26b24"/></svg>