<svg id="Layer_1" data-name="Layer 1" xmlns="http://www.w3.org/2000/svg" xmlns:xlink="http://www.w3.org/1999/xlink" viewBox="0 0 562.76 236.54"><defs><radialGradient id="radial-gradient" cx="6004.48" cy="-5125.19" r="0.01" gradientTransform="translate(3682 -2699.92) rotate(180) scale(0.55)" gradientUnits="userSpaceOnUse"><stop offset="0" stop-color="#ca9995"/><stop offset="0.51" stop-color="#d0afa7"/><stop offset="1" stop-color="#cac4c1"/></radialGradient><radialGradient id="radial-gradient-2" cx="380.91" cy="59.92" r="0.01" gradientTransform="matrix(1, 0, 0, 1, 0, 0)" xlink:href="#radial-gradient"/><radialGradient id="radial-gradient-3" cx="6043.92" cy="-5056.43" r="0.01" xlink:href="#radial-gradient"/></defs><path d="M463.54,61.16a3.26,3.26,0,0,1,3.83,2.27c-4.31,4.89-9.69,6.12.91,6-4.29,4.8-22.54,8.38-10.69,16-15.8,5.9,2.33,8.83-27,10.15,10.4,6.57-5.9,5.86-9,8.91l6.65,3.75-20.66,4c-.06-.72-.15-1.37-.25-1.94a5.67,5.67,0,0,0-.12-.62h0c-.49-2.4-1.2-3.53-1.06-4.54a23.48,23.48,0,0,0,4.47-2.79,13.12,13.12,0,0,0,.22-1.49l.94-.61-2.2-4.6c4.61,5.87,4.23-1.66,4.38-6.79,0,0,0-.07,0-.1.06-1.77.18-3.24.62-3.74,11.32-1.35,5.23,14.5,11.72-5.88,9,17.46,3.06-12.44,4.35-17.35,6.43-2.62,4.87,6.79,6,10.16,3.1-4.43,1.42-20.34,8.08-6.69-2-24.84,6.62,3.4,8.1-23.43,7.57,12.76,5.24-4.42,7.74-8.89,3.89,9.3,5.14,6.67,11,.81,11.69,7.74-13.23,11.68,5.12,13.74C474.07,51.32,468.05,59.48,463.54,61.16Z" style="fill:#d3db62"/><path d="M406.33,109.45v0l0,.94a2,2,0,0,0,0-.22V110c0-.2,0-.43,0-.6a.92.92,0,0,1,0-.24C406.24,109.13,406.27,109.19,406.33,109.45Z" style="fill:#e56e4b"/><path d="M405.72,28.25c18.25,1.57-12.47,12.53,1.73,10.81l1.24,7.49c-1.1,1-13.72,2.46-4.48,3,3.08,12.63-11.31,5.51-2.29,17.74-2.76,2.74-7,4.18-.06,4.22l-7.11,9.13c1.94-.24,2.69,1.69,3,3.22-5.22,4-4.38,5.68-3.06,11.68a9.93,9.93,0,0,0-3.61,2,2.69,2.69,0,0,0-.85,2.13,0,0,0,0,0,0,0c.07,1.38,1,3,2.39,5.23-7.32,3.54-8.12,1.19-9-.37-.11-.18-.21-.36-.32-.51-.56-.72-1.39-.92-3.74.68,0-2.64,4.89-10.18,2-12a2.2,2.2,0,0,0-.56-.24,4.63,4.63,0,0,0-1.69-.11c.13-1.17.35-2.44.62-3.78,0,0,0,0,0,0,2.22-4.47,4.21-9.3,2.17-9.81,1.22-5.87,1.85-11.46-.57-14.29l-.09-.11.71-.78c1.83-2,2.51-3.06,1.75-3.87.17-1.51-.84-2.35-4-1.75l-.11,0c4.25-9.19,4.55-.21,8,3l-1.2-12.46,4.08,2.28-1.43-11c8,9.39-2.43-12-1.49-12.94,17.74,10.23-3.91-14.08,9.57-7.27-6.3-17.37,6.44,4-1.27-17,2.38-2,5,2.4,6.43,3.7.54-1.77.13-6.9,3.52-5.8,1.29,2.14,2.15,6.32,5.19,3.62,6.87,3.1-.57,7.4-2.7,10.86C419.35,15.25,406.53,24.47,405.72,28.25Z" style="fill:#d3db62"/><polygon points="380.7 72.2 381.25 71.2 380.7 72.2 380.7 72.2" style="fill:#e56e4b"/><path d="M382.53,107.35l.6-1.43C383.27,106.7,383,107.17,382.53,107.35Z" style="fill:#e56e4b"/><path d="M396.4,93.05a.3.3,0,0,1,0-.21C396.42,93,396.42,93,396.4,93.05Z" style="fill:#e56e4b"/><path d="M370.35,105.17l-3.81,9.31c-1.58-3-2.62-2.58-4.78-.47-.18-2.41,0-5.1-2.37-5.56a.53.53,0,0,0-.12,0,4.53,4.53,0,0,0-1,0c-.32-2.7-2.13-.66-1.4-3.71a1.77,1.77,0,0,0-2-.9c-1.08.26-2.17,1.39-3.07,2l0,0s.94-3.32.94-3.32a1.65,1.65,0,0,1-.53,0c.51-3.68.18-5.4-.53-6.18-.26-1.51-1.4-2.5-4.88-1.8l-.14,0,.11-.17c2.94-4.26,2.34-6.06,1.25-7.23-.4-.43-.88-.78-1.26-1.14-1-.87-1.35-1.79,1.24-4.2-3.13-2.83-6.91-4.21-1.47-7.29-1.85-2.19-10.44-5.85-6.67-9.69,1.13-.47,7.23,2.55,5.13-.94-3.3-4.44-7.86-5.83.79-7-2.94-4-3.91-3.72-.81-7.53-7.19-1.73-4.54-3.88-1.81-8.73-3.28.73-4.64-1-4.93-4.09.35-.31,4.3-2.69,3.52-3.43-11.72-3,3-6.28-7-8.54,1.18-2.54,5.88-7.16.81-8.6.08-4.16.23-9.61,5.19-10.66,3,6.08.13,9.36,7,4.67-.22,7.93,4,16.58,1.89,23.32,8.11-5.08,1.93,2.81,2.59,6.09,9-5.53.88,6,2,8.75,6.78-1.72,1.7,3.62,1.43,6.68,10.88-6.67-4.84,9.7,4.48,11.18-7.35,7.65,5.6,8.48-3.9,16.61,0,1.87,4.27.79,5.22,1l-1.23,10.49c4.8-5.38,3,6.81,4.23,8.35C365,99.72,369.51,105.09,370.35,105.17Z" style="fill:#d3db62"/><path d="M370.57,102.68l-.23-.29C370.48,102.52,370.57,102.62,370.57,102.68Z" style="fill:#e56e4b"/><path d="M301.87,84.89c-2.74.61-5.72,2-7.12-.81,8.57-5-4.89-2.74-6.48-4.68l4.56-5.07c-2.46-1.67-22.3-.77-9.31-5.24-4.74-1-14.69-3.1-3.86-6.46l-11.32-2.81s5.79-3.26,5.5-3.25c-3.44,0-7-1.51-7.73-5.22,12.38-2.24-6.34-11.13,7.34-12,5.69,7.45,10-5.25,8.74,10.06,6.75-3.9,8.68.44,4.77,6.06a12.85,12.85,0,0,0,4.15-.56C293.31,63,297.58,74.2,301.87,84.89Z" style="fill:#d3db62"/><path d="M331.35,122.33l-.31.08a4.73,4.73,0,0,0,0-1.06,2.61,2.61,0,0,0-.35-1.2h0a2.45,2.45,0,0,0-1.62-1.07,11.35,11.35,0,0,0-2.6-.2c-.52,0-1,0-1.54,0,0-.34,0-.68,0-1h0c0-.29,0-.58,0-.86v0c.42-1.6,2.25-3.77.26-5.28-.27-2.07-1.65-3-6.42-1.89a13,13,0,0,1-.49-3.14c2.19-12.88-3.77-10-4.38-13.39l2.37-6.15-.6-.3c-3.64-1.85-6.16-3.39-6-5.5.11-1.28,1.21-2.76,3.64-4.65,3.64.36,0,4.92-.23,6.62,8.55,2.09,9.38,3.07,4.64,10.75,7-.5,7,2.24,6.61,8.25,5.74-1.2,6.22.82,6.5,6,.95-2.54,4.73-.59,8.12,1.56.87.54,1.71,1.1,2.47,1.6h0c.67.44,1.26.84,1.77,1.14,0,0,0,0,0,0a5.54,5.54,0,0,0,1.21.56,8.61,8.61,0,0,1,.17,1.06h0C345.47,121.53,336.62,120.94,331.35,122.33Z" style="fill:#d3db62"/><path d="M402.77,99.12h0Z" style="fill:url(#radial-gradient)"/><path d="M414,88.74s0,.07,0,.1l0,0Zm-6.64,21.55.79-.43-.91-.19A5.67,5.67,0,0,1,407.35,110.29Zm-1.11-.86c0,.17,0,.4,0,.6v.16a2,2,0,0,1,0,.22l0-.94v0l-.08,0Zm0,.13v.25c0-.12,0-.24,0-.34A.28.28,0,0,1,406.26,109.56ZM396.4,93.05s0-.09,0-.21A.3.3,0,0,0,396.4,93.05Zm-6.13,6.66a2.69,2.69,0,0,1,.85-2.13C390.08,97.85,389.9,98.64,390.27,99.71Z" style="fill:#d0afa7"/><path d="M430.66,46l11.44-6.72c-.88-4.85-4-6.25-8.61-5.19,1.49-4.81,15.57-14.92,3.71-16.89L433.57,22l-9.28-5.53c-1.1,5.45,8.14,15.09-4.32,8.92.48,6.06,11,19.93-3,9.83-6,4.6,1.27,10.33,4.07,14.25L414,47.81l3.8,8.49-5.63-2.11c-4.94,2.06,3.48,8.34,4.32,10.53-.9,2-10.42-5.74-11.35-5.95-4.3,2.08,3.64,11.61,4.56,13.8-5.76,1-7.14,1.85-5.34,7.68-10.46-6-6.12,4-2.27,8.56-11.35,0-8.12,2.24-4,10-3.62-1.25-5.8-1.57-6.94-1.26a2.69,2.69,0,0,0-.85,2.13,0,0,0,0,0,0,0c.71,2.1,3.48,5.26,6.05,7.79-2,.21-8.42-1-7.86,2.8,6.27,10,11.45,4.09,18.89,0a5.67,5.67,0,0,0-.12-.62h0l-.9-.21v0l0,.94V110c0-.2,0-.43,0-.6-5.38-1.39-3.19-2.65-.07-4.31a23.48,23.48,0,0,0,4.47-2.79,13.12,13.12,0,0,0,.22-1.49c.84-8.9-10-3,3.12-12,0,0,0-.07,0-.1-.93-1.9-2.34-3.74-4.67-2.85C411.55,82.1,431,72.07,417.4,70c7.27-3.7,16.51-6.27,6.11-13.47C428.77,52.12,445,55.57,430.66,46ZM396.4,93.05a.3.3,0,0,1,0-.21C396.42,93,396.42,93,396.4,93.05Z" style="fill:#d0afa7"/><path d="M380.93,59.92h0Z" style="fill:url(#radial-gradient-2)"/><path d="M381.22,61.56h0Z" style="fill:url(#radial-gradient-3)"/><path d="M370.34,102.39l.23.29C370.57,102.62,370.48,102.52,370.34,102.39Zm11.22-10.2-.52.37a2.2,2.2,0,0,1,.56.24A3.74,3.74,0,0,0,381.56,92.19Zm-.07-27.75.09.11.62-.89Zm1.87,39.64c.11.15.21.33.32.51l.5-1.19Z" style="fill:#d0afa7"/><path d="M380,58a24.84,24.84,0,0,0-3.48,1s6.27-10.81,6.27-10.81c-2.25-2.48-5.24-1.76-7.69,0,2.13-6.59,9.87-12-2.4-12.23-2.53-5.34,9.62-7.26,12.25-9l-11.33-6.73c6.68-4.09,12.26-4.1,2.47-10.06,7-1.46,1.92-6.41.27-10.19-5.66.35-8,2.28-8.19,8.1l-6.62-2.3c-.82,2.79-1.72,5.42,1.75,6.52l-7.2.41c3.1,3.5,12.21,8.17.87,5.31-7.56,6.74,18.26,9.21-1.91,13-2.6,4.48,11.49,5.8,9.84,9.36l-8.21,2.15c24,27.36-4.35-2.71,7,22.72,3,.67,6.67,1.42,5.59,5.36-13.3-7.41-12.14-1.59-7.53,4.9a0,0,0,0,0,0,0,44.18,44.18,0,0,0,7.64,8.3s-1.5,2.25-1.5,2.25c-14.16-7.94,1.71,7.4,2.1,10.65-11.9-.62.83,6,1.43,10-6.27,3.27,4.82,9.33,6.32,12l4.75-11.37.6-1.43.55-1.33c-.11-.18-.21-.36-.32-.51-10.07,8.12-1.88-6.46-1.76-11.28a2.2,2.2,0,0,0-.56-.24c-1.29.93-4.57,3.26-4.77,3.4.46-1.18,2.13-4.14,3.7-7.29,0,0,0,0,0,0,2.22-4.47,4.21-9.3,2.17-9.81-.89-.23-2.54.36-5.26,2.14,1.66-3.58,12.16-15.33.74-11.77a46.12,46.12,0,0,0,3.95-4.66l-.09-.11.71-.78A10.15,10.15,0,0,0,384,59.79C384.12,58.28,383.11,57.44,380,58Z" style="fill:#d0afa7"/><path d="M370.34,102.39c.14.13.23.23.23.29Z" style="fill:#d0afa7"/><path d="M380.9,59.93h0Z" style="fill:#d0afa7"/><path d="M359.39,108.45l-3.31,15.24c-1.89-3-4.16-4.43-7.21-1.79-.28-3.19-.71-6.36-2.19-8.68,0,0,0,0,0,0a8.61,8.61,0,0,0-.17-1.06,5.54,5.54,0,0,1-1.21-.56s0,0,0,0a6.81,6.81,0,0,0-1.77-1.14h0c-.76-.5-1.6-1.06-2.47-1.6,1-.84,2.3-2,1.58-2.58-4.79,2.56-14.71-9.11-3.2-7.79,1.09-4.48-6.53-3-8.82-3.45,3.16-4.92-1.81-7.36-5.5-9.42,7.43-8.89-9.18-7.9-1.27-13.14-4.37-3.66-7.1-5.27-1.73-9.9-1.35-2.47-10.65-5.75-3.41-7.69-1.82-3.69-11.55-7.61-2.47-9.72-3.13-3.92-10.21-4.88-.19-6.23-3.39-4.52-15.15-5-1.37-7.8L307,28.34c-1.23-5.15.89-4.83,5.15-4.36l-7.16-4.62c1-3,3.95-2.15,6.23-1.57-.18-3.47-3.55-9,2.69-8.2,2.22,1.85,3.48,18.33,6.36,6.47l2.58,11.19,5.64,1.37c-.22,3.31.06,9-4.6,9.24,13.59,2-.06,6.2.28,11.25,3-3.16,6.36-2.66,9.42.06-3.5,3.12-4.36,4.38.57,6.33-8.56,9.48-1.93.81,3.07,8.92l-6.45,6.47c8.39-.33,6.37,1.72,4.13,8,15-1-3.5,9.51,11.88,7.15.38.36.86.71,1.26,1.14-1.15,3.9-1.45,6.06-1.25,7.23l-.11.17.14,0c.53,2.44,3.46.22,4.88,1.8.71.78,1,2.5.53,6.18a1.65,1.65,0,0,0,.53,0s-.94,3.31-.94,3.32l0,0c.9-.63,2-1.76,3.07-2,2.54.72-.08,12.51,4.39,4.65A.53.53,0,0,1,359.39,108.45Z" style="fill:#d0afa7"/><path d="M341,108.84c.87.54,1.71,1.1,2.47,1.6a9.89,9.89,0,0,0-3.33-.77A5.29,5.29,0,0,1,341,108.84Z" style="fill:#d0afa7"/><path d="M346.51,112.15a8.61,8.61,0,0,1,.17,1.06,6.93,6.93,0,0,0-1.38-1.62A5.54,5.54,0,0,0,346.51,112.15Z" style="fill:#d0afa7"/><path d="M346.75,94.4a.7.7,0,0,0,0,.14l-.14,0Z" style="fill:#d0afa7"/><path d="M346.74,86c.53-.07,1.09-.17,1.7-.28-.16.5-.3,1-.44,1.42C347.6,86.74,347.12,86.39,346.74,86Z" style="fill:#d0afa7"/><path d="M354.88,103.77c-1.08.26-2.17,1.39-3.07,2C353.29,104.1,354.25,103.58,354.88,103.77Z" style="fill:#d0afa7"/><path d="M311.76,80.3c-.19,2.11,2.33,3.65,6,5.5l.48-1C314.2,84.34,312.43,82.63,311.76,80.3ZM327,116.84c0,.34,0,.68,0,1,.5,0,1,0,1.54,0C327.51,117.66,327.08,117.3,327,116.84Zm5.44,1.19c-.48,0-.92,0-1.32,0a2.45,2.45,0,0,1,1.62,1.07Q332.54,118.6,332.39,118Zm1,3.3c-.09-.32-.19-.65-.3-1a4.73,4.73,0,0,1,0,1.06Z" style="fill:#d0afa7"/><path d="M328.94,129.58c-2.22-3.78-5.09-5.29-8.93-2.39-8.92-6.14,1.9-8.29-9.57-9.65.73-.93-14.76-37.1-13.76-38.1,2.46-2.46-1.41-1.06-2.64-4.28-1.75-4.56-4.36-10.72-3.36-11.72,1.91-1.91-3-6.35-3.57-8.53-2.06-7.5-2.33-12.34.78-11.69-1.87-2.84-10.05-5.65-2.92-8.16-.25-.69-9.39-5.07-7.29-6.37,9.25,1.69,5.1-.92,2.91-6.68,5.86-5.15,13.63-7,10.82,3.74,13-.66-4.45,12.82,10.7,12.62-9.9,19.05,5.64-.31-1.21,21.27,15.48-3.77-4.14,15.42,11.36,8.8-.19,3.92-1.47,8.52-.5,11.86-.19,2.11,2.33,3.65,6,5.5-1.56,3.45-2,5.31-1.77,6.45.61,3.37,6.57.51,4.38,13.39-.17,1-.39,2.12-.67,3.33,4.25.23,6.49.87,7.58,1.7,2,1.51.16,3.68-.26,5.28v0a1.82,1.82,0,0,0,0,.86h0c0,.34,0,.68,0,1,.5,0,1,0,1.54,0a11.81,11.81,0,0,0,2.6.2,2.45,2.45,0,0,1,1.62,1.07h0c.11.41.24.81.35,1.2a4.73,4.73,0,0,1,0,1.06l.31-.08C334.57,125.33,335.14,128.37,328.94,129.58Z" style="fill:#d0afa7"/><polygon points="235.15 33.69 235.58 33.78 241.11 40.55 242.05 50.13 244.69 52.34 251.41 82.83 259.2 42.52 262.48 40.31 263.22 40.38 263.86 40.87 264.04 41.42 263.9 42.18 263.6 42.46 263.11 42.27 258.13 80.71 257.62 81.23 257.34 87.67 255.33 89.25 255.16 90.73 257.89 97.62 257.42 98.66 252.42 99.47 252.24 99.71 252.34 102.23 271.17 94.36 271.33 93.87 271.43 93.87 271.62 93.51 271.74 93.51 272.14 93.84 272.8 93.54 274.49 91.28 275.93 90.59 275.75 84.03 276.02 83.99 276.02 84.39 275.12 67.22 275.01 67.21 274.12 66.46 268.52 53.02 271.73 41.91 272.52 41.85 273.07 42.23 272.23 50.26 273.56 51.51 276.05 58.36 281 38.85 281.75 38.26 282.28 38.37 282.78 39.04 283.05 42.72 282.97 42.52 283.03 55.01 289.97 44.9 288.91 42.06 289.12 41.71 289.68 41.48 290.25 41.72 293.12 48.12 292.61 49.23 292.03 49.4 291.5 49.29 290.41 53.91 281.6 62.44 282.47 80.16 282.57 79.72 283.87 78.02 287.96 77.89 287.95 77.86 298.1 56.95 299.51 56.96 299.08 56.96 299.23 56.88 301.96 51.95 303.82 51.52 304.75 51.92 306.29 58.88 303.69 60.49 303.08 67.67 297.71 74.64 294.23 76.43 292.79 81.67 289.54 82.82 288.18 87.77 285.26 89.54 283.46 94.94 282.48 95.89 277.95 96.04 276.65 101.5 275.58 102.42 269.62 100.94 267.41 104.08 261.55 105.4 261.1 104.56 260.95 104.56 259.81 105.38 259.82 105.41 249.87 111.28 249.06 117.85 246.24 119.22 244.52 124.65 244.57 124.81 244.57 124.45 244.2 125.45 242.66 126.2 241.31 132.71 238.78 133.73 237.89 138.88 250.06 130.07 254.22 130.28 261.3 123.75 266.45 107.31 267.53 106.86 268.05 106.89 268.56 107.21 268.76 107.55 267.91 110.43 269.83 114.48 267.27 119.88 267.33 119.83 271.92 119.47 294.09 100.39 305.63 98.71 306.67 99.81 305.92 102.99 292.9 116.13 289.23 115.61 288.76 115.86 287.59 122.37 286.56 123.18 278.45 123.23 277.87 124.06 279.48 124.95 279.6 124.96 279.52 124.96 280.27 125.16 282.83 124.71 289.54 128.82 293.81 126.66 300.18 128.22 301 127.82 303.69 124.03 303.87 123.97 303.91 123.98 305.68 129.8 300.95 136.7 289.17 138.73 274.17 129.56 270.5 129.57 270.25 130.73 269.03 132.24 264.97 133.59 263.45 137.13 255.03 138.51 250.96 137.37 247.3 138.4 245.76 138.11 235.15 146.06 235.01 146.06 227.07 163.21 222.56 166.65 222.16 166.53 221.62 165.99 224.34 156.96 206.65 129.51 206.1 130.06 196.41 123.72 190.24 123.73 181.97 116.87 182.04 116.92 173.46 114.64 172.78 113.22 172.94 108.67 173.63 108 173.87 107.96 173.86 107.96 174.47 107.83 175.24 108.77 178.6 109.79 182.14 108.36 190.49 114.08 190.64 114.08 192.63 112.96 197.85 116.97 192.12 105.79 192.18 104.83 186.25 95.3 187.23 83.04 187.93 82.7 188.14 82.72 188.61 83.08 204.97 121.36 211.71 125.12 224.41 150.44 225.19 148.34 226.49 147.14 228.13 139.2 228.82 138.38 220.33 127.22 220.12 123.74 217.34 120.04 217.36 120.05 213.88 114.17 214 110.67 214.51 109.79 214.95 109.53 216.28 109.98 231.1 134.12 222.4 106.48 202.4 93.16 200.97 90.23 201.41 89.09 203.71 87.68 220.13 99.96 218.61 79.9 221.76 76 222.59 76.06 224.01 76.91 229.43 93.96 228.28 97.31 228.67 98.37 235.85 79.53 236.65 79.06 236.82 79.06 237.3 78.71 237.91 79.39 237.75 96.24 231.87 108.27 231.69 108.36 231.64 108.36 236.55 124.7 238.81 123.66 238.76 105.92 244.43 102.8 246.26 95.27 245.42 95.25 247.19 90.72 241.07 73.31 241.03 73.32 208.35 62.21 207.59 63.31 206.33 64.03 205.44 64.03 203.15 62.02 202.09 58.66 202.75 55.47 204.61 54.66 218.07 58.65 218.01 58.61 208.97 41.64 209.65 40.1 214.12 41.34 219.3 49.53 219.96 37.48 222.33 33.36 223.01 33.08 223.66 33.35 225.44 37.95 223.56 51.66 229.29 62.21 237.06 64.53 237.47 64.47 234.34 55.12 234.37 55.06 234.37 54.99 233.52 54.57 233.52 54.49 234.37 53.78 233.52 53.46 233.52 53.14 234.35 52.83 234.37 42.8 234.38 43.57 234.35 34.02 235.15 33.69 235.15 33.69 235.15 33.69 235.15 33.69" style="fill:#397f91"/><polygon points="48.6 51.03 35.16 82.86 30.28 84.61 28.29 83.78 20.86 52.8 18.24 52.09 0 66.11 29.39 117.12 27 158.07 27 158.07 27.01 158.08 27.01 158.08 27.01 158.08 33.14 164.56 46.43 162.56 52.94 149.33 97.29 135.87 102.32 122.84 99 110.5 85.54 108.84 54.58 132.17 48.59 126.44 48.89 120.15 49.59 119.63 54.81 120.05 78.16 100.08 87.61 101.44 99.74 88.91 97.32 80.14 82.41 72.86 74.11 78.18 72.61 78.06 59.21 100.2 48.84 101.8 46.48 89.16 53.35 78.08 53.34 78.08 58.84 68.55 49.06 51.07 48.6 51.03" style="fill:#d0afa7"/><polygon points="204.34 199.99 223.84 73.92 219.99 71.65 200.03 201.16 204.34 199.99" style="fill:#b17777"/><polygon points="234.11 140.75 203.87 184.91 207.71 187.19 238.42 141.92 234.11 140.75 234.11 140.75" style="fill:#b17777"/><polygon points="255.26 163.48 213.9 170.09 216.36 173.82 257.73 167.2 255.26 163.48 255.26 163.48" style="fill:#b17777"/><polygon points="251.92 172.49 239.47 163.68 237.5 167.69 248.95 175.83 251.92 172.49 251.92 172.49" style="fill:#b17777"/><polygon points="231.08 155.86 223.74 146.04 222.17 148.78 227.21 158.09 230.25 158.91 231.08 155.86 231.08 155.86" style="fill:#b17777"/><polygon points="207.53 170.96 195.49 90.85 191.18 92.01 205.26 174.81 207.53 170.96 207.53 170.96" style="fill:#b17777"/><polygon points="203.99 153.92 178.51 129.46 175.33 132.59 201.71 157.77 203.99 153.92 203.99 153.92" style="fill:#b17777"/><polygon points="184.24 140.13 183.58 124.46 179.27 123.29 179.93 141.29 184.24 140.13" style="fill:#b17777"/><polygon points="201.34 123.48 193.82 132.01 196.05 135.88 205.19 125.75 201.34 123.48 201.34 123.48" style="fill:#b17777"/><polygon points="204.83 92.5 200.37 92.52 195.38 114.12 198.52 117.3 204.83 92.5 204.83 92.5" style="fill:#b17777"/><polygon points="240.39 110.08 209.02 138.75 212.87 141.02 244.23 112.35 240.39 110.08 240.39 110.08" style="fill:#b17777"/><polygon points="241.41 102.35 237.1 101.18 228.93 121.41 233.24 122.57 241.41 102.35 241.41 102.35" style="fill:#b17777"/><polygon points="240.98 64.16 236.51 64.18 212.28 107.03 216.59 108.2 240.98 64.16 240.98 64.16" style="fill:#b17777"/><polygon points="221.35 117.46 216.4 97.23 211.93 97.25 216.88 117.47 221.35 117.46" style="fill:#b17777"/><polygon points="241.92 70.38 226.37 83.44 230.22 85.71 245.77 72.66 241.92 70.38 241.92 70.38" style="fill:#b17777"/><path d="M494.79,236.54s27.15-7.83,29.54-13.22a47.16,47.16,0,0,0,3.18-10.76c-2.51-10.63.29-12.48-11.13-9,4.85-6.05,33.68-54.15,33.77-67.58l12.33-28.71c.42-7,1.7-16.86-8.75-19.13-4.61,6-14.11,30.43-17.08,37.67.63-3.3,11.64-31,0-32.89-6.75-.21-12.56,29.13-15.1,33.49.24-3.93.37-13.59-7.34-8.66l7.34-23c.62-2-1.94-14.13-7.56-10.76-2.78,1.2-18.67,54.42-18.67,54.42l5.16-59.8c-.55-5.92-1.81-7.92-11.12-7.18-1,1,6.76-91.74-16.3-65.19a903.07,903.07,0,0,0,3.18,92.1s-1.59,0-2.38,3-5.56-85.52-14.7-91.5S446.84,17,446.84,17L448,22.38C423,18.54,452.6,99,450.41,100.13c-2.33,0-3.44,12.43-3,12.62,0,0-1.79-6-3.77-7.84-4.27-2.24-8.09,2-8,9,.4,5.38,4,15,4,15-7.94,13.21,5.37,44.67,17.49,65.79" style="fill:#a7bcdf"/><path d="M492.14,202.39s37.35-43.06,52.06-87.31c0,0,6-7.18,9.14-1.8,3.09,9.25-17,63.78-58.82,94.49Z" style="fill:#92a5c4"/><path d="M462.73,188c.62-.19-22.74-54-12.32-65.19,7.6,2.93,4.75,38,16.3,56.22Z" style="fill:#92a5c4"/><path d="M476.64,183.25s-.4-62.79,1.59-67.57c2-5.61,7.2-3.25,6.76,1.19-.4,3.59-6,61-4,73Z" style="fill:#92a5c4"/><path d="M455.18,103.72c1.14-2.15-26-71.91-10.33-77.15,7.36-6.7,13,71.24,17.09,77.15Z" style="fill:#92a5c4"/><path d="M488.56,189.83s21.46-36.48,25-65.78c0,0,2.38-6.58,4.77-4.79,6.21,7.11-18.81,61.38-25.44,74.16Z" style="fill:#92a5c4"/><path d="M445.12,109.91c.93,3.22-7.57,7.22-8.49,3.16C435.7,109.85,444.2,105.85,445.12,109.91Z" style="fill:#fff"/><path d="M448.56,30c1.59,2.26-6.62,11-8.61,7.47C438.36,35.22,446.57,26.46,448.56,30Z" style="fill:#fff"/><path d="M459.52,15.79c.72,5.41-9.27,7.89-9.87,1.82C448.93,12.2,458.92,9.72,459.52,15.79Z" style="fill:#fff"/><path d="M485,8.63c.12,5.42-11.66,5.42-11.53,0C473.33,3.2,485.11,3.2,485,8.63Z" style="fill:#fff"/><path d="M453.19,127.34a2.58,2.58,0,1,1-5.16,0A2.58,2.58,0,1,1,453.19,127.34Z" style="fill:#fff"/><path d="M484.59,115.38c.06,2.71-5.63,2.71-5.57,0S484.65,112.66,484.59,115.38Z" style="fill:#fff"/><path d="M521.3,93.25c-2.51,4.71-10.15-4.12-8.26-7.18C515.56,81.36,523.2,90.19,521.3,93.25Z" style="fill:#fff"/><path d="M541.25,101.77c-2.47,4.76-9-3.16-7.22-6.28C536.49,90.73,543.08,98.66,541.25,101.77Z" style="fill:#fff"/><path d="M561.7,101.88c-3.51,4.75-10.86-7.2-8.38-10.08C556.82,87.05,564.18,99,561.7,101.88Z" style="fill:#fff"/><path d="M490.15,74.41c6.5-3,8.94,3.92,8,8.37-1.35,3.19-.42,56.67-8,62.8Z" style="fill:#92a5c4"/><path d="M497.45,79.93c-1.21,3.12-7.27-1.67-6.25-3.86C492.4,73,498.47,77.74,497.45,79.93Z" style="fill:#fff"/><path d="M525.52,213.75c.06,10.07-4.44,10.07-4.37,0S525.58,203.69,525.52,213.75Z" style="fill:#fff"/><polygon points="350.98 89.92 350.98 89.92 344.77 92.3 339.19 102.55 334.69 104.73 325.78 123.48 325.78 123.2 325.77 123.49 317.28 131.17 324.17 89.44 322.06 86.17 321.39 85.98 320.57 86.32 320.29 86.77 320.38 87.81 320.86 87.8 310.93 133 312.15 135.18 307.25 142.04 307.24 143.37 311.31 145.92 311.38 146.21 310.47 148.56 302.2 140.58 300.62 140.87 291.86 129.97 301.25 108.19 301.36 108.22 312.69 95.33 313.29 85.87 312.58 85.54 310.05 90.52 310.48 90.88 310.48 90.9 309.63 91.08 309.63 91.29 310.03 91.31 309.89 93.45 303.49 99.64 305.75 79.77 305.26 78.96 304.67 78.89 302.49 82.64 302.63 82.49 301.61 84.57 301.98 86.58 301.13 87.02 301.13 87.45 301.35 87.56 298.19 94.07 295.28 82.24 297.26 79.97 296.94 79.27 296.15 79.18 291.23 84.13 291.31 85.33 292.25 86.18 292.32 86.18 292.19 86.02 296.1 98.24 296.88 98.59 296.88 98.61 296.03 98.67 296.85 101.93 289.76 118.09 289.21 115.61 285.42 114.05 283.7 91.47 281.84 90.39 281.02 84.78 279.02 83.64 274.44 89.76 279.06 115.98 281.73 118.22 281.24 123.35 283.38 126.05 283.15 131.77 287.97 134.76 287.93 141.6 291.88 142.28 291.92 141.43 294.18 141.89 308.93 158.55 307.36 164.97 309.51 167.26 308.98 173.62 310.25 175.55 309.12 182.31 311.12 184.19 310.07 189.48 296.51 173.67 294.94 148.91 293.69 147.96 293 148.07 292.39 149.06 292.63 149.34 288.79 157.3 289.58 160.76 262.34 126.86 260.39 127.19 259.64 129.49 267.49 148.27 270.92 149.16 269.79 156.29 277.93 160.06 278.16 161.06 276.18 161.3 273.87 159.59 265.82 160.99 263.18 157.77 259.59 156.89 259.02 157.58 258.78 156.73 258.63 157.58 258.25 156.73 255.99 156.53 253.86 151.14 253.82 151.13 250.07 155.99 252.08 164.19 261.2 169.76 271.99 168.63 271.95 168.63 283.16 168.36 283.59 171.38 286.64 173.67 287.06 177.84 307.68 192.16 314.7 219.91 315.31 220.03 316.42 219.08 316.44 213.65 317.28 213.49 316.43 213.35 316.65 210.3 342.9 190.88 343.38 191.27 356.37 188.85 361.25 191 370.61 187.44 370.52 187.46 379.38 188.35 381.98 182.95 381.34 181.94 376.58 182.55 373.19 179.72 363.25 182.04 362.19 180.54 355.57 182.25 377.58 154.99 377.5 154.28 376.97 153.71 376.2 153.83 347.36 183.85 345.48 183.78 345.45 183.93 345.61 183.93 318.97 204.33 319.11 191.49 331.9 182.68 332.14 181.45 336.41 178.39 336.39 178.4 341.75 174.12 342.71 169.8 341.6 169.08 318.39 186.64 336.53 163.68 362.65 156 362.07 153.62 359.92 152.46 341.02 158.34 349.65 139.97 348.05 135.18 345.6 135.23 334.36 149.38 334.28 150.59 334.28 150.58 334.35 152.31 333.51 153.53 332.87 132.62 332.36 132.54 327.16 162.08 327.2 162.09 316.89 175.56 315.38 174.17 321.44 157.32 317.26 152.43 318.94 140.22 337.99 124.42 365.06 127.36 366.73 129.97 371.23 127.81 372.64 123.07 357.29 120.65 371.72 108.03 371.63 106.36 367.05 105.94 359.35 111.74 362.21 95.64 361.67 95.14 358.37 97.65 354.68 110.35 353.83 110.48 354.68 110.63 354.64 112.11 345.51 119.99 337.02 119.2 351.61 90.52 350.98 89.92 350.98 89.92 350.98 89.92 350.98 89.92" style="fill:#a5c2e0"/><polygon points="159.29 37.52 157.88 37.89 152.73 55.01 146.34 43.49 145.87 43.37 143.65 46 144.13 59.11 163.98 78.02 157 110.84 138.78 122.83 138.7 116.94 137.85 116.9 137.85 116.9 138.41 111.17 145.68 106.83 146.11 96.47 146.98 96.01 153.13 77.88 150.17 75.35 148.64 75.44 148.05 75.98 144.51 89.15 141.89 82.65 140.41 81.52 139.33 81.48 136.41 83.49 138.28 97.15 138.33 96.96 137.71 101.82 135.53 102.59 134.15 102.32 127.88 92.41 128.4 79.11 137.19 64.86 134.09 56.11 132.72 55.15 131.15 55.17 130.52 55.63 127.79 69.98 123.71 55.94 120.65 55.67 118.16 56.85 122.92 81.86 122.31 83.65 120.32 84.58 117.48 83.13 115.97 80.76 115.76 78.29 115.76 78.69 115.45 69.3 92.25 43.46 90.3 43.2 87.98 44.91 89.57 54.76 108.65 75.07 108.44 76.25 107.12 77.97 105.7 78.22 84.85 62.65 83.39 63.12 82.75 63.95 84.36 71.15 124.59 106.48 125.67 110.89 99.34 102.19 94.22 90.63 91.35 89.99 90.15 90.92 90.91 100.51 80.75 94.99 73.56 81.33 71 80.33 67.25 82.05 67.04 86.03 91.38 110.08 91.19 110.08 91.08 110 90.82 110.15 90.76 109.23 90.68 109.23 90.61 110.15 81.18 113.48 69.97 110.77 68.7 111.34 67.96 112.57 68.01 114.33 70.32 118.42 75.91 121.07 98.77 113.75 126.79 119.41 128.1 121.01 132.84 144.88 137.59 146.78 138.7 146.53 140.3 144.97 140.77 132.54 143.1 128.79 203.16 118.09 205.85 114.88 205.72 114.2 202.03 112.31 193.34 115.25 201.03 105.59 200.86 104.13 199.82 102.91 196.76 102.33 185.7 108.48 184.14 110.78 164.48 112.03 168.04 103.92 178.17 96.73 187.72 97.33 187.68 97.33 210.82 79.85 211.09 78.25 210.8 77.48 208.54 75.5 206.11 74.9 203.07 75.9 193.53 88.66 184.63 90.77 205.64 67.05 205.07 63.87 201.87 61.12 197.93 60.66 168.01 90.26 185.21 59.64 184.18 48.92 180.11 46.33 172.66 49.88 166.68 68.23 157.72 63.75 157.72 63.75 162.5 44.2 160.91 38.42 160.4 37.85 159.29 37.52" style="fill:#b0c89e"/><path d="M108.87,159.65c-.07.22-.13.43-.19.64l-.21.22Z" style="fill:#735661"/><polygon points="103.14 182.15 103.13 182.12 103 181.77 103.11 181.28 103.14 182.15" style="fill:#735661"/><polygon points="102.64 163.09 102.48 163.03 99.97 159.3 99.56 158.32 102.64 163.09" style="fill:#735661"/><polygon points="99.56 158.32 94.86 151.06 99.06 157.08 99.56 158.32" style="fill:#735661"/><polygon points="119.61 170.42 118.98 170.39 119.19 170.27 119.61 170.42" style="fill:#735661"/><polygon points="104.38 161.85 104.19 162.42 104.22 161.49 104.38 161.85" style="fill:#735661"/><polygon points="102.64 163.09 102.48 163.03 101.35 162.63 99.97 159.3 99.56 158.32 102.64 163.09" style="fill:#735661"/><polygon points="101.72 160.92 99.06 157.08 97.56 153.46 99.85 156.71 101.72 160.92" style="fill:#735661"/><polygon points="97.39 173.82 97.39 173.84 97.3 173.91 97.39 173.82" style="fill:#735661"/><polygon points="97.08 175.76 97.03 176.07 96.5 176.59 97.08 175.78 97.08 175.76" style="fill:#735661"/><path d="M97.08,175.78l0,.29,0-.31Zm6,5.5,0,.84v0Zm5.36-20.77.21-.22c.06-.21.12-.42.19-.64Zm0,0,.21-.22c.06-.21.12-.42.19-.64Z" style="fill:#735661"/><path d="M130.45,174.25l-10.83-3.83-.63,0,.21-.12.42.15,36.31,1.83-33.19-4,1-.6,34.33,3.51-33.51-4,13.13-7.62,25.68-6.24-24,5.27,13.81-8-17,8.72-5,1.1,20.66-12.07-27.47,13.57-2.42.53,30.1-14.68-35,13.92,1.72-1.59L149,146.56,119.88,159l12.44-11.52L148.6,136,134,146l14.16-13.11L129.58,149l-21.23,14.55.21-1,28.56-32.08-27.93,29.27.36-1.57,16-34.73L110.1,155.7l-.27.57c.23-.81.46-1.65.71-2.51,3.56-12.71,8.64-31.46,9.47-34.55L112.94,143l4.48-20-7.81,31.22-1.91,6.43-.6,1.24-.37.39.66-6.52L117,124.65l-9.21,27.15,3.43-34.11-4.32,36.74-1.18,3.47.32-38.71-1.29,30.13-1.83-31.26,1.61,36.48-.3,7,.15.36-.19.57,0-.93L83.75,113.88l18.9,46.81-2.8-4,1.88,4.21-2.67-3.84.51,1.24,3.09,4.77h0l-.16-.06-1.14-.4-4.89-1.72-26.65-15,23.37,13.82-25-8.8L96,163.65l-28.33-6.89L96.54,165l-9.38.32,5.82.61-5.63.06,4.72.57-24.41,3.16L89.44,168l-6.18,1.49-25.88,1.76L81,170.08l-29.87,7.18,36-7.49,6.55-.34.51,0-3.75,1.5-7.58,3-23.68,5.45,21.74-4.67L67.66,180l8-2.41-19.19,8.75,34.4-13.3,5.82-1.74,1-.31h0l-.16.12h0l-26.71,18.6L85.31,181l-20.7,15.76L90.54,177.8l3.92-2.38L68.37,199.85,97.3,173.91l.09-.09v0l-.09.07L70.72,201.76,96.5,176.59l.58-.83v0l0,.31-.54.52-4.18,5.9-17.64,17.3L91.25,184l-19.14,27,23.68-31.38.86-1.13-.06.37-.85,5.37-13.57,30,12.64-24.09-.6,3.83-7.7,22.17L93.75,197l-3.09,19.71,2.19-11.12,9.64-25.14,0,.08-7.41,36.3,7.88-35,.12-.49,0,.87v0l.59,18.27-.7,16.14.86-11,.46,14.09.35-24.34.59-7.46,10.39,27.77-10.07-31.9.15-1.85,12.37,32.78-8.23-27.48,8.82,27.63-4.25-15.24-4.67-18.7,14.65,36.18-15.89-42.3,25.38,38.82-21.62-35.46,27.81,29.78-20.43-24,11.78,11.4,2.69,2.61,5.56,5.38-24.86-27.73-1.15-1.28,2.11,1.27,31.92,19.26-29.46-19.29,7.16-.08,23.3,9.53L127,175.39h.83L153,182.22l-19.53-6.91,25-.3Zm-21.58-14.6c-.07.22-.13.43-.19.64l-.21.22Z" style="fill:#735661"/><polygon points="97.56 153.46 99.84 156.71 87.06 128.06 97.56 153.46" style="fill:#735661"/><polygon points="87.35 165.98 82.94 165.45 55.65 166.36 87.35 165.98" style="fill:#735661"/><path d="M82.94,165.45l4.22-.14c-13.59-1.4-29.88-3-30.2-3Z" style="fill:#735661"/><polygon points="99.05 157.08 97.56 153.46 83.49 133.47 94.87 151.06 99.05 157.08" style="fill:#735661"/><polygon points="99.57 158.32 94.87 151.06 80.21 129.98 99.97 159.31 99.57 158.32" style="fill:#735661"/><polygon points="119.61 170.42 118.98 170.39 119.19 170.27 119.61 170.42" style="fill:#735661"/><polygon points="101.72 160.92 99.06 157.08 97.56 153.46 99.85 156.71 101.72 160.92" style="fill:#735661"/><polygon points="97.39 173.82 97.39 173.84 97.3 173.91 97.39 173.82" style="fill:#735661"/><polygon points="97.08 175.76 97.03 176.07 96.5 176.59 97.08 175.78 97.08 175.76" style="fill:#735661"/><polygon points="99.56 158.32 94.86 151.06 99.06 157.08 99.56 158.32" style="fill:#735661"/><polygon points="94.14 169.41 90.39 170.91 93.64 169.43 94.14 169.41" style="fill:#735661"/><path d="M93,165.92l-5.63.06-4.41-.53,4.22-.14Z" style="fill:#735661"/><polygon points="135.15 199.02 131.47 195.27 134.16 197.88 135.15 199.02" style="fill:#735661"/><polygon points="115.81 175.52 114.86 175.53 113.7 174.25 115.81 175.52" style="fill:#735661"/><path d="M110.54,153.76l-.44,1.94-.27.57C110.06,155.46,110.29,154.62,110.54,153.76Z" style="fill:#735661"/><path d="M108.87,159.65c-.07.22-.13.43-.19.64l-.21.22Z" style="fill:#735661"/><polygon points="104.38 161.85 104.19 162.42 104.22 161.49 104.38 161.85" style="fill:#735661"/><polygon points="97.75 171.01 97.58 171.13 97.58 171.13 96.72 171.31 97.75 171.01" style="fill:#735661"/><polygon points="96.64 178.56 96.58 178.93 95.8 179.69 96.64 178.56" style="fill:#735661"/><path d="M93,165.92l-5.63.06-4.41-.53,4.22-.14Z" style="fill:#735661"/></svg>