<svg id="e5dca9b8-f983-4224-a260-9a017736a5cc" data-name="Layer 1" xmlns="http://www.w3.org/2000/svg" viewBox="0 0 1044.02 739.39"><path d="M1011.41,162.35H82.25c-18,0-32.6,13.06-32.6,29.18v321c0,16.12,14.6,29.19,32.6,29.19h62.24c18,0,32.6-13.07,32.6-29.19v-9.28c0-16.12,14.6-29.19,32.61-29.19h17.78c18,0,32.6-13.06,32.6-29.18h0c0-16.12,14.6-29.18,32.6-29.18h97.81c18,0,32.6,13.06,32.6,29.18V556.33c0,16.12,14.6,29.18,32.6,29.18H599.44c18,0,32.6,13.07,32.6,29.19v95.51c0,16.12,14.6,29.18,32.61,29.18H715c18,0,32.6-13.06,32.6-29.18V564.29c0-16.12,14.6-29.19,32.6-29.19h54.84c18,0,32.6-13.06,32.6-29.18V479.39c0-16.12,14.59-29.18,32.6-29.18h111.14c18,0,32.61-13.07,32.61-29.19V191.53C1044,175.41,1029.42,162.35,1011.41,162.35Z" style="fill:#23586a"/><path d="M972,134.54H42.88c-18,0-32.6,13.07-32.6,29.18v321c0,16.12,14.59,29.18,32.6,29.18h62.24c18,0,32.6-13.06,32.6-29.18v-9.29c0-16.11,14.6-29.18,32.6-29.18h17.79c18,0,32.6-13.07,32.6-29.18h0c0-16.12,14.59-29.19,32.6-29.19h97.81c18,0,32.6,13.07,32.6,29.19V528.53c0,16.11,14.59,29.18,32.6,29.18H560.07c18,0,32.6,13.07,32.6,29.18V682.4c0,16.12,14.59,29.19,32.6,29.19h50.39c18,0,32.6-13.07,32.6-29.19V536.48c0-16.11,14.59-29.18,32.6-29.18h54.83c18,0,32.6-13.07,32.6-29.18V451.59c0-16.12,14.6-29.19,32.61-29.19H972c18,0,32.6-13.06,32.6-29.18V163.72C1004.64,147.61,990,134.54,972,134.54Z" style="fill:#8b9e85"/><path d="M644.34,203.8l-58.08-39.61a6.91,6.91,0,0,0-3.68-1.19L460,136c-.32,0-26.53-1.51-26.84-1.48L385.48,134c-.57.06-26.5-.83-27.08-.92L316.92,135c-.32,0-39.84-.42-40.16-.42L150.61,134c-1.66,0-28.32-.14-29.57,1L90.46,176.73c-.49.44-15.95,18-25.63,2.75-4.17-6.58-22.26-8.54-27.73-2.54-2.7,3-1.07,36-1.07,36-1.37,3.54,7.13,56.16,10.68,57.51L72,293.65c5.2,2,28.22-26,33.41-24l26,9.91a6.57,6.57,0,0,0,2.19.44L246.47,284c.61,0,48.24,4.58,48.84,4.44l128.34-46.18a6.84,6.84,0,0,1,1.91-.18l227,10.83a6.85,6.85,0,0,0,6.81-9L647,207.26A6.86,6.86,0,0,0,644.34,203.8Z" style="fill:#c6cdc7"/><polygon points="128.15 243.81 105.22 124.91 102.42 125.95 126 244.8 128.15 243.81" style="fill:#7895a4"/><polygon points="129.53 134.34 120.53 212.02 122.82 211.5 131.75 135.87 129.53 134.34 129.53 134.34 129.53 134.34" style="fill:#7895a4"/><polygon points="126.14 210.99 65.1 166.06 64.99 168.78 124.12 212.26 126.14 210.99" style="fill:#7895a4"/><polygon points="126.27 226.51 154.87 117.21 153.28 116.9 123.63 226.24 126.27 226.51" style="fill:#7895a4"/><polygon points="145.06 132.28 136.44 200.06 138.46 201.41 147.43 133.18 145.06 132.28 145.06 132.28 145.06 132.28" style="fill:#7895a4"/><polygon points="92.04 139.22 113.99 176.87 115.48 175.82 94.61 139.45 92.04 139.22 92.04 139.22 92.04 139.22" style="fill:#7895a4"/><polygon points="84.81 161.12 108.3 200 110.7 198.51 86.28 159.67 84.81 161.12 84.81 161.12 84.81 161.12" style="fill:#7895a4"/><polygon points="69.21 180.27 102.71 195.77 103.48 194.13 71.18 178.61 69.21 180.27 69.21 180.27 69.21 180.27" style="fill:#7895a4"/><polygon points="127.31 220.9 168.36 172.89 166.83 171.13 124.92 219.98 127.31 220.9" style="fill:#7895a4"/><polygon points="152.88 198.01 172.08 179.88 170.58 178.88 151 196.65 152.88 198.01" style="fill:#7895a4"/><path d="M425.44,7.93c1.55.55-13.39,174.72-8.6,172.91l16-175.14Z" style="fill:#fec77c"/><path d="M419.76,155.44,441.43,144c.36-4.2-21.55,9.53-22.42,9.07l.75,2.41Z" style="fill:#fec77c"/><path d="M424.32,141.37l18.51-21.56c-1.81-3-18.72,18.94-19.84,19.45l1.33,2.11Z" style="fill:#fec77c"/><path d="M423,129.67l9.58-24.31c-2.33-2.58-10.59,22.2-11.42,22.63Z" style="fill:#fec77c"/><path d="M425.06,105l14-28.61c-2.2-7.12-15.21,28.6-16.38,28Z" style="fill:#fec77c"/><path d="M424,78.7c-.2-1.46,17.59-29.33,12.8-29.73C438.27,49.15,415,84.31,424,78.7Z" style="fill:#fec77c"/><path d="M424.46,53.08l17.12-28.74c-2.33-3.59-18.63,27.43-19.7,27.82Z" style="fill:#fec77c"/><path d="M428.34,19.4,438.91.64,436.85,0C437.08,1.36,423.65,19.05,428.34,19.4Z" style="fill:#fec77c"/><path d="M419.93,152.41l-4.43-17.27c-5.67-3.47,2.92,18.14,1.94,18.84Z" style="fill:#fec77c"/><path d="M424.36,134.6,413.61,118c-7.28-.47,9,16.85,8.51,18.41Z" style="fill:#fec77c"/><path d="M425.31,118.19c-1.43-1-8.76-21.7-12.19-18.44,1.42-.3,10.29,28,12.19,18.44Z" style="fill:#fec77c"/><path d="M423.63,97.8c-1.63-.32-12.82-17.31-14.86-12.2,1.6-.11,13.81,19.63,14.86,12.2Z" style="fill:#fec77c"/><path d="M422.86,79.28l-7-13.5c-6.18-1.75,5.68,14.59,5,15.67l2-2.17Z" style="fill:#fec77c"/><path d="M422.85,54.83c-1.31-.76-7.45-20.12-10.6-16.61,1.45-.09,8.36,25.81,10.6,16.61Z" style="fill:#fec77c"/><path d="M425.82,21.53c-1-.89-2.95-18.74-6.21-16.45,1.06-.27,4.09,26.7,6.21,16.45Z" style="fill:#fec77c"/><path d="M415.5,177.25l52-40.77c-1.89-.46,16.46-63.12,8.09-57.87C462.29,159.27,457.75,129.44,415.5,177.25Z" style="fill:#fec77c"/><path d="M417.09,177.17c.81-.81,19.07,10.6,16.36,4.53-1.54.13-15.94-8.67-16.36-4.53Z" style="fill:#fec77c"/><path d="M427.38,166.87l9.14,3.86c4.76-2.12-7-4.7-7.5-5.67l-1.64,1.81Z" style="fill:#fec77c"/><path d="M438.28,159.78l9.1,2.17c1.35-2.85-6.21-3.65-7.5-4.49l-1.6,2.32Z" style="fill:#fec77c"/><path d="M452.66,149.18l12.92-5.13c-.2-2.8-11.58,2.48-12.68,2.33l-.24,2.8Z" style="fill:#fec77c"/><path d="M468.91,134.8l15.17-10c-.59-4.82-14.61,7.17-16.07,7.06l.9,2.93Z" style="fill:#fec77c"/><path d="M469.78,118.76l8.86-2.58c-.22-.93,6.55-8.37,2.57-7.77-1.39,1.49-13.15,7.29-11.43,10.35Z" style="fill:#fec77c"/><path d="M472.63,103.06,486,90.6l-2.36-1.52c-.75,1.85-15.35,11.33-11,14Z" style="fill:#fec77c"/><path d="M477.65,90.44,485,77.7c-2.72-3.39-8,9.62-9.31,10.41l1.95,2.33Z" style="fill:#fec77c"/><path d="M421.9,173.53c-.26-1.62,6.85-14.4,2.31-14.34C424.71,161,414.93,175.24,421.9,173.53Z" style="fill:#fec77c"/><path d="M433.9,167.76c-.28-1.14,4.77-12.28,1.52-12.09C435.9,157.49,427,170,433.9,167.76Z" style="fill:#fec77c"/><path d="M449.83,156.27c-.77-1.25,3.5-16.92-1.08-15C449.78,142.45,443.83,160.48,449.83,156.27Z" style="fill:#fec77c"/><path d="M460.94,144.56l-.43-16.07c-5.12-4.14-1.49,15.7-2.6,16.59Z" style="fill:#fec77c"/><path d="M469.67,126.75l-3.46-13.87c-5.76-3.32,1.91,15,1,15.92Z" style="fill:#fec77c"/><path d="M474.94,108.47c-1.21-1.2-3.82-11.78-6.92-9.46C469.66,100.12,471.24,115.2,474.94,108.47Z" style="fill:#fec77c"/><path d="M476.39,95.2l-5-8.59c-4.34-1.25,3.13,9.7,2.69,10.57Z" style="fill:#fec77c"/><path d="M476.45,82.09l-3.17-8.92c-4.93-1.91,1.11,9.33.58,10.56Z" style="fill:#fec77c"/><path d="M403.31,183,368.79,69C359.46,61.66,405,186.55,402.7,185.85l.61-2.81Z" style="fill:#fec77c"/><path d="M416.53,169.33c-1.15-1.26-3.06-17.33-6.83-14.92C411.19,155.15,412.18,176.09,416.53,169.33Z" style="fill:#fec77c"/><path d="M401,164.55c-.86-1.1-.66-17.53-4.2-15.75C398.12,149.8,395.39,170.86,401,164.55Z" style="fill:#fec77c"/><path d="M392.21,149.86c-.59-1.68,5.94-19.31.84-18.44C394.1,132.7,385.33,153.72,392.21,149.86Z" style="fill:#fec77c"/><path d="M385.48,134l5.34-15.32c-2.79-4.34-6.63,14.16-7.72,14.46Z" style="fill:#fec77c"/><path d="M381.28,119.62l5.27-14.2c-2-5.1-7.17,14.82-8.1,14.69Z" style="fill:#fec77c"/><path d="M376.67,97.58l7.93-13.27c-1.93-5.48-9.32,12.21-10.57,12.32Z" style="fill:#fec77c"/><path d="M376.35,82.19c.12-1.23,7.87-11.45,5-12.33C381.86,71.18,368.8,84.36,376.35,82.19Z" style="fill:#fec77c"/><path d="M371.53,74.37c.24-1.47,8.16-8.17,3.91-9C374.93,67.25,365.87,73.27,371.53,74.37Z" style="fill:#fec77c"/><path d="M358.4,58.74c1.09-.24,9.55,19.1,10.47,12.31-1.64-1.49-6.8-15-10.47-12.31Z" style="fill:#fec77c"/><path d="M364.48,75.55c1.25,0,9.58,13.13,10.54,8-1.67-.68-8.23-12.54-10.54-8Z" style="fill:#fec77c"/><path d="M366.14,92l9.59,11.71c2.15-.54-6.61-11.49-6.64-12.22l-2.95.51Z" style="fill:#fec77c"/><path d="M367.53,114.24c1.23.1,11.34,10.74,11.71,6-2-.89-9.26-9.57-11.71-6Z" style="fill:#fec77c"/><path d="M373.15,132.51c.7-.76,15.14,5.17,11,.29-2.24-.26-9.63-3.64-11-.29Z" style="fill:#fec77c"/><path d="M373.67,144.57c.06-.63,17.21,5.49,14.69,2.4-2.21-.06-13.81-7.18-14.69-2.4Z" style="fill:#fec77c"/><path d="M382.62,157.59c1.35-.41,12,6.67,10.55,1.47-2.27-.3-9.79-6.55-10.55-1.47Z" style="fill:#fec77c"/><path d="M390.61,170.76c.68-.78,14.65,2.56,11.49-1.34-2.3.36-12.15-4-11.49,1.34Z" style="fill:#fec77c"/><path d="M408.74,179.75c4.11.31,8.32-.18,9.86-4.66-2.06,1-11.67.15-9.86,4.66Z" style="fill:#fec77c"/><polygon points="182.41 194.18 207.64 69.12 203.9 66.68 178.05 195.15 182.41 194.18" style="fill:#335c64"/><polygon points="207.99 149.34 177.75 193.51 181.59 195.78 212.3 150.51 207.99 149.34 207.99 149.34" style="fill:#335c64"/><polygon points="233.49 172.24 192.12 178.85 194.59 182.58 235.96 175.96 233.49 172.24 233.49 172.24" style="fill:#335c64"/><polygon points="204.96 164.46 197.62 154.64 196.05 157.38 201.09 166.68 204.13 167.5 204.96 164.46 204.96 164.46" style="fill:#335c64"/><polygon points="183.97 181.05 171.93 100.94 167.61 102.11 181.7 184.9 183.97 181.05 183.97 181.05" style="fill:#335c64"/><polygon points="183 156.31 157.53 131.85 154.34 134.98 180.73 160.16 183 156.31 183 156.31" style="fill:#335c64"/><polygon points="162.14 138.77 161.48 123.1 157.16 121.93 157.83 139.94 162.14 138.77" style="fill:#335c64"/><polygon points="175.22 132.07 167.7 140.6 169.93 144.47 179.07 134.35 175.22 132.07 175.22 132.07" style="fill:#335c64"/><polygon points="178.71 101.09 174.25 101.11 169.26 122.71 172.4 125.9 178.71 101.09 178.71 101.09" style="fill:#335c64"/><polygon points="216.45 115.61 185.08 144.29 188.93 146.56 220.3 117.89 216.45 115.61 216.45 115.61" style="fill:#335c64"/><polygon points="197.27 150.02 193.44 147.72 180.04 164.93 183.87 167.23 197.27 150.02 197.27 150.02" style="fill:#335c64"/><polygon points="224.1 66.02 219.63 66.04 195.4 108.89 199.71 110.06 224.1 66.02 224.1 66.02" style="fill:#335c64"/><polygon points="195.23 126.05 190.28 105.83 185.81 105.85 190.76 126.07 195.23 126.05" style="fill:#335c64"/><path d="M517.83,62.52c6.75,19-9.6,37.12-5.83,56.69,7.11,19.18,13.85,38.49,1.11,57.24-9.88,9.77,14.47,46.23-2.89,36.43-13.16-25,4.14-44.87,2.88-68.84-13.39-35.28-7.13-48.14,4.73-81.52Z" style="fill:#7e8959"/><path d="M490.19,58.19c12.32,15.89,11.78,27.43,8.69,46.21-1.7,13.77,5.5,27.44,2.09,40.74-5.32,8-4.43,15.52-2.85,24.17-.38,11.71-6.76,23.12-1.48,34.59,0,5,6.8,10.82,4.22,14.62-1.64,1.8-2.83.75-3.4-.8-12.23-8.1-5.67-66.32-1.1-80.21-.93-19.57-2.91-38.75-.66-58.33.27-7.5-8.09-14-5.51-21Z" style="fill:#7e8959"/><path d="M479.24,65.17a168.57,168.57,0,0,1,7.23,61.55c-.27,9.23-7.1,17.05-5.7,26.47,5.38,15.7,6.08,27.78,3.83,44.16-.64,5.69,8.32,14.56,2.22,18.15-13.53-6.72-6.48-25.11-5.79-36.95,1.35-8.9-4.52-16.27-5.72-24.76-1.27-12.49,8.47-23,7.13-35.71,1.56-17.35-5.39-37.18-3.2-52.91Z" style="fill:#7e8959"/><path d="M517.44,62.09c-.91,12.35-8.51,24.57-11.11,36.85-3.24,17.72,5.87,33.52,8.71,50.35-2.53,19.65-15.57,38.71-6.46,58.67,1,1.82,3,7.32,5.58,5.55,1.3,3-5,2.14-5.93.25-11.71-20.59,1.78-42.44,1.58-63.77-1-14.91-7.45-28.95-5.69-44.16.67-15.2,6.66-30.44,13.32-43.74Z" style="fill:#7e8959"/><path d="M489.66,58c-1,7.27,5.3,13.06,6,20.42-.59,17.08-1.14,34.19,2.23,51.25,1.51,10.73-4.76,19.76-4.59,30.31,1.12,18.72-4.93,42.74,5.14,59.22-12.18-7.22-9.53-57-5.54-77.87.65-20.24.13-40.63.63-60.88-.75-7.66-7.05-14.85-3.83-22.45Z" style="fill:#7e8959"/><path d="M478.47,65.06c.23,18.58,5.3,37.75,3.81,56.8.3,9.89-6.53,18.2-7.11,27.89-.28,4.58,1.19,9,2.72,13.25,9.67,16-6.5,37,7,51.35,1.95,2.07-7.16-.41-7.57-10-1.45-10.59,1.28-21.46-.06-32-1.13-8.17-4.41-16.17-3.24-24.5,11.55-29.44,2.08-54,4.48-82.75Z" style="fill:#7e8959"/><path d="M299.32,52.34l3.42,131.53c5.3,2.22,3-139.21-3.42-131.53Z" style="fill:#aa7455"/><path d="M337.55,107c2,.8-47.55,68-35.94,64.28C300.89,169.35,346.1,107,337.55,107Z" style="fill:#aa7455"/><path d="M355.27,119.16l-40.12,28,1.86,3C316.2,148.25,366,121.23,355.27,119.16Z" style="fill:#aa7455"/><path d="M354.27,109.54,345.66,126c3.33,8.64,10.1-15.22,12-15.67l-3.37-.77Z" style="fill:#aa7455"/><path d="M295.35,111.54c-2.06.1-28.44-37.72-31.09-29.75,3.05,1,35.93,63.75,41.63,60.61C309.24,127.37,305.23,122.1,295.35,111.54Z" style="fill:#aa7455"/><path d="M283.86,78.33c-7.49-.74,9.19,32.28,8.44,34.29C299.8,113.36,283.12,80.32,283.86,78.33Z" style="fill:#aa7455"/><path d="M318.88,80.29l-14.4,47.5,3.45-.14c-1.88-.56,20.76-53.44,10.95-47.36Z" style="fill:#aa7455"/><path d="M311.52,70.41,300.6,102c4.3,2.29,13-30,14.37-31.69l-3.45.14Z" style="fill:#aa7455"/><path d="M297.63,75.81c-1.81-1.92-5.83-13.38-10-10.72l11.89,20.65C306.76,86.05,297.89,78.25,297.63,75.81Z" style="fill:#aa7455"/><path d="M295.55,133,263.61,131c0,2.12-16.34,13.17-7.74,13.69,8.52-13.56,21.2-10.19,34.49-9.81C300.15,149.61,307.55,152.4,295.55,133Z" style="fill:#aa7455"/><path d="M258.42,135.05c1.47,1.09-31.34,35.81-20.19,32.92C238.44,165.69,264.86,137.05,258.42,135.05Z" style="fill:#aa7455"/><path d="M260.27,134.15l-18.34-8.86-1.58,3.15C241.74,127.4,264.67,143.64,260.27,134.15Z" style="fill:#aa7455"/><path d="M265.52,178.75l-1.25.92-.12,12.72-.18.16-1.66-1.05-.89-8.58-.93-.41-1.12.58-.58,7,3.53,5.57-.78,6.77-6.45,3.39-1.07-20-1.55-1.28-1,.11-1,1.22-.34,9.93-2.85-13-1-.43-.65.18,1.28,15.3,2.88,1.55.63,10.37-5.09,1.61-3.78-3.76.06,0L245.5,205l-.6-8.45-1.23-.42-1,.44L241.48,203l-.4.05-.48-.45-.46-20-1.37-.91-.81.33-.76,11.27h.05l-.54,2.73-.35.16-2.76-12.65-1.29-.45-1.5,5.51-1-.85-2-7.48-.42-.09-1.1.65,1.49,10.48,2.81,2,.84,4.22,4.91,3,1.4,9.69,1.39,1.3,0-.05,7.46,22.23-7.85-21.4-1-.57-1,.39-.9,8.14-.19.13-2.47-1.25-1.59-7.63-1-.69-.95.37.15,9.26,7.13,5v1.92l-10.06-5.83-1.6-11.7,3.41-3.73-1.09-9.66-.75-.24-.75.29-2.11,9.19-1.23-19.45-1-.33-1.23.68-.32,5.68-.74-.19-1.81-6.15-1.14-.87-1.16.71,0,9,4.67,2.34.46,14.26-.79-.66-1-12.29-.81-.83h-.49l.81,16.31,3.3,1.9.06,4.12-5.07-3.21-2.23-17.11-.77-.27-1.5.94-.64,1.91h.05l-.07,10.95-.49-.32-1.2-19.3-1.44,0-1.21,10.79L206,203.14l-.52-11.24-1.37-1.19-1.78,1.23,11.26,28.44,30.3,16.68L248.37,256l3.43.18.66-.51.51.23.57-.25,1.64-17.14h0v0h0l.9-.95h0l.06-.05h0l11.78-6.13-.29.11,4.65-2.23h0l.28-.11-.09,0,4.85-2.4-.28.12,18.11-14.33,1.27-5.88,0,.16-.06-1.06,0,.05-.25-.74-1.86-.08-1.69,2h0l-1.7,4.21-.27,0-.18-.36.49-1.91,0,.09,4.7-6.74h0l2-1.16,0,0,.08-.07,0,0,3.38-6.89v.09l.22-1.33v.09l.08-.57h0l.06-.69v0l0-.09v0l.12-4.79h0l-.68-1.83h-1.41l-1.53,4.29,0-.23-.17,1.08,0-.23-.33,5.9h0v0l-.82,2.38,0,0,0,0,0-.05-.46.5.14-.11-.46.34h0l-2.07.26-1-8.31v.1l.15-2.21v0l-.1-6.05-2-1.17-.8.73v0l-.35.76.12-.29-.1,5.4v0l-.15,9v0l.19,3.54v-.09l.29,6.48-.13.18-.67.15-.26-.13h0l-.64-5.07,0,0-.19-.29h0l-.29-.34-.35.26.05-.07-.47.61.05-.07-2.78,14.86,3.82-18.08v-11l0,.08-.24-.35-.64-.24h0l-.08,0L286,188.8,284.66,200l-1.12-6.89-1.06-.14-1.61,11.73,0,0-.44.41-.66.08-.51-.48h0l-.19-.38h0l-.18-2.86v0l-.79-2.19-.85.16-.35.4-.07.67v0h0l.29,7.22,2.16,2.35.1,9.7-2.09.6-.93-2.26.41-.59,0,0,.29-.3h0v-6.35h0l-1.13-.61-.54.47-.59,5.15-.46.13,0,.12-.74-.69-.3-5.27,0,.09-.07-.14-1.32-.23L274,222.19l-7.31,2.7,3.06-15.73-.58-.73,0,.11-.11-.26h0l0,.07,0-.07-1.44.21.16-.06-1.36,2.81,0-.24-.43,6.1-1.45.82L263,216.46v0h0l-.07-.28h0l-.65-2.81-1.41-.56-.6,5.94,1.36,2,1.42.11.25,2h.05l0,3.58-4.69,2.11-1.58-.38h0l-.3-2.35v0l.3-.69h0l1.26-9.2-.44-.15-.65,1.35v-.06l-.31,1.89,0-.31-.12.76.05-.32-.26,2.22h0l-.95,1.14-1.45-.64h0l0-8.43h-.57l-1,10.2,1.77,1.27-.53,6.12-3.79,2-.28-18.47L275,200l0,0,.45-.71h0l.14-.79-.15.22.49-4.05,3.8-2,1.32-6.91-1.23-.72-1.64,1.64-.61,3.57-2.58-.09.07-6.89-1-.89-1.81.51-.23,10.43,0,0-.54-2.8-.74-.43-1.19,1,.58,4.84.91.39-.28,3.3-3.56,1.37.29-9.41,2.32-1.17,1.14-9.32-.83-.39-1.17.47-.93,5.48-1.28.66-.48-8.27-.75-.35Zm24.4,3.73Zm0,0h0Zm0,0-.06.13.06-.13Zm-60.34,8.13-1.46-1.19-.55-6.76.51,5.92,2.22,2.33-.72-.3Zm30.7-5.3.14-1.09.89,8.67-1.05-7.42h0l0-.16Zm26.94,10.4.35-5.86-.34,6.27v-.41Zm9.36,2.61-.05.07.05-.07Zm-8.46.9v0Zm7.56,3h0Zm-2.81,1.6h0l-.05.07,0-.06Zm-4,3.51,0,0,0,0Zm-24.14,12.38.23,0,0,.07h0l-.2,2.14-.49-2.09.49-.06Zm-9.38,18.57-.1.13.1-.13Zm-.14.19,0,0,0,0Z" style="fill:#507282"/><polygon points="301 185.6 300.95 185.54 301 185.6 301 185.6 301 185.6" style="fill:#507282"/><polygon points="300.25 198.87 299.82 199.66 300.28 198.81 300.25 198.87 300.25 198.87 300.25 198.87" style="fill:#507282"/><polygon points="298.34 201.9 298.82 201.56 298.34 201.9 298.34 201.9 298.34 201.9" style="fill:#507282"/><polygon points="297.52 203.05 297.5 203.06 297.78 202.89 297.52 203.05 297.52 203.05 297.52 203.05" style="fill:#507282"/><polygon points="297.49 203.06 297.49 203.06 297.55 203.06 297.49 203.06 297.49 203.06 297.49 203.06" style="fill:#507282"/><polygon points="292.54 207.04 292.56 207 292.54 207.04 292.54 207.04 292.54 207.04" style="fill:#507282"/><polygon points="292.53 207.07 292.53 207.07 292.54 207.06 292.53 207.07 292.53 207.07 292.53 207.07" style="fill:#507282"/><polygon points="288.87 207.4 288.87 207.4 288.87 207.4 288.87 207.4 288.87 207.4" style="fill:#507282"/><polygon points="289.78 201.7 289.78 201.66 289.78 201.7 289.78 201.7 289.78 201.7" style="fill:#507282"/><polygon points="285.62 203.32 285.62 203.32 285.64 203.3 285.62 203.32 285.62 203.32 285.62 203.32" style="fill:#507282"/><polygon points="276.85 200.49 276.86 200.49 276.85 200.49 276.85 200.49 276.85 200.49" style="fill:#507282"/><polygon points="278.49 198.97 278.43 198.92 278.49 198.97 278.49 198.97 278.49 198.97" style="fill:#507282"/><polygon points="277.57 199.32 277.6 199.32 277.57 199.32 277.57 199.32 277.57 199.32" style="fill:#507282"/><polygon points="276.85 200.51 276.85 200.49 276.85 200.51 276.85 200.51 276.85 200.51" style="fill:#507282"/><polygon points="278.91 202.63 278.91 202.6 278.91 202.63 278.91 202.63 278.91 202.63" style="fill:#507282"/><polygon points="279.09 204.28 279.09 204.28 279.09 204.28 279.09 204.28 279.09 204.28" style="fill:#507282"/><polygon points="279.09 204.28 279.09 204.28 279.09 204.28 279.09 204.28 279.09 204.28" style="fill:#507282"/><polygon points="279.1 204.29 279.09 204.28 279.1 204.29 279.1 204.29 279.1 204.29" style="fill:#507282"/><polygon points="279.13 204.38 279.13 204.36 279.13 204.38 279.13 204.38 279.13 204.38" style="fill:#507282"/><polygon points="275 200.08 275.02 200.04 275 200.08 275 200.08 275 200.08" style="fill:#507282"/><polygon points="271.13 210.24 271.11 210.26 271.16 210.2 271.13 210.24 271.13 210.24 271.13 210.24" style="fill:#507282"/><polygon points="271.14 215.92 271.14 215.9 271.14 215.92 271.14 215.92 271.14 215.92" style="fill:#507282"/><polygon points="277.06 217.22 277.06 217.22 277.06 217.22 277.06 217.22 277.06 217.22" style="fill:#507282"/><polygon points="277.5 212.96 277.49 212.91 277.5 212.96 277.5 212.96 277.5 212.96" style="fill:#507282"/><polygon points="268.97 208.03 268.97 208.03 268.96 208.01 268.97 208.03 268.97 208.03 268.97 208.03" style="fill:#507282"/><polygon points="267.21 208.69 267.48 208.57 267.21 208.69 267.21 208.69 267.21 208.69" style="fill:#507282"/><polygon points="256.08 237.55 256.1 237.53 256.08 237.55 256.08 237.55 256.08 237.55" style="fill:#507282"/><polygon points="255.18 238.5 255.18 238.5 255.18 238.5 255.18 238.5 255.18 238.5" style="fill:#507282"/><polygon points="262.9 216.18 262.91 216.2 262.9 216.18 262.9 216.18 262.9 216.18 262.9 216.18" style="fill:#507282"/><polygon points="257.07 225.18 257.08 225.17 257.07 225.18 257.07 225.18 257.07 225.18" style="fill:#507282"/><polygon points="256.1 237.53 256.12 237.52 256.1 237.53 256.1 237.53 256.1 237.53" style="fill:#507282"/><polygon points="257.09 228.18 257.1 228.19 257.09 228.18 257.09 228.18 257.09 228.18 257.09 228.18" style="fill:#507282"/><polygon points="254.79 217.62 254.8 217.52 254.79 217.62 254.79 217.62 254.79 217.62" style="fill:#507282"/><polygon points="254.34 220.89 254.33 220.99 254.34 220.88 254.34 220.89 254.34 220.89 254.34 220.89" style="fill:#507282"/><polygon points="256.13 237.51 256.12 237.52 256.13 237.51 256.13 237.51 256.13 237.51" style="fill:#507282"/><polygon points="255.18 238.51 255.18 238.5 255.18 238.51 255.18 238.51 255.18 238.51" style="fill:#507282"/><polygon points="289.93 182.47 289.93 182.46 289.93 182.47 289.93 182.47 289.93 182.47" style="fill:#507282"/><polygon points="297.32 196.03 297.33 196.03 297.32 196.03 297.32 196.03 297.32 196.03" style="fill:#507282"/><polygon points="296.49 206.16 296.57 206.34 296.49 206.14 296.49 206.16 296.49 206.16 296.49 206.16" style="fill:#507282"/><polygon points="289.97 182.36 289.96 182.39 289.98 182.35 289.97 182.36 289.97 182.36 289.97 182.36" style="fill:#507282"/><polygon points="289.96 182.4 289.94 182.44 289.96 182.4 289.96 182.4 289.96 182.4 289.96 182.4" style="fill:#507282"/><polygon points="289.94 182.45 289.94 182.44 289.94 182.45 289.94 182.45 289.94 182.45" style="fill:#507282"/><polygon points="289.93 182.47 289.93 182.47 289.94 182.45 289.93 182.47 289.93 182.47 289.93 182.47" style="fill:#507282"/><polygon points="289.92 182.48 289.92 182.48 289.93 182.47 289.92 182.48 289.92 182.48 289.92 182.48" style="fill:#507282"/><polygon points="297.31 196.11 297.32 196.1 297.31 196.11 297.31 196.11 297.31 196.11" style="fill:#507282"/><polygon points="299.51 185.17 299.65 185.15 299.51 185.17 299.51 185.17 299.51 185.17" style="fill:#507282"/><polygon points="299.36 185.19 299.36 185.19 299.44 185.18 299.36 185.19 299.36 185.19 299.36 185.19" style="fill:#507282"/><polygon points="299.18 185.22 299.3 185.2 299.3 185.2 299.18 185.22 299.18 185.22 299.18 185.22" style="fill:#507282"/><polygon points="297.31 196.14 297.31 196.13 297.31 196.14 297.31 196.14 297.31 196.14" style="fill:#507282"/><polygon points="295.37 197.13 295.36 197.1 295.37 197.13 295.37 197.13 295.37 197.13" style="fill:#507282"/><polygon points="289.51 188.01 289.51 187.99 289.51 188.01 289.51 188.01 289.51 188.01" style="fill:#507282"/><path d="M227.3,182.17l.81,8.42.27,0,.55.48.25,0,.57.89.74.18.42-.32v-1.59l-1.72-1.67h0l-.41-.1-1-6.4-.46.06Zm2.85,7.27.06.08-.06-.08Z" style="fill:#507282"/><polygon points="259.91 193.19 260.61 193.89 261.3 193.19 260.61 192.5 259.91 193.19 259.91 193.19 259.91 193.19" style="fill:#507282"/><polygon points="260.17 183.74 259.94 193.05 260.93 193.5 261.25 193.16 261.23 192.75 261.35 192.61 261.31 184.54 260.58 183.69 260.17 183.74 260.17 183.74 260.17 183.74" style="fill:#507282"/><path d="M287.33,189.53l-.26.45h0l-.05.52-.3.34.2,5.4.48.36.47-.36.18-6.52-.45-.26-.27.07Zm.88.94v0Z" style="fill:#507282"/><polygon points="264.1 219.42 263.73 221.13 263.97 221.62 265.45 221.63 265.52 219.58 264.1 219.42 264.1 219.42 264.1 219.42" style="fill:#507282"/><path d="M340.93,156.18c.3,4.43-5.73,19.68,2.29,20.22.12,1.33.88,3.38-1.32,3.09l.44,10.08,0-.08,4.59,4.24c-.78-.13-5.34.73-5.56-.56l.09.12-.33-.42,0,0c.22-4.49-5.27-3.73-8.21-4-.11-4.11-.72-14.1-4.07-3.56-2.66,0-.88-18.35-5.23-10.26,2.28,10.75-4.21-.95-4.19,9.09,3.27-.27,4.2,3.11,4.74,5.64,1.92.52,6.1,1,5.93,3.85,3-.15,6.94.83,8,4.08-.38-.27,9.13,1.35,9.06,1.26-.45,2.8,4.87,8.76-2,5.48,1-3.37-1.87-5.41-4.73-3.43l-.13,9.76c6.42-1,6.32,4,7.76,8.58v-.11l.21,1.19c-5.59,1.47-2.1-5.17-5.74-4.46-2.75,7.21-2.34-.46-2.77-2.75-4.32-3.73-1.21,8.71-2.06,9.7l6.15,2.79h0c3.22.94,3.4,3.29,3,6.19-.19-.2-7.73.48-7.26-.44h0c.72-2.62-.71-4.85-3.06-6-.86,1.58-1.74,4.13-4,2.85L331.86,215a3,3,0,0,0,2.85-2.69l0,.05c0-2.31,2.91-14-2.9-9.89-.44.5,1.21,8-.93,6.69-.09-3-.86-4.37-3.74-2.36l.44,6.82c-2.48,1-2.47-14-3-14.86-3.31-1-3.21.38-3.46,3.2-1.85,2.16-1.1-9.4-1.6-9.47h0c-4.83-6.76-4.22,10.07-4.46,11.91-2.55.39-6.47-1.12-5.8-4.28l.05.63,0-1.82,0,.38v-1.71l.05.63.28-4.12-.12.63c.78-7.12,8.26-1.21,6.18-11.64l0,.08c-3.57-4.18-2.46.55-3.34,2.81-2.09,0-3.62.15-2.84-2.48-7.83-4.2-1.65,7.6-5.35,8.84l.07,0c-5.92,1.47-3.31-5.86-4-9.07-1.74-2.38-2.94,13.77-3.48,13.72l.17.22v0l.95,1-.05,0c2.58.62,6.79.7,5.8,4.53l0-.38.38,1.85c-.29-.57,5.05,3.82,5,3.69l0-.1.1.41v-.09l.08.75,0-.5.07.71,0-.46c-.34,2.83,3.37,2.35,5.13,2.64,1.44-.72,4.52-5.46,6-2.35v0c1.22,2.84-.12,12.4,5.44,9.92,1.31,3.3-1.49,18.16,5.78,15.15l-.06,0c7.67,2.56,21.8.69,16.89,12.92.9,1.87,14-2,6.54-3-.16-17.4,29.9-20,40.91-26.14h0l.23-.09-.22.08.83-.3-.23.09,3.66-5,0,.25.12-.59c-.59.87,5.88-2.93,5.83-2.74h0l.14-.09-.06,0,1.31-3.16,0,.12.64-2.48h0l.93-3-.11.23c.11-3.48,5.6-3.71,8-4.22h0l.2-.07h0l.65-.54-.08.1c-.42-1.26,3.88-12.65-1-9.84l-1,4.77-2.62-.37.18.16-.93-1.87.08.23-.19-11.5,0,.25,0-1.83v.16l-.05-.56V176l-.06-.65,0,.26-.05-.49v.11l-.05-.42v.06c-4.82-6.63-2.05,5.38-6.25,3.77.31-18.25-4.67-21.1-5-.6-.43-2.13-1.24-4.11-3.83-3.45l.27,7.38c.34.25,10.32,3.18,9.85,4,1.51,4.3,1.49,4.76-3.24,4.38,0,0-.56-3.69-.56-3.69-4.45-4-2.94,7-4,8.47,9.53-.33,3.44,6.57,3.08,11.93-9.43,6.08-2.55-8.21-7.34-9.64-4.23-1.26-1.68-10.79-2.95-12l.05,0c-6.75-5.19,5.15,28.31,3.82,28.59-.29.38-11.92,2.45-11.77,3.39l.05-.07-.07.09,0,0c-4.51,6.15-2-3.76-2.6-6,5.15,1.08,4.12-2.17,4.4-5.86-1.63-2.23-2.72.43-3.87,1.55-1.18.47-.93-9.84-1.14-10.22-3.64-3.89-2.59,19.89-5.5,19.12-.59-2.12.37-6.72-3.38-5l-.41,7.58,0-.08c.95,1.63,5.53.32,4.88,2-2,5.4-7.69,4.35-11.08,5.67-1.35-.91.85-17.73-3.78-12.86-1.27,7.07-.16,14.31-9.4,15.45.64-1.26-.31-7.65,2.68-6.19l2.42-8.79c-3.08-3.34-2.4,2.91-3.37,4.29-1.86,1.21-.55-6.84-.94-7.2l6-2-.06,0,.11-.07c-.14.2.19-8.39.15-8.35-3.28-1.2-2.45,2.87-2.92,4.72-2.76,1.78.88-6.8.45-7.22l6.49-2.37-.09.06c2.7-1.78,9.73-3.61,8.87-7.9l9.31-2.9c1.17-2.74,3.2-9.44,7.41-9.06h0c1.86-.66,5.76-1.29,5.23-4.09v0c.67-6.17-1.67-11.79-3.31-1.75-5.84,1.2,2-11.62-5.72-8.24-.94,3.14,1.27,12.25-4.67,10.57l-.78,8.58c-5.62,3.38-2.52-3.79-3.4-6.45-3.67.93-1.83-4.07-2.14-5.89-1.06-1.28-2.08-1.94-3.35-.44l-.68,9.49c2.06.09,1.84,2.71,1.95,4.13-5.85,1.58-.91,6.48-5.57,5.43-.24-.22,0-12.46-1.16-11.79l-3.74,16.5c-2.61-.16-6.67,1.95-6.1-2.52,6.18.13,4.2-5.07,4.44-8.91-2.69-1.54-3.24,1.82-3.57,3.49l.07,0c-2.8,1.61-.44-6.64-.26-6.87h0l3-1.07c-.65-1.75,1.83-10.92-3-7.74,0,2.85.49,5.55-3.3,5.6-.58,2.55.52,17.84-5.37,11.3.56-1.31,2.22-26.33-.74-25.33l-1,11.36c-5.57,3.16.09-16-4.39-15Zm46.43,64.59-.09.06Z" style="fill:#7e8959"/><polygon points="447.3 215.25 463.43 206.7 462.69 205.65 446.75 213.45 447.3 215.25 447.3 215.25 447.3 215.25" style="fill:#4795c5"/><polygon points="450.7 204.77 464.47 188.73 462.86 188.45 449.7 203.2 450.7 204.77 450.7 204.77 450.7 204.77" style="fill:#4795c5"/><polygon points="452.6 194.72 459.73 176.63 458.45 176.58 451.23 193.47 452.6 194.72" style="fill:#4795c5"/><polygon points="451.23 176.9 461.66 155.62 460.37 154.49 449.47 176.49 451.23 176.9" style="fill:#4795c5"/><polygon points="450.44 158.14 461.17 137.34 459.97 136.02 448.33 158.5 450.44 158.14" style="fill:#4795c5"/><polygon points="450.8 139.08 463.54 117.7 461.95 117.42 448.88 138.39 450.8 139.08" style="fill:#4795c5"/><polygon points="452.57 121.89 460.43 107.92 458.9 107.45 451.37 120.82 452.57 121.89" style="fill:#4795c5"/><polygon points="447.43 212.99 444.14 200.14 442.45 200.06 445.58 214.16 447.43 212.99" style="fill:#4795c5"/><polygon points="450.73 199.74 442.73 187.37 440.85 188.32 449.06 201.07 450.73 199.74" style="fill:#4795c5"/><polygon points="451.43 187.53 444.26 173.64 442.36 173.81 450.13 189.41 451.43 187.53 451.43 187.53 451.43 187.53" style="fill:#4795c5"/><polygon points="450.18 172.35 440.69 162.23 439.13 163.28 448.95 174.03 450.18 172.35 450.18 172.35 450.18 172.35" style="fill:#4795c5"/><polygon points="449.61 158.57 444.4 148.53 442.72 148.91 448.14 160.19 449.61 158.57 449.61 158.57 449.61 158.57" style="fill:#4795c5"/><polygon points="449.61 140.38 443.38 127.69 441.71 128.02 448.25 142.23 449.61 140.38 449.61 140.38 449.61 140.38" style="fill:#4795c5"/><polygon points="450.69 123.47 447.54 111.3 446.07 111.23 449.64 125.52 450.69 123.47 450.69 123.47 450.69 123.47" style="fill:#4795c5"/><polygon points="475.1 212.93 484.71 209.12 483.89 208.23 475.28 210.86 475.1 212.93 475.1 212.93 475.1 212.93" style="fill:#4795c5"/><polygon points="483.88 199.88 495.16 192.45 494.02 191.2 483.2 197.71 483.88 199.88 483.88 199.88 483.88 199.88" style="fill:#4795c5"/><polygon points="487.86 185.66 494.45 183.74 497.51 178.32 496.37 177.96 488.03 183.68 487.86 185.66 487.86 185.66 487.86 185.66" style="fill:#4795c5"/><polygon points="489.86 176.71 499.77 167.44 498.02 166.3 489 174.83 489.86 176.71 489.86 176.71 489.86 176.71" style="fill:#4795c5"/><polygon points="469.68 215.86 470.51 204.97 468.88 204.68 467.63 216.21 469.68 215.86" style="fill:#4795c5"/><polygon points="477.95 207.15 477.63 195.19 475.79 194.87 475.69 207.53 477.95 207.15" style="fill:#4795c5"/><polygon points="484.44 193.89 481.87 183.58 480.07 183.5 482.63 195.42 484.44 193.89" style="fill:#4795c5"/><polygon points="488.36 180.29 484.91 173.11 483.21 173.26 486.55 181.82 488.36 180.29" style="fill:#4795c5"/><polygon points="489.44 170.42 485.69 164.03 484.44 164.29 487.69 171.89 489.44 170.42" style="fill:#4795c5"/><polygon points="426.81 211.09 429.18 198.19 427.43 197.37 424.62 211.18 426.81 211.09" style="fill:#4795c5"/><polygon points="421.8 199.29 425.77 187.89 424.44 187.27 420.03 198.65 421.8 199.29" style="fill:#4795c5"/><polygon points="418.67 188.59 422.59 178.02 421.57 177.17 416.57 188.95 418.67 188.59" style="fill:#4795c5"/><polygon points="415.24 172.19 421.15 162.31 419.89 161.25 413.28 171.49 415.24 172.19" style="fill:#4795c5"/><polygon points="415 160.74 419.49 152.62 418.75 151.56 412.94 160.56 415 160.74" style="fill:#4795c5"/><polygon points="413.62 148.7 417.75 142.99 416.53 141.97 411.92 147.52 413.62 148.7" style="fill:#4795c5"/><polygon points="405.55 141.23 412.44 151.79 413.33 150.38 407.74 141.14 405.55 141.23 405.55 141.23 405.55 141.23" style="fill:#4795c5"/><polygon points="406.18 155.8 413.03 162.96 414.02 161.78 407.79 154.78 406.18 155.8 406.18 155.8 406.18 155.8" style="fill:#4795c5"/><polygon points="407.41 168.01 414.55 176.73 415.02 175.97 409.6 167.64 407.41 168.01 407.41 168.01 407.41 168.01" style="fill:#4795c5"/><polygon points="408.44 184.59 415.94 190.18 417.06 189.6 417.16 189.05 410.38 183.7 408.44 184.59 408.44 184.59 408.44 184.59" style="fill:#4795c5"/><polygon points="412.63 198.18 421.35 199.92 420.8 198.4 414.28 196.79 412.63 198.18 412.63 198.18 412.63 198.18" style="fill:#4795c5"/><polygon points="413.01 207.16 424.12 209.78 423.94 208.94 414.49 205.54 413.01 207.16 413.01 207.16 413.01 207.16" style="fill:#4795c5"/><path d="M426.84,216c-14.87-31.74-15.54-76.26-15.55-76.71h1c0,.44.67,44.76,15.45,76.29Z" style="fill:#4795c5"/><path d="M444.25,222.44l-.92-.38c.12-.29,11.86-28.94,7-40.61-5-12,.72-72.67,1-75.24l1,.09c-.06.63-5.93,63-1,74.76C456.28,193.11,444.75,221.25,444.25,222.44Z" style="fill:#4795c5"/><path d="M465.13,222.62l-.68-.73c26.53-24.57,27.83-62.27,27.84-62.65l1,0C493.28,159.65,492,197.76,465.13,222.62Z" style="fill:#4795c5"/><polygon points="542.79 182.25 528.79 187.25 524.79 201.25 543.79 211.25 551.79 226.25 581.79 226.25 615.79 226.25 622.79 217.25 637.79 208.25 637.79 191.25 604.79 183.25 542.79 182.25" style="fill:#9c8f57"/><path d="M566.79,201.25s-43-44-49-80c0,0-1-3,3-5s16-8,18-7,9-4,42,83Z" style="fill:#c7b570"/><path d="M548.79,196.25s33.25-82.44,44.62-90.72,25.38,10.72,25.38,10.72,4,4-9,19-46,72-46,72Z" style="fill:#fec77c"/><path d="M597.79,191.25s3-20,5-35c0,0,0-6,13-3s11,2,12,7-3,12-4,20-3,17-3,17Z" style="fill:#c7b570"/><path d="M563.79,207.25s-21-25-18-52c0,0,0-12,7-15a23.07,23.07,0,0,1,14-1s5.2-.6,6.1,2.7,7.9,7.3,7.9,26.3-1,41-1,41Z" style="fill:#fec77c"/><ellipse cx="530.85" cy="119.52" rx="12.07" ry="4.69" transform="translate(-5.46 211.5) rotate(-22.42)"/><ellipse cx="563.29" cy="146.75" rx="11.5" ry="4.5"/><ellipse cx="605.29" cy="114.75" rx="6.5" ry="12.5" transform="matrix(0.5, -0.87, 0.87, 0.5, 203.27, 581.57)"/><ellipse cx="615.79" cy="159.25" rx="4" ry="10" transform="translate(313.63 718.95) rotate(-76.14)"/><path d="M580.79,196.25s-17-20-11-30c0,0,14-9,21-7s8,39,8,39Z" style="fill:#c7b570"/><ellipse cx="582.29" cy="167.25" rx="9.5" ry="3" transform="translate(-23.54 164.86) rotate(-15.8)"/><path d="M162.79,221.79c-2.69-1.16-1.36,30.31-2,30.79C129,277.27,197.22,268.7,209,272.52c-22.09-47.67,38.58-25.42-46.16-50.73Z" style="fill:#7e6b71"/><path d="M165.26,221.69c-11.69,1.84,10.72,7.86,11.37,9.54,5,3,28.84,4.13,34.88,4.73,1.36-7.77-41-14.26-46.25-14.27Z" style="fill:#7e8959"/><path d="M180.68,209.9c-1.53.65,1.42,9.56-.37,12.06,1.44-.39,1.9-.93,3,.72.16-.37-1.22-13.06-2.63-12.78Z" style="fill:#c6cdc7"/><path d="M169.09,207.86c-2,.81-.38,4.69-.94,5.76-.22-.09-1.56-5.15-2.33-4,0,0,.24,2.3.3,2.15l1.37,4.26c0-.28-10.38-11.18-5.37-5-6.54-.5,4.6,3.56,1.28,5.54-.28-.1-5.64-2.31-5.58-2.26-2.84.54,3.58,3,3.3,3.25-.33-.06-8.14-1.52-8.09-1.48-.77,1.46,1.41,1.73,2,1.67-.23.57-5,3.31-3.92,3.88.17.66,6.17-3.56,6.18-3.44-.34.52-2.39,1.29-1.52,1.78,2.42-1,5.93-1.36,7.4.34-5.94-1.26-12.16,1.94-12.76,6.88,1.83-1.54,4.11-6.63,6.19-4.36-2.54.88-4.59,3.42-5.82,4.87,2,.52,4.68-2.28,6.43-2.15-.21.17-4.36,3.32-4.3,3.31,6.36-2.6,3.56-.88,0,2.19.14.74,1.19-.24,1.2-.2-.12.55-3.43,4.34-2.26,4.18.46-.29,6.08-7.75,6.19-6.78-.12.29-3.14,6.65-3.09,6.62.09.29,1.68-1.74,1.64-1.6.82,1.53-.22,5,1.44,1.89-.77-4.17,0-7.66,4.41-7.59-1.74,1.77-4.54,4.85-4.31,7.25,1.26-.72,1.61-4.1,4.36-4.58-.06.4-5.28,7.19-4.4,7,4.46-2.28,6.91-9.34,12-10.82,2.24,1-14.39,13-5,8.5.32.54,3.07-2.95,3.13-2.85-.41,1.19-.3,2-1.39,1.75-1.14,3.4,2.51-1.09,1.47,2.31,1,1.49,3.61-3.86,4-4,3.78-.62.54,3.87,2,4.65.59-1.24,1.15-.94,2-.9-.35.67-1,2.25,0,2.21-.41,3.14,8.54-7.16,8.54-6.52-.17.31-4.33,7.29-4.29,7.25-.29,3,6.09-5.81,6.23-5.33-.38,1.53-2.77,7.44-3.37,9,0,1.61,8-8.13,7.94-7.56-8.2,13.2,0,8.6,2.53.79.77.27,1.44,10.41,1.67,11,1.26,1.24,1-11.48,1.38-11.23,2.09-1.29,3.53,11.94,5.15,8.13-.21-.75-.59-5.68-.31-5.85,4.87,10.31,5.33,7.23,3.86-.63,1.8,9.31,4.54,11.91,2.74,1.18,3.07,2.94,2.81,8.08,4.84,10,1.28-.51-2.72-6.27.06-5.68.32-1-1.51-1.88-1.4-2.53,2-1.31,2.55,6.22,3.22,6.62,1.69,1.24-2-7.07-1.53-7,1.58.7,2.38,4,2.17,5.54.68,1,2.57.29,2-.77-2.8-5.06-2.45-9.29,1.83-2.24,4.1,1.07-3.32-6.1-2.82-6.44.41.36,4,4.14,4,4,2.23-.22-5.09-5.91-4.53-5.9,1,.27,5,2.52,4.63,1.13-.55-.33-7.34-4.35-6.81-4.06,6,2.51,5.5.78.82-.29.87-.16,6.73,1.1,5.77-.2-1.47-2.32-8.16-.42-9.19-.52,2-1.66,6.95-4.71,6.09-6.63,0-.73-7.06,3.31-6.62,2.9.57-.62,4.16-3,3.74-3.5-9.57.63-7.33,4.35-5.19-4.61-4.77,5-3.75,4.63-5.59-1.18-.47.11-.43,0-.45.09-.2.61-2.57,8-2.38,7.42,1-3.59,1.83-8.51-1.19-2.58-.38-8.51-1.13-.58-2.56-5.19,1.53-2.92-.43-1.09-1.19-1.83-1,0-1.22,6-2.46,7-2.25-.25-1.1-6.36-3.21-4.22-.18-1.06.59-4-1-2.85-.77,3.26-.7-6.59-2.66-4.08-.83,12-5-3.47-2.67,11.58,10.19,9.24,8.82,7.32,20.41,4.85-9.78,5.16,10.16.86,9.85,5.89-1.23.35-2.26,1-3.19.55-.06.7-1.94,2.1-2.86,2.31-.47-.57-1.19-.29-2.08-.07-.24-.81-.67,1.1-.72.91-.51-3.72-4.55-2.1-7-1.57-3.35.43-3.13-5.78-7.08-4.34-2.67.27.7-3.7-4,1,2.25-3-1.32-3.95-2.68-4.64-3.24-2-6.93,0-9.07,1.42.11-1.77.92-.89,1.65-.76,2.92-.82.69-2.45-.4-2.48-6.76,2.45-13.35-2.15-19.57,1.58.56-.31,6-3.93,5.91-3.76,1.28,1.13,7.13,1.73,3.83-.35,18.69,2.11,3.21.71,11.63-8.12-.45,3.67-3.51,8.38,1.42,8.71.35-2.39.42-11-1.47-12.74-.79-.37.06,2.21-.21,1.94-3.75,4-4.67,1.81-6.73-1.47-.55-.13.38,1.44.19,1.47-.16.24-2.59-2-2.43-1.89-.09-.39-.27-3-.5-2.8Zm2.88,12-2.09-7.14c.81,1.62,3.71,5.81,2.09,7.14Zm15.28-2.74c.23-3.44-.05,4.21,0,4.11-.39.59.11-4.18,0-4.11Zm8.87,4.89c-.74-1.12,1.36-2.2.26-3.48,1.22.76.19,2.62-.26,3.48Zm-6,2.89.22-4-.22,4Zm6.32.42,1.37-2.87c-.21.48-.87,2.68-1.37,2.87Zm12.59-.34c1.93-1.52-2,2.66-1.87,2.69S209,224.76,209.06,225Zm-30.89,9.21c.29-.29,3.13-6,3.55-6.09-1.21,1.65-1.37,5.45-3.55,6.09ZM167,231.32l2.53-1.95L167,231.32Zm7-.87,1-.81c-.06.44-.59.71-1,.81Zm3.26.24.25-.1c-.11.08-.2.49-.25.1Zm36.56.38c-.07-.09,0-.1.07-.12l-.07.12Zm-38.15,3.24,1.59-3.31c-.13.11-1.29,3.38-1.59,3.31Zm-6.38-1.11,1.32-1.83-1.32,1.83Zm18.21,3.61,1.78-3.92a16.4,16.4,0,0,1-1.78,3.92Zm-10.41.58.91-.9-.91.9Zm28.62,4-2.59-4.77,2.59,4.77Z" style="fill:#b0a690"/><polygon points="63.35 115.13 61.79 136.73 60.91 136.24 58.3 121.02 57.18 121.93 59.35 152.15 52.88 157.45 51.81 126.17 50.26 124.17 49.21 124.33 47.91 141.78 45.06 121.46 43.38 121.06 48.19 163.64 43.08 166.16 39.29 160.28 39.34 160.34 43.27 156.25 43.13 144.15 41.51 142.37 40.43 143.06 39.24 153.13 38.84 153.21 38.36 152.5 36.52 119.79 35.71 120.31 34.95 137.95 34.99 137.95 34.46 142.22 34.25 142.46 34.06 142.43 30.98 122.27 30.05 121.97 28.54 130.59 25.55 117.56 25.12 117.41 24.02 118.43 25.51 134.82 28.33 137.9 29.18 144.49 34.1 149.27 35.5 164.43 36.89 166.46 36.93 166.39 44.41 201.16 36.53 167.69 35.5 166.78 34.53 167.41 33.63 180.14 33.44 180.35 30.96 178.39 29.37 166.45 28.34 165.37 26.46 169.63 27.55 180.38 34.54 187.7 34.75 191.2 24.66 182.08 23.05 163.78 26.48 157.94 25.38 142.82 24.63 142.45 23.55 143.72 21.76 157.28 20.53 126.86 19.52 126.34 18.29 127.4 17.98 136.29 17.23 135.99 14.28 125 13.11 126.12 13.13 140.16 17.82 143.82 18.27 166.13 17.49 165.1 15.65 144.58 15.16 144.59 15.96 170.11 19.28 173.08 19.34 179.52 14.25 174.5 12.31 148.45 11.33 147.32 9.82 148.59 9.1 151.77 9.15 151.78 9.08 168.92 8.59 168.42 7.39 138.22 5.94 138.28 4.73 155.15 3.16 135.7 1.78 133.84 0 135.77 11.29 180.27 41.67 206.36 46.15 235.99 49.59 236.27 50.25 235.47 50.76 235.83 51.33 235.45 52.97 208.62 52.97 208.63 52.98 208.6 52.98 208.61 53.88 207.13 53.87 207.14 53.93 207.06 53.93 207.06 65.74 197.47 65.45 197.65 70.11 194.16 70.08 194.18 70.36 193.99 70.27 194.06 75.14 190.31 74.85 190.49 93.02 168.07 94.29 158.88 94.27 159.13 94.21 157.46 94.23 157.55 93.99 156.39 92.13 156.26 90.42 159.46 90.43 159.43 88.73 166.02 88.45 165.97 88.76 162.41 88.75 162.56 93.45 152.01 93.44 152.02 95.44 150.21 95.39 150.27 95.47 150.17 95.45 150.19 98.84 139.41 98.83 139.56 99.05 137.47 99.04 137.62 99.12 136.72 99.12 136.74 99.18 135.66 99.17 135.73 99.19 135.58 99.18 135.61 99.3 128.11 99.3 128.12 98.62 125.26 97.21 125.25 95.67 131.97 95.7 131.6 95.53 133.3 95.56 132.94 95.23 142.18 95.23 142.17 95.22 142.27 95.22 142.24 94.39 145.95 94.42 145.89 94.4 145.94 94.44 145.87 93.98 146.64 94.11 146.48 93.66 147.01 93.68 146.99 91.6 147.4 90.6 134.4 90.58 134.55 90.74 131.1 90.73 131.13 90.63 121.66 88.62 119.83 87.81 120.96 87.81 120.95 87.46 122.12 87.58 121.68 87.48 130.13 87.48 130.08 87.33 144.15 87.34 144.1 87.53 149.65 87.52 149.5 87.81 159.64 87.23 160.19 86.75 159.95 86.75 159.96 86.11 152.02 86.15 152.1 85.96 151.65 85.97 151.67 85.68 151.13 85.32 151.54 85.38 151.43 84.9 152.39 84.96 152.28 82.16 175.53 86 147.23 85.99 147.26 86 130.05 86.03 130.19 85.15 129.26 85.16 129.27 85.08 129.22 82.54 148.31 81.41 137.54 80.35 137.32 78.73 155.67 78.75 155.64 77.66 156.41 77.14 155.66 77.14 155.67 76.95 155.08 76.95 155.08 76.95 155.07 76.95 155.07 76.77 150.6 76.77 150.63 75.98 147.2 75.12 147.46 74.71 149.12 74.71 149.09 74.71 149.14 74.71 149.14 76.97 179.5 74.94 180 74.28 176.51 74.64 175.76 74.63 175.79 74.92 175.31 74.92 175.31 74.91 165.39 74.91 165.4 73.78 164.44 72.64 173.24 72.17 173.44 72.14 173.63 71.31 172.38 71.1 164.31 71.14 164.44 71.07 164.23 69.75 163.87 71.84 183.1 64.51 187.32 67.58 162.7 67 161.57 67.04 161.74 66.93 161.33 66.93 161.34 66.96 161.45 66.92 161.34 65.49 161.66 65.64 161.56 64.28 165.96 64.31 165.58 63.88 175.13 62.42 176.42 60.76 174.07 60.77 174.07 60.7 173.63 60.7 173.63 60.7 173.63 60.7 173.63 60.7 173.61 60.7 173.63 60.05 169.24 58.64 168.36 58.03 177.65 59.4 180.85 60.83 181.01 61.07 184.14 61.12 184.14 61.16 189.74 55.21 192.87 54.88 192.45 54.88 192.46 54.59 188.79 54.58 188.85 54.87 187.77 54.86 187.79 56.13 173.4 55.69 173.16 55.03 175.27 55.04 175.17 54.72 178.14 54.77 177.65 54.65 178.83 54.69 178.34 54.43 181.81 54.43 181.79 53.48 183.57 52.03 182.59 52.03 182.59 52.06 169.4 51.48 169.4 50.47 185.36 52.25 187.34 51.72 196.93 47.91 200.1 47.64 171.21 72.89 148.37 72.88 148.41 73.32 147.3 73.32 147.31 73.47 146.07 73.31 146.43 79.42 128.48 78.94 126.15 77.71 125.02 75.44 133.17 72.86 133.03 71.95 120.86 70.14 121.65 69.92 137.98 69.88 138.02 69.33 133.64 68.59 132.97 67.39 134.53 67.97 142.11 68.89 142.72 68.61 147.87 65.04 150.03 65.33 135.29 67.66 133.47 68.8 118.88 67.97 118.28 66.8 119.01 65.86 127.58 64.58 128.62 63.35 115.13 63.35 115.13 63.35 115.13 63.35 115.13" style="fill:#c6b6c7"/><path d="M961.24,340.26A25.72,25.72,0,0,0,943,304.09l-7.17-1.43L866.52,290c-.54-.1-1.09-.18-1.63-.25l-62.32-7.31a24.7,24.7,0,0,0-3-.18l-191.45-.15H501.45a25.7,25.7,0,0,0-16.46,6L429.81,334a25.73,25.73,0,0,0-5.13,33.76l21.78,33.61a25.71,25.71,0,0,0,6.78,7.05l8.58,6a25.74,25.74,0,0,0,14.31,4.68L535,420.29A25.73,25.73,0,0,0,546.2,418l89.42-41a25.75,25.75,0,0,1,14.43-2.08L754.35,390a25.06,25.06,0,0,0,4.33.26l123.94-3a25.57,25.57,0,0,1,8.59,1.26L929.39,401c18.88,6.15,47.19-9.26,43-28.67l-.14-16.63c-1.2-5.52-3.62-16.82-1.22-21.93Z" style="fill:#c6cdc7"/><path d="M454.47,261.43l-2.3,22.23,4.58,3.09h0l0,.07h0l.26,3.45h0l-1.6.34.44,12.62-.05-.09,4.55,5.3-4.83.23-.69-.94.09.16-.33-.53,0,.06L453.49,303l-7-.62h0l-.6-10-1.89.09-1.56,5.45-.67-.38-2.37-15.41-2.16,2.94.61,6.25-.5,0h0l-3.63-.53-.64,5.69,3.27,1,1.44,6,5.05,1.76.84,3.06,6.24,1.37,1.68,3.74-.06-.1,9.06,1.68,1.47,8.21-3.42-1.35.2-3.43-2.1-2.24L454,317.6l-.12,12.22,5.28.57,2.43,10.17v-.13l.2,1.49-3.09,0-1.1-5.38-1.51-.16-1.32,3.59-.91-.05-.51-7-1.6-1-1,12.12,6.69,4.53h0l3.09,2.19-.14,5.55h-7.1l-.11-.55h0l.1-4.54L450,348.28l-1.8,4.07-2.2-.5-.57-16.71,2-.69.79-2.69v.07L449.33,320l-2.53-1.81-1.41,1.27.11,8.38h-1l-.38-3.63-1-.79-2.34,1.46.44,8.55-1.42-.67-1.56-17.94-2.95-.51-.49,4.52-.87.39L433.18,307v0l0-.31h0l0-.59-1.62-1-2.15,1.45-.63,15.39-3.62-.22L423,316.52l0,.79,0-2.28,0,.47,0-2.15.05.8.28-5.15-.12.77.67-3.87,5.61-2.89-.14-7.8,0,.09-2-2.26-1.32,5.78-3-.15.19-2.95-1.59-1.34-2.8,1.35.43,10-1.36,1,.08,0-3.75-.26L413.18,295l-2.58,17.59h0l.17.28v0l.94,1.21,0-.06,5.49,1.6.27,4.08,0-.47.37,2.3v-.18l5,4.81,0-.13.1.52v-.12l.07.95,0-.63.07.88,0-.58.57,2.71,8.6-3.72h0l.51-.19,1.33,1.57v0l1.86,12.76,3.55-.34,1.39,19h4.35l-.05,0,16.79,4.79,1.07,9.57-1,.78.38,1.84,8.34-3.2-1.35-1.5-1,.11,3.64-14.9,37-17.83h0l.22-.11-.21.1.83-.37-.23.1,3.64-6.28,0,.31.13-.74,0,.31L519,328h0l.13-.11-.06.05,1.31-3.95,0,.15L521,321h0v0h0l.92-3.79-.1.28,1.35-3.64,6.6-1.64h0l.2-.09h0l.65-.67-.08.12,1.52-11.88-1-1-1.44.54-1,6h0l-2.61-.46.18.2-.92-2.34.08.29-.19-14.4,0,.31,0-2.29v.2L525,286v.18l-.06-.81,0,.31,0-.61v.15l0-.54v.08l-1-2.15-2-.14-1.33,7-1.92,0L518,271.64l-2.91-.55-.27.31h0l-1,17.38-1.08-4.23-2.72-.1.27,9.24,9.78,5h0l1.24,5.49H516.8l-.55-4.61-1.59-1.24L512.59,300l-.6,9.16,5.92,2.24-2.63,13.72-3.81,2-1.9-13.3-1.58-.78-1.94,4-1.5-.09.72-18.79-.22-.13.05,0-.07,0h0l-2.46-.45,6.34,36.31-11.71,4.24.06-.08-.05.08h0v0l0,0-2.62,3.2,0-10.73,4,0,.36-7.35-1.56-1.44-2.29,3.37-.68-.42L494,312.45l-1.52-.85-2.85,23.92-1.1.87-.71-6.64-2.65.4-.4,9.49,0-.1,1.91,2.5,2.59-.25.68,4.68h0l-3.43,1.13h0l-7.9,1.6h0l-.1-.24h0l-1.32-17.07-2.34,1.21L472.79,349l-7.29,3.41.85-7.78,4-2.56-1-9.81-1.86,1.08-.32,5.67h-.89l0-9,6-2.54-.07,0,.11-.09-.05,0,.2-10.49-2.34,0-.56,5.95-1.14.18,1.58-9.23,6.46-3-.09.07,6.33-4.19h0l11.74-9.33-.05,0,3.32-9.29h0l1.34-1.12h0l2.74-1h0l4.7-2,.5-3.1v0l-.14-8.94-2,.11-1.11,6.65-2.13,0-.15-10.93-3.41.65-.9,12.92-3.75.31-.76,10.74-3.22,1.35-1-10-1.44.19L485.34,275l-2.28,13.37,1.67.94.26,4.24-3.17,2.25-.19,4.81-2.17-.27h0l-.57-14.54-.59-.23-3.72,20.67-5.68.51-.37-3.67,4.5-1.39-.14-9.82.05.06-1.42-.62-2.13,5,.07,0-1.37-.29.88-8.26.24-.07h0l3-1.35-.08-9.79-1.65-.86-1.41,7-3.11,1-1,15.3-2.21,1-2.16-2.12.87-5.64h0l-.37-26.41-1.24.34-1,14.22-2.2.31L456,261.93l-1.51-.5Zm46.15,80.88-.09.08.09-.08Z" style="fill:#a691c7"/><polygon points="929.9 360.03 955.59 359.14 955.59 371.18 964.88 376.62 946.08 379.1 923.62 378.86 931.05 369.05 929.9 360.03" style="fill:#c9ac68"/><path d="M943,320.47a1.74,1.74,0,0,0-1.52,1l1.78,7.31c1.07.59,3,5.35,3.49,6.41-.64,10-.14,10.78-4.85,20l-6.8-27.82a1.58,1.58,0,0,0-2.48.15l3.09,21.12-.13,0-8.6-21.14a1.2,1.2,0,0,0-1.69.26l.84,5.88a2.26,2.26,0,0,0-3,0l-.31,1.51,4.33,20.82,2.5,2.82c-13.13-1.54-12.19-.4-23.83-7.36l-3.7-1.19-.28-.18L898,345c-1-.44-2.15-.68-2.89.22.08.39-.13,1.23.15,1.56l11.16,9.68,21,6.19c3.7-.27,15.09,1.09,18.11-1.7a12,12,0,0,0,4.81-.07h0l0,.12c.62.66,1.67,0,1.89-.76,0-1.84-1.08-2.45-2.49-3.32l-.68-1.43,1.35-24.39c-.23-1.15-2.62-3.3-3.41-4.09-.85-2.4-.49-6.31-4-6.52ZM936.91,358l.24-2a3.85,3.85,0,0,0,1.39,1.52l-1.63.51Z" style="fill:#fec77c"/><path d="M931.61,359.74l-1.85-1.07-28.14-16.21L896,325.3l8.93-7.13-.41-1.28h2.24l1,1.67L899.25,326l4.82,15.58L931.61,358l-3.67-11-10.2-7.27-4-13.64c3.34-3.85,9.72-11.86,12.72-16l-2.89-2.73h2.48l3.06,1c-1,3.2-10.35,14.85-12.44,17.67,5.1,16.52,4.75,13.92,15.7,26.63-1.94-6.73-6.33-20.1-8.8-26.63a125.66,125.66,0,0,0,10.23-11.3l5.71-3.38v-2.21l1.84.39v2.08l-5.71,3.25-9.38,10.52,10.6,28.18-2,6.11" style="fill:#fec77c"/><path d="M927.53,360.39,909,350.78l-10.11-9.21-1.63-4.82,3.64-5.52c1.35-.85,6.34-4.38,7.89-4.58l.61,1.4a95.43,95.43,0,0,0-10.12,10.39s1.17,2.89,2.08,3.13,9.88,9.21,9.88,9.21l9.79,5.16c-2.29-3.1-9.44-13.22-12.44-15.42l-.41-4,1.22-2.92,2-1.11L910,331.29h2.39v1.82l-2,1.56-.61,2.34.41,3.12c3.56,3.81,15.5,15.73,19.38,19.61-2.56-3.52-7.83-11.67-10.89-14.94-.45-1.49,3.47-8.17,3.34-8.05a42.13,42.13,0,0,1-1-11l1.63.77-.41,4.14.92,2.95.1,3.68c-.77,1.16-1.89,6.14-2.24,7.53l2.62,2.6,2.8,5L929.9,357v3.43Z" style="fill:#fec77c"/><path d="M946.24,358.51,930.57,345.1,923.16,333l-.26-6,5.15-6.37c1.5-.87,7.41-4.71,9.09-4.85l.22,1.76a135.65,135.65,0,0,0-12.94,11.7s.35,3.63,1.18,4,7.19,12.11,7.19,12.11L941,352.5c-1.36-3.85-5.56-16.8-8-19.91l.73-4.94,2-3.44,2.33-1.15-1.09-1.56,2.37.23-.51,2.21-2.4,1.71-1.27,2.78-.47,3.83c2.44,4.95,10.91,20.56,13.67,25.65-1.52-4.45-4.44-14.85-6.58-19.17-.08-1.84,5.78-9.64,5.57-9.49a64.2,64.2,0,0,1,2.08-13.49l1.4,1.08-1.57,5,.08,3.68-.93,4.48c-1.09,1.34-3.6,7.3-4.33,8.95l1.86,3.4,1.38,6.32,2.16,5.88-1,4.18Z" style="fill:#fec77c"/><path d="M947.07,359.84l-1-1.34L931,338.06l1.58-19.52,8.85-7.11.13-1.46,1.63.2.18,1.95-8.63,7.48-1.66,17.69,14.56,20.59,1-12.46-5-9L945.27,321c3.76-4,11.05-12.34,14.55-16.58l-1.2-3.28,1.81.22,1.87,1.42c-1.66,3.31-12.35,15.45-14.9,18.48l-1.2,15.81L950,352.14c.81-7.53,2.06-22.73,2.44-30.27,3-2.74,8.58-8.55,11.18-11.63l5.27-3.23.73-2.45,1.21.59-.69,2.31-5.23,3.09-10.31,10.83-1.64,32.17-3.5,6.58" style="fill:#fec77c"/><path d="M938.74,361.41l.16,5.44-4.74,6.22-8.41,2.54L916,376,915,374.5l1.17-1.12c1.18.4,3.77,1.31,5,.8a36.93,36.93,0,0,0,9.91-1.18c1.77-1.18,4.57-4.62,5.77-6.38.17-1.07.5-3.42.67-4.51l1.35-.84" style="fill:#fec77c"/><path d="M946.27,361.11l5.89,5.36,2.73,5.66-2.73.95h-4.87c-1.59-1.77-4.12-4.37-5.89-6l1.06-.87c.35.52,1.16,1.84,1.49,2.39l4.2,3.48a3.62,3.62,0,0,0,2.13-.7c.72-.15,2-.75,2.65-.9-.21-1-1.88-1.74-2.26-2.65-1.16-2.52-4.53-5-6.72-6.58l2.7-.88Z" style="fill:#fec77c"/><path d="M931,361.66l1.65,3.25-2.75,3.71A126.18,126.18,0,0,1,915,368c-.41-.6-1.5-2.4-2.23-2.64l.54-.41,1.15.18c-.14,1.05.89,2,1.69,2.45,4.42.1,9.49,1.39,13.79-.22l.58-1.59a3.23,3.23,0,0,0,1.13-1.8,4.67,4.67,0,0,1-1.71-2Z" style="fill:#fec77c"/><path d="M926.09,360.39c-9.41,6.85-9.77,5.93-20.67,8.23l-14.73-3.48-.88.47v-.47l1-.8c.59.38,5,1.07,5.79,1.23a25.28,25.28,0,0,0,8,.94l1.48.9,6-.66a29.06,29.06,0,0,0,6.55-2.86A14.13,14.13,0,0,1,926.09,360.39Z" style="fill:#fec77c"/><path d="M922.05,360.13s-16.89,2.84-17.54,2.55-15.89,0-15.89,0l-5.21-2.29V357l-1.24-1,1.24-1.3,4.52-.42c.08.94-2.19,2.74-2.76,3.31,2.79,2.94,9.11,3.31,12.85,3.74,2.17.07,7.29.13,9.25-.88C910.6,361,919,359.19,922.05,360.13Z" style="fill:#fec77c"/><path d="M946.08,358.93s3.9-11.51,4.9-12.34,9.41-10.82,10.17-11.19c8.2-2.75,24-2.31,31.85-4.36,3.52-3.47,9.56-7.86,11.74-12.47h2.92v2.87s-2.55,4.53-2.92,5.09c-1.38,2.78-8.82,6.37-11,7.29,0,0-3.79-.82-4.8,0s-7.16.63-8.76,1.58-7.93,1.5-7.93,1.5L966,335.4c-4.73,3.06-9.25,8.86-12.82,13-.57,1.92-3,5.29-4.29,6.79l6-1.89,6.07-3.39s2.78-5.47,3.54-5.57,2.78-2,3.54-2.35,4.29-1.32,4.29-1.32c4.88.47,13.37,1.28,19.47,2.27,6.35-1.93,12.67-6.92,16.93-11.91l4.55-1.31,2-2.27v-3.2L1017,323l1.91,3.31a23.7,23.7,0,0,1-4.95,6.29c-1.86.38-5.56,1.59-7.08,2.76l-1.26,3.36c-3.3,2.58-9,4.21-12.89,5.6H980.2l-3.38-1.4A82,82,0,0,0,966,346.59c-.85,1.43-3,4.44-4.08,5.78l-5.56,4.14H951l-2.88,2.63c5.23,1.21,15.66-1.79,19.88-5.26,2.36-1.33,1.92-4,5.3-4.72,13.26-1.28,8.14-4.82,17.27-11.69l1.44-.19.51,1.58-3,2.57-2.78,5.16c-1.72,1-5.72,2.9-7.58,3.71l-4.05.75-3.79,1.89-2.53,3.57c-4,1.13-10.25,4.76-14.15,4.2,0,0,.79.15-1.41,0s4.19,3,4.19,3,8.09.75,9.86,0a30.23,30.23,0,0,0,9.6-6.22c.51-1.14,2.7-1.33,3.37-1.7a3.67,3.67,0,0,1,2.31-.88c1.4-.07,3.68-3.09,3.68-3.09l1.51.19-1,2.9a50.78,50.78,0,0,0-7.83,3.53,81.78,81.78,0,0,1-7.34,5.6L966,366c-1.27-.22-7,.2-8.38,0C954.63,365,948.61,360.78,946.08,358.93Z" style="fill:#fec77c"/><path d="M942.82,357l21.73-26.32c3.24-2.54,8.22-5.74,11.86-8.47,6.49-6,1.19-8.06,3.45-11.79a23,23,0,0,0,4.39-3v6.19l-1.75,6.89-4.21,4.31c-2.56,1.53-8.89,5.36-11,7.39-3.06,6.24-8.82,14.36-14.24,18.78l-.13,2.6,20.61-9.69,2.86-6.62s1.88-7.66,2.2-7.87c5.63-6.74,16.26-5.45,13.81-17l2.51-1c0,6.83.61,6.62-2.82,12.79-3,1.54-8.77,4.76-11.62,6.47a3.64,3.64,0,0,0-.63,2.93c-5.65,8.74-21.06,17.18-28.88,22.94l-8.16,2.22V357Z" style="fill:#fec77c"/><path d="M943.55,344.33l11.57-11.75c1.78-1.15,4.51-2.61,6.49-3.85,4.64-3.88-2-3.6,4-6.53,0,.45.15,2.2.19,2.68l-.79,3c-1.95,2.16-6,3.61-8.3,5.32a27.75,27.75,0,0,1-7.53,8.36v1.13l11.44-4.53,1.42-2.91c.53-7.73,10.26-4.23,8.37-11l1.4-.47c0,.62.17,2.47.21,3.12l-1.44,2.47c-1.62.7-4.83,2.19-6.41,3a1.27,1.27,0,0,0-.27,1.28c.24.79-6.79,5.34-6.79,5.34l-9,5.06-4.57,1.09Z" style="fill:#fec77c"/><path d="M949.84,360.32l21.47-6.72,13.09-7.53,3.28-4.47-1.61-5.9c-1-1.05-4.65-5.19-6.08-5.59l-1.08,1.27A72.1,72.1,0,0,1,985.12,343c-1.43,2.48-14.2,8.7-16,10.32l-11.35,3.63c3.31-2.68,13.84-11.53,17.55-13.26l1.81-3.86-.16-3-1.6-1.37,1.8-.94-2.34-.34-.64,1.77,1.39,1.81-.22,2.36-1.5,3c-4.81,3.21-20.64,13.12-25.78,16.35,3.73-3.06,11.73-10.25,15.86-13,1-1.17-.52-8.49-.42-8.33a49.3,49.3,0,0,0,4.87-10.59l-1.86.51-1.06,4.1-1.93,2.75-1.4,3.56c.36,1.29-.32,6.3-.46,7.67-2.3,1-6.26,4.75-7.95,6.61l-5,4L947.52,360Z" style="fill:#fec77c"/><path d="M936.31,357l.31,3.33-2.84,3.72-5.37,1.42-6.3.07-.76-.91.72-.67c.73.25,2.52.87,3.28.57a25.63,25.63,0,0,0,6.41-.56,17.16,17.16,0,0,0,3.5-3.81c.07-.65.2-2.09.26-2.75l.85-.5" style="fill:#fec77c"/><path d="M922.34,355.13l-5.09,6.46-6.69,3.72-2.29-2.21-1.8-4.35c1.79-1.78,4.37-4.61,6-6.6l1.57.75c-.59.43-2.08,1.45-2.71,1.86l-3.17,4.54.39.81a11.87,11.87,0,0,1,2.61,2.24c.3.07.75.61.94.85.54.06,1.54-1.46,1.73-1.77l1-.85c2.69-1.38,5-4.93,6.46-7.49l2.19,2.21Z" style="fill:#fec77c"/><path d="M953.27,360.15l23.9.68,17.16-2.6,6.25-2.91,3-5.66c-.13-1.21-.13-5.89-1.11-6.77l-1.92.79a61,61,0,0,1-3.29,12c-2.9,1.69-18.95,3.29-21.82,4.16l-12.7-.29,18.61-5.06,6.79-1.19,4.51-2.84,2.14-2.7-.37-1.69,2.28-.27-1.79-1-1.9,1.36-.14,2c-1,1.4-4,3.37-5.54,4.16-6.64,1.35-28,5.18-35,6.45l16.47-4.75c1.6-.83,7.88-.87,9.38-3.85,1.75-2.2,3.8-5.38,3.8-5.38a95.25,95.25,0,0,0,12.27-7.8l-2-.11a28.53,28.53,0,0,1-7.78,5.08l-3.92,2.7c-.72,1.3-5.09,5.47-6.19,6.58-2.9.19-9.22,2.31-12,3.36l-7.38,1.95-3.59,2.56Z" style="fill:#fec77c"/><path d="M951.82,355.65s-6.3-11.9-6.28-12.9-2.18-12.41-2-12.93c3.46-4.52,13.7-7.17,17.41-10.91-.19-2-.33-7.52-.38-9.58l-1.54-4.9,1.9-.62c2,1.86,3.29,5.34,4.21,8.28,1.13,2.89-.49,7.16-1.56,9.33,0,0-3.1,0-3.13,1s-4.18,2.12-4.5,3.36-4,3.12-4,3.12l-5.26-.12c-.73,4.63.91,10.79,1.65,15.23a29.67,29.67,0,0,1,2.42,7.45l2.43-3.08,1.35-4.55s-2.4-5.85-2-6.1.3-2.49.5-3a15.33,15.33,0,0,1,1.79-2.17c3.62-.59,9.81-1.6,14.43-1.92l2.06-3.65a38.48,38.48,0,0,0-.17-11.39l2-2.22-.43-2.61-2.45-3.08.2-1.56,3.79,2.78a22.28,22.28,0,0,1,1.61,7.1L974,318.07l-.6,2.1,1.76,3.5c-.08,2.86-2.54,5.88-4.1,8.11l-8.18,2.65-3.28-.64a25.31,25.31,0,0,0-4.26,5.79c.53,1.5,1.41,4.86,1.78,6.42l-.44,5.16-3.5,1.13.14,3.15a19.92,19.92,0,0,0,4.88-1.58c1.54-.93,2.59-4,3.09-4.19s.72-2.73.94-3.49c.56-1.59-1.83-4.35-.16-5.66,7.86-4.45,1.54-5.88,2.27-14.91l.79-.48,1.54,1.41v3.12l2.16,5.56a35.33,35.33,0,0,1-2.1,5.16L964.65,342l-1,2.62,1.1,4c-.79.57-3.19,5.51-3.55,5.94l-2.45,1.09s.64,0-.92.29,5,2,5,2,5.85-1,6.43-2.08,1.71-3.56,1.31-4.33.7-2.48.16-3.68.75-1.85.9-2.35,0-1,.83-1.34,0-3.74,0-3.74l1.14-.14,1.56,3c-.57.35-2.34,4.44-2.39,5.06-.08,1.39.08,2.58-.12,4.26-.14.6-.35,2.68-.35,2.68l-2.12,3c-1,.06-4.45,1.68-5.46,1.77C961.78,359.62,954.62,356.8,951.82,355.65Z" style="fill:#fec77c"/><polygon points="502.55 375.85 525.12 264.01 521.77 261.82 498.65 376.71 502.55 375.85" style="fill:#4795c5"/><polygon points="525.43 335.75 498.38 375.25 501.82 377.28 529.28 336.8 525.43 335.75 525.43 335.75" style="fill:#4795c5"/><polygon points="548.23 356.23 527.22 355.79 511.24 362.14 513.44 365.47 550.44 359.56 548.23 356.23 548.23 356.23" style="fill:#4795c5"/><polygon points="522.72 349.27 518.61 341.89 516.16 340.49 514.75 342.94 519.25 351.25 521.98 351.99 522.72 349.27 522.72 349.27" style="fill:#4795c5"/><polygon points="500.99 362.09 492.66 347.73 490.21 290.45 486.36 291.49 498.95 365.53 500.99 362.09 500.99 362.09" style="fill:#4795c5"/><polygon points="490.71 342.54 467.94 320.66 465.09 323.46 488.68 345.98 490.71 342.54 490.71 342.54" style="fill:#4795c5"/><polygon points="480.83 331.82 480.24 317.81 476.38 316.76 476.97 332.86 480.83 331.82" style="fill:#4795c5"/><polygon points="496.13 320.31 489.4 327.93 491.39 331.4 499.56 322.34 496.13 320.31 496.13 320.31" style="fill:#4795c5"/><polygon points="499.25 292.6 495.25 292.62 490.8 311.94 493.6 314.78 499.25 292.6 499.25 292.6" style="fill:#4795c5"/><polygon points="532.99 305.59 525.69 313.75 516.5 318.39 504.94 331.23 508.38 333.26 536.43 307.62 532.99 305.59 532.99 305.59" style="fill:#4795c5"/><polygon points="515.84 336.36 512.42 334.3 500.43 349.69 503.86 351.75 515.84 336.36 515.84 336.36" style="fill:#4795c5"/><polygon points="539.84 261.23 535.84 261.25 528.45 283.84 514.17 299.57 518.02 300.62 533.88 282.66 539.84 261.23 539.84 261.23" style="fill:#4795c5"/><polygon points="514.02 314.92 509.59 296.83 505.59 296.85 510.02 314.94 514.02 314.92" style="fill:#4795c5"/><path d="M899.25,170c6.75,19-9.6,37.13-5.83,56.7,7.11,19.18,13.85,38.49,1.11,57.24-9.88,9.77,14.47,46.23-2.89,36.42-13.16-25,4.14-44.86,2.88-68.83-13.39-35.28-7.13-48.14,4.73-81.53Z" style="fill:#7e8959"/><path d="M871.61,165.67c12.31,15.88,11.78,27.43,8.69,46.21-1.7,13.77,5.5,27.44,2.09,40.74-5.32,8-4.43,15.52-2.85,24.16-.38,11.71-6.76,23.13-1.48,34.6,0,5,6.8,10.81,4.22,14.62-1.64,1.79-2.83.74-3.4-.81-12.23-8.1-5.67-66.31-1.1-80.2-.93-19.57-2.91-38.75-.66-58.33.27-7.51-8.09-13.95-5.51-21Z" style="fill:#7e8959"/><path d="M860.66,172.65a168.54,168.54,0,0,1,7.23,61.55c-.27,9.23-7.1,17.05-5.7,26.46,5.38,15.71,6.08,27.79,3.83,44.17-.64,5.69,8.32,14.55,2.22,18.14-13.53-6.71-6.48-25.1-5.79-37,1.35-8.89-4.52-16.27-5.72-24.75-1.27-12.49,8.47-23,7.13-35.71,1.56-17.35-5.39-37.19-3.2-52.91Z" style="fill:#7e8959"/><path d="M898.86,169.57c-.91,12.35-8.51,24.57-11.11,36.85-3.24,17.72,5.87,33.52,8.71,50.35-2.53,19.65-15.57,38.71-6.46,58.67,1,1.81,3,7.32,5.58,5.55,1.3,3-5,2.13-5.93.25-11.71-20.59,1.78-42.44,1.57-63.77-1-14.91-7.44-29-5.68-44.16.67-15.2,6.66-30.45,13.32-43.74Z" style="fill:#7e8959"/><path d="M871.08,165.43c-1,7.28,5.3,13.06,6,20.42-.59,17.09-1.14,34.2,2.23,51.25,1.51,10.73-4.76,19.77-4.59,30.31,1.12,18.72-4.93,42.74,5.14,59.23-12.18-7.22-9.53-57-5.54-77.87.65-20.25.13-40.64.63-60.88-.75-7.66-7-14.85-3.83-22.46Z" style="fill:#7e8959"/><path d="M859.89,172.54c.23,18.58,5.3,37.75,3.81,56.8.3,9.89-6.53,18.2-7.11,27.89-.28,4.58,1.19,9,2.72,13.25,9.67,16-6.5,37,7,51.35,2,2.06-7.16-.41-7.57-10-1.45-10.58,1.28-21.45-.06-32-1.13-8.17-4.41-16.17-3.24-24.5,11.55-29.44,2.08-54,4.48-82.75Z" style="fill:#7e8959"/><path d="M559.86,345.66c-.09.25-.11.53-.33.7Z" style="fill:#71535c"/><path d="M555.09,364s-.1-.3-.11-.31l.09-.4Z" style="fill:#71535c"/><path d="M554.77,348.44l-.13-.05a27.92,27.92,0,0,1-2.37-3.85Z" style="fill:#71535c"/><path d="M552.27,344.54l-3.81-6C548.88,339.26,552.24,343.83,552.27,344.54Z" style="fill:#71535c"/><polygon points="568.6 354.5 568.08 354.47 568.25 354.37 568.6 354.5" style="fill:#71535c"/><polygon points="556.18 347.44 556.03 347.9 556.06 347.14 556.18 347.44" style="fill:#71535c"/><path d="M554.77,348.44l-1.06-.38c-.24-.59-1.21-3-1.44-3.52Z" style="fill:#71535c"/><path d="M554,346.67a23.11,23.11,0,0,1-3.37-6.11A25.29,25.29,0,0,1,554,346.67Z" style="fill:#71535c"/><polygon points="550.43 357.19 550.43 357.2 550.36 357.26 550.43 357.19" style="fill:#71535c"/><path d="M550.18,358.77l0,.25-.45.42Z" style="fill:#71535c"/><path d="M550.17,358.79l0,.23,0-.25Zm4.9,4.51s0,.69,0,.71Zm4.46-16.94c.22-.17.24-.45.33-.7Zm0,0c.22-.17.24-.45.33-.7Z" style="fill:#71535c"/><path d="M577.43,357.66l-8.83-3.16-.52,0,.17-.1c.38.33,29.58,1.63,30,1.76l-27.09-3.43.85-.48,28,3-27.35-3.38,10.75-6.17,21-5-19.63,4.21,11.31-6.5c-2.85,1.35-14.92,8.14-18,7.94L595,336.53l-22.48,11-2,.42,24.64-11.87-28.62,11.23L568,346l24.74-10.88-23.85,10.07,10.21-9.36,13.33-9.37-12,8.12L592,323.93c-7.44,7.13-23.8,19.53-32.61,24.9l.18-.8L583,322l-22.92,23.79.3-1.28,13.24-28.3c-.27.56-12.75,26.2-13,26.74,2.85-9.91,7.74-27.62,8.45-30.22l-5.86,19.43L567,315.8c-1.6,5-6.35,27.92-8.88,32-.67-3.39,7.52-27.06,8.53-30.73L559,339.24l2.93-27.84-3.67,30-1,2.83.41-31.61-1.17,24.6-1.37-25.54c.23,4.43,1.33,32.11,1,35.77l-.15.46c.67-.8-16.53-39-16.51-39.71l15.26,38.29-2.27-3.26,1.51,3.45-2.16-3.15c.11.73,2.5,4.25,2.92,4.92-3.65-.39-23.26-12.27-26.76-14.13l19,11.38-20.38-7.28,22.66,10.47-23.11-5.74L549.77,350l-7.66.23,4.75.52-4.6,0,3.85.48-19.94,2.49L544,352.43c-3.16,1.51-22.43,2.21-26.19,2.53l19.25-.89-24.42,5.75c4.22-.72,31.53-7,35.2-6.25l-9.27,3.66-19.36,4.36L537,357.86l-10.82,4.27,6.57-1.94L517,367.26c4.09-1.49,30.1-11.76,33.74-12.37l-.14.1h0l-21.89,15.09,11.83-7.1-17,12.79c1.91-1.32,23.06-16.91,24.46-17.29l-21.4,19.85c.08-.07,23.74-21.07,23.8-21.14h0c-.06,0-21.83,22.66-21.88,22.7l21.14-20.46.48-.67v0l0,.25c-2.22,4-14.89,16-18.35,19.29l13.59-12.82-15.74,22L549.1,362l.71-.92c.83,3.06-10.75,26.05-12,29.16l10.41-19.62c.37,1.69-6.26,19.19-6.88,21.2l6-15.71-2.6,16.08c.31-6.27,7.43-23.62,9.8-29.56l0,.06-6.19,29.62c.14-.55,6.53-28.45,6.67-29l0,.71v0a263.68,263.68,0,0,1-.23,28.12l.75-9,.32,11.5c.1-4.5.26-21.83.89-26l8.38,22.72-8.1-26.09.13-1.51,10,26.81-6.61-22.47,7.09,22.6c-1.95-6.75-5.53-20.86-7.15-27.75l11.82,29.6L559.54,358l20.58,31.79-17.52-29,22.59,24.43-16.59-19.7c4.23,4.12,12.15,11.87,16.29,15.91l-20.2-22.74-.93-1,1.71,1,26,15.85-24-15.87,5.85,0,19,7.87-17.76-7.88h.68l20.55,5.68-15.93-5.72,20.4-.15Zm-17.57-12c-.09.25-.11.53-.33.7Z" style="fill:#71535c"/><polygon points="550.65 340.56 552.5 343.22 542.17 319.78 550.65 340.56" style="fill:#71535c"/><path d="M542.26,350.75c-1.68-.85-23.5.2-25.88.19Z" style="fill:#71535c"/><path d="M538.66,350.3l3.45-.1c-11.09-1.2-24.38-2.54-24.65-2.57Z" style="fill:#71535c"/><path d="M551.86,343.52c.13-1.8-11.51-17.55-12.62-19.34C541.57,327.82,549.45,340.25,551.86,343.52Z" style="fill:#71535c"/><path d="M552.27,344.54c-2.4-4.05-12.85-19.07-15.69-23.22l16,24Z" style="fill:#71535c"/><polygon points="568.6 354.5 568.08 354.47 568.25 354.37 568.6 354.5" style="fill:#71535c"/><path d="M554,346.67a23.11,23.11,0,0,1-3.37-6.11A25.29,25.29,0,0,1,554,346.67Z" style="fill:#71535c"/><polygon points="550.43 357.19 550.43 357.2 550.36 357.26 550.43 357.19" style="fill:#71535c"/><path d="M550.18,358.77l0,.25-.45.42Z" style="fill:#71535c"/><path d="M552.27,344.54l-3.81-6C548.88,339.26,552.24,343.83,552.27,344.54Z" style="fill:#71535c"/><path d="M547.8,353.57l-3.07,1.21C545,354.69,547.57,353.39,547.8,353.57Z" style="fill:#71535c"/><path d="M546.86,350.72a44.91,44.91,0,0,1-8.2-.42A41.22,41.22,0,0,1,546.86,350.72Z" style="fill:#71535c"/><path d="M581.17,377.91l-3-3.08C578.8,375.44,580.68,377.24,581.17,377.91Z" style="fill:#71535c"/><polygon points="565.47 358.64 564.69 358.65 563.76 357.6 565.47 358.64" style="fill:#71535c"/><path d="M561.25,340.86a10.44,10.44,0,0,1-.59,2C560.85,342.24,561,341.56,561.25,340.86Z" style="fill:#71535c"/><path d="M559.86,345.66c-.09.25-.11.53-.33.7Z" style="fill:#71535c"/><polygon points="556.18 347.44 556.03 347.9 556.06 347.14 556.18 347.44" style="fill:#71535c"/><path d="M550.74,354.89l-.14.1-.7.14Z" style="fill:#71535c"/><polygon points="549.81 361.05 549.76 361.36 549.11 361.97 549.81 361.05" style="fill:#71535c"/><path d="M546.86,350.72a44.91,44.91,0,0,1-8.2-.42A41.22,41.22,0,0,1,546.86,350.72Z" style="fill:#71535c"/><path d="M696,113c-17.29,67.72,3,146.58-19,208.29,26.69-48.08,11.67-102,14.77-153.68-2.15-15.34,12.82-47.9,4.24-54.61Z" style="fill:#fec77c"/><path d="M685.49,294.24c6.45-.89,28.07-8.46,24.6-15.33-5,6-28,9.73-24.6,15.33Z" style="fill:#fec77c"/><path d="M690.91,277.5c6.63-2.83,29.69-21.91,19.45-26.09-.44,10.46-24,21.35-19.45,26.09Z" style="fill:#fec77c"/><path d="M694,261.44c5.3-5,18-25.78,9.35-29,1.67,8.08-14.92,28.82-9.35,29Z" style="fill:#fec77c"/><path d="M693.36,233c-.45-12.05,18.66-29.11,14.62-35.82-7,5.75-22.88,33.36-14.62,35.82Z" style="fill:#fec77c"/><path d="M690.51,203c-2.91-12.52,19.47-28.52,15.23-35.35-7.86,4-26.29,37.57-15.23,35.35Z" style="fill:#fec77c"/><path d="M691.08,172.49c2.07-9.76,27.89-28.52,17.83-34.62-1.55,9.82-27.72,30.94-17.83,34.62Z" style="fill:#fec77c"/><path d="M693.9,145c3.38-4.12,18-21.51,10.13-23.08C702.81,128.1,688.92,143,693.9,145Z" style="fill:#fec77c"/><path d="M685.69,290.63c-6.22-4.36-1.75-21.64-8-20.66-4.19,4.43,3.89,29.22,8,20.66Z" style="fill:#fec77c"/><path d="M691,269.45c-3.88-3.82-11.28-25.07-15.8-18.26,2.51,4.05,13.37,26.63,15.8,18.26Z" style="fill:#fec77c"/><path d="M692.09,249.93c-10-2.52-8-23.92-14.49-21.93-5.13,7,13.2,32.58,14.49,21.93Z" style="fill:#fec77c"/><path d="M690.09,225.68c-6.64-1.35-13.43-20.37-17.66-14.51-.1,5.15,17.71,23.43,17.66,14.51Z" style="fill:#fec77c"/><path d="M689.18,203.66c-4.8-4.22-6.23-10.39-8.32-16.06-10.05-2.11,7.5,27.32,8.32,16.06Z" style="fill:#fec77c"/><path d="M689.17,174.58c-7.55-2.92-5.95-22.26-12.61-19.76-2.75,5.72,11.22,30.65,12.61,19.76Z" style="fill:#fec77c"/><path d="M690.91,147.55c-7.14-4.11-3-13.27-5-19.46-11-2.76,3.21,34.2,5,19.46Z" style="fill:#fec77c"/><path d="M675.91,313.4c-41.42-25.25-44.54-91.25-41.07-135.6-20.3,10.7,10.26,151,41.07,135.6Z" style="fill:#fec77c"/><path d="M677.12,313.32c-3.31-5.42-4.13-11.56-5.26-17.62-9.27-4.94,1.76,28.63,5.26,17.62Z" style="fill:#fec77c"/><path d="M663.12,305.07c-3-5.76-2.11-12.17-2.6-18.31-9-4.67-1.57,29.39,2.6,18.31Z" style="fill:#fec77c"/><path d="M652.73,287.6c-2.71-5.76,8.14-22.43,1-21.93-3.68,3.23-8.22,27.94-1,21.93Z" style="fill:#fec77c"/><path d="M644.73,268.73c.18-4.9,10.3-18.12,4.21-19.21-2,3.33-11.06,21.87-4.21,19.21Z" style="fill:#fec77c"/><path d="M639.73,251.64c-1-6.58,4.46-11.22,6.26-16.9-5.72-7.23-14.73,25.25-6.26,16.9Z" style="fill:#fec77c"/><path d="M634.25,225.42c2-5.88,6.21-10.6,9.43-15.78-2.41-8.56-18.74,20.81-9.43,15.78Z" style="fill:#fec77c"/><path d="M633.86,207.11c.59-5.23,4.58-8.84,7.18-13-3.62-8.44-16.21,19.44-7.18,13Z" style="fill:#fec77c"/><path d="M633.25,189.47c2-3.08,5.36-5.63,6.6-9.13-1.37-6.92-14.84,12.89-6.6,9.13Z" style="fill:#fec77c"/><path d="M618.75,175.93c-1.26,5.34,9.07,22.47,12.44,14.64-6.6-1.74-7.89-19.45-12.44-14.64Z" style="fill:#fec77c"/><path d="M619.75,199.22c1.86,3.1,9.84,15.86,12.54,9.56-2.93-1.83-11.26-15.9-12.54-9.56Z" style="fill:#fec77c"/><path d="M621.72,218.75c.45,4.56,7.36,18,12.17,12.72-3.46-1.79-10.67-19.9-12.17-12.72Z" style="fill:#fec77c"/><path d="M623.38,245.24c.53,4.41,15.71,13.95,13,5.79-5,.82-11.82-12.72-13-5.79Z" style="fill:#fec77c"/><path d="M630.06,267c1.68,4.75,17.46,6.73,13.07.34-4.46,3.17-13.88-7.07-13.07-.34Z" style="fill:#fec77c"/><path d="M630.68,281.31c3,3.76,17,10.14,17.46,2.86-4.35,1-19.73-9.37-17.46-2.86Z" style="fill:#fec77c"/><path d="M641.32,296.79c2.38,2,14.16,8.42,12.55,1.75-2.88-.58-15.47-8.8-12.55-1.75Z" style="fill:#fec77c"/><path d="M650.82,312.46c3.08,1.38,16.32,4.45,13.67-1.6-3.11.31-18.41-4.67-13.67,1.6Z" style="fill:#fec77c"/><path d="M550.79,228.48l-1.55.65.38,20.57-1.87-2-1.13.56,27.61,49.66-26.18-31.29-1.14,1-.17,1.16-7.39-24-1.54.78,3.41,16.7L535,246.49l-1.53,1.71,2.71,12.48-4.14-11.94-.55-.13L550,283l-6-8.3-.89.3,4.26,11-9.09-13.81-1.5.51,3.34,8.81-9.43-15.07-.76.45,3.89,9.47-9.63-11.48-.79.3,11.76,18.36-13.47-10.91-1.17.51,1.76,7.36,53.61,25.37-19.84-10-3.33,1.4,1.3,3.45,10.29,5.69-2.94.58-14-9-.7.72,55,21.89-26.29-5.81-.33.72,1.22,2.32-.06.09-6.84-4.56L568,314.57l-.11,1-8.72-4.13-.51.56,2.23,2.82-7.9-7.11-1.24.85.18,2.32-4-4.72-.83-.13.54,4.53-4.2-4.64L543,306l1.35,6.61,9.24,4.72-3-.28-.29,2,25.11,2.57,0,.09H567.1l0,1.45,25.63.71.35,1.49,19.28,4.91-5.91,11.28,17-.29,2.75-8.12,6.15-1.92,2.41-4.09,25-6-2.08-3.08L644,321.63l-.07-.27,37.38-21.77-1.23-2.08-2.82.63,3.13-3.55-1.06-1.38-1.73,0-13.53,14.34,6.77-6.38,0-1.22-1.84-.84-31.6,18.51,18.47-12.85-.15-.37,19.53-12.7-.73-1.61-18,7.72,28.19-17.22,0-.86L672.57,283l25.06-12.16-.32-1.28-10.16,3.08L702,259.78l-1.07-.95-23.2,16.84-.58-.19L694.8,247l-1.62-1.13-11.72,22-.75-.24,7.61-23.29-2,.11L683,257.35l-1-5.24-2.51,3.22.14,2.19-3.86,2.89-4.41,18.88-2.44,1.25,6.77-39.68-1.59.31L664.16,278l-.49-.67,3.37-30-.9-.42-2.32,1.1-4.38,33.35-1.28-5.12-3.49,16.9h-.4l3.55-37.89-.62,0-3.38,10,1.66-14.55-.85-.15L653,251.89,650.17,294l0,0-1.37,6.21.54-35.52-.73-.32-2.52,7.93-1.21-22.46-1.3.45-.47,55.11-.17.17-5.74-37.69-1,.29-.41,43.38-.32,0-.55-.51-2.53-32.54-1.07-.48-3.46,37.31-1-.49,1.24-31.15-.75-.36-.93.54-1.08-3-1.61-.39-1.34.87,1.21,4L622,288.67l2.48,2.93-1,.57-.86,2.46,1.5,3.39-1.35,2.2,1.28,3.65-1.48-1.29-.83.12.94,13.36-1.48-7.63-.8-.43-4.33,8.21-.67-.64,5.67-22-1-.47-6.45,11.86-.28-.24L617.05,288,616,288l-3.85,9.11-.54.09,4.65-17.83-1.14-.7-5.26,8.75,6.09-17.57-1.73-1L610,277.45l-.54-7.21,5.61-5.69-.1-4.43-1-.62-1.12.27-1.23,2.3-3.43-17.74-1.59.17-.67,15.28-2.4,0,.22,12.77-.86-1.15-2,.35.3,8.62-1-.25-2,1.13,9.5,18.58L599.34,288l-2.18,1.1,14.36,27.72-.43.39-8.85-12.69L600.7,306l-.64-.19-2.27-8.19-.74.36-.74,2.28-1.07-.11.92-6.19-1.2-.25-2.8,3.59,3-33.89-2.38-.35.57,10.85v-.05h0l-3.08-10.92-1.77.15,2,23.87-.29.16-1.11-.31-3.84-14.71h-.12L584,282.5l1.82-32.59-.94-.24-1.08.54-.15,13.37-.55-23.67-.69-.23-1,.95-.22,5.12-.66-13.44-1.69-1.64-1.23.56L579,268.58l-6.88-26.24-1.54,3.06-.82-5.7-1.83.16,4.06,23.4-2.23-2.09-1.4.08L567.12,264,580,282.14,575.88,281l-.61,1.07,9.37,9.54v-.06h0l-3.58-2.06-1.45,1,23.09,25.71-11.23-7.72L589.93,310,586,298.82,584.28,303l-2.88-6.56-.79.42-.35,3.26-4.78-13.87-1.36.35,1.47,5.92-7-15.06-1.24-.08-1,1.12.6,4.14-.78-.29-2.52-16.17-.91.4-.89,5.46-.51-.27-1.63-19.16-1.19-.84-.77.56-.2,8.14-2.5-19-.9.8-.11,5.76-.09.1L552,229.53l-1.23-1.05Zm1,28.53L550,250.65l1.85,6.36Zm33.54,4.08L584.86,251l.34.1.15,10Zm67.45.91,1.59-9.81.29-.16-1.88,10Zm35.69,8.06,12.23-9.8-1.1,3.49-11.13,6.31Zm-80.79-5.87-.86-3.49,1.18,1.51-.32,2Zm-39.53,15.53-.4-.9.14-.12.26,1Zm35.09,3.46-.9-1.69,1,.68-.09,1Zm-46.61,6.45-5.84-5.41,6.06,5.36-.22.05Zm62,11.19,1.6-6.37-1.6,6.37Zm57.75-4.36,1-1.44,1.15-.26-2.13,1.7Zm-93.15,13.09-4.56-1.95,5.17,1-.4.9-.21.07Z" style="fill:#aa7455"/><polygon points="755.49 239.95 753.48 261.54 752.35 261.06 748.98 245.84 747.53 246.74 750.34 276.97 741.99 282.26 740.6 250.99 738.6 248.98 737.25 249.15 735.57 266.6 731.89 246.27 729.72 245.88 735.93 288.46 729.35 290.98 724.46 285.1 724.52 285.16 729.58 281.06 729.41 268.97 727.32 267.18 725.92 267.88 724.39 277.95 723.87 278.03 723.25 277.32 720.88 244.61 719.83 245.13 718.85 262.77 718.91 262.76 718.22 267.04 717.94 267.28 717.71 267.24 713.74 247.09 712.53 246.79 710.58 255.4 706.72 242.37 706.17 242.23 704.75 243.25 706.67 259.64 710.32 262.71 711.4 269.31 717.75 274.09 719.56 289.25 721.36 291.28 721.4 291.21 731.05 325.98 720.9 292.51 719.56 291.6 718.31 292.22 717.15 304.96 716.9 305.17 713.71 303.21 711.65 291.27 710.32 290.19 707.9 294.45 709.31 305.2 718.32 312.52 718.59 316.01 705.58 306.89 703.5 288.59 707.92 282.75 706.5 267.64 705.54 267.26 704.15 268.53 701.84 282.1 700.25 251.68 698.95 251.16 697.36 252.21 696.96 261.11 695.99 260.81 692.18 249.82 690.68 250.94 690.7 264.98 696.75 268.64 697.34 290.95 696.32 289.92 693.95 269.4 693.32 269.41 694.36 294.93 698.63 297.9 698.72 304.34 692.15 299.32 689.65 273.27 688.38 272.14 686.43 273.41 685.5 276.59 685.57 276.6 685.47 293.74 684.85 293.24 683.29 263.04 681.42 263.1 679.87 279.97 677.83 260.52 676.05 258.66 673.76 260.59 688.32 305.08 727.52 331.18 733.3 360.81 737.74 361.08 738.59 360.29 739.25 360.65 739.99 360.27 742.1 333.44 742.1 333.45 742.12 333.42 742.11 333.43 743.27 331.95 743.26 331.96 743.34 331.88 743.34 331.88 758.57 322.28 758.21 322.47 764.21 318.98 764.18 319 764.54 318.81 764.42 318.88 770.7 315.13 770.33 315.31 793.76 292.89 795.41 283.7 795.38 283.95 795.31 282.28 795.34 282.37 795.02 281.21 792.62 281.08 790.42 284.27 790.43 284.25 788.23 290.84 787.88 290.78 788.27 287.23 788.26 287.38 794.33 276.83 794.32 276.84 796.89 275.03 796.83 275.08 796.94 274.99 796.91 275.01 801.28 264.23 801.26 264.37 801.55 262.29 801.54 262.43 801.64 261.54 801.64 261.56 801.72 260.48 801.71 260.55 801.73 260.4 801.72 260.43 801.87 252.93 801.87 252.94 800.99 250.08 799.18 250.07 797.2 256.79 797.24 256.42 797.01 258.12 797.05 257.76 796.62 266.99 796.62 266.98 796.61 267.09 796.62 267.05 795.54 270.77 795.58 270.71 795.55 270.75 795.6 270.69 795 271.46 795.18 271.29 794.59 271.83 794.62 271.81 791.94 272.22 790.65 259.22 790.63 259.37 790.83 255.91 790.82 255.95 790.69 246.47 788.09 244.65 787.05 245.78 787.05 245.76 786.6 246.94 786.75 246.5 786.63 254.95 786.62 254.9 786.43 268.97 786.44 268.92 786.69 274.47 786.68 274.32 787.05 284.46 786.3 285.01 785.68 284.77 785.68 284.77 784.86 276.84 784.91 276.92 784.66 276.47 784.67 276.49 784.3 275.94 783.84 276.36 783.91 276.25 783.29 277.2 783.37 277.09 779.76 300.34 784.71 272.05 784.71 272.08 784.71 254.87 784.75 255 783.62 254.08 783.63 254.09 783.53 254.04 780.25 273.13 778.79 262.36 777.42 262.14 775.34 280.49 775.36 280.46 773.95 281.22 773.28 280.48 773.29 280.49 773.04 279.9 773.04 279.9 773.04 279.89 773.04 279.89 772.81 275.42 772.8 275.44 771.78 272.02 770.68 272.28 770.15 273.94 770.15 273.9 770.14 273.96 770.15 273.95 773.06 304.32 770.45 304.82 769.6 301.33 770.06 300.58 770.04 300.61 770.41 300.13 770.41 300.13 770.41 290.21 770.41 290.21 768.94 289.26 767.48 298.05 766.88 298.26 766.84 298.45 765.77 297.2 765.49 289.13 765.54 289.26 765.45 289.04 763.74 288.69 766.44 307.92 756.99 312.14 760.95 287.52 760.2 286.38 760.25 286.56 760.11 286.15 760.11 286.15 760.14 286.27 760.1 286.15 758.25 286.48 758.45 286.38 756.68 290.78 756.73 290.4 756.17 299.95 754.29 301.24 752.15 298.88 752.16 298.89 752.07 298.45 752.08 298.45 752.07 298.45 752.07 298.45 752.07 298.43 752.07 298.45 751.23 294.05 749.41 293.18 748.63 302.46 750.39 305.66 752.23 305.83 752.55 308.96 752.62 308.95 752.66 314.55 745 317.69 744.56 317.27 744.57 317.28 744.18 313.61 744.17 313.67 744.56 312.59 744.54 312.61 746.17 298.22 745.6 297.97 744.76 300.08 744.77 299.99 744.36 302.96 744.42 302.47 744.26 303.65 744.32 303.16 743.99 306.63 743.99 306.61 742.76 308.39 740.89 307.4 740.89 307.41 740.92 294.22 740.18 294.22 738.87 310.18 741.17 312.16 740.48 321.74 735.57 324.92 735.22 296.03 767.8 273.19 767.78 273.23 768.36 272.12 768.35 272.13 768.54 270.89 768.34 271.25 776.23 253.3 775.61 250.97 774.01 249.84 771.1 257.99 767.76 257.85 766.59 245.67 764.26 246.47 763.97 262.8 763.91 262.84 763.21 258.45 762.25 257.79 760.71 259.35 761.46 266.93 762.64 267.54 762.28 272.69 757.67 274.85 758.04 260.11 761.05 258.28 762.52 243.7 761.45 243.1 759.94 243.83 758.74 252.4 757.08 253.44 755.5 239.95 755.49 239.95 755.49 239.95 755.49 239.95" style="fill:#c6b6c7"/><path d="M809.45,368.26c1.18-23.46-3.31-44.52-10.4-66.8,1.1-7.78-5.56-42.33-12.54-38.29,11.21,25.38,13.14,53.25,20.59,79.87.55,5.07-4.32,28.9,2.35,25.22Z" style="fill:#7895a4"/><path d="M814.24,263.48c-7.31,11.51.5,24.11-1.36,36.42-1.59,10.53-10.48,21.93-6.66,32.84a1.05,1.05,0,0,0,2-.47c-1.25-11.61,5.58-21.44,7.28-32.59,1.45-11.46-6-24.19.68-34.84.82-1.3-1.14-2.67-2-1.36Z" style="fill:#7895a4"/><path d="M809,339c-7.17-10.18-21.18-12.86-27.54-24.19-2.81-7.12-25.37-22.74-27-13.44,19.45-.24,24.51,20.45,39.21,28.72,4,.33,15.15,13.25,15.31,8.91Z" style="fill:#7895a4"/><path d="M809.15,352.83c.3-10.19,9.37-16.55,12.92-25.53,2.85-8.49,4.31-17.39,10.86-24,10.64-12.9,3.82-36.48.3-48.18-4.14,13.29,7.21,26,1.46,39.29A131.61,131.61,0,0,0,818,330c-2.59,4.27-17.19,23.45-8.83,22.81Z" style="fill:#7895a4"/><path d="M825.9,268.82c-4.1,9.45.72,19.84-2.52,29.57-1.6,4.67-6.72,32.35-3.37,32.07,6.86-19.13,5.74-40.82,8-60.84a1.13,1.13,0,0,0-2.11-.8Z" style="fill:#7895a4"/><path d="M772.19,294.53c12.56,8.63,15.7,21.62,20.93,34.67,5.35,2.4-4-16.68-4.31-20.09-2.59-4.43-13.26-18-16.62-14.58Z" style="fill:#7895a4"/><path d="M758.28,311.61c5.3,8.3,23.68,15.63,30.55,12.36-9.12-5.36-22.46-3.37-28.79-13.85-.9-1.21-2.55.28-1.76,1.49Z" style="fill:#7895a4"/><path d="M810.07,347.83c4.51-9.3,17.67-9.89,22.51-19.52,1.62-5.45,16.36-23.22,12.74-24.85-11.33,10.23-12.87,29.08-28.88,34.85-3.38.41-12.55,11-6.37,9.52Z" style="fill:#7895a4"/><path d="M832.87,327.42c3.35-5.4,20.62-10.22,15.78-17.05-.91,4.6-23.25,16.38-15.78,17.05Z" style="fill:#7895a4"/></svg>