<svg id="Layer_1" data-name="Layer 1" xmlns="http://www.w3.org/2000/svg" viewBox="0 0 577.9 256.18"><polygon points="63.16 235.49 40.23 116.58 37.43 117.62 61.01 236.47 63.16 235.49" style="fill:#7d8393"/><polygon points="64.54 126.01 55.55 203.69 57.83 203.17 66.76 127.54 64.54 126.01 64.54 126.01 64.54 126.01" style="fill:#7d8393"/><polygon points="61.15 202.66 0.11 157.73 0 160.45 59.13 203.94 61.15 202.66" style="fill:#7d8393"/><polygon points="61.29 218.19 89.88 108.89 88.29 108.58 58.64 217.91 61.29 218.19" style="fill:#7d8393"/><polygon points="80.07 123.95 71.46 191.74 73.47 193.09 82.44 124.85 80.07 123.95 80.07 123.95 80.07 123.95" style="fill:#7d8393"/><polygon points="27.05 130.9 49 168.54 50.5 167.49 29.62 131.12 27.05 130.9 27.05 130.9 27.05 130.9" style="fill:#7d8393"/><polygon points="19.82 152.79 43.31 191.68 45.72 190.18 21.3 151.34 19.82 152.79 19.82 152.79 19.82 152.79" style="fill:#7d8393"/><polygon points="4.22 171.94 37.72 187.44 38.49 185.8 6.2 170.28 4.22 171.94 4.22 171.94 4.22 171.94" style="fill:#7d8393"/><polygon points="62.32 212.57 103.38 164.56 101.85 162.81 59.93 211.65 62.32 212.57" style="fill:#7d8393"/><polygon points="87.89 189.68 107.09 171.56 105.59 170.56 86.01 188.32 87.89 189.68" style="fill:#7d8393"/><path d="M365.56,7.93c1.54.55-13.4,174.72-8.61,172.91l16-175.14Z" style="fill:#fdb928"/><path d="M359.87,155.44,381.54,144c.36-4.2-21.55,9.53-22.41,9.07l.74,2.41Z" style="fill:#fdb928"/><path d="M364.43,141.37l18.51-21.56c-1.81-3-18.72,18.94-19.84,19.45l1.33,2.11Z" style="fill:#fdb928"/><path d="M363.07,129.67l9.58-24.31c-2.33-2.58-10.59,22.2-11.42,22.63Z" style="fill:#fdb928"/><path d="M365.18,105l14-28.61c-2.2-7.12-15.21,28.6-16.38,28Z" style="fill:#fdb928"/><path d="M364.09,78.7c-.2-1.46,17.59-29.33,12.8-29.73C378.38,49.15,355.1,84.31,364.09,78.7Z" style="fill:#fdb928"/><path d="M364.57,53.08l17.12-28.74c-2.33-3.59-18.63,27.43-19.7,27.82Z" style="fill:#fdb928"/><path d="M368.45,19.4,379,.64,377,0C377.19,1.36,363.76,19.05,368.45,19.4Z" style="fill:#fdb928"/><path d="M360,152.41l-4.43-17.27c-5.67-3.47,2.92,18.14,1.94,18.84Z" style="fill:#fdb928"/><path d="M364.48,134.6,353.72,118c-7.28-.47,9,16.85,8.51,18.41Z" style="fill:#fdb928"/><path d="M365.42,118.19c-1.43-1-8.76-21.7-12.19-18.44,1.42-.3,10.29,28,12.19,18.44Z" style="fill:#fdb928"/><path d="M363.74,97.8c-1.63-.32-12.82-17.31-14.85-12.2,1.6-.11,13.8,19.63,14.85,12.2Z" style="fill:#fdb928"/><path d="M363,79.28l-7-13.5c-6.18-1.75,5.68,14.59,5,15.67l2-2.17Z" style="fill:#fdb928"/><path d="M363,54.83c-1.31-.76-7.45-20.12-10.61-16.61,1.45-.09,8.36,25.81,10.61,16.61Z" style="fill:#fdb928"/><path d="M365.94,21.53c-1-.89-3-18.74-6.22-16.45,1.06-.27,4.09,26.7,6.22,16.45Z" style="fill:#fdb928"/><path d="M355.61,177.25l52-40.77c-1.89-.46,16.46-63.12,8.09-57.87C402.4,159.27,397.86,129.44,355.61,177.25Z" style="fill:#fdb928"/><path d="M357.2,177.17c.82-.81,19.07,10.6,16.36,4.53-1.53.13-15.94-8.67-16.36-4.53Z" style="fill:#fdb928"/><path d="M367.49,166.87l9.14,3.86c4.76-2.12-7-4.7-7.5-5.67l-1.64,1.81Z" style="fill:#fdb928"/><path d="M378.4,159.78l9.09,2.17c1.35-2.85-6.21-3.65-7.49-4.49l-1.6,2.32Z" style="fill:#fdb928"/><path d="M392.77,149.18l12.92-5.13c-.2-2.8-11.58,2.48-12.67,2.33l-.25,2.8Z" style="fill:#fdb928"/><path d="M409,134.8l15.17-10c-.59-4.82-14.6,7.17-16.07,7.06l.9,2.93Z" style="fill:#fdb928"/><path d="M409.89,118.76l8.86-2.58c-.22-.93,6.55-8.37,2.57-7.77-1.39,1.49-13.14,7.29-11.43,10.35Z" style="fill:#fdb928"/><path d="M412.74,103.06,426.06,90.6l-2.36-1.52c-.74,1.85-15.34,11.33-11,14Z" style="fill:#fdb928"/><path d="M417.76,90.44l7.37-12.74c-2.73-3.39-8,9.62-9.32,10.41l1.95,2.33Z" style="fill:#fdb928"/><path d="M362,173.53c-.26-1.62,6.86-14.4,2.31-14.34C364.82,161,355,175.24,362,173.53Z" style="fill:#fdb928"/><path d="M374,167.76c-.27-1.14,4.77-12.28,1.52-12.09C376,157.49,367.06,170,374,167.76Z" style="fill:#fdb928"/><path d="M389.94,156.27c-.77-1.25,3.5-16.92-1.08-15C389.89,142.45,383.94,160.48,389.94,156.27Z" style="fill:#fdb928"/><path d="M401.05,144.56l-.42-16.07c-5.13-4.14-1.5,15.7-2.61,16.59Z" style="fill:#fdb928"/><path d="M409.78,126.75l-3.46-13.87c-5.75-3.32,1.92,15,1,15.92Z" style="fill:#fdb928"/><path d="M415.05,108.47c-1.2-1.2-3.81-11.78-6.92-9.46C409.78,100.12,411.35,115.2,415.05,108.47Z" style="fill:#fdb928"/><path d="M416.51,95.2l-5.05-8.59c-4.34-1.25,3.13,9.7,2.69,10.57Z" style="fill:#fdb928"/><path d="M416.56,82.09l-3.17-8.92c-4.93-1.91,1.12,9.33.59,10.56Z" style="fill:#fdb928"/><path d="M343.42,183,308.9,69c-9.33-7.36,36.19,117.53,33.91,116.83l.61-2.81Z" style="fill:#fdb928"/><path d="M356.64,169.33c-1.15-1.26-3.05-17.33-6.82-14.92C351.3,155.15,352.3,176.09,356.64,169.33Z" style="fill:#fdb928"/><path d="M341.06,164.55c-.85-1.1-.65-17.53-4.2-15.75C338.23,149.8,335.5,170.86,341.06,164.55Z" style="fill:#fdb928"/><path d="M332.32,149.86c-.59-1.68,5.94-19.31.85-18.44C334.21,132.7,325.45,153.72,332.32,149.86Z" style="fill:#fdb928"/><path d="M325.6,134l5.33-15.32c-2.79-4.34-6.63,14.16-7.72,14.46Z" style="fill:#fdb928"/><path d="M321.39,119.62l5.27-14.2c-2-5.1-7.17,14.82-8.1,14.69Z" style="fill:#fdb928"/><path d="M316.78,97.58l7.94-13.27c-1.94-5.48-9.32,12.21-10.57,12.32Z" style="fill:#fdb928"/><path d="M316.46,82.19c.12-1.23,7.87-11.45,5-12.33C322,71.18,308.91,84.36,316.46,82.19Z" style="fill:#fdb928"/><path d="M311.64,74.37c.24-1.47,8.16-8.17,3.91-9C315,67.25,306,73.27,311.64,74.37Z" style="fill:#fdb928"/><path d="M298.52,58.74c1.08-.24,9.54,19.1,10.46,12.31-1.64-1.49-6.79-15-10.46-12.31Z" style="fill:#fdb928"/><path d="M304.6,75.55c1.24,0,9.58,13.13,10.53,8-1.67-.68-8.22-12.54-10.53-8Z" style="fill:#fdb928"/><path d="M306.25,92l9.59,11.71c2.15-.54-6.61-11.49-6.64-12.22l-2.95.51Z" style="fill:#fdb928"/><path d="M307.65,114.24c1.22.1,11.33,10.74,11.71,6-2-.89-9.27-9.57-11.71-6Z" style="fill:#fdb928"/><path d="M313.27,132.51c.69-.76,15.13,5.17,11,.29-2.24-.26-9.63-3.64-11-.29Z" style="fill:#fdb928"/><path d="M313.79,144.57c.06-.63,17.2,5.49,14.68,2.4-2.21-.06-13.81-7.18-14.68-2.4Z" style="fill:#fdb928"/><path d="M322.73,157.59c1.35-.41,12,6.67,10.55,1.47-2.27-.3-9.78-6.55-10.55-1.47Z" style="fill:#fdb928"/><path d="M330.72,170.76c.69-.78,14.65,2.56,11.49-1.34-2.3.36-12.15-4-11.49,1.34Z" style="fill:#fdb928"/><path d="M348.85,179.75c4.12.31,8.32-.18,9.86-4.66-2,1-11.67.15-9.86,4.66Z" style="fill:#fdb928"/><polygon points="138.83 212.22 164.06 87.17 160.32 84.72 134.47 213.19 138.83 212.22" style="fill:#12526a"/><polygon points="164.41 167.39 134.16 211.55 138.01 213.82 168.72 168.56 164.41 167.39 164.41 167.39" style="fill:#12526a"/><polygon points="189.91 190.28 148.54 196.9 151.01 200.62 192.37 194.01 189.91 190.28 189.91 190.28" style="fill:#12526a"/><polygon points="161.38 182.5 154.04 172.68 152.47 175.42 157.5 184.72 160.55 185.55 161.38 182.5 161.38 182.5" style="fill:#12526a"/><polygon points="140.38 199.09 128.34 118.98 124.03 120.15 138.11 202.94 140.38 199.09 140.38 199.09" style="fill:#12526a"/><polygon points="139.42 174.35 113.94 149.89 110.76 153.02 137.15 178.2 139.42 174.35 139.42 174.35" style="fill:#12526a"/><polygon points="118.56 156.81 117.89 141.14 113.58 139.97 114.24 157.98 118.56 156.81" style="fill:#12526a"/><polygon points="131.64 150.12 124.12 158.64 126.34 162.52 135.49 152.39 131.64 150.12 131.64 150.12" style="fill:#12526a"/><polygon points="135.13 119.13 130.66 119.15 125.68 140.75 128.81 143.94 135.13 119.13 135.13 119.13" style="fill:#12526a"/><polygon points="172.87 133.66 141.5 162.33 145.34 164.6 176.71 135.93 172.87 133.66 172.87 133.66" style="fill:#12526a"/><polygon points="153.69 168.06 149.86 165.76 136.46 182.97 140.29 185.28 153.69 168.06 153.69 168.06" style="fill:#12526a"/><polygon points="180.52 84.06 176.05 84.08 151.82 126.93 156.13 128.1 180.52 84.06 180.52 84.06" style="fill:#12526a"/><polygon points="151.65 144.09 146.7 123.87 142.23 123.89 147.18 144.11 151.65 144.09" style="fill:#12526a"/><path d="M457.94,62.52c6.76,19-9.59,37.12-5.83,56.69,7.11,19.18,13.86,38.49,1.12,57.24-9.88,9.77,14.46,46.23-2.9,36.43-13.15-25,4.14-44.87,2.88-68.84-13.39-35.28-7.12-48.14,4.73-81.52Z" style="fill:#6c9b52"/><path d="M430.3,58.19c12.32,15.89,11.78,27.43,8.69,46.21-1.7,13.77,5.5,27.44,2.09,40.74-5.32,8-4.43,15.52-2.85,24.17-.38,11.71-6.76,23.12-1.48,34.59,0,5,6.8,10.82,4.22,14.62-1.64,1.8-2.83.75-3.4-.8-12.23-8.1-5.67-66.32-1.1-80.21-.93-19.57-2.91-38.75-.66-58.33.28-7.5-8.09-14-5.51-21Z" style="fill:#6c9b52"/><path d="M419.35,65.17a168.57,168.57,0,0,1,7.23,61.55c-.27,9.23-7.1,17.05-5.7,26.47,5.38,15.7,6.08,27.78,3.84,44.16-.65,5.69,8.32,14.56,2.21,18.15-13.53-6.72-6.47-25.11-5.78-36.95,1.34-8.9-4.53-16.27-5.73-24.76-1.27-12.49,8.47-23,7.13-35.71,1.56-17.35-5.38-37.18-3.2-52.91Z" style="fill:#6c9b52"/><path d="M457.55,62.09c-.91,12.35-8.51,24.57-11.11,36.85-3.23,17.72,5.87,33.52,8.71,50.35-2.53,19.65-15.56,38.71-6.46,58.67,1,1.82,3,7.32,5.58,5.55,1.31,3-5,2.14-5.92.25-11.72-20.59,1.77-42.44,1.57-63.77-1-14.91-7.44-28.95-5.69-44.16.67-15.2,6.66-30.44,13.32-43.74Z" style="fill:#638c49"/><path d="M429.77,58c-1,7.27,5.3,13.06,6,20.42-.59,17.08-1.14,34.19,2.23,51.25,1.51,10.73-4.76,19.76-4.59,30.31,1.13,18.72-4.93,42.74,5.14,59.22-12.18-7.22-9.53-57-5.54-77.87.65-20.24.13-40.63.63-60.88-.75-7.66-7.05-14.85-3.83-22.45Z" style="fill:#638c49"/><path d="M418.59,65.06c.23,18.58,5.3,37.75,3.8,56.8.3,9.89-6.52,18.2-7.11,27.89-.28,4.58,1.19,9,2.72,13.25,9.67,16-6.5,37,7,51.35,1.94,2.07-7.17-.41-7.57-10-1.46-10.59,1.28-21.46-.07-32-1.13-8.17-4.4-16.17-3.24-24.5,11.56-29.44,2.09-54,4.49-82.75Z" style="fill:#638c49"/><path d="M232.18,72.79l3.41,131.54c5.3,2.22,3-139.21-3.41-131.54Z" style="fill:#a07666"/><path d="M270.4,127.42c2,.8-47.54,68-35.94,64.28C233.74,189.81,279,127.5,270.4,127.42Z" style="fill:#a07666"/><path d="M288.12,139.61l-40.11,28,1.85,3C249.05,168.71,298.84,141.69,288.12,139.61Z" style="fill:#a07666"/><path d="M287.12,130l-8.61,16.43c3.34,8.65,10.1-15.22,12-15.67l-3.37-.76Z" style="fill:#a07666"/><path d="M228.21,132c-2.07.09-28.45-37.73-31.09-29.75,3,1,35.92,63.74,41.62,60.6C242.09,147.83,238.08,142.55,228.21,132Z" style="fill:#a07666"/><path d="M216.72,98.78c-7.5-.73,9.18,32.29,8.43,34.29C232.65,133.81,216,100.78,216.72,98.78Z" style="fill:#a07666"/><path d="M251.73,100.74l-14.4,47.5,3.45-.13c-1.87-.57,20.76-53.44,10.95-47.37Z" style="fill:#a07666"/><path d="M244.37,90.86l-10.91,31.56c4.3,2.29,13-30,14.36-31.69l-3.45.13Z" style="fill:#a07666"/><path d="M230.48,96.27c-1.81-1.92-5.83-13.38-10-10.73l11.89,20.66C239.61,106.51,230.74,98.71,230.48,96.27Z" style="fill:#a07666"/><path d="M228.41,153.49l-31.94-2.08c0,2.11-16.34,13.17-7.75,13.69,8.52-13.57,21.2-10.19,34.5-9.82C233,170.07,240.4,172.86,228.41,153.49Z" style="fill:#a07666"/><path d="M191.27,155.5c1.47,1.1-31.34,35.81-20.19,32.93C171.3,186.14,197.71,157.5,191.27,155.5Z" style="fill:#a07666"/><path d="M193.13,154.61l-18.35-8.86-1.58,3.14C174.59,147.85,197.52,164.09,193.13,154.61Z" style="fill:#a07666"/><path d="M205.64,178.75l-1.25.92-.13,12.72-.18.16-1.66-1.05-.89-8.58-.92-.41-1.13.58-.58,7,3.53,5.57-.78,6.77-6.45,3.39-1.07-20-1.55-1.28-1,.11-1,1.22-.34,9.93-2.84-13-1-.43-.65.18,1.28,15.3,2.88,1.55.64,10.37-5.09,1.61-3.78-3.76,0,0,3.91-2.61-.6-8.45-1.23-.42-1,.44L181.59,203l-.4.05-.48-.45-.46-20-1.36-.91-.82.33-.76,11.27h.05l-.54,2.73-.35.16-2.76-12.65-1.29-.45-1.5,5.51-1-.85-2-7.48-.42-.09-1.1.65,1.49,10.48,2.81,2,.85,4.22,4.91,3,1.39,9.69,1.39,1.3,0-.05,7.47,22.23-7.86-21.4-1-.57-1,.39-.9,8.14-.18.13-2.47-1.25-1.59-7.63-1-.69-1,.37.15,9.26,7.14,5v1.92l-10.06-5.83-1.6-11.7,3.41-3.73-1.09-9.66-.75-.24-.75.29-2.11,9.19-1.23-19.45-1-.33-1.23.68-.31,5.68-.75-.19-1.81-6.15-1.14-.87-1.16.71,0,9,4.67,2.34.46,14.26-.78-.66-1-12.29-.8-.83h-.49l.8,16.31,3.3,1.9.07,4.12-5.08-3.21-2.23-17.11-.76-.27-1.5.94-.65,1.91h.05l-.07,10.95-.49-.32-1.19-19.3-1.45,0-1.2,10.79-1.05-1.19-.53-11.24-1.37-1.19-1.78,1.23,11.26,28.44L184,237.06,188.49,256l3.42.18.66-.51.51.23.57-.25,1.64-17.14h0l0,0h0l.89-.95h0l.07-.05h0L208,231.38l-.28.11,4.64-2.23h0l.28-.11-.09,0,4.85-2.4-.28.12,18.11-14.33,1.27-5.88,0,.16-.05-1.06,0,.05-.24-.74-1.86-.08-1.7,2h0l-1.7,4.21-.27,0-.17-.36L231,209v.09l4.69-6.74h0l2-1.16,0,0,.09-.07,0,0,3.37-6.89v.09l.22-1.33v.09l.08-.57h0l.06-.69v0l.11-4.79h0l-.68-1.83h-1.4l-1.54,4.29,0-.23-.18,1.08,0-.23-.33,5.9h0v0l-.83,2.38,0,0,0,0,0-.05-.46.5.14-.11-.46.34h0l-2.07.26-1-8.31v.1L233,189v0l-.11-6.05-2-1.17-.81.73v0l-.35.76.12-.29-.1,5.4v0l-.14,9v0l.19,3.54v-.09l.29,6.48-.13.18-.67.15-.26-.13h0l-.64-5.07,0,0-.2-.29h0l-.28-.34-.36.26,0-.07-.47.61.05-.07-2.78,14.86,3.82-18.08v-11l0,.08L228,188l-.64-.24h0l-.08,0-1.21,1.05L224.78,200l-1.13-6.89-1.06-.14L221,204.66l0,0-.44.41-.65.08-.52-.48h0l-.19-.38h0l-.18-2.86v0l-.79-2.19-.85.16-.35.4-.06.67v0h0l.28,7.22,2.16,2.35.1,9.7-2.09.6-.93-2.26.41-.59,0,0,.29-.3h0v-6.35h0l-1.14-.61-.54.47-.59,5.15-.46.13,0,.12-.74-.69-.3-5.27,0,.09-.07-.14L212,209.9l2.09,12.29-7.31,2.7,3.06-15.73-.58-.73,0,.11-.12-.26h0l0,.07,0-.07-1.43.21.15-.06-1.36,2.81,0-.24-.43,6.1-1.45.82-1.65-1.46v0h0l-.07-.28h0l-.65-2.81-1.41-.56-.6,5.94,1.36,2,1.43.11.24,2h0l0,3.58-4.69,2.11-1.57-.38h0l-.3-2.35v0l.29-.69h0l1.26-9.2-.44-.15-.65,1.35v-.06L197,219l0-.31-.11.76,0-.32-.26,2.22h0l-1,1.14-1.44-.64h0l0-8.43h-.57l-1,10.2,1.77,1.27L194,231l-3.79,2L190,214.59,215.15,200v0l.44-.71h0l.15-.79-.16.22.5-4.05,3.79-2,1.32-6.91-1.22-.72-1.65,1.64-.61,3.57-2.58-.09.07-6.89-1-.89-1.81.51-.22,10.43-.05,0-.54-2.8-.74-.43-1.19,1,.58,4.84.91.39-.28,3.3-3.56,1.37.29-9.41,2.32-1.17,1.14-9.32-.83-.39-1.16.47-.94,5.48-1.28.66-.48-8.27-.74-.35ZM230,182.48Zm0,0h0Zm0,0-.06.13.06-.13Zm-60.33,8.13-1.47-1.19-.55-6.76.51,5.92,2.23,2.33-.72-.3Zm30.69-5.3.15-1.09.88,8.67-1-7.42h0l0-.16Zm26.94,10.4.36-5.86-.35,6.27v-.41Zm9.36,2.61-.05.07.05-.07Zm-8.46.9v0Zm7.56,3h0Zm-2.81,1.6h0l-.06.07,0-.06Zm-4,3.51,0,0,0,0ZM204.8,219.76l.23,0,0,.07h0l-.2,2.14-.49-2.09.49-.06Zm-9.37,18.57-.11.13.11-.13Zm-.15.19,0,0,0,0Z" style="fill:#397f91"/><polygon points="241.11 185.6 241.06 185.54 241.11 185.6 241.11 185.6 241.11 185.6" style="fill:#397f91"/><polygon points="240.37 198.87 239.93 199.66 240.39 198.81 240.37 198.87 240.37 198.87 240.37 198.87" style="fill:#397f91"/><polygon points="238.46 201.9 238.94 201.56 238.46 201.9 238.46 201.9 238.46 201.9" style="fill:#397f91"/><polygon points="237.63 203.05 237.61 203.06 237.9 202.89 237.63 203.05 237.63 203.05 237.63 203.05" style="fill:#397f91"/><polygon points="237.6 203.06 237.6 203.06 237.66 203.06 237.6 203.06 237.6 203.06 237.6 203.06" style="fill:#397f91"/><polygon points="232.66 207.04 232.68 207 232.66 207.04 232.66 207.04 232.66 207.04" style="fill:#397f91"/><polygon points="232.65 207.07 232.65 207.07 232.65 207.06 232.65 207.07 232.65 207.07 232.65 207.07" style="fill:#397f91"/><polygon points="228.98 207.4 228.98 207.4 228.98 207.4 228.98 207.4 228.98 207.4" style="fill:#397f91"/><polygon points="229.9 201.7 229.89 201.66 229.9 201.7 229.9 201.7 229.9 201.7" style="fill:#397f91"/><polygon points="225.74 203.32 225.74 203.32 225.75 203.3 225.74 203.32 225.74 203.32 225.74 203.32" style="fill:#397f91"/><polygon points="216.97 200.49 216.97 200.49 216.97 200.49 216.97 200.49 216.97 200.49" style="fill:#397f91"/><polygon points="218.6 198.97 218.54 198.92 218.6 198.97 218.6 198.97 218.6 198.97" style="fill:#397f91"/><polygon points="217.68 199.32 217.71 199.32 217.68 199.32 217.68 199.32 217.68 199.32" style="fill:#397f91"/><polygon points="216.96 200.51 216.97 200.49 216.96 200.51 216.96 200.51 216.96 200.51" style="fill:#397f91"/><polygon points="219.03 202.63 219.02 202.6 219.03 202.63 219.03 202.63 219.03 202.63" style="fill:#397f91"/><polygon points="219.21 204.28 219.21 204.28 219.21 204.28 219.21 204.28 219.21 204.28" style="fill:#397f91"/><polygon points="219.21 204.28 219.21 204.28 219.21 204.28 219.21 204.28 219.21 204.28" style="fill:#397f91"/><polygon points="219.21 204.29 219.21 204.28 219.21 204.29 219.21 204.29 219.21 204.29" style="fill:#397f91"/><polygon points="219.25 204.38 219.24 204.36 219.25 204.38 219.25 204.38 219.25 204.38" style="fill:#397f91"/><polygon points="215.12 200.08 215.13 200.04 215.12 200.08 215.12 200.08 215.12 200.08" style="fill:#397f91"/><polygon points="211.25 210.24 211.23 210.26 211.27 210.2 211.25 210.24 211.25 210.24 211.25 210.24" style="fill:#397f91"/><polygon points="211.25 215.92 211.25 215.9 211.25 215.92 211.25 215.92 211.25 215.92" style="fill:#397f91"/><polygon points="217.17 217.22 217.18 217.22 217.17 217.22 217.17 217.22 217.17 217.22" style="fill:#397f91"/><polygon points="217.61 212.96 217.6 212.91 217.61 212.96 217.61 212.96 217.61 212.96" style="fill:#397f91"/><polygon points="209.08 208.03 209.08 208.03 209.07 208.01 209.08 208.03 209.08 208.03 209.08 208.03" style="fill:#397f91"/><polygon points="207.32 208.69 207.59 208.57 207.32 208.69 207.32 208.69 207.32 208.69" style="fill:#397f91"/><polygon points="196.19 237.55 196.21 237.53 196.19 237.55 196.19 237.55 196.19 237.55" style="fill:#397f91"/><polygon points="195.29 238.5 195.3 238.5 195.29 238.5 195.29 238.5 195.29 238.5" style="fill:#397f91"/><polygon points="203.01 216.18 203.03 216.2 203.01 216.18 203.01 216.18 203.01 216.18 203.01 216.18" style="fill:#397f91"/><polygon points="197.19 225.18 197.19 225.17 197.19 225.18 197.19 225.18 197.19 225.18" style="fill:#397f91"/><polygon points="196.22 237.53 196.23 237.52 196.22 237.53 196.22 237.53 196.22 237.53" style="fill:#397f91"/><polygon points="197.2 228.18 197.21 228.19 197.2 228.18 197.2 228.18 197.2 228.18 197.2 228.18" style="fill:#397f91"/><polygon points="194.9 217.62 194.92 217.52 194.9 217.62 194.9 217.62 194.9 217.62" style="fill:#397f91"/><polygon points="194.45 220.89 194.44 220.99 194.45 220.88 194.45 220.89 194.45 220.89 194.45 220.89" style="fill:#397f91"/><polygon points="196.25 237.51 196.23 237.52 196.25 237.51 196.25 237.51 196.25 237.51" style="fill:#397f91"/><polygon points="195.29 238.51 195.29 238.5 195.29 238.51 195.29 238.51 195.29 238.51" style="fill:#397f91"/><polygon points="230.04 182.47 230.04 182.46 230.04 182.47 230.04 182.47 230.04 182.47" style="fill:#397f91"/><polygon points="237.44 196.03 237.44 196.03 237.44 196.03 237.44 196.03 237.44 196.03" style="fill:#397f91"/><polygon points="236.6 206.16 236.68 206.34 236.6 206.14 236.6 206.16 236.6 206.16 236.6 206.16" style="fill:#397f91"/><polygon points="230.09 182.36 230.07 182.39 230.09 182.35 230.09 182.36 230.09 182.36 230.09 182.36" style="fill:#397f91"/><polygon points="230.07 182.4 230.05 182.44 230.07 182.4 230.07 182.4 230.07 182.4 230.07 182.4" style="fill:#397f91"/><polygon points="230.05 182.45 230.05 182.44 230.05 182.45 230.05 182.45 230.05 182.45" style="fill:#397f91"/><polygon points="230.04 182.47 230.04 182.47 230.05 182.45 230.04 182.47 230.04 182.47 230.04 182.47" style="fill:#397f91"/><polygon points="230.04 182.48 230.03 182.48 230.04 182.47 230.04 182.48 230.04 182.48 230.04 182.48" style="fill:#397f91"/><polygon points="237.43 196.11 237.43 196.1 237.43 196.11 237.43 196.11 237.43 196.11" style="fill:#397f91"/><polygon points="239.63 185.17 239.76 185.15 239.63 185.17 239.63 185.17 239.63 185.17" style="fill:#397f91"/><polygon points="239.47 185.19 239.47 185.19 239.55 185.18 239.47 185.19 239.47 185.19 239.47 185.19" style="fill:#397f91"/><polygon points="239.29 185.22 239.41 185.2 239.41 185.2 239.29 185.22 239.29 185.22 239.29 185.22" style="fill:#397f91"/><polygon points="237.42 196.14 237.43 196.13 237.42 196.14 237.42 196.14 237.42 196.14" style="fill:#397f91"/><polygon points="235.48 197.13 235.47 197.1 235.48 197.13 235.48 197.13 235.48 197.13" style="fill:#397f91"/><polygon points="229.63 188.01 229.62 187.99 229.63 188.01 229.63 188.01 229.63 188.01" style="fill:#397f91"/><path d="M167.42,182.17l.8,8.42.27,0,.56.48.24,0,.57.89.74.18.42-.32v-1.59l-1.72-1.67h0l-.4-.1-1-6.4-.46.06Zm2.84,7.27.07.08-.07-.08Z" style="fill:#397f91"/><polygon points="200.02 193.19 200.72 193.89 201.41 193.19 200.72 192.5 200.02 193.19 200.02 193.19 200.02 193.19" style="fill:#397f91"/><polygon points="200.29 183.74 200.06 193.05 201.04 193.5 201.37 193.16 201.34 192.75 201.46 192.61 201.43 184.54 200.7 183.69 200.29 183.74 200.29 183.74 200.29 183.74" style="fill:#397f91"/><path d="M227.44,189.53l-.26.45h0l0,.52-.31.34.21,5.4.47.36.47-.36.19-6.52-.46-.26-.27.07Zm.89.94v0Z" style="fill:#397f91"/><polygon points="204.21 219.42 203.84 221.13 204.08 221.62 205.56 221.63 205.63 219.58 204.21 219.42 204.21 219.42 204.21 219.42" style="fill:#397f91"/><path d="M87.5,204.16c-2.69-1.15-1.36,30.32-2,30.8-31.74,24.69,36.46,16.11,48.19,19.94-22.1-47.67,38.58-25.42-46.16-50.74Z" style="fill:#8d7d82"/><path d="M90,204.07c-11.68,1.83,10.73,7.86,11.38,9.53,5,3,28.84,4.13,34.88,4.74,1.35-7.77-41-14.26-46.26-14.27Z" style="fill:#6c9b52"/><path d="M105.39,192.28c-1.53.65,1.42,9.56-.37,12.06,1.44-.39,1.9-.93,3,.72.16-.37-1.22-13.06-2.63-12.78Z" style="fill:#98bdc6"/><path d="M93.8,190.23c-2,.82-.38,4.69-.94,5.77-.22-.09-1.56-5.15-2.34-4,0,0,.24,2.3.31,2.15l1.37,4.26c0-.29-10.38-11.18-5.37-5-6.55-.5,4.6,3.56,1.28,5.54-.28-.11-5.65-2.31-5.58-2.26-2.84.54,3.57,3,3.3,3.24-.33,0-8.14-1.51-8.09-1.48-.77,1.46,1.41,1.74,2,1.68-.23.57-5,3.3-3.91,3.87.16.67,6.17-3.55,6.18-3.43-.34.52-2.39,1.29-1.52,1.77,2.42-1,5.92-1.35,7.4.35-5.94-1.26-12.16,1.94-12.76,6.88,1.83-1.55,4.11-6.63,6.19-4.37-2.54.89-4.59,3.43-5.83,4.87,2,.52,4.69-2.27,6.44-2.14-.21.17-4.36,3.31-4.31,3.3,6.37-2.59,3.57-.87,0,2.2.13.74,1.18-.24,1.2-.2-.12.55-3.43,4.34-2.26,4.18.46-.29,6.08-7.76,6.19-6.78-.12.29-3.14,6.65-3.1,6.62.09.29,1.69-1.74,1.65-1.6.82,1.53-.22,5,1.44,1.89-.77-4.17,0-7.66,4.41-7.59-1.74,1.77-4.54,4.85-4.31,7.25,1.26-.72,1.61-4.11,4.36-4.59-.06.41-5.29,7.2-4.4,7,4.45-2.27,6.91-9.33,12-10.81,2.24,1-14.39,13-5.06,8.5.32.54,3.08-3,3.14-2.86-.41,1.2-.31,2-1.39,1.76-1.15,3.4,2.51-1.09,1.47,2.31.95,1.49,3.61-3.86,4-4,3.78-.62.54,3.87,2,4.64.59-1.23,1.14-.93,2-.89-.35.67-1,2.25,0,2.21-.41,3.14,8.53-7.16,8.54-6.52-.17.31-4.33,7.28-4.29,7.25-.3,3,6.09-5.81,6.23-5.34-.38,1.54-2.77,7.45-3.37,9,0,1.61,8-8.13,7.94-7.55-8.2,13.2,0,8.6,2.53.79.77.26,1.44,10.41,1.67,10.95,1.26,1.25,1-11.47,1.38-11.22,2.08-1.29,3.53,11.94,5.15,8.13-.21-.75-.59-5.68-.31-5.85,4.87,10.31,5.33,7.22,3.86-.63,1.8,9.31,4.54,11.9,2.74,1.18,3.06,2.94,2.81,8.08,4.84,10,1.28-.51-2.72-6.27.06-5.68.32-1-1.51-1.89-1.41-2.53,2-1.31,2.55,6.21,3.23,6.61,1.68,1.25-2-7.06-1.53-7,1.58.7,2.38,4,2.16,5.54.69,1,2.58.29,2-.77-2.79-5.06-2.44-9.29,1.84-2.24,4.1,1.07-3.32-6.1-2.82-6.45.4.37,4,4.14,4,4,2.23-.22-5.09-5.91-4.53-5.9,1,.27,5,2.52,4.63,1.13-.55-.34-7.35-4.36-6.81-4.07,5.95,2.52,5.5.79.82-.28.87-.16,6.73,1.09,5.77-.2-1.48-2.33-8.16-.42-9.19-.53,2-1.65,6.95-4.7,6.08-6.63,0-.72-7,3.32-6.61,2.91.57-.62,4.16-3,3.73-3.51-9.56.64-7.32,4.36-5.18-4.61-4.78,5-3.75,4.64-5.59-1.17-.47.11-.43,0-.46.09-.19.61-2.56,8-2.37,7.41,1-3.58,1.82-8.5-1.19-2.57-.38-8.51-1.13-.58-2.57-5.19,1.54-2.92-.42-1.09-1.18-1.83-1,0-1.22,6-2.46,7-2.25-.25-1.1-6.37-3.21-4.22-.18-1.06.59-4-1-2.85-.77,3.26-.7-6.59-2.66-4.08-.84,12-5-3.48-2.68,11.58,10.2,9.24,8.83,7.31,20.42,4.85-9.79,5.16,10.16.86,9.85,5.88-1.23.35-2.27,1-3.19.55-.07.71-1.94,2.1-2.86,2.32-.47-.58-1.2-.3-2.08-.08-.24-.8-.68,1.11-.72.91-.51-3.71-4.55-2.09-7-1.56-3.36.43-3.14-5.78-7.08-4.34-2.67.27.7-3.7-4,1,2.25-3-1.32-3.95-2.68-4.64-3.25-2-6.94,0-9.07,1.42.1-1.77.92-.89,1.65-.76,2.91-.82.69-2.45-.4-2.49-6.76,2.46-13.36-2.15-19.57,1.59.56-.31,6-3.93,5.91-3.76,1.28,1.12,7.13,1.73,3.83-.35,18.69,2.11,3.21.7,11.63-8.12-.45,3.67-3.51,8.38,1.42,8.71.35-2.39.42-11-1.48-12.74-.78-.37.07,2.21-.2,1.94-3.75,4-4.67,1.81-6.74-1.47-.54-.13.39,1.44.19,1.47-.15.24-2.58-2-2.43-1.9-.08-.38-.26-3-.49-2.8Zm2.88,12-2.1-7.15c.82,1.62,3.71,5.82,2.1,7.15ZM112,199.5c.24-3.44,0,4.21,0,4.11-.39.58.11-4.19,0-4.11Zm8.88,4.89c-.75-1.12,1.35-2.2.26-3.49,1.21.77.19,2.63-.26,3.49Zm-6,2.89.22-4-.22,4Zm6.32.41,1.37-2.86c-.21.48-.87,2.67-1.37,2.86Zm12.58-.33c1.93-1.52-2,2.66-1.87,2.69S133.66,207.13,133.76,207.36Zm-30.89,9.21c.3-.29,3.13-6,3.56-6.1-1.21,1.66-1.37,5.46-3.56,6.1ZM91.68,213.7l2.53-1.95-2.53,1.95Zm7-.88,1-.8c-.06.44-.59.71-1,.8Zm3.26.25.25-.1c-.11.07-.2.48-.25.1Zm36.56.38c-.08-.09,0-.1.07-.12l-.07.12Zm-38.15,3.23,1.59-3.3c-.14.11-1.29,3.38-1.59,3.3ZM94,215.58l1.32-1.83L94,215.58Zm18.21,3.61,1.78-3.92a16.58,16.58,0,0,1-1.78,3.92Zm-10.41.58.91-.9-.91.9Zm28.62,4L127.84,219l2.59,4.77Z" style="fill:#98bdc6"/><path d="M278.23,104.37c.3,4.43-5.73,19.68,2.29,20.22.12,1.33.88,3.38-1.32,3.09l.44,10.08-.05-.08,4.59,4.24c-.78-.13-5.34.73-5.56-.57l.09.13-.33-.42,0,0c.21-4.49-5.28-3.73-8.21-4-.12-4.11-.72-14.1-4.08-3.56-2.66,0-.87-18.35-5.23-10.26,2.29,10.75-4.2-1-4.18,9.09,3.27-.27,4.2,3.11,4.74,5.64,1.92.52,6.1,1,5.92,3.85,3-.15,6.94.83,8,4.08-.37-.27,9.14,1.35,9.07,1.26-.45,2.8,4.87,8.76-2,5.48,1-3.37-1.87-5.42-4.74-3.43l-.12,9.76c6.42-1,6.32,4,7.76,8.58v-.11l.2,1.19c-5.58,1.47-2.09-5.17-5.73-4.46-2.75,7.21-2.34-.46-2.77-2.75-4.32-3.73-1.21,8.71-2.06,9.7l6.15,2.79h0c3.22.94,3.39,3.29,3,6.19-.19-.2-7.73.48-7.26-.44h0c.72-2.62-.71-4.85-3.06-6-.86,1.58-1.74,4.13-4,2.85l-.57-13.35a3,3,0,0,0,2.85-2.69l0,.05c0-2.31,2.91-14-2.9-9.89-.44.5,1.21,8-.94,6.69-.08-3-.85-4.37-3.73-2.36l.44,6.82c-2.48,1-2.47-14-3-14.86-3.31-1-3.21.38-3.46,3.2-1.85,2.16-1.11-9.4-1.6-9.47h0c-4.83-6.76-4.22,10.07-4.46,11.91-2.55.39-6.47-1.12-5.8-4.28l.05.63,0-1.82,0,.38v-1.71l0,.63.28-4.12-.12.63c.78-7.12,8.26-1.21,6.18-11.64l0,.08c-3.57-4.18-2.46.55-3.34,2.81-2.09,0-3.62.15-2.84-2.48-7.83-4.2-1.65,7.6-5.35,8.84l.07,0c-5.92,1.47-3.31-5.86-4-9.07-1.74-2.38-2.94,13.77-3.48,13.72l.17.22v0l.95,1-.05,0c2.58.62,6.79.7,5.8,4.53l0-.38.37,1.85c-.28-.57,5.06,3.82,5,3.69l0-.1.1.41v-.09l.08.75,0-.5.06.71,0-.46c-.34,2.83,3.36,2.35,5.13,2.64,1.43-.72,4.51-5.46,6-2.35v0c1.23,2.83-.11,12.4,5.45,9.92,1.31,3.3-1.49,18.16,5.78,15.15h-.06c7.67,2.57,21.8.7,16.89,12.93.89,1.87,14-2,6.53-3C292,174.58,322,172,333,165.84h0l.23-.08-.21.08.83-.3-.23.09,3.66-5-.05.25.13-.59c-.6.87,5.88-2.93,5.83-2.74h0l.14-.09-.06,0,1.31-3.16,0,.12.63-2.48h0l.93-3-.11.23c.11-3.48,5.6-3.71,8-4.22h0l.2-.07h0l.65-.54-.09.1c-.41-1.26,3.89-12.65-.95-9.84l-1,4.77-2.62-.37.18.16-.93-1.87.08.23-.19-11.5-.05.25,0-1.83,0,.16-.06-.56v.14l-.05-.65,0,.26-.05-.49v.11l0-.42V123c-4.82-6.63-2.05,5.37-6.25,3.77.31-18.25-4.67-21.1-5-.6-.44-2.13-1.24-4.11-3.83-3.45l.27,7.38c.34.25,10.32,3.18,9.85,4,1.51,4.3,1.49,4.76-3.24,4.38,0,0-.56-3.69-.56-3.69-4.45-4-2.94,7-4.06,8.47,9.54-.33,3.45,6.57,3.09,11.93-9.43,6.07-2.55-8.21-7.34-9.64-4.23-1.26-1.69-10.79-3-12l.06,0c-6.76-5.18,5.15,28.32,3.82,28.6-.29.38-11.93,2.45-11.77,3.39l0-.07-.07.09,0,0c-4.51,6.15-2-3.76-2.6-6,5.14,1.08,4.12-2.16,4.4-5.85-1.63-2.23-2.72.43-3.87,1.55-1.19.47-.94-9.85-1.14-10.22-3.64-3.89-2.59,19.89-5.5,19.12-.59-2.13.37-6.72-3.38-5l-.41,7.58,0-.08c1,1.63,5.53.32,4.88,2-2,5.39-7.69,4.35-11.08,5.67-1.35-.91.85-17.73-3.78-12.86-1.27,7.07-.16,14.31-9.4,15.45.64-1.26-.31-7.65,2.68-6.19l2.42-8.79c-3.08-3.34-2.4,2.91-3.38,4.29-1.86,1.2-.54-6.84-.94-7.2l6-2-.06,0,.11-.07c-.14.2.19-8.39.14-8.35-3.27-1.2-2.44,2.87-2.91,4.72-2.76,1.78.88-6.8.45-7.22l6.49-2.37-.09,0c2.7-1.77,9.72-3.6,8.87-7.89l9.31-2.9c1.17-2.74,3.2-9.44,7.41-9.06h0c1.86-.66,5.76-1.29,5.23-4.09v0c.67-6.17-1.67-11.79-3.31-1.75-5.84,1.2,2-11.62-5.73-8.24-.93,3.14,1.28,12.25-4.67,10.57l-.77,8.58c-5.62,3.38-2.52-3.79-3.4-6.45-3.67.93-1.83-4.07-2.14-5.89-1.06-1.28-2.08-1.94-3.35-.44l-.68,9.49c2.06.09,1.83,2.71,1.94,4.13-5.84,1.58-.9,6.48-5.56,5.43-.24-.22,0-12.46-1.16-11.79l-3.74,16.5c-2.61-.16-6.67,1.95-6.1-2.52,6.18.13,4.2-5.07,4.44-8.91-2.69-1.54-3.24,1.82-3.57,3.49l.07,0c-2.8,1.61-.45-6.64-.26-6.87h0l3-1.07c-.65-1.75,1.83-10.92-3-7.74,0,2.84.48,5.54-3.3,5.6-.58,2.55.52,17.84-5.38,11.3.57-1.31,2.23-26.33-.73-25.33l-1,11.36c-5.57,3.16.09-16-4.39-15ZM324.66,169l-.09.06Z" style="fill:#6c9b52"/><polygon points="482.9 182.25 468.9 187.25 464.9 201.25 483.9 211.25 491.9 226.25 521.9 226.25 555.9 226.25 562.9 217.25 577.9 208.25 577.9 191.25 544.9 183.25 482.9 182.25" style="fill:#ab932f"/><path d="M506.9,201.25s-43-44-49-80c0,0-1-3,3-5s16-8,18-7,9-4,42,83Z" style="fill:#e2c360"/><path d="M488.9,196.25s33.25-82.44,44.63-90.72,25.37,10.72,25.37,10.72,4,4-9,19-46,72-46,72Z" style="fill:#ffe44f"/><path d="M537.9,191.25s3-20,5-35c0,0,0-6,13-3s11,2,12,7-3,12-4,20-3,17-3,17Z" style="fill:#e2c360"/><path d="M503.9,207.25s-21-25-18-52c0,0,0-12,7-15a23.07,23.07,0,0,1,14-1s5.21-.6,6.1,2.7,7.9,7.3,7.9,26.3-1,41-1,41Z" style="fill:#ffee4d"/><ellipse cx="470.96" cy="119.52" rx="12.07" ry="4.69" transform="translate(-9.98 188.66) rotate(-22.42)"/><ellipse cx="503.4" cy="146.75" rx="11.5" ry="4.5"/><ellipse cx="545.4" cy="114.75" rx="6.5" ry="12.5" transform="translate(173.32 529.71) rotate(-60)"/><ellipse cx="555.9" cy="159.25" rx="4" ry="10" transform="translate(268.09 660.81) rotate(-76.14)"/><path d="M520.9,196.25s-17-20-11-30c0,0,14-9,21-7s8,39,8,39Z" style="fill:#e2c360"/><ellipse cx="522.4" cy="167.25" rx="9.5" ry="3" transform="translate(-25.8 148.55) rotate(-15.8)"/></svg>