<svg id="Layer_1" data-name="Layer 1" xmlns="http://www.w3.org/2000/svg" viewBox="0 0 548.79 281.7"><path d="M406.27,101.2,404,123.42l4.58,3.09h0l0,.08h0l.26,3.46h0l-1.6.35.44,12.61-.05-.09,4.56,5.3-4.83.24-.69-.94.08.15-.33-.52,0,.05-1.16-4.41-7-.62h0l-.6-10-1.89.09-1.56,5.45-.66-.37-2.38-15.41L389,124.86l.62,6.25-.51,0h0l-3.62-.52-.65,5.69,3.27,1,1.44,6,5.05,1.76.84,3.06,6.24,1.38,1.68,3.74,0-.11,9.06,1.68,1.47,8.22-3.43-1.36.21-3.43-2.1-2.23-2.81,1.37-.13,12.22,5.29.57,2.42,10.17v-.13l.2,1.49-3.1-.05-1.09-5.38-1.51-.16-1.33,3.6-.91-.06-.51-7-1.6-1-1,12.12,6.69,4.53h0l3.09,2.19-.15,5.56H405l-.12-.55h0L405,191,401.83,188,400,192.12l-2.2-.5-.56-16.72,2-.68.8-2.69,0,.06,1.05-11.85-2.52-1.81-1.42,1.28.11,8.38h-1l-.39-3.63-1-.79-2.34,1.46.43,8.55-1.42-.67L390,154.56l-2.95-.51-.49,4.52-.86.39L385,146.71v0l0-.31h0v-.59l-1.62-1-2.15,1.45-.64,15.38-3.62-.21-2.14-5.15,0,.79,0-2.28,0,.48v-2.15l.05.79.27-5.15-.11.78.66-3.87,5.61-2.9-.14-7.8,0,.1-2-2.26-1.32,5.78-3-.16.18-3-1.59-1.34-2.8,1.35.43,10-1.35,1,.07,0-3.74-.27L365,134.75l-2.58,17.59h0l.18.27,0,0,.95,1.2-.05-.06,5.5,1.6.27,4.08,0-.47.37,2.31v-.18l5,4.8,0-.12.1.51v-.12l.08,1,0-.63.07.89,0-.58.57,2.7,8.61-3.72h0l.52-.2,1.32,1.58v0l1.86,12.75,3.56-.33,1.39,19h4.29l16.79,4.8,1.08,9.56-1,.79.39,1.83,8.33-3.19-1.34-1.51-1,.12L423.7,196l37-17.83h0l.23-.1-.21.09.82-.37-.23.11,3.64-6.29,0,.31.13-.74-.05.31,5.84-3.75h0l.14-.12-.06.05,1.31-4,0,.15.63-3.11h0l.92-3.79-.11.28,1.36-3.64,6.59-1.64h0l.2-.09h0l.65-.66-.09.11,1.52-11.88-1-1-1.44.54-1,6h0l-2.6-.46.18.2L477,142.4l.08.29-.19-14.4,0,.31,0-2.3v.21l-.05-.71V126l-.05-.81v.31l0-.6V125l0-.54v.09l-1-2.15-2-.14-1.34,7-1.92,0-.71-17.88-2.91-.55-.28.31h0l-1,17.37-1.09-4.22-2.72-.1.27,9.24,9.78,5h0L473,144H468.6l-.56-4.62-1.58-1.24-2.08,1.67-.6,9.15,5.93,2.25-2.63,13.71-3.82,2-1.9-13.31-1.58-.78-1.93,4-1.51-.09.72-18.79-.21-.12,0,0-.08,0h0l-2.45-.46,6.33,36.31L449,177.92l.05-.08-.05.09h0l0,0,0,0-2.62,3.2,0-10.74,4,0,.35-7.35-1.55-1.44-2.3,3.38-.68-.43-.45-12.37-1.52-.85-2.84,23.92-1.11.87-.71-6.64-2.64.4-.41,9.49,0-.09,1.92,2.5,2.58-.26.68,4.68h0l-3.43,1.12h0l-7.91,1.6h0l-.1-.24h0L429,171.62l-2.34,1.22-2.05,15.95-7.29,3.4.84-7.77,4-2.57-1-9.8-1.86,1.07L419,178.8h-.9l0-9,6-2.55-.06,0,.1-.08-.05,0,.2-10.49-2.33,0-.56,6-1.15.18,1.59-9.22,6.45-3-.09.07,6.33-4.19h0l11.74-9.34,0,0,3.31-9.28h0l1.34-1.12h0l2.75-1h0l4.7-2,.5-3.09v0l-.14-8.94-2,.1-1.12,6.65-2.13,0-.14-10.93-3.42.65-.89,12.92-3.75.31-.77,10.74-3.22,1.35-1-10-1.44.18-1.53-9-2.29,13.36,1.67.94.26,4.24-3.16,2.25-.19,4.81-2.18-.27h0l-.57-14.54-.59-.22L426.38,146l-5.69.51-.37-3.66,4.5-1.4-.14-9.82.05.06-1.42-.61-2.13,5,.07,0-1.37-.29.88-8.25.24-.07h0l3-1.35-.08-9.79-1.65-.85-1.41,7-3.1,1-1,15.3-2.2,1-2.16-2.12.87-5.64h0l-.36-26.4-1.25.33-1,14.22-2.21.31-.66-18.64-1.5-.49Zm46.14,80.87-.09.08.09-.08Z" style="fill:#ae9cff"/><polygon points="459.76 225.32 485.45 224.43 485.45 236.46 494.74 241.91 475.94 244.38 453.48 244.15 460.92 234.34 459.76 225.32" style="fill:#be9666"/><path d="M472.82,185.75a1.77,1.77,0,0,0-1.52,1l1.78,7.31c1.07.58,3,5.35,3.49,6.41-.64,10-.14,10.78-4.85,20l-6.8-27.83a1.6,1.6,0,0,0-2.48.15l3.09,21.13-.13-.05-8.6-21.13a1.2,1.2,0,0,0-1.69.25l.84,5.88a2.27,2.27,0,0,0-2.95,0l-.31,1.5L457,221.21l2.51,2.82c-13.14-1.54-12.2-.41-23.84-7.36l-3.7-1.19-.28-.18-3.87-5c-.95-.44-2.14-.68-2.89.22.08.38-.13,1.23.15,1.55l11.16,9.69,20.95,6.19c3.7-.27,15.09,1.08,18.11-1.71a11.64,11.64,0,0,0,4.81-.07h0l0,.13c.62.66,1.68,0,1.89-.76,0-1.84-1.08-2.46-2.49-3.33l-.68-1.42,1.35-24.39c-.22-1.15-2.62-3.31-3.41-4.09-.85-2.4-.49-6.31-4-6.53Zm-6.05,37.51.24-2a3.85,3.85,0,0,0,1.39,1.52l-1.63.51Z" style="fill:#fbff00"/><path d="M461.47,225,459.62,224l-28.14-16.21-5.66-17.16,8.93-7.13-.41-1.28h2.24l1,1.67-8.49,7.43,4.82,15.58,27.54,16.4-3.67-11L447.6,205l-4-13.63c3.34-3.85,9.72-11.86,12.72-16l-2.89-2.73H456l3.06,1c-1,3.2-10.35,14.85-12.44,17.67,5.1,16.52,4.75,13.91,15.71,26.62-2-6.72-6.34-20.09-8.81-26.62a124.43,124.43,0,0,0,10.23-11.31l5.71-3.37V174.5l1.84.39V177l-5.71,3.24-9.38,10.53,10.6,28.18-2,6.11" style="fill:#fbff00"/><path d="M457.39,225.68l-18.56-9.62-10.11-9.2L427.09,202l3.64-5.52c1.35-.86,6.34-4.39,7.89-4.58l.61,1.39a97.27,97.27,0,0,0-10.12,10.39s1.17,2.9,2.08,3.14,9.88,9.2,9.88,9.2l9.79,5.17c-2.29-3.1-9.44-13.22-12.44-15.43l-.41-4,1.22-2.93,2-1.1-1.42-1.17h2.39v1.82l-2,1.56-.61,2.34.41,3.11c3.56,3.82,15.5,15.74,19.38,19.62-2.56-3.52-7.82-11.67-10.89-14.94-.45-1.49,3.47-8.17,3.34-8.05a42.13,42.13,0,0,1-1-11l1.63.77-.4,4.13.91,3,.11,3.68c-.78,1.15-1.9,6.13-2.25,7.53l2.62,2.6,2.8,5,3.48,4.58v3.44Z" style="fill:#fbff00"/><path d="M476.1,223.8l-15.67-13.41L453,198.26l-.26-6,5.15-6.37c1.5-.86,7.41-4.7,9.09-4.84l.22,1.75a138.39,138.39,0,0,0-12.94,11.7s.35,3.63,1.18,4,7.19,12.11,7.19,12.11l8.24,7.18c-1.36-3.84-5.56-16.8-8-19.91l.73-4.93,2-3.44,2.33-1.16-1.09-1.55,2.37.22-.51,2.21-2.4,1.72-1.27,2.78-.47,3.83c2.44,4.95,10.91,20.55,13.67,25.65-1.52-4.46-4.44-14.85-6.58-19.18-.08-1.83,5.78-9.64,5.57-9.48a64.29,64.29,0,0,1,2.08-13.5l1.4,1.09-1.56,5,.07,3.68-.93,4.48c-1.09,1.34-3.6,7.31-4.33,9l1.86,3.4,1.38,6.31,2.16,5.89-1,4.18Z" style="fill:#fbff00"/><path d="M476.93,225.13l-1-1.34-15.07-20.44,1.58-19.52,8.85-7.11.13-1.46,1.63.2.19,1.94-8.64,7.49L463,202.58l14.56,20.59,1-12.47-5-9,1.65-15.45c3.76-4,11.05-12.34,14.55-16.59l-1.2-3.27,1.81.22,1.87,1.42c-1.66,3.3-12.35,15.45-14.9,18.48l-1.19,15.81,3.77,15.07c.81-7.53,2.06-22.73,2.44-30.27,3-2.74,8.58-8.56,11.18-11.63l5.27-3.24.73-2.44,1.21.59-.69,2.3-5.23,3.1-10.3,10.83-1.65,32.16-3.5,6.59" style="fill:#fbff00"/><path d="M468.6,226.7l.16,5.44L464,238.35l-8.41,2.54-9.71.37-1.07-1.47,1.17-1.12c1.18.4,3.77,1.31,5,.8a37.46,37.46,0,0,0,9.92-1.18c1.76-1.19,4.56-4.63,5.76-6.38.17-1.07.51-3.42.67-4.51l1.35-.84" style="fill:#fbff00"/><path d="M476.13,226.4l5.89,5.35,2.73,5.67-2.73,1h-4.87c-1.59-1.77-4.12-4.37-5.89-6l1.07-.86c.34.52,1.15,1.84,1.48,2.39l4.2,3.48a3.56,3.56,0,0,0,2.13-.71c.73-.14,2-.74,2.65-.9-.21-1-1.88-1.73-2.26-2.64-1.16-2.53-4.53-5-6.72-6.58l2.7-.88Z" style="fill:#fbff00"/><path d="M460.87,227l1.65,3.25-2.75,3.71a126.18,126.18,0,0,1-14.94-.61c-.41-.61-1.5-2.41-2.23-2.64l.54-.41,1.15.18c-.14,1,.89,2,1.69,2.45,4.42.1,9.49,1.39,13.79-.22l.58-1.59a3.26,3.26,0,0,0,1.13-1.8,4.64,4.64,0,0,1-1.71-2Z" style="fill:#fbff00"/><path d="M456,225.68c-9.41,6.85-9.77,5.93-20.67,8.23l-14.73-3.48-.87.46v-.46l1-.81c.59.38,5,1.08,5.79,1.23a24.71,24.71,0,0,0,8,.94l1.48.91L442,232a28.66,28.66,0,0,0,6.55-2.87A14.19,14.19,0,0,1,456,225.68Z" style="fill:#fbff00"/><path d="M451.91,225.42S435,228.26,434.37,228s-15.89,0-15.89,0l-5.21-2.29v-3.44l-1.24-1,1.24-1.31,4.52-.41c.08.94-2.19,2.74-2.75,3.31,2.78,2.94,9.1,3.3,12.84,3.74,2.17.07,7.29.13,9.25-.88C440.47,226.28,448.84,224.48,451.91,225.42Z" style="fill:#fbff00"/><path d="M475.94,224.21s3.9-11.51,4.9-12.33,9.41-10.82,10.17-11.2c8.2-2.74,24-2.31,31.85-4.35,3.52-3.48,9.56-7.86,11.74-12.47h2.92v2.86s-2.55,4.53-2.92,5.1c-1.38,2.78-8.81,6.37-11,7.29,0,0-3.79-.82-4.8,0s-7.16.63-8.76,1.57-7.93,1.51-7.93,1.51l-6.28-1.51c-4.73,3.06-9.25,8.87-12.82,13-.57,1.92-3,5.29-4.29,6.79l5.95-1.89,6.07-3.39s2.78-5.48,3.54-5.57,2.78-2,3.54-2.36,4.29-1.32,4.29-1.32c4.88.48,13.38,1.29,19.47,2.28,6.35-1.94,12.67-6.93,16.93-11.91l4.55-1.32,2-2.26v-3.2l1.77-1.23,1.91,3.3a23.59,23.59,0,0,1-4.95,6.3c-1.86.38-5.56,1.59-7.08,2.76L535.5,204c-3.3,2.57-9,4.21-12.89,5.6H510.06l-3.38-1.4a82,82,0,0,0-10.83,3.64c-.85,1.43-3.05,4.44-4.08,5.78l-5.56,4.14h-5.37L478,224.43c5.24,1.21,15.66-1.79,19.88-5.26,2.36-1.34,1.92-4,5.3-4.72,13.26-1.28,8.14-4.83,17.27-11.69l1.44-.19.51,1.57-3,2.58-2.78,5.16c-1.72,1-5.72,2.89-7.58,3.7l-4,.76-3.79,1.88-2.53,3.58c-4,1.13-10.25,4.76-14.15,4.19,0,0,.79.16-1.41,0s4.19,3,4.19,3,8.09.76,9.86,0a29.89,29.89,0,0,0,9.6-6.22c.51-1.13,2.7-1.32,3.38-1.7a3.67,3.67,0,0,1,2.3-.87c1.4-.07,3.68-3.09,3.68-3.09l1.51.19-1,2.9a49.85,49.85,0,0,0-7.83,3.53,83.69,83.69,0,0,1-7.34,5.6l-5.52,1.93c-1.27-.22-7.05.2-8.38,0C484.49,230.29,478.47,226.07,475.94,224.21Z" style="fill:#fbff00"/><path d="M472.68,222.24l21.73-26.32c3.24-2.54,8.23-5.73,11.86-8.46,6.49-6,1.19-8.06,3.45-11.79a23,23,0,0,0,4.39-3v6.18l-1.75,6.89-4.21,4.31c-2.56,1.54-8.89,5.36-11,7.4-3.06,6.23-8.82,14.36-14.24,18.77l-.13,2.6,20.62-9.69c.74-1.72,2.1-4.89,2.85-6.62,0,0,1.88-7.66,2.2-7.86,5.63-6.74,16.26-5.45,13.81-17l2.51-1c0,6.83.61,6.61-2.82,12.79-3,1.54-8.77,4.76-11.62,6.46a3.64,3.64,0,0,0-.63,2.93c-5.65,8.75-21.06,17.19-28.88,23L472.68,224v-1.78Z" style="fill:#fbff00"/><path d="M473.41,209.62,485,197.87c1.78-1.16,4.51-2.62,6.49-3.85,4.64-3.88-2-3.6,4-6.53,0,.45.15,2.19.19,2.68l-.79,3c-1.95,2.16-6,3.61-8.3,5.31a27.79,27.79,0,0,1-7.53,8.37V208l11.44-4.53,1.42-2.92c.53-7.72,10.26-4.22,8.37-11l1.4-.48c0,.62.17,2.48.21,3.12l-1.44,2.47c-1.62.71-4.83,2.2-6.41,3a1.27,1.27,0,0,0-.27,1.28c.24.79-6.79,5.34-6.79,5.34l-9,5.06-4.57,1.09Z" style="fill:#fbff00"/><path d="M479.7,225.61l21.47-6.73,13.09-7.53,3.28-4.47L515.93,201c-1-1.05-4.65-5.19-6.08-5.59l-1.08,1.27A72.43,72.43,0,0,1,515,208.24c-1.43,2.49-14.2,8.71-16,10.32l-11.35,3.64c3.31-2.68,13.84-11.54,17.55-13.26l1.81-3.87-.16-3-1.6-1.36,1.8-.94-2.34-.34-.64,1.77,1.39,1.8-.22,2.37-1.5,3c-4.8,3.21-20.64,13.12-25.78,16.35,3.73-3.07,11.73-10.26,15.86-13,1-1.16-.52-8.48-.42-8.32a49.15,49.15,0,0,0,4.87-10.6l-1.86.52-1.06,4.09-1.93,2.75-1.4,3.57c.36,1.29-.32,6.3-.46,7.66-2.3,1-6.26,4.76-8,6.61l-5,4-1.21,3.35Z" style="fill:#fbff00"/><path d="M466.17,222.33l.31,3.33-2.83,3.72-5.38,1.42-6.3.07-.76-.92.72-.66c.73.25,2.52.86,3.28.57a25.18,25.18,0,0,0,6.41-.57,17,17,0,0,0,3.5-3.81c.07-.65.2-2.08.26-2.74l.85-.5" style="fill:#fbff00"/><path d="M452.2,220.41l-5.09,6.47-6.69,3.72-2.29-2.22L436.34,224c1.78-1.79,4.36-4.61,6-6.61l1.57.76c-.59.43-2.08,1.44-2.71,1.86L438,224.58l.39.82a11.87,11.87,0,0,1,2.61,2.24c.3.07.75.61.94.84.54.07,1.54-1.45,1.73-1.76l1-.86c2.68-1.37,5-4.93,6.45-7.48l2.19,2.2Z" style="fill:#fbff00"/><path d="M483.13,225.43l23.9.68,17.16-2.59,6.25-2.92,3-5.66c-.13-1.2-.13-5.88-1.11-6.76l-1.92.78a60.86,60.86,0,0,1-3.29,12c-2.89,1.69-18.95,3.28-21.82,4.15l-12.7-.29,18.61-5.05,6.79-1.2,4.51-2.83,2.14-2.7-.37-1.69,2.28-.27-1.79-1-1.89,1.35-.15,2c-1,1.39-4,3.36-5.54,4.16-6.64,1.35-28,5.18-35,6.44l16.47-4.74c1.6-.84,7.88-.88,9.38-3.85,1.75-2.2,3.8-5.38,3.8-5.38a96.34,96.34,0,0,0,12.27-7.8l-2-.12a28.34,28.34,0,0,1-7.78,5.09l-3.92,2.7c-.72,1.29-5.09,5.47-6.19,6.58-2.9.19-9.22,2.31-12,3.36l-7.38,1.94-3.59,2.57Z" style="fill:#fbff00"/><path d="M481.68,220.94S475.38,209,475.4,208s-2.18-12.4-2-12.93c3.46-4.52,13.7-7.16,17.41-10.91-.19-2-.33-7.51-.38-9.57l-1.54-4.91,1.9-.61c2,1.86,3.29,5.34,4.21,8.28,1.13,2.89-.49,7.16-1.56,9.33,0,0-3.1,0-3.13,1s-4.18,2.12-4.5,3.37-4,3.12-4,3.12l-5.25-.13c-.74,4.64.9,10.8,1.64,15.24a29.6,29.6,0,0,1,2.42,7.44l2.43-3.07,1.35-4.55s-2.4-5.85-2-6.1.29-2.5.49-3a15.53,15.53,0,0,1,1.79-2.18c3.62-.58,9.81-1.59,14.43-1.91l2.06-3.65a38.13,38.13,0,0,0-.17-11.39l2-2.22-.42-2.61L500.13,173l.2-1.56,3.79,2.78a22.28,22.28,0,0,1,1.61,7.1l-1.88,2-.61,2.11L505,189c-.08,2.86-2.53,5.89-4.1,8.12l-8.18,2.64-3.28-.63a25.61,25.61,0,0,0-4.26,5.79c.53,1.49,1.41,4.86,1.78,6.42l-.44,5.16-3.5,1.13.15,3.14a19.6,19.6,0,0,0,4.88-1.58c1.53-.93,2.58-4,3.08-4.18s.72-2.74.94-3.5c.56-1.59-1.83-4.34-.16-5.66,7.86-4.45,1.55-5.87,2.27-14.9l.79-.48,1.54,1.41V195l2.16,5.55a35,35,0,0,1-2.1,5.17l-2.06,1.58-1,2.61,1.1,4c-.79.57-3.19,5.51-3.55,5.94l-2.45,1.08s.64,0-.92.3,5,2,5,2,5.85-1,6.43-2.08,1.71-3.57,1.31-4.33.7-2.49.16-3.69.75-1.84.9-2.35,0-1,.83-1.33,0-3.74,0-3.74l1.14-.14,1.56,3c-.57.35-2.34,4.44-2.39,5.06-.08,1.39.08,2.57-.12,4.26-.14.6-.35,2.68-.35,2.68l-2.12,3c-1,.06-4.44,1.67-5.46,1.76C491.64,224.91,484.49,222.08,481.68,220.94Z" style="fill:#fbff00"/><polygon points="65.57 262.89 88.13 151.05 84.79 148.86 61.67 263.76 65.57 262.89" style="fill:#a1ff8a"/><polygon points="88.44 222.79 61.4 262.29 64.84 264.32 92.3 223.84 88.44 222.79 88.44 222.79" style="fill:#a1ff8a"/><polygon points="111.25 243.27 90.23 242.84 74.25 249.19 76.46 252.51 113.46 246.6 111.25 243.27 111.25 243.27" style="fill:#a1ff8a"/><polygon points="85.73 236.31 81.62 228.93 79.17 227.53 77.77 229.98 82.27 238.29 85 239.03 85.73 236.31 85.73 236.31" style="fill:#a1ff8a"/><polygon points="64 249.13 55.67 234.77 53.23 177.49 49.38 178.53 61.97 252.57 64 249.13 64 249.13" style="fill:#a1ff8a"/><polygon points="53.73 229.58 30.95 207.7 28.1 210.5 51.7 233.02 53.73 229.58 53.73 229.58" style="fill:#a1ff8a"/><polygon points="43.84 218.86 43.25 204.85 39.4 203.8 39.99 219.9 43.84 218.86" style="fill:#a1ff8a"/><polygon points="59.14 207.35 52.42 214.97 54.4 218.44 62.58 209.38 59.14 207.35 59.14 207.35" style="fill:#a1ff8a"/><polygon points="62.26 179.64 58.27 179.66 53.81 198.98 56.61 201.82 62.26 179.64 62.26 179.64" style="fill:#a1ff8a"/><polygon points="96.01 192.63 88.71 200.79 79.52 205.44 67.96 218.27 71.4 220.31 99.45 194.66 96.01 192.63 96.01 192.63" style="fill:#a1ff8a"/><polygon points="78.86 223.4 75.44 221.34 63.45 236.73 66.88 238.79 78.86 223.4 78.86 223.4" style="fill:#a1ff8a"/><polygon points="102.85 148.27 98.86 148.29 91.46 170.88 77.19 186.61 81.04 187.66 96.9 169.7 102.85 148.27 102.85 148.27" style="fill:#a1ff8a"/><polygon points="77.03 201.96 72.61 183.88 68.61 183.89 73.04 201.98 77.03 201.96" style="fill:#a1ff8a"/><path d="M44.09,101.65c6.75,19-9.6,37.13-5.84,56.7,7.11,19.18,13.86,38.49,1.12,57.24-9.88,9.76,14.46,46.23-2.89,36.42-13.16-25,4.14-44.86,2.87-68.83C26,147.9,32.23,135,44.09,101.65Z" style="fill:#6c9b52"/><path d="M16.44,97.32c12.32,15.89,11.79,27.44,8.69,46.22-1.69,13.76,5.51,27.44,2.09,40.73-5.32,8-4.43,15.52-2.84,24.17C24,220.15,17.62,231.56,22.9,243c0,5,6.8,10.81,4.22,14.62-1.64,1.79-2.84.74-3.41-.81-12.22-8.1-5.66-66.31-1.09-80.2-.94-19.58-2.91-38.76-.67-58.34.28-7.5-8.08-13.94-5.51-21Z" style="fill:#6c9b52"/><path d="M5.49,104.3a168.79,168.79,0,0,1,7.24,61.55c-.28,9.23-7.11,17.06-5.71,26.47,5.39,15.71,6.08,27.79,3.84,44.17-.64,5.69,8.32,14.55,2.22,18.14-13.53-6.71-6.48-25.11-5.79-36.95,1.35-8.89-4.52-16.27-5.72-24.75C.29,180.44,10,169.87,8.7,157.21,10.26,139.87,3.31,120,5.49,104.3Z" style="fill:#6c9b52"/><path d="M43.7,101.23c-.92,12.35-8.51,24.57-11.11,36.84-3.24,17.73,5.86,33.52,8.71,50.36-2.53,19.65-15.57,38.71-6.46,58.66,1,1.82,3,7.32,5.58,5.55,1.3,3-5,2.14-5.93.26-11.71-20.6,1.78-42.44,1.57-63.77-1-14.91-7.44-28.95-5.69-44.16.68-15.21,6.66-30.45,13.33-43.74Z" style="fill:#638c49"/><path d="M15.92,97.09c-1,7.27,5.3,13.06,6,20.42-.6,17.09-1.15,34.19,2.23,51.25,1.51,10.73-4.77,19.76-4.59,30.31,1.12,18.72-4.93,42.74,5.14,59.23-12.19-7.23-9.53-57-5.55-77.88.66-20.24.14-40.63.63-60.87-.74-7.66-7-14.86-3.82-22.46Z" style="fill:#638c49"/><path d="M4.73,104.19C5,122.78,10,142,8.53,161c.31,9.89-6.52,18.2-7.1,27.89-.28,4.59,1.19,9,2.72,13.26,9.66,16-6.5,37,7,51.35,1.94,2.06-7.16-.41-7.57-10-1.46-10.58,1.28-21.45-.07-32C2.35,203.28-.92,195.28.25,187c11.55-29.44,2.08-54,4.48-82.76Z" style="fill:#638c49"/><path d="M122.88,232.7c-.09.25-.11.53-.33.7Z" style="fill:#735661"/><path d="M118.11,251.05l-.11-.31.09-.4Z" style="fill:#735661"/><path d="M117.78,235.49l-.13-.05a28.54,28.54,0,0,1-2.36-3.86Z" style="fill:#735661"/><path d="M115.29,231.58l-3.81-6C111.9,226.3,115.26,230.87,115.29,231.58Z" style="fill:#735661"/><polygon points="131.61 241.54 131.1 241.51 131.27 241.41 131.61 241.54" style="fill:#735661"/><polygon points="119.2 234.48 119.05 234.94 119.08 234.19 119.2 234.48" style="fill:#735661"/><path d="M117.78,235.49s-1-.36-1.06-.39c-.24-.59-1.2-3-1.43-3.52Z" style="fill:#735661"/><path d="M117,233.71a23.27,23.27,0,0,1-3.38-6.11A25.32,25.32,0,0,1,117,233.71Z" style="fill:#735661"/><polygon points="113.45 244.23 113.45 244.24 113.37 244.3 113.45 244.23" style="fill:#735661"/><path d="M113.2,245.81l0,.25-.44.43S113.19,245.84,113.2,245.81Z" style="fill:#735661"/><path d="M113.19,245.83l0,.23,0-.25Zm4.9,4.51s0,.69,0,.71Zm4.46-16.94c.22-.17.24-.45.33-.7Zm0,0c.22-.17.24-.45.33-.7Z" style="fill:#735661"/><path d="M140.44,244.71l-8.83-3.17-.51,0,.17-.1c.38.33,29.57,1.63,30,1.76l-27.09-3.43.85-.48,28,3-27.35-3.38,10.75-6.17,21-5-19.63,4.21,11.31-6.5c-2.86,1.35-14.92,8.14-18,7.94L158,223.57l-22.48,11-2,.42,24.63-11.87-28.61,11.23L131,233l24.74-10.88-23.85,10.07,10.2-9.36,13.34-9.37-12,8.12L155.05,211c-7.44,7.13-23.81,19.53-32.61,24.9l.17-.79L146.06,209l-22.92,23.79.3-1.28,13.24-28.3-13,26.74c2.86-9.91,7.74-27.61,8.46-30.22l-5.87,19.43L130,202.84c-1.6,5-6.36,27.92-8.88,32-.68-3.39,7.52-27.06,8.53-30.73L122,226.29,125,198.44l-3.67,30-1,2.83.41-31.61-1.17,24.6-1.37-25.54c.23,4.43,1.32,32.11,1,35.77l-.16.46c.68-.8-16.52-39-16.5-39.71l15.25,38.3-2.27-3.27,1.52,3.45-2.16-3.15c.11.73,2.5,4.25,2.91,4.93-3.64-.4-23.26-12.28-26.76-14.14l19,11.38-20.38-7.28,22.66,10.47-23.1-5.74L112.79,237l-7.66.23,4.75.52-4.6,0,3.85.48-19.94,2.49L107,239.47c-3.16,1.52-22.43,2.21-26.19,2.53l19.25-.89-24.42,5.75c4.22-.72,31.53-7,35.2-6.25l-9.27,3.66-19.36,4.36L100,244.9l-10.81,4.27,6.57-1.94L80,254.3c4.09-1.49,30.09-11.76,33.74-12.37l-.14.1h0L91.73,257.12l11.83-7.1-17,12.79c1.91-1.32,23.06-16.91,24.46-17.29l-21.4,19.85c.07-.07,23.74-21.07,23.8-21.14h0c-.06,0-21.83,22.66-21.89,22.7l21.15-20.45.48-.68v0l0,.25c-2.21,4-14.88,16-18.35,19.29l13.6-12.82-15.74,22L112.12,249l.71-.91c.83,3.05-10.75,26-12,29.15l10.42-19.62c.36,1.69-6.26,19.19-6.88,21.2l6-15.71-2.6,16.08c.31-6.27,7.43-23.62,9.8-29.56l0,.06-6.19,29.62c.14-.55,6.53-28.45,6.67-29l0,.71v0a261.08,261.08,0,0,1-.22,28.12l.75-9L119,281.7c.1-4.5.26-21.84.89-26l8.38,22.72-8.11-26.09.13-1.51,10,26.81-6.62-22.47,7.1,22.6c-2-6.75-5.54-20.85-7.15-27.75l11.82,29.6L122.56,245l20.57,31.8-17.51-29,22.59,24.42-16.59-19.7,16.28,15.91-20.19-22.74-.94-1.05,1.72,1.05,26,15.85-24-15.87,5.85,0,19,7.87-17.76-7.88h.68l20.54,5.68-15.92-5.72,20.4-.15Zm-17.56-12c-.09.25-.11.53-.33.7Z" style="fill:#735661"/><polygon points="113.67 227.6 115.52 230.26 105.19 206.82 113.67 227.6" style="fill:#735661"/><path d="M105.28,237.79c-1.69-.85-23.5.2-25.88.19Z" style="fill:#735661"/><path d="M101.68,237.34l3.45-.1C94,236,80.74,234.7,80.48,234.67Z" style="fill:#735661"/><path d="M114.87,230.56c.13-1.8-11.5-17.55-12.62-19.34C104.59,214.86,112.46,227.3,114.87,230.56Z" style="fill:#735661"/><path d="M115.29,231.58c-2.4-4.05-12.85-19.07-15.7-23.22l16,24Z" style="fill:#735661"/><polygon points="131.61 241.54 131.1 241.51 131.27 241.41 131.61 241.54" style="fill:#735661"/><path d="M117,233.71a23.27,23.27,0,0,1-3.38-6.11A25.32,25.32,0,0,1,117,233.71Z" style="fill:#735661"/><polygon points="113.45 244.23 113.45 244.24 113.37 244.3 113.45 244.23" style="fill:#735661"/><path d="M113.2,245.81l0,.25-.44.43S113.19,245.84,113.2,245.81Z" style="fill:#735661"/><path d="M115.29,231.58l-3.81-6C111.9,226.3,115.26,230.87,115.29,231.58Z" style="fill:#735661"/><path d="M110.82,240.61l-3.07,1.21C108,241.74,110.58,240.43,110.82,240.61Z" style="fill:#735661"/><path d="M109.88,237.76a44.82,44.82,0,0,1-8.2-.42A41.26,41.26,0,0,1,109.88,237.76Z" style="fill:#735661"/><path d="M144.19,265l-3-3.08C141.82,262.48,143.7,264.28,144.19,265Z" style="fill:#735661"/><polygon points="128.49 245.69 127.71 245.69 126.77 244.64 128.49 245.69" style="fill:#735661"/><path d="M124.26,227.9a9.62,9.62,0,0,1-.59,2Z" style="fill:#735661"/><path d="M122.88,232.7c-.09.25-.11.53-.33.7Z" style="fill:#735661"/><polygon points="119.2 234.48 119.05 234.94 119.08 234.19 119.2 234.48" style="fill:#735661"/><path d="M113.75,241.93l-.13.1-.7.15Z" style="fill:#735661"/><polygon points="112.83 248.09 112.78 248.4 112.13 249.01 112.83 248.09" style="fill:#735661"/><path d="M109.88,237.76a44.82,44.82,0,0,1-8.2-.42A41.26,41.26,0,0,1,109.88,237.76Z" style="fill:#735661"/><path d="M259,0c-17.29,67.72,3,146.59-19,208.29,26.69-48.08,11.67-102,14.76-153.68C252.65,39.27,267.61,6.71,259,0Z" style="fill:#fabe68"/><path d="M248.51,181.29c6.45-.89,28.07-8.46,24.6-15.34-5,6-28,9.73-24.6,15.34Z" style="fill:#fabe68"/><path d="M253.93,164.54c6.63-2.83,29.69-21.91,19.45-26.09-.44,10.46-24,21.35-19.45,26.09Z" style="fill:#fabe68"/><path d="M257,148.48c5.3-5,18-25.78,9.35-29,1.67,8.08-14.92,28.82-9.35,29Z" style="fill:#fabe68"/><path d="M256.38,120C255.93,108,275,90.89,271,84.18c-7,5.75-22.88,33.36-14.62,35.82Z" style="fill:#fabe68"/><path d="M253.53,90C250.61,77.48,273,61.48,268.76,54.66c-7.86,4-26.3,37.56-15.23,35.34Z" style="fill:#fabe68"/><path d="M254.1,59.54C256.17,49.77,282,31,271.92,24.91c-1.54,9.83-27.71,30.94-17.82,34.63Z" style="fill:#fabe68"/><path d="M256.92,32.06C260.3,27.94,275,10.55,267,9c-1.22,6.16-15.1,21.09-10.12,23.08Z" style="fill:#fabe68"/><path d="M248.71,177.67c-6.23-4.36-1.75-21.64-8-20.66-4.19,4.43,3.89,29.22,8,20.66Z" style="fill:#fabe68"/><path d="M254,156.49c-3.87-3.82-11.27-25.07-15.79-18.26,2.51,4.05,13.37,26.64,15.79,18.26Z" style="fill:#fabe68"/><path d="M255.11,137c-10-2.52-8-23.92-14.5-21.93-5.13,7,13.2,32.58,14.5,21.93Z" style="fill:#fabe68"/><path d="M253.11,112.72c-6.64-1.35-13.43-20.37-17.67-14.51-.09,5.15,17.72,23.43,17.67,14.51Z" style="fill:#fabe68"/><path d="M252.19,90.7c-4.79-4.22-6.22-10.39-8.31-16.06-10-2.11,7.5,27.32,8.31,16.06Z" style="fill:#fabe68"/><path d="M252.19,61.62c-7.55-2.92-5.95-22.26-12.62-19.76-2.74,5.72,11.23,30.65,12.62,19.76Z" style="fill:#fabe68"/><path d="M253.93,34.59c-7.15-4.11-3-13.27-5-19.46-11-2.75,3.21,34.2,5,19.46Z" style="fill:#fabe68"/><path d="M238.92,200.44c-41.41-25.25-44.53-91.24-41.06-135.6-20.3,10.7,10.26,151,41.06,135.6Z" style="fill:#fabe68"/><path d="M240.14,200.36c-3.32-5.42-4.14-11.56-5.26-17.62-9.28-4.94,1.75,28.63,5.26,17.62Z" style="fill:#fabe68"/><path d="M226.14,192.12c-3-5.77-2.12-12.18-2.61-18.31-9-4.67-1.56,29.38,2.61,18.31Z" style="fill:#fabe68"/><path d="M215.74,174.64c-2.7-5.76,8.14-22.43,1-21.93-3.68,3.23-8.22,27.94-1,21.93Z" style="fill:#fabe68"/><path d="M207.74,155.78c.19-4.91,10.31-18.13,4.22-19.22-2,3.33-11.06,21.87-4.22,19.22Z" style="fill:#fabe68"/><path d="M202.74,138.68c-1-6.58,4.47-11.22,6.27-16.9-5.72-7.23-14.73,25.25-6.27,16.9Z" style="fill:#fabe68"/><path d="M197.26,112.46c2.06-5.88,6.21-10.6,9.44-15.78-2.41-8.56-18.74,20.81-9.44,15.78Z" style="fill:#fabe68"/><path d="M196.88,94.16c.59-5.24,4.58-8.84,7.18-13-3.62-8.44-16.22,19.44-7.18,13Z" style="fill:#fabe68"/><path d="M196.27,76.51c2-3.07,5.36-5.63,6.59-9.13-1.36-6.92-14.83,12.89-6.59,9.13Z" style="fill:#fabe68"/><path d="M181.76,63c-1.25,5.33,9.08,22.46,12.45,14.63-6.6-1.74-7.9-19.45-12.45-14.63Z" style="fill:#fabe68"/><path d="M182.77,86.26c1.86,3.1,9.84,15.86,12.53,9.57C192.37,94,184,79.92,182.77,86.26Z" style="fill:#fabe68"/><path d="M184.74,105.79c.45,4.56,7.35,18,12.17,12.72-3.47-1.79-10.67-19.89-12.17-12.72Z" style="fill:#fabe68"/><path d="M186.4,132.28c.53,4.41,15.7,13.95,13,5.79-4.95.82-11.81-12.72-13-5.79Z" style="fill:#fabe68"/><path d="M193.08,154c1.68,4.75,17.45,6.74,13.07.34-4.47,3.17-13.88-7.07-13.07-.34Z" style="fill:#fabe68"/><path d="M193.7,168.35c3,3.76,17,10.14,17.46,2.86-4.35,1-19.73-9.37-17.46-2.86Z" style="fill:#fabe68"/><path d="M204.33,183.84c2.39,2,14.17,8.41,12.55,1.74-2.87-.58-15.46-8.8-12.55-1.74Z" style="fill:#fabe68"/><path d="M213.84,199.5c3.08,1.38,16.32,4.45,13.67-1.6-3.12.31-18.41-4.67-13.67,1.6Z" style="fill:#fabe68"/><path d="M113.81,115.52l-1.55.65.38,20.57-1.88-2-1.12.55,27.61,49.66-26.19-31.29-1.13,1-.17,1.16-7.4-24-1.53.77,3.4,16.7L98,133.53l-1.53,1.71,2.71,12.48-4.15-11.94-.54-.13L113.05,170l-6-8.3-.88.3,4.25,11-9.08-13.81-1.5.51,3.34,8.81-9.43-15.07-.77.46,3.9,9.46-9.63-11.48-.79.3,11.76,18.36L84.75,159.66l-1.17.51,1.76,7.36L139,192.9l-19.84-10-3.33,1.4,1.3,3.46,10.29,5.68-3,.58-14-9-.7.72,55,21.89-26.3-5.81-.33.72,1.22,2.32-.05.09-6.84-4.56L131,201.61l-.1,1-8.72-4.13-.51.56,2.23,2.82-7.9-7.11-1.25.85.19,2.32-4-4.72-.82-.12.54,4.52-4.2-4.64-.39.08,1.36,6.61,9.23,4.72-3-.28-.29,2,25.11,2.57,0,.09h-8.35l0,1.44,25.63.71.34,1.49,19.28,4.91-5.91,11.28,17-.29,2.76-8.12,6.15-1.92,2.41-4.09,25-6-2.08-3.08L207,208.67l-.07-.27,37.37-21.77-1.22-2.08-2.82.63,3.12-3.55-1-1.38-1.73,0-13.53,14.34,6.76-6.38V187l-1.84-.84-31.61,18.51,18.48-12.85-.16-.37,19.53-12.69-.72-1.62-18,7.72,28.19-17.22,0-.86L235.59,170l25.06-12.16-.33-1.28-10.16,3.09L265,146.82l-1.07-.95-23.21,16.84-.57-.19L257.82,134l-1.62-1.13-11.72,22-.75-.24,7.6-23.29-2,.11L246,144.39l-1.05-5.24-2.5,3.22.14,2.19-3.87,2.89-4.4,18.88-2.44,1.25,6.77-39.68-1.59.31-9.86,36.87-.48-.67,3.37-30-.91-.43-2.31,1.1-4.38,33.35-1.29-5.12-3.48,16.9h-.41l3.56-37.89-.62,0-3.39,10,1.66-14.55-.84-.15L216,138.93l-2.83,42.13v0l-1.37,6.21.55-35.52-.74-.32-2.51,7.93-1.22-22.46-1.3.45-.46,55.11-.18.17-5.73-37.69-1,.3-.41,43.38-.33,0-.55-.51-2.52-32.54-1.07-.48L191,202.39l-1-.49,1.24-31.15-.75-.36-.93.54-1.09-3-1.6-.39-1.34.87,1.2,4-1.7,3.28,2.48,2.93-1,.58-.86,2.45,1.5,3.39-1.35,2.2,1.28,3.65-1.48-1.28-.83.12.94,13.35-1.48-7.63-.8-.43-4.33,8.21-.67-.64,5.66-22-1-.48L176.66,192l-.28-.24,3.68-16.66-1.05,0-3.85,9.1-.54.09,4.64-17.83-1.14-.7-5.25,8.75L179,156.9l-1.73-1-4.18,8.62-.54-7.21,5.6-5.69-.09-4.43-1-.62-1.11.28-1.23,2.29-3.43-17.74-1.6.17L169,146.82l-2.4,0,.22,12.77-.86-1.15-2,.35.29,8.62-1-.25-2,1.13,9.51,18.58L162.36,175l-2.19,1.1,14.37,27.72-.43.39-8.85-12.69L163.72,193l-.65-.19-2.27-8.19-.74.36-.73,2.28-1.07-.11.92-6.18-1.2-.26-2.8,3.59,3-33.89-2.38-.35.58,10.85v-.05h0L153.28,150l-1.77.15,2,23.87-.3.16-1.1-.31-3.84-14.71h-.12L147,169.54,148.8,137l-.94-.23-1.09.53-.15,13.37L146.07,127l-.69-.23-1,1-.22,5.12-.66-13.44-1.69-1.64-1.24.56,1.5,37.35-6.88-26.24-1.55,3.06-.81-5.7-1.83.16L135,150.3l-2.23-2.09-1.4.08-1.27,2.79,12.9,18.1L138.9,168l-.61,1.07,9.37,9.54v-.05h0l-3.58-2.06-1.45,1,23.08,25.71-11.22-7.72L153,197l-3.89-11.16L147.3,190l-2.89-6.56-.78.42-.35,3.26-4.78-13.87-1.36.35,1.46,5.92-6.95-15.06-1.24-.08-1,1.13.6,4.13-.78-.29-2.52-16.17-.91.4-.89,5.46-.51-.27-1.63-19.16-1.2-.84-.76.56-.21,8.14-2.5-19-.89.8-.12,5.76-.09.1L115,116.57l-1.22-1Zm1,28.54L113,137.69l1.84,6.37Zm33.54,4.08L147.88,138l.34.1.14,10Zm67.46.9,1.58-9.81.29-.16-1.87,10Zm35.68,8.06,12.24-9.8-1.11,3.49L251.5,157.1Zm-80.79-5.87-.86-3.49,1.19,1.51-.33,2Zm-39.52,15.53-.4-.9.14-.12.26,1Zm35.09,3.46-.9-1.69,1,.68-.09,1Zm-46.61,6.45-5.85-5.41,6.07,5.36-.22,0Zm62,11.19,1.61-6.37-1.61,6.37Zm57.76-4.36,1-1.44,1.15-.26-2.13,1.7ZM146.3,196.59l-4.55-2,5.17,1-.4.9-.22.07Z" style="fill:#b17777"/><polygon points="305.72 108.72 303.71 130.31 302.58 129.83 299.22 114.61 297.76 115.51 300.57 145.74 292.22 151.03 290.84 119.75 288.83 117.75 287.49 117.92 285.81 135.36 282.13 115.04 279.96 114.64 286.16 157.23 279.58 159.75 274.69 153.86 274.76 153.93 279.82 149.83 279.64 137.74 277.55 135.95 276.15 136.65 274.62 146.72 274.1 146.8 273.48 146.09 271.12 113.38 270.07 113.89 269.08 131.54 269.14 131.53 268.45 135.81 268.18 136.05 267.94 136.01 263.97 115.86 262.76 115.56 260.82 124.17 256.95 111.14 256.4 111 254.98 112.02 256.91 128.41 260.55 131.48 261.64 138.08 267.99 142.86 269.8 158.02 271.59 160.05 271.64 159.98 281.29 194.75 271.13 161.28 269.8 160.37 268.54 160.99 267.38 173.73 267.14 173.93 263.94 171.98 261.89 160.04 260.56 158.96 258.14 163.22 259.55 173.97 268.56 181.29 268.83 184.78 255.81 175.66 253.74 157.36 258.16 151.52 256.74 136.41 255.77 136.03 254.38 137.3 252.07 150.86 250.48 120.45 249.19 119.93 247.6 120.98 247.19 129.88 246.23 129.58 242.41 118.59 240.91 119.71 240.94 133.75 246.98 137.41 247.57 159.72 246.56 158.69 244.19 138.16 243.56 138.18 244.59 163.7 248.87 166.67 248.95 173.11 242.38 168.09 239.88 142.04 238.61 140.91 236.67 142.18 235.74 145.36 235.81 145.37 235.71 162.51 235.08 162.01 233.53 131.81 231.66 131.86 230.1 148.74 228.07 129.29 226.29 127.42 224 129.35 238.56 173.85 277.75 199.94 283.54 229.58 287.97 229.85 288.82 229.06 289.48 229.42 290.22 229.04 292.34 202.21 292.33 202.22 292.35 202.19 292.35 202.2 293.5 200.72 293.5 200.72 293.58 200.64 293.57 200.65 308.81 191.05 308.44 191.24 314.45 187.75 314.42 187.77 314.78 187.58 314.66 187.65 320.93 183.9 320.57 184.08 344 161.66 345.64 152.47 345.61 152.72 345.54 151.05 345.57 151.14 345.26 149.98 342.85 149.85 340.66 153.04 340.66 153.02 338.47 159.61 338.11 159.55 338.51 156 338.49 156.15 344.56 145.6 344.55 145.61 347.13 143.8 347.07 143.85 347.17 143.76 347.15 143.78 351.51 133 351.5 133.14 351.79 131.06 351.77 131.2 351.88 130.31 351.88 130.33 351.95 129.25 351.94 129.31 351.96 129.17 351.96 129.2 352.11 121.7 352.11 121.7 351.23 118.85 349.41 118.84 347.43 125.56 347.47 125.19 347.25 126.89 347.29 126.53 346.86 135.76 346.86 135.75 346.85 135.86 346.85 135.82 345.78 139.54 345.81 139.48 345.79 139.52 345.83 139.46 345.24 140.23 345.42 140.06 344.83 140.6 344.85 140.57 342.17 140.99 340.88 127.99 340.87 128.13 341.06 124.68 341.06 124.72 340.93 115.24 338.33 113.42 337.29 114.55 337.29 114.53 336.84 115.71 336.99 115.27 336.86 123.72 336.86 123.67 336.67 137.74 336.68 137.69 336.93 143.24 336.91 143.09 337.29 153.23 336.54 153.78 335.91 153.54 335.92 153.54 335.09 145.6 335.14 145.69 334.89 145.24 334.9 145.26 334.54 144.71 334.07 145.13 334.14 145.01 333.53 145.97 333.6 145.86 330 169.11 334.94 140.82 334.94 140.85 334.94 123.64 334.99 123.77 333.86 122.85 333.86 122.86 333.77 122.81 330.49 141.9 329.03 131.13 327.66 130.91 325.58 149.26 325.6 149.22 324.19 149.99 323.52 149.25 323.52 149.26 323.28 148.67 323.28 148.67 323.28 148.66 323.27 148.66 323.04 144.19 323.04 144.21 322.02 140.79 320.92 141.05 320.38 142.71 320.38 142.67 320.38 142.73 320.38 142.72 323.3 173.09 320.68 173.59 319.83 170.1 320.3 169.35 320.27 169.38 320.65 168.9 320.65 168.9 320.64 158.98 320.64 158.98 319.18 158.03 317.72 166.82 317.11 167.03 317.07 167.22 316 165.97 315.73 157.89 315.77 158.03 315.68 157.81 313.98 157.46 316.68 176.69 307.22 180.91 311.18 156.29 310.43 155.15 310.49 155.33 310.34 154.92 310.34 154.92 310.38 155.03 310.34 154.92 308.48 155.25 308.69 155.15 306.92 159.55 306.96 159.17 306.41 168.72 304.53 170 302.39 167.65 302.39 167.66 302.31 167.22 302.31 167.22 302.31 167.22 302.31 167.22 302.3 167.2 302.31 167.22 301.46 162.82 299.64 161.95 298.87 171.23 300.63 174.43 302.47 174.6 302.78 177.73 302.85 177.72 302.9 183.32 295.23 186.46 294.8 186.04 294.81 186.05 294.42 182.37 294.41 182.44 294.79 181.36 294.78 181.38 296.41 166.99 295.84 166.74 294.99 168.85 295 168.76 294.6 171.73 294.65 171.24 294.5 172.42 294.56 171.93 294.22 175.4 294.22 175.38 293 177.16 291.12 176.17 291.13 176.18 291.16 162.99 290.42 162.99 289.11 178.94 291.4 180.93 290.72 190.51 285.81 193.69 285.46 164.79 318.03 141.96 318.02 142 318.59 140.89 318.59 140.89 318.78 139.66 318.58 140.01 326.46 122.07 325.84 119.74 324.25 118.61 321.33 126.75 318 126.62 316.83 114.44 314.49 115.24 314.2 131.56 314.14 131.61 313.44 127.22 312.49 126.56 310.94 128.12 311.69 135.7 312.87 136.3 312.51 141.46 307.9 143.61 308.28 128.88 311.28 127.05 312.76 112.47 311.69 111.87 310.18 112.6 308.97 121.17 307.31 122.21 305.73 108.72 305.72 108.72 305.72 108.72 305.72 108.72" style="fill:#a5c2e0"/><path d="M355.58,263.76c1.18-23.45-3.31-44.52-10.4-66.8,1.1-7.78-5.56-42.33-12.54-38.29,11.2,25.38,13.14,53.26,20.59,79.88.55,5.07-4.32,28.89,2.35,25.21Z" style="fill:#808ac4"/><path d="M360.37,159c-7.31,11.5.5,24.11-1.36,36.42-1.59,10.52-10.48,21.92-6.67,32.83a1.06,1.06,0,0,0,2-.46c-1.25-11.62,5.58-21.44,7.28-32.6,1.45-11.46-6-24.18.68-34.83.82-1.3-1.14-2.67-2-1.36Z" style="fill:#808ac4"/><path d="M355.16,234.5C348,224.31,334,221.63,327.62,210.3c-2.81-7.12-25.37-22.74-27-13.44,19.45-.24,24.51,20.45,39.21,28.72,4,.34,15.15,13.26,15.31,8.92Z" style="fill:#808ac4"/><path d="M355.28,248.34c.3-10.19,9.37-16.56,12.92-25.53,2.85-8.5,4.31-17.39,10.86-24,10.64-12.91,3.82-36.48.3-48.19-4.14,13.29,7.21,26,1.46,39.29a131.59,131.59,0,0,0-16.71,35.62c-2.59,4.27-17.19,23.45-8.83,22.82Z" style="fill:#808ac4"/><path d="M372,164.33c-4.1,9.44.72,19.84-2.53,29.57-1.59,4.66-6.71,32.35-3.36,32.06,6.86-19.13,5.74-40.82,8-60.83a1.13,1.13,0,0,0-2.11-.8Z" style="fill:#808ac4"/><path d="M318.31,190c12.57,8.64,15.71,21.62,20.94,34.67,5.35,2.4-4-16.68-4.31-20.08-2.59-4.44-13.26-18-16.63-14.59Z" style="fill:#808ac4"/><path d="M304.4,207.11c5.31,8.31,23.69,15.64,30.56,12.36-9.12-5.36-22.46-3.37-28.79-13.84-.9-1.21-2.55.27-1.77,1.48Z" style="fill:#808ac4"/><path d="M356.2,243.33c4.51-9.29,17.67-9.89,22.51-19.51,1.62-5.45,16.36-23.23,12.74-24.86-11.33,10.23-12.87,29.09-28.88,34.86-3.38.41-12.55,11-6.37,9.51Z" style="fill:#808ac4"/><path d="M379,222.92c3.35-5.4,20.62-10.22,15.78-17-.91,4.61-23.25,16.39-15.78,17Z" style="fill:#808ac4"/></svg>