<svg id="Layer_1" data-name="Layer 1" xmlns="http://www.w3.org/2000/svg" viewBox="0 0 150 150"><path d="M19.33,128.94a34,34,0,0,1-7.15-.72c-6.34-1.37-10.53-4.56-11.79-9S1,109.92,5.63,105.4c4.32-4.2,10.63-7.64,17.78-9.69,15.42-4.43,29.48-1,32,7.76,1.27,4.41-.59,9.33-5.24,13.85-4.32,4.2-10.63,7.64-17.77,9.69A47.72,47.72,0,0,1,19.33,128.94ZM36.51,97.87a44.07,44.07,0,0,0-12,1.75c-6.51,1.87-12.21,5-16.06,8.7-3.52,3.42-5,6.9-4.17,9.81s3.94,5.07,8.74,6.1c5.24,1.13,11.71.73,18.22-1.14s12.21-5,16.06-8.69c3.52-3.42,5-6.91,4.17-9.81h0C50.26,100.3,44.23,97.87,36.51,97.87Z" style="fill:#f2f2f2"/><path d="M113.53,128.94a34,34,0,0,1-7.15-.72c-6.33-1.37-10.52-4.56-11.78-9s.59-9.33,5.24-13.85c4.32-4.2,10.63-7.64,17.77-9.69,15.43-4.43,29.48-1,32,7.76h0c1.27,4.41-.59,9.33-5.24,13.85-4.32,4.2-10.64,7.64-17.78,9.69A47.61,47.61,0,0,1,113.53,128.94Zm17.19-31.07a44,44,0,0,0-12,1.75c-6.51,1.87-12.21,5-16.06,8.7-3.52,3.42-5,6.9-4.17,9.81s3.94,5.07,8.73,6.1c5.25,1.13,11.72.73,18.23-1.14s12.21-5,16.06-8.69c3.52-3.42,5-6.91,4.17-9.81h0C144.46,100.3,138.44,97.87,130.72,97.87Z" style="fill:#f2f2f2"/><polygon points="150 106.72 145.92 106.72 145.92 25.14 56.26 25.14 56.26 106.72 52.18 106.72 52.18 21.07 150 21.07 150 106.72" style="fill:#f2f2f2"/><path d="M150,38.14H52.18V21.06H150ZM56.26,34.07h89.66V25.14H56.26Z" style="fill:#f2f2f2"/></svg>