<svg id="Layer_1" data-name="Layer 1" xmlns="http://www.w3.org/2000/svg" xmlns:xlink="http://www.w3.org/1999/xlink" viewBox="0 0 1332.63 390.91"><defs><radialGradient id="radial-gradient" cx="666.31" cy="195.46" r="491.01" gradientUnits="userSpaceOnUse"><stop offset="0" stop-color="#80a6a9"/><stop offset="0.64" stop-color="#8db4b9"/><stop offset="1" stop-color="#98bdc6"/></radialGradient></defs><path d="M1229.66,303.87,873,381.82l-112.82,9.09,78-63.62,7.94-60.76c-45.75-23.77-128.28-58.34-234.81-58.33a497.73,497.73,0,0,0-128.4,16.93A795.47,795.47,0,0,1,301.43,259a799.27,799.27,0,0,1-258-24.7c-11-11.26-33.66-37.65-41.09-77.76C-11.1,83.84,37.11,29.15,43.45,22.19L68.83,6.49,1282.06,0c6,6.27,64.7,69.41,47.38,151.55-9,42.51-34.06,70.09-46.47,82C1275.13,251.94,1237.49,285.49,1229.66,303.87Z" style="fill:url(#radial-gradient)"/></svg>