<svg id="Layer_1" data-name="Layer 1" xmlns="http://www.w3.org/2000/svg" viewBox="0 0 1321.25 141.04"><polyline points="1208.72 91.84 1083.39 67.89 765.41 66.77 473.7 90.38 234.51 80.89 0 141.04 16.66 64.4 41.64 19.82 65.12 6.07 85.95 0 98.64 10.12 135.78 12.14 143.93 6.07 181.98 17.54 187.42 11.47 193.76 4.05 219.13 15.51 239.96 4.72 263.52 14.16 288.88 13.49 306.1 6.07 346.87 10.12 384.01 16.19 396.69 8.77 431.12 10.12 470.98 17.54 519 10.12 577.88 16.86 642.21 19.56 684.78 19.56 713.92 8.77 782.63 13.49 832.45 29.68 874.13 14.84 937.54 14.84 961.1 0 971.97 20.91 1006.39 29.68 1006.39 8.09 1052.6 8.09 1067.09 22.93 1096.08 8.09 1121.45 29.68 1183.06 0 1222.92 14.84 1243.75 8.09 1279.09 8.77 1321.25 126.04" style="fill:#6d7852"/></svg>