<svg id="Layer_1" data-name="Layer 1" xmlns="http://www.w3.org/2000/svg" viewBox="0 0 1301.25 373.33"><polygon points="7.5 181.13 151.58 0.34 192.42 36.76 221.45 23.94 327.62 137.26 405.52 105.9 456.47 148.05 510.01 140.63 553.57 114.33 574.43 148.05 588.05 137.93 631.6 148.05 706.82 105.9 741.4 132.54 799.47 143.33 881.14 110.28 945.57 155.47 1029.05 67.11 1075.33 59.02 1118.88 5.73 1247.73 121.74 1301.26 175.3 1269.51 373.33 29.99 373.33 0 191.96 7.5 181.13" style="fill:#a0887e"/><polygon points="163.83 186.16 141.15 139.62 152.94 95.78 174.72 73.52 152.04 0 192.87 36.42 201.04 72.84 201.04 105.89 221 130.85 163.83 186.16" style="fill:#fff"/><polygon points="263.65 185.48 270.91 143.66 245.5 73.52 226.44 55.98 221 22.93 328.07 136.25 314.46 163.22 319 176.04 263.65 185.48" style="fill:#fff"/><polygon points="405.2 186.16 390.69 160.53 386.15 143.66 391.59 131.53 396.13 118.71 405.2 105.89 456.93 147.04 463.28 165.25 436.06 156.48 455.11 186.16 425.17 174.69 405.2 186.16" style="fill:#fff"/><polygon points="544.04 186.16 519.54 166.6 526.8 150.41 536.78 136.25 552.2 113.99 573.07 145.69 569.45 163.9 593.95 162.55 583.96 173.34 556.74 169.3 544.04 186.16" style="fill:#fff"/><polygon points="687.41 185.48 707.37 167.27 697.39 155.13 707.37 134.22 697.39 119.38 707.37 105.22 740.95 131.53 746.39 157.16 724.61 149.06 726.43 178.06 687.41 185.48" style="fill:#fff"/><polygon points="875.24 186.83 863.45 139.62 869.8 125.45 880.69 109.94 945.11 155.13 875.24 186.83" style="fill:#fff"/><polygon points="1126.59 188.18 1114.8 163.9 1080.32 139.62 1103 107.24 1112.98 71.5 1126.59 37.1 1120.24 6.75 1249.09 122.76 1185.58 142.99 1215.52 151.76 1126.59 188.18" style="fill:#fff"/><polygon points="1029.5 66.1 1050.37 109.27 1079.41 137.59 1086.67 73.52 1079.41 58.01 1029.5 66.1" style="fill:#fff"/></svg>