<svg id="b21a5531-0d3f-4ddf-9889-cb7db6307990" data-name="Layer 1" xmlns="http://www.w3.org/2000/svg" viewBox="0 0 150 150"><path d="M13.59,60.11c-6,0-10.75-.74-13.59-2.19l.8-1.56c10,5.11,48.06.37,71-13.72,11.06-6.78,25.07-8.82,39.47-5.74a63.52,63.52,0,0,1,36,21.78L146,59.79c-17.79-21.93-51.32-29.1-73.23-15.65C62.39,50.48,47.56,55.66,32,58.35A111,111,0,0,1,13.59,60.11Z" style="fill:#f2f2f2"/><path d="M13.59,76.65c-6,0-10.75-.73-13.59-2.19L.8,72.9c10,5.12,48.06.37,71-13.72,11.06-6.78,25.07-8.82,39.47-5.74a63.52,63.52,0,0,1,36,21.78L146,76.33C128.18,54.4,94.64,47.24,72.74,60.68,62.39,67,47.56,72.2,32,74.89A111,111,0,0,1,13.59,76.65Z" style="fill:#f2f2f2"/><path d="M13.59,95.83c-6,0-10.75-.73-13.59-2.19l.8-1.56c10,5.12,48.06.37,71-13.71,11.06-6.79,25.07-8.82,39.47-5.74a63.47,63.47,0,0,1,36,21.78L146,95.51C128.18,73.59,94.65,66.42,72.74,79.86,62.39,86.21,47.56,91.39,32,94.07A110,110,0,0,1,13.59,95.83Z" style="fill:#f2f2f2"/><path d="M13.59,115.5c-6,0-10.75-.73-13.59-2.19l.8-1.56c10,5.12,48.06.37,71-13.71,11.06-6.79,25.07-8.82,39.47-5.74a63.47,63.47,0,0,1,36,21.78l-1.36,1.1C128.18,93.26,94.65,86.09,72.74,99.53,62.39,105.88,47.56,111.06,32,113.74A110,110,0,0,1,13.59,115.5Z" style="fill:#f2f2f2"/><rect x="146.65" y="58.28" width="2.79" height="56.35" style="fill:#fff"/><path d="M150,115.18h-3.9V57.72H150Zm-2.79-1.1h1.69V58.83h-1.69Z" style="fill:#f2f2f2"/><rect x="142.91" y="55.62" width="1.1" height="55.4" style="fill:#f2f2f2"/><ellipse cx="24.9" cy="75.51" rx="3.97" ry="5.25" style="fill:#fff"/><path d="M24.9,81.31c-2.49,0-4.52-2.6-4.52-5.8s2-5.8,4.52-5.8,4.53,2.6,4.53,5.8S27.4,81.31,24.9,81.31Zm0-10.5c-1.88,0-3.42,2.11-3.42,4.7s1.54,4.7,3.42,4.7,3.43-2.11,3.43-4.7S26.79,70.81,24.9,70.81Z" style="fill:#f2f2f2"/><ellipse cx="28.88" cy="106.65" rx="3.97" ry="5.25" style="fill:#fff"/><path d="M28.88,112.44c-2.5,0-4.53-2.6-4.53-5.79s2-5.8,4.53-5.8,4.52,2.6,4.52,5.8S31.37,112.44,28.88,112.44Zm0-10.49c-1.89,0-3.42,2.11-3.42,4.7s1.53,4.69,3.42,4.69,3.42-2.11,3.42-4.69S30.77,102,28.88,102Z" style="fill:#f2f2f2"/><ellipse cx="45.4" cy="55.62" rx="3.97" ry="5.25" style="fill:#fff"/><path d="M45.4,61.42c-2.49,0-4.52-2.6-4.52-5.8s2-5.8,4.52-5.8,4.53,2.6,4.53,5.8S47.9,61.42,45.4,61.42Zm0-10.5C43.51,50.92,42,53,42,55.62s1.53,4.69,3.42,4.69,3.42-2.1,3.42-4.69S47.29,50.92,45.4,50.92Z" style="fill:#f2f2f2"/><ellipse cx="66.81" cy="72.12" rx="3.97" ry="5.25" style="fill:#fff"/><path d="M66.81,77.91c-2.5,0-4.53-2.6-4.53-5.79s2-5.8,4.53-5.8,4.52,2.6,4.52,5.8S69.3,77.91,66.81,77.91Zm0-10.49c-1.89,0-3.42,2.11-3.42,4.7s1.53,4.69,3.42,4.69,3.42-2.1,3.42-4.69S68.7,67.42,66.81,67.42Z" style="fill:#f2f2f2"/><ellipse cx="55.69" cy="88.42" rx="3.97" ry="5.25" style="fill:#fff"/><path d="M55.69,94.21c-2.5,0-4.53-2.6-4.53-5.79s2-5.8,4.53-5.8,4.52,2.6,4.52,5.8S58.18,94.21,55.69,94.21Zm0-10.49c-1.89,0-3.43,2.11-3.43,4.7s1.54,4.69,3.43,4.69,3.42-2.1,3.42-4.69S57.57,83.72,55.69,83.72Z" style="fill:#f2f2f2"/><ellipse cx="91.9" cy="52.93" rx="3.97" ry="5.25" style="fill:#fff"/><path d="M91.9,58.73c-2.5,0-4.53-2.6-4.53-5.8s2-5.8,4.53-5.8,4.52,2.61,4.52,5.8S94.39,58.73,91.9,58.73Zm0-10.49c-1.89,0-3.43,2.1-3.43,4.69s1.54,4.7,3.43,4.7,3.42-2.11,3.42-4.7S93.78,48.24,91.9,48.24Z" style="fill:#f2f2f2"/><ellipse cx="91.9" cy="108.46" rx="3.97" ry="5.25" style="fill:#fff"/><path d="M91.9,114.25c-2.5,0-4.53-2.6-4.53-5.8s2-5.79,4.53-5.79,4.52,2.6,4.52,5.79S94.39,114.25,91.9,114.25Zm0-10.49c-1.89,0-3.43,2.11-3.43,4.69s1.54,4.7,3.43,4.7,3.42-2.11,3.42-4.7S93.78,103.76,91.9,103.76Z" style="fill:#f2f2f2"/><ellipse cx="108.72" cy="75.78" rx="3.97" ry="5.25" style="fill:#fff"/><path d="M108.72,81.57c-2.5,0-4.53-2.6-4.53-5.79s2-5.8,4.53-5.8,4.52,2.6,4.52,5.8S111.21,81.57,108.72,81.57Zm0-10.49c-1.89,0-3.42,2.11-3.42,4.7s1.53,4.69,3.42,4.69,3.42-2.11,3.42-4.69S110.61,71.08,108.72,71.08Z" style="fill:#f2f2f2"/><ellipse cx="115.9" cy="40.29" rx="3.97" ry="5.25" style="fill:#fff"/><path d="M115.9,46.09c-2.5,0-4.53-2.6-4.53-5.8s2-5.8,4.53-5.8,4.52,2.61,4.52,5.8S118.39,46.09,115.9,46.09Zm0-10.49c-1.89,0-3.42,2.1-3.42,4.69S114,45,115.9,45s3.42-2.11,3.42-4.7S117.79,35.6,115.9,35.6Z" style="fill:#f2f2f2"/><ellipse cx="125.31" cy="50.37" rx="3.97" ry="5.25" style="fill:#fff"/><path d="M125.31,56.17c-2.5,0-4.53-2.6-4.53-5.8s2-5.8,4.53-5.8,4.52,2.6,4.52,5.8S127.8,56.17,125.31,56.17Zm0-10.49c-1.89,0-3.43,2.1-3.43,4.69s1.54,4.7,3.43,4.7,3.42-2.11,3.42-4.7S127.19,45.68,125.31,45.68Z" style="fill:#f2f2f2"/><polygon points="108.75 76.74 91.79 53.71 66.81 72.81 45.44 56.35 25.29 75.91 24.52 75.11 45.36 54.89 66.81 71.42 92.01 52.15 108.69 74.81 124.84 50.07 125.77 50.67 108.75 76.74" style="fill:#f2f2f2"/><polygon points="29.19 107.1 28.57 106.19 55.04 88.19 44.88 55.78 45.93 55.45 56.33 88.64 29.19 107.1" style="fill:#f2f2f2"/><polygon points="92.45 108.45 91.35 108.45 91.35 52.6 115.64 39.8 116.16 40.78 92.45 53.27 92.45 108.45" style="fill:#f2f2f2"/></svg>