<svg id="Layer_1" data-name="Layer 1" xmlns="http://www.w3.org/2000/svg" viewBox="0 0 150 150"><path d="M80.06,68.4a11.21,11.21,0,1,1-11.2-11.2A11.21,11.21,0,0,1,80.06,68.4Zm-45.6,61.65h0A68.55,68.55,0,0,1,8.66,58,66.91,66.91,0,0,1,56,9.18c34.65-9.39,66.85,8,80.49,36-5.21,3.43-18.43,12-33.4,20.73C78,80.54,59.4,88.9,49.45,90.07c-22,2.58-32.73-13.63-32.9-14.37h0a29.29,29.29,0,0,0,6.24,11.77c3.93,4.49,10.88,9.46,22.34,9.46a43.5,43.5,0,0,0,5.09-.31c22.82-2.68,75-36.12,88.93-45.3,0,0,5.76-3.37,4.72-5.94A75,75,0,1,0,32.49,136.75a.26.26,0,0,0,.38-.3C32.54,135.43,32.53,133.48,34.46,130.05ZM146.7,52.64a.1.1,0,0,0-.19,0c-.16.94-1.12,2.65-5.22,4.92h0a63.34,63.34,0,0,1,2.08,18.17,68.37,68.37,0,0,1-97,61.38A38.88,38.88,0,0,1,52,123.54c7.19-11.12,19.28-18.61,35.93-22.28,44.46-9.78,47.28-30.05,47.37-30.9h0c-.23,1.12-10.77,16.09-48.79,24.46-23.15,5.09-34.68,16.67-40.28,25.48a45.81,45.81,0,0,0-5.87,13.64s-2,6.38-.06,7.52A75,75,0,0,0,149.85,79.33,71.26,71.26,0,0,0,146.7,52.64Z" style="fill:#fff"/></svg>