<svg id="Layer_1" data-name="Layer 1" xmlns="http://www.w3.org/2000/svg" viewBox="0 0 579.78 391.38"><path d="M.43,154.59a61.09,61.09,0,0,1,5-24.62A97.8,97.8,0,0,1,66.32,75.39,63.79,63.79,0,0,0,77.7,70.63L82.53,68a62.71,62.71,0,0,1,17.19-6.24L361.34,8.46a62.34,62.34,0,0,0,7.74-2.12,117.4,117.4,0,0,1,92.52,7,62.38,62.38,0,0,1,21.28,18.19l59.65,80.53a62,62,0,0,1,12.29,39.11A104.58,104.58,0,0,0,568,206.15c5.09,8.65,12.92,25.09,11.59,45.74-1.89,29.46-21.73,56.38-51.5,71.85a63.09,63.09,0,0,0-18.33,14.42,155.87,155.87,0,0,1-147.57,50.3,63,63,0,0,1-6.75-1.72l-43.75-13.8a61.73,61.73,0,0,1-8.09-3.18l-87.29-41.62a62.86,62.86,0,0,1-7.13-4A194,194,0,0,0,95.19,293a62.6,62.6,0,0,1-41.61-13.44l-7.4-5.87c-.85-.67-1.72-1.32-2.6-1.95A103.65,103.65,0,0,1,.3,179.21c.11-1.51.16-3,.16-4.53Z" style="fill:#8db4b9"/></svg>