<svg id="Layer_1" data-name="Layer 1" xmlns="http://www.w3.org/2000/svg" viewBox="0 0 1920.29 4360.21"><path d="M647.32,3554.25l269.25,319.58c2.9,6,1007.56,486.38,1003.71,486.38H0c-2.31,0,246-801.84,246-807.32l-.92-142.71a21,21,0,0,1,.1-2.11,19.34,19.34,0,0,1,.28-2c-.82-35.42-.37-102.13,13-176.84,15.32-85.32,39.39-135.64,51.42-157.71a11,11,0,0,1,1.83-4.63L421.2,2928.93l29-36.43,98.91-164c1.63-2,2.52-6.28,2.2-10.56L524,2464.05c-.26-3.44-211.1-302.47-211.1-302.47a7.24,7.24,0,0,1-1.79-3.09l-34.9-103.95a16.67,16.67,0,0,1-.69-3.05,23,23,0,0,1-.22-3.44c-7-36.63-29.76-168.36-11.26-329.93,20.49-179,77.1-267.46,90.13-286.72a9,9,0,0,1,2.18-4.57L588.5,1172.08a8.24,8.24,0,0,0,2-3.85l30.75-112.76c.3-1.1,7.79-71,3.68-123.8-4.66-59.95-17.74-99.39-23.87-115.77a16.64,16.64,0,0,0-1.19-5.09L515.69,619a6.37,6.37,0,0,0-1.26-2L283.56,384.66l-.25-.27c-2.72-3.25-19.62-24.74-24.12-73.14-3.66-39.49,3.35-70.79,6.38-82.1a7.43,7.43,0,0,1,2.89-4.46c22.25-26.91,73.15-32.83,73.15-32.83,46.38-5.4,78.42-19,95.37-27.24l.43-.21,64.39-39.88C504.32,123,762.82-6,763,.21c.14,4.61,1.08,24.31,3,25L663.31,87.37c2,.74-76.59,37.05-76.59,41.95,0,0-60.31,30.52-62.37,31.19L418,210l-.25.1-89,42.35c-1,.47-1.84,1.74-2.46,3.58l-9.07,27.35c-1.82,5.49-.74,13.64,2.08,15.64l53,37.68,37,22.12L572.91,459.54a3.26,3.26,0,0,1,.86.78L713,630.88a8,8,0,0,1,1.15,2.07,15.9,15.9,0,0,1,.78,2.89c13.89,27.81,41.79,91.44,57.46,196.07,11.67,77.83,19.71,143,18.43,183.59.31,1.72-21.05,182.58-21.05,182.58-.24,3.47-78.65,224.75-78.65,224.75a3.65,3.65,0,0,1-.32.26l-134.38,94a5.32,5.32,0,0,0-1.65,2.21L489,1663.45a16.19,16.19,0,0,0-1.21,4.82,23.91,23.91,0,0,0,.08,5.61,505.69,505.69,0,0,0-6.24,140.5c9,92.72,40.69,136.48,46,143.56.42,3,1.4,5.31,2.65,6.29l196.21,245.46c.45.35,36.79,58.27,36.9,58.51,14,19.64,52.35,61.64,76.51,298,22,215.48,5.14,321.29-3.87,360a17.58,17.58,0,0,1-1.53,7.67L671.77,3319a18.91,18.91,0,0,0-1.46,9.47l-25.37,84.24Z" style="fill:#8db4b9"/></svg>