<svg id="Layer_1" data-name="Layer 1" xmlns="http://www.w3.org/2000/svg" viewBox="0 0 617.77 465"><path d="M617.77,0H26C11.64,0,0,10.19,0,22.77V275.85c0,12.57,11.64,22.77,26,22.77H77c14.36,0,26-10.2,26-22.77V246.07c0-12.57,11.64-22.76,26-22.76h53c14.36,0,26,10.19,26,22.76v5.26c0,12.57,11.64,22.77,26,22.77s26-10.2,26-22.77V226.81c0-12.58,11.64-22.77,26-22.77h57c14.36,0,26,10.19,26,22.77v126.1c0,12.57,11.64,22.77,26,22.77h61c14.36,0,26,10.19,26,22.77v43.78c0,12.58,11.64,22.77,26,22.77H617.77Z" style="fill:#5a786e"/></svg>