<svg id="Layer_1" data-name="Layer 1" xmlns="http://www.w3.org/2000/svg" viewBox="0 0 387.95 304.31"><path d="M264.34,304.31l28.89-39h10.08s-1.35-19.48,84.64-39V215.64l-96.06,37.62-52.4,1.34-17.62,15.45h-67.7V260l-47.69-4.71-12.1-15.45-59.78-4s24.18,59.79,43.66,68.52" style="fill:#a49479"/><polygon points="166.69 0 113.03 0 124.45 13.44 113.03 30.23 166.69 30.23 166.69 0" style="fill:#b79191"/><line x1="136.48" y1="57.89" x2="19.94" y2="109.71" style="fill:#a49479"/><rect x="14.44" y="81.69" width="127.54" height="4.23" transform="translate(-27.3 39.01) rotate(-23.97)" style="fill:#a49479"/><line x1="141.1" y1="79.27" x2="75.59" y2="141.46" style="fill:#a49479"/><rect x="63.18" y="108.25" width="90.33" height="4.23" transform="translate(-46.22 104.93) rotate(-43.52)" style="fill:#a49479"/><line x1="68.04" y1="236.87" x2="126.01" y2="159.58" style="fill:#a49479"/><rect x="48.72" y="196.11" width="96.61" height="4.23" transform="translate(-119.76 156.87) rotate(-53.12)" style="fill:#a49479"/><line x1="129.03" y1="175.28" x2="97.03" y2="242.91" style="fill:#a49479"/><rect x="75.62" y="206.98" width="74.82" height="4.23" transform="translate(-124.32 221.86) rotate(-64.69)" style="fill:#a49479"/><line x1="193.69" y1="67.19" x2="231.68" y2="100.4" style="fill:#a49479"/><rect x="210.57" y="58.57" width="4.23" height="50.46" transform="translate(9.61 188.77) rotate(-48.84)" style="fill:#a49479"/><line x1="244.36" y1="175.28" x2="175.52" y2="272.49" style="fill:#a49479"/><rect x="150.38" y="221.77" width="119.12" height="4.23" transform="translate(-94.1 265.83) rotate(-54.7)" style="fill:#a49479"/><line x1="244.36" y1="201.85" x2="219.6" y2="272.49" style="fill:#a49479"/><rect x="194.55" y="235.06" width="74.86" height="4.23" transform="matrix(0.33, -0.94, 0.94, 0.33, -68.56, 377.67)" style="fill:#a49479"/><rect x="64.87" y="108.15" width="6.34" height="134.76" style="fill:#a49479"/><rect x="161.48" y="0.17" width="6.34" height="272.33" style="fill:#a49479"/><path d="M207.24,243.85c32.92-63.81,0-130.32,0-130.32H106.48s32.91,45.68,10.74,119.58Z" style="fill:#23586a"/><path d="M106.48,211.61c-11.42-65.84-42.33-77.93-42.33-77.93-16.12-1.34-38.29,8.06-38.29,8.06S49.38,178.69,29.22,219Z" style="fill:#23586a"/><path d="M131.33,51.05s14.11,16.8,7.39,45c0,0,41.13-6,53.14,0,0,0,9.34-32.24-7.46-45Z" style="fill:#23586a"/><polygon points="69.19 108.15 69.19 133.01 0 133.01 12.76 120.58 0 108.15 69.19 108.15" style="fill:#b79191"/><polygon points="274.53 99.42 219.6 99.42 229.68 113.53 219.6 128.31 274.53 128.31 274.53 99.42" style="fill:#b79191"/><rect x="269.57" y="100.4" width="6.34" height="159.41" style="fill:#a49479"/><path d="M304,235.79c16.12-72.55-11.42-96.73-11.42-96.73h-57.1s16.79,46.35,0,96.73Z" style="fill:#23586a"/></svg>