<svg xmlns="http://www.w3.org/2000/svg">
	<symbol id="mountains1-sprite">
		<svg id="Layer_1" data-name="Layer 1" xmlns="http://www.w3.org/2000/svg" viewBox="0 0 1350.41 363.88"><polygon points="1350.41 159.12 1186.72 13.81 1131.39 30.71 1102.36 18.03 996.21 130.19 931.36 104.81 867.37 140.88 813.84 133.53 780.55 119.18 749.42 140.88 735.81 130.86 692.25 140.88 617.04 99.16 582.47 125.52 524.4 136.2 442.75 103.49 378.33 148.22 294.85 60.76 248.58 52.75 205.03 0 76.19 114.84 0 244.09 54.42 363.88 1293.8 363.88 1350.41 251.59 1350.41 159.12" style="fill:#8d7d82"/></svg>
	</symbol>
	<symbol id="mountains2-sprite">
		<svg id="Layer_1" data-name="Layer 1" xmlns="http://www.w3.org/2000/svg" viewBox="0 0 1301.25 373.33"><polygon points="7.5 181.13 151.58 0.34 192.42 36.76 221.45 23.94 327.62 137.26 405.52 105.9 456.47 148.05 510.01 140.63 553.57 114.33 574.43 148.05 588.05 137.93 631.6 148.05 706.82 105.9 741.4 132.54 799.47 143.33 881.14 110.28 945.57 155.47 1029.05 67.11 1075.33 59.02 1118.88 5.73 1247.73 121.74 1301.26 175.3 1269.51 373.33 29.99 373.33 0 191.96 7.5 181.13" style="fill:#a0887e"/><polygon points="163.83 186.16 141.15 139.62 152.94 95.78 174.72 73.52 152.04 0 192.87 36.42 201.04 72.84 201.04 105.89 221 130.85 163.83 186.16" style="fill:#fff"/><polygon points="263.65 185.48 270.91 143.66 245.5 73.52 226.44 55.98 221 22.93 328.07 136.25 314.46 163.22 319 176.04 263.65 185.48" style="fill:#fff"/><polygon points="405.2 186.16 390.69 160.53 386.15 143.66 391.59 131.53 396.13 118.71 405.2 105.89 456.93 147.04 463.28 165.25 436.06 156.48 455.11 186.16 425.17 174.69 405.2 186.16" style="fill:#fff"/><polygon points="544.04 186.16 519.54 166.6 526.8 150.41 536.78 136.25 552.2 113.99 573.07 145.69 569.45 163.9 593.95 162.55 583.96 173.34 556.74 169.3 544.04 186.16" style="fill:#fff"/><polygon points="687.41 185.48 707.37 167.27 697.39 155.13 707.37 134.22 697.39 119.38 707.37 105.22 740.95 131.53 746.39 157.16 724.61 149.06 726.43 178.06 687.41 185.48" style="fill:#fff"/><polygon points="875.24 186.83 863.45 139.62 869.8 125.45 880.69 109.94 945.11 155.13 875.24 186.83" style="fill:#fff"/><polygon points="1126.59 188.18 1114.8 163.9 1080.32 139.62 1103 107.24 1112.98 71.5 1126.59 37.1 1120.24 6.75 1249.09 122.76 1185.58 142.99 1215.52 151.76 1126.59 188.18" style="fill:#fff"/><polygon points="1029.5 66.1 1050.37 109.27 1079.41 137.59 1086.67 73.52 1079.41 58.01 1029.5 66.1" style="fill:#fff"/></svg>
	</symbol>
	<symbol id="mountains3-sprite">
		<svg id="Layer_1" data-name="Layer 1" xmlns="http://www.w3.org/2000/svg" viewBox="0 0 1321.25 141.04"><polyline points="1208.72 91.84 1083.39 67.89 765.41 66.77 473.7 90.38 234.51 80.89 0 141.04 16.66 64.4 41.64 19.82 65.12 6.07 85.95 0 98.64 10.12 135.78 12.14 143.93 6.07 181.98 17.54 187.42 11.47 193.76 4.05 219.13 15.51 239.96 4.72 263.52 14.16 288.88 13.49 306.1 6.07 346.87 10.12 384.01 16.19 396.69 8.77 431.12 10.12 470.98 17.54 519 10.12 577.88 16.86 642.21 19.56 684.78 19.56 713.92 8.77 782.63 13.49 832.45 29.68 874.13 14.84 937.54 14.84 961.1 0 971.97 20.91 1006.39 29.68 1006.39 8.09 1052.6 8.09 1067.09 22.93 1096.08 8.09 1121.45 29.68 1183.06 0 1222.92 14.84 1243.75 8.09 1279.09 8.77 1321.25 126.04" style="fill:#6d7852"/></svg>
	</symbol>
	<symbol id="lake-sprite">
		<svg id="Layer_1" data-name="Layer 1" xmlns="http://www.w3.org/2000/svg" xmlns:xlink="http://www.w3.org/1999/xlink" viewBox="0 0 1332.63 390.91"><defs><radialGradient id="radial-gradient" cx="666.31" cy="195.46" r="491.01" gradientUnits="userSpaceOnUse"><stop offset="0" stop-color="#80a6a9"/><stop offset="0.64" stop-color="#8db4b9"/><stop offset="1" stop-color="#98bdc6"/></radialGradient></defs><path d="M1229.66,303.87,873,381.82l-112.82,9.09,78-63.62,7.94-60.76c-45.75-23.77-128.28-58.34-234.81-58.33a497.73,497.73,0,0,0-128.4,16.93A795.47,795.47,0,0,1,301.43,259a799.27,799.27,0,0,1-258-24.7c-11-11.26-33.66-37.65-41.09-77.76C-11.1,83.84,37.11,29.15,43.45,22.19L68.83,6.49,1282.06,0c6,6.27,64.7,69.41,47.38,151.55-9,42.51-34.06,70.09-46.47,82C1275.13,251.94,1237.49,285.49,1229.66,303.87Z" style="fill:url(#radial-gradient)"/></svg>
	</symbol>
	<symbol id="sun-sprite">
		<svg id="Layer_1" data-name="Layer 1" xmlns="http://www.w3.org/2000/svg" viewBox="0 0 356.46 356.46"><circle cx="178.23" cy="178.23" r="83.14" style="fill:#ffe47f"/><rect x="176.34" width="3.77" height="82.93" style="fill:#abc5e3"/><line x1="141.76" y1="90.19" x2="128.7" y2="58.65" style="fill:#abc5e3"/><rect x="134.02" y="57.35" width="2.42" height="34.14" transform="translate(-18.18 57.41) rotate(-22.5)" style="fill:#abc5e3"/><line x1="90.19" y1="141.76" x2="58.65" y2="128.7" style="fill:#abc5e3"/><rect x="73.21" y="118.16" width="2.42" height="34.14" transform="translate(-79 152.23) rotate(-67.5)" style="fill:#abc5e3"/><line x1="90.19" y1="214.7" x2="58.65" y2="227.76" style="fill:#abc5e3"/><rect x="57.35" y="220.02" width="34.14" height="2.42" transform="translate(-79.04 45.35) rotate(-22.51)" style="fill:#abc5e3"/><line x1="141.76" y1="266.27" x2="128.7" y2="297.81" style="fill:#abc5e3"/><rect x="118.16" y="280.83" width="34.14" height="2.42" transform="translate(-177.09 299.01) rotate(-67.49)" style="fill:#abc5e3"/><line x1="214.7" y1="266.27" x2="227.76" y2="297.81" style="fill:#abc5e3"/><rect x="220.02" y="264.97" width="2.42" height="34.14" transform="translate(-91.09 106.13) rotate(-22.5)" style="fill:#abc5e3"/><line x1="266.27" y1="214.7" x2="297.81" y2="227.76" style="fill:#abc5e3"/><rect x="280.83" y="204.16" width="2.42" height="34.14" transform="translate(-30.28 397.14) rotate(-67.5)" style="fill:#abc5e3"/><line x1="266.27" y1="141.76" x2="297.81" y2="128.7" style="fill:#abc5e3"/><rect x="264.97" y="134.02" width="34.14" height="2.42" transform="translate(-30.29 118.31) rotate(-22.52)" style="fill:#abc5e3"/><line x1="214.7" y1="90.19" x2="227.76" y2="58.65" style="fill:#abc5e3"/><rect x="204.16" y="73.21" width="34.14" height="2.42" transform="translate(67.8 250.31) rotate(-67.49)" style="fill:#abc5e3"/><line x1="110.85" y1="110.84" x2="52.2" y2="52.2" style="fill:#abc5e3"/><rect x="79.64" y="40.06" width="3.77" height="82.93" transform="translate(-33.77 81.52) rotate(-45)" style="fill:#abc5e3"/><line x1="82.93" y1="178.23" y2="178.23" style="fill:#abc5e3"/><rect y="176.34" width="82.93" height="3.77" style="fill:#abc5e3"/><line x1="110.85" y1="245.61" x2="52.2" y2="304.25" style="fill:#abc5e3"/><rect x="40.06" y="273.05" width="82.93" height="3.77" transform="translate(-170.55 138.2) rotate(-45.01)" style="fill:#abc5e3"/><line x1="178.23" y1="273.52" x2="178.23" y2="356.46" style="fill:#abc5e3"/><rect x="176.34" y="273.52" width="3.77" height="82.93" style="fill:#abc5e3"/><line x1="245.61" y1="245.61" x2="304.25" y2="304.25" style="fill:#abc5e3"/><rect x="273.05" y="233.47" width="3.77" height="82.93" transform="translate(-113.88 274.93) rotate(-45)" style="fill:#abc5e3"/><line x1="273.52" y1="178.23" x2="356.46" y2="178.23" style="fill:#abc5e3"/><rect x="273.52" y="176.34" width="82.93" height="3.77" style="fill:#abc5e3"/><line x1="245.61" y1="110.84" x2="304.25" y2="52.2" style="fill:#abc5e3"/><rect x="233.47" y="79.64" width="82.93" height="3.77" transform="translate(22.89 218.3) rotate(-45)" style="fill:#abc5e3"/><rect x="176.34" width="3.77" height="82.93" style="fill:#abc5e3"/><text transform="translate(106.71 192.18)" style="font-size:41px;font-family:MyriadPro-Bold, Myriad Pro;font-weight:700"><tspan style="letter-spacing:-0.019007240853658538em">C</tspan><tspan x="23.62" y="0">o</tspan><tspan x="47.27" y="0" style="letter-spacing:-0.005978467987804878em">n</tspan><tspan x="71.05" y="0">ta</tspan><tspan x="107.75" y="0" style="letter-spacing:0.015982278963414635em">c</tspan><tspan x="126.89" y="0">t</tspan></text></svg>
	</symbol>
</svg>