<svg id="Layer_1" data-name="Layer 1" xmlns="http://www.w3.org/2000/svg" viewBox="0 0 356.46 356.46"><circle cx="178.23" cy="178.23" r="83.14" style="fill:#ffe47f"/><rect x="176.34" width="3.77" height="82.93" style="fill:#abc5e3"/><line x1="141.76" y1="90.19" x2="128.7" y2="58.65" style="fill:#abc5e3"/><rect x="134.02" y="57.35" width="2.42" height="34.14" transform="translate(-18.18 57.41) rotate(-22.5)" style="fill:#abc5e3"/><line x1="90.19" y1="141.76" x2="58.65" y2="128.7" style="fill:#abc5e3"/><rect x="73.21" y="118.16" width="2.42" height="34.14" transform="translate(-79 152.23) rotate(-67.5)" style="fill:#abc5e3"/><line x1="90.19" y1="214.7" x2="58.65" y2="227.76" style="fill:#abc5e3"/><rect x="57.35" y="220.02" width="34.14" height="2.42" transform="translate(-79.04 45.35) rotate(-22.51)" style="fill:#abc5e3"/><line x1="141.76" y1="266.27" x2="128.7" y2="297.81" style="fill:#abc5e3"/><rect x="118.16" y="280.83" width="34.14" height="2.42" transform="translate(-177.09 299.01) rotate(-67.49)" style="fill:#abc5e3"/><line x1="214.7" y1="266.27" x2="227.76" y2="297.81" style="fill:#abc5e3"/><rect x="220.02" y="264.97" width="2.42" height="34.14" transform="translate(-91.09 106.13) rotate(-22.5)" style="fill:#abc5e3"/><line x1="266.27" y1="214.7" x2="297.81" y2="227.76" style="fill:#abc5e3"/><rect x="280.83" y="204.16" width="2.42" height="34.14" transform="translate(-30.28 397.14) rotate(-67.5)" style="fill:#abc5e3"/><line x1="266.27" y1="141.76" x2="297.81" y2="128.7" style="fill:#abc5e3"/><rect x="264.97" y="134.02" width="34.14" height="2.42" transform="translate(-30.29 118.31) rotate(-22.52)" style="fill:#abc5e3"/><line x1="214.7" y1="90.19" x2="227.76" y2="58.65" style="fill:#abc5e3"/><rect x="204.16" y="73.21" width="34.14" height="2.42" transform="translate(67.8 250.31) rotate(-67.49)" style="fill:#abc5e3"/><line x1="110.85" y1="110.84" x2="52.2" y2="52.2" style="fill:#abc5e3"/><rect x="79.64" y="40.06" width="3.77" height="82.93" transform="translate(-33.77 81.52) rotate(-45)" style="fill:#abc5e3"/><line x1="82.93" y1="178.23" y2="178.23" style="fill:#abc5e3"/><rect y="176.34" width="82.93" height="3.77" style="fill:#abc5e3"/><line x1="110.85" y1="245.61" x2="52.2" y2="304.25" style="fill:#abc5e3"/><rect x="40.06" y="273.05" width="82.93" height="3.77" transform="translate(-170.55 138.2) rotate(-45.01)" style="fill:#abc5e3"/><line x1="178.23" y1="273.52" x2="178.23" y2="356.46" style="fill:#abc5e3"/><rect x="176.34" y="273.52" width="3.77" height="82.93" style="fill:#abc5e3"/><line x1="245.61" y1="245.61" x2="304.25" y2="304.25" style="fill:#abc5e3"/><rect x="273.05" y="233.47" width="3.77" height="82.93" transform="translate(-113.88 274.93) rotate(-45)" style="fill:#abc5e3"/><line x1="273.52" y1="178.23" x2="356.46" y2="178.23" style="fill:#abc5e3"/><rect x="273.52" y="176.34" width="82.93" height="3.77" style="fill:#abc5e3"/><line x1="245.61" y1="110.84" x2="304.25" y2="52.2" style="fill:#abc5e3"/><rect x="233.47" y="79.64" width="82.93" height="3.77" transform="translate(22.89 218.3) rotate(-45)" style="fill:#abc5e3"/><rect x="176.34" width="3.77" height="82.93" style="fill:#abc5e3"/><text transform="translate(106.71 192.18)" style="font-size:41px;font-family:MyriadPro-Bold, Myriad Pro;font-weight:700"><tspan style="letter-spacing:-0.019007240853658538em">C</tspan><tspan x="23.62" y="0">o</tspan><tspan x="47.27" y="0" style="letter-spacing:-0.005978467987804878em">n</tspan><tspan x="71.05" y="0">ta</tspan><tspan x="107.75" y="0" style="letter-spacing:0.015982278963414635em">c</tspan><tspan x="126.89" y="0">t</tspan></text></svg>