<svg id="Layer_1" data-name="Layer 1" xmlns="http://www.w3.org/2000/svg" viewBox="0 0 150 150"><polygon points="31.02 149.34 29.04 149.34 29.04 24.43 75.62 0 75.62 112.78 73.65 112.78 73.65 3.26 31.02 25.63 31.02 149.34" style="fill:#f2f2f2"/><polygon points="120.96 72.76 118.98 72.76 118.98 22.02 74.24 2.53 75.03 0.73 120.96 20.73 120.96 72.76" style="fill:#f2f2f2"/><path d="M97.3,141.24a17.17,17.17,0,0,1-10.07-3.8l-.45-.39L97.31,90.12l10.27,46.94-.43.39A16.08,16.08,0,0,1,97.3,141.24Zm-8.32-5a15,15,0,0,0,8.32,3,14.06,14.06,0,0,0,8.1-2.94L97.29,99.24Z" style="fill:#f2f2f2"/><polygon points="98.29 150 42.33 150 42.33 148.03 96.32 148.03 96.32 140.25 98.29 140.25 98.29 150" style="fill:#f2f2f2"/><rect x="97.3" y="148.03" width="22.67" height="1.97" style="fill:#f2f2f2"/><path d="M50.44,149.84a9.1,9.1,0,1,1,0-18.19h.46a9.1,9.1,0,0,1-.46,18.18Zm0-16.22a7.15,7.15,0,1,0,.36,0h-.36Z" style="fill:#f2f2f2"/><path d="M58.56,144.27a9.1,9.1,0,1,1,9.09-9.1A9.11,9.11,0,0,1,58.56,144.27Zm0-16.22a7.13,7.13,0,1,0,7.12,7.12A7.13,7.13,0,0,0,58.56,128.05Z" style="fill:#f2f2f2"/><path d="M65.06,149.19a9.1,9.1,0,1,1,9.1-9.09A9.11,9.11,0,0,1,65.06,149.19Zm0-16.22a7.13,7.13,0,1,0,7.13,7.13A7.14,7.14,0,0,0,65.06,133Z" style="fill:#f2f2f2"/><path d="M36.07,46.18V29.7l12.7-7V39.17Zm2-15.31v12L46.79,38V26Z" style="fill:#f2f2f2"/><path d="M55.12,36.8V20.32l12.7-7V29.79Zm2-15.31v12l8.75-4.83v-12Z" style="fill:#f2f2f2"/><path d="M36.84,71.3V54.82l12.7-7V64.28Zm2-15.32V68l8.76-4.84v-12Z" style="fill:#f2f2f2"/><path d="M55.9,61.92V45.44l12.7-7V54.9Zm2-15.31v12l8.75-4.84v-12Z" style="fill:#f2f2f2"/><path d="M36.84,96.41V79.93l12.7-7V89.4Zm2-15.31v12l8.76-4.83v-12Z" style="fill:#f2f2f2"/><path d="M55.9,87V70.56l12.7-7V80Zm2-15.32v12l8.75-4.83v-12Z" style="fill:#f2f2f2"/><path d="M36.84,121.53V105.05l12.7-7v16.46Zm2-15.31v12l8.76-4.84v-12Z" style="fill:#f2f2f2"/><path d="M55.9,112.15V95.67l12.7-7v16.46Zm2-15.31v12L66.62,104V92Z" style="fill:#f2f2f2"/></svg>