<svg id="Layer_1" data-name="Layer 1" xmlns="http://www.w3.org/2000/svg" viewBox="0 0 429.21 456.3"><polygon points="166.68 12.4 166.68 361.46 296.64 361.46 296.64 0 166.68 12.4" style="fill:#8db4b9"/><circle cx="55.48" cy="363.13" r="55.48" style="fill:#c8e5e5"/><circle cx="151.27" cy="391.92" r="64.38" style="fill:#c8e5e5"/><circle cx="158.6" cy="318.64" r="22.51" style="fill:#c8e5e5"/><circle cx="242.87" cy="363.13" r="53.39" style="fill:#c8e5e5"/><circle cx="327.14" cy="344.81" r="26.69" style="fill:#c8e5e5"/><circle cx="305.68" cy="399.77" r="53.39" style="fill:#c8e5e5"/><circle cx="375.82" cy="391.39" r="53.39" style="fill:#c8e5e5"/><path d="M184.18,32.45V70.88c0,2.9,3.54,5.26,7.91,5.26h0c4.37,0,7.92-2.36,7.92-5.26v-21c0-2.91,3.54-5.26,7.91-5.26h5.83c4.37,0,7.92,2.35,7.92,5.26v50.32c0,2.9,3.54,5.26,7.91,5.26h6.67c4.37,0,7.91-2.36,7.91-5.26v-16c0-2.9,3.54-5.25,7.91-5.25h4.17c4.37,0,7.91,2.35,7.91,5.25v5c0,2.9,3.55,5.26,7.92,5.26h6.66c4.37,0,7.92-2.36,7.92-5.26v-63c0-2.91-6.46-9.68-10.83-9.68l-83.73,4.42c-4.37,0-7.91,2.35-7.91,5.26Z" style="fill:#c8e5e5"/><path d="M191.18,229h89.14a5.83,5.83,0,0,1,5.83,5.83v35a5.83,5.83,0,0,1-5.83,5.83H277a5.83,5.83,0,0,1-5.83-5.83V258.18a5.83,5.83,0,0,0-5.83-5.83H247.83a5.83,5.83,0,0,0-5.83,5.83V306.5a5.83,5.83,0,0,1-5.84,5.83H224.5a5.83,5.83,0,0,1-5.83-5.83h0a5.83,5.83,0,0,0-5.83-5.83h-2.58a5.83,5.83,0,0,0-5.83,5.83v20.83a5.83,5.83,0,0,1-5.83,5.83h-7.42a5.83,5.83,0,0,1-5.83-5.83V234.86a5.83,5.83,0,0,1,5.83-5.83Z" style="fill:#c8e5e5"/><path d="M181.3,142.45V160a5.51,5.51,0,0,0,5.5,5.5h3a5.5,5.5,0,0,0,5.5-5.5v-1a5.5,5.5,0,0,1,5.5-5.5h2a5.5,5.5,0,0,1,5.5,5.5v56a5.51,5.51,0,0,0,5.5,5.5h3a5.5,5.5,0,0,0,5.5-5.5V191a5.5,5.5,0,0,1,5.5-5.5h4a5.5,5.5,0,0,0,5.5-5.5V164a5.5,5.5,0,0,1,5.5-5.5h6a5.5,5.5,0,0,1,5.5,5.5v18a5.51,5.51,0,0,0,5.5,5.5h13a5.5,5.5,0,0,0,5.5-5.5V144a5.5,5.5,0,0,1,5.5-5.5h0a5.5,5.5,0,0,0,5.5-5.5v-7a5.5,5.5,0,0,0-5.5-5.5h-97a5.5,5.5,0,0,0-5.5,5.5Z" style="fill:#c8e5e5"/></svg>