<?xml version="1.0" encoding="iso-8859-1"?>
<!-- Generator: Adobe Illustrator 24.1.2, SVG Export Plug-In . SVG Version: 6.00 Build 0)  -->
<svg version="1.1" id="Layer_1" xmlns="http://www.w3.org/2000/svg" xmlns:xlink="http://www.w3.org/1999/xlink" x="0px" y="0px"
	 viewBox="0 0 739.05 497.588" style="enable-background:new 0 0 739.05 497.588;" xml:space="preserve">
<g>
	<radialGradient id="SVGID_1_" cx="36.8934" cy="403.6366" r="242.795" gradientUnits="userSpaceOnUse">
		<stop  offset="0" style="stop-color:#856E65"/>
		<stop  offset="0.6356" style="stop-color:#94786D"/>
		<stop  offset="1" style="stop-color:#A1887E"/>
	</radialGradient>
	<rect x="90.166" y="377.052" style="fill:url(#SVGID_1_);" width="19.868" height="114.949"/>
	<radialGradient id="SVGID_2_" cx="36.8934" cy="403.6366" r="242.795" gradientUnits="userSpaceOnUse">
		<stop  offset="0" style="stop-color:#446763"/>
		<stop  offset="0.4921" style="stop-color:#5A786D"/>
		<stop  offset="1" style="stop-color:#8C9F86"/>
	</radialGradient>
	<path style="fill:url(#SVGID_2_);" d="M202.87,415.37l-48.37-81.75l30.61-0.33l-46.66-78.85l28.91-0.31l-38.65-65.31l26.51-0.28
		L102.83,100l-50.48,89.64l20.4-0.22l-37.23,66.12l26.26-0.28L16.82,335.1l29.79-0.32L0,417.55L202.87,415.37z M99.4,188.45
		l0.4,0.68l-0.79,0.01L99.4,188.45z"/>
</g>
<g>
	<radialGradient id="SVGID_3_" cx="228.5906" cy="365.2971" r="396.5656" gradientUnits="userSpaceOnUse">
		<stop  offset="0" style="stop-color:#856E65"/>
		<stop  offset="0.6356" style="stop-color:#94786D"/>
		<stop  offset="1" style="stop-color:#A1887E"/>
	</radialGradient>
	<rect x="264.166" y="337.052" style="fill:url(#SVGID_3_);" width="19.868" height="114.949"/>
	<polygon style="fill:#00742A;" points="273.8,149.13 273.01,149.14 273.4,148.45 	"/>
	<polygon style="fill:#00742A;" points="273.8,149.13 273.01,149.14 273.4,148.45 	"/>
	<radialGradient id="SVGID_4_" cx="228.5906" cy="365.2971" r="396.5656" gradientUnits="userSpaceOnUse">
		<stop  offset="0" style="stop-color:#94B598"/>
		<stop  offset="0.6356" style="stop-color:#B1CAA0"/>
		<stop  offset="1" style="stop-color:#AEC9A8"/>
	</radialGradient>
	<path style="fill:url(#SVGID_4_);" d="M376.87,375.37l-48.37-81.75l30.61-0.33l-46.66-78.85l28.91-0.31l-38.65-65.31l26.51-0.28
		L276.83,60l-50.48,89.64l20.4-0.22l-37.23,66.12l26.26-0.28l-44.96,79.84l29.79-0.32L174,377.55L376.87,375.37z M273.4,148.45
		l0.4,0.68l-0.79,0.01L273.4,148.45z"/>
	<polygon style="fill:#00742A;" points="273.8,149.13 273.01,149.14 273.4,148.45 	"/>
</g>
<g>
	<radialGradient id="SVGID_5_" cx="357.4112" cy="303.954" r="329.3624" gradientUnits="userSpaceOnUse">
		<stop  offset="0" style="stop-color:#856E65"/>
		<stop  offset="0.6356" style="stop-color:#94786D"/>
		<stop  offset="1" style="stop-color:#A1887E"/>
	</radialGradient>
	<rect x="403.166" y="277.052" style="fill:url(#SVGID_5_);" width="19.868" height="114.949"/>
	<radialGradient id="SVGID_6_" cx="357.4112" cy="303.954" r="329.3624" gradientUnits="userSpaceOnUse">
		<stop  offset="0" style="stop-color:#6D7751"/>
		<stop  offset="0.5317" style="stop-color:#8B9766"/>
		<stop  offset="1" style="stop-color:#AEB98D"/>
	</radialGradient>
	<path style="fill:url(#SVGID_6_);" d="M515.87,315.37l-48.37-81.75l30.61-0.33l-46.66-78.85l28.91-0.31l-38.65-65.31l26.51-0.28
		L415.83,0l-50.48,89.64l20.4-0.22l-37.23,66.12l26.26-0.28l-44.96,79.84l29.79-0.32L313,317.55L515.87,315.37z M412.4,88.45
		l0.4,0.68l-0.79,0.01L412.4,88.45z"/>
</g>
<g>
	<radialGradient id="SVGID_7_" cx="590.7705" cy="410.8831" r="396.5656" gradientUnits="userSpaceOnUse">
		<stop  offset="0" style="stop-color:#856E65"/>
		<stop  offset="0.6356" style="stop-color:#94786D"/>
		<stop  offset="1" style="stop-color:#A1887E"/>
	</radialGradient>
	<rect x="626.345" y="382.638" style="fill:url(#SVGID_7_);" width="19.868" height="114.949"/>
	<polygon style="fill:#00742A;" points="635.98,194.716 635.19,194.726 635.58,194.036 	"/>
	<polygon style="fill:#00742A;" points="635.98,194.716 635.19,194.726 635.58,194.036 	"/>
	<radialGradient id="SVGID_8_" cx="590.7705" cy="410.8831" r="396.5656" gradientUnits="userSpaceOnUse">
		<stop  offset="0" style="stop-color:#94B598"/>
		<stop  offset="0.6356" style="stop-color:#B1CAA0"/>
		<stop  offset="1" style="stop-color:#AEC9A8"/>
	</radialGradient>
	<path style="fill:url(#SVGID_8_);" d="M739.05,420.956l-48.37-81.75l30.61-0.33l-46.66-78.85l28.91-0.31l-38.65-65.31l26.51-0.28
		l-52.39-88.54l-50.48,89.64l20.4-0.22l-37.23,66.12l26.26-0.28L553,340.686l29.79-0.32l-46.61,82.77L739.05,420.956z
		 M635.58,194.036l0.4,0.68l-0.79,0.01L635.58,194.036z"/>
	<polygon style="fill:#00742A;" points="635.98,194.716 635.19,194.726 635.58,194.036 	"/>
</g>
<g>
	<radialGradient id="SVGID_9_" cx="466.5911" cy="388.54" r="329.3624" gradientUnits="userSpaceOnUse">
		<stop  offset="0" style="stop-color:#856E65"/>
		<stop  offset="0.6356" style="stop-color:#94786D"/>
		<stop  offset="1" style="stop-color:#A1887E"/>
	</radialGradient>
	<rect x="512.345" y="361.638" style="fill:url(#SVGID_9_);" width="19.868" height="114.949"/>
	<radialGradient id="SVGID_10_" cx="466.5911" cy="388.54" r="329.3624" gradientUnits="userSpaceOnUse">
		<stop  offset="0" style="stop-color:#6D7751"/>
		<stop  offset="0.5317" style="stop-color:#8B9766"/>
		<stop  offset="1" style="stop-color:#AEB98D"/>
	</radialGradient>
	<path style="fill:url(#SVGID_10_);" d="M625.05,399.956l-48.37-81.75l30.61-0.33l-46.66-78.85l28.91-0.31l-38.65-65.31l26.51-0.28
		l-52.39-88.54l-50.48,89.64l20.4-0.22l-37.23,66.12l26.26-0.28L439,319.686l29.79-0.32l-46.61,82.77L625.05,399.956z
		 M521.58,173.036l0.4,0.68l-0.79,0.01L521.58,173.036z"/>
</g>
</svg>
