<?xml version="1.0" encoding="iso-8859-1"?>
<!-- Generator: Adobe Illustrator 24.1.2, SVG Export Plug-In . SVG Version: 6.00 Build 0)  -->
<svg version="1.1" id="Layer_1" xmlns="http://www.w3.org/2000/svg" xmlns:xlink="http://www.w3.org/1999/xlink" x="0px" y="0px"
	 viewBox="0 0 954.352 566.486" style="enable-background:new 0 0 954.352 566.486;" xml:space="preserve">
<g>
	<radialGradient id="SVGID_1_" cx="342.0974" cy="382.8419" r="228.292" gradientUnits="userSpaceOnUse">
		<stop  offset="0" style="stop-color:#856E65"/>
		<stop  offset="0.6356" style="stop-color:#94786D"/>
		<stop  offset="1" style="stop-color:#A1887E"/>
	</radialGradient>
	<rect x="382.769" y="385.737" style="fill:url(#SVGID_1_);" width="19.868" height="114.949"/>
	<polygon style="fill:#00742A;" points="392.403,197.815 391.613,197.825 392.003,197.135 	"/>
	<polygon style="fill:#00742A;" points="392.403,197.815 391.613,197.825 392.003,197.135 	"/>
	<radialGradient id="SVGID_2_" cx="342.0974" cy="382.8419" r="228.292" gradientUnits="userSpaceOnUse">
		<stop  offset="0" style="stop-color:#94B598"/>
		<stop  offset="0.6356" style="stop-color:#B1CAA0"/>
		<stop  offset="1" style="stop-color:#AEC9A8"/>
	</radialGradient>
	<path style="fill:url(#SVGID_2_);" d="M495.473,424.055l-48.37-81.75l30.61-0.33l-46.66-78.85l28.91-0.31l-38.65-65.31l26.51-0.28
		l-52.39-88.54l-50.48,89.64l20.4-0.22l-37.23,66.12l26.26-0.28l-44.96,79.84l29.79-0.32l-46.61,82.77L495.473,424.055z
		 M392.003,197.135l0.4,0.68l-0.79,0.01L392.003,197.135z"/>
	<polygon style="fill:#00742A;" points="392.403,197.815 391.613,197.825 392.003,197.135 	"/>
</g>
<g>
	<radialGradient id="SVGID_3_" cx="35.3818" cy="456.4536" r="238.6525" gradientUnits="userSpaceOnUse">
		<stop  offset="0" style="stop-color:#856E65"/>
		<stop  offset="0.6356" style="stop-color:#94786D"/>
		<stop  offset="1" style="stop-color:#A1887E"/>
	</radialGradient>
	<rect x="90.166" y="426.537" style="fill:url(#SVGID_3_);" width="19.868" height="114.949"/>
	<polygon style="fill:#00742A;" points="99.8,238.615 99.01,238.625 99.4,237.935 	"/>
	<polygon style="fill:#00742A;" points="99.8,238.615 99.01,238.625 99.4,237.935 	"/>
	<radialGradient id="SVGID_4_" cx="35.3818" cy="456.4536" r="238.6525" gradientUnits="userSpaceOnUse">
		<stop  offset="0" style="stop-color:#94B598"/>
		<stop  offset="0.6356" style="stop-color:#B1CAA0"/>
		<stop  offset="1" style="stop-color:#AEC9A8"/>
	</radialGradient>
	<path style="fill:url(#SVGID_4_);" d="M202.87,464.855l-48.37-81.75l30.61-0.33l-46.66-78.85l28.91-0.31l-38.65-65.31l26.51-0.28
		l-52.39-88.54l-50.48,89.64l20.4-0.22l-37.23,66.12l26.26-0.28l-44.96,79.84l29.79-0.32L0,467.035L202.87,464.855z M99.4,237.935
		l0.4,0.68l-0.79,0.01L99.4,237.935z"/>
	<polygon style="fill:#00742A;" points="99.8,238.615 99.01,238.625 99.4,237.935 	"/>
</g>
<g>
	<radialGradient id="SVGID_5_" cx="228.6127" cy="467.1887" r="230.1644" gradientUnits="userSpaceOnUse">
		<stop  offset="0" style="stop-color:#856E65"/>
		<stop  offset="0.6356" style="stop-color:#94786D"/>
		<stop  offset="1" style="stop-color:#A1887E"/>
	</radialGradient>
	<rect x="257.166" y="451.537" style="fill:url(#SVGID_5_);" width="19.868" height="114.949"/>
	<radialGradient id="SVGID_6_" cx="228.6127" cy="467.1887" r="230.1644" gradientUnits="userSpaceOnUse">
		<stop  offset="0" style="stop-color:#6D7751"/>
		<stop  offset="0.5317" style="stop-color:#8B9766"/>
		<stop  offset="1" style="stop-color:#AEB98D"/>
	</radialGradient>
	<path style="fill:url(#SVGID_6_);" d="M369.87,489.855l-48.37-81.75l30.61-0.33l-46.66-78.85l28.91-0.31l-38.65-65.31l26.51-0.28
		l-52.39-88.54l-50.48,89.64l20.4-0.22l-37.23,66.12l26.26-0.28l-44.96,79.84l29.79-0.32L167,492.035L369.87,489.855z
		 M266.4,262.935l0.4,0.68l-0.79,0.01L266.4,262.935z"/>
</g>
<g>
	<radialGradient id="SVGID_7_" cx="535.3282" cy="367.5061" r="285.365" gradientUnits="userSpaceOnUse">
		<stop  offset="0" style="stop-color:#856E65"/>
		<stop  offset="0.6356" style="stop-color:#94786D"/>
		<stop  offset="1" style="stop-color:#A1887E"/>
	</radialGradient>
	<rect x="583.237" y="333.555" style="fill:url(#SVGID_7_);" width="23.92" height="138.393"/>
	<polygon style="fill:#00742A;" points="594.836,107.308 593.885,107.32 594.355,106.489 	"/>
	<polygon style="fill:#00742A;" points="594.836,107.308 593.885,107.32 594.355,106.489 	"/>
	<radialGradient id="SVGID_8_" cx="535.3282" cy="367.5061" r="285.365" gradientUnits="userSpaceOnUse">
		<stop  offset="0" style="stop-color:#94B598"/>
		<stop  offset="0.6356" style="stop-color:#B1CAA0"/>
		<stop  offset="1" style="stop-color:#AEC9A8"/>
	</radialGradient>
	<path style="fill:url(#SVGID_8_);" d="M718.927,379.688l-58.235-98.422l36.853-0.397l-56.176-94.931l34.806-0.373l-46.533-78.63
		l31.917-0.337L598.484,0l-60.775,107.922l24.56-0.265l-44.823,79.605l31.616-0.337l-54.129,96.123l35.866-0.385l-56.116,99.65
		L718.927,379.688z M594.355,106.489l0.482,0.819l-0.951,0.012L594.355,106.489z"/>
	<polygon style="fill:#00742A;" points="594.836,107.308 593.885,107.32 594.355,106.489 	"/>
</g>
<g>
	<radialGradient id="SVGID_9_" cx="667.2957" cy="384.1336" r="309.6461" gradientUnits="userSpaceOnUse">
		<stop  offset="0" style="stop-color:#856E65"/>
		<stop  offset="0.6356" style="stop-color:#94786D"/>
		<stop  offset="1" style="stop-color:#A1887E"/>
	</radialGradient>
	<rect x="705.647" y="363.223" style="fill:url(#SVGID_9_);" width="19.868" height="114.949"/>
	<radialGradient id="SVGID_10_" cx="667.2957" cy="384.1336" r="309.6461" gradientUnits="userSpaceOnUse">
		<stop  offset="0" style="stop-color:#446763"/>
		<stop  offset="0.4921" style="stop-color:#5A786D"/>
		<stop  offset="1" style="stop-color:#8C9F86"/>
	</radialGradient>
	<path style="fill:url(#SVGID_10_);" d="M818.352,401.541l-48.37-81.75l30.61-0.33l-46.66-78.85l28.91-0.31l-38.65-65.31l26.51-0.28
		l-52.39-88.54l-50.48,89.64l20.4-0.22l-37.23,66.12l26.26-0.28l-44.96,79.84l29.79-0.32l-46.61,82.77L818.352,401.541z
		 M714.882,174.621l0.4,0.68l-0.79,0.01L714.882,174.621z"/>
</g>
<g>
	<radialGradient id="SVGID_11_" cx="800.9756" cy="432.3277" r="228.292" gradientUnits="userSpaceOnUse">
		<stop  offset="0" style="stop-color:#856E65"/>
		<stop  offset="0.6356" style="stop-color:#94786D"/>
		<stop  offset="1" style="stop-color:#A1887E"/>
	</radialGradient>
	<rect x="841.647" y="435.223" style="fill:url(#SVGID_11_);" width="19.868" height="114.949"/>
	<polygon style="fill:#00742A;" points="851.282,247.301 850.492,247.311 850.882,246.621 	"/>
	<polygon style="fill:#00742A;" points="851.282,247.301 850.492,247.311 850.882,246.621 	"/>
	<radialGradient id="SVGID_12_" cx="800.9756" cy="432.3277" r="228.292" gradientUnits="userSpaceOnUse">
		<stop  offset="0" style="stop-color:#94B598"/>
		<stop  offset="0.6356" style="stop-color:#B1CAA0"/>
		<stop  offset="1" style="stop-color:#AEC9A8"/>
	</radialGradient>
	<path style="fill:url(#SVGID_12_);" d="M954.352,473.541l-48.37-81.75l30.61-0.33l-46.66-78.85l28.91-0.31l-38.65-65.31l26.51-0.28
		l-52.39-88.54l-50.48,89.64l20.4-0.22l-37.23,66.12l26.26-0.28l-44.96,79.84l29.79-0.32l-46.61,82.77L954.352,473.541z
		 M850.882,246.621l0.4,0.68l-0.79,0.01L850.882,246.621z"/>
	<polygon style="fill:#00742A;" points="851.282,247.301 850.492,247.311 850.882,246.621 	"/>
</g>
</svg>
