<?xml version="1.0" encoding="iso-8859-1"?>
<!-- Generator: Adobe Illustrator 24.1.2, SVG Export Plug-In . SVG Version: 6.00 Build 0)  -->
<svg version="1.1" id="Layer_1" xmlns="http://www.w3.org/2000/svg" xmlns:xlink="http://www.w3.org/1999/xlink" x="0px" y="0px"
	 viewBox="0 0 1382.758 676.804" style="enable-background:new 0 0 1382.758 676.804;" xml:space="preserve">
<g>
	<radialGradient id="SVGID_1_" cx="465.4285" cy="299.89" r="236.1393" gradientUnits="userSpaceOnUse">
		<stop  offset="0" style="stop-color:#856E65"/>
		<stop  offset="0.6356" style="stop-color:#94786D"/>
		<stop  offset="1" style="stop-color:#A1887E"/>
	</radialGradient>
	<rect x="468.709" y="289.569" style="fill:url(#SVGID_1_);" width="19.868" height="114.949"/>
	<polygon style="fill:#00742A;" points="478.343,101.647 477.553,101.657 477.943,100.967 	"/>
	<polygon style="fill:#00742A;" points="478.343,101.647 477.553,101.657 477.943,100.967 	"/>
	<radialGradient id="SVGID_2_" cx="465.4285" cy="299.89" r="236.1393" gradientUnits="userSpaceOnUse">
		<stop  offset="0" style="stop-color:#94B598"/>
		<stop  offset="0.6356" style="stop-color:#B1CAA0"/>
		<stop  offset="1" style="stop-color:#AEC9A8"/>
	</radialGradient>
	<path style="fill:url(#SVGID_2_);" d="M581.413,327.887l-48.37-81.75l30.61-0.33l-46.66-78.85l28.91-0.31l-38.65-65.31l26.51-0.28
		l-52.39-88.54l-50.48,89.64l20.4-0.22l-37.23,66.12l26.26-0.28l-44.96,79.84l29.79-0.32l-46.61,82.77L581.413,327.887z
		 M477.943,100.967l0.4,0.68l-0.79,0.01L477.943,100.967z"/>
	<polygon style="fill:#00742A;" points="478.343,101.647 477.553,101.657 477.943,100.967 	"/>
</g>
<g>
	<radialGradient id="SVGID_3_" cx="861.0572" cy="340.3037" r="207.6449" gradientUnits="userSpaceOnUse">
		<stop  offset="0" style="stop-color:#856E65"/>
		<stop  offset="0.6356" style="stop-color:#94786D"/>
		<stop  offset="1" style="stop-color:#A1887E"/>
	</radialGradient>
	<rect x="867.566" y="333.761" style="fill:url(#SVGID_3_);" width="19.868" height="114.949"/>
	<radialGradient id="SVGID_4_" cx="861.0572" cy="340.3037" r="207.6449" gradientUnits="userSpaceOnUse">
		<stop  offset="0" style="stop-color:#6D7751"/>
		<stop  offset="0.5317" style="stop-color:#8B9766"/>
		<stop  offset="1" style="stop-color:#AEB98D"/>
	</radialGradient>
	<path style="fill:url(#SVGID_4_);" d="M980.271,372.079l-48.37-81.75l30.61-0.33l-46.66-78.85l28.91-0.31l-38.65-65.31l26.51-0.28
		l-52.39-88.54l-50.48,89.64l20.4-0.22l-37.23,66.12l26.26-0.28l-44.96,79.84l29.79-0.32l-46.61,82.77L980.271,372.079z
		 M876.801,145.159l0.4,0.68l-0.79,0.01L876.801,145.159z"/>
</g>
<g>
	<radialGradient id="SVGID_5_" cx="333.5522" cy="474.3069" r="243.729" gradientUnits="userSpaceOnUse">
		<stop  offset="0" style="stop-color:#856E65"/>
		<stop  offset="0.6356" style="stop-color:#94786D"/>
		<stop  offset="1" style="stop-color:#A1887E"/>
	</radialGradient>
	<rect x="386.586" y="443.795" style="fill:url(#SVGID_5_);" width="19.868" height="114.949"/>
	<radialGradient id="SVGID_6_" cx="333.5522" cy="474.3069" r="243.729" gradientUnits="userSpaceOnUse">
		<stop  offset="0" style="stop-color:#6D7751"/>
		<stop  offset="0.5317" style="stop-color:#8B9766"/>
		<stop  offset="1" style="stop-color:#AEB98D"/>
	</radialGradient>
	<path style="fill:url(#SVGID_6_);" d="M499.29,482.113l-48.37-81.75l30.61-0.33l-46.66-78.85l28.91-0.31l-38.65-65.31l26.51-0.28
		l-52.39-88.54l-50.48,89.64l20.4-0.22l-37.23,66.12l26.26-0.28l-44.96,79.84l29.79-0.32l-46.61,82.77L499.29,482.113z
		 M395.82,255.193l0.4,0.68l-0.79,0.01L395.82,255.193z"/>
</g>
<g>
	<radialGradient id="SVGID_7_" cx="1205.6371" cy="589.1669" r="234.6305" gradientUnits="userSpaceOnUse">
		<stop  offset="0" style="stop-color:#856E65"/>
		<stop  offset="0.6356" style="stop-color:#94786D"/>
		<stop  offset="1" style="stop-color:#A1887E"/>
	</radialGradient>
	<rect x="1270.054" y="561.854" style="fill:url(#SVGID_7_);" width="19.868" height="114.949"/>
	<polygon style="fill:#00742A;" points="1279.688,373.932 1278.898,373.942 1279.288,373.252 	"/>
	<polygon style="fill:#00742A;" points="1279.688,373.932 1278.898,373.942 1279.288,373.252 	"/>
	<radialGradient id="SVGID_8_" cx="1205.6371" cy="589.1669" r="234.6305" gradientUnits="userSpaceOnUse">
		<stop  offset="0" style="stop-color:#94B598"/>
		<stop  offset="0.6356" style="stop-color:#B1CAA0"/>
		<stop  offset="1" style="stop-color:#AEC9A8"/>
	</radialGradient>
	<path style="fill:url(#SVGID_8_);" d="M1382.758,600.172l-48.37-81.75l30.61-0.33l-46.66-78.85l28.91-0.31l-38.65-65.31l26.51-0.28
		l-52.39-88.54l-50.48,89.64l20.4-0.22l-37.23,66.12l26.26-0.28l-44.96,79.84l29.79-0.32l-46.61,82.77L1382.758,600.172z
		 M1279.288,373.252l0.4,0.68l-0.79,0.01L1279.288,373.252z"/>
	<polygon style="fill:#00742A;" points="1279.688,373.932 1278.898,373.942 1279.288,373.252 	"/>
</g>
<g>
	<radialGradient id="SVGID_9_" cx="1078.0149" cy="482.8151" r="204.7988" gradientUnits="userSpaceOnUse">
		<stop  offset="0" style="stop-color:#856E65"/>
		<stop  offset="0.6356" style="stop-color:#94786D"/>
		<stop  offset="1" style="stop-color:#A1887E"/>
	</radialGradient>
	<rect x="1115.054" y="445.854" style="fill:url(#SVGID_9_);" width="19.868" height="114.949"/>
	<radialGradient id="SVGID_10_" cx="1078.0149" cy="482.8151" r="204.7376" gradientUnits="userSpaceOnUse">
		<stop  offset="0" style="stop-color:#6D7751"/>
		<stop  offset="0.5317" style="stop-color:#8B9766"/>
		<stop  offset="1" style="stop-color:#AEB98D"/>
	</radialGradient>
	<path style="fill:url(#SVGID_10_);" d="M1227.758,484.172l-48.37-81.75l30.61-0.33l-46.66-78.85l28.91-0.31l-38.65-65.31
		l26.51-0.28l-52.39-88.54l-50.48,89.64l20.4-0.22l-37.23,66.12l26.26-0.28l-44.96,79.84l29.79-0.32l-46.61,82.77L1227.758,484.172z
		 M1124.288,257.252l0.4,0.68l-0.79,0.01L1124.288,257.252z"/>
</g>
<g>
	<radialGradient id="SVGID_11_" cx="163.1322" cy="307.5638" r="243.729" gradientUnits="userSpaceOnUse">
		<stop  offset="0" style="stop-color:#856E65"/>
		<stop  offset="0.6356" style="stop-color:#94786D"/>
		<stop  offset="1" style="stop-color:#A1887E"/>
	</radialGradient>
	<rect x="216.166" y="277.052" style="fill:url(#SVGID_11_);" width="19.868" height="114.949"/>
	<radialGradient id="SVGID_12_" cx="163.1322" cy="307.5638" r="243.729" gradientUnits="userSpaceOnUse">
		<stop  offset="0" style="stop-color:#6D7751"/>
		<stop  offset="0.5317" style="stop-color:#8B9766"/>
		<stop  offset="1" style="stop-color:#AEB98D"/>
	</radialGradient>
	<path style="fill:url(#SVGID_12_);" d="M328.87,315.37l-48.37-81.75l30.61-0.33l-46.66-78.85l28.91-0.31l-38.65-65.31l26.51-0.28
		L228.83,0l-50.48,89.64l20.4-0.22l-37.23,66.12l26.26-0.28l-44.96,79.84l29.79-0.32L126,317.55L328.87,315.37z M225.4,88.45
		l0.4,0.68l-0.79,0.01L225.4,88.45z"/>
</g>
<g>
	<radialGradient id="SVGID_13_" cx="46.7675" cy="331.6712" r="206.0702" gradientUnits="userSpaceOnUse">
		<stop  offset="0" style="stop-color:#94B598"/>
		<stop  offset="0.6356" style="stop-color:#B1CAA0"/>
		<stop  offset="1" style="stop-color:#AEC9A8"/>
	</radialGradient>
	<rect x="90.166" y="320.052" style="fill:url(#SVGID_13_);" width="19.868" height="114.949"/>
	<radialGradient id="SVGID_14_" cx="46.7675" cy="331.6712" r="206.0702" gradientUnits="userSpaceOnUse">
		<stop  offset="0" style="stop-color:#94B598"/>
		<stop  offset="0.6356" style="stop-color:#B1CAA0"/>
		<stop  offset="1" style="stop-color:#AEC9A8"/>
	</radialGradient>
	<path style="fill:url(#SVGID_14_);" d="M202.87,358.37l-48.37-81.75l30.61-0.33l-46.66-78.85l28.91-0.31l-38.65-65.31l26.51-0.28
		L102.83,43l-50.48,89.64l20.4-0.22l-37.23,66.12l26.26-0.28L16.82,278.1l29.79-0.32L0,360.55L202.87,358.37z M99.4,131.45l0.4,0.68
		l-0.79,0.01L99.4,131.45z"/>
</g>
</svg>
