<?xml version="1.0" encoding="iso-8859-1"?>
<!-- Generator: Adobe Illustrator 24.1.2, SVG Export Plug-In . SVG Version: 6.00 Build 0)  -->
<svg version="1.1" id="Layer_1" xmlns="http://www.w3.org/2000/svg" xmlns:xlink="http://www.w3.org/1999/xlink" x="0px" y="0px"
	 viewBox="0 0 857.05 449.002" style="enable-background:new 0 0 857.05 449.002;" xml:space="preserve">
<g>
	<radialGradient id="SVGID_1_" cx="30.7591" cy="314.9735" r="291.4807" gradientUnits="userSpaceOnUse">
		<stop  offset="0" style="stop-color:#94B598"/>
		<stop  offset="0.6356" style="stop-color:#B1CAA0"/>
		<stop  offset="1" style="stop-color:#AEC9A8"/>
	</radialGradient>
	<rect x="90.166" y="294.466" style="fill:url(#SVGID_1_);" width="19.868" height="114.949"/>
	<radialGradient id="SVGID_2_" cx="30.7591" cy="314.9735" r="291.4807" gradientUnits="userSpaceOnUse">
		<stop  offset="0" style="stop-color:#94B598"/>
		<stop  offset="0.6356" style="stop-color:#B1CAA0"/>
		<stop  offset="1" style="stop-color:#AEC9A8"/>
	</radialGradient>
	<path style="fill:url(#SVGID_2_);" d="M202.87,332.784l-48.37-81.75l30.61-0.33l-46.66-78.85l28.91-0.31l-38.65-65.31l26.51-0.28
		l-52.39-88.54l-50.48,89.64l20.4-0.22l-37.23,66.12l26.26-0.28l-44.96,79.84l29.79-0.32L0,334.964L202.87,332.784z M99.4,105.864
		l0.4,0.68l-0.79,0.01L99.4,105.864z"/>
</g>
<g>
	<radialGradient id="SVGID_3_" cx="375.8141" cy="333.3765" r="309.6461" gradientUnits="userSpaceOnUse">
		<stop  offset="0" style="stop-color:#856E65"/>
		<stop  offset="0.6356" style="stop-color:#94786D"/>
		<stop  offset="1" style="stop-color:#A1887E"/>
	</radialGradient>
	<rect x="414.166" y="312.466" style="fill:url(#SVGID_3_);" width="19.868" height="114.949"/>
	<radialGradient id="SVGID_4_" cx="375.8141" cy="333.3765" r="309.6461" gradientUnits="userSpaceOnUse">
		<stop  offset="0" style="stop-color:#446763"/>
		<stop  offset="0.4921" style="stop-color:#5A786D"/>
		<stop  offset="1" style="stop-color:#8C9F86"/>
	</radialGradient>
	<path style="fill:url(#SVGID_4_);" d="M526.87,350.784l-48.37-81.75l30.61-0.33l-46.66-78.85l28.91-0.31l-38.65-65.31l26.51-0.28
		l-52.39-88.54l-50.48,89.64l20.4-0.22l-37.23,66.12l26.26-0.28l-44.96,79.84l29.79-0.32L324,352.964L526.87,350.784z
		 M423.4,123.864l0.4,0.68l-0.79,0.01L423.4,123.864z"/>
</g>
<g>
	<radialGradient id="SVGID_5_" cx="217.8556" cy="330.3093" r="230.9143" gradientUnits="userSpaceOnUse">
		<stop  offset="0" style="stop-color:#856E65"/>
		<stop  offset="0.6356" style="stop-color:#94786D"/>
		<stop  offset="1" style="stop-color:#A1887E"/>
	</radialGradient>
	<rect x="266.166" y="303.466" style="fill:url(#SVGID_5_);" width="19.868" height="114.949"/>
	<radialGradient id="SVGID_6_" cx="217.8556" cy="330.3093" r="230.9143" gradientUnits="userSpaceOnUse">
		<stop  offset="0" style="stop-color:#6D7751"/>
		<stop  offset="0.5317" style="stop-color:#8B9766"/>
		<stop  offset="1" style="stop-color:#AEB98D"/>
	</radialGradient>
	<path style="fill:url(#SVGID_6_);" d="M378.87,341.784l-48.37-81.75l30.61-0.33l-46.66-78.85l28.91-0.31l-38.65-65.31l26.51-0.28
		l-52.39-88.54l-50.48,89.64l20.4-0.22l-37.23,66.12l26.26-0.28l-44.96,79.84l29.79-0.32L176,343.964L378.87,341.784z
		 M275.4,114.864l0.4,0.68l-0.79,0.01L275.4,114.864z"/>
</g>
<g>
	<radialGradient id="SVGID_7_" cx="579.7705" cy="305.2971" r="396.5656" gradientUnits="userSpaceOnUse">
		<stop  offset="0" style="stop-color:#856E65"/>
		<stop  offset="0.6356" style="stop-color:#94786D"/>
		<stop  offset="1" style="stop-color:#A1887E"/>
	</radialGradient>
	<rect x="615.345" y="277.052" style="fill:url(#SVGID_7_);" width="19.868" height="114.949"/>
	<polygon style="fill:#00742A;" points="624.98,89.13 624.19,89.14 624.58,88.45 	"/>
	<polygon style="fill:#00742A;" points="624.98,89.13 624.19,89.14 624.58,88.45 	"/>
	<radialGradient id="SVGID_8_" cx="579.7705" cy="305.2971" r="396.5656" gradientUnits="userSpaceOnUse">
		<stop  offset="0" style="stop-color:#94B598"/>
		<stop  offset="0.6356" style="stop-color:#B1CAA0"/>
		<stop  offset="1" style="stop-color:#AEC9A8"/>
	</radialGradient>
	<path style="fill:url(#SVGID_8_);" d="M728.05,315.37l-48.37-81.75l30.61-0.33l-46.66-78.85l28.91-0.31l-38.65-65.31l26.51-0.28
		L628.01,0l-50.48,89.64l20.4-0.22l-37.23,66.12l26.26-0.28L542,235.1l29.79-0.32l-46.61,82.77L728.05,315.37z M624.58,88.45
		l0.4,0.68l-0.79,0.01L624.58,88.45z"/>
	<polygon style="fill:#00742A;" points="624.98,89.13 624.19,89.14 624.58,88.45 	"/>
</g>
<g>
	<radialGradient id="SVGID_9_" cx="698.5911" cy="360.954" r="329.3624" gradientUnits="userSpaceOnUse">
		<stop  offset="0" style="stop-color:#856E65"/>
		<stop  offset="0.6356" style="stop-color:#94786D"/>
		<stop  offset="1" style="stop-color:#A1887E"/>
	</radialGradient>
	<rect x="744.345" y="334.052" style="fill:url(#SVGID_9_);" width="19.868" height="114.949"/>
	<radialGradient id="SVGID_10_" cx="698.5911" cy="360.954" r="329.3624" gradientUnits="userSpaceOnUse">
		<stop  offset="0" style="stop-color:#6D7751"/>
		<stop  offset="0.5317" style="stop-color:#8B9766"/>
		<stop  offset="1" style="stop-color:#AEB98D"/>
	</radialGradient>
	<path style="fill:url(#SVGID_10_);" d="M857.05,372.37l-48.37-81.75l30.61-0.33l-46.66-78.85l28.91-0.31l-38.65-65.31l26.51-0.28
		L757.01,57l-50.48,89.64l20.4-0.22l-37.23,66.12l26.26-0.28L671,292.1l29.79-0.32l-46.61,82.77L857.05,372.37z M753.58,145.45
		l0.4,0.68l-0.79,0.01L753.58,145.45z"/>
</g>
</svg>
