<?xml version="1.0" encoding="iso-8859-1"?>
<!-- Generator: Adobe Illustrator 24.1.2, SVG Export Plug-In . SVG Version: 6.00 Build 0)  -->
<svg version="1.1" id="Layer_1" xmlns="http://www.w3.org/2000/svg" xmlns:xlink="http://www.w3.org/1999/xlink" x="0px" y="0px"
	 viewBox="0 0 1354.49 803.73" style="enable-background:new 0 0 1354.49 803.73;" xml:space="preserve">
<g>
	<radialGradient id="SVGID_1_" cx="490.777" cy="520.8821" r="245.9373" gradientUnits="userSpaceOnUse">
		<stop  offset="0" style="stop-color:#856E65"/>
		<stop  offset="0.6356" style="stop-color:#94786D"/>
		<stop  offset="1" style="stop-color:#A1887E"/>
	</radialGradient>
	<rect x="554.6" y="490.08" style="fill:url(#SVGID_1_);" width="23.92" height="138.393"/>
	<polygon style="fill:#00742A;" points="566.2,263.832 565.248,263.844 565.718,263.014 	"/>
	<polygon style="fill:#00742A;" points="566.2,263.832 565.248,263.844 565.718,263.014 	"/>
	<radialGradient id="SVGID_2_" cx="490.777" cy="520.8821" r="245.9373" gradientUnits="userSpaceOnUse">
		<stop  offset="0" style="stop-color:#94B598"/>
		<stop  offset="0.6356" style="stop-color:#B1CAA0"/>
		<stop  offset="1" style="stop-color:#AEC9A8"/>
	</radialGradient>
	<path style="fill:url(#SVGID_2_);" d="M690.29,536.213l-58.235-98.422l36.853-0.397l-56.176-94.931l34.806-0.373l-46.533-78.63
		l31.917-0.337l-63.075-106.597l-60.775,107.922l24.56-0.265l-44.823,79.605l31.616-0.337l-54.129,96.123l35.866-0.385
		l-56.116,99.65L690.29,536.213z M565.718,263.014l0.481,0.819l-0.951,0.012L565.718,263.014z"/>
	<polygon style="fill:#00742A;" points="566.2,263.832 565.248,263.844 565.718,263.014 	"/>
</g>
<g>
	<radialGradient id="SVGID_3_" cx="1188.4448" cy="297.5433" r="286.1635" gradientUnits="userSpaceOnUse">
		<stop  offset="0" style="stop-color:#856E65"/>
		<stop  offset="0.6356" style="stop-color:#94786D"/>
		<stop  offset="1" style="stop-color:#A1887E"/>
	</radialGradient>
	<rect x="1241.786" y="277.052" style="fill:url(#SVGID_3_);" width="19.868" height="114.949"/>
	<radialGradient id="SVGID_4_" cx="1188.4448" cy="297.5433" r="286.1635" gradientUnits="userSpaceOnUse">
		<stop  offset="0" style="stop-color:#94B598"/>
		<stop  offset="0.6356" style="stop-color:#B1CAA0"/>
		<stop  offset="1" style="stop-color:#AEC9A8"/>
	</radialGradient>
	<path style="fill:url(#SVGID_4_);" d="M1354.49,315.37l-48.37-81.75l30.61-0.33l-46.66-78.85l28.91-0.31l-38.65-65.31l26.51-0.28
		L1254.45,0l-50.48,89.64l20.4-0.22l-37.23,66.12l26.26-0.28l-44.96,79.84l29.79-0.32l-46.61,82.77L1354.49,315.37z M1251.02,88.45
		l0.4,0.68l-0.79,0.01L1251.02,88.45z"/>
</g>
<g>
	<radialGradient id="SVGID_5_" cx="1001.2657" cy="493.2306" r="327.4392" gradientUnits="userSpaceOnUse">
		<stop  offset="0" style="stop-color:#856E65"/>
		<stop  offset="0.6356" style="stop-color:#94786D"/>
		<stop  offset="1" style="stop-color:#A1887E"/>
	</radialGradient>
	<rect x="1079.054" y="473.582" style="fill:url(#SVGID_5_);" width="19.868" height="114.949"/>
	<radialGradient id="SVGID_6_" cx="1001.2657" cy="493.2306" r="327.4392" gradientUnits="userSpaceOnUse">
		<stop  offset="0" style="stop-color:#446763"/>
		<stop  offset="0.4921" style="stop-color:#5A786D"/>
		<stop  offset="1" style="stop-color:#8C9F86"/>
	</radialGradient>
	<path style="fill:url(#SVGID_6_);" d="M1191.758,511.9l-48.37-81.75l30.61-0.33l-46.66-78.85l28.91-0.31l-38.65-65.31l26.51-0.28
		l-52.39-88.54l-50.48,89.64l20.4-0.22l-37.23,66.12l26.26-0.28l-44.96,79.84l29.79-0.32l-46.61,82.77L1191.758,511.9z
		 M1088.288,284.98l0.4,0.68l-0.79,0.01L1088.288,284.98z"/>
</g>
<g>
	<radialGradient id="SVGID_7_" cx="908.6127" cy="530.4319" r="230.1644" gradientUnits="userSpaceOnUse">
		<stop  offset="0" style="stop-color:#856E65"/>
		<stop  offset="0.6356" style="stop-color:#94786D"/>
		<stop  offset="1" style="stop-color:#A1887E"/>
	</radialGradient>
	<rect x="937.166" y="514.78" style="fill:url(#SVGID_7_);" width="19.868" height="114.949"/>
	<radialGradient id="SVGID_8_" cx="908.6127" cy="530.4319" r="230.1644" gradientUnits="userSpaceOnUse">
		<stop  offset="0" style="stop-color:#6D7751"/>
		<stop  offset="0.5317" style="stop-color:#8B9766"/>
		<stop  offset="1" style="stop-color:#AEB98D"/>
	</radialGradient>
	<path style="fill:url(#SVGID_8_);" d="M1049.87,553.098l-48.37-81.75l30.61-0.33l-46.66-78.85l28.91-0.31l-38.65-65.31l26.51-0.28
		l-52.39-88.54l-50.48,89.64l20.4-0.22l-37.23,66.12l26.26-0.28l-44.96,79.84l29.79-0.32L847,555.278L1049.87,553.098z
		 M946.4,326.178l0.4,0.68l-0.79,0.01L946.4,326.178z"/>
</g>
<g>
	<radialGradient id="SVGID_9_" cx="753.7675" cy="469.3994" r="206.0702" gradientUnits="userSpaceOnUse">
		<stop  offset="0" style="stop-color:#94B598"/>
		<stop  offset="0.6356" style="stop-color:#B1CAA0"/>
		<stop  offset="1" style="stop-color:#AEC9A8"/>
	</radialGradient>
	<rect x="797.166" y="457.78" style="fill:url(#SVGID_9_);" width="19.868" height="114.949"/>
	<radialGradient id="SVGID_10_" cx="753.7675" cy="469.3994" r="206.0702" gradientUnits="userSpaceOnUse">
		<stop  offset="0" style="stop-color:#94B598"/>
		<stop  offset="0.6356" style="stop-color:#B1CAA0"/>
		<stop  offset="1" style="stop-color:#AEC9A8"/>
	</radialGradient>
	<path style="fill:url(#SVGID_10_);" d="M909.87,496.098l-48.37-81.75l30.61-0.33l-46.66-78.85l28.91-0.31l-38.65-65.31l26.51-0.28
		l-52.39-88.54l-50.48,89.64l20.4-0.22l-37.23,66.12l26.26-0.28l-44.96,79.84l29.79-0.32L707,498.278L909.87,496.098z
		 M806.4,269.178l0.4,0.68l-0.79,0.01L806.4,269.178z"/>
</g>
<g>
	<radialGradient id="SVGID_11_" cx="456.1322" cy="650.292" r="243.729" gradientUnits="userSpaceOnUse">
		<stop  offset="0" style="stop-color:#856E65"/>
		<stop  offset="0.6356" style="stop-color:#94786D"/>
		<stop  offset="1" style="stop-color:#A1887E"/>
	</radialGradient>
	<rect x="509.166" y="619.78" style="fill:url(#SVGID_11_);" width="19.868" height="114.949"/>
	<radialGradient id="SVGID_12_" cx="456.1322" cy="650.292" r="243.729" gradientUnits="userSpaceOnUse">
		<stop  offset="0" style="stop-color:#6D7751"/>
		<stop  offset="0.5317" style="stop-color:#8B9766"/>
		<stop  offset="1" style="stop-color:#AEB98D"/>
	</radialGradient>
	<path style="fill:url(#SVGID_12_);" d="M621.87,658.098l-48.37-81.75l30.61-0.33l-46.66-78.85l28.91-0.31l-38.65-65.31l26.51-0.28
		l-52.39-88.54l-50.48,89.64l20.4-0.22l-37.23,66.12l26.26-0.28l-44.96,79.84l29.79-0.32L419,660.278L621.87,658.098z
		 M518.4,431.178l0.4,0.68l-0.79,0.01L518.4,431.178z"/>
</g>
<g>
	<radialGradient id="SVGID_13_" cx="12.3777" cy="577.4285" r="327.4392" gradientUnits="userSpaceOnUse">
		<stop  offset="0" style="stop-color:#856E65"/>
		<stop  offset="0.6356" style="stop-color:#94786D"/>
		<stop  offset="1" style="stop-color:#A1887E"/>
	</radialGradient>
	<rect x="90.166" y="557.78" style="fill:url(#SVGID_13_);" width="19.868" height="114.949"/>
	<radialGradient id="SVGID_14_" cx="12.3777" cy="577.4285" r="327.4392" gradientUnits="userSpaceOnUse">
		<stop  offset="0" style="stop-color:#446763"/>
		<stop  offset="0.4921" style="stop-color:#5A786D"/>
		<stop  offset="1" style="stop-color:#8C9F86"/>
	</radialGradient>
	<path style="fill:url(#SVGID_14_);" d="M202.87,596.098l-48.37-81.75l30.61-0.33l-46.66-78.85l28.91-0.31l-38.65-65.31l26.51-0.28
		l-52.39-88.54l-50.48,89.64l20.4-0.22l-37.23,66.12l26.26-0.28l-44.96,79.84l29.79-0.32L0,598.278L202.87,596.098z M99.4,369.178
		l0.4,0.68l-0.79,0.01L99.4,369.178z"/>
</g>
<g>
	<radialGradient id="SVGID_15_" cx="290.0441" cy="590.1122" r="245.9373" gradientUnits="userSpaceOnUse">
		<stop  offset="0" style="stop-color:#856E65"/>
		<stop  offset="0.6356" style="stop-color:#94786D"/>
		<stop  offset="1" style="stop-color:#A1887E"/>
	</radialGradient>
	<rect x="353.867" y="559.31" style="fill:url(#SVGID_15_);" width="23.92" height="138.393"/>
	<polygon style="fill:#00742A;" points="365.467,333.062 364.515,333.075 364.985,332.244 	"/>
	<polygon style="fill:#00742A;" points="365.467,333.062 364.515,333.075 364.985,332.244 	"/>
	<radialGradient id="SVGID_16_" cx="290.0441" cy="590.1122" r="245.9373" gradientUnits="userSpaceOnUse">
		<stop  offset="0" style="stop-color:#94B598"/>
		<stop  offset="0.6356" style="stop-color:#B1CAA0"/>
		<stop  offset="1" style="stop-color:#AEC9A8"/>
	</radialGradient>
	<path style="fill:url(#SVGID_16_);" d="M489.557,605.443l-58.235-98.422l36.853-0.397l-56.176-94.931l34.806-0.373l-46.533-78.63
		l31.917-0.337l-63.075-106.597l-60.775,107.922l24.56-0.265l-44.823,79.605l31.616-0.337l-54.129,96.123l35.866-0.385
		l-56.116,99.65L489.557,605.443z M364.985,332.244l0.481,0.819l-0.951,0.012L364.985,332.244z"/>
	<polygon style="fill:#00742A;" points="365.467,333.062 364.515,333.075 364.985,332.244 	"/>
</g>
<g>
	<radialGradient id="SVGID_17_" cx="265.9988" cy="719.3057" r="213.9126" gradientUnits="userSpaceOnUse">
		<stop  offset="0" style="stop-color:#856E65"/>
		<stop  offset="0.6356" style="stop-color:#94786D"/>
		<stop  offset="1" style="stop-color:#A1887E"/>
	</radialGradient>
	<rect x="278.166" y="688.78" style="fill:url(#SVGID_17_);" width="19.868" height="114.949"/>
	<radialGradient id="SVGID_18_" cx="265.9988" cy="719.3057" r="213.9126" gradientUnits="userSpaceOnUse">
		<stop  offset="0" style="stop-color:#6D7751"/>
		<stop  offset="0.5317" style="stop-color:#8B9766"/>
		<stop  offset="1" style="stop-color:#AEB98D"/>
	</radialGradient>
	<path style="fill:url(#SVGID_18_);" d="M390.87,727.098l-48.37-81.75l30.61-0.33l-46.66-78.85l28.91-0.31l-38.65-65.31l26.51-0.28
		l-52.39-88.54l-50.48,89.64l20.4-0.22l-37.23,66.12l26.26-0.28l-44.96,79.84l29.79-0.32L188,729.278L390.87,727.098z
		 M287.4,500.178l0.4,0.68l-0.79,0.01L287.4,500.178z"/>
</g>
</svg>
