<?xml version="1.0" encoding="iso-8859-1"?>
<!-- Generator: Adobe Illustrator 24.1.2, SVG Export Plug-In . SVG Version: 6.00 Build 0)  -->
<svg version="1.1" id="Layer_1" xmlns="http://www.w3.org/2000/svg" xmlns:xlink="http://www.w3.org/1999/xlink" x="0px" y="0px"
	 viewBox="0 0 373.676 527.776" style="enable-background:new 0 0 373.676 527.776;" xml:space="preserve">
<g>
	<radialGradient id="SVGID_1_" cx="166.3629" cy="418.3518" r="340.4646" gradientUnits="userSpaceOnUse">
		<stop  offset="0" style="stop-color:#856E65"/>
		<stop  offset="0.6356" style="stop-color:#94786D"/>
		<stop  offset="1" style="stop-color:#A1887E"/>
	</radialGradient>
	<rect x="236.161" y="387.522" style="fill:url(#SVGID_1_);" width="24.241" height="140.254"/>
	<radialGradient id="SVGID_2_" cx="166.3629" cy="418.3518" r="340.4646" gradientUnits="userSpaceOnUse">
		<stop  offset="0" style="stop-color:#6D7751"/>
		<stop  offset="0.5317" style="stop-color:#8B9766"/>
		<stop  offset="1" style="stop-color:#AEB98D"/>
	</radialGradient>
	<path style="fill:url(#SVGID_2_);" d="M373.676,434.275l-59.018-99.746l37.348-0.403l-56.931-96.208l35.274-0.378l-47.158-79.687
		l32.346-0.342L251.613,49.481l-61.592,109.373l24.891-0.268l-45.426,80.675l32.041-0.342l-54.857,97.416l36.348-0.39
		l-56.871,100.991L373.676,434.275z M247.428,157.402l0.488,0.83l-0.964,0.012L247.428,157.402z"/>
</g>
<g>
	<radialGradient id="SVGID_3_" cx="49.5217" cy="361.5101" r="333.4357" gradientUnits="userSpaceOnUse">
		<stop  offset="0" style="stop-color:#856E65"/>
		<stop  offset="0.6356" style="stop-color:#94786D"/>
		<stop  offset="1" style="stop-color:#A1887E"/>
	</radialGradient>
	<rect x="116.489" y="357.936" style="fill:url(#SVGID_3_);" width="25.668" height="148.509"/>
	<polygon style="fill:#00742A;" points="128.936,115.151 127.916,115.164 128.42,114.273 	"/>
	<polygon style="fill:#00742A;" points="128.936,115.151 127.916,115.164 128.42,114.273 	"/>
	<radialGradient id="SVGID_4_" cx="49.5217" cy="361.5101" r="333.4357" gradientUnits="userSpaceOnUse">
		<stop  offset="0" style="stop-color:#94B598"/>
		<stop  offset="0.6356" style="stop-color:#B1CAA0"/>
		<stop  offset="1" style="stop-color:#AEC9A8"/>
	</radialGradient>
	<path style="fill:url(#SVGID_4_);" d="M262.097,407.441l-62.492-105.617l39.547-0.426l-60.282-101.87l37.35-0.4l-49.934-84.377
		l34.25-0.362L132.851,0L67.634,115.81l26.356-0.284L45.89,200.949l33.927-0.362L21.731,303.737l38.487-0.413L0,410.258
		L262.097,407.441z M128.42,114.273l0.517,0.879l-1.021,0.013L128.42,114.273z"/>
	<polygon style="fill:#00742A;" points="128.936,115.151 127.916,115.164 128.42,114.273 	"/>
</g>
</svg>
