<?xml version="1.0" encoding="iso-8859-1"?>
<!-- Generator: Adobe Illustrator 24.1.2, SVG Export Plug-In . SVG Version: 6.00 Build 0)  -->
<svg version="1.1" id="Layer_1" xmlns="http://www.w3.org/2000/svg" xmlns:xlink="http://www.w3.org/1999/xlink" x="0px" y="0px"
	 viewBox="0 0 1280.87 682.258" style="enable-background:new 0 0 1280.87 682.258;" xml:space="preserve">
<g>
	<radialGradient id="SVGID_1_" cx="608.8618" cy="320.5768" r="213.9126" gradientUnits="userSpaceOnUse">
		<stop  offset="0" style="stop-color:#856E65"/>
		<stop  offset="0.6356" style="stop-color:#94786D"/>
		<stop  offset="1" style="stop-color:#A1887E"/>
	</radialGradient>
	<rect x="621.029" y="290.051" style="fill:url(#SVGID_1_);" width="19.868" height="114.949"/>
	<radialGradient id="SVGID_2_" cx="608.8618" cy="320.5768" r="213.9126" gradientUnits="userSpaceOnUse">
		<stop  offset="0" style="stop-color:#6D7751"/>
		<stop  offset="0.5317" style="stop-color:#8B9766"/>
		<stop  offset="1" style="stop-color:#AEB98D"/>
	</radialGradient>
	<path style="fill:url(#SVGID_2_);" d="M733.733,328.369l-48.37-81.75l30.61-0.33l-46.66-78.85l28.91-0.31l-38.65-65.31l26.51-0.28
		l-52.39-88.54l-50.48,89.64l20.4-0.22l-37.23,66.12l26.26-0.28l-44.96,79.84l29.79-0.32l-46.61,82.77L733.733,328.369z
		 M630.263,101.449l0.4,0.68l-0.79,0.01L630.263,101.449z"/>
</g>
<g>
	<radialGradient id="SVGID_3_" cx="849.2168" cy="533.2804" r="260.8027" gradientUnits="userSpaceOnUse">
		<stop  offset="0" style="stop-color:#856E65"/>
		<stop  offset="0.6356" style="stop-color:#94786D"/>
		<stop  offset="1" style="stop-color:#A1887E"/>
	</radialGradient>
	<rect x="888.586" y="508.052" style="fill:url(#SVGID_3_);" width="19.868" height="114.949"/>
	<polygon style="fill:#00742A;" points="898.22,320.13 897.43,320.14 897.82,319.45 	"/>
	<polygon style="fill:#00742A;" points="898.22,320.13 897.43,320.14 897.82,319.45 	"/>
	<radialGradient id="SVGID_4_" cx="849.2168" cy="533.2804" r="260.8027" gradientUnits="userSpaceOnUse">
		<stop  offset="0" style="stop-color:#94B598"/>
		<stop  offset="0.6356" style="stop-color:#B1CAA0"/>
		<stop  offset="1" style="stop-color:#AEC9A8"/>
	</radialGradient>
	<path style="fill:url(#SVGID_4_);" d="M1001.29,546.37l-48.37-81.75l30.61-0.33l-46.66-78.85l28.91-0.31l-38.65-65.31l26.51-0.28
		L901.25,231l-50.48,89.64l20.4-0.22l-37.23,66.12l26.26-0.28l-44.96,79.84l29.79-0.32l-46.61,82.77L1001.29,546.37z M897.82,319.45
		l0.4,0.68l-0.79,0.01L897.82,319.45z"/>
	<polygon style="fill:#00742A;" points="898.22,320.13 897.43,320.14 897.82,319.45 	"/>
</g>
<g>
	<radialGradient id="SVGID_5_" cx="672.6729" cy="514.1371" r="255.6871" gradientUnits="userSpaceOnUse">
		<stop  offset="0" style="stop-color:#856E65"/>
		<stop  offset="0.6356" style="stop-color:#94786D"/>
		<stop  offset="1" style="stop-color:#A1887E"/>
	</radialGradient>
	<rect x="734.586" y="486.052" style="fill:url(#SVGID_5_);" width="19.868" height="114.949"/>
	<radialGradient id="SVGID_6_" cx="672.6729" cy="514.1371" r="255.6871" gradientUnits="userSpaceOnUse">
		<stop  offset="0" style="stop-color:#6D7751"/>
		<stop  offset="0.5317" style="stop-color:#8B9766"/>
		<stop  offset="1" style="stop-color:#AEB98D"/>
	</radialGradient>
	<path style="fill:url(#SVGID_6_);" d="M847.29,524.37l-48.37-81.75l30.61-0.33l-46.66-78.85l28.91-0.31l-38.65-65.31l26.51-0.28
		L747.25,209l-50.48,89.64l20.4-0.22l-37.23,66.12l26.26-0.28l-44.96,79.84l29.79-0.32l-46.61,82.77L847.29,524.37z M743.82,297.45
		l0.4,0.68l-0.79,0.01L743.82,297.45z"/>
</g>
<g>
	<radialGradient id="SVGID_7_" cx="540.7966" cy="526.8993" r="186.8526" gradientUnits="userSpaceOnUse">
		<stop  offset="0" style="stop-color:#446763"/>
		<stop  offset="0.4921" style="stop-color:#5A786D"/>
		<stop  offset="1" style="stop-color:#8C9F86"/>
	</radialGradient>
	<rect x="550.586" y="495.052" style="fill:url(#SVGID_7_);" width="19.868" height="114.949"/>
	<radialGradient id="SVGID_8_" cx="540.7966" cy="526.8993" r="186.8526" gradientUnits="userSpaceOnUse">
		<stop  offset="0" style="stop-color:#446763"/>
		<stop  offset="0.4921" style="stop-color:#5A786D"/>
		<stop  offset="1" style="stop-color:#8C9F86"/>
	</radialGradient>
	<path style="fill:url(#SVGID_8_);" d="M663.29,533.37l-48.37-81.75l30.61-0.33l-46.66-78.85l28.91-0.31l-38.65-65.31l26.51-0.28
		L563.25,218l-50.48,89.64l20.4-0.22l-37.23,66.12l26.26-0.28l-44.96,79.84l29.79-0.32l-46.61,82.77L663.29,533.37z M559.82,306.45
		l0.4,0.68l-0.79,0.01L559.82,306.45z"/>
</g>
<g>
	<radialGradient id="SVGID_9_" cx="949.1875" cy="288.6712" r="206.0702" gradientUnits="userSpaceOnUse">
		<stop  offset="0" style="stop-color:#94B598"/>
		<stop  offset="0.6356" style="stop-color:#B1CAA0"/>
		<stop  offset="1" style="stop-color:#AEC9A8"/>
	</radialGradient>
	<rect x="992.586" y="277.052" style="fill:url(#SVGID_9_);" width="19.868" height="114.949"/>
	<radialGradient id="SVGID_10_" cx="949.1875" cy="288.6712" r="206.0702" gradientUnits="userSpaceOnUse">
		<stop  offset="0" style="stop-color:#94B598"/>
		<stop  offset="0.6356" style="stop-color:#B1CAA0"/>
		<stop  offset="1" style="stop-color:#AEC9A8"/>
	</radialGradient>
	<path style="fill:url(#SVGID_10_);" d="M1105.29,315.37l-48.37-81.75l30.61-0.33l-46.66-78.85l28.91-0.31l-38.65-65.31l26.51-0.28
		L1005.25,0l-50.48,89.64l20.4-0.22l-37.23,66.12l26.26-0.28l-44.96,79.84l29.79-0.32l-46.61,82.77L1105.29,315.37z M1001.82,88.45
		l0.4,0.68l-0.79,0.01L1001.82,88.45z"/>
</g>
<g>
	<radialGradient id="SVGID_11_" cx="1139.6127" cy="582.9606" r="230.1644" gradientUnits="userSpaceOnUse">
		<stop  offset="0" style="stop-color:#856E65"/>
		<stop  offset="0.6356" style="stop-color:#94786D"/>
		<stop  offset="1" style="stop-color:#A1887E"/>
	</radialGradient>
	<rect x="1168.166" y="567.309" style="fill:url(#SVGID_11_);" width="19.868" height="114.949"/>
	<radialGradient id="SVGID_12_" cx="1139.6127" cy="582.9606" r="230.1644" gradientUnits="userSpaceOnUse">
		<stop  offset="0" style="stop-color:#6D7751"/>
		<stop  offset="0.5317" style="stop-color:#8B9766"/>
		<stop  offset="1" style="stop-color:#AEB98D"/>
	</radialGradient>
	<path style="fill:url(#SVGID_12_);" d="M1280.87,605.627l-48.37-81.75l30.61-0.33l-46.66-78.85l28.91-0.31l-38.65-65.31l26.51-0.28
		l-52.39-88.54l-50.48,89.64l20.4-0.22l-37.23,66.12l26.26-0.28l-44.96,79.84l29.79-0.32l-46.61,82.77L1280.87,605.627z
		 M1177.4,378.707l0.4,0.68l-0.79,0.01L1177.4,378.707z"/>
</g>
<g>
	<radialGradient id="SVGID_13_" cx="183.3765" cy="452.1561" r="186.8526" gradientUnits="userSpaceOnUse">
		<stop  offset="0" style="stop-color:#446763"/>
		<stop  offset="0.4921" style="stop-color:#5A786D"/>
		<stop  offset="1" style="stop-color:#8C9F86"/>
	</radialGradient>
	<rect x="193.166" y="420.309" style="fill:url(#SVGID_13_);" width="19.868" height="114.949"/>
	<radialGradient id="SVGID_14_" cx="183.3765" cy="452.1561" r="186.8526" gradientUnits="userSpaceOnUse">
		<stop  offset="0" style="stop-color:#446763"/>
		<stop  offset="0.4921" style="stop-color:#5A786D"/>
		<stop  offset="1" style="stop-color:#8C9F86"/>
	</radialGradient>
	<path style="fill:url(#SVGID_14_);" d="M305.87,458.627l-48.37-81.75l30.61-0.33l-46.66-78.85l28.91-0.31l-38.65-65.31l26.51-0.28
		l-52.39-88.54l-50.48,89.64l20.4-0.22l-37.23,66.12l26.26-0.28l-44.96,79.84l29.79-0.32L103,460.807L305.87,458.627z
		 M202.4,231.707l0.4,0.68l-0.79,0.01L202.4,231.707z"/>
</g>
<g>
	<radialGradient id="SVGID_15_" cx="77.9988" cy="594.8344" r="213.9126" gradientUnits="userSpaceOnUse">
		<stop  offset="0" style="stop-color:#856E65"/>
		<stop  offset="0.6356" style="stop-color:#94786D"/>
		<stop  offset="1" style="stop-color:#A1887E"/>
	</radialGradient>
	<rect x="90.166" y="564.309" style="fill:url(#SVGID_15_);" width="19.868" height="114.949"/>
	<radialGradient id="SVGID_16_" cx="77.9988" cy="594.8344" r="213.9126" gradientUnits="userSpaceOnUse">
		<stop  offset="0" style="stop-color:#6D7751"/>
		<stop  offset="0.5317" style="stop-color:#8B9766"/>
		<stop  offset="1" style="stop-color:#AEB98D"/>
	</radialGradient>
	<path style="fill:url(#SVGID_16_);" d="M202.87,602.627l-48.37-81.75l30.61-0.33l-46.66-78.85l28.91-0.31l-38.65-65.31l26.51-0.28
		l-52.39-88.54l-50.48,89.64l20.4-0.22l-37.23,66.12l26.26-0.28l-44.96,79.84l29.79-0.32L0,604.807L202.87,602.627z M99.4,375.707
		l0.4,0.68l-0.79,0.01L99.4,375.707z"/>
</g>
</svg>
