<?xml version="1.0" encoding="iso-8859-1"?>
<!-- Generator: Adobe Illustrator 24.1.2, SVG Export Plug-In . SVG Version: 6.00 Build 0)  -->
<svg version="1.1" id="Layer_1" xmlns="http://www.w3.org/2000/svg" xmlns:xlink="http://www.w3.org/1999/xlink" x="0px" y="0px"
	 viewBox="0 0 1920.987 191.496" style="enable-background:new 0 0 1920.987 191.496;" xml:space="preserve">
<radialGradient id="SVGID_1_" cx="960.4935" cy="95.7479" r="682.5377" gradientUnits="userSpaceOnUse">
	<stop  offset="0" style="stop-color:#6D7751"/>
	<stop  offset="0.5317" style="stop-color:#8B9766"/>
	<stop  offset="1" style="stop-color:#AEB98D"/>
</radialGradient>
<polygon style="fill:url(#SVGID_1_);" points="1920.987,191.496 1919.905,13.038 1865.09,12.035 1832.764,22.064 1770.922,0 
	1675.349,44.129 1635.995,12.035 1591.019,34.1 1568.531,12.035 1496.851,12.035 1496.851,44.129 1443.442,31.091 1426.576,0 
	1390.033,22.064 1291.649,22.064 1226.996,44.129 1149.694,20.059 1043.102,13.038 997.901,29.085 931.842,29.085 832.052,25.073 
	740.695,15.044 666.204,26.076 604.362,15.044 550.954,13.038 531.277,24.07 473.651,15.044 410.404,9.026 383.7,20.059 
	344.346,21.062 307.803,7.021 275.477,23.067 236.123,6.018 226.285,17.05 217.852,26.076 158.821,9.026 146.171,18.053 
	88.546,15.044 68.869,0 36.543,9.026 0.12,29.467 0,117.021 0.667,191.496 299.339,120.282 670.421,134.393 1122.99,99.29 
	1616.302,100.953 1810.739,136.56 "/>
</svg>
