<?xml version="1.0" encoding="iso-8859-1"?>
<!-- Generator: Adobe Illustrator 24.1.2, SVG Export Plug-In . SVG Version: 6.00 Build 0)  -->
<svg version="1.1" id="Layer_1" xmlns="http://www.w3.org/2000/svg" xmlns:xlink="http://www.w3.org/1999/xlink" x="0px" y="0px"
	 viewBox="0 0 429.305 473.053" style="enable-background:new 0 0 429.305 473.053;" xml:space="preserve">
<g>
	<radialGradient id="SVGID_1_" cx="77.071" cy="311.4998" r="255.8069" gradientUnits="userSpaceOnUse">
		<stop  offset="0" style="stop-color:#856E65"/>
		<stop  offset="0.6356" style="stop-color:#94786D"/>
		<stop  offset="1" style="stop-color:#A1887E"/>
	</radialGradient>
	<rect x="90.166" y="307.052" style="fill:url(#SVGID_1_);" width="19.868" height="114.949"/>
	<polygon style="fill:#00742A;" points="99.8,119.13 99.01,119.14 99.4,118.45 	"/>
	<polygon style="fill:#00742A;" points="99.8,119.13 99.01,119.14 99.4,118.45 	"/>
	<radialGradient id="SVGID_2_" cx="77.071" cy="311.4998" r="255.8069" gradientUnits="userSpaceOnUse">
		<stop  offset="0" style="stop-color:#94B598"/>
		<stop  offset="0.6356" style="stop-color:#B1CAA0"/>
		<stop  offset="1" style="stop-color:#AEC9A8"/>
	</radialGradient>
	<path style="fill:url(#SVGID_2_);" d="M202.87,345.37l-48.37-81.75l30.61-0.33l-46.66-78.85l28.91-0.31l-38.65-65.31l26.51-0.28
		L102.83,30l-50.48,89.64l20.4-0.22l-37.23,66.12l26.26-0.28L16.82,265.1l29.79-0.32L0,347.55L202.87,345.37z M99.4,118.45l0.4,0.68
		l-0.79,0.01L99.4,118.45z"/>
	<polygon style="fill:#00742A;" points="99.8,119.13 99.01,119.14 99.4,118.45 	"/>
</g>
<g>
	<radialGradient id="SVGID_3_" cx="146.5441" cy="298.8683" r="263.9986" gradientUnits="userSpaceOnUse">
		<stop  offset="0" style="stop-color:#856E65"/>
		<stop  offset="0.6356" style="stop-color:#94786D"/>
		<stop  offset="1" style="stop-color:#A1887E"/>
	</radialGradient>
	<rect x="215.166" y="277.052" style="fill:url(#SVGID_3_);" width="19.868" height="114.949"/>
	<radialGradient id="SVGID_4_" cx="146.5441" cy="298.8683" r="263.9986" gradientUnits="userSpaceOnUse">
		<stop  offset="0" style="stop-color:#6D7751"/>
		<stop  offset="0.5317" style="stop-color:#8B9766"/>
		<stop  offset="1" style="stop-color:#AEB98D"/>
	</radialGradient>
	<path style="fill:url(#SVGID_4_);" d="M327.87,315.37l-48.37-81.75l30.61-0.33l-46.66-78.85l28.91-0.31l-38.65-65.31l26.51-0.28
		L227.83,0l-50.48,89.64l20.4-0.22l-37.23,66.12l26.26-0.28l-44.96,79.84l29.79-0.32L125,317.55L327.87,315.37z M224.4,88.45
		l0.4,0.68l-0.79,0.01L224.4,88.45z"/>
</g>
<g>
	<radialGradient id="SVGID_5_" cx="279.1746" cy="371.4993" r="259.2532" gradientUnits="userSpaceOnUse">
		<stop  offset="0" style="stop-color:#856E65"/>
		<stop  offset="0.6356" style="stop-color:#94786D"/>
		<stop  offset="1" style="stop-color:#A1887E"/>
	</radialGradient>
	<rect x="316.601" y="358.103" style="fill:url(#SVGID_5_);" width="19.868" height="114.949"/>
	<polygon style="fill:#00742A;" points="326.235,170.181 325.445,170.191 325.835,169.501 	"/>
	<polygon style="fill:#00742A;" points="326.235,170.181 325.445,170.191 325.835,169.501 	"/>
	<radialGradient id="SVGID_6_" cx="279.1746" cy="371.4993" r="259.2532" gradientUnits="userSpaceOnUse">
		<stop  offset="0" style="stop-color:#94B598"/>
		<stop  offset="0.6356" style="stop-color:#B1CAA0"/>
		<stop  offset="1" style="stop-color:#AEC9A8"/>
	</radialGradient>
	<path style="fill:url(#SVGID_6_);" d="M429.305,396.421l-48.37-81.75l30.61-0.33l-46.66-78.85l28.91-0.31l-38.65-65.31l26.51-0.28
		l-52.39-88.54l-50.48,89.64l20.4-0.22l-37.23,66.12l26.26-0.28l-44.96,79.84l29.79-0.32l-46.61,82.77L429.305,396.421z
		 M325.835,169.501l0.4,0.68l-0.79,0.01L325.835,169.501z"/>
	<polygon style="fill:#00742A;" points="326.235,170.181 325.445,170.191 325.835,169.501 	"/>
</g>
</svg>
