<?xml version="1.0" encoding="iso-8859-1"?>
<!-- Generator: Adobe Illustrator 24.1.2, SVG Export Plug-In . SVG Version: 6.00 Build 0)  -->
<svg version="1.1" id="Layer_1" xmlns="http://www.w3.org/2000/svg" xmlns:xlink="http://www.w3.org/1999/xlink" x="0px" y="0px"
	 viewBox="0 0 1923 555.122" style="enable-background:new 0 0 1923 555.122;" xml:space="preserve">
<radialGradient id="SVGID_1_" cx="961.5" cy="277.8118" r="707.5956" gradientUnits="userSpaceOnUse">
	<stop  offset="0" style="stop-color:#856E65"/>
	<stop  offset="0.6356" style="stop-color:#94786D"/>
	<stop  offset="1" style="stop-color:#A1887E"/>
</radialGradient>
<polyline style="fill:url(#SVGID_1_);" points="0,148.935 188.64,0.501 251.989,54.66 297.037,35.604 461.745,204.096 
	582.596,157.473 661.647,220.143 744.705,209.111 812.277,169.997 844.656,220.143 865.772,205.099 933.345,220.143 
	1050.045,157.473 1103.684,197.076 1193.78,213.123 1320.479,163.979 1420.43,231.175 1549.944,99.792 1621.739,87.756 
	1689.312,8.525 1889.214,181.029 1923,180.618 1923,555.122 0,555.122 0,148.935 "/>
<g>
	<radialGradient id="SVGID_2_" cx="234.392" cy="138.4044" r="107.2205" gradientUnits="userSpaceOnUse">
		<stop  offset="0" style="stop-color:#AAAF9A"/>
		<stop  offset="0.6356" style="stop-color:#B6BAA8"/>
		<stop  offset="1" style="stop-color:#CFDAC0"/>
	</radialGradient>
	<polygon style="fill:url(#SVGID_2_);" points="265.363,108.316 252.693,54.158 189.344,0 224.538,109.319 190.751,142.416 
		172.451,207.607 207.645,276.809 296.333,194.568 265.363,157.46 	"/>
	<radialGradient id="SVGID_3_" cx="379.3913" cy="154.9527" r="103.692" gradientUnits="userSpaceOnUse">
		<stop  offset="0" style="stop-color:#AAAF9A"/>
		<stop  offset="0.6356" style="stop-color:#B6BAA8"/>
		<stop  offset="1" style="stop-color:#CFDAC0"/>
	</radialGradient>
	<polygon style="fill:url(#SVGID_3_);" points="296.333,34.1 304.78,83.243 334.343,109.319 373.76,213.624 362.498,275.806 
		448.372,261.765 441.333,242.709 462.449,202.592 	"/>
	<radialGradient id="SVGID_4_" cx="612.3755" cy="217.1344" r="59.7521" gradientUnits="userSpaceOnUse">
		<stop  offset="0" style="stop-color:#AAAF9A"/>
		<stop  offset="0.6356" style="stop-color:#B6BAA8"/>
		<stop  offset="1" style="stop-color:#CFDAC0"/>
	</radialGradient>
	<polygon style="fill:url(#SVGID_4_);" points="662.351,218.639 582.109,157.46 568.031,176.516 560.992,195.571 552.546,213.624 
		559.585,238.697 582.109,276.809 613.079,259.759 659.536,276.809 629.973,232.68 672.205,245.718 	"/>
	<radialGradient id="SVGID_5_" cx="817.2047" cy="223.1519" r="55.7245" gradientUnits="userSpaceOnUse">
		<stop  offset="0" style="stop-color:#AAAF9A"/>
		<stop  offset="0.6356" style="stop-color:#B6BAA8"/>
		<stop  offset="1" style="stop-color:#CFDAC0"/>
	</radialGradient>
	<polygon style="fill:url(#SVGID_5_);" points="842.544,216.633 810.166,169.495 786.234,202.592 770.748,223.653 759.487,247.724 
		797.496,276.809 817.205,251.735 859.437,257.753 874.923,241.706 836.913,243.712 	"/>
	<radialGradient id="SVGID_6_" cx="1065.6742" cy="216.1314" r="53.1709" gradientUnits="userSpaceOnUse">
		<stop  offset="0" style="stop-color:#AAAF9A"/>
		<stop  offset="0.6356" style="stop-color:#B6BAA8"/>
		<stop  offset="1" style="stop-color:#CFDAC0"/>
	</radialGradient>
	<polygon style="fill:url(#SVGID_6_);" points="1102.98,195.571 1050.893,156.457 1035.407,177.519 1050.893,199.583 
		1035.407,230.674 1050.893,248.727 1019.922,275.806 1080.456,264.774 1077.64,221.648 1111.426,233.683 	"/>
	<radialGradient id="SVGID_7_" cx="1356.3766" cy="220.6446" r="60.3373" gradientUnits="userSpaceOnUse">
		<stop  offset="0" style="stop-color:#AAAF9A"/>
		<stop  offset="0.6356" style="stop-color:#B6BAA8"/>
		<stop  offset="1" style="stop-color:#CFDAC0"/>
	</radialGradient>
	<polygon style="fill:url(#SVGID_7_);" points="1302.882,186.545 1293.027,207.607 1311.328,277.812 1419.726,230.674 
		1319.775,163.478 	"/>
	<radialGradient id="SVGID_8_" cx="1760.4037" cy="144.9234" r="132.9227" gradientUnits="userSpaceOnUse">
		<stop  offset="0" style="stop-color:#AAAF9A"/>
		<stop  offset="0.6356" style="stop-color:#B6BAA8"/>
		<stop  offset="1" style="stop-color:#CFDAC0"/>
	</radialGradient>
	<polygon style="fill:url(#SVGID_8_);" points="1891.325,182.533 1691.423,10.029 1701.278,55.161 1680.161,106.311 
		1664.676,159.466 1629.482,207.607 1682.977,243.712 1701.278,279.817 1839.238,225.659 1792.782,212.621 	"/>
	<radialGradient id="SVGID_9_" cx="1594.9919" cy="145.4249" r="52.2869" gradientUnits="userSpaceOnUse">
		<stop  offset="0" style="stop-color:#AAAF9A"/>
		<stop  offset="0.6356" style="stop-color:#B6BAA8"/>
		<stop  offset="1" style="stop-color:#CFDAC0"/>
	</radialGradient>
	<polygon style="fill:url(#SVGID_9_);" points="1628.074,86.252 1550.648,98.287 1583.026,162.475 1628.074,204.598 
		1639.336,109.319 	"/>
</g>
</svg>
