<?xml version="1.0" encoding="iso-8859-1"?>
<!-- Generator: Adobe Illustrator 24.1.2, SVG Export Plug-In . SVG Version: 6.00 Build 0)  -->
<svg version="1.1" id="Layer_1" xmlns="http://www.w3.org/2000/svg" xmlns:xlink="http://www.w3.org/1999/xlink" x="0px" y="0px"
	 viewBox="0 0 1925.656 5484.66" style="enable-background:new 0 0 1925.656 5484.66;" xml:space="preserve">
<g>
	<g>
		<radialGradient id="SVGID_1_" cx="1111.6315" cy="171.0354" r="228.3412" gradientUnits="userSpaceOnUse">
			<stop  offset="0" style="stop-color:#1B2324"/>
			<stop  offset="0.6363" style="stop-color:#43474A"/>
			<stop  offset="1" style="stop-color:#575D5D"/>
		</radialGradient>
		<polygon style="fill:url(#SVGID_1_);" points="1349.901,309.06 1284.517,342.071 1348.63,266.304 1371.343,207.146 
			1366.28,140.49 1344.088,82.362 1310.601,37.898 1265.717,18.419 1102.689,18.317 913.037,66.445 843.348,140.294 
			837.722,135.743 904.296,51.761 1100.846,4.36 1269.025,0 1319.912,26.989 1356.461,75.521 1380.085,137.399 1385.541,209.225 
			1372.433,264.448 		"/>
		<radialGradient id="SVGID_2_" cx="433.0885" cy="280.9935" r="285.1644" gradientUnits="userSpaceOnUse">
			<stop  offset="0" style="stop-color:#1B2324"/>
			<stop  offset="0.6363" style="stop-color:#43474A"/>
			<stop  offset="1" style="stop-color:#575D5D"/>
		</radialGradient>
		<polygon style="fill:url(#SVGID_2_);" points="823.862,181.327 628.743,225.635 233.079,283.47 67.2,312.036 42.315,380.66 
			76.418,323.194 634.22,235.891 		"/>
		<radialGradient id="SVGID_3_" cx="1072.8843" cy="1810.8552" r="1160.5526" gradientUnits="userSpaceOnUse">
			<stop  offset="0" style="stop-color:#1B2324"/>
			<stop  offset="0.6363" style="stop-color:#43474A"/>
			<stop  offset="1" style="stop-color:#575D5D"/>
		</radialGradient>
		<polygon style="fill:url(#SVGID_3_);" points="912.023,2711.564 811.025,2461.588 769.471,2286.298 1013.566,2060.245 
			1520.911,1891.858 1682.35,1804.887 1685.218,1791.647 1732.837,1424.788 1529.656,872.66 1073.513,635.241 220.112,412.155 
			235.4,408.52 1080.085,617.304 1080.973,617.739 1552.187,848.24 1553.562,851.552 1768.121,1403.31 1768.978,1419.284 
			1687.599,1809.875 1548.659,1878.211 1506.723,1900.012 1007.656,2076.66 777.656,2289.66 832.199,2467.517 925.998,2702.975 
			1632.579,2890.999 1924.385,3204.281 1925.656,3213.19 1923.069,3210.592 1631.064,2917.411 		"/>
		<radialGradient id="SVGID_4_" cx="1616.8148" cy="5215.1597" r="289.6571" gradientUnits="userSpaceOnUse">
			<stop  offset="0" style="stop-color:#1B2324"/>
			<stop  offset="0.6363" style="stop-color:#43474A"/>
			<stop  offset="1" style="stop-color:#575D5D"/>
		</radialGradient>
		<polygon style="fill:url(#SVGID_4_);" points="1308.315,4945.66 1348.959,4945.66 1917.715,5447.835 1925.315,5484.66 		"/>
		<radialGradient id="SVGID_5_" cx="619.6439" cy="1897.9542" r="531.7407" gradientUnits="userSpaceOnUse">
			<stop  offset="0" style="stop-color:#1B2324"/>
			<stop  offset="0.6363" style="stop-color:#43474A"/>
			<stop  offset="1" style="stop-color:#575D5D"/>
		</radialGradient>
		<polygon style="fill:url(#SVGID_5_);" points="1213.245,1436.29 1201.954,1439.438 1097.095,1603.242 745.539,1723.836 
			557.644,1808.845 214.145,1946.759 26.043,2359.619 241.298,1963.908 1109.245,1609.154 		"/>
		<radialGradient id="SVGID_6_" cx="574.0946" cy="4148.8838" r="462.87" gradientUnits="userSpaceOnUse">
			<stop  offset="0" style="stop-color:#1B2324"/>
			<stop  offset="0.6363" style="stop-color:#43474A"/>
			<stop  offset="1" style="stop-color:#575D5D"/>
		</radialGradient>
		<polygon style="fill:url(#SVGID_6_);" points="1091.315,3747.66 1038.641,3760.392 660.656,3936.048 411.197,4081.677 
			197.896,4197.279 56.874,4550.107 234.036,4233.311 990.598,3821.947 		"/>
	</g>
	<radialGradient id="SVGID_7_" cx="1109.2449" cy="186.6523" r="231.0565" gradientUnits="userSpaceOnUse">
		<stop  offset="0" style="stop-color:#80A8AA"/>
		<stop  offset="0.6363" style="stop-color:#8DB4BA"/>
		<stop  offset="1" style="stop-color:#98BEC7"/>
	</radialGradient>
	<polygon style="fill:url(#SVGID_7_);" points="837.722,135.743 905.902,68.268 924.059,58.458 1048.753,26.237 1187.064,4.857 
		1292.664,18.829 1333.879,54.702 1370.519,123.94 1380.768,194.812 1371.792,239.217 1332.472,311.933 1282.559,343.301 
		1180.153,368.448 1131.582,353.133 1040.413,309.664 961.413,288.99 907.412,279.964 880.157,258.346 837.762,167.233 	"/>
	<g>
		<g>
			<linearGradient id="SVGID_8_" gradientUnits="userSpaceOnUse" x1="961.5444" y1="373.5423" x2="961.5444" y2="1805.3295">
				<stop  offset="0.0227" style="stop-color:#A6C4CD"/>
				<stop  offset="0.1245" style="stop-color:#B3D7CD"/>
				<stop  offset="0.505" style="stop-color:#B6DAD0"/>
				<stop  offset="1" style="stop-color:#C1E2D9"/>
			</linearGradient>
			<polygon style="fill:url(#SVGID_8_);" points="925.089,210.66 853.089,199.66 851.089,172.66 625.109,231.492 70.089,314.66 
				40.089,379.66 40.089,424.66 127.089,518.66 881.089,834.66 1162.089,1114.66 1211.089,1435.66 1097.61,1608.154 228.8,1952.244 
				0.089,2405.66 0.089,2793.66 119.089,2942.66 1005.089,3276.66 1089.089,3746.66 569.964,4003.215 212.906,4203.829 0,4668.337 
				0.089,5483.66 1923.089,5483.66 1306.089,4944.66 1346.734,4765.978 1302.089,4524.66 1923.089,4015.66 1923.089,3212.19 
				1628.496,2916.411 923.089,2701.66 775.089,2288.66 1005.089,2075.66 1443.089,1930.66 1685.032,1808.875 1761.089,1403.66 
				1527.089,871.66 1063.481,622.221 533.089,493.66 222.089,409.66 267.089,352.66 562.089,293.66 925.089,243.66 			"/>
			<linearGradient id="SVGID_9_" gradientUnits="userSpaceOnUse" x1="962.6469" y1="781.9697" x2="985.7047" y2="224.3906">
				<stop  offset="0.0227" style="stop-color:#A6C4CD"/>
				<stop  offset="0.1245" style="stop-color:#B3D7CD"/>
				<stop  offset="0.505" style="stop-color:#B6DAD0"/>
				<stop  offset="1" style="stop-color:#C1E2D9"/>
			</linearGradient>
			<polygon style="fill:url(#SVGID_9_);" points="730.294,771.462 1151.553,669.607 1199.019,695.29 982.629,764.561 
				867.818,829.098 			"/>
			<linearGradient id="SVGID_10_" gradientUnits="userSpaceOnUse" x1="1045.6827" y1="911.9375" x2="2027.1246" y2="598.5563">
				<stop  offset="0.0227" style="stop-color:#A6C4CD"/>
				<stop  offset="0.1245" style="stop-color:#B3D7CD"/>
				<stop  offset="0.505" style="stop-color:#B6DAD0"/>
				<stop  offset="1" style="stop-color:#C1E2D9"/>
			</linearGradient>
			<polygon style="fill:url(#SVGID_10_);" points="995.21,948.375 982.629,764.561 1199.019,695.29 1154.04,874.882 
				1107.211,1059.977 			"/>
			<linearGradient id="SVGID_11_" gradientUnits="userSpaceOnUse" x1="1342.2285" y1="825.7354" x2="1445.7786" y2="1250.4069">
				<stop  offset="0.0227" style="stop-color:#A6C4CD"/>
				<stop  offset="0.1245" style="stop-color:#B3D7CD"/>
				<stop  offset="0.505" style="stop-color:#B6DAD0"/>
				<stop  offset="1" style="stop-color:#C1E2D9"/>
			</linearGradient>
			<polygon style="fill:url(#SVGID_11_);" points="1375.517,790.108 1156.717,864.299 1350.019,1001.29 1574.778,980.08 
				1527.019,871.29 			"/>
			<linearGradient id="SVGID_12_" gradientUnits="userSpaceOnUse" x1="1183.7118" y1="963.8181" x2="1968.6338" y2="2137.011">
				<stop  offset="0.0227" style="stop-color:#A6C4CD"/>
				<stop  offset="0.1245" style="stop-color:#B3D7CD"/>
				<stop  offset="0.505" style="stop-color:#B6DAD0"/>
				<stop  offset="1" style="stop-color:#C1E2D9"/>
			</linearGradient>
			<polygon style="fill:url(#SVGID_12_);" points="1157.019,1114.29 1444.019,1199.29 1350.019,1001.29 1157.019,864.29 
				1107.019,1060.29 			"/>
			<linearGradient id="SVGID_13_" gradientUnits="userSpaceOnUse" x1="1219.3505" y1="1155.6143" x2="1749.3671" y2="1947.8099">
				<stop  offset="0.0227" style="stop-color:#A6C4CD"/>
				<stop  offset="0.1245" style="stop-color:#B3D7CD"/>
				<stop  offset="0.505" style="stop-color:#B6DAD0"/>
				<stop  offset="1" style="stop-color:#C1E2D9"/>
			</linearGradient>
			<polygon style="fill:url(#SVGID_13_);" points="1444.019,1199.29 1421.019,1297.29 1211.019,1435.29 1162.089,1114.66 			"/>
			<linearGradient id="SVGID_14_" gradientUnits="userSpaceOnUse" x1="1453.5051" y1="1145.2423" x2="2362.4744" y2="855.0022">
				<stop  offset="0.0227" style="stop-color:#A6C4CD"/>
				<stop  offset="0.1245" style="stop-color:#B3D7CD"/>
				<stop  offset="0.505" style="stop-color:#B6DAD0"/>
				<stop  offset="1" style="stop-color:#C1E2D9"/>
			</linearGradient>
			<polygon style="fill:url(#SVGID_14_);" points="1444.019,1199.29 1691.807,1246.147 1575.019,980.29 1350.019,1001.29 			"/>
			<linearGradient id="SVGID_15_" gradientUnits="userSpaceOnUse" x1="1285.3472" y1="1438.5253" x2="2443.5818" y2="1068.693">
				<stop  offset="0.0227" style="stop-color:#A6C4CD"/>
				<stop  offset="0.1245" style="stop-color:#B3D7CD"/>
				<stop  offset="0.505" style="stop-color:#B6DAD0"/>
				<stop  offset="1" style="stop-color:#C1E2D9"/>
			</linearGradient>
			<polygon style="fill:url(#SVGID_15_);" points="1211.019,1435.29 1552.019,1451.29 1421.019,1297.29 			"/>
			<linearGradient id="SVGID_16_" gradientUnits="userSpaceOnUse" x1="1493.1122" y1="1326.8566" x2="2483.1663" y2="1010.7254">
				<stop  offset="0.0227" style="stop-color:#A6C4CD"/>
				<stop  offset="0.1245" style="stop-color:#B3D7CD"/>
				<stop  offset="0.505" style="stop-color:#B6DAD0"/>
				<stop  offset="1" style="stop-color:#C1E2D9"/>
			</linearGradient>
			<polygon style="fill:url(#SVGID_16_);" points="1552.019,1451.29 1691.807,1246.147 1444.019,1199.29 1421.019,1297.29 			"/>
			<linearGradient id="SVGID_17_" gradientUnits="userSpaceOnUse" x1="1575.9475" y1="1372.9594" x2="2349.3147" y2="1126.0178">
				<stop  offset="0.0227" style="stop-color:#A6C4CD"/>
				<stop  offset="0.1245" style="stop-color:#B3D7CD"/>
				<stop  offset="0.505" style="stop-color:#B6DAD0"/>
				<stop  offset="1" style="stop-color:#C1E2D9"/>
			</linearGradient>
			<polygon style="fill:url(#SVGID_17_);" points="1761.089,1403.66 1552.019,1451.29 1691.807,1246.147 			"/>
			<linearGradient id="SVGID_18_" gradientUnits="userSpaceOnUse" x1="1656.554" y1="1454.3342" x2="1656.554" y2="2626.6121">
				<stop  offset="0.0227" style="stop-color:#A6C4CD"/>
				<stop  offset="0.1245" style="stop-color:#B3D7CD"/>
				<stop  offset="0.505" style="stop-color:#B6DAD0"/>
				<stop  offset="1" style="stop-color:#C1E2D9"/>
			</linearGradient>
			<polygon style="fill:url(#SVGID_18_);" points="1552.019,1451.29 1685.032,1808.875 1761.089,1403.66 			"/>
			<linearGradient id="SVGID_19_" gradientUnits="userSpaceOnUse" x1="1381.2417" y1="1557.3175" x2="1782.8792" y2="915.27">
				<stop  offset="0.0227" style="stop-color:#A6C4CD"/>
				<stop  offset="0.1245" style="stop-color:#B3D7CD"/>
				<stop  offset="0.505" style="stop-color:#B6DAD0"/>
				<stop  offset="1" style="stop-color:#C1E2D9"/>
			</linearGradient>
			<polygon style="fill:url(#SVGID_19_);" points="1211.019,1435.29 1340.276,1653.95 1605.01,1593.748 1552.019,1451.29 			"/>
			<linearGradient id="SVGID_20_" gradientUnits="userSpaceOnUse" x1="1536.0385" y1="1694.0306" x2="1806.6685" y2="1261.4083">
				<stop  offset="0.0227" style="stop-color:#A6C4CD"/>
				<stop  offset="0.1245" style="stop-color:#B3D7CD"/>
				<stop  offset="0.505" style="stop-color:#B6DAD0"/>
				<stop  offset="1" style="stop-color:#C1E2D9"/>
			</linearGradient>
			<polygon style="fill:url(#SVGID_20_);" points="1685.032,1808.875 1340.276,1653.95 1605.01,1593.748 			"/>
			<linearGradient id="SVGID_21_" gradientUnits="userSpaceOnUse" x1="1385.6185" y1="1674.3977" x2="2051.116" y2="2679.605">
				<stop  offset="0.0227" style="stop-color:#A6C4CD"/>
				<stop  offset="0.1245" style="stop-color:#B3D7CD"/>
				<stop  offset="0.505" style="stop-color:#B6DAD0"/>
				<stop  offset="1" style="stop-color:#C1E2D9"/>
			</linearGradient>
			<polygon style="fill:url(#SVGID_21_);" points="1340.276,1653.95 1303.054,1867.461 1443.089,1930.66 1685.032,1808.875 			"/>
			<linearGradient id="SVGID_22_" gradientUnits="userSpaceOnUse" x1="1214.986" y1="1617.2523" x2="1551.9115" y2="2792.3147">
				<stop  offset="0.0227" style="stop-color:#A6C4CD"/>
				<stop  offset="0.1245" style="stop-color:#B3D7CD"/>
				<stop  offset="0.505" style="stop-color:#B6DAD0"/>
				<stop  offset="1" style="stop-color:#C1E2D9"/>
			</linearGradient>
			<polygon style="fill:url(#SVGID_22_);" points="1097.61,1608.154 1303.054,1867.461 1340.276,1653.95 1211.019,1435.29 			"/>
			<linearGradient id="SVGID_23_" gradientUnits="userSpaceOnUse" x1="1170.839" y1="1787.9474" x2="569.3853" y2="1197.6317">
				<stop  offset="0.0227" style="stop-color:#A6C4CD"/>
				<stop  offset="0.1245" style="stop-color:#B3D7CD"/>
				<stop  offset="0.505" style="stop-color:#B6DAD0"/>
				<stop  offset="1" style="stop-color:#C1E2D9"/>
			</linearGradient>
			<polygon style="fill:url(#SVGID_23_);" points="940.923,1670.209 1303.054,1867.461 1097.61,1608.154 			"/>
			<linearGradient id="SVGID_24_" gradientUnits="userSpaceOnUse" x1="1251.0389" y1="1937.3186" x2="1490.2893" y2="1554.8591">
				<stop  offset="0.0227" style="stop-color:#A6C4CD"/>
				<stop  offset="0.1245" style="stop-color:#B3D7CD"/>
				<stop  offset="0.505" style="stop-color:#B6DAD0"/>
				<stop  offset="1" style="stop-color:#C1E2D9"/>
			</linearGradient>
			<polygon style="fill:url(#SVGID_24_);" points="1156.717,1787.752 1151.553,1930.66 1234.408,1999.743 1443.089,1930.66 
				1303.054,1867.461 			"/>
			<linearGradient id="SVGID_25_" gradientUnits="userSpaceOnUse" x1="938.8514" y1="1810.4451" x2="2253.1392" y2="1687.9268">
				<stop  offset="0.0227" style="stop-color:#A6C4CD"/>
				<stop  offset="0.1245" style="stop-color:#B3D7CD"/>
				<stop  offset="0.505" style="stop-color:#B6DAD0"/>
				<stop  offset="1" style="stop-color:#C1E2D9"/>
			</linearGradient>
			<polygon style="fill:url(#SVGID_25_);" points="1151.553,1930.66 864.204,1867.461 808.044,1722.836 940.923,1670.209 
				1156.717,1787.752 			"/>
			<linearGradient id="SVGID_26_" gradientUnits="userSpaceOnUse" x1="1005.4594" y1="2003.6943" x2="1315.7076" y2="1507.7391">
				<stop  offset="0.0227" style="stop-color:#A6C4CD"/>
				<stop  offset="0.1245" style="stop-color:#B3D7CD"/>
				<stop  offset="0.505" style="stop-color:#B6DAD0"/>
				<stop  offset="1" style="stop-color:#C1E2D9"/>
			</linearGradient>
			<polygon style="fill:url(#SVGID_26_);" points="864.204,1867.461 874.515,2016.221 1005.089,2075.66 1234.408,1999.743 
				1151.553,1930.66 			"/>
			<linearGradient id="SVGID_27_" gradientUnits="userSpaceOnUse" x1="919.4929" y1="2116.7239" x2="1236.9268" y2="1996.99">
				<stop  offset="0.0227" style="stop-color:#A6C4CD"/>
				<stop  offset="0.1245" style="stop-color:#B3D7CD"/>
				<stop  offset="0.505" style="stop-color:#B6DAD0"/>
				<stop  offset="1" style="stop-color:#C1E2D9"/>
			</linearGradient>
			<polygon style="fill:url(#SVGID_27_);" points="874.515,2016.221 775.089,2288.66 1005.089,2075.66 			"/>
			<linearGradient id="SVGID_28_" gradientUnits="userSpaceOnUse" x1="761.3685" y1="1856.7549" x2="1510.4012" y2="1976.4886">
				<stop  offset="0.0227" style="stop-color:#A6C4CD"/>
				<stop  offset="0.1245" style="stop-color:#B3D7CD"/>
				<stop  offset="0.505" style="stop-color:#B6DAD0"/>
				<stop  offset="1" style="stop-color:#C1E2D9"/>
			</linearGradient>
			<polygon style="fill:url(#SVGID_28_);" points="612.111,1800.434 874.515,2016.221 864.204,1867.461 808.044,1722.836 			"/>
			<linearGradient id="SVGID_29_" gradientUnits="userSpaceOnUse" x1="751.115" y1="2175.6035" x2="453.1726" y2="1039.5243">
				<stop  offset="0.0227" style="stop-color:#A6C4CD"/>
				<stop  offset="0.1245" style="stop-color:#B3D7CD"/>
				<stop  offset="0.505" style="stop-color:#B6DAD0"/>
				<stop  offset="1" style="stop-color:#C1E2D9"/>
			</linearGradient>
			<polygon style="fill:url(#SVGID_29_);" points="612.111,1800.434 525.638,1945.759 775.089,2288.66 874.515,2016.221 			"/>
			<linearGradient id="SVGID_30_" gradientUnits="userSpaceOnUse" x1="398.2497" y1="1915.382" x2="867.5715" y2="1165.1359">
				<stop  offset="0.0227" style="stop-color:#A6C4CD"/>
				<stop  offset="0.1245" style="stop-color:#B3D7CD"/>
				<stop  offset="0.505" style="stop-color:#B6DAD0"/>
				<stop  offset="1" style="stop-color:#C1E2D9"/>
			</linearGradient>
			<polygon style="fill:url(#SVGID_30_);" points="525.638,1945.759 228.8,1952.244 612.111,1800.434 			"/>
			<linearGradient id="SVGID_31_" gradientUnits="userSpaceOnUse" x1="511.1537" y1="1995.4403" x2="-340.9058" y2="3095.321">
				<stop  offset="0.0227" style="stop-color:#A6C4CD"/>
				<stop  offset="0.1245" style="stop-color:#B3D7CD"/>
				<stop  offset="0.505" style="stop-color:#B6DAD0"/>
				<stop  offset="1" style="stop-color:#C1E2D9"/>
			</linearGradient>
			<polygon style="fill:url(#SVGID_31_);" points="228.8,1952.244 310.812,2206.987 690.208,2171.981 525.638,1945.759 			"/>
			<linearGradient id="SVGID_32_" gradientUnits="userSpaceOnUse" x1="417.3812" y1="2323.0181" x2="1671.1272" y2="2053.8652">
				<stop  offset="0.0227" style="stop-color:#A6C4CD"/>
				<stop  offset="0.1245" style="stop-color:#B3D7CD"/>
				<stop  offset="0.505" style="stop-color:#B6DAD0"/>
				<stop  offset="1" style="stop-color:#C1E2D9"/>
			</linearGradient>
			<polygon style="fill:url(#SVGID_32_);" points="775.089,2288.66 668.282,2408.064 310.812,2206.987 690.208,2171.981 			"/>
			<linearGradient id="SVGID_33_" gradientUnits="userSpaceOnUse" x1="287.3854" y1="2215.1643" x2="-358.6204" y2="3654.7549">
				<stop  offset="0.0227" style="stop-color:#A6C4CD"/>
				<stop  offset="0.1245" style="stop-color:#B3D7CD"/>
				<stop  offset="0.505" style="stop-color:#B6DAD0"/>
				<stop  offset="1" style="stop-color:#C1E2D9"/>
			</linearGradient>
			<polygon style="fill:url(#SVGID_33_);" points="310.812,2206.987 310.812,2612.69 0,2679.518 0.089,2405.66 228.8,1952.244 			
				"/>
			<linearGradient id="SVGID_34_" gradientUnits="userSpaceOnUse" x1="360.5058" y1="2502.397" x2="1486.9971" y2="2260.563">
				<stop  offset="0.0227" style="stop-color:#A6C4CD"/>
				<stop  offset="0.1245" style="stop-color:#B3D7CD"/>
				<stop  offset="0.505" style="stop-color:#B6DAD0"/>
				<stop  offset="1" style="stop-color:#C1E2D9"/>
			</linearGradient>
			<polygon style="fill:url(#SVGID_34_);" points="668.282,2408.064 585.059,2760.269 310.812,2612.69 310.812,2206.987 			"/>
			<linearGradient id="SVGID_35_" gradientUnits="userSpaceOnUse" x1="631.3148" y1="2482.1152" x2="1923.3264" y2="3604.272">
				<stop  offset="0.0227" style="stop-color:#A6C4CD"/>
				<stop  offset="0.1245" style="stop-color:#B3D7CD"/>
				<stop  offset="0.505" style="stop-color:#B6DAD0"/>
				<stop  offset="1" style="stop-color:#C1E2D9"/>
			</linearGradient>
			<polygon style="fill:url(#SVGID_35_);" points="585.059,2760.269 923.089,2701.66 775.089,2288.66 668.282,2408.064 			"/>
			<linearGradient id="SVGID_36_" gradientUnits="userSpaceOnUse" x1="931.4169" y1="891.0884" x2="956.1" y2="294.2068">
				<stop  offset="0.0227" style="stop-color:#A6C4CD"/>
				<stop  offset="0.1245" style="stop-color:#B3D7CD"/>
				<stop  offset="0.505" style="stop-color:#B6DAD0"/>
				<stop  offset="1" style="stop-color:#C1E2D9"/>
			</linearGradient>
			<polygon style="fill:url(#SVGID_36_);" points="867.818,829.098 982.629,764.561 995.21,948.375 881.089,834.66 			"/>
			<linearGradient id="SVGID_37_" gradientUnits="userSpaceOnUse" x1="1010.8257" y1="571.9572" x2="1075.5734" y2="837.4952">
				<stop  offset="0.0227" style="stop-color:#A6C4CD"/>
				<stop  offset="0.1245" style="stop-color:#B3D7CD"/>
				<stop  offset="0.505" style="stop-color:#B6DAD0"/>
				<stop  offset="1" style="stop-color:#C1E2D9"/>
			</linearGradient>
			<polygon style="fill:url(#SVGID_37_);" points="1034.229,697.974 912.63,648.732 898.321,582.188 1063.481,622.221 
				1151.553,669.607 			"/>
			<linearGradient id="SVGID_38_" gradientUnits="userSpaceOnUse" x1="727.2165" y1="716.5897" x2="1292.7446" y2="311.562">
				<stop  offset="0.0227" style="stop-color:#A6C4CD"/>
				<stop  offset="0.1245" style="stop-color:#B3D7CD"/>
				<stop  offset="0.505" style="stop-color:#B6DAD0"/>
				<stop  offset="1" style="stop-color:#C1E2D9"/>
			</linearGradient>
			<polygon style="fill:url(#SVGID_38_);" points="898.321,582.188 622.824,726.421 730.294,771.462 912.63,648.732 			"/>
			<linearGradient id="SVGID_39_" gradientUnits="userSpaceOnUse" x1="902.9467" y1="750.3635" x2="457.3218" y2="413.3125">
				<stop  offset="0.0227" style="stop-color:#A6C4CD"/>
				<stop  offset="0.1245" style="stop-color:#B3D7CD"/>
				<stop  offset="0.505" style="stop-color:#B6DAD0"/>
				<stop  offset="1" style="stop-color:#C1E2D9"/>
			</linearGradient>
			<polygon style="fill:url(#SVGID_39_);" points="730.294,771.462 912.63,648.732 1034.229,697.974 			"/>
			<linearGradient id="SVGID_40_" gradientUnits="userSpaceOnUse" x1="753.6939" y1="614.3304" x2="168.7363" y2="171.8942">
				<stop  offset="0.0227" style="stop-color:#A6C4CD"/>
				<stop  offset="0.1245" style="stop-color:#B3D7CD"/>
				<stop  offset="0.505" style="stop-color:#B6DAD0"/>
				<stop  offset="1" style="stop-color:#C1E2D9"/>
			</linearGradient>
			<polygon style="fill:url(#SVGID_40_);" points="622.824,515.41 631.994,599.755 677.159,697.974 898.321,582.188 			"/>
			<linearGradient id="SVGID_41_" gradientUnits="userSpaceOnUse" x1="602.1849" y1="672.5029" x2="144.0042" y2="325.9553">
				<stop  offset="0.0227" style="stop-color:#A6C4CD"/>
				<stop  offset="0.1245" style="stop-color:#B3D7CD"/>
				<stop  offset="0.505" style="stop-color:#B6DAD0"/>
				<stop  offset="1" style="stop-color:#C1E2D9"/>
			</linearGradient>
			<polygon style="fill:url(#SVGID_41_);" points="453.854,655.606 631.994,599.755 677.159,697.974 622.824,726.421 			"/>
			<linearGradient id="SVGID_42_" gradientUnits="userSpaceOnUse" x1="598.7386" y1="535.8979" x2="202.2359" y2="236.0007">
				<stop  offset="0.0227" style="stop-color:#A6C4CD"/>
				<stop  offset="0.1245" style="stop-color:#B3D7CD"/>
				<stop  offset="0.505" style="stop-color:#B6DAD0"/>
				<stop  offset="1" style="stop-color:#C1E2D9"/>
			</linearGradient>
			<polygon style="fill:url(#SVGID_42_);" points="498.358,484.279 631.994,599.755 622.824,515.41 			"/>
			<linearGradient id="SVGID_43_" gradientUnits="userSpaceOnUse" x1="527.3945" y1="621.8309" x2="100.0281" y2="298.5899">
				<stop  offset="0.0227" style="stop-color:#A6C4CD"/>
				<stop  offset="0.1245" style="stop-color:#B3D7CD"/>
				<stop  offset="0.505" style="stop-color:#B6DAD0"/>
				<stop  offset="1" style="stop-color:#C1E2D9"/>
			</linearGradient>
			<polygon style="fill:url(#SVGID_43_);" points="376.191,623.058 498.358,484.279 631.994,599.755 453.854,655.606 			"/>
			<linearGradient id="SVGID_44_" gradientUnits="userSpaceOnUse" x1="388.7921" y1="527.5425" x2="15.1895" y2="244.966">
				<stop  offset="0.0227" style="stop-color:#A6C4CD"/>
				<stop  offset="0.1245" style="stop-color:#B3D7CD"/>
				<stop  offset="0.505" style="stop-color:#B6DAD0"/>
				<stop  offset="1" style="stop-color:#C1E2D9"/>
			</linearGradient>
			<polygon style="fill:url(#SVGID_44_);" points="325.465,437.581 313.662,596.852 376.191,623.058 498.358,484.279 			"/>
			<linearGradient id="SVGID_45_" gradientUnits="userSpaceOnUse" x1="304.3761" y1="505.7296" x2="-75.8507" y2="218.1428">
				<stop  offset="0.0227" style="stop-color:#A6C4CD"/>
				<stop  offset="0.1245" style="stop-color:#B3D7CD"/>
				<stop  offset="0.505" style="stop-color:#B6DAD0"/>
				<stop  offset="1" style="stop-color:#C1E2D9"/>
			</linearGradient>
			<polygon style="fill:url(#SVGID_45_);" points="247.421,416.502 206.575,458.268 313.662,596.852 325.465,437.581 			"/>
			<linearGradient id="SVGID_46_" gradientUnits="userSpaceOnUse" x1="254.6943" y1="554.9187" x2="-186.1956" y2="221.449">
				<stop  offset="0.0227" style="stop-color:#A6C4CD"/>
				<stop  offset="0.1245" style="stop-color:#B3D7CD"/>
				<stop  offset="0.505" style="stop-color:#B6DAD0"/>
				<stop  offset="1" style="stop-color:#C1E2D9"/>
			</linearGradient>
			<polygon style="fill:url(#SVGID_46_);" points="127.089,518.66 206.575,458.268 313.662,596.852 			"/>
			<linearGradient id="SVGID_47_" gradientUnits="userSpaceOnUse" x1="195.4878" y1="414.2507" x2="-292.0705" y2="655.1619">
				<stop  offset="0.0227" style="stop-color:#A6C4CD"/>
				<stop  offset="0.1245" style="stop-color:#B3D7CD"/>
				<stop  offset="0.505" style="stop-color:#B6DAD0"/>
				<stop  offset="1" style="stop-color:#C1E2D9"/>
			</linearGradient>
			<polygon style="fill:url(#SVGID_47_);" points="222.089,409.66 147.303,367.448 127.089,518.66 206.575,458.268 247.421,416.502 
							"/>
			<linearGradient id="SVGID_48_" gradientUnits="userSpaceOnUse" x1="93.2772" y1="393.0333" x2="85.6292" y2="748.6641">
				<stop  offset="0.0227" style="stop-color:#A6C4CD"/>
				<stop  offset="0.1245" style="stop-color:#B3D7CD"/>
				<stop  offset="0.505" style="stop-color:#B6DAD0"/>
				<stop  offset="1" style="stop-color:#C1E2D9"/>
			</linearGradient>
			<polygon style="fill:url(#SVGID_48_);" points="147.303,367.448 40.089,379.66 40.089,424.66 127.089,518.66 			"/>
			<linearGradient id="SVGID_49_" gradientUnits="userSpaceOnUse" x1="149.354" y1="303.3173" x2="-169.9489" y2="599.6763">
				<stop  offset="0.0227" style="stop-color:#A6C4CD"/>
				<stop  offset="0.1245" style="stop-color:#B3D7CD"/>
				<stop  offset="0.505" style="stop-color:#B6DAD0"/>
				<stop  offset="1" style="stop-color:#C1E2D9"/>
			</linearGradient>
			<polygon style="fill:url(#SVGID_49_);" points="147.303,367.448 202.609,294.802 70.089,314.66 40.089,379.66 			"/>
			<linearGradient id="SVGID_50_" gradientUnits="userSpaceOnUse" x1="266.1016" y1="325.6708" x2="-300.4964" y2="605.6368">
				<stop  offset="0.0227" style="stop-color:#A6C4CD"/>
				<stop  offset="0.1245" style="stop-color:#B3D7CD"/>
				<stop  offset="0.505" style="stop-color:#B6DAD0"/>
				<stop  offset="1" style="stop-color:#C1E2D9"/>
			</linearGradient>
			<polygon style="fill:url(#SVGID_50_);" points="222.089,409.66 147.303,367.448 202.609,294.802 302.512,279.832 267.089,352.66 
							"/>
			<linearGradient id="SVGID_51_" gradientUnits="userSpaceOnUse" x1="345.0096" y1="278.0945" x2="307.6393" y2="498.5792">
				<stop  offset="0.0227" style="stop-color:#A6C4CD"/>
				<stop  offset="0.1245" style="stop-color:#B3D7CD"/>
				<stop  offset="0.505" style="stop-color:#B6DAD0"/>
				<stop  offset="1" style="stop-color:#C1E2D9"/>
			</linearGradient>
			<polygon style="fill:url(#SVGID_51_);" points="372.046,269.413 402.235,325.63 267.089,352.66 302.512,279.832 			"/>
			<linearGradient id="SVGID_52_" gradientUnits="userSpaceOnUse" x1="450.9029" y1="250.5643" x2="92.6351" y2="427.5907">
				<stop  offset="0.0227" style="stop-color:#A6C4CD"/>
				<stop  offset="0.1245" style="stop-color:#B3D7CD"/>
				<stop  offset="0.505" style="stop-color:#B6DAD0"/>
				<stop  offset="1" style="stop-color:#C1E2D9"/>
			</linearGradient>
			<polygon style="fill:url(#SVGID_52_);" points="387.261,297.745 488.908,251.902 372.046,269.413 			"/>
			<linearGradient id="SVGID_53_" gradientUnits="userSpaceOnUse" x1="423.9626" y1="323.4025" x2="561.1716" y2="73.7387">
				<stop  offset="0.0227" style="stop-color:#A6C4CD"/>
				<stop  offset="0.1245" style="stop-color:#B3D7CD"/>
				<stop  offset="0.505" style="stop-color:#B6DAD0"/>
				<stop  offset="1" style="stop-color:#C1E2D9"/>
			</linearGradient>
			<polygon style="fill:url(#SVGID_53_);" points="402.235,325.63 482.346,309.608 488.908,251.902 387.261,297.745 			"/>
			<linearGradient id="SVGID_54_" gradientUnits="userSpaceOnUse" x1="537.7253" y1="282.8866" x2="340.2992" y2="-20.7879">
				<stop  offset="0.0227" style="stop-color:#A6C4CD"/>
				<stop  offset="0.1245" style="stop-color:#B3D7CD"/>
				<stop  offset="0.505" style="stop-color:#B6DAD0"/>
				<stop  offset="1" style="stop-color:#C1E2D9"/>
			</linearGradient>
			<polygon style="fill:url(#SVGID_54_);" points="488.908,251.902 581.329,238.053 530.401,299.997 482.346,309.608 			"/>
			<linearGradient id="SVGID_55_" gradientUnits="userSpaceOnUse" x1="593.2642" y1="301.0797" x2="370.4555" y2="-41.6375">
				<stop  offset="0.0227" style="stop-color:#A6C4CD"/>
				<stop  offset="0.1245" style="stop-color:#B3D7CD"/>
				<stop  offset="0.505" style="stop-color:#B6DAD0"/>
				<stop  offset="1" style="stop-color:#C1E2D9"/>
			</linearGradient>
			<polygon style="fill:url(#SVGID_55_);" points="562.089,293.66 643.325,282.47 581.329,238.053 530.401,299.997 			"/>
			<linearGradient id="SVGID_56_" gradientUnits="userSpaceOnUse" x1="646.3887" y1="230.7763" x2="646.7618" y2="300.9169">
				<stop  offset="0.0227" style="stop-color:#A6C4CD"/>
				<stop  offset="0.1245" style="stop-color:#B3D7CD"/>
				<stop  offset="0.505" style="stop-color:#B6DAD0"/>
				<stop  offset="1" style="stop-color:#C1E2D9"/>
			</linearGradient>
			<polygon style="fill:url(#SVGID_56_);" points="581.329,238.053 643.325,282.47 704.472,244.143 711.372,209.034 
				625.109,231.492 			"/>
			<linearGradient id="SVGID_57_" gradientUnits="userSpaceOnUse" x1="688.6578" y1="272.8594" x2="791.9842" y2="239.9481">
				<stop  offset="0.0227" style="stop-color:#A6C4CD"/>
				<stop  offset="0.1245" style="stop-color:#B3D7CD"/>
				<stop  offset="0.505" style="stop-color:#B6DAD0"/>
				<stop  offset="1" style="stop-color:#C1E2D9"/>
			</linearGradient>
			<polygon style="fill:url(#SVGID_57_);" points="704.472,244.143 801.025,260.748 643.325,282.47 			"/>
			<linearGradient id="SVGID_58_" gradientUnits="userSpaceOnUse" x1="745.8902" y1="253.9803" x2="846.6241" y2="67.4361">
				<stop  offset="0.0227" style="stop-color:#A6C4CD"/>
				<stop  offset="0.1245" style="stop-color:#B3D7CD"/>
				<stop  offset="0.505" style="stop-color:#B6DAD0"/>
				<stop  offset="1" style="stop-color:#C1E2D9"/>
			</linearGradient>
			<polygon style="fill:url(#SVGID_58_);" points="711.372,209.034 791.401,210.938 801.025,260.748 704.472,244.143 			"/>
			<linearGradient id="SVGID_59_" gradientUnits="userSpaceOnUse" x1="784.1436" y1="230.8515" x2="924.6889" y2="-29.4178">
				<stop  offset="0.0227" style="stop-color:#A6C4CD"/>
				<stop  offset="0.1245" style="stop-color:#B3D7CD"/>
				<stop  offset="0.505" style="stop-color:#B6DAD0"/>
				<stop  offset="1" style="stop-color:#C1E2D9"/>
			</linearGradient>
			<polygon style="fill:url(#SVGID_59_);" points="791.401,210.938 869.377,229.592 853.089,199.66 851.089,172.66 711.372,209.034 
							"/>
			<linearGradient id="SVGID_60_" gradientUnits="userSpaceOnUse" x1="833.9592" y1="229.1019" x2="726.5098" y2="352.5941">
				<stop  offset="0.0227" style="stop-color:#A6C4CD"/>
				<stop  offset="0.1245" style="stop-color:#B3D7CD"/>
				<stop  offset="0.505" style="stop-color:#B6DAD0"/>
				<stop  offset="1" style="stop-color:#C1E2D9"/>
			</linearGradient>
			<polygon style="fill:url(#SVGID_60_);" points="801.025,260.748 873.469,250.77 869.377,229.592 791.401,210.938 			"/>
		</g>
		<linearGradient id="SVGID_61_" gradientUnits="userSpaceOnUse" x1="142.3907" y1="2910.9644" x2="734.8633" y2="2437.2727">
			<stop  offset="0.0227" style="stop-color:#A6C4CD"/>
			<stop  offset="0.1245" style="stop-color:#B3D7CD"/>
			<stop  offset="0.505" style="stop-color:#B6DAD0"/>
			<stop  offset="1" style="stop-color:#C1E2D9"/>
		</linearGradient>
		<polygon style="fill:url(#SVGID_61_);" points="310.431,2612.975 400.794,3048.855 119.431,2942.975 0.431,2793.975 
			0.431,2679.975 		"/>
		<linearGradient id="SVGID_62_" gradientUnits="userSpaceOnUse" x1="632.1025" y1="3116.7227" x2="276.2054" y2="2573.9534">
			<stop  offset="0.0227" style="stop-color:#A6C4CD"/>
			<stop  offset="0.505" style="stop-color:#B6DAD0"/>
			<stop  offset="1" style="stop-color:#C1E2D9"/>
		</linearGradient>
		<polygon style="fill:url(#SVGID_62_);" points="585.431,2759.975 715.431,3006.975 658.644,3146.059 400.431,3048.975 
			310.431,2612.975 		"/>
		<linearGradient id="SVGID_63_" gradientUnits="userSpaceOnUse" x1="905.6265" y1="2765.5513" x2="541.0729" y2="3352.0071">
			<stop  offset="0.0227" style="stop-color:#A6C4CD"/>
			<stop  offset="0.1245" style="stop-color:#B3D7CD"/>
			<stop  offset="0.505" style="stop-color:#B6DAD0"/>
			<stop  offset="1" style="stop-color:#C1E2D9"/>
		</linearGradient>
		<polygon style="fill:url(#SVGID_63_);" points="923.431,2701.975 1131.431,2922.975 715.431,3006.975 585.431,2759.975 		"/>
		<linearGradient id="SVGID_64_" gradientUnits="userSpaceOnUse" x1="1169.4124" y1="2885.2878" x2="1199.0116" y2="2662.3059">
			<stop  offset="0.0227" style="stop-color:#A6C4CD"/>
			<stop  offset="0.1245" style="stop-color:#B3D7CD"/>
			<stop  offset="0.505" style="stop-color:#B6DAD0"/>
			<stop  offset="1" style="stop-color:#C1E2D9"/>
		</linearGradient>
		<polygon style="fill:url(#SVGID_64_);" points="1131.431,2922.975 1356.431,2955.975 1443.089,2859.966 923.431,2701.975 		"/>
		<linearGradient id="SVGID_65_" gradientUnits="userSpaceOnUse" x1="871.6105" y1="3002.3511" x2="2173.0845" y2="3152.0469">
			<stop  offset="0.0227" style="stop-color:#A6C4CD"/>
			<stop  offset="0.1245" style="stop-color:#B3D7CD"/>
			<stop  offset="0.505" style="stop-color:#B6DAD0"/>
			<stop  offset="1" style="stop-color:#C1E2D9"/>
		</linearGradient>
		<polygon style="fill:url(#SVGID_65_);" points="715.431,3006.975 1083.431,3135.975 1131.431,2922.975 		"/>
		<linearGradient id="SVGID_66_" gradientUnits="userSpaceOnUse" x1="953.3463" y1="3299.8228" x2="803.6503" y2="2590.0879">
			<stop  offset="0.0227" style="stop-color:#A6C4CD"/>
			<stop  offset="0.1245" style="stop-color:#B3D7CD"/>
			<stop  offset="0.505" style="stop-color:#B6DAD0"/>
			<stop  offset="1" style="stop-color:#C1E2D9"/>
		</linearGradient>
		<polygon style="fill:url(#SVGID_66_);" points="1083.431,3135.975 1219.431,3316.975 1005.431,3276.975 658.431,3145.975 
			715.431,3006.975 		"/>
		<linearGradient id="SVGID_67_" gradientUnits="userSpaceOnUse" x1="1480.4279" y1="3281.8464" x2="529.3022" y2="2563.5691">
			<stop  offset="0.0227" style="stop-color:#A6C4CD"/>
			<stop  offset="0.2802" style="stop-color:#B3D7CD"/>
			<stop  offset="0.505" style="stop-color:#B6DAD0"/>
			<stop  offset="1" style="stop-color:#C1E2D9"/>
		</linearGradient>
		<polygon style="fill:url(#SVGID_67_);" points="1219.431,3316.975 1555.431,3316.975 1356.431,2955.975 1131.431,2922.975 
			1083.431,3135.975 		"/>
		<linearGradient id="SVGID_68_" gradientUnits="userSpaceOnUse" x1="1493.2594" y1="3019.4304" x2="2211.5369" y2="3725.8682">
			<stop  offset="0.0227" style="stop-color:#A6C4CD"/>
			<stop  offset="0.4072" style="stop-color:#B3D7CD"/>
			<stop  offset="0.505" style="stop-color:#B6DAD0"/>
			<stop  offset="1" style="stop-color:#C1E2D9"/>
		</linearGradient>
		<polygon style="fill:url(#SVGID_68_);" points="1555.431,3316.975 1923.089,3491.49 1923.431,3211.975 1628.431,2915.975 
			1443.431,2859.975 1356.431,2955.975 		"/>
		<linearGradient id="SVGID_69_" gradientUnits="userSpaceOnUse" x1="1179.4816" y1="3725.884" x2="2010.2366" y2="2753.0522">
			<stop  offset="0.0227" style="stop-color:#A6C4CD"/>
			<stop  offset="0.0724" style="stop-color:#B3D7CD"/>
			<stop  offset="0.505" style="stop-color:#B6DAD0"/>
			<stop  offset="1" style="stop-color:#C1E2D9"/>
		</linearGradient>
		<polygon style="fill:url(#SVGID_69_);" points="1219.431,3316.975 1579.658,3656.608 1538.219,3958.521 1089.089,3746.66 
			1005.431,3276.975 		"/>
		<linearGradient id="SVGID_70_" gradientUnits="userSpaceOnUse" x1="1788.7423" y1="3614.2512" x2="1109.9307" y2="3489.9341">
			<stop  offset="0.0227" style="stop-color:#A6C4CD"/>
			<stop  offset="0.2252" style="stop-color:#B3D7CD"/>
			<stop  offset="0.505" style="stop-color:#B6DAD0"/>
			<stop  offset="1" style="stop-color:#C1E2D9"/>
		</linearGradient>
		<polygon style="fill:url(#SVGID_70_);" points="1579.658,3656.608 1923.089,3893.403 1923.089,3491.49 1555.431,3316.975 
			1219.431,3316.975 		"/>
		<linearGradient id="SVGID_71_" gradientUnits="userSpaceOnUse" x1="1852.5469" y1="3881.3052" x2="812.6232" y2="4370.6812">
			<stop  offset="0.0227" style="stop-color:#A6C4CD"/>
			<stop  offset="0.2252" style="stop-color:#B3D7CD"/>
			<stop  offset="0.505" style="stop-color:#B6DAD0"/>
			<stop  offset="1" style="stop-color:#C1E2D9"/>
		</linearGradient>
		<polygon style="fill:url(#SVGID_71_);" points="1538.219,3958.521 1391.473,4451.396 1923.089,4015.66 1923.089,3893.403 
			1579.658,3656.608 		"/>
		<linearGradient id="SVGID_72_" gradientUnits="userSpaceOnUse" x1="1402.1091" y1="4241.1929" x2="444.243" y2="3727.4985">
			<stop  offset="0.0227" style="stop-color:#A6C4CD"/>
			<stop  offset="0.3792" style="stop-color:#B3D7CD"/>
			<stop  offset="0.505" style="stop-color:#B6DAD0"/>
			<stop  offset="1" style="stop-color:#C1E2D9"/>
		</linearGradient>
		<polygon style="fill:url(#SVGID_72_);" points="1089.089,3746.66 872.454,4102.171 1005.431,4384.124 1391.473,4451.396 
			1538.219,3958.521 		"/>
		<linearGradient id="SVGID_73_" gradientUnits="userSpaceOnUse" x1="1144.0433" y1="4573.7622" x2="1680.9117" y2="4494.584">
			<stop  offset="0.0227" style="stop-color:#A6C4CD"/>
			<stop  offset="0.3792" style="stop-color:#B3D7CD"/>
			<stop  offset="0.505" style="stop-color:#B6DAD0"/>
			<stop  offset="1" style="stop-color:#C1E2D9"/>
		</linearGradient>
		<polygon style="fill:url(#SVGID_73_);" points="1005.431,4384.124 816.45,4832.158 1302.089,4524.66 1391.473,4451.396 		"/>
		<linearGradient id="SVGID_74_" gradientUnits="userSpaceOnUse" x1="829.5071" y1="4136.9575" x2="926.0662" y2="4872.7378">
			<stop  offset="0.0227" style="stop-color:#A6C4CD"/>
			<stop  offset="0.3792" style="stop-color:#B3D7CD"/>
			<stop  offset="0.505" style="stop-color:#B6DAD0"/>
			<stop  offset="1" style="stop-color:#C1E2D9"/>
		</linearGradient>
		<polygon style="fill:url(#SVGID_74_);" points="816.45,4832.158 733.409,4498.063 733.409,4086.722 872.454,4102.171 
			1005.431,4384.124 		"/>
		<linearGradient id="SVGID_75_" gradientUnits="userSpaceOnUse" x1="760.4203" y1="3816.9707" x2="802.178" y2="4135.1641">
			<stop  offset="0.0227" style="stop-color:#A6C4CD"/>
			<stop  offset="0.3792" style="stop-color:#B3D7CD"/>
			<stop  offset="0.505" style="stop-color:#B6DAD0"/>
			<stop  offset="1" style="stop-color:#C1E2D9"/>
		</linearGradient>
		<polygon style="fill:url(#SVGID_75_);" points="733.409,4086.722 455.412,4067.576 1089.089,3746.66 872.454,4102.171 		"/>
		<linearGradient id="SVGID_76_" gradientUnits="userSpaceOnUse" x1="291.4731" y1="4290.0005" x2="1343.967" y2="4564.228">
			<stop  offset="0.0227" style="stop-color:#A6C4CD"/>
			<stop  offset="0.3792" style="stop-color:#B3D7CD"/>
			<stop  offset="0.505" style="stop-color:#B6DAD0"/>
			<stop  offset="1" style="stop-color:#C1E2D9"/>
		</linearGradient>
		<polygon style="fill:url(#SVGID_76_);" points="212.906,4203.829 408.971,4639.04 733.409,4498.063 733.409,4086.722 
			455.412,4067.576 		"/>
		<linearGradient id="SVGID_77_" gradientUnits="userSpaceOnUse" x1="610.3365" y1="4630.1299" x2="623.8549" y2="5230.7271">
			<stop  offset="0.0227" style="stop-color:#A6C4CD"/>
			<stop  offset="0.3792" style="stop-color:#B3D7CD"/>
			<stop  offset="0.505" style="stop-color:#B6DAD0"/>
			<stop  offset="1" style="stop-color:#C1E2D9"/>
		</linearGradient>
		<polygon style="fill:url(#SVGID_77_);" points="408.971,4639.04 488.149,5181.702 741.134,5181.702 816.45,4832.158 
			733.409,4498.063 		"/>
		<linearGradient id="SVGID_78_" gradientUnits="userSpaceOnUse" x1="1102.6775" y1="4897.2202" x2="913.4217" y2="3943.2166">
			<stop  offset="0.0227" style="stop-color:#A6C4CD"/>
			<stop  offset="0.3792" style="stop-color:#B3D7CD"/>
			<stop  offset="0.505" style="stop-color:#B6DAD0"/>
			<stop  offset="1" style="stop-color:#C1E2D9"/>
		</linearGradient>
		<polygon style="fill:url(#SVGID_78_);" points="816.45,4832.158 1103.961,5156.596 1306.089,4944.66 1346.734,4765.978 
			1302.089,4524.66 		"/>
		<linearGradient id="SVGID_79_" gradientUnits="userSpaceOnUse" x1="745.9352" y1="5086.4961" x2="1027.4504" y2="5279.2256">
			<stop  offset="0.0227" style="stop-color:#A6C4CD"/>
			<stop  offset="0.3792" style="stop-color:#B3D7CD"/>
			<stop  offset="0.505" style="stop-color:#B6DAD0"/>
			<stop  offset="1" style="stop-color:#C1E2D9"/>
		</linearGradient>
		<polygon style="fill:url(#SVGID_79_);" points="741.134,5181.702 884.042,5483.66 1073.297,5392.201 1103.961,5156.596 
			816.45,4832.158 		"/>
		<linearGradient id="SVGID_80_" gradientUnits="userSpaceOnUse" x1="1447.0139" y1="5281.3765" x2="941.0444" y2="5059.2905">
			<stop  offset="0.0227" style="stop-color:#A6C4CD"/>
			<stop  offset="0.3792" style="stop-color:#B3D7CD"/>
			<stop  offset="0.505" style="stop-color:#B6DAD0"/>
			<stop  offset="1" style="stop-color:#C1E2D9"/>
		</linearGradient>
		<polygon style="fill:url(#SVGID_80_);" points="1563.97,5169.94 1073.297,5392.201 1103.961,5156.596 1306.089,4944.66 		"/>
		<linearGradient id="SVGID_81_" gradientUnits="userSpaceOnUse" x1="1224.0057" y1="5408.5503" x2="1224.0057" y2="5449.6948">
			<stop  offset="0.0227" style="stop-color:#A6C4CD"/>
			<stop  offset="0.3792" style="stop-color:#B3D7CD"/>
			<stop  offset="0.505" style="stop-color:#B6DAD0"/>
			<stop  offset="1" style="stop-color:#C1E2D9"/>
		</linearGradient>
		<polygon style="fill:url(#SVGID_81_);" points="1073.297,5392.201 1440.222,5392.201 1563.97,5483.66 884.042,5483.66 		"/>
		<linearGradient id="SVGID_82_" gradientUnits="userSpaceOnUse" x1="1258.0626" y1="5388.377" x2="1582.5012" y2="5257.0566">
			<stop  offset="0.0227" style="stop-color:#A6C4CD"/>
			<stop  offset="0.3792" style="stop-color:#B3D7CD"/>
			<stop  offset="0.505" style="stop-color:#B6DAD0"/>
			<stop  offset="1" style="stop-color:#C1E2D9"/>
		</linearGradient>
		<polygon style="fill:url(#SVGID_82_);" points="1440.222,5392.201 1712.001,5299.257 1563.97,5169.94 1073.297,5392.201 		"/>
		<linearGradient id="SVGID_83_" gradientUnits="userSpaceOnUse" x1="1660.8688" y1="5340.9263" x2="1673.8618" y2="5401.5601">
			<stop  offset="0.0227" style="stop-color:#A6C4CD"/>
			<stop  offset="0.3792" style="stop-color:#B3D7CD"/>
			<stop  offset="0.505" style="stop-color:#B6DAD0"/>
			<stop  offset="1" style="stop-color:#C1E2D9"/>
		</linearGradient>
		<polygon style="fill:url(#SVGID_83_);" points="1923.089,5483.66 1712.001,5299.257 1440.222,5392.201 1563.97,5483.66 		"/>
		<linearGradient id="SVGID_84_" gradientUnits="userSpaceOnUse" x1="616.2225" y1="5259.1304" x2="616.2225" y2="5473.5151">
			<stop  offset="0.0227" style="stop-color:#A6C4CD"/>
			<stop  offset="0.3792" style="stop-color:#B3D7CD"/>
			<stop  offset="0.505" style="stop-color:#B6DAD0"/>
			<stop  offset="1" style="stop-color:#C1E2D9"/>
		</linearGradient>
		<polygon style="fill:url(#SVGID_84_);" points="488.149,5181.702 348.403,5483.66 884.042,5483.66 741.134,5181.702 		"/>
		<linearGradient id="SVGID_85_" gradientUnits="userSpaceOnUse" x1="234.5456" y1="4725.7852" x2="223.1337" y2="4176.3843">
			<stop  offset="0.0227" style="stop-color:#A6C4CD"/>
			<stop  offset="0.3263" style="stop-color:#B3D7CD"/>
			<stop  offset="0.505" style="stop-color:#B6DAD0"/>
			<stop  offset="1" style="stop-color:#C1E2D9"/>
		</linearGradient>
		<polygon style="fill:url(#SVGID_85_);" points="54.649,4549.107 263.629,4798.543 408.971,4639.04 212.906,4203.829 		"/>
		<linearGradient id="SVGID_86_" gradientUnits="userSpaceOnUse" x1="350.0083" y1="5117.5459" x2="339.5822" y2="4615.6011">
			<stop  offset="0.0227" style="stop-color:#A6C4CD"/>
			<stop  offset="0.3263" style="stop-color:#B3D7CD"/>
			<stop  offset="0.505" style="stop-color:#B6DAD0"/>
			<stop  offset="1" style="stop-color:#C1E2D9"/>
		</linearGradient>
		<polygon style="fill:url(#SVGID_86_);" points="263.629,4798.543 212.906,5103.404 488.149,5181.702 408.971,4639.04 		"/>
		<linearGradient id="SVGID_87_" gradientUnits="userSpaceOnUse" x1="178.8111" y1="5186.936" x2="174.4801" y2="5468.4517">
			<stop  offset="0.0227" style="stop-color:#A6C4CD"/>
			<stop  offset="0.3263" style="stop-color:#B3D7CD"/>
			<stop  offset="0.505" style="stop-color:#B6DAD0"/>
			<stop  offset="1" style="stop-color:#C1E2D9"/>
		</linearGradient>
		<polygon style="fill:url(#SVGID_87_);" points="212.906,5103.404 0.089,5483.66 348.403,5483.66 		"/>
		<linearGradient id="SVGID_88_" gradientUnits="userSpaceOnUse" x1="367.126" y1="5195.3652" x2="438.5876" y2="5422.7432">
			<stop  offset="0.0227" style="stop-color:#A6C4CD"/>
			<stop  offset="0.3263" style="stop-color:#B3D7CD"/>
			<stop  offset="0.505" style="stop-color:#B6DAD0"/>
			<stop  offset="1" style="stop-color:#C1E2D9"/>
		</linearGradient>
		<polygon style="fill:url(#SVGID_88_);" points="212.906,5103.404 488.149,5181.702 348.403,5483.66 		"/>
		<linearGradient id="SVGID_89_" gradientUnits="userSpaceOnUse" x1="10.5231" y1="4886.3423" x2="534.9624" y2="4630.6782">
			<stop  offset="0.0227" style="stop-color:#A6C4CD"/>
			<stop  offset="0.3263" style="stop-color:#B3D7CD"/>
			<stop  offset="0.505" style="stop-color:#B6DAD0"/>
			<stop  offset="1" style="stop-color:#C1E2D9"/>
		</linearGradient>
		<polygon style="fill:url(#SVGID_89_);" points="212.906,5103.404 0.089,4961.487 0,4668.337 54.649,4549.107 263.629,4798.543 		
			"/>
		<linearGradient id="SVGID_90_" gradientUnits="userSpaceOnUse" x1="140.5871" y1="5243.7104" x2="-44.6055" y2="5215.8496">
			<stop  offset="0.0227" style="stop-color:#A6C4CD"/>
			<stop  offset="0.3263" style="stop-color:#B3D7CD"/>
			<stop  offset="0.505" style="stop-color:#B6DAD0"/>
			<stop  offset="1" style="stop-color:#C1E2D9"/>
		</linearGradient>
		<polygon style="fill:url(#SVGID_90_);" points="212.906,5103.404 0.089,4961.487 0.089,5483.66 		"/>
	</g>
</g>
</svg>
